G04 #@! TF.FileFunction,Soldermask,Bot*
%FSLAX46Y46*%
G04 Gerber Fmt 4.6, Leading zero omitted, Abs format (unit mm)*
G04 Created by KiCad (PCBNEW (after 2015-mar-04 BZR unknown)-product) date 9/14/2015 9:21:43 PM*
%MOMM*%
G01*
G04 APERTURE LIST*
%ADD10C,0.100000*%
%ADD11R,1.422400X1.422400*%
%ADD12C,1.422400*%
%ADD13R,1.300000X1.300000*%
%ADD14C,1.300000*%
%ADD15R,1.600000X1.600000*%
%ADD16C,1.600000*%
%ADD17C,1.998980*%
%ADD18R,1.998980X1.998980*%
%ADD19C,4.064000*%
%ADD20C,2.999740*%
%ADD21R,2.000000X2.000000*%
%ADD22C,2.000000*%
%ADD23O,2.300000X1.600000*%
%ADD24O,1.600000X2.300000*%
%ADD25O,3.500120X1.699260*%
%ADD26C,3.799840*%
%ADD27O,3.014980X1.506220*%
%ADD28O,1.506220X3.014980*%
%ADD29C,5.000000*%
%ADD30C,1.500000*%
G04 APERTURE END LIST*
D10*
D11*
X64770000Y-77470000D03*
D12*
X72390000Y-77470000D03*
D13*
X141920000Y-84380000D03*
D14*
X141920000Y-76880000D03*
D15*
X124140000Y-92000000D03*
D16*
X124140000Y-77000000D03*
D17*
X84770000Y-114862540D03*
D18*
X94930000Y-114862540D03*
D17*
X84770000Y-142802540D03*
D18*
X94930000Y-142802540D03*
D17*
X108900000Y-142797460D03*
D18*
X98740000Y-142797460D03*
D17*
X108900000Y-114857460D03*
D18*
X98740000Y-114857460D03*
D19*
X113980000Y-142800000D03*
X115250000Y-107240000D03*
X113980000Y-127560000D03*
X121600000Y-142800000D03*
X121600000Y-107240000D03*
X121600000Y-132640000D03*
X121600000Y-137720000D03*
X121600000Y-127560000D03*
X121600000Y-122480000D03*
X121600000Y-117400000D03*
X121600000Y-112320000D03*
X164780000Y-142800000D03*
X164780000Y-137720000D03*
X164780000Y-132640000D03*
X164780000Y-127560000D03*
X164780000Y-122480000D03*
X164780000Y-117400000D03*
X164780000Y-112320000D03*
X172400000Y-127560000D03*
X172400000Y-137720000D03*
D20*
X133030000Y-142800000D03*
X133030000Y-137720000D03*
X133030000Y-132640000D03*
X133030000Y-127560000D03*
X133030000Y-122480000D03*
X133030000Y-117400000D03*
X133030000Y-112320000D03*
X155890000Y-112320000D03*
X155890000Y-117400000D03*
X155890000Y-122480000D03*
X155890000Y-127560000D03*
X155890000Y-132640000D03*
X155890000Y-137720000D03*
X155890000Y-142800000D03*
X127950000Y-107240000D03*
D21*
X74930000Y-88900000D03*
D22*
X74930000Y-91393000D03*
X74930000Y-93893000D03*
X74930000Y-96393000D03*
X74930000Y-98893000D03*
X74930000Y-101393000D03*
X74930000Y-103893000D03*
D23*
X54610000Y-138430000D03*
X54610000Y-140970000D03*
X54610000Y-143510000D03*
X54610000Y-146050000D03*
X62230000Y-146050000D03*
X62230000Y-143510000D03*
X62230000Y-140970000D03*
X62230000Y-138430000D03*
X48260000Y-115570000D03*
X48260000Y-118110000D03*
X48260000Y-120650000D03*
X48260000Y-123190000D03*
X55880000Y-123190000D03*
X55880000Y-120650000D03*
X55880000Y-118110000D03*
X55880000Y-115570000D03*
X68260000Y-118670000D03*
X68260000Y-121210000D03*
X68260000Y-123750000D03*
X68260000Y-126290000D03*
X68260000Y-128830000D03*
X68260000Y-131370000D03*
X68260000Y-133910000D03*
X68260000Y-136450000D03*
X75880000Y-136450000D03*
X75880000Y-133910000D03*
X75880000Y-131370000D03*
X75880000Y-128830000D03*
X75880000Y-126290000D03*
X75880000Y-123750000D03*
X75880000Y-121210000D03*
X75880000Y-118670000D03*
D24*
X52070000Y-67310000D03*
X54610000Y-67310000D03*
X57150000Y-67310000D03*
X59690000Y-67310000D03*
X62230000Y-67310000D03*
X64770000Y-67310000D03*
X67310000Y-67310000D03*
X69850000Y-67310000D03*
X72390000Y-67310000D03*
X74930000Y-67310000D03*
X77470000Y-67310000D03*
X80010000Y-67310000D03*
X82550000Y-67310000D03*
X85090000Y-67310000D03*
X87630000Y-67310000D03*
X87630000Y-52070000D03*
X85090000Y-52070000D03*
X82550000Y-52070000D03*
X80010000Y-52070000D03*
X77470000Y-52070000D03*
X74930000Y-52070000D03*
X72390000Y-52070000D03*
X69850000Y-52070000D03*
X67310000Y-52070000D03*
X64770000Y-52070000D03*
X62230000Y-52070000D03*
X59690000Y-52070000D03*
X57150000Y-52070000D03*
X54610000Y-52070000D03*
X52070000Y-52070000D03*
D25*
X89850000Y-135180000D03*
X89850000Y-132640000D03*
X89850000Y-137720000D03*
D26*
X106614000Y-135180000D03*
D25*
X89850000Y-122480000D03*
X89850000Y-119940000D03*
X89850000Y-125020000D03*
D26*
X106614000Y-122480000D03*
D27*
X185420000Y-133350000D03*
X185420000Y-135890000D03*
X49530000Y-74930000D03*
X49530000Y-72390000D03*
X49530000Y-81280000D03*
X49530000Y-78740000D03*
X49530000Y-87630000D03*
X49530000Y-85090000D03*
X49530000Y-93980000D03*
X49530000Y-91440000D03*
X49530000Y-106680000D03*
X49530000Y-104140000D03*
X49530000Y-100330000D03*
X49530000Y-97790000D03*
D28*
X68260000Y-144070000D03*
X70800000Y-144070000D03*
D29*
X50000000Y-142500000D03*
X50000000Y-47500000D03*
X185000000Y-142500000D03*
X185000000Y-47500000D03*
D17*
X172720000Y-46987460D03*
D18*
X162560000Y-46987460D03*
D17*
X113030000Y-52072540D03*
D18*
X123190000Y-52072540D03*
D30*
X161290000Y-55880000D03*
X161290000Y-60960000D03*
X166370000Y-60960000D03*
X168910000Y-60960000D03*
X171450000Y-60960000D03*
X166370000Y-55880000D03*
X168910000Y-55880000D03*
X171450000Y-55880000D03*
D27*
X185420000Y-59690000D03*
X185420000Y-57150000D03*
M02*
