G04 #@! TF.FileFunction,Soldermask,Top*
%FSLAX46Y46*%
G04 Gerber Fmt 4.6, Leading zero omitted, Abs format (unit mm)*
G04 Created by KiCad (PCBNEW (after 2015-mar-04 BZR unknown)-product) date 9/22/2015 11:28:52 PM*
%MOMM*%
G01*
G04 APERTURE LIST*
%ADD10C,0.100000*%
%ADD11C,1.500000*%
%ADD12R,1.422400X1.422400*%
%ADD13C,1.422400*%
%ADD14R,1.500000X1.250000*%
%ADD15C,1.300000*%
%ADD16R,1.600000X1.600000*%
%ADD17C,1.600000*%
%ADD18R,1.200000X0.750000*%
%ADD19R,1.250000X1.500000*%
%ADD20R,1.600200X4.000500*%
%ADD21C,1.998980*%
%ADD22R,1.998980X1.998980*%
%ADD23O,3.962400X1.981200*%
%ADD24C,4.064000*%
%ADD25R,1.500000X1.300000*%
%ADD26R,1.300000X1.500000*%
%ADD27C,2.999740*%
%ADD28R,0.508000X1.143000*%
%ADD29R,2.000000X2.000000*%
%ADD30C,2.000000*%
%ADD31O,1.600000X2.300000*%
%ADD32O,3.014980X1.506220*%
%ADD33O,1.506220X3.014980*%
%ADD34C,5.000000*%
%ADD35R,0.800100X1.800860*%
%ADD36R,1.143000X0.508000*%
%ADD37R,1.060000X0.650000*%
%ADD38C,1.397000*%
%ADD39O,2.499360X1.501140*%
%ADD40R,12.500000X10.500000*%
%ADD41C,5.080000*%
G04 APERTURE END LIST*
D10*
D11*
X162560000Y-49530000D03*
X162560000Y-57150000D03*
X167640000Y-57150000D03*
X172720000Y-57150000D03*
X175260000Y-57150000D03*
X167640000Y-49530000D03*
X172720000Y-49530000D03*
X175260000Y-49530000D03*
D12*
X58420000Y-82550000D03*
D13*
X66040000Y-82550000D03*
D14*
X62250000Y-93980000D03*
X64750000Y-93980000D03*
X67290000Y-98425000D03*
X64790000Y-98425000D03*
D10*
G36*
X73660000Y-120365761D02*
X74579239Y-121285000D01*
X73660000Y-122204239D01*
X72740761Y-121285000D01*
X73660000Y-120365761D01*
X73660000Y-120365761D01*
G37*
D15*
X68356699Y-126588301D03*
D16*
X80010000Y-142875000D03*
D17*
X65010000Y-142875000D03*
D18*
X79060000Y-86360000D03*
X80960000Y-86360000D03*
D19*
X112395000Y-83800000D03*
X112395000Y-81300000D03*
X135255000Y-62885000D03*
X135255000Y-65385000D03*
X120015000Y-92095000D03*
X120015000Y-94595000D03*
D14*
X73045000Y-90170000D03*
X75545000Y-90170000D03*
X83205000Y-104775000D03*
X85705000Y-104775000D03*
D20*
X95885000Y-51310540D03*
X95885000Y-45209460D03*
D19*
X106045000Y-49510000D03*
X106045000Y-47010000D03*
D21*
X95885000Y-130177540D03*
D22*
X106045000Y-130177540D03*
D21*
X95885000Y-106682540D03*
D22*
X106045000Y-106682540D03*
D21*
X106045000Y-146047460D03*
D22*
X95885000Y-146047460D03*
D21*
X106045000Y-121917460D03*
D22*
X95885000Y-121917460D03*
D23*
X53975000Y-114935000D03*
X53975000Y-109935000D03*
X53975000Y-133985000D03*
X53975000Y-128985000D03*
X182880000Y-111760000D03*
X182880000Y-116760000D03*
X182880000Y-125095000D03*
X182880000Y-130095000D03*
D24*
X114300000Y-135890000D03*
X74930000Y-111125000D03*
X114300000Y-125730000D03*
X121282000Y-139308000D03*
X114935000Y-103505000D03*
X121282000Y-129148000D03*
X121282000Y-134228000D03*
X121282000Y-124068000D03*
X121282000Y-118988000D03*
X121282000Y-113908000D03*
X121282000Y-108828000D03*
X164462000Y-139308000D03*
X164462000Y-134228000D03*
X164462000Y-129148000D03*
X164462000Y-124068000D03*
X164462000Y-118988000D03*
X164462000Y-113908000D03*
X164462000Y-108828000D03*
X171132000Y-134302000D03*
X171132000Y-119062000D03*
D25*
X76755000Y-104775000D03*
X79455000Y-104775000D03*
X71040000Y-104775000D03*
X73740000Y-104775000D03*
D26*
X90170000Y-131525000D03*
X90170000Y-128825000D03*
X90170000Y-108665000D03*
X90170000Y-105965000D03*
D25*
X102315000Y-126365000D03*
X99615000Y-126365000D03*
X101680000Y-102235000D03*
X98980000Y-102235000D03*
X178515000Y-99060000D03*
X175815000Y-99060000D03*
D26*
X179070000Y-102790000D03*
X179070000Y-105490000D03*
X100330000Y-80090000D03*
X100330000Y-77390000D03*
X100330000Y-86440000D03*
X100330000Y-83740000D03*
D25*
X78660000Y-90170000D03*
X81360000Y-90170000D03*
D26*
X70485000Y-94535000D03*
X70485000Y-97235000D03*
D25*
X177562000Y-80962500D03*
X174862000Y-80962500D03*
X177562000Y-74612500D03*
X174862000Y-74612500D03*
D27*
X132712000Y-139308000D03*
X132712000Y-134228000D03*
X132712000Y-129148000D03*
X132712000Y-124068000D03*
X132712000Y-118988000D03*
X132712000Y-113908000D03*
X132712000Y-108828000D03*
X155572000Y-108828000D03*
X155572000Y-113908000D03*
X155572000Y-118988000D03*
X155572000Y-124068000D03*
X155572000Y-129148000D03*
X155572000Y-134228000D03*
X155572000Y-139308000D03*
X127632000Y-103748000D03*
D28*
X63500000Y-102235000D03*
X64770000Y-102235000D03*
X66040000Y-102235000D03*
X67310000Y-102235000D03*
X67310000Y-108585000D03*
X66040000Y-108585000D03*
X64770000Y-108585000D03*
X63500000Y-108585000D03*
D29*
X131445000Y-67945000D03*
D30*
X128952000Y-67945000D03*
X126452000Y-67945000D03*
X123952000Y-67945000D03*
X121452000Y-67945000D03*
X118952000Y-67945000D03*
X116452000Y-67945000D03*
D31*
X107950000Y-96520000D03*
X110490000Y-96520000D03*
X113030000Y-96520000D03*
X115570000Y-96520000D03*
X115570000Y-88900000D03*
X113030000Y-88900000D03*
X110490000Y-88900000D03*
X107950000Y-88900000D03*
X95885000Y-79375000D03*
X93345000Y-79375000D03*
X90805000Y-79375000D03*
X88265000Y-79375000D03*
X88265000Y-86995000D03*
X90805000Y-86995000D03*
X93345000Y-86995000D03*
X95885000Y-86995000D03*
X93345000Y-93345000D03*
X90805000Y-93345000D03*
X88265000Y-93345000D03*
X85725000Y-93345000D03*
X83185000Y-93345000D03*
X80645000Y-93345000D03*
X78105000Y-93345000D03*
X75565000Y-93345000D03*
X75565000Y-100965000D03*
X78105000Y-100965000D03*
X80645000Y-100965000D03*
X83185000Y-100965000D03*
X85725000Y-100965000D03*
X88265000Y-100965000D03*
X90805000Y-100965000D03*
X93345000Y-100965000D03*
X48895000Y-71120000D03*
X51435000Y-71120000D03*
X53975000Y-71120000D03*
X56515000Y-71120000D03*
X59055000Y-71120000D03*
X61595000Y-71120000D03*
X64135000Y-71120000D03*
X66675000Y-71120000D03*
X69215000Y-71120000D03*
X71755000Y-71120000D03*
X74295000Y-71120000D03*
X76835000Y-71120000D03*
X79375000Y-71120000D03*
X81915000Y-71120000D03*
X84455000Y-71120000D03*
X84455000Y-55880000D03*
X81915000Y-55880000D03*
X79375000Y-55880000D03*
X76835000Y-55880000D03*
X74295000Y-55880000D03*
X71755000Y-55880000D03*
X69215000Y-55880000D03*
X66675000Y-55880000D03*
X64135000Y-55880000D03*
X61595000Y-55880000D03*
X59055000Y-55880000D03*
X56515000Y-55880000D03*
X53975000Y-55880000D03*
X51435000Y-55880000D03*
X48895000Y-55880000D03*
D32*
X185420000Y-102235000D03*
X185420000Y-99695000D03*
X183832000Y-91757500D03*
X183832000Y-94297500D03*
X183832000Y-85407500D03*
X183832000Y-87947500D03*
X183832000Y-79057500D03*
X183832000Y-81597500D03*
X183832000Y-72707500D03*
X183832000Y-75247500D03*
X183832000Y-60007500D03*
X183832000Y-62547500D03*
X183832000Y-66357500D03*
X183832000Y-68897500D03*
D33*
X101600000Y-95250000D03*
X99060000Y-95250000D03*
D34*
X50000000Y-142500000D03*
X50000000Y-47500000D03*
X185000000Y-142500000D03*
X185000000Y-47500000D03*
D14*
X107970000Y-75565000D03*
X110470000Y-75565000D03*
D19*
X133985000Y-78085000D03*
X133985000Y-75585000D03*
D26*
X109220000Y-70565000D03*
X109220000Y-67865000D03*
D19*
X172085000Y-46335000D03*
X172085000Y-43835000D03*
D21*
X156212540Y-59690000D03*
D22*
X156212540Y-49530000D03*
D21*
X164465000Y-64137540D03*
D22*
X174625000Y-64137540D03*
D32*
X184150000Y-55880000D03*
X184150000Y-53340000D03*
D35*
X151450000Y-56746140D03*
X153350000Y-56746140D03*
X152400000Y-53743860D03*
D25*
X125175000Y-82550000D03*
X122475000Y-82550000D03*
X148670000Y-56515000D03*
X145970000Y-56515000D03*
X128350000Y-79375000D03*
X125650000Y-79375000D03*
X170260000Y-70485000D03*
X167560000Y-70485000D03*
D26*
X168910000Y-43735000D03*
X168910000Y-46435000D03*
D36*
X130810000Y-72390000D03*
X130810000Y-73660000D03*
X130810000Y-74930000D03*
X130810000Y-76200000D03*
X124460000Y-76200000D03*
X124460000Y-74930000D03*
X124460000Y-73660000D03*
X124460000Y-72390000D03*
D37*
X115105000Y-75885000D03*
X115105000Y-76835000D03*
X115105000Y-77785000D03*
X117305000Y-77785000D03*
X117305000Y-75885000D03*
D38*
X53975000Y-102235000D03*
X53975000Y-104775000D03*
X48260000Y-121920000D03*
X50800000Y-121920000D03*
D39*
X90170000Y-137795000D03*
X90170000Y-135255000D03*
X90170000Y-140335000D03*
D40*
X104134000Y-137795000D03*
D41*
X106920000Y-137795000D03*
D39*
X90170000Y-114300000D03*
X90170000Y-111760000D03*
X90170000Y-116840000D03*
D40*
X104134000Y-114300000D03*
D41*
X106920000Y-114300000D03*
M02*
