G04 #@! TF.FileFunction,Copper,L2,Bot,Signal*
%FSLAX46Y46*%
G04 Gerber Fmt 4.6, Leading zero omitted, Abs format (unit mm)*
G04 Created by KiCad (PCBNEW (after 2015-mar-04 BZR unknown)-product) date 9/22/2015 11:28:52 PM*
%MOMM*%
G01*
G04 APERTURE LIST*
%ADD10C,0.100000*%
%ADD11C,1.500000*%
%ADD12R,1.422400X1.422400*%
%ADD13C,1.422400*%
%ADD14C,1.300000*%
%ADD15R,1.600000X1.600000*%
%ADD16C,1.600000*%
%ADD17C,1.998980*%
%ADD18R,1.998980X1.998980*%
%ADD19O,3.962400X1.981200*%
%ADD20C,4.064000*%
%ADD21C,2.999740*%
%ADD22R,2.000000X2.000000*%
%ADD23C,2.000000*%
%ADD24O,1.600000X2.300000*%
%ADD25O,3.014980X1.506220*%
%ADD26O,1.506220X3.014980*%
%ADD27C,5.000000*%
%ADD28C,1.397000*%
%ADD29O,2.499360X1.501140*%
%ADD30C,5.080000*%
%ADD31C,0.600000*%
%ADD32C,0.250000*%
%ADD33C,5.290000*%
%ADD34C,1.501000*%
%ADD35C,1.981000*%
%ADD36C,1.998800*%
%ADD37C,1.396800*%
%ADD38C,0.254000*%
G04 APERTURE END LIST*
D10*
D11*
X162560000Y-49530000D03*
X162560000Y-57150000D03*
X167640000Y-57150000D03*
X172720000Y-57150000D03*
X175260000Y-57150000D03*
X167640000Y-49530000D03*
X172720000Y-49530000D03*
X175260000Y-49530000D03*
D12*
X58420000Y-82550000D03*
D13*
X66040000Y-82550000D03*
D10*
G36*
X73660000Y-120365761D02*
X74579239Y-121285000D01*
X73660000Y-122204239D01*
X72740761Y-121285000D01*
X73660000Y-120365761D01*
X73660000Y-120365761D01*
G37*
D14*
X68356699Y-126588301D03*
D15*
X80010000Y-142875000D03*
D16*
X65010000Y-142875000D03*
D17*
X95885000Y-130177540D03*
D18*
X106045000Y-130177540D03*
D17*
X95885000Y-106682540D03*
D18*
X106045000Y-106682540D03*
D17*
X106045000Y-146047460D03*
D18*
X95885000Y-146047460D03*
D17*
X106045000Y-121917460D03*
D18*
X95885000Y-121917460D03*
D19*
X53975000Y-114935000D03*
X53975000Y-109935000D03*
X53975000Y-133985000D03*
X53975000Y-128985000D03*
X182880000Y-111760000D03*
X182880000Y-116760000D03*
X182880000Y-125095000D03*
X182880000Y-130095000D03*
D20*
X114300000Y-135890000D03*
X74930000Y-111125000D03*
X114300000Y-125730000D03*
X121282000Y-139308000D03*
X114935000Y-103505000D03*
X121282000Y-129148000D03*
X121282000Y-134228000D03*
X121282000Y-124068000D03*
X121282000Y-118988000D03*
X121282000Y-113908000D03*
X121282000Y-108828000D03*
X164462000Y-139308000D03*
X164462000Y-134228000D03*
X164462000Y-129148000D03*
X164462000Y-124068000D03*
X164462000Y-118988000D03*
X164462000Y-113908000D03*
X164462000Y-108828000D03*
X171132000Y-134302000D03*
X171132000Y-119062000D03*
D21*
X132712000Y-139308000D03*
X132712000Y-134228000D03*
X132712000Y-129148000D03*
X132712000Y-124068000D03*
X132712000Y-118988000D03*
X132712000Y-113908000D03*
X132712000Y-108828000D03*
X155572000Y-108828000D03*
X155572000Y-113908000D03*
X155572000Y-118988000D03*
X155572000Y-124068000D03*
X155572000Y-129148000D03*
X155572000Y-134228000D03*
X155572000Y-139308000D03*
X127632000Y-103748000D03*
D22*
X131445000Y-67945000D03*
D23*
X128952000Y-67945000D03*
X126452000Y-67945000D03*
X123952000Y-67945000D03*
X121452000Y-67945000D03*
X118952000Y-67945000D03*
X116452000Y-67945000D03*
D24*
X107950000Y-96520000D03*
X110490000Y-96520000D03*
X113030000Y-96520000D03*
X115570000Y-96520000D03*
X115570000Y-88900000D03*
X113030000Y-88900000D03*
X110490000Y-88900000D03*
X107950000Y-88900000D03*
X95885000Y-79375000D03*
X93345000Y-79375000D03*
X90805000Y-79375000D03*
X88265000Y-79375000D03*
X88265000Y-86995000D03*
X90805000Y-86995000D03*
X93345000Y-86995000D03*
X95885000Y-86995000D03*
X93345000Y-93345000D03*
X90805000Y-93345000D03*
X88265000Y-93345000D03*
X85725000Y-93345000D03*
X83185000Y-93345000D03*
X80645000Y-93345000D03*
X78105000Y-93345000D03*
X75565000Y-93345000D03*
X75565000Y-100965000D03*
X78105000Y-100965000D03*
X80645000Y-100965000D03*
X83185000Y-100965000D03*
X85725000Y-100965000D03*
X88265000Y-100965000D03*
X90805000Y-100965000D03*
X93345000Y-100965000D03*
X48895000Y-71120000D03*
X51435000Y-71120000D03*
X53975000Y-71120000D03*
X56515000Y-71120000D03*
X59055000Y-71120000D03*
X61595000Y-71120000D03*
X64135000Y-71120000D03*
X66675000Y-71120000D03*
X69215000Y-71120000D03*
X71755000Y-71120000D03*
X74295000Y-71120000D03*
X76835000Y-71120000D03*
X79375000Y-71120000D03*
X81915000Y-71120000D03*
X84455000Y-71120000D03*
X84455000Y-55880000D03*
X81915000Y-55880000D03*
X79375000Y-55880000D03*
X76835000Y-55880000D03*
X74295000Y-55880000D03*
X71755000Y-55880000D03*
X69215000Y-55880000D03*
X66675000Y-55880000D03*
X64135000Y-55880000D03*
X61595000Y-55880000D03*
X59055000Y-55880000D03*
X56515000Y-55880000D03*
X53975000Y-55880000D03*
X51435000Y-55880000D03*
X48895000Y-55880000D03*
D25*
X185420000Y-102235000D03*
X185420000Y-99695000D03*
X183832000Y-91757500D03*
X183832000Y-94297500D03*
X183832000Y-85407500D03*
X183832000Y-87947500D03*
X183832000Y-79057500D03*
X183832000Y-81597500D03*
X183832000Y-72707500D03*
X183832000Y-75247500D03*
X183832000Y-60007500D03*
X183832000Y-62547500D03*
X183832000Y-66357500D03*
X183832000Y-68897500D03*
D26*
X101600000Y-95250000D03*
X99060000Y-95250000D03*
D27*
X50000000Y-142500000D03*
X50000000Y-47500000D03*
X185000000Y-142500000D03*
X185000000Y-47500000D03*
D17*
X156212540Y-59690000D03*
D18*
X156212540Y-49530000D03*
D17*
X164465000Y-64137540D03*
D18*
X174625000Y-64137540D03*
D25*
X184150000Y-55880000D03*
X184150000Y-53340000D03*
D28*
X53975000Y-102235000D03*
X53975000Y-104775000D03*
X48260000Y-121920000D03*
X50800000Y-121920000D03*
D29*
X90170000Y-137795000D03*
X90170000Y-135255000D03*
X90170000Y-140335000D03*
D30*
X106920000Y-137795000D03*
D29*
X90170000Y-114300000D03*
X90170000Y-111760000D03*
X90170000Y-116840000D03*
D30*
X106920000Y-114300000D03*
D31*
X126636200Y-76341300D03*
X125070500Y-77364300D03*
X122484700Y-81137100D03*
X73673400Y-100326800D03*
X98468800Y-80622400D03*
X99094100Y-78459500D03*
X64499400Y-101146100D03*
X98687000Y-82200400D03*
X105257100Y-78437600D03*
X115960300Y-75037600D03*
D32*
X175260000Y-49530000D02*
X182970000Y-49530000D01*
X182970000Y-49530000D02*
X185000000Y-47500000D01*
X175260000Y-49530000D02*
X175260000Y-52070000D01*
X183006300Y-61469100D02*
X183832000Y-61469100D01*
X175260000Y-53722800D02*
X183006300Y-61469100D01*
X175260000Y-52070000D02*
X175260000Y-53722800D01*
X183832000Y-61469100D02*
X183832000Y-62547500D01*
X126636200Y-76341300D02*
X126636200Y-70260800D01*
X126636200Y-70260800D02*
X128952000Y-67945000D01*
X125070500Y-77364300D02*
X126093500Y-76341300D01*
X126093500Y-76341300D02*
X126636200Y-76341300D01*
X115570000Y-87424700D02*
X115570000Y-86864800D01*
X115570000Y-86864800D02*
X125070500Y-77364300D01*
X183832000Y-91757500D02*
X183832000Y-92835900D01*
X183832000Y-91757500D02*
X183832000Y-90679100D01*
X183832000Y-90679100D02*
X185704600Y-88806500D01*
X185704600Y-88806500D02*
X185704600Y-87532900D01*
X185704600Y-87532900D02*
X184657600Y-86485900D01*
X184657600Y-86485900D02*
X183832000Y-86485900D01*
X185000000Y-142500000D02*
X187257000Y-140243000D01*
X187257000Y-140243000D02*
X187257000Y-95435300D01*
X187257000Y-95435300D02*
X184657600Y-92835900D01*
X184657600Y-92835900D02*
X183832000Y-92835900D01*
X183832000Y-85407500D02*
X183832000Y-86485900D01*
X183832000Y-81597500D02*
X183832000Y-85407500D01*
X115570000Y-88900000D02*
X115570000Y-87424700D01*
X115570000Y-96520000D02*
X115570000Y-88900000D01*
X183832000Y-81597500D02*
X183832000Y-80519100D01*
X183832000Y-80519100D02*
X184657600Y-80519100D01*
X184657600Y-80519100D02*
X185664900Y-79511800D01*
X185664900Y-79511800D02*
X185664900Y-78158800D01*
X185664900Y-78158800D02*
X183832000Y-76325900D01*
X183832000Y-75247500D02*
X183832000Y-76325900D01*
X183832000Y-62547500D02*
X183832000Y-63625900D01*
X185664800Y-65458700D02*
X185664800Y-68897500D01*
X183832000Y-63625900D02*
X185664800Y-65458700D01*
X185664800Y-68897500D02*
X185664800Y-73161900D01*
X185664800Y-73161900D02*
X184657600Y-74169100D01*
X184657600Y-74169100D02*
X183832000Y-74169100D01*
X183832000Y-68897500D02*
X185664800Y-68897500D01*
X183832000Y-75247500D02*
X183832000Y-74169100D01*
X58420000Y-82550000D02*
X58420000Y-81513500D01*
X58420000Y-81513500D02*
X56515000Y-79608500D01*
X56515000Y-79608500D02*
X56515000Y-71120000D01*
X56515000Y-71120000D02*
X55389700Y-71120000D01*
X51435000Y-55880000D02*
X52560300Y-55880000D01*
X52560300Y-55880000D02*
X52560300Y-67165300D01*
X52560300Y-67165300D02*
X55389700Y-69994700D01*
X55389700Y-69994700D02*
X55389700Y-71120000D01*
X50000000Y-47500000D02*
X51435000Y-48935000D01*
X51435000Y-48935000D02*
X51435000Y-55880000D01*
X106045000Y-106682500D02*
X106045000Y-108007300D01*
X106045000Y-130177500D02*
X106045000Y-128852700D01*
X106045000Y-128852700D02*
X103068000Y-125875700D01*
X103068000Y-125875700D02*
X103068000Y-110984300D01*
X103068000Y-110984300D02*
X106045000Y-108007300D01*
X69215000Y-71120000D02*
X69215000Y-79375000D01*
X69215000Y-79375000D02*
X66040000Y-82550000D01*
X122484700Y-81137100D02*
X122724800Y-81137100D01*
X122724800Y-81137100D02*
X131445000Y-72416900D01*
X131445000Y-72416900D02*
X131445000Y-67945000D01*
X131445000Y-67945000D02*
X147957500Y-67945000D01*
X147957500Y-67945000D02*
X156212500Y-59690000D01*
D33*
X73660000Y-121285000D02*
X76131600Y-123756500D01*
X80010000Y-142875000D02*
X80010000Y-139229700D01*
X80010000Y-139229700D02*
X76131500Y-135351200D01*
X76131500Y-135351200D02*
X76131500Y-123756600D01*
X76131500Y-123756600D02*
X76131600Y-123756500D01*
D32*
X53975000Y-102235000D02*
X54719500Y-102235000D01*
X54719500Y-102235000D02*
X55421700Y-102937200D01*
X55421700Y-102937200D02*
X83190100Y-102937200D01*
X83190100Y-102937200D02*
X84599700Y-101527600D01*
X84599700Y-101527600D02*
X84599700Y-100965000D01*
X50020300Y-55880000D02*
X50020300Y-98280300D01*
X50020300Y-98280300D02*
X53975000Y-102235000D01*
X85725000Y-100965000D02*
X84599700Y-100965000D01*
X85725000Y-100965000D02*
X86850300Y-100965000D01*
X90805000Y-100965000D02*
X89679700Y-100965000D01*
X89679700Y-100965000D02*
X89679700Y-100402400D01*
X89679700Y-100402400D02*
X88766900Y-99489600D01*
X88766900Y-99489600D02*
X87763000Y-99489600D01*
X87763000Y-99489600D02*
X86850300Y-100402300D01*
X86850300Y-100402300D02*
X86850300Y-100965000D01*
X48895000Y-55880000D02*
X50020300Y-55880000D01*
D33*
X106920000Y-137795000D02*
X106045000Y-138670000D01*
X106045000Y-138670000D02*
X106045000Y-146047500D01*
X106920000Y-114300000D02*
X106045000Y-115175000D01*
X106045000Y-115175000D02*
X106045000Y-121917500D01*
D32*
X182880000Y-111760000D02*
X182880000Y-113075900D01*
X182880000Y-113075900D02*
X171132000Y-124823900D01*
X171132000Y-124823900D02*
X171132000Y-134302000D01*
X182880000Y-125095000D02*
X182880000Y-116760000D01*
X71755000Y-55880000D02*
X72880300Y-55880000D01*
X183832000Y-66357500D02*
X169477000Y-66357500D01*
X169477000Y-66357500D02*
X157517600Y-54398100D01*
X157517600Y-54398100D02*
X73799500Y-54398100D01*
X73799500Y-54398100D02*
X72880300Y-55317300D01*
X72880300Y-55317300D02*
X72880300Y-55880000D01*
X74295000Y-71120000D02*
X74295000Y-99705200D01*
X74295000Y-99705200D02*
X73673400Y-100326800D01*
X93345000Y-86995000D02*
X93345000Y-85519700D01*
X93345000Y-85519700D02*
X93571500Y-85519700D01*
X93571500Y-85519700D02*
X98468800Y-80622400D01*
X94470300Y-100965000D02*
X94470300Y-85505200D01*
X94470300Y-85505200D02*
X94470400Y-85505200D01*
X94470400Y-85505200D02*
X99094100Y-80881500D01*
X99094100Y-80881500D02*
X99094100Y-78459500D01*
X93345000Y-100965000D02*
X94470300Y-100965000D01*
X71755000Y-71120000D02*
X71755000Y-99292700D01*
X71755000Y-99292700D02*
X74909900Y-102447600D01*
X74909900Y-102447600D02*
X76059700Y-102447600D01*
X76059700Y-102447600D02*
X76979700Y-101527600D01*
X76979700Y-101527600D02*
X76979700Y-100965000D01*
X78105000Y-100965000D02*
X76979700Y-100965000D01*
X64499400Y-101146100D02*
X70485000Y-95160500D01*
X70485000Y-95160500D02*
X70485000Y-62590900D01*
X70485000Y-62590900D02*
X75709700Y-57366200D01*
X75709700Y-57366200D02*
X75709700Y-55880000D01*
X76835000Y-55880000D02*
X75709700Y-55880000D01*
X113030000Y-96520000D02*
X114155300Y-96520000D01*
X126452000Y-67945000D02*
X114155300Y-80241700D01*
X114155300Y-80241700D02*
X114155300Y-96520000D01*
X90805000Y-79375000D02*
X89679700Y-79375000D01*
X81915000Y-71120000D02*
X83040300Y-71120000D01*
X83040300Y-71120000D02*
X83040300Y-71689700D01*
X83040300Y-71689700D02*
X89679700Y-78329100D01*
X89679700Y-78329100D02*
X89679700Y-79375000D01*
X109364700Y-81660800D02*
X105051700Y-77347800D01*
X105051700Y-77347800D02*
X92886500Y-77347800D01*
X109364700Y-96520000D02*
X109364700Y-81660800D01*
X109364700Y-81660800D02*
X110236200Y-81660800D01*
X110236200Y-81660800D02*
X123952000Y-67945000D01*
X92886500Y-77347800D02*
X92886500Y-63186200D01*
X92886500Y-63186200D02*
X85580300Y-55880000D01*
X92886500Y-79375000D02*
X92886500Y-77347800D01*
X93345000Y-79375000D02*
X92886500Y-79375000D01*
X84455000Y-55880000D02*
X85580300Y-55880000D01*
X110490000Y-96520000D02*
X109364700Y-96520000D01*
X107950000Y-96520000D02*
X107950000Y-91463400D01*
X107950000Y-91463400D02*
X98687000Y-82200400D01*
X111615300Y-88900000D02*
X113030000Y-88900000D01*
X111052700Y-88900000D02*
X111615300Y-88900000D01*
X110490000Y-88900000D02*
X111052700Y-88900000D01*
X99060000Y-95250000D02*
X100138400Y-95250000D01*
X100138400Y-95250000D02*
X100138400Y-96075700D01*
X100138400Y-96075700D02*
X102074800Y-98012100D01*
X102074800Y-98012100D02*
X110961900Y-98012100D01*
X110961900Y-98012100D02*
X111615300Y-97358700D01*
X111615300Y-97358700D02*
X111615300Y-88900000D01*
X90805000Y-93345000D02*
X90805000Y-86995000D01*
X93345000Y-93345000D02*
X92219700Y-93345000D01*
X75565000Y-100965000D02*
X80789600Y-95740400D01*
X80789600Y-95740400D02*
X90386900Y-95740400D01*
X90386900Y-95740400D02*
X92219700Y-93907600D01*
X92219700Y-93907600D02*
X92219700Y-93345000D01*
X89390300Y-93345000D02*
X89390300Y-86412400D01*
X89390300Y-86412400D02*
X91519200Y-84283500D01*
X91519200Y-84283500D02*
X92933100Y-84283500D01*
X92933100Y-84283500D02*
X97377400Y-79839200D01*
X97377400Y-79839200D02*
X97377400Y-79232500D01*
X97377400Y-79232500D02*
X98811700Y-77798200D01*
X98811700Y-77798200D02*
X104617700Y-77798200D01*
X104617700Y-77798200D02*
X105257100Y-78437600D01*
X88265000Y-93345000D02*
X89390300Y-93345000D01*
X174625000Y-64137500D02*
X174625000Y-62812700D01*
X174625000Y-62812700D02*
X175260000Y-62177700D01*
X175260000Y-62177700D02*
X175260000Y-57150000D01*
X116452000Y-67945000D02*
X116452000Y-74545900D01*
X116452000Y-74545900D02*
X115960300Y-75037600D01*
D33*
X95885000Y-121917500D02*
X95885000Y-125762300D01*
X95885000Y-146047500D02*
X95885000Y-142202700D01*
X95885000Y-142202700D02*
X99729800Y-138357900D01*
X99729800Y-138357900D02*
X99729800Y-128525600D01*
X99729800Y-128525600D02*
X96966500Y-125762300D01*
X96966500Y-125762300D02*
X95885000Y-125762300D01*
X95882500Y-146047500D02*
X95885000Y-146047500D01*
X95885000Y-121917500D02*
X92040200Y-121917500D01*
X90170000Y-117896000D02*
X92040200Y-119766200D01*
X92040200Y-119766200D02*
X92040200Y-121917500D01*
D34*
X90170000Y-117896000D02*
X90170000Y-116840000D01*
D33*
X60960000Y-133985000D02*
X68356700Y-126588300D01*
X57428900Y-133985000D02*
X60960000Y-133985000D01*
X60960000Y-133985000D02*
X60960000Y-138825000D01*
X60960000Y-138825000D02*
X65010000Y-142875000D01*
X53975000Y-133985000D02*
X57428900Y-133985000D01*
D35*
X50800000Y-121920000D02*
X53975000Y-125095000D01*
D33*
X53975000Y-128985000D02*
X53975000Y-125095000D01*
D36*
X90170000Y-140335000D02*
X92619500Y-140335000D01*
X92619500Y-140335000D02*
X92619500Y-142784500D01*
X92619500Y-142784500D02*
X95882500Y-146047500D01*
D33*
X53975000Y-105779000D02*
X53975000Y-109935000D01*
D37*
X53975000Y-105779000D02*
X53975000Y-104775000D01*
D38*
G36*
X93710300Y-99217692D02*
X93345000Y-99145030D01*
X92795849Y-99254263D01*
X92330302Y-99565332D01*
X92075000Y-99947417D01*
X91819698Y-99565332D01*
X91354151Y-99254263D01*
X90805000Y-99145030D01*
X90255849Y-99254263D01*
X89866512Y-99514410D01*
X89304301Y-98952199D01*
X89057739Y-98787452D01*
X88766900Y-98729600D01*
X87763000Y-98729600D01*
X87472161Y-98787452D01*
X87225599Y-98952199D01*
X86663428Y-99514369D01*
X86274151Y-99254263D01*
X85725000Y-99145030D01*
X85175849Y-99254263D01*
X84710302Y-99565332D01*
X84457850Y-99943151D01*
X84109896Y-99510500D01*
X83616819Y-99240633D01*
X83534039Y-99223096D01*
X83312000Y-99345085D01*
X83312000Y-100838000D01*
X83332000Y-100838000D01*
X83332000Y-101092000D01*
X83312000Y-101092000D01*
X83312000Y-101112000D01*
X83058000Y-101112000D01*
X83058000Y-101092000D01*
X83038000Y-101092000D01*
X83038000Y-100838000D01*
X83058000Y-100838000D01*
X83058000Y-99345085D01*
X82835961Y-99223096D01*
X82753181Y-99240633D01*
X82260104Y-99510500D01*
X81912149Y-99943151D01*
X81659698Y-99565332D01*
X81194151Y-99254263D01*
X80645000Y-99145030D01*
X80095849Y-99254263D01*
X79630302Y-99565332D01*
X79375000Y-99947417D01*
X79119698Y-99565332D01*
X78654151Y-99254263D01*
X78400911Y-99203890D01*
X81104401Y-96500400D01*
X90386900Y-96500400D01*
X90677739Y-96442548D01*
X90924301Y-96277801D01*
X92406512Y-94795589D01*
X92795849Y-95055737D01*
X93345000Y-95164970D01*
X93710300Y-95092307D01*
X93710300Y-99217692D01*
X93710300Y-99217692D01*
G37*
X93710300Y-99217692D02*
X93345000Y-99145030D01*
X92795849Y-99254263D01*
X92330302Y-99565332D01*
X92075000Y-99947417D01*
X91819698Y-99565332D01*
X91354151Y-99254263D01*
X90805000Y-99145030D01*
X90255849Y-99254263D01*
X89866512Y-99514410D01*
X89304301Y-98952199D01*
X89057739Y-98787452D01*
X88766900Y-98729600D01*
X87763000Y-98729600D01*
X87472161Y-98787452D01*
X87225599Y-98952199D01*
X86663428Y-99514369D01*
X86274151Y-99254263D01*
X85725000Y-99145030D01*
X85175849Y-99254263D01*
X84710302Y-99565332D01*
X84457850Y-99943151D01*
X84109896Y-99510500D01*
X83616819Y-99240633D01*
X83534039Y-99223096D01*
X83312000Y-99345085D01*
X83312000Y-100838000D01*
X83332000Y-100838000D01*
X83332000Y-101092000D01*
X83312000Y-101092000D01*
X83312000Y-101112000D01*
X83058000Y-101112000D01*
X83058000Y-101092000D01*
X83038000Y-101092000D01*
X83038000Y-100838000D01*
X83058000Y-100838000D01*
X83058000Y-99345085D01*
X82835961Y-99223096D01*
X82753181Y-99240633D01*
X82260104Y-99510500D01*
X81912149Y-99943151D01*
X81659698Y-99565332D01*
X81194151Y-99254263D01*
X80645000Y-99145030D01*
X80095849Y-99254263D01*
X79630302Y-99565332D01*
X79375000Y-99947417D01*
X79119698Y-99565332D01*
X78654151Y-99254263D01*
X78400911Y-99203890D01*
X81104401Y-96500400D01*
X90386900Y-96500400D01*
X90677739Y-96442548D01*
X90924301Y-96277801D01*
X92406512Y-94795589D01*
X92795849Y-95055737D01*
X93345000Y-95164970D01*
X93710300Y-95092307D01*
X93710300Y-99217692D01*
G36*
X95168128Y-80973669D02*
X92618298Y-83523500D01*
X91519200Y-83523500D01*
X91228360Y-83581352D01*
X90981799Y-83746099D01*
X89191498Y-85536399D01*
X88814151Y-85284263D01*
X88265000Y-85175030D01*
X88138000Y-85200291D01*
X88138000Y-80994915D01*
X88138000Y-79502000D01*
X86830000Y-79502000D01*
X86830000Y-79852000D01*
X86987834Y-80391483D01*
X87340104Y-80829500D01*
X87833181Y-81099367D01*
X87915961Y-81116904D01*
X88138000Y-80994915D01*
X88138000Y-85200291D01*
X87715849Y-85284263D01*
X87250302Y-85595332D01*
X86939233Y-86060879D01*
X86830000Y-86610030D01*
X86830000Y-87379970D01*
X86939233Y-87929121D01*
X87250302Y-88394668D01*
X87715849Y-88705737D01*
X88265000Y-88814970D01*
X88630300Y-88742307D01*
X88630300Y-91597692D01*
X88265000Y-91525030D01*
X87715849Y-91634263D01*
X87250302Y-91945332D01*
X86995000Y-92327417D01*
X86739698Y-91945332D01*
X86274151Y-91634263D01*
X85725000Y-91525030D01*
X85175849Y-91634263D01*
X84710302Y-91945332D01*
X84455000Y-92327417D01*
X84199698Y-91945332D01*
X83734151Y-91634263D01*
X83185000Y-91525030D01*
X82635849Y-91634263D01*
X82170302Y-91945332D01*
X81915000Y-92327417D01*
X81659698Y-91945332D01*
X81194151Y-91634263D01*
X80645000Y-91525030D01*
X80095849Y-91634263D01*
X79630302Y-91945332D01*
X79375000Y-92327417D01*
X79119698Y-91945332D01*
X78654151Y-91634263D01*
X78105000Y-91525030D01*
X77555849Y-91634263D01*
X77090302Y-91945332D01*
X76835000Y-92327417D01*
X76579698Y-91945332D01*
X76114151Y-91634263D01*
X75565000Y-91525030D01*
X75055000Y-91626475D01*
X75055000Y-72689852D01*
X75309698Y-72519668D01*
X75565000Y-72137582D01*
X75820302Y-72519668D01*
X76285849Y-72830737D01*
X76835000Y-72939970D01*
X77384151Y-72830737D01*
X77849698Y-72519668D01*
X78105000Y-72137582D01*
X78360302Y-72519668D01*
X78825849Y-72830737D01*
X79375000Y-72939970D01*
X79924151Y-72830737D01*
X80389698Y-72519668D01*
X80645000Y-72137582D01*
X80900302Y-72519668D01*
X81365849Y-72830737D01*
X81915000Y-72939970D01*
X82464151Y-72830737D01*
X82849231Y-72573433D01*
X87910129Y-77634331D01*
X87833181Y-77650633D01*
X87340104Y-77920500D01*
X86987834Y-78358517D01*
X86830000Y-78898000D01*
X86830000Y-79248000D01*
X88138000Y-79248000D01*
X88138000Y-79228000D01*
X88392000Y-79228000D01*
X88392000Y-79248000D01*
X88412000Y-79248000D01*
X88412000Y-79502000D01*
X88392000Y-79502000D01*
X88392000Y-80994915D01*
X88614039Y-81116904D01*
X88696819Y-81099367D01*
X89189896Y-80829500D01*
X89537850Y-80396848D01*
X89790302Y-80774668D01*
X90255849Y-81085737D01*
X90805000Y-81194970D01*
X91354151Y-81085737D01*
X91819698Y-80774668D01*
X92075000Y-80392582D01*
X92330302Y-80774668D01*
X92795849Y-81085737D01*
X93345000Y-81194970D01*
X93894151Y-81085737D01*
X94359698Y-80774668D01*
X94615000Y-80392582D01*
X94870302Y-80774668D01*
X95168128Y-80973669D01*
X95168128Y-80973669D01*
G37*
X95168128Y-80973669D02*
X92618298Y-83523500D01*
X91519200Y-83523500D01*
X91228360Y-83581352D01*
X90981799Y-83746099D01*
X89191498Y-85536399D01*
X88814151Y-85284263D01*
X88265000Y-85175030D01*
X88138000Y-85200291D01*
X88138000Y-80994915D01*
X88138000Y-79502000D01*
X86830000Y-79502000D01*
X86830000Y-79852000D01*
X86987834Y-80391483D01*
X87340104Y-80829500D01*
X87833181Y-81099367D01*
X87915961Y-81116904D01*
X88138000Y-80994915D01*
X88138000Y-85200291D01*
X87715849Y-85284263D01*
X87250302Y-85595332D01*
X86939233Y-86060879D01*
X86830000Y-86610030D01*
X86830000Y-87379970D01*
X86939233Y-87929121D01*
X87250302Y-88394668D01*
X87715849Y-88705737D01*
X88265000Y-88814970D01*
X88630300Y-88742307D01*
X88630300Y-91597692D01*
X88265000Y-91525030D01*
X87715849Y-91634263D01*
X87250302Y-91945332D01*
X86995000Y-92327417D01*
X86739698Y-91945332D01*
X86274151Y-91634263D01*
X85725000Y-91525030D01*
X85175849Y-91634263D01*
X84710302Y-91945332D01*
X84455000Y-92327417D01*
X84199698Y-91945332D01*
X83734151Y-91634263D01*
X83185000Y-91525030D01*
X82635849Y-91634263D01*
X82170302Y-91945332D01*
X81915000Y-92327417D01*
X81659698Y-91945332D01*
X81194151Y-91634263D01*
X80645000Y-91525030D01*
X80095849Y-91634263D01*
X79630302Y-91945332D01*
X79375000Y-92327417D01*
X79119698Y-91945332D01*
X78654151Y-91634263D01*
X78105000Y-91525030D01*
X77555849Y-91634263D01*
X77090302Y-91945332D01*
X76835000Y-92327417D01*
X76579698Y-91945332D01*
X76114151Y-91634263D01*
X75565000Y-91525030D01*
X75055000Y-91626475D01*
X75055000Y-72689852D01*
X75309698Y-72519668D01*
X75565000Y-72137582D01*
X75820302Y-72519668D01*
X76285849Y-72830737D01*
X76835000Y-72939970D01*
X77384151Y-72830737D01*
X77849698Y-72519668D01*
X78105000Y-72137582D01*
X78360302Y-72519668D01*
X78825849Y-72830737D01*
X79375000Y-72939970D01*
X79924151Y-72830737D01*
X80389698Y-72519668D01*
X80645000Y-72137582D01*
X80900302Y-72519668D01*
X81365849Y-72830737D01*
X81915000Y-72939970D01*
X82464151Y-72830737D01*
X82849231Y-72573433D01*
X87910129Y-77634331D01*
X87833181Y-77650633D01*
X87340104Y-77920500D01*
X86987834Y-78358517D01*
X86830000Y-78898000D01*
X86830000Y-79248000D01*
X88138000Y-79248000D01*
X88138000Y-79228000D01*
X88392000Y-79228000D01*
X88392000Y-79248000D01*
X88412000Y-79248000D01*
X88412000Y-79502000D01*
X88392000Y-79502000D01*
X88392000Y-80994915D01*
X88614039Y-81116904D01*
X88696819Y-81099367D01*
X89189896Y-80829500D01*
X89537850Y-80396848D01*
X89790302Y-80774668D01*
X90255849Y-81085737D01*
X90805000Y-81194970D01*
X91354151Y-81085737D01*
X91819698Y-80774668D01*
X92075000Y-80392582D01*
X92330302Y-80774668D01*
X92795849Y-81085737D01*
X93345000Y-81194970D01*
X93894151Y-81085737D01*
X94359698Y-80774668D01*
X94615000Y-80392582D01*
X94870302Y-80774668D01*
X95168128Y-80973669D01*
G36*
X188468000Y-148463000D02*
X188135294Y-148463000D01*
X188135294Y-143122108D01*
X188135294Y-48122108D01*
X188134705Y-46874928D01*
X187658564Y-45725421D01*
X187235880Y-45443725D01*
X187056275Y-45623330D01*
X187056275Y-45264120D01*
X186774579Y-44841436D01*
X185622108Y-44364706D01*
X184374928Y-44365295D01*
X183225421Y-44841436D01*
X182943725Y-45264120D01*
X185000000Y-47320395D01*
X187056275Y-45264120D01*
X187056275Y-45623330D01*
X185179605Y-47500000D01*
X187235880Y-49556275D01*
X187658564Y-49274579D01*
X188135294Y-48122108D01*
X188135294Y-143122108D01*
X188134705Y-141874928D01*
X187658564Y-140725421D01*
X187604464Y-140689366D01*
X187604464Y-102235000D01*
X187498800Y-101703793D01*
X187197896Y-101253458D01*
X186766187Y-100965000D01*
X187197896Y-100676542D01*
X187498800Y-100226207D01*
X187604464Y-99695000D01*
X187498800Y-99163793D01*
X187197896Y-98713458D01*
X187056275Y-98618829D01*
X187056275Y-49735880D01*
X185000000Y-47679605D01*
X184820395Y-47859210D01*
X184820395Y-47500000D01*
X182764120Y-45443725D01*
X182341436Y-45725421D01*
X181864706Y-46877892D01*
X181865295Y-48125072D01*
X182341436Y-49274579D01*
X182764120Y-49556275D01*
X184820395Y-47500000D01*
X184820395Y-47859210D01*
X182943725Y-49735880D01*
X183225421Y-50158564D01*
X184377892Y-50635294D01*
X185625072Y-50634705D01*
X186774579Y-50158564D01*
X187056275Y-49735880D01*
X187056275Y-98618829D01*
X186747561Y-98412554D01*
X186334464Y-98330383D01*
X186334464Y-55880000D01*
X186228800Y-55348793D01*
X185927896Y-54898458D01*
X185496187Y-54610000D01*
X185927896Y-54321542D01*
X186228800Y-53871207D01*
X186334464Y-53340000D01*
X186228800Y-52808793D01*
X185927896Y-52358458D01*
X185477561Y-52057554D01*
X184946354Y-51951890D01*
X183353646Y-51951890D01*
X182822439Y-52057554D01*
X182372104Y-52358458D01*
X182071200Y-52808793D01*
X181965536Y-53340000D01*
X182071200Y-53871207D01*
X182372104Y-54321542D01*
X182803812Y-54610000D01*
X182372104Y-54898458D01*
X182071200Y-55348793D01*
X181965536Y-55880000D01*
X182071200Y-56411207D01*
X182372104Y-56861542D01*
X182822439Y-57162446D01*
X183353646Y-57268110D01*
X184946354Y-57268110D01*
X185477561Y-57162446D01*
X185927896Y-56861542D01*
X186228800Y-56411207D01*
X186334464Y-55880000D01*
X186334464Y-98330383D01*
X186216354Y-98306890D01*
X186016464Y-98306890D01*
X186016464Y-94297500D01*
X186016464Y-87947500D01*
X186016464Y-79057500D01*
X186016464Y-72707500D01*
X186016464Y-66357500D01*
X186016464Y-60007500D01*
X185910800Y-59476293D01*
X185609896Y-59025958D01*
X185159561Y-58725054D01*
X184628354Y-58619390D01*
X183035646Y-58619390D01*
X182504439Y-58725054D01*
X182054104Y-59025958D01*
X181753200Y-59476293D01*
X181647536Y-60007500D01*
X181753200Y-60538707D01*
X182054104Y-60989042D01*
X182504439Y-61289946D01*
X182507305Y-61290516D01*
X182429081Y-61313654D01*
X182006276Y-61655760D01*
X181746573Y-62133625D01*
X181732217Y-62205826D01*
X181854838Y-62420500D01*
X183705000Y-62420500D01*
X183705000Y-62400500D01*
X183959000Y-62400500D01*
X183959000Y-62420500D01*
X185809162Y-62420500D01*
X185931783Y-62205826D01*
X185917427Y-62133625D01*
X185657724Y-61655760D01*
X185234919Y-61313654D01*
X185156694Y-61290516D01*
X185159561Y-61289946D01*
X185609896Y-60989042D01*
X185910800Y-60538707D01*
X186016464Y-60007500D01*
X186016464Y-66357500D01*
X185931783Y-65931781D01*
X185931783Y-62889174D01*
X185809162Y-62674500D01*
X183959000Y-62674500D01*
X183959000Y-63935610D01*
X184713380Y-63935610D01*
X185234919Y-63781346D01*
X185657724Y-63439240D01*
X185917427Y-62961375D01*
X185931783Y-62889174D01*
X185931783Y-65931781D01*
X185910800Y-65826293D01*
X185609896Y-65375958D01*
X185159561Y-65075054D01*
X184628354Y-64969390D01*
X183705000Y-64969390D01*
X183705000Y-63935610D01*
X183705000Y-62674500D01*
X181854838Y-62674500D01*
X181732217Y-62889174D01*
X181746573Y-62961375D01*
X182006276Y-63439240D01*
X182429081Y-63781346D01*
X182950620Y-63935610D01*
X183705000Y-63935610D01*
X183705000Y-64969390D01*
X183035646Y-64969390D01*
X182504439Y-65075054D01*
X182054104Y-65375958D01*
X181906074Y-65597500D01*
X176657201Y-65597500D01*
X176657201Y-49734829D01*
X176629230Y-49184552D01*
X176472460Y-48806077D01*
X176231517Y-48738088D01*
X176051912Y-48917693D01*
X176051912Y-48558483D01*
X175983923Y-48317540D01*
X175464829Y-48132799D01*
X174914552Y-48160770D01*
X174536077Y-48317540D01*
X174468088Y-48558483D01*
X175260000Y-49350395D01*
X176051912Y-48558483D01*
X176051912Y-48917693D01*
X175439605Y-49530000D01*
X176231517Y-50321912D01*
X176472460Y-50253923D01*
X176657201Y-49734829D01*
X176657201Y-65597500D01*
X176079554Y-65597500D01*
X176221867Y-65386670D01*
X176271930Y-65137030D01*
X176271930Y-63138050D01*
X176224953Y-62895927D01*
X176085163Y-62683123D01*
X175901572Y-62559196D01*
X175962148Y-62468539D01*
X176020000Y-62177700D01*
X176020000Y-58334547D01*
X176043515Y-58324831D01*
X176433461Y-57935564D01*
X176644759Y-57426702D01*
X176645240Y-56875715D01*
X176434831Y-56366485D01*
X176051912Y-55982898D01*
X176051912Y-50501517D01*
X175260000Y-49709605D01*
X175080395Y-49889210D01*
X175080395Y-49530000D01*
X174288483Y-48738088D01*
X174047540Y-48806077D01*
X173988268Y-48972621D01*
X173894831Y-48746485D01*
X173505564Y-48356539D01*
X172996702Y-48145241D01*
X172445715Y-48144760D01*
X171936485Y-48355169D01*
X171546539Y-48744436D01*
X171335241Y-49253298D01*
X171334760Y-49804285D01*
X171545169Y-50313515D01*
X171934436Y-50703461D01*
X172443298Y-50914759D01*
X172994285Y-50915240D01*
X173503515Y-50704831D01*
X173893461Y-50315564D01*
X173983377Y-50099021D01*
X174047540Y-50253923D01*
X174288483Y-50321912D01*
X175080395Y-49530000D01*
X175080395Y-49889210D01*
X174468088Y-50501517D01*
X174536077Y-50742460D01*
X175055171Y-50927201D01*
X175605448Y-50899230D01*
X175983923Y-50742460D01*
X176051912Y-50501517D01*
X176051912Y-55982898D01*
X176045564Y-55976539D01*
X175536702Y-55765241D01*
X174985715Y-55764760D01*
X174476485Y-55975169D01*
X174086539Y-56364436D01*
X173990023Y-56596870D01*
X173894831Y-56366485D01*
X173505564Y-55976539D01*
X172996702Y-55765241D01*
X172445715Y-55764760D01*
X171936485Y-55975169D01*
X171546539Y-56364436D01*
X171335241Y-56873298D01*
X171334760Y-57424285D01*
X171545169Y-57933515D01*
X171934436Y-58323461D01*
X172443298Y-58534759D01*
X172994285Y-58535240D01*
X173503515Y-58324831D01*
X173893461Y-57935564D01*
X173989976Y-57703129D01*
X174085169Y-57933515D01*
X174474436Y-58323461D01*
X174500000Y-58334076D01*
X174500000Y-61862898D01*
X174087599Y-62275299D01*
X173943733Y-62490610D01*
X173625510Y-62490610D01*
X173383387Y-62537587D01*
X173170583Y-62677377D01*
X173028133Y-62888410D01*
X172978070Y-63138050D01*
X172978070Y-65137030D01*
X173025047Y-65379153D01*
X173164837Y-65591957D01*
X173173048Y-65597500D01*
X169791802Y-65597500D01*
X169025240Y-64830938D01*
X169025240Y-56875715D01*
X169025240Y-49255715D01*
X168814831Y-48746485D01*
X168425564Y-48356539D01*
X167916702Y-48145241D01*
X167365715Y-48144760D01*
X166856485Y-48355169D01*
X166466539Y-48744436D01*
X166255241Y-49253298D01*
X166254760Y-49804285D01*
X166465169Y-50313515D01*
X166854436Y-50703461D01*
X167363298Y-50914759D01*
X167914285Y-50915240D01*
X168423515Y-50704831D01*
X168813461Y-50315564D01*
X169024759Y-49806702D01*
X169025240Y-49255715D01*
X169025240Y-56875715D01*
X168814831Y-56366485D01*
X168425564Y-55976539D01*
X167916702Y-55765241D01*
X167365715Y-55764760D01*
X166856485Y-55975169D01*
X166466539Y-56364436D01*
X166255241Y-56873298D01*
X166254760Y-57424285D01*
X166465169Y-57933515D01*
X166854436Y-58323461D01*
X167363298Y-58534759D01*
X167914285Y-58535240D01*
X168423515Y-58324831D01*
X168813461Y-57935564D01*
X169024759Y-57426702D01*
X169025240Y-56875715D01*
X169025240Y-64830938D01*
X162729450Y-58535148D01*
X162834285Y-58535240D01*
X163343515Y-58324831D01*
X163733461Y-57935564D01*
X163944759Y-57426702D01*
X163945240Y-56875715D01*
X163945240Y-49255715D01*
X163734831Y-48746485D01*
X163345564Y-48356539D01*
X162836702Y-48145241D01*
X162285715Y-48144760D01*
X161776485Y-48355169D01*
X161386539Y-48744436D01*
X161175241Y-49253298D01*
X161174760Y-49804285D01*
X161385169Y-50313515D01*
X161774436Y-50703461D01*
X162283298Y-50914759D01*
X162834285Y-50915240D01*
X163343515Y-50704831D01*
X163733461Y-50315564D01*
X163944759Y-49806702D01*
X163945240Y-49255715D01*
X163945240Y-56875715D01*
X163734831Y-56366485D01*
X163345564Y-55976539D01*
X162836702Y-55765241D01*
X162285715Y-55764760D01*
X161776485Y-55975169D01*
X161386539Y-56364436D01*
X161175241Y-56873298D01*
X161175147Y-56980845D01*
X158055001Y-53860699D01*
X157859470Y-53730049D01*
X157859470Y-50529490D01*
X157859470Y-48530510D01*
X157812493Y-48288387D01*
X157672703Y-48075583D01*
X157461670Y-47933133D01*
X157212030Y-47883070D01*
X155213050Y-47883070D01*
X154970927Y-47930047D01*
X154758123Y-48069837D01*
X154615673Y-48280870D01*
X154565610Y-48530510D01*
X154565610Y-50529490D01*
X154612587Y-50771613D01*
X154752377Y-50984417D01*
X154963410Y-51126867D01*
X155213050Y-51176930D01*
X157212030Y-51176930D01*
X157454153Y-51129953D01*
X157666957Y-50990163D01*
X157809407Y-50779130D01*
X157859470Y-50529490D01*
X157859470Y-53730049D01*
X157808439Y-53695952D01*
X157517600Y-53638100D01*
X73799500Y-53638100D01*
X73508661Y-53695952D01*
X73262099Y-53860699D01*
X72693428Y-54429369D01*
X72304151Y-54169263D01*
X71755000Y-54060030D01*
X71205849Y-54169263D01*
X70740302Y-54480332D01*
X70485000Y-54862417D01*
X70229698Y-54480332D01*
X69764151Y-54169263D01*
X69215000Y-54060030D01*
X68665849Y-54169263D01*
X68200302Y-54480332D01*
X67945000Y-54862417D01*
X67689698Y-54480332D01*
X67224151Y-54169263D01*
X66675000Y-54060030D01*
X66125849Y-54169263D01*
X65660302Y-54480332D01*
X65405000Y-54862417D01*
X65149698Y-54480332D01*
X64684151Y-54169263D01*
X64135000Y-54060030D01*
X63585849Y-54169263D01*
X63120302Y-54480332D01*
X62865000Y-54862417D01*
X62609698Y-54480332D01*
X62144151Y-54169263D01*
X61595000Y-54060030D01*
X61045849Y-54169263D01*
X60580302Y-54480332D01*
X60325000Y-54862417D01*
X60069698Y-54480332D01*
X59604151Y-54169263D01*
X59055000Y-54060030D01*
X58505849Y-54169263D01*
X58040302Y-54480332D01*
X57785000Y-54862417D01*
X57529698Y-54480332D01*
X57064151Y-54169263D01*
X56515000Y-54060030D01*
X55965849Y-54169263D01*
X55500302Y-54480332D01*
X55245000Y-54862417D01*
X54989698Y-54480332D01*
X54524151Y-54169263D01*
X53975000Y-54060030D01*
X53425849Y-54169263D01*
X53135294Y-54363405D01*
X53135294Y-48122108D01*
X53134705Y-46874928D01*
X52658564Y-45725421D01*
X52235880Y-45443725D01*
X52056275Y-45623330D01*
X52056275Y-45264120D01*
X51774579Y-44841436D01*
X50622108Y-44364706D01*
X49374928Y-44365295D01*
X48225421Y-44841436D01*
X47943725Y-45264120D01*
X50000000Y-47320395D01*
X52056275Y-45264120D01*
X52056275Y-45623330D01*
X50179605Y-47500000D01*
X52235880Y-49556275D01*
X52658564Y-49274579D01*
X53135294Y-48122108D01*
X53135294Y-54363405D01*
X52960302Y-54480332D01*
X52707850Y-54858151D01*
X52359896Y-54425500D01*
X52056275Y-54259324D01*
X52056275Y-49735880D01*
X50000000Y-47679605D01*
X49820395Y-47859210D01*
X49820395Y-47500000D01*
X47764120Y-45443725D01*
X47341436Y-45725421D01*
X46864706Y-46877892D01*
X46865295Y-48125072D01*
X47341436Y-49274579D01*
X47764120Y-49556275D01*
X49820395Y-47500000D01*
X49820395Y-47859210D01*
X47943725Y-49735880D01*
X48225421Y-50158564D01*
X49377892Y-50635294D01*
X50625072Y-50634705D01*
X51774579Y-50158564D01*
X52056275Y-49735880D01*
X52056275Y-54259324D01*
X51866819Y-54155633D01*
X51784039Y-54138096D01*
X51562000Y-54260085D01*
X51562000Y-55753000D01*
X51582000Y-55753000D01*
X51582000Y-56007000D01*
X51562000Y-56007000D01*
X51562000Y-57499915D01*
X51784039Y-57621904D01*
X51866819Y-57604367D01*
X52359896Y-57334500D01*
X52707850Y-56901848D01*
X52960302Y-57279668D01*
X53425849Y-57590737D01*
X53975000Y-57699970D01*
X54524151Y-57590737D01*
X54989698Y-57279668D01*
X55245000Y-56897582D01*
X55500302Y-57279668D01*
X55965849Y-57590737D01*
X56515000Y-57699970D01*
X57064151Y-57590737D01*
X57529698Y-57279668D01*
X57785000Y-56897582D01*
X58040302Y-57279668D01*
X58505849Y-57590737D01*
X59055000Y-57699970D01*
X59604151Y-57590737D01*
X60069698Y-57279668D01*
X60325000Y-56897582D01*
X60580302Y-57279668D01*
X61045849Y-57590737D01*
X61595000Y-57699970D01*
X62144151Y-57590737D01*
X62609698Y-57279668D01*
X62865000Y-56897582D01*
X63120302Y-57279668D01*
X63585849Y-57590737D01*
X64135000Y-57699970D01*
X64684151Y-57590737D01*
X65149698Y-57279668D01*
X65405000Y-56897582D01*
X65660302Y-57279668D01*
X66125849Y-57590737D01*
X66675000Y-57699970D01*
X67224151Y-57590737D01*
X67689698Y-57279668D01*
X67945000Y-56897582D01*
X68200302Y-57279668D01*
X68665849Y-57590737D01*
X69215000Y-57699970D01*
X69764151Y-57590737D01*
X70229698Y-57279668D01*
X70485000Y-56897582D01*
X70740302Y-57279668D01*
X71205849Y-57590737D01*
X71755000Y-57699970D01*
X72304151Y-57590737D01*
X72769698Y-57279668D01*
X73025000Y-56897582D01*
X73280302Y-57279668D01*
X73745849Y-57590737D01*
X74295000Y-57699970D01*
X74302649Y-57698448D01*
X69947599Y-62053499D01*
X69782852Y-62300061D01*
X69725000Y-62590900D01*
X69725000Y-69401475D01*
X69215000Y-69300030D01*
X68665849Y-69409263D01*
X68200302Y-69720332D01*
X67945000Y-70102417D01*
X67689698Y-69720332D01*
X67224151Y-69409263D01*
X66675000Y-69300030D01*
X66125849Y-69409263D01*
X65660302Y-69720332D01*
X65405000Y-70102417D01*
X65149698Y-69720332D01*
X64684151Y-69409263D01*
X64135000Y-69300030D01*
X63585849Y-69409263D01*
X63120302Y-69720332D01*
X62865000Y-70102417D01*
X62609698Y-69720332D01*
X62144151Y-69409263D01*
X61595000Y-69300030D01*
X61045849Y-69409263D01*
X60580302Y-69720332D01*
X60325000Y-70102417D01*
X60069698Y-69720332D01*
X59604151Y-69409263D01*
X59055000Y-69300030D01*
X58505849Y-69409263D01*
X58040302Y-69720332D01*
X57787850Y-70098151D01*
X57439896Y-69665500D01*
X56946819Y-69395633D01*
X56864039Y-69378096D01*
X56642000Y-69500085D01*
X56642000Y-70993000D01*
X56662000Y-70993000D01*
X56662000Y-71247000D01*
X56642000Y-71247000D01*
X56642000Y-72739915D01*
X56864039Y-72861904D01*
X56946819Y-72844367D01*
X57439896Y-72574500D01*
X57787850Y-72141848D01*
X58040302Y-72519668D01*
X58505849Y-72830737D01*
X59055000Y-72939970D01*
X59604151Y-72830737D01*
X60069698Y-72519668D01*
X60325000Y-72137582D01*
X60580302Y-72519668D01*
X61045849Y-72830737D01*
X61595000Y-72939970D01*
X62144151Y-72830737D01*
X62609698Y-72519668D01*
X62865000Y-72137582D01*
X63120302Y-72519668D01*
X63585849Y-72830737D01*
X64135000Y-72939970D01*
X64684151Y-72830737D01*
X65149698Y-72519668D01*
X65405000Y-72137582D01*
X65660302Y-72519668D01*
X66125849Y-72830737D01*
X66675000Y-72939970D01*
X67224151Y-72830737D01*
X67689698Y-72519668D01*
X67945000Y-72137582D01*
X68200302Y-72519668D01*
X68455000Y-72689852D01*
X68455000Y-79060198D01*
X66310514Y-81204683D01*
X66308951Y-81204034D01*
X65773399Y-81203566D01*
X65278435Y-81408081D01*
X64899412Y-81786443D01*
X64694034Y-82281049D01*
X64693566Y-82816601D01*
X64898081Y-83311565D01*
X65276443Y-83690588D01*
X65771049Y-83895966D01*
X66306601Y-83896434D01*
X66801565Y-83691919D01*
X67180588Y-83313557D01*
X67385966Y-82818951D01*
X67386434Y-82283399D01*
X67384963Y-82279838D01*
X69725000Y-79939802D01*
X69725000Y-94845698D01*
X64359720Y-100210977D01*
X64314233Y-100210938D01*
X63970457Y-100352983D01*
X63707208Y-100615773D01*
X63564562Y-100959301D01*
X63564238Y-101331267D01*
X63706283Y-101675043D01*
X63969073Y-101938292D01*
X64312601Y-102080938D01*
X64684567Y-102081262D01*
X65028343Y-101939217D01*
X65291592Y-101676427D01*
X65434238Y-101332899D01*
X65434278Y-101286023D01*
X70995000Y-95725302D01*
X70995000Y-99292700D01*
X71052852Y-99583539D01*
X71217599Y-99830101D01*
X73564698Y-102177200D01*
X59766200Y-102177200D01*
X59766200Y-83387510D01*
X59766200Y-83134891D01*
X59766200Y-82835750D01*
X59766200Y-82264250D01*
X59766200Y-81965109D01*
X59766200Y-81712490D01*
X59669527Y-81479101D01*
X59490898Y-81300473D01*
X59257509Y-81203800D01*
X58705750Y-81203800D01*
X58547000Y-81362550D01*
X58547000Y-82423000D01*
X59607450Y-82423000D01*
X59766200Y-82264250D01*
X59766200Y-82835750D01*
X59607450Y-82677000D01*
X58547000Y-82677000D01*
X58547000Y-83737450D01*
X58705750Y-83896200D01*
X59257509Y-83896200D01*
X59490898Y-83799527D01*
X59669527Y-83620899D01*
X59766200Y-83387510D01*
X59766200Y-102177200D01*
X58293000Y-102177200D01*
X58293000Y-83737450D01*
X58293000Y-82677000D01*
X58293000Y-82423000D01*
X58293000Y-81362550D01*
X58134250Y-81203800D01*
X57582491Y-81203800D01*
X57349102Y-81300473D01*
X57170473Y-81479101D01*
X57073800Y-81712490D01*
X57073800Y-81965109D01*
X57073800Y-82264250D01*
X57232550Y-82423000D01*
X58293000Y-82423000D01*
X58293000Y-82677000D01*
X57232550Y-82677000D01*
X57073800Y-82835750D01*
X57073800Y-83134891D01*
X57073800Y-83387510D01*
X57170473Y-83620899D01*
X57349102Y-83799527D01*
X57582491Y-83896200D01*
X58134250Y-83896200D01*
X58293000Y-83737450D01*
X58293000Y-102177200D01*
X55736502Y-102177200D01*
X55256901Y-101697599D01*
X55172497Y-101641202D01*
X55106146Y-101480620D01*
X54731353Y-101105173D01*
X54241413Y-100901732D01*
X53716075Y-100901273D01*
X50780300Y-97965498D01*
X50780300Y-72760211D01*
X50885849Y-72830737D01*
X51435000Y-72939970D01*
X51984151Y-72830737D01*
X52449698Y-72519668D01*
X52705000Y-72137582D01*
X52960302Y-72519668D01*
X53425849Y-72830737D01*
X53975000Y-72939970D01*
X54524151Y-72830737D01*
X54989698Y-72519668D01*
X55242149Y-72141848D01*
X55590104Y-72574500D01*
X56083181Y-72844367D01*
X56165961Y-72861904D01*
X56388000Y-72739915D01*
X56388000Y-71247000D01*
X56368000Y-71247000D01*
X56368000Y-70993000D01*
X56388000Y-70993000D01*
X56388000Y-69500085D01*
X56165961Y-69378096D01*
X56083181Y-69395633D01*
X55590104Y-69665500D01*
X55242149Y-70098151D01*
X54989698Y-69720332D01*
X54524151Y-69409263D01*
X53975000Y-69300030D01*
X53425849Y-69409263D01*
X52960302Y-69720332D01*
X52705000Y-70102417D01*
X52449698Y-69720332D01*
X51984151Y-69409263D01*
X51435000Y-69300030D01*
X50885849Y-69409263D01*
X50780300Y-69479788D01*
X50780300Y-57482381D01*
X51003181Y-57604367D01*
X51085961Y-57621904D01*
X51308000Y-57499915D01*
X51308000Y-56007000D01*
X51288000Y-56007000D01*
X51288000Y-55753000D01*
X51308000Y-55753000D01*
X51308000Y-54260085D01*
X51085961Y-54138096D01*
X51003181Y-54155633D01*
X50510104Y-54425500D01*
X50162149Y-54858151D01*
X49909698Y-54480332D01*
X49444151Y-54169263D01*
X48895000Y-54060030D01*
X48345849Y-54169263D01*
X47880302Y-54480332D01*
X47569233Y-54945879D01*
X47460000Y-55495030D01*
X47460000Y-56264970D01*
X47569233Y-56814121D01*
X47880302Y-57279668D01*
X48345849Y-57590737D01*
X48895000Y-57699970D01*
X49260300Y-57627307D01*
X49260300Y-69372692D01*
X48895000Y-69300030D01*
X48345849Y-69409263D01*
X47880302Y-69720332D01*
X47569233Y-70185879D01*
X47460000Y-70735030D01*
X47460000Y-71504970D01*
X47569233Y-72054121D01*
X47880302Y-72519668D01*
X48345849Y-72830737D01*
X48895000Y-72939970D01*
X49260300Y-72867307D01*
X49260300Y-98280300D01*
X49318152Y-98571139D01*
X49482899Y-98817701D01*
X52641725Y-101976527D01*
X52641269Y-102499086D01*
X52742528Y-102744153D01*
X52719798Y-102748675D01*
X51655690Y-103459690D01*
X50944675Y-104523798D01*
X50695000Y-105779000D01*
X50695000Y-109935000D01*
X50944675Y-111190202D01*
X51655690Y-112254310D01*
X52719798Y-112965325D01*
X53975000Y-113215000D01*
X55230202Y-112965325D01*
X56294310Y-112254310D01*
X57005325Y-111190202D01*
X57255000Y-109935000D01*
X57255000Y-105779000D01*
X57005325Y-104523798D01*
X56453009Y-103697200D01*
X83190100Y-103697200D01*
X83480939Y-103639348D01*
X83727501Y-103474601D01*
X84786512Y-102415589D01*
X85175849Y-102675737D01*
X85725000Y-102784970D01*
X86274151Y-102675737D01*
X86739698Y-102364668D01*
X86995000Y-101982582D01*
X87250302Y-102364668D01*
X87715849Y-102675737D01*
X88265000Y-102784970D01*
X88814151Y-102675737D01*
X89279698Y-102364668D01*
X89535000Y-101982582D01*
X89790302Y-102364668D01*
X90255849Y-102675737D01*
X90805000Y-102784970D01*
X91354151Y-102675737D01*
X91819698Y-102364668D01*
X92075000Y-101982582D01*
X92330302Y-102364668D01*
X92795849Y-102675737D01*
X93345000Y-102784970D01*
X93894151Y-102675737D01*
X94359698Y-102364668D01*
X94670767Y-101899121D01*
X94715087Y-101676308D01*
X94761139Y-101667148D01*
X95007701Y-101502401D01*
X95172448Y-101255839D01*
X95230300Y-100965000D01*
X95230300Y-88635211D01*
X95335849Y-88705737D01*
X95885000Y-88814970D01*
X96434151Y-88705737D01*
X96899698Y-88394668D01*
X97210767Y-87929121D01*
X97320000Y-87379970D01*
X97320000Y-86610030D01*
X97210767Y-86060879D01*
X96899698Y-85595332D01*
X96434151Y-85284263D01*
X95885000Y-85175030D01*
X95872981Y-85177420D01*
X98107284Y-82943117D01*
X98156673Y-82992592D01*
X98500201Y-83135238D01*
X98547076Y-83135278D01*
X107190000Y-91778202D01*
X107190000Y-94950147D01*
X106935302Y-95120332D01*
X106624233Y-95585879D01*
X106515000Y-96135030D01*
X106515000Y-96904970D01*
X106584048Y-97252100D01*
X102389602Y-97252100D01*
X102311292Y-97173790D01*
X102491740Y-97075724D01*
X102833846Y-96652919D01*
X102988110Y-96131380D01*
X102988110Y-95377000D01*
X102988110Y-95123000D01*
X102988110Y-94368620D01*
X102833846Y-93847081D01*
X102491740Y-93424276D01*
X102013875Y-93164573D01*
X101941674Y-93150217D01*
X101727000Y-93272838D01*
X101727000Y-95123000D01*
X102988110Y-95123000D01*
X102988110Y-95377000D01*
X101727000Y-95377000D01*
X101727000Y-95397000D01*
X101473000Y-95397000D01*
X101473000Y-95377000D01*
X101453000Y-95377000D01*
X101453000Y-95123000D01*
X101473000Y-95123000D01*
X101473000Y-93272838D01*
X101258326Y-93150217D01*
X101186125Y-93164573D01*
X100708260Y-93424276D01*
X100366154Y-93847081D01*
X100343016Y-93925305D01*
X100342446Y-93922439D01*
X100041542Y-93472104D01*
X99591207Y-93171200D01*
X99060000Y-93065536D01*
X98528793Y-93171200D01*
X98078458Y-93472104D01*
X97777554Y-93922439D01*
X97671890Y-94453646D01*
X97671890Y-96046354D01*
X97777554Y-96577561D01*
X98078458Y-97027896D01*
X98528793Y-97328800D01*
X99060000Y-97434464D01*
X99591207Y-97328800D01*
X100026107Y-97038209D01*
X101537399Y-98549501D01*
X101783961Y-98714248D01*
X102074800Y-98772100D01*
X110961900Y-98772100D01*
X111252739Y-98714248D01*
X111499301Y-98549501D01*
X112083539Y-97965262D01*
X112480849Y-98230737D01*
X113030000Y-98339970D01*
X113579151Y-98230737D01*
X114044698Y-97919668D01*
X114297149Y-97541848D01*
X114645104Y-97974500D01*
X115138181Y-98244367D01*
X115220961Y-98261904D01*
X115443000Y-98139915D01*
X115443000Y-96647000D01*
X115423000Y-96647000D01*
X115423000Y-96393000D01*
X115443000Y-96393000D01*
X115443000Y-94900085D01*
X115220961Y-94778096D01*
X115138181Y-94795633D01*
X114915300Y-94917618D01*
X114915300Y-90502381D01*
X115138181Y-90624367D01*
X115220961Y-90641904D01*
X115443000Y-90519915D01*
X115443000Y-89027000D01*
X115423000Y-89027000D01*
X115423000Y-88773000D01*
X115443000Y-88773000D01*
X115443000Y-87280085D01*
X115220961Y-87158096D01*
X115138181Y-87175633D01*
X114915300Y-87297618D01*
X114915300Y-80556502D01*
X125960527Y-69511274D01*
X126125352Y-69579716D01*
X126775795Y-69580284D01*
X127376943Y-69331894D01*
X127793751Y-68915813D01*
X127799468Y-68917927D01*
X128772395Y-67945000D01*
X127799468Y-66972073D01*
X127793278Y-66974361D01*
X127379363Y-66559722D01*
X126778648Y-66310284D01*
X126128205Y-66309716D01*
X125527057Y-66558106D01*
X125201835Y-66882759D01*
X124879363Y-66559722D01*
X124278648Y-66310284D01*
X123628205Y-66309716D01*
X123027057Y-66558106D01*
X122701835Y-66882759D01*
X122379363Y-66559722D01*
X121778648Y-66310284D01*
X121128205Y-66309716D01*
X120527057Y-66558106D01*
X120110248Y-66974186D01*
X120104532Y-66972073D01*
X119924927Y-67151678D01*
X119924927Y-66792468D01*
X119826264Y-66525613D01*
X119216539Y-66299092D01*
X118566540Y-66323144D01*
X118077736Y-66525613D01*
X117979073Y-66792468D01*
X118952000Y-67765395D01*
X119924927Y-66792468D01*
X119924927Y-67151678D01*
X119131605Y-67945000D01*
X120104532Y-68917927D01*
X120110721Y-68915638D01*
X120524637Y-69330278D01*
X121125352Y-69579716D01*
X121242379Y-69579818D01*
X119924927Y-70897270D01*
X119924927Y-69097532D01*
X118952000Y-68124605D01*
X117979073Y-69097532D01*
X118077736Y-69364387D01*
X118687461Y-69590908D01*
X119337460Y-69566856D01*
X119826264Y-69364387D01*
X119924927Y-69097532D01*
X119924927Y-70897270D01*
X117212000Y-73610198D01*
X117212000Y-69400047D01*
X117376943Y-69331894D01*
X117793751Y-68915813D01*
X117799468Y-68917927D01*
X118772395Y-67945000D01*
X117799468Y-66972073D01*
X117793278Y-66974361D01*
X117379363Y-66559722D01*
X116778648Y-66310284D01*
X116128205Y-66309716D01*
X115527057Y-66558106D01*
X115066722Y-67017637D01*
X114817284Y-67618352D01*
X114816716Y-68268795D01*
X115065106Y-68869943D01*
X115524637Y-69330278D01*
X115692000Y-69399773D01*
X115692000Y-74136787D01*
X115431357Y-74244483D01*
X115168108Y-74507273D01*
X115025462Y-74850801D01*
X115025138Y-75222767D01*
X115167183Y-75566543D01*
X115211380Y-75610817D01*
X109921398Y-80900800D01*
X109679502Y-80900800D01*
X105589101Y-76810399D01*
X105342539Y-76645652D01*
X105051700Y-76587800D01*
X93646500Y-76587800D01*
X93646500Y-63186200D01*
X93588648Y-62895361D01*
X93423901Y-62648799D01*
X86117701Y-55342599D01*
X85871139Y-55177852D01*
X85825087Y-55168691D01*
X85822980Y-55158100D01*
X157202798Y-55158100D01*
X164547819Y-62503121D01*
X164141306Y-62502766D01*
X163540345Y-62751078D01*
X163080154Y-63210467D01*
X162830794Y-63810993D01*
X162830226Y-64461234D01*
X163078538Y-65062195D01*
X163537927Y-65522386D01*
X164138453Y-65771746D01*
X164788694Y-65772314D01*
X165389655Y-65524002D01*
X165849846Y-65064613D01*
X166099206Y-64464087D01*
X166099563Y-64054865D01*
X168939599Y-66894901D01*
X169186161Y-67059648D01*
X169477000Y-67117500D01*
X181906074Y-67117500D01*
X182054104Y-67339042D01*
X182504439Y-67639946D01*
X182507305Y-67640516D01*
X182429081Y-67663654D01*
X182006276Y-68005760D01*
X181746573Y-68483625D01*
X181732217Y-68555826D01*
X181854838Y-68770500D01*
X183705000Y-68770500D01*
X183705000Y-68750500D01*
X183959000Y-68750500D01*
X183959000Y-68770500D01*
X185809162Y-68770500D01*
X185931783Y-68555826D01*
X185917427Y-68483625D01*
X185657724Y-68005760D01*
X185234919Y-67663654D01*
X185156694Y-67640516D01*
X185159561Y-67639946D01*
X185609896Y-67339042D01*
X185910800Y-66888707D01*
X186016464Y-66357500D01*
X186016464Y-72707500D01*
X185931783Y-72281781D01*
X185931783Y-69239174D01*
X185809162Y-69024500D01*
X183959000Y-69024500D01*
X183959000Y-70285610D01*
X184713380Y-70285610D01*
X185234919Y-70131346D01*
X185657724Y-69789240D01*
X185917427Y-69311375D01*
X185931783Y-69239174D01*
X185931783Y-72281781D01*
X185910800Y-72176293D01*
X185609896Y-71725958D01*
X185159561Y-71425054D01*
X184628354Y-71319390D01*
X183705000Y-71319390D01*
X183705000Y-70285610D01*
X183705000Y-69024500D01*
X181854838Y-69024500D01*
X181732217Y-69239174D01*
X181746573Y-69311375D01*
X182006276Y-69789240D01*
X182429081Y-70131346D01*
X182950620Y-70285610D01*
X183705000Y-70285610D01*
X183705000Y-71319390D01*
X183035646Y-71319390D01*
X182504439Y-71425054D01*
X182054104Y-71725958D01*
X181753200Y-72176293D01*
X181647536Y-72707500D01*
X181753200Y-73238707D01*
X182054104Y-73689042D01*
X182504439Y-73989946D01*
X182507305Y-73990516D01*
X182429081Y-74013654D01*
X182006276Y-74355760D01*
X181746573Y-74833625D01*
X181732217Y-74905826D01*
X181854838Y-75120500D01*
X183705000Y-75120500D01*
X183705000Y-75100500D01*
X183959000Y-75100500D01*
X183959000Y-75120500D01*
X185809162Y-75120500D01*
X185931783Y-74905826D01*
X185917427Y-74833625D01*
X185657724Y-74355760D01*
X185234919Y-74013654D01*
X185156694Y-73990516D01*
X185159561Y-73989946D01*
X185609896Y-73689042D01*
X185910800Y-73238707D01*
X186016464Y-72707500D01*
X186016464Y-79057500D01*
X185931783Y-78631781D01*
X185931783Y-75589174D01*
X185809162Y-75374500D01*
X183959000Y-75374500D01*
X183959000Y-76635610D01*
X184713380Y-76635610D01*
X185234919Y-76481346D01*
X185657724Y-76139240D01*
X185917427Y-75661375D01*
X185931783Y-75589174D01*
X185931783Y-78631781D01*
X185910800Y-78526293D01*
X185609896Y-78075958D01*
X185159561Y-77775054D01*
X184628354Y-77669390D01*
X183705000Y-77669390D01*
X183705000Y-76635610D01*
X183705000Y-75374500D01*
X181854838Y-75374500D01*
X181732217Y-75589174D01*
X181746573Y-75661375D01*
X182006276Y-76139240D01*
X182429081Y-76481346D01*
X182950620Y-76635610D01*
X183705000Y-76635610D01*
X183705000Y-77669390D01*
X183035646Y-77669390D01*
X182504439Y-77775054D01*
X182054104Y-78075958D01*
X181753200Y-78526293D01*
X181647536Y-79057500D01*
X181753200Y-79588707D01*
X182054104Y-80039042D01*
X182504439Y-80339946D01*
X182507305Y-80340516D01*
X182429081Y-80363654D01*
X182006276Y-80705760D01*
X181746573Y-81183625D01*
X181732217Y-81255826D01*
X181854838Y-81470500D01*
X183705000Y-81470500D01*
X183705000Y-81450500D01*
X183959000Y-81450500D01*
X183959000Y-81470500D01*
X185809162Y-81470500D01*
X185931783Y-81255826D01*
X185917427Y-81183625D01*
X185657724Y-80705760D01*
X185234919Y-80363654D01*
X185156694Y-80340516D01*
X185159561Y-80339946D01*
X185609896Y-80039042D01*
X185910800Y-79588707D01*
X186016464Y-79057500D01*
X186016464Y-87947500D01*
X185910800Y-87416293D01*
X185609896Y-86965958D01*
X185159561Y-86665054D01*
X185156694Y-86664483D01*
X185234919Y-86641346D01*
X185657724Y-86299240D01*
X185917427Y-85821375D01*
X185931783Y-85749174D01*
X185931783Y-85065826D01*
X185931783Y-81939174D01*
X185809162Y-81724500D01*
X183959000Y-81724500D01*
X183959000Y-82985610D01*
X184713380Y-82985610D01*
X185234919Y-82831346D01*
X185657724Y-82489240D01*
X185917427Y-82011375D01*
X185931783Y-81939174D01*
X185931783Y-85065826D01*
X185917427Y-84993625D01*
X185657724Y-84515760D01*
X185234919Y-84173654D01*
X184713380Y-84019390D01*
X183959000Y-84019390D01*
X183959000Y-85280500D01*
X185809162Y-85280500D01*
X185931783Y-85065826D01*
X185931783Y-85749174D01*
X185809162Y-85534500D01*
X183959000Y-85534500D01*
X183959000Y-85554500D01*
X183705000Y-85554500D01*
X183705000Y-85534500D01*
X183705000Y-85280500D01*
X183705000Y-84019390D01*
X183705000Y-82985610D01*
X183705000Y-81724500D01*
X181854838Y-81724500D01*
X181732217Y-81939174D01*
X181746573Y-82011375D01*
X182006276Y-82489240D01*
X182429081Y-82831346D01*
X182950620Y-82985610D01*
X183705000Y-82985610D01*
X183705000Y-84019390D01*
X182950620Y-84019390D01*
X182429081Y-84173654D01*
X182006276Y-84515760D01*
X181746573Y-84993625D01*
X181732217Y-85065826D01*
X181854838Y-85280500D01*
X183705000Y-85280500D01*
X183705000Y-85534500D01*
X181854838Y-85534500D01*
X181732217Y-85749174D01*
X181746573Y-85821375D01*
X182006276Y-86299240D01*
X182429081Y-86641346D01*
X182507305Y-86664483D01*
X182504439Y-86665054D01*
X182054104Y-86965958D01*
X181753200Y-87416293D01*
X181647536Y-87947500D01*
X181753200Y-88478707D01*
X182054104Y-88929042D01*
X182504439Y-89229946D01*
X183035646Y-89335610D01*
X184628354Y-89335610D01*
X185159561Y-89229946D01*
X185609896Y-88929042D01*
X185910800Y-88478707D01*
X186016464Y-87947500D01*
X186016464Y-94297500D01*
X185910800Y-93766293D01*
X185609896Y-93315958D01*
X185159561Y-93015054D01*
X185156694Y-93014483D01*
X185234919Y-92991346D01*
X185657724Y-92649240D01*
X185917427Y-92171375D01*
X185931783Y-92099174D01*
X185931783Y-91415826D01*
X185917427Y-91343625D01*
X185657724Y-90865760D01*
X185234919Y-90523654D01*
X184713380Y-90369390D01*
X183959000Y-90369390D01*
X183959000Y-91630500D01*
X185809162Y-91630500D01*
X185931783Y-91415826D01*
X185931783Y-92099174D01*
X185809162Y-91884500D01*
X183959000Y-91884500D01*
X183959000Y-91904500D01*
X183705000Y-91904500D01*
X183705000Y-91884500D01*
X183705000Y-91630500D01*
X183705000Y-90369390D01*
X182950620Y-90369390D01*
X182429081Y-90523654D01*
X182006276Y-90865760D01*
X181746573Y-91343625D01*
X181732217Y-91415826D01*
X181854838Y-91630500D01*
X183705000Y-91630500D01*
X183705000Y-91884500D01*
X181854838Y-91884500D01*
X181732217Y-92099174D01*
X181746573Y-92171375D01*
X182006276Y-92649240D01*
X182429081Y-92991346D01*
X182507305Y-93014483D01*
X182504439Y-93015054D01*
X182054104Y-93315958D01*
X181753200Y-93766293D01*
X181647536Y-94297500D01*
X181753200Y-94828707D01*
X182054104Y-95279042D01*
X182504439Y-95579946D01*
X183035646Y-95685610D01*
X184628354Y-95685610D01*
X185159561Y-95579946D01*
X185609896Y-95279042D01*
X185910800Y-94828707D01*
X186016464Y-94297500D01*
X186016464Y-98306890D01*
X184623646Y-98306890D01*
X184092439Y-98412554D01*
X183642104Y-98713458D01*
X183341200Y-99163793D01*
X183235536Y-99695000D01*
X183341200Y-100226207D01*
X183642104Y-100676542D01*
X184073812Y-100965000D01*
X183642104Y-101253458D01*
X183341200Y-101703793D01*
X183235536Y-102235000D01*
X183341200Y-102766207D01*
X183642104Y-103216542D01*
X184092439Y-103517446D01*
X184623646Y-103623110D01*
X186216354Y-103623110D01*
X186747561Y-103517446D01*
X187197896Y-103216542D01*
X187498800Y-102766207D01*
X187604464Y-102235000D01*
X187604464Y-140689366D01*
X187235880Y-140443725D01*
X187056275Y-140623330D01*
X187056275Y-140264120D01*
X186774579Y-139841436D01*
X185622108Y-139364706D01*
X185547454Y-139364741D01*
X185547454Y-130095000D01*
X185547454Y-125095000D01*
X185423713Y-124472910D01*
X185071327Y-123945527D01*
X184543944Y-123593141D01*
X183921854Y-123469400D01*
X183640000Y-123469400D01*
X183640000Y-118385600D01*
X183921854Y-118385600D01*
X184543944Y-118261859D01*
X185071327Y-117909473D01*
X185423713Y-117382090D01*
X185547454Y-116760000D01*
X185423713Y-116137910D01*
X185071327Y-115610527D01*
X184543944Y-115258141D01*
X183921854Y-115134400D01*
X181896302Y-115134400D01*
X183417401Y-113613301D01*
X183569545Y-113385600D01*
X183921854Y-113385600D01*
X184543944Y-113261859D01*
X185071327Y-112909473D01*
X185423713Y-112382090D01*
X185547454Y-111760000D01*
X185423713Y-111137910D01*
X185071327Y-110610527D01*
X184543944Y-110258141D01*
X183921854Y-110134400D01*
X181838146Y-110134400D01*
X181216056Y-110258141D01*
X180688673Y-110610527D01*
X180336287Y-111137910D01*
X180212546Y-111760000D01*
X180336287Y-112382090D01*
X180688673Y-112909473D01*
X181216056Y-113261859D01*
X181552346Y-113328751D01*
X173799462Y-121081635D01*
X173799462Y-118533828D01*
X173394291Y-117553239D01*
X172644707Y-116802345D01*
X171664827Y-116395464D01*
X170603828Y-116394538D01*
X169623239Y-116799709D01*
X168872345Y-117549293D01*
X168465464Y-118529173D01*
X168464538Y-119590172D01*
X168869709Y-120570761D01*
X169619293Y-121321655D01*
X170599173Y-121728536D01*
X171660172Y-121729462D01*
X172640761Y-121324291D01*
X173391655Y-120574707D01*
X173798536Y-119594827D01*
X173799462Y-118533828D01*
X173799462Y-121081635D01*
X170594599Y-124286499D01*
X170429852Y-124533061D01*
X170372000Y-124823900D01*
X170372000Y-131730327D01*
X169623239Y-132039709D01*
X168872345Y-132789293D01*
X168465464Y-133769173D01*
X168464538Y-134830172D01*
X168869709Y-135810761D01*
X169619293Y-136561655D01*
X170599173Y-136968536D01*
X171660172Y-136969462D01*
X172640761Y-136564291D01*
X173391655Y-135814707D01*
X173798536Y-134834827D01*
X173799462Y-133773828D01*
X173394291Y-132793239D01*
X172644707Y-132042345D01*
X171892000Y-131729794D01*
X171892000Y-125138702D01*
X180222194Y-116808507D01*
X180336287Y-117382090D01*
X180688673Y-117909473D01*
X181216056Y-118261859D01*
X181838146Y-118385600D01*
X182120000Y-118385600D01*
X182120000Y-123469400D01*
X181838146Y-123469400D01*
X181216056Y-123593141D01*
X180688673Y-123945527D01*
X180336287Y-124472910D01*
X180212546Y-125095000D01*
X180336287Y-125717090D01*
X180688673Y-126244473D01*
X181216056Y-126596859D01*
X181838146Y-126720600D01*
X183921854Y-126720600D01*
X184543944Y-126596859D01*
X185071327Y-126244473D01*
X185423713Y-125717090D01*
X185547454Y-125095000D01*
X185547454Y-130095000D01*
X185423713Y-129472910D01*
X185071327Y-128945527D01*
X184543944Y-128593141D01*
X183921854Y-128469400D01*
X181838146Y-128469400D01*
X181216056Y-128593141D01*
X180688673Y-128945527D01*
X180336287Y-129472910D01*
X180212546Y-130095000D01*
X180336287Y-130717090D01*
X180688673Y-131244473D01*
X181216056Y-131596859D01*
X181838146Y-131720600D01*
X183921854Y-131720600D01*
X184543944Y-131596859D01*
X185071327Y-131244473D01*
X185423713Y-130717090D01*
X185547454Y-130095000D01*
X185547454Y-139364741D01*
X184374928Y-139365295D01*
X183225421Y-139841436D01*
X182943725Y-140264120D01*
X185000000Y-142320395D01*
X187056275Y-140264120D01*
X187056275Y-140623330D01*
X185179605Y-142500000D01*
X187235880Y-144556275D01*
X187658564Y-144274579D01*
X188135294Y-143122108D01*
X188135294Y-148463000D01*
X187056275Y-148463000D01*
X187056275Y-144735880D01*
X185000000Y-142679605D01*
X184820395Y-142859210D01*
X184820395Y-142500000D01*
X182764120Y-140443725D01*
X182341436Y-140725421D01*
X181864706Y-141877892D01*
X181865295Y-143125072D01*
X182341436Y-144274579D01*
X182764120Y-144556275D01*
X184820395Y-142500000D01*
X184820395Y-142859210D01*
X182943725Y-144735880D01*
X183225421Y-145158564D01*
X184377892Y-145635294D01*
X185625072Y-145634705D01*
X186774579Y-145158564D01*
X187056275Y-144735880D01*
X187056275Y-148463000D01*
X167129462Y-148463000D01*
X167129462Y-138779828D01*
X166724291Y-137799239D01*
X165974707Y-137048345D01*
X165299107Y-136767812D01*
X165970761Y-136490291D01*
X166721655Y-135740707D01*
X167128536Y-134760827D01*
X167129462Y-133699828D01*
X166724291Y-132719239D01*
X165974707Y-131968345D01*
X165299107Y-131687812D01*
X165970761Y-131410291D01*
X166721655Y-130660707D01*
X167128536Y-129680827D01*
X167129462Y-128619828D01*
X166724291Y-127639239D01*
X165974707Y-126888345D01*
X165299107Y-126607812D01*
X165970761Y-126330291D01*
X166721655Y-125580707D01*
X167128536Y-124600827D01*
X167129462Y-123539828D01*
X166724291Y-122559239D01*
X165974707Y-121808345D01*
X165299107Y-121527812D01*
X165970761Y-121250291D01*
X166721655Y-120500707D01*
X167128536Y-119520827D01*
X167129462Y-118459828D01*
X166724291Y-117479239D01*
X165974707Y-116728345D01*
X165299107Y-116447812D01*
X165970761Y-116170291D01*
X166721655Y-115420707D01*
X167128536Y-114440827D01*
X167129462Y-113379828D01*
X166724291Y-112399239D01*
X165974707Y-111648345D01*
X165299107Y-111367812D01*
X165970761Y-111090291D01*
X166721655Y-110340707D01*
X167128536Y-109360827D01*
X167129462Y-108299828D01*
X166724291Y-107319239D01*
X165974707Y-106568345D01*
X164994827Y-106161464D01*
X163933828Y-106160538D01*
X162953239Y-106565709D01*
X162202345Y-107315293D01*
X161795464Y-108295173D01*
X161794538Y-109356172D01*
X162199709Y-110336761D01*
X162949293Y-111087655D01*
X163624892Y-111368187D01*
X162953239Y-111645709D01*
X162202345Y-112395293D01*
X161795464Y-113375173D01*
X161794538Y-114436172D01*
X162199709Y-115416761D01*
X162949293Y-116167655D01*
X163624892Y-116448187D01*
X162953239Y-116725709D01*
X162202345Y-117475293D01*
X161795464Y-118455173D01*
X161794538Y-119516172D01*
X162199709Y-120496761D01*
X162949293Y-121247655D01*
X163624892Y-121528187D01*
X162953239Y-121805709D01*
X162202345Y-122555293D01*
X161795464Y-123535173D01*
X161794538Y-124596172D01*
X162199709Y-125576761D01*
X162949293Y-126327655D01*
X163624892Y-126608187D01*
X162953239Y-126885709D01*
X162202345Y-127635293D01*
X161795464Y-128615173D01*
X161794538Y-129676172D01*
X162199709Y-130656761D01*
X162949293Y-131407655D01*
X163624892Y-131688187D01*
X162953239Y-131965709D01*
X162202345Y-132715293D01*
X161795464Y-133695173D01*
X161794538Y-134756172D01*
X162199709Y-135736761D01*
X162949293Y-136487655D01*
X163624892Y-136768187D01*
X162953239Y-137045709D01*
X162202345Y-137795293D01*
X161795464Y-138775173D01*
X161794538Y-139836172D01*
X162199709Y-140816761D01*
X162949293Y-141567655D01*
X163929173Y-141974536D01*
X164990172Y-141975462D01*
X165970761Y-141570291D01*
X166721655Y-140820707D01*
X167128536Y-139840827D01*
X167129462Y-138779828D01*
X167129462Y-148463000D01*
X157847314Y-148463000D01*
X157847314Y-59366306D01*
X157599002Y-58765345D01*
X157139613Y-58305154D01*
X156539087Y-58055794D01*
X155888846Y-58055226D01*
X155287885Y-58303538D01*
X154827694Y-58762927D01*
X154578334Y-59363453D01*
X154577766Y-60013694D01*
X154646837Y-60180860D01*
X147642698Y-67185000D01*
X133092440Y-67185000D01*
X133092440Y-66945000D01*
X133045463Y-66702877D01*
X132905673Y-66490073D01*
X132694640Y-66347623D01*
X132445000Y-66297560D01*
X130445000Y-66297560D01*
X130202877Y-66344537D01*
X129990073Y-66484327D01*
X129874372Y-66655732D01*
X129826264Y-66525613D01*
X129216539Y-66299092D01*
X128566540Y-66323144D01*
X128077736Y-66525613D01*
X127979073Y-66792468D01*
X128952000Y-67765395D01*
X128966142Y-67751252D01*
X129145747Y-67930857D01*
X129131605Y-67945000D01*
X129145747Y-67959142D01*
X128966142Y-68138747D01*
X128952000Y-68124605D01*
X127979073Y-69097532D01*
X128077736Y-69364387D01*
X128687461Y-69590908D01*
X129337460Y-69566856D01*
X129826264Y-69364387D01*
X129874780Y-69233163D01*
X129984327Y-69399927D01*
X130195360Y-69542377D01*
X130445000Y-69592440D01*
X130685000Y-69592440D01*
X130685000Y-72102098D01*
X122584911Y-80202186D01*
X122299533Y-80201938D01*
X121955757Y-80343983D01*
X121692508Y-80606773D01*
X121549862Y-80950301D01*
X121549538Y-81322267D01*
X121691583Y-81666043D01*
X121954373Y-81929292D01*
X122297901Y-82071938D01*
X122669867Y-82072262D01*
X123013643Y-81930217D01*
X123276892Y-81667427D01*
X123282300Y-81654401D01*
X131982401Y-72954301D01*
X132147148Y-72707739D01*
X132205000Y-72416900D01*
X132205000Y-69592440D01*
X132445000Y-69592440D01*
X132687123Y-69545463D01*
X132899927Y-69405673D01*
X133042377Y-69194640D01*
X133092440Y-68945000D01*
X133092440Y-68705000D01*
X147957500Y-68705000D01*
X148248339Y-68647148D01*
X148494901Y-68482401D01*
X155721428Y-61255873D01*
X155885993Y-61324206D01*
X156536234Y-61324774D01*
X157137195Y-61076462D01*
X157597386Y-60617073D01*
X157846746Y-60016547D01*
X157847314Y-59366306D01*
X157847314Y-148463000D01*
X157707240Y-148463000D01*
X157707240Y-138885211D01*
X157707240Y-133805211D01*
X157707240Y-128725211D01*
X157707240Y-123645211D01*
X157707240Y-118565211D01*
X157707240Y-113485211D01*
X157707240Y-108405211D01*
X157382910Y-107620273D01*
X156782886Y-107019200D01*
X155998515Y-106693501D01*
X155149211Y-106692760D01*
X154364273Y-107017090D01*
X153763200Y-107617114D01*
X153437501Y-108401485D01*
X153436760Y-109250789D01*
X153761090Y-110035727D01*
X154361114Y-110636800D01*
X155145485Y-110962499D01*
X155994789Y-110963240D01*
X156779727Y-110638910D01*
X157380800Y-110038886D01*
X157706499Y-109254515D01*
X157707240Y-108405211D01*
X157707240Y-113485211D01*
X157382910Y-112700273D01*
X156782886Y-112099200D01*
X155998515Y-111773501D01*
X155149211Y-111772760D01*
X154364273Y-112097090D01*
X153763200Y-112697114D01*
X153437501Y-113481485D01*
X153436760Y-114330789D01*
X153761090Y-115115727D01*
X154361114Y-115716800D01*
X155145485Y-116042499D01*
X155994789Y-116043240D01*
X156779727Y-115718910D01*
X157380800Y-115118886D01*
X157706499Y-114334515D01*
X157707240Y-113485211D01*
X157707240Y-118565211D01*
X157382910Y-117780273D01*
X156782886Y-117179200D01*
X155998515Y-116853501D01*
X155149211Y-116852760D01*
X154364273Y-117177090D01*
X153763200Y-117777114D01*
X153437501Y-118561485D01*
X153436760Y-119410789D01*
X153761090Y-120195727D01*
X154361114Y-120796800D01*
X155145485Y-121122499D01*
X155994789Y-121123240D01*
X156779727Y-120798910D01*
X157380800Y-120198886D01*
X157706499Y-119414515D01*
X157707240Y-118565211D01*
X157707240Y-123645211D01*
X157382910Y-122860273D01*
X156782886Y-122259200D01*
X155998515Y-121933501D01*
X155149211Y-121932760D01*
X154364273Y-122257090D01*
X153763200Y-122857114D01*
X153437501Y-123641485D01*
X153436760Y-124490789D01*
X153761090Y-125275727D01*
X154361114Y-125876800D01*
X155145485Y-126202499D01*
X155994789Y-126203240D01*
X156779727Y-125878910D01*
X157380800Y-125278886D01*
X157706499Y-124494515D01*
X157707240Y-123645211D01*
X157707240Y-128725211D01*
X157382910Y-127940273D01*
X156782886Y-127339200D01*
X155998515Y-127013501D01*
X155149211Y-127012760D01*
X154364273Y-127337090D01*
X153763200Y-127937114D01*
X153437501Y-128721485D01*
X153436760Y-129570789D01*
X153761090Y-130355727D01*
X154361114Y-130956800D01*
X155145485Y-131282499D01*
X155994789Y-131283240D01*
X156779727Y-130958910D01*
X157380800Y-130358886D01*
X157706499Y-129574515D01*
X157707240Y-128725211D01*
X157707240Y-133805211D01*
X157382910Y-133020273D01*
X156782886Y-132419200D01*
X155998515Y-132093501D01*
X155149211Y-132092760D01*
X154364273Y-132417090D01*
X153763200Y-133017114D01*
X153437501Y-133801485D01*
X153436760Y-134650789D01*
X153761090Y-135435727D01*
X154361114Y-136036800D01*
X155145485Y-136362499D01*
X155994789Y-136363240D01*
X156779727Y-136038910D01*
X157380800Y-135438886D01*
X157706499Y-134654515D01*
X157707240Y-133805211D01*
X157707240Y-138885211D01*
X157382910Y-138100273D01*
X156782886Y-137499200D01*
X155998515Y-137173501D01*
X155149211Y-137172760D01*
X154364273Y-137497090D01*
X153763200Y-138097114D01*
X153437501Y-138881485D01*
X153436760Y-139730789D01*
X153761090Y-140515727D01*
X154361114Y-141116800D01*
X155145485Y-141442499D01*
X155994789Y-141443240D01*
X156779727Y-141118910D01*
X157380800Y-140518886D01*
X157706499Y-139734515D01*
X157707240Y-138885211D01*
X157707240Y-148463000D01*
X136652000Y-148463000D01*
X136652000Y-100203000D01*
X117005000Y-100203000D01*
X117005000Y-96997000D01*
X117005000Y-96647000D01*
X117005000Y-96393000D01*
X117005000Y-96043000D01*
X117005000Y-89377000D01*
X117005000Y-89027000D01*
X117005000Y-88773000D01*
X117005000Y-88423000D01*
X116847166Y-87883517D01*
X116494896Y-87445500D01*
X116001819Y-87175633D01*
X115919039Y-87158096D01*
X115697000Y-87280085D01*
X115697000Y-88773000D01*
X117005000Y-88773000D01*
X117005000Y-89027000D01*
X115697000Y-89027000D01*
X115697000Y-90519915D01*
X115919039Y-90641904D01*
X116001819Y-90624367D01*
X116494896Y-90354500D01*
X116847166Y-89916483D01*
X117005000Y-89377000D01*
X117005000Y-96043000D01*
X116847166Y-95503517D01*
X116494896Y-95065500D01*
X116001819Y-94795633D01*
X115919039Y-94778096D01*
X115697000Y-94900085D01*
X115697000Y-96393000D01*
X117005000Y-96393000D01*
X117005000Y-96647000D01*
X115697000Y-96647000D01*
X115697000Y-98139915D01*
X115919039Y-98261904D01*
X116001819Y-98244367D01*
X116494896Y-97974500D01*
X116847166Y-97536483D01*
X117005000Y-96997000D01*
X117005000Y-100203000D01*
X112268000Y-100203000D01*
X112268000Y-103503818D01*
X112267538Y-104033172D01*
X112268000Y-104034290D01*
X112268000Y-123990035D01*
X112040345Y-124217293D01*
X111633464Y-125197173D01*
X111632538Y-126258172D01*
X112037709Y-127238761D01*
X112268000Y-127469454D01*
X112268000Y-134150035D01*
X112040345Y-134377293D01*
X111633464Y-135357173D01*
X111632538Y-136418172D01*
X112037709Y-137398761D01*
X112268000Y-137629454D01*
X112268000Y-148463000D01*
X108220351Y-148463000D01*
X108364310Y-148366810D01*
X109075325Y-147302702D01*
X109325000Y-146047500D01*
X109325000Y-139986065D01*
X109537013Y-139668764D01*
X109610065Y-139595841D01*
X109649997Y-139499672D01*
X109950325Y-139050201D01*
X110054864Y-138524643D01*
X110094448Y-138429317D01*
X110094538Y-138325189D01*
X110200000Y-137795000D01*
X110200000Y-114300000D01*
X110095459Y-113774441D01*
X110095550Y-113671224D01*
X110055786Y-113574988D01*
X109950325Y-113044798D01*
X109652620Y-112599252D01*
X109613204Y-112503857D01*
X109539638Y-112430163D01*
X109239310Y-111980690D01*
X108793763Y-111682985D01*
X108720841Y-111609935D01*
X108624674Y-111570003D01*
X108175202Y-111269675D01*
X107679490Y-111171070D01*
X107679490Y-107808340D01*
X107679490Y-107555721D01*
X107679490Y-106968290D01*
X107679490Y-106396790D01*
X107679490Y-105809359D01*
X107679490Y-105556740D01*
X107582817Y-105323351D01*
X107404188Y-105144723D01*
X107170799Y-105048050D01*
X106330750Y-105048050D01*
X106172000Y-105206800D01*
X106172000Y-106555540D01*
X107520740Y-106555540D01*
X107679490Y-106396790D01*
X107679490Y-106968290D01*
X107520740Y-106809540D01*
X106172000Y-106809540D01*
X106172000Y-108158280D01*
X106330750Y-108317030D01*
X107170799Y-108317030D01*
X107404188Y-108220357D01*
X107582817Y-108041729D01*
X107679490Y-107808340D01*
X107679490Y-111171070D01*
X107649643Y-111165134D01*
X107554317Y-111125552D01*
X107450189Y-111125461D01*
X106920000Y-111020000D01*
X106394441Y-111124540D01*
X106291224Y-111124450D01*
X106194988Y-111164213D01*
X105918000Y-111219309D01*
X105918000Y-108158280D01*
X105918000Y-106809540D01*
X105918000Y-106555540D01*
X105918000Y-105206800D01*
X105759250Y-105048050D01*
X104919201Y-105048050D01*
X104685812Y-105144723D01*
X104507183Y-105323351D01*
X104410510Y-105556740D01*
X104410510Y-105809359D01*
X104410510Y-106396790D01*
X104569260Y-106555540D01*
X105918000Y-106555540D01*
X105918000Y-106809540D01*
X104569260Y-106809540D01*
X104410510Y-106968290D01*
X104410510Y-107555721D01*
X104410510Y-107808340D01*
X104507183Y-108041729D01*
X104685812Y-108220357D01*
X104919201Y-108317030D01*
X105759250Y-108317030D01*
X105918000Y-108158280D01*
X105918000Y-111219309D01*
X105664799Y-111269675D01*
X105219253Y-111567378D01*
X105123857Y-111606796D01*
X105050162Y-111680362D01*
X104600690Y-111980690D01*
X103725690Y-112855690D01*
X103014675Y-113919798D01*
X102765000Y-115175000D01*
X102765000Y-121917500D01*
X103014675Y-123172702D01*
X103725690Y-124236810D01*
X104789798Y-124947825D01*
X106045000Y-125197500D01*
X107300202Y-124947825D01*
X108364310Y-124236810D01*
X109075325Y-123172702D01*
X109325000Y-121917500D01*
X109325000Y-116491065D01*
X109537013Y-116173764D01*
X109610065Y-116100841D01*
X109649997Y-116004672D01*
X109950325Y-115555201D01*
X110054864Y-115029643D01*
X110094448Y-114934317D01*
X110094538Y-114830189D01*
X110200000Y-114300000D01*
X110200000Y-137795000D01*
X110095459Y-137269441D01*
X110095550Y-137166224D01*
X110055786Y-137069988D01*
X109950325Y-136539798D01*
X109652620Y-136094252D01*
X109613204Y-135998857D01*
X109539638Y-135925163D01*
X109239310Y-135475690D01*
X108793763Y-135177985D01*
X108720841Y-135104935D01*
X108624674Y-135065003D01*
X108175202Y-134764675D01*
X107679490Y-134666070D01*
X107679490Y-131303340D01*
X107679490Y-131050721D01*
X107679490Y-130463290D01*
X107679490Y-129891790D01*
X107679490Y-129304359D01*
X107679490Y-129051740D01*
X107582817Y-128818351D01*
X107404188Y-128639723D01*
X107170799Y-128543050D01*
X106330750Y-128543050D01*
X106172000Y-128701800D01*
X106172000Y-130050540D01*
X107520740Y-130050540D01*
X107679490Y-129891790D01*
X107679490Y-130463290D01*
X107520740Y-130304540D01*
X106172000Y-130304540D01*
X106172000Y-131653280D01*
X106330750Y-131812030D01*
X107170799Y-131812030D01*
X107404188Y-131715357D01*
X107582817Y-131536729D01*
X107679490Y-131303340D01*
X107679490Y-134666070D01*
X107649643Y-134660134D01*
X107554317Y-134620552D01*
X107450189Y-134620461D01*
X106920000Y-134515000D01*
X106394441Y-134619540D01*
X106291224Y-134619450D01*
X106194988Y-134659213D01*
X105918000Y-134714309D01*
X105918000Y-131653280D01*
X105918000Y-130304540D01*
X105918000Y-130050540D01*
X105918000Y-128701800D01*
X105759250Y-128543050D01*
X104919201Y-128543050D01*
X104685812Y-128639723D01*
X104507183Y-128818351D01*
X104410510Y-129051740D01*
X104410510Y-129304359D01*
X104410510Y-129891790D01*
X104569260Y-130050540D01*
X105918000Y-130050540D01*
X105918000Y-130304540D01*
X104569260Y-130304540D01*
X104410510Y-130463290D01*
X104410510Y-131050721D01*
X104410510Y-131303340D01*
X104507183Y-131536729D01*
X104685812Y-131715357D01*
X104919201Y-131812030D01*
X105759250Y-131812030D01*
X105918000Y-131653280D01*
X105918000Y-134714309D01*
X105664799Y-134764675D01*
X105219253Y-135062378D01*
X105123857Y-135101796D01*
X105050162Y-135175362D01*
X104600690Y-135475690D01*
X103725690Y-136350690D01*
X103014675Y-137414798D01*
X103009800Y-137439306D01*
X103009800Y-128525600D01*
X102760125Y-127270398D01*
X102049110Y-126206290D01*
X99285810Y-123442990D01*
X99165000Y-123362267D01*
X99165000Y-121917500D01*
X98915325Y-120662298D01*
X98204310Y-119598190D01*
X97519774Y-119140797D01*
X97519774Y-106358846D01*
X97271462Y-105757885D01*
X96812073Y-105297694D01*
X96211547Y-105048334D01*
X95561306Y-105047766D01*
X94960345Y-105296078D01*
X94500154Y-105755467D01*
X94250794Y-106355993D01*
X94250226Y-107006234D01*
X94498538Y-107607195D01*
X94957927Y-108067386D01*
X95558453Y-108316746D01*
X96208694Y-108317314D01*
X96809655Y-108069002D01*
X97269846Y-107609613D01*
X97519206Y-107009087D01*
X97519774Y-106358846D01*
X97519774Y-119140797D01*
X97140202Y-118887175D01*
X95885000Y-118637500D01*
X95095687Y-118637500D01*
X95070525Y-118510998D01*
X94359510Y-117446890D01*
X92489310Y-115576690D01*
X91796625Y-115113852D01*
X91986133Y-114830235D01*
X92091603Y-114300000D01*
X91986133Y-113769765D01*
X91685779Y-113320254D01*
X91251383Y-113030000D01*
X91685779Y-112739746D01*
X91986133Y-112290235D01*
X92091603Y-111760000D01*
X91986133Y-111229765D01*
X91685779Y-110780254D01*
X91236268Y-110479900D01*
X90706033Y-110374430D01*
X89633967Y-110374430D01*
X89103732Y-110479900D01*
X88654221Y-110780254D01*
X88353867Y-111229765D01*
X88248397Y-111760000D01*
X88353867Y-112290235D01*
X88654221Y-112739746D01*
X89088616Y-113030000D01*
X88654221Y-113320254D01*
X88353867Y-113769765D01*
X88248397Y-114300000D01*
X88353867Y-114830235D01*
X88543374Y-115113852D01*
X87850690Y-115576690D01*
X87139675Y-116640798D01*
X86890000Y-117896000D01*
X87139675Y-119151202D01*
X87850690Y-120215310D01*
X88760200Y-121124820D01*
X88760200Y-121917500D01*
X89009875Y-123172702D01*
X89720890Y-124236810D01*
X90784998Y-124947825D01*
X92040200Y-125197500D01*
X92605000Y-125197500D01*
X92605000Y-125762300D01*
X92854675Y-127017502D01*
X93565690Y-128081610D01*
X94629798Y-128792625D01*
X94904131Y-128847193D01*
X94500154Y-129250467D01*
X94250794Y-129850993D01*
X94250226Y-130501234D01*
X94498538Y-131102195D01*
X94957927Y-131562386D01*
X95558453Y-131811746D01*
X96208694Y-131812314D01*
X96449800Y-131712691D01*
X96449800Y-136999280D01*
X93973296Y-139475783D01*
X93775195Y-139179305D01*
X93244958Y-138825011D01*
X92619500Y-138700600D01*
X91735321Y-138700600D01*
X91986133Y-138325235D01*
X92091603Y-137795000D01*
X91986133Y-137264765D01*
X91685779Y-136815254D01*
X91251383Y-136525000D01*
X91685779Y-136234746D01*
X91986133Y-135785235D01*
X92091603Y-135255000D01*
X91986133Y-134724765D01*
X91685779Y-134275254D01*
X91236268Y-133974900D01*
X90706033Y-133869430D01*
X89633967Y-133869430D01*
X89103732Y-133974900D01*
X88654221Y-134275254D01*
X88353867Y-134724765D01*
X88248397Y-135255000D01*
X88353867Y-135785235D01*
X88654221Y-136234746D01*
X89088616Y-136525000D01*
X88654221Y-136815254D01*
X88353867Y-137264765D01*
X88248397Y-137795000D01*
X88353867Y-138325235D01*
X88654221Y-138774746D01*
X89088616Y-139065000D01*
X88654221Y-139355254D01*
X88353867Y-139804765D01*
X88248397Y-140335000D01*
X88353867Y-140865235D01*
X88654221Y-141314746D01*
X89103732Y-141615100D01*
X89241503Y-141642504D01*
X89544542Y-141844989D01*
X90170000Y-141969400D01*
X90985100Y-141969400D01*
X90985100Y-142784500D01*
X91109511Y-143409958D01*
X91463805Y-143940195D01*
X92605000Y-145081390D01*
X92605000Y-146034931D01*
X92602500Y-146047500D01*
X92852175Y-147302702D01*
X93563190Y-148366810D01*
X93707148Y-148463000D01*
X83290000Y-148463000D01*
X83290000Y-142875000D01*
X83290000Y-139229700D01*
X83040325Y-137974498D01*
X82329310Y-136910390D01*
X79411500Y-133992580D01*
X79411500Y-123756997D01*
X79411599Y-123756500D01*
X79411592Y-123756469D01*
X79411600Y-123756434D01*
X79280914Y-123099501D01*
X79161925Y-122501299D01*
X79161906Y-122501271D01*
X79161900Y-122501238D01*
X78792757Y-121948800D01*
X78450910Y-121437190D01*
X78450883Y-121437172D01*
X78450864Y-121437143D01*
X77597462Y-120583775D01*
X77597462Y-110596828D01*
X77192291Y-109616239D01*
X76442707Y-108865345D01*
X75462827Y-108458464D01*
X74401828Y-108457538D01*
X73421239Y-108862709D01*
X72670345Y-109612293D01*
X72263464Y-110592173D01*
X72262538Y-111653172D01*
X72667709Y-112633761D01*
X73417293Y-113384655D01*
X74397173Y-113791536D01*
X75458172Y-113792462D01*
X76438761Y-113387291D01*
X77189655Y-112637707D01*
X77596536Y-111657827D01*
X77597462Y-110596828D01*
X77597462Y-120583775D01*
X75979263Y-118965643D01*
X74915140Y-118254649D01*
X73659934Y-118005000D01*
X72404737Y-118254700D01*
X71340643Y-118965737D01*
X70629649Y-120029860D01*
X70380000Y-121285066D01*
X70629700Y-122540263D01*
X71340737Y-123604357D01*
X72851500Y-125115058D01*
X72851500Y-135351200D01*
X73101175Y-136606402D01*
X73812190Y-137670510D01*
X76730000Y-140588320D01*
X76730000Y-142875000D01*
X76979675Y-144130202D01*
X77690690Y-145194310D01*
X78754798Y-145905325D01*
X80010000Y-146155000D01*
X81265202Y-145905325D01*
X82329310Y-145194310D01*
X83040325Y-144130202D01*
X83290000Y-142875000D01*
X83290000Y-148463000D01*
X71636699Y-148463000D01*
X71636699Y-126588300D01*
X71387025Y-125333099D01*
X70676010Y-124268990D01*
X69611901Y-123557975D01*
X68356700Y-123308301D01*
X67101498Y-123557975D01*
X66037389Y-124268990D01*
X59601379Y-130705000D01*
X57428900Y-130705000D01*
X56694756Y-130705000D01*
X57005325Y-130240202D01*
X57255000Y-128985000D01*
X57255000Y-125095000D01*
X57005325Y-123839798D01*
X56642454Y-123296723D01*
X56642454Y-114935000D01*
X56518713Y-114312910D01*
X56166327Y-113785527D01*
X55638944Y-113433141D01*
X55016854Y-113309400D01*
X52933146Y-113309400D01*
X52311056Y-113433141D01*
X51783673Y-113785527D01*
X51431287Y-114312910D01*
X51307546Y-114935000D01*
X51431287Y-115557090D01*
X51783673Y-116084473D01*
X52311056Y-116436859D01*
X52933146Y-116560600D01*
X55016854Y-116560600D01*
X55638944Y-116436859D01*
X56166327Y-116084473D01*
X56518713Y-115557090D01*
X56642454Y-114935000D01*
X56642454Y-123296723D01*
X56294310Y-122775690D01*
X55230202Y-122064675D01*
X53975000Y-121815000D01*
X53156594Y-121977790D01*
X51949402Y-120770598D01*
X51422052Y-120418234D01*
X50800000Y-120294500D01*
X50177948Y-120418234D01*
X49650598Y-120770598D01*
X49358124Y-121208315D01*
X49194188Y-121165417D01*
X49014583Y-121345022D01*
X49014583Y-120985812D01*
X48952929Y-120750200D01*
X48452520Y-120574073D01*
X47922801Y-120602852D01*
X47567071Y-120750200D01*
X47505417Y-120985812D01*
X48260000Y-121740395D01*
X49014583Y-120985812D01*
X49014583Y-121345022D01*
X48439605Y-121920000D01*
X49194188Y-122674583D01*
X49358124Y-122631684D01*
X49650598Y-123069402D01*
X50857790Y-124276594D01*
X50695000Y-125095000D01*
X50695000Y-128985000D01*
X50944675Y-130240202D01*
X51655690Y-131304310D01*
X51926111Y-131485000D01*
X51655690Y-131665690D01*
X50944675Y-132729798D01*
X50695000Y-133985000D01*
X50944675Y-135240202D01*
X51655690Y-136304310D01*
X52719798Y-137015325D01*
X53975000Y-137265000D01*
X57428900Y-137265000D01*
X57680000Y-137265000D01*
X57680000Y-138825000D01*
X57929675Y-140080202D01*
X58640690Y-141144310D01*
X62690690Y-145194310D01*
X63754799Y-145905325D01*
X65010000Y-146155000D01*
X66265202Y-145905325D01*
X67329310Y-145194310D01*
X68040325Y-144130202D01*
X68290000Y-142875000D01*
X68040325Y-141619799D01*
X67329310Y-140555690D01*
X64240000Y-137466380D01*
X64240000Y-135343620D01*
X70676010Y-128907611D01*
X71387025Y-127843502D01*
X71636699Y-126588300D01*
X71636699Y-148463000D01*
X53135294Y-148463000D01*
X53135294Y-143122108D01*
X53134705Y-141874928D01*
X52658564Y-140725421D01*
X52235880Y-140443725D01*
X52056275Y-140623330D01*
X52056275Y-140264120D01*
X51774579Y-139841436D01*
X50622108Y-139364706D01*
X49374928Y-139365295D01*
X49014583Y-139514554D01*
X49014583Y-122854188D01*
X48260000Y-122099605D01*
X48080395Y-122279210D01*
X48080395Y-121920000D01*
X47325812Y-121165417D01*
X47090200Y-121227071D01*
X46914073Y-121727480D01*
X46942852Y-122257199D01*
X47090200Y-122612929D01*
X47325812Y-122674583D01*
X48080395Y-121920000D01*
X48080395Y-122279210D01*
X47505417Y-122854188D01*
X47567071Y-123089800D01*
X48067480Y-123265927D01*
X48597199Y-123237148D01*
X48952929Y-123089800D01*
X49014583Y-122854188D01*
X49014583Y-139514554D01*
X48225421Y-139841436D01*
X47943725Y-140264120D01*
X50000000Y-142320395D01*
X52056275Y-140264120D01*
X52056275Y-140623330D01*
X50179605Y-142500000D01*
X52235880Y-144556275D01*
X52658564Y-144274579D01*
X53135294Y-143122108D01*
X53135294Y-148463000D01*
X52056275Y-148463000D01*
X52056275Y-144735880D01*
X50000000Y-142679605D01*
X49820395Y-142859210D01*
X49820395Y-142500000D01*
X47764120Y-140443725D01*
X47341436Y-140725421D01*
X46864706Y-141877892D01*
X46865295Y-143125072D01*
X47341436Y-144274579D01*
X47764120Y-144556275D01*
X49820395Y-142500000D01*
X49820395Y-142859210D01*
X47943725Y-144735880D01*
X48225421Y-145158564D01*
X49377892Y-145635294D01*
X50625072Y-145634705D01*
X51774579Y-145158564D01*
X52056275Y-144735880D01*
X52056275Y-148463000D01*
X46482000Y-148463000D01*
X46482000Y-42037000D01*
X188468000Y-42037000D01*
X188468000Y-148463000D01*
X188468000Y-148463000D01*
G37*
X188468000Y-148463000D02*
X188135294Y-148463000D01*
X188135294Y-143122108D01*
X188135294Y-48122108D01*
X188134705Y-46874928D01*
X187658564Y-45725421D01*
X187235880Y-45443725D01*
X187056275Y-45623330D01*
X187056275Y-45264120D01*
X186774579Y-44841436D01*
X185622108Y-44364706D01*
X184374928Y-44365295D01*
X183225421Y-44841436D01*
X182943725Y-45264120D01*
X185000000Y-47320395D01*
X187056275Y-45264120D01*
X187056275Y-45623330D01*
X185179605Y-47500000D01*
X187235880Y-49556275D01*
X187658564Y-49274579D01*
X188135294Y-48122108D01*
X188135294Y-143122108D01*
X188134705Y-141874928D01*
X187658564Y-140725421D01*
X187604464Y-140689366D01*
X187604464Y-102235000D01*
X187498800Y-101703793D01*
X187197896Y-101253458D01*
X186766187Y-100965000D01*
X187197896Y-100676542D01*
X187498800Y-100226207D01*
X187604464Y-99695000D01*
X187498800Y-99163793D01*
X187197896Y-98713458D01*
X187056275Y-98618829D01*
X187056275Y-49735880D01*
X185000000Y-47679605D01*
X184820395Y-47859210D01*
X184820395Y-47500000D01*
X182764120Y-45443725D01*
X182341436Y-45725421D01*
X181864706Y-46877892D01*
X181865295Y-48125072D01*
X182341436Y-49274579D01*
X182764120Y-49556275D01*
X184820395Y-47500000D01*
X184820395Y-47859210D01*
X182943725Y-49735880D01*
X183225421Y-50158564D01*
X184377892Y-50635294D01*
X185625072Y-50634705D01*
X186774579Y-50158564D01*
X187056275Y-49735880D01*
X187056275Y-98618829D01*
X186747561Y-98412554D01*
X186334464Y-98330383D01*
X186334464Y-55880000D01*
X186228800Y-55348793D01*
X185927896Y-54898458D01*
X185496187Y-54610000D01*
X185927896Y-54321542D01*
X186228800Y-53871207D01*
X186334464Y-53340000D01*
X186228800Y-52808793D01*
X185927896Y-52358458D01*
X185477561Y-52057554D01*
X184946354Y-51951890D01*
X183353646Y-51951890D01*
X182822439Y-52057554D01*
X182372104Y-52358458D01*
X182071200Y-52808793D01*
X181965536Y-53340000D01*
X182071200Y-53871207D01*
X182372104Y-54321542D01*
X182803812Y-54610000D01*
X182372104Y-54898458D01*
X182071200Y-55348793D01*
X181965536Y-55880000D01*
X182071200Y-56411207D01*
X182372104Y-56861542D01*
X182822439Y-57162446D01*
X183353646Y-57268110D01*
X184946354Y-57268110D01*
X185477561Y-57162446D01*
X185927896Y-56861542D01*
X186228800Y-56411207D01*
X186334464Y-55880000D01*
X186334464Y-98330383D01*
X186216354Y-98306890D01*
X186016464Y-98306890D01*
X186016464Y-94297500D01*
X186016464Y-87947500D01*
X186016464Y-79057500D01*
X186016464Y-72707500D01*
X186016464Y-66357500D01*
X186016464Y-60007500D01*
X185910800Y-59476293D01*
X185609896Y-59025958D01*
X185159561Y-58725054D01*
X184628354Y-58619390D01*
X183035646Y-58619390D01*
X182504439Y-58725054D01*
X182054104Y-59025958D01*
X181753200Y-59476293D01*
X181647536Y-60007500D01*
X181753200Y-60538707D01*
X182054104Y-60989042D01*
X182504439Y-61289946D01*
X182507305Y-61290516D01*
X182429081Y-61313654D01*
X182006276Y-61655760D01*
X181746573Y-62133625D01*
X181732217Y-62205826D01*
X181854838Y-62420500D01*
X183705000Y-62420500D01*
X183705000Y-62400500D01*
X183959000Y-62400500D01*
X183959000Y-62420500D01*
X185809162Y-62420500D01*
X185931783Y-62205826D01*
X185917427Y-62133625D01*
X185657724Y-61655760D01*
X185234919Y-61313654D01*
X185156694Y-61290516D01*
X185159561Y-61289946D01*
X185609896Y-60989042D01*
X185910800Y-60538707D01*
X186016464Y-60007500D01*
X186016464Y-66357500D01*
X185931783Y-65931781D01*
X185931783Y-62889174D01*
X185809162Y-62674500D01*
X183959000Y-62674500D01*
X183959000Y-63935610D01*
X184713380Y-63935610D01*
X185234919Y-63781346D01*
X185657724Y-63439240D01*
X185917427Y-62961375D01*
X185931783Y-62889174D01*
X185931783Y-65931781D01*
X185910800Y-65826293D01*
X185609896Y-65375958D01*
X185159561Y-65075054D01*
X184628354Y-64969390D01*
X183705000Y-64969390D01*
X183705000Y-63935610D01*
X183705000Y-62674500D01*
X181854838Y-62674500D01*
X181732217Y-62889174D01*
X181746573Y-62961375D01*
X182006276Y-63439240D01*
X182429081Y-63781346D01*
X182950620Y-63935610D01*
X183705000Y-63935610D01*
X183705000Y-64969390D01*
X183035646Y-64969390D01*
X182504439Y-65075054D01*
X182054104Y-65375958D01*
X181906074Y-65597500D01*
X176657201Y-65597500D01*
X176657201Y-49734829D01*
X176629230Y-49184552D01*
X176472460Y-48806077D01*
X176231517Y-48738088D01*
X176051912Y-48917693D01*
X176051912Y-48558483D01*
X175983923Y-48317540D01*
X175464829Y-48132799D01*
X174914552Y-48160770D01*
X174536077Y-48317540D01*
X174468088Y-48558483D01*
X175260000Y-49350395D01*
X176051912Y-48558483D01*
X176051912Y-48917693D01*
X175439605Y-49530000D01*
X176231517Y-50321912D01*
X176472460Y-50253923D01*
X176657201Y-49734829D01*
X176657201Y-65597500D01*
X176079554Y-65597500D01*
X176221867Y-65386670D01*
X176271930Y-65137030D01*
X176271930Y-63138050D01*
X176224953Y-62895927D01*
X176085163Y-62683123D01*
X175901572Y-62559196D01*
X175962148Y-62468539D01*
X176020000Y-62177700D01*
X176020000Y-58334547D01*
X176043515Y-58324831D01*
X176433461Y-57935564D01*
X176644759Y-57426702D01*
X176645240Y-56875715D01*
X176434831Y-56366485D01*
X176051912Y-55982898D01*
X176051912Y-50501517D01*
X175260000Y-49709605D01*
X175080395Y-49889210D01*
X175080395Y-49530000D01*
X174288483Y-48738088D01*
X174047540Y-48806077D01*
X173988268Y-48972621D01*
X173894831Y-48746485D01*
X173505564Y-48356539D01*
X172996702Y-48145241D01*
X172445715Y-48144760D01*
X171936485Y-48355169D01*
X171546539Y-48744436D01*
X171335241Y-49253298D01*
X171334760Y-49804285D01*
X171545169Y-50313515D01*
X171934436Y-50703461D01*
X172443298Y-50914759D01*
X172994285Y-50915240D01*
X173503515Y-50704831D01*
X173893461Y-50315564D01*
X173983377Y-50099021D01*
X174047540Y-50253923D01*
X174288483Y-50321912D01*
X175080395Y-49530000D01*
X175080395Y-49889210D01*
X174468088Y-50501517D01*
X174536077Y-50742460D01*
X175055171Y-50927201D01*
X175605448Y-50899230D01*
X175983923Y-50742460D01*
X176051912Y-50501517D01*
X176051912Y-55982898D01*
X176045564Y-55976539D01*
X175536702Y-55765241D01*
X174985715Y-55764760D01*
X174476485Y-55975169D01*
X174086539Y-56364436D01*
X173990023Y-56596870D01*
X173894831Y-56366485D01*
X173505564Y-55976539D01*
X172996702Y-55765241D01*
X172445715Y-55764760D01*
X171936485Y-55975169D01*
X171546539Y-56364436D01*
X171335241Y-56873298D01*
X171334760Y-57424285D01*
X171545169Y-57933515D01*
X171934436Y-58323461D01*
X172443298Y-58534759D01*
X172994285Y-58535240D01*
X173503515Y-58324831D01*
X173893461Y-57935564D01*
X173989976Y-57703129D01*
X174085169Y-57933515D01*
X174474436Y-58323461D01*
X174500000Y-58334076D01*
X174500000Y-61862898D01*
X174087599Y-62275299D01*
X173943733Y-62490610D01*
X173625510Y-62490610D01*
X173383387Y-62537587D01*
X173170583Y-62677377D01*
X173028133Y-62888410D01*
X172978070Y-63138050D01*
X172978070Y-65137030D01*
X173025047Y-65379153D01*
X173164837Y-65591957D01*
X173173048Y-65597500D01*
X169791802Y-65597500D01*
X169025240Y-64830938D01*
X169025240Y-56875715D01*
X169025240Y-49255715D01*
X168814831Y-48746485D01*
X168425564Y-48356539D01*
X167916702Y-48145241D01*
X167365715Y-48144760D01*
X166856485Y-48355169D01*
X166466539Y-48744436D01*
X166255241Y-49253298D01*
X166254760Y-49804285D01*
X166465169Y-50313515D01*
X166854436Y-50703461D01*
X167363298Y-50914759D01*
X167914285Y-50915240D01*
X168423515Y-50704831D01*
X168813461Y-50315564D01*
X169024759Y-49806702D01*
X169025240Y-49255715D01*
X169025240Y-56875715D01*
X168814831Y-56366485D01*
X168425564Y-55976539D01*
X167916702Y-55765241D01*
X167365715Y-55764760D01*
X166856485Y-55975169D01*
X166466539Y-56364436D01*
X166255241Y-56873298D01*
X166254760Y-57424285D01*
X166465169Y-57933515D01*
X166854436Y-58323461D01*
X167363298Y-58534759D01*
X167914285Y-58535240D01*
X168423515Y-58324831D01*
X168813461Y-57935564D01*
X169024759Y-57426702D01*
X169025240Y-56875715D01*
X169025240Y-64830938D01*
X162729450Y-58535148D01*
X162834285Y-58535240D01*
X163343515Y-58324831D01*
X163733461Y-57935564D01*
X163944759Y-57426702D01*
X163945240Y-56875715D01*
X163945240Y-49255715D01*
X163734831Y-48746485D01*
X163345564Y-48356539D01*
X162836702Y-48145241D01*
X162285715Y-48144760D01*
X161776485Y-48355169D01*
X161386539Y-48744436D01*
X161175241Y-49253298D01*
X161174760Y-49804285D01*
X161385169Y-50313515D01*
X161774436Y-50703461D01*
X162283298Y-50914759D01*
X162834285Y-50915240D01*
X163343515Y-50704831D01*
X163733461Y-50315564D01*
X163944759Y-49806702D01*
X163945240Y-49255715D01*
X163945240Y-56875715D01*
X163734831Y-56366485D01*
X163345564Y-55976539D01*
X162836702Y-55765241D01*
X162285715Y-55764760D01*
X161776485Y-55975169D01*
X161386539Y-56364436D01*
X161175241Y-56873298D01*
X161175147Y-56980845D01*
X158055001Y-53860699D01*
X157859470Y-53730049D01*
X157859470Y-50529490D01*
X157859470Y-48530510D01*
X157812493Y-48288387D01*
X157672703Y-48075583D01*
X157461670Y-47933133D01*
X157212030Y-47883070D01*
X155213050Y-47883070D01*
X154970927Y-47930047D01*
X154758123Y-48069837D01*
X154615673Y-48280870D01*
X154565610Y-48530510D01*
X154565610Y-50529490D01*
X154612587Y-50771613D01*
X154752377Y-50984417D01*
X154963410Y-51126867D01*
X155213050Y-51176930D01*
X157212030Y-51176930D01*
X157454153Y-51129953D01*
X157666957Y-50990163D01*
X157809407Y-50779130D01*
X157859470Y-50529490D01*
X157859470Y-53730049D01*
X157808439Y-53695952D01*
X157517600Y-53638100D01*
X73799500Y-53638100D01*
X73508661Y-53695952D01*
X73262099Y-53860699D01*
X72693428Y-54429369D01*
X72304151Y-54169263D01*
X71755000Y-54060030D01*
X71205849Y-54169263D01*
X70740302Y-54480332D01*
X70485000Y-54862417D01*
X70229698Y-54480332D01*
X69764151Y-54169263D01*
X69215000Y-54060030D01*
X68665849Y-54169263D01*
X68200302Y-54480332D01*
X67945000Y-54862417D01*
X67689698Y-54480332D01*
X67224151Y-54169263D01*
X66675000Y-54060030D01*
X66125849Y-54169263D01*
X65660302Y-54480332D01*
X65405000Y-54862417D01*
X65149698Y-54480332D01*
X64684151Y-54169263D01*
X64135000Y-54060030D01*
X63585849Y-54169263D01*
X63120302Y-54480332D01*
X62865000Y-54862417D01*
X62609698Y-54480332D01*
X62144151Y-54169263D01*
X61595000Y-54060030D01*
X61045849Y-54169263D01*
X60580302Y-54480332D01*
X60325000Y-54862417D01*
X60069698Y-54480332D01*
X59604151Y-54169263D01*
X59055000Y-54060030D01*
X58505849Y-54169263D01*
X58040302Y-54480332D01*
X57785000Y-54862417D01*
X57529698Y-54480332D01*
X57064151Y-54169263D01*
X56515000Y-54060030D01*
X55965849Y-54169263D01*
X55500302Y-54480332D01*
X55245000Y-54862417D01*
X54989698Y-54480332D01*
X54524151Y-54169263D01*
X53975000Y-54060030D01*
X53425849Y-54169263D01*
X53135294Y-54363405D01*
X53135294Y-48122108D01*
X53134705Y-46874928D01*
X52658564Y-45725421D01*
X52235880Y-45443725D01*
X52056275Y-45623330D01*
X52056275Y-45264120D01*
X51774579Y-44841436D01*
X50622108Y-44364706D01*
X49374928Y-44365295D01*
X48225421Y-44841436D01*
X47943725Y-45264120D01*
X50000000Y-47320395D01*
X52056275Y-45264120D01*
X52056275Y-45623330D01*
X50179605Y-47500000D01*
X52235880Y-49556275D01*
X52658564Y-49274579D01*
X53135294Y-48122108D01*
X53135294Y-54363405D01*
X52960302Y-54480332D01*
X52707850Y-54858151D01*
X52359896Y-54425500D01*
X52056275Y-54259324D01*
X52056275Y-49735880D01*
X50000000Y-47679605D01*
X49820395Y-47859210D01*
X49820395Y-47500000D01*
X47764120Y-45443725D01*
X47341436Y-45725421D01*
X46864706Y-46877892D01*
X46865295Y-48125072D01*
X47341436Y-49274579D01*
X47764120Y-49556275D01*
X49820395Y-47500000D01*
X49820395Y-47859210D01*
X47943725Y-49735880D01*
X48225421Y-50158564D01*
X49377892Y-50635294D01*
X50625072Y-50634705D01*
X51774579Y-50158564D01*
X52056275Y-49735880D01*
X52056275Y-54259324D01*
X51866819Y-54155633D01*
X51784039Y-54138096D01*
X51562000Y-54260085D01*
X51562000Y-55753000D01*
X51582000Y-55753000D01*
X51582000Y-56007000D01*
X51562000Y-56007000D01*
X51562000Y-57499915D01*
X51784039Y-57621904D01*
X51866819Y-57604367D01*
X52359896Y-57334500D01*
X52707850Y-56901848D01*
X52960302Y-57279668D01*
X53425849Y-57590737D01*
X53975000Y-57699970D01*
X54524151Y-57590737D01*
X54989698Y-57279668D01*
X55245000Y-56897582D01*
X55500302Y-57279668D01*
X55965849Y-57590737D01*
X56515000Y-57699970D01*
X57064151Y-57590737D01*
X57529698Y-57279668D01*
X57785000Y-56897582D01*
X58040302Y-57279668D01*
X58505849Y-57590737D01*
X59055000Y-57699970D01*
X59604151Y-57590737D01*
X60069698Y-57279668D01*
X60325000Y-56897582D01*
X60580302Y-57279668D01*
X61045849Y-57590737D01*
X61595000Y-57699970D01*
X62144151Y-57590737D01*
X62609698Y-57279668D01*
X62865000Y-56897582D01*
X63120302Y-57279668D01*
X63585849Y-57590737D01*
X64135000Y-57699970D01*
X64684151Y-57590737D01*
X65149698Y-57279668D01*
X65405000Y-56897582D01*
X65660302Y-57279668D01*
X66125849Y-57590737D01*
X66675000Y-57699970D01*
X67224151Y-57590737D01*
X67689698Y-57279668D01*
X67945000Y-56897582D01*
X68200302Y-57279668D01*
X68665849Y-57590737D01*
X69215000Y-57699970D01*
X69764151Y-57590737D01*
X70229698Y-57279668D01*
X70485000Y-56897582D01*
X70740302Y-57279668D01*
X71205849Y-57590737D01*
X71755000Y-57699970D01*
X72304151Y-57590737D01*
X72769698Y-57279668D01*
X73025000Y-56897582D01*
X73280302Y-57279668D01*
X73745849Y-57590737D01*
X74295000Y-57699970D01*
X74302649Y-57698448D01*
X69947599Y-62053499D01*
X69782852Y-62300061D01*
X69725000Y-62590900D01*
X69725000Y-69401475D01*
X69215000Y-69300030D01*
X68665849Y-69409263D01*
X68200302Y-69720332D01*
X67945000Y-70102417D01*
X67689698Y-69720332D01*
X67224151Y-69409263D01*
X66675000Y-69300030D01*
X66125849Y-69409263D01*
X65660302Y-69720332D01*
X65405000Y-70102417D01*
X65149698Y-69720332D01*
X64684151Y-69409263D01*
X64135000Y-69300030D01*
X63585849Y-69409263D01*
X63120302Y-69720332D01*
X62865000Y-70102417D01*
X62609698Y-69720332D01*
X62144151Y-69409263D01*
X61595000Y-69300030D01*
X61045849Y-69409263D01*
X60580302Y-69720332D01*
X60325000Y-70102417D01*
X60069698Y-69720332D01*
X59604151Y-69409263D01*
X59055000Y-69300030D01*
X58505849Y-69409263D01*
X58040302Y-69720332D01*
X57787850Y-70098151D01*
X57439896Y-69665500D01*
X56946819Y-69395633D01*
X56864039Y-69378096D01*
X56642000Y-69500085D01*
X56642000Y-70993000D01*
X56662000Y-70993000D01*
X56662000Y-71247000D01*
X56642000Y-71247000D01*
X56642000Y-72739915D01*
X56864039Y-72861904D01*
X56946819Y-72844367D01*
X57439896Y-72574500D01*
X57787850Y-72141848D01*
X58040302Y-72519668D01*
X58505849Y-72830737D01*
X59055000Y-72939970D01*
X59604151Y-72830737D01*
X60069698Y-72519668D01*
X60325000Y-72137582D01*
X60580302Y-72519668D01*
X61045849Y-72830737D01*
X61595000Y-72939970D01*
X62144151Y-72830737D01*
X62609698Y-72519668D01*
X62865000Y-72137582D01*
X63120302Y-72519668D01*
X63585849Y-72830737D01*
X64135000Y-72939970D01*
X64684151Y-72830737D01*
X65149698Y-72519668D01*
X65405000Y-72137582D01*
X65660302Y-72519668D01*
X66125849Y-72830737D01*
X66675000Y-72939970D01*
X67224151Y-72830737D01*
X67689698Y-72519668D01*
X67945000Y-72137582D01*
X68200302Y-72519668D01*
X68455000Y-72689852D01*
X68455000Y-79060198D01*
X66310514Y-81204683D01*
X66308951Y-81204034D01*
X65773399Y-81203566D01*
X65278435Y-81408081D01*
X64899412Y-81786443D01*
X64694034Y-82281049D01*
X64693566Y-82816601D01*
X64898081Y-83311565D01*
X65276443Y-83690588D01*
X65771049Y-83895966D01*
X66306601Y-83896434D01*
X66801565Y-83691919D01*
X67180588Y-83313557D01*
X67385966Y-82818951D01*
X67386434Y-82283399D01*
X67384963Y-82279838D01*
X69725000Y-79939802D01*
X69725000Y-94845698D01*
X64359720Y-100210977D01*
X64314233Y-100210938D01*
X63970457Y-100352983D01*
X63707208Y-100615773D01*
X63564562Y-100959301D01*
X63564238Y-101331267D01*
X63706283Y-101675043D01*
X63969073Y-101938292D01*
X64312601Y-102080938D01*
X64684567Y-102081262D01*
X65028343Y-101939217D01*
X65291592Y-101676427D01*
X65434238Y-101332899D01*
X65434278Y-101286023D01*
X70995000Y-95725302D01*
X70995000Y-99292700D01*
X71052852Y-99583539D01*
X71217599Y-99830101D01*
X73564698Y-102177200D01*
X59766200Y-102177200D01*
X59766200Y-83387510D01*
X59766200Y-83134891D01*
X59766200Y-82835750D01*
X59766200Y-82264250D01*
X59766200Y-81965109D01*
X59766200Y-81712490D01*
X59669527Y-81479101D01*
X59490898Y-81300473D01*
X59257509Y-81203800D01*
X58705750Y-81203800D01*
X58547000Y-81362550D01*
X58547000Y-82423000D01*
X59607450Y-82423000D01*
X59766200Y-82264250D01*
X59766200Y-82835750D01*
X59607450Y-82677000D01*
X58547000Y-82677000D01*
X58547000Y-83737450D01*
X58705750Y-83896200D01*
X59257509Y-83896200D01*
X59490898Y-83799527D01*
X59669527Y-83620899D01*
X59766200Y-83387510D01*
X59766200Y-102177200D01*
X58293000Y-102177200D01*
X58293000Y-83737450D01*
X58293000Y-82677000D01*
X58293000Y-82423000D01*
X58293000Y-81362550D01*
X58134250Y-81203800D01*
X57582491Y-81203800D01*
X57349102Y-81300473D01*
X57170473Y-81479101D01*
X57073800Y-81712490D01*
X57073800Y-81965109D01*
X57073800Y-82264250D01*
X57232550Y-82423000D01*
X58293000Y-82423000D01*
X58293000Y-82677000D01*
X57232550Y-82677000D01*
X57073800Y-82835750D01*
X57073800Y-83134891D01*
X57073800Y-83387510D01*
X57170473Y-83620899D01*
X57349102Y-83799527D01*
X57582491Y-83896200D01*
X58134250Y-83896200D01*
X58293000Y-83737450D01*
X58293000Y-102177200D01*
X55736502Y-102177200D01*
X55256901Y-101697599D01*
X55172497Y-101641202D01*
X55106146Y-101480620D01*
X54731353Y-101105173D01*
X54241413Y-100901732D01*
X53716075Y-100901273D01*
X50780300Y-97965498D01*
X50780300Y-72760211D01*
X50885849Y-72830737D01*
X51435000Y-72939970D01*
X51984151Y-72830737D01*
X52449698Y-72519668D01*
X52705000Y-72137582D01*
X52960302Y-72519668D01*
X53425849Y-72830737D01*
X53975000Y-72939970D01*
X54524151Y-72830737D01*
X54989698Y-72519668D01*
X55242149Y-72141848D01*
X55590104Y-72574500D01*
X56083181Y-72844367D01*
X56165961Y-72861904D01*
X56388000Y-72739915D01*
X56388000Y-71247000D01*
X56368000Y-71247000D01*
X56368000Y-70993000D01*
X56388000Y-70993000D01*
X56388000Y-69500085D01*
X56165961Y-69378096D01*
X56083181Y-69395633D01*
X55590104Y-69665500D01*
X55242149Y-70098151D01*
X54989698Y-69720332D01*
X54524151Y-69409263D01*
X53975000Y-69300030D01*
X53425849Y-69409263D01*
X52960302Y-69720332D01*
X52705000Y-70102417D01*
X52449698Y-69720332D01*
X51984151Y-69409263D01*
X51435000Y-69300030D01*
X50885849Y-69409263D01*
X50780300Y-69479788D01*
X50780300Y-57482381D01*
X51003181Y-57604367D01*
X51085961Y-57621904D01*
X51308000Y-57499915D01*
X51308000Y-56007000D01*
X51288000Y-56007000D01*
X51288000Y-55753000D01*
X51308000Y-55753000D01*
X51308000Y-54260085D01*
X51085961Y-54138096D01*
X51003181Y-54155633D01*
X50510104Y-54425500D01*
X50162149Y-54858151D01*
X49909698Y-54480332D01*
X49444151Y-54169263D01*
X48895000Y-54060030D01*
X48345849Y-54169263D01*
X47880302Y-54480332D01*
X47569233Y-54945879D01*
X47460000Y-55495030D01*
X47460000Y-56264970D01*
X47569233Y-56814121D01*
X47880302Y-57279668D01*
X48345849Y-57590737D01*
X48895000Y-57699970D01*
X49260300Y-57627307D01*
X49260300Y-69372692D01*
X48895000Y-69300030D01*
X48345849Y-69409263D01*
X47880302Y-69720332D01*
X47569233Y-70185879D01*
X47460000Y-70735030D01*
X47460000Y-71504970D01*
X47569233Y-72054121D01*
X47880302Y-72519668D01*
X48345849Y-72830737D01*
X48895000Y-72939970D01*
X49260300Y-72867307D01*
X49260300Y-98280300D01*
X49318152Y-98571139D01*
X49482899Y-98817701D01*
X52641725Y-101976527D01*
X52641269Y-102499086D01*
X52742528Y-102744153D01*
X52719798Y-102748675D01*
X51655690Y-103459690D01*
X50944675Y-104523798D01*
X50695000Y-105779000D01*
X50695000Y-109935000D01*
X50944675Y-111190202D01*
X51655690Y-112254310D01*
X52719798Y-112965325D01*
X53975000Y-113215000D01*
X55230202Y-112965325D01*
X56294310Y-112254310D01*
X57005325Y-111190202D01*
X57255000Y-109935000D01*
X57255000Y-105779000D01*
X57005325Y-104523798D01*
X56453009Y-103697200D01*
X83190100Y-103697200D01*
X83480939Y-103639348D01*
X83727501Y-103474601D01*
X84786512Y-102415589D01*
X85175849Y-102675737D01*
X85725000Y-102784970D01*
X86274151Y-102675737D01*
X86739698Y-102364668D01*
X86995000Y-101982582D01*
X87250302Y-102364668D01*
X87715849Y-102675737D01*
X88265000Y-102784970D01*
X88814151Y-102675737D01*
X89279698Y-102364668D01*
X89535000Y-101982582D01*
X89790302Y-102364668D01*
X90255849Y-102675737D01*
X90805000Y-102784970D01*
X91354151Y-102675737D01*
X91819698Y-102364668D01*
X92075000Y-101982582D01*
X92330302Y-102364668D01*
X92795849Y-102675737D01*
X93345000Y-102784970D01*
X93894151Y-102675737D01*
X94359698Y-102364668D01*
X94670767Y-101899121D01*
X94715087Y-101676308D01*
X94761139Y-101667148D01*
X95007701Y-101502401D01*
X95172448Y-101255839D01*
X95230300Y-100965000D01*
X95230300Y-88635211D01*
X95335849Y-88705737D01*
X95885000Y-88814970D01*
X96434151Y-88705737D01*
X96899698Y-88394668D01*
X97210767Y-87929121D01*
X97320000Y-87379970D01*
X97320000Y-86610030D01*
X97210767Y-86060879D01*
X96899698Y-85595332D01*
X96434151Y-85284263D01*
X95885000Y-85175030D01*
X95872981Y-85177420D01*
X98107284Y-82943117D01*
X98156673Y-82992592D01*
X98500201Y-83135238D01*
X98547076Y-83135278D01*
X107190000Y-91778202D01*
X107190000Y-94950147D01*
X106935302Y-95120332D01*
X106624233Y-95585879D01*
X106515000Y-96135030D01*
X106515000Y-96904970D01*
X106584048Y-97252100D01*
X102389602Y-97252100D01*
X102311292Y-97173790D01*
X102491740Y-97075724D01*
X102833846Y-96652919D01*
X102988110Y-96131380D01*
X102988110Y-95377000D01*
X102988110Y-95123000D01*
X102988110Y-94368620D01*
X102833846Y-93847081D01*
X102491740Y-93424276D01*
X102013875Y-93164573D01*
X101941674Y-93150217D01*
X101727000Y-93272838D01*
X101727000Y-95123000D01*
X102988110Y-95123000D01*
X102988110Y-95377000D01*
X101727000Y-95377000D01*
X101727000Y-95397000D01*
X101473000Y-95397000D01*
X101473000Y-95377000D01*
X101453000Y-95377000D01*
X101453000Y-95123000D01*
X101473000Y-95123000D01*
X101473000Y-93272838D01*
X101258326Y-93150217D01*
X101186125Y-93164573D01*
X100708260Y-93424276D01*
X100366154Y-93847081D01*
X100343016Y-93925305D01*
X100342446Y-93922439D01*
X100041542Y-93472104D01*
X99591207Y-93171200D01*
X99060000Y-93065536D01*
X98528793Y-93171200D01*
X98078458Y-93472104D01*
X97777554Y-93922439D01*
X97671890Y-94453646D01*
X97671890Y-96046354D01*
X97777554Y-96577561D01*
X98078458Y-97027896D01*
X98528793Y-97328800D01*
X99060000Y-97434464D01*
X99591207Y-97328800D01*
X100026107Y-97038209D01*
X101537399Y-98549501D01*
X101783961Y-98714248D01*
X102074800Y-98772100D01*
X110961900Y-98772100D01*
X111252739Y-98714248D01*
X111499301Y-98549501D01*
X112083539Y-97965262D01*
X112480849Y-98230737D01*
X113030000Y-98339970D01*
X113579151Y-98230737D01*
X114044698Y-97919668D01*
X114297149Y-97541848D01*
X114645104Y-97974500D01*
X115138181Y-98244367D01*
X115220961Y-98261904D01*
X115443000Y-98139915D01*
X115443000Y-96647000D01*
X115423000Y-96647000D01*
X115423000Y-96393000D01*
X115443000Y-96393000D01*
X115443000Y-94900085D01*
X115220961Y-94778096D01*
X115138181Y-94795633D01*
X114915300Y-94917618D01*
X114915300Y-90502381D01*
X115138181Y-90624367D01*
X115220961Y-90641904D01*
X115443000Y-90519915D01*
X115443000Y-89027000D01*
X115423000Y-89027000D01*
X115423000Y-88773000D01*
X115443000Y-88773000D01*
X115443000Y-87280085D01*
X115220961Y-87158096D01*
X115138181Y-87175633D01*
X114915300Y-87297618D01*
X114915300Y-80556502D01*
X125960527Y-69511274D01*
X126125352Y-69579716D01*
X126775795Y-69580284D01*
X127376943Y-69331894D01*
X127793751Y-68915813D01*
X127799468Y-68917927D01*
X128772395Y-67945000D01*
X127799468Y-66972073D01*
X127793278Y-66974361D01*
X127379363Y-66559722D01*
X126778648Y-66310284D01*
X126128205Y-66309716D01*
X125527057Y-66558106D01*
X125201835Y-66882759D01*
X124879363Y-66559722D01*
X124278648Y-66310284D01*
X123628205Y-66309716D01*
X123027057Y-66558106D01*
X122701835Y-66882759D01*
X122379363Y-66559722D01*
X121778648Y-66310284D01*
X121128205Y-66309716D01*
X120527057Y-66558106D01*
X120110248Y-66974186D01*
X120104532Y-66972073D01*
X119924927Y-67151678D01*
X119924927Y-66792468D01*
X119826264Y-66525613D01*
X119216539Y-66299092D01*
X118566540Y-66323144D01*
X118077736Y-66525613D01*
X117979073Y-66792468D01*
X118952000Y-67765395D01*
X119924927Y-66792468D01*
X119924927Y-67151678D01*
X119131605Y-67945000D01*
X120104532Y-68917927D01*
X120110721Y-68915638D01*
X120524637Y-69330278D01*
X121125352Y-69579716D01*
X121242379Y-69579818D01*
X119924927Y-70897270D01*
X119924927Y-69097532D01*
X118952000Y-68124605D01*
X117979073Y-69097532D01*
X118077736Y-69364387D01*
X118687461Y-69590908D01*
X119337460Y-69566856D01*
X119826264Y-69364387D01*
X119924927Y-69097532D01*
X119924927Y-70897270D01*
X117212000Y-73610198D01*
X117212000Y-69400047D01*
X117376943Y-69331894D01*
X117793751Y-68915813D01*
X117799468Y-68917927D01*
X118772395Y-67945000D01*
X117799468Y-66972073D01*
X117793278Y-66974361D01*
X117379363Y-66559722D01*
X116778648Y-66310284D01*
X116128205Y-66309716D01*
X115527057Y-66558106D01*
X115066722Y-67017637D01*
X114817284Y-67618352D01*
X114816716Y-68268795D01*
X115065106Y-68869943D01*
X115524637Y-69330278D01*
X115692000Y-69399773D01*
X115692000Y-74136787D01*
X115431357Y-74244483D01*
X115168108Y-74507273D01*
X115025462Y-74850801D01*
X115025138Y-75222767D01*
X115167183Y-75566543D01*
X115211380Y-75610817D01*
X109921398Y-80900800D01*
X109679502Y-80900800D01*
X105589101Y-76810399D01*
X105342539Y-76645652D01*
X105051700Y-76587800D01*
X93646500Y-76587800D01*
X93646500Y-63186200D01*
X93588648Y-62895361D01*
X93423901Y-62648799D01*
X86117701Y-55342599D01*
X85871139Y-55177852D01*
X85825087Y-55168691D01*
X85822980Y-55158100D01*
X157202798Y-55158100D01*
X164547819Y-62503121D01*
X164141306Y-62502766D01*
X163540345Y-62751078D01*
X163080154Y-63210467D01*
X162830794Y-63810993D01*
X162830226Y-64461234D01*
X163078538Y-65062195D01*
X163537927Y-65522386D01*
X164138453Y-65771746D01*
X164788694Y-65772314D01*
X165389655Y-65524002D01*
X165849846Y-65064613D01*
X166099206Y-64464087D01*
X166099563Y-64054865D01*
X168939599Y-66894901D01*
X169186161Y-67059648D01*
X169477000Y-67117500D01*
X181906074Y-67117500D01*
X182054104Y-67339042D01*
X182504439Y-67639946D01*
X182507305Y-67640516D01*
X182429081Y-67663654D01*
X182006276Y-68005760D01*
X181746573Y-68483625D01*
X181732217Y-68555826D01*
X181854838Y-68770500D01*
X183705000Y-68770500D01*
X183705000Y-68750500D01*
X183959000Y-68750500D01*
X183959000Y-68770500D01*
X185809162Y-68770500D01*
X185931783Y-68555826D01*
X185917427Y-68483625D01*
X185657724Y-68005760D01*
X185234919Y-67663654D01*
X185156694Y-67640516D01*
X185159561Y-67639946D01*
X185609896Y-67339042D01*
X185910800Y-66888707D01*
X186016464Y-66357500D01*
X186016464Y-72707500D01*
X185931783Y-72281781D01*
X185931783Y-69239174D01*
X185809162Y-69024500D01*
X183959000Y-69024500D01*
X183959000Y-70285610D01*
X184713380Y-70285610D01*
X185234919Y-70131346D01*
X185657724Y-69789240D01*
X185917427Y-69311375D01*
X185931783Y-69239174D01*
X185931783Y-72281781D01*
X185910800Y-72176293D01*
X185609896Y-71725958D01*
X185159561Y-71425054D01*
X184628354Y-71319390D01*
X183705000Y-71319390D01*
X183705000Y-70285610D01*
X183705000Y-69024500D01*
X181854838Y-69024500D01*
X181732217Y-69239174D01*
X181746573Y-69311375D01*
X182006276Y-69789240D01*
X182429081Y-70131346D01*
X182950620Y-70285610D01*
X183705000Y-70285610D01*
X183705000Y-71319390D01*
X183035646Y-71319390D01*
X182504439Y-71425054D01*
X182054104Y-71725958D01*
X181753200Y-72176293D01*
X181647536Y-72707500D01*
X181753200Y-73238707D01*
X182054104Y-73689042D01*
X182504439Y-73989946D01*
X182507305Y-73990516D01*
X182429081Y-74013654D01*
X182006276Y-74355760D01*
X181746573Y-74833625D01*
X181732217Y-74905826D01*
X181854838Y-75120500D01*
X183705000Y-75120500D01*
X183705000Y-75100500D01*
X183959000Y-75100500D01*
X183959000Y-75120500D01*
X185809162Y-75120500D01*
X185931783Y-74905826D01*
X185917427Y-74833625D01*
X185657724Y-74355760D01*
X185234919Y-74013654D01*
X185156694Y-73990516D01*
X185159561Y-73989946D01*
X185609896Y-73689042D01*
X185910800Y-73238707D01*
X186016464Y-72707500D01*
X186016464Y-79057500D01*
X185931783Y-78631781D01*
X185931783Y-75589174D01*
X185809162Y-75374500D01*
X183959000Y-75374500D01*
X183959000Y-76635610D01*
X184713380Y-76635610D01*
X185234919Y-76481346D01*
X185657724Y-76139240D01*
X185917427Y-75661375D01*
X185931783Y-75589174D01*
X185931783Y-78631781D01*
X185910800Y-78526293D01*
X185609896Y-78075958D01*
X185159561Y-77775054D01*
X184628354Y-77669390D01*
X183705000Y-77669390D01*
X183705000Y-76635610D01*
X183705000Y-75374500D01*
X181854838Y-75374500D01*
X181732217Y-75589174D01*
X181746573Y-75661375D01*
X182006276Y-76139240D01*
X182429081Y-76481346D01*
X182950620Y-76635610D01*
X183705000Y-76635610D01*
X183705000Y-77669390D01*
X183035646Y-77669390D01*
X182504439Y-77775054D01*
X182054104Y-78075958D01*
X181753200Y-78526293D01*
X181647536Y-79057500D01*
X181753200Y-79588707D01*
X182054104Y-80039042D01*
X182504439Y-80339946D01*
X182507305Y-80340516D01*
X182429081Y-80363654D01*
X182006276Y-80705760D01*
X181746573Y-81183625D01*
X181732217Y-81255826D01*
X181854838Y-81470500D01*
X183705000Y-81470500D01*
X183705000Y-81450500D01*
X183959000Y-81450500D01*
X183959000Y-81470500D01*
X185809162Y-81470500D01*
X185931783Y-81255826D01*
X185917427Y-81183625D01*
X185657724Y-80705760D01*
X185234919Y-80363654D01*
X185156694Y-80340516D01*
X185159561Y-80339946D01*
X185609896Y-80039042D01*
X185910800Y-79588707D01*
X186016464Y-79057500D01*
X186016464Y-87947500D01*
X185910800Y-87416293D01*
X185609896Y-86965958D01*
X185159561Y-86665054D01*
X185156694Y-86664483D01*
X185234919Y-86641346D01*
X185657724Y-86299240D01*
X185917427Y-85821375D01*
X185931783Y-85749174D01*
X185931783Y-85065826D01*
X185931783Y-81939174D01*
X185809162Y-81724500D01*
X183959000Y-81724500D01*
X183959000Y-82985610D01*
X184713380Y-82985610D01*
X185234919Y-82831346D01*
X185657724Y-82489240D01*
X185917427Y-82011375D01*
X185931783Y-81939174D01*
X185931783Y-85065826D01*
X185917427Y-84993625D01*
X185657724Y-84515760D01*
X185234919Y-84173654D01*
X184713380Y-84019390D01*
X183959000Y-84019390D01*
X183959000Y-85280500D01*
X185809162Y-85280500D01*
X185931783Y-85065826D01*
X185931783Y-85749174D01*
X185809162Y-85534500D01*
X183959000Y-85534500D01*
X183959000Y-85554500D01*
X183705000Y-85554500D01*
X183705000Y-85534500D01*
X183705000Y-85280500D01*
X183705000Y-84019390D01*
X183705000Y-82985610D01*
X183705000Y-81724500D01*
X181854838Y-81724500D01*
X181732217Y-81939174D01*
X181746573Y-82011375D01*
X182006276Y-82489240D01*
X182429081Y-82831346D01*
X182950620Y-82985610D01*
X183705000Y-82985610D01*
X183705000Y-84019390D01*
X182950620Y-84019390D01*
X182429081Y-84173654D01*
X182006276Y-84515760D01*
X181746573Y-84993625D01*
X181732217Y-85065826D01*
X181854838Y-85280500D01*
X183705000Y-85280500D01*
X183705000Y-85534500D01*
X181854838Y-85534500D01*
X181732217Y-85749174D01*
X181746573Y-85821375D01*
X182006276Y-86299240D01*
X182429081Y-86641346D01*
X182507305Y-86664483D01*
X182504439Y-86665054D01*
X182054104Y-86965958D01*
X181753200Y-87416293D01*
X181647536Y-87947500D01*
X181753200Y-88478707D01*
X182054104Y-88929042D01*
X182504439Y-89229946D01*
X183035646Y-89335610D01*
X184628354Y-89335610D01*
X185159561Y-89229946D01*
X185609896Y-88929042D01*
X185910800Y-88478707D01*
X186016464Y-87947500D01*
X186016464Y-94297500D01*
X185910800Y-93766293D01*
X185609896Y-93315958D01*
X185159561Y-93015054D01*
X185156694Y-93014483D01*
X185234919Y-92991346D01*
X185657724Y-92649240D01*
X185917427Y-92171375D01*
X185931783Y-92099174D01*
X185931783Y-91415826D01*
X185917427Y-91343625D01*
X185657724Y-90865760D01*
X185234919Y-90523654D01*
X184713380Y-90369390D01*
X183959000Y-90369390D01*
X183959000Y-91630500D01*
X185809162Y-91630500D01*
X185931783Y-91415826D01*
X185931783Y-92099174D01*
X185809162Y-91884500D01*
X183959000Y-91884500D01*
X183959000Y-91904500D01*
X183705000Y-91904500D01*
X183705000Y-91884500D01*
X183705000Y-91630500D01*
X183705000Y-90369390D01*
X182950620Y-90369390D01*
X182429081Y-90523654D01*
X182006276Y-90865760D01*
X181746573Y-91343625D01*
X181732217Y-91415826D01*
X181854838Y-91630500D01*
X183705000Y-91630500D01*
X183705000Y-91884500D01*
X181854838Y-91884500D01*
X181732217Y-92099174D01*
X181746573Y-92171375D01*
X182006276Y-92649240D01*
X182429081Y-92991346D01*
X182507305Y-93014483D01*
X182504439Y-93015054D01*
X182054104Y-93315958D01*
X181753200Y-93766293D01*
X181647536Y-94297500D01*
X181753200Y-94828707D01*
X182054104Y-95279042D01*
X182504439Y-95579946D01*
X183035646Y-95685610D01*
X184628354Y-95685610D01*
X185159561Y-95579946D01*
X185609896Y-95279042D01*
X185910800Y-94828707D01*
X186016464Y-94297500D01*
X186016464Y-98306890D01*
X184623646Y-98306890D01*
X184092439Y-98412554D01*
X183642104Y-98713458D01*
X183341200Y-99163793D01*
X183235536Y-99695000D01*
X183341200Y-100226207D01*
X183642104Y-100676542D01*
X184073812Y-100965000D01*
X183642104Y-101253458D01*
X183341200Y-101703793D01*
X183235536Y-102235000D01*
X183341200Y-102766207D01*
X183642104Y-103216542D01*
X184092439Y-103517446D01*
X184623646Y-103623110D01*
X186216354Y-103623110D01*
X186747561Y-103517446D01*
X187197896Y-103216542D01*
X187498800Y-102766207D01*
X187604464Y-102235000D01*
X187604464Y-140689366D01*
X187235880Y-140443725D01*
X187056275Y-140623330D01*
X187056275Y-140264120D01*
X186774579Y-139841436D01*
X185622108Y-139364706D01*
X185547454Y-139364741D01*
X185547454Y-130095000D01*
X185547454Y-125095000D01*
X185423713Y-124472910D01*
X185071327Y-123945527D01*
X184543944Y-123593141D01*
X183921854Y-123469400D01*
X183640000Y-123469400D01*
X183640000Y-118385600D01*
X183921854Y-118385600D01*
X184543944Y-118261859D01*
X185071327Y-117909473D01*
X185423713Y-117382090D01*
X185547454Y-116760000D01*
X185423713Y-116137910D01*
X185071327Y-115610527D01*
X184543944Y-115258141D01*
X183921854Y-115134400D01*
X181896302Y-115134400D01*
X183417401Y-113613301D01*
X183569545Y-113385600D01*
X183921854Y-113385600D01*
X184543944Y-113261859D01*
X185071327Y-112909473D01*
X185423713Y-112382090D01*
X185547454Y-111760000D01*
X185423713Y-111137910D01*
X185071327Y-110610527D01*
X184543944Y-110258141D01*
X183921854Y-110134400D01*
X181838146Y-110134400D01*
X181216056Y-110258141D01*
X180688673Y-110610527D01*
X180336287Y-111137910D01*
X180212546Y-111760000D01*
X180336287Y-112382090D01*
X180688673Y-112909473D01*
X181216056Y-113261859D01*
X181552346Y-113328751D01*
X173799462Y-121081635D01*
X173799462Y-118533828D01*
X173394291Y-117553239D01*
X172644707Y-116802345D01*
X171664827Y-116395464D01*
X170603828Y-116394538D01*
X169623239Y-116799709D01*
X168872345Y-117549293D01*
X168465464Y-118529173D01*
X168464538Y-119590172D01*
X168869709Y-120570761D01*
X169619293Y-121321655D01*
X170599173Y-121728536D01*
X171660172Y-121729462D01*
X172640761Y-121324291D01*
X173391655Y-120574707D01*
X173798536Y-119594827D01*
X173799462Y-118533828D01*
X173799462Y-121081635D01*
X170594599Y-124286499D01*
X170429852Y-124533061D01*
X170372000Y-124823900D01*
X170372000Y-131730327D01*
X169623239Y-132039709D01*
X168872345Y-132789293D01*
X168465464Y-133769173D01*
X168464538Y-134830172D01*
X168869709Y-135810761D01*
X169619293Y-136561655D01*
X170599173Y-136968536D01*
X171660172Y-136969462D01*
X172640761Y-136564291D01*
X173391655Y-135814707D01*
X173798536Y-134834827D01*
X173799462Y-133773828D01*
X173394291Y-132793239D01*
X172644707Y-132042345D01*
X171892000Y-131729794D01*
X171892000Y-125138702D01*
X180222194Y-116808507D01*
X180336287Y-117382090D01*
X180688673Y-117909473D01*
X181216056Y-118261859D01*
X181838146Y-118385600D01*
X182120000Y-118385600D01*
X182120000Y-123469400D01*
X181838146Y-123469400D01*
X181216056Y-123593141D01*
X180688673Y-123945527D01*
X180336287Y-124472910D01*
X180212546Y-125095000D01*
X180336287Y-125717090D01*
X180688673Y-126244473D01*
X181216056Y-126596859D01*
X181838146Y-126720600D01*
X183921854Y-126720600D01*
X184543944Y-126596859D01*
X185071327Y-126244473D01*
X185423713Y-125717090D01*
X185547454Y-125095000D01*
X185547454Y-130095000D01*
X185423713Y-129472910D01*
X185071327Y-128945527D01*
X184543944Y-128593141D01*
X183921854Y-128469400D01*
X181838146Y-128469400D01*
X181216056Y-128593141D01*
X180688673Y-128945527D01*
X180336287Y-129472910D01*
X180212546Y-130095000D01*
X180336287Y-130717090D01*
X180688673Y-131244473D01*
X181216056Y-131596859D01*
X181838146Y-131720600D01*
X183921854Y-131720600D01*
X184543944Y-131596859D01*
X185071327Y-131244473D01*
X185423713Y-130717090D01*
X185547454Y-130095000D01*
X185547454Y-139364741D01*
X184374928Y-139365295D01*
X183225421Y-139841436D01*
X182943725Y-140264120D01*
X185000000Y-142320395D01*
X187056275Y-140264120D01*
X187056275Y-140623330D01*
X185179605Y-142500000D01*
X187235880Y-144556275D01*
X187658564Y-144274579D01*
X188135294Y-143122108D01*
X188135294Y-148463000D01*
X187056275Y-148463000D01*
X187056275Y-144735880D01*
X185000000Y-142679605D01*
X184820395Y-142859210D01*
X184820395Y-142500000D01*
X182764120Y-140443725D01*
X182341436Y-140725421D01*
X181864706Y-141877892D01*
X181865295Y-143125072D01*
X182341436Y-144274579D01*
X182764120Y-144556275D01*
X184820395Y-142500000D01*
X184820395Y-142859210D01*
X182943725Y-144735880D01*
X183225421Y-145158564D01*
X184377892Y-145635294D01*
X185625072Y-145634705D01*
X186774579Y-145158564D01*
X187056275Y-144735880D01*
X187056275Y-148463000D01*
X167129462Y-148463000D01*
X167129462Y-138779828D01*
X166724291Y-137799239D01*
X165974707Y-137048345D01*
X165299107Y-136767812D01*
X165970761Y-136490291D01*
X166721655Y-135740707D01*
X167128536Y-134760827D01*
X167129462Y-133699828D01*
X166724291Y-132719239D01*
X165974707Y-131968345D01*
X165299107Y-131687812D01*
X165970761Y-131410291D01*
X166721655Y-130660707D01*
X167128536Y-129680827D01*
X167129462Y-128619828D01*
X166724291Y-127639239D01*
X165974707Y-126888345D01*
X165299107Y-126607812D01*
X165970761Y-126330291D01*
X166721655Y-125580707D01*
X167128536Y-124600827D01*
X167129462Y-123539828D01*
X166724291Y-122559239D01*
X165974707Y-121808345D01*
X165299107Y-121527812D01*
X165970761Y-121250291D01*
X166721655Y-120500707D01*
X167128536Y-119520827D01*
X167129462Y-118459828D01*
X166724291Y-117479239D01*
X165974707Y-116728345D01*
X165299107Y-116447812D01*
X165970761Y-116170291D01*
X166721655Y-115420707D01*
X167128536Y-114440827D01*
X167129462Y-113379828D01*
X166724291Y-112399239D01*
X165974707Y-111648345D01*
X165299107Y-111367812D01*
X165970761Y-111090291D01*
X166721655Y-110340707D01*
X167128536Y-109360827D01*
X167129462Y-108299828D01*
X166724291Y-107319239D01*
X165974707Y-106568345D01*
X164994827Y-106161464D01*
X163933828Y-106160538D01*
X162953239Y-106565709D01*
X162202345Y-107315293D01*
X161795464Y-108295173D01*
X161794538Y-109356172D01*
X162199709Y-110336761D01*
X162949293Y-111087655D01*
X163624892Y-111368187D01*
X162953239Y-111645709D01*
X162202345Y-112395293D01*
X161795464Y-113375173D01*
X161794538Y-114436172D01*
X162199709Y-115416761D01*
X162949293Y-116167655D01*
X163624892Y-116448187D01*
X162953239Y-116725709D01*
X162202345Y-117475293D01*
X161795464Y-118455173D01*
X161794538Y-119516172D01*
X162199709Y-120496761D01*
X162949293Y-121247655D01*
X163624892Y-121528187D01*
X162953239Y-121805709D01*
X162202345Y-122555293D01*
X161795464Y-123535173D01*
X161794538Y-124596172D01*
X162199709Y-125576761D01*
X162949293Y-126327655D01*
X163624892Y-126608187D01*
X162953239Y-126885709D01*
X162202345Y-127635293D01*
X161795464Y-128615173D01*
X161794538Y-129676172D01*
X162199709Y-130656761D01*
X162949293Y-131407655D01*
X163624892Y-131688187D01*
X162953239Y-131965709D01*
X162202345Y-132715293D01*
X161795464Y-133695173D01*
X161794538Y-134756172D01*
X162199709Y-135736761D01*
X162949293Y-136487655D01*
X163624892Y-136768187D01*
X162953239Y-137045709D01*
X162202345Y-137795293D01*
X161795464Y-138775173D01*
X161794538Y-139836172D01*
X162199709Y-140816761D01*
X162949293Y-141567655D01*
X163929173Y-141974536D01*
X164990172Y-141975462D01*
X165970761Y-141570291D01*
X166721655Y-140820707D01*
X167128536Y-139840827D01*
X167129462Y-138779828D01*
X167129462Y-148463000D01*
X157847314Y-148463000D01*
X157847314Y-59366306D01*
X157599002Y-58765345D01*
X157139613Y-58305154D01*
X156539087Y-58055794D01*
X155888846Y-58055226D01*
X155287885Y-58303538D01*
X154827694Y-58762927D01*
X154578334Y-59363453D01*
X154577766Y-60013694D01*
X154646837Y-60180860D01*
X147642698Y-67185000D01*
X133092440Y-67185000D01*
X133092440Y-66945000D01*
X133045463Y-66702877D01*
X132905673Y-66490073D01*
X132694640Y-66347623D01*
X132445000Y-66297560D01*
X130445000Y-66297560D01*
X130202877Y-66344537D01*
X129990073Y-66484327D01*
X129874372Y-66655732D01*
X129826264Y-66525613D01*
X129216539Y-66299092D01*
X128566540Y-66323144D01*
X128077736Y-66525613D01*
X127979073Y-66792468D01*
X128952000Y-67765395D01*
X128966142Y-67751252D01*
X129145747Y-67930857D01*
X129131605Y-67945000D01*
X129145747Y-67959142D01*
X128966142Y-68138747D01*
X128952000Y-68124605D01*
X127979073Y-69097532D01*
X128077736Y-69364387D01*
X128687461Y-69590908D01*
X129337460Y-69566856D01*
X129826264Y-69364387D01*
X129874780Y-69233163D01*
X129984327Y-69399927D01*
X130195360Y-69542377D01*
X130445000Y-69592440D01*
X130685000Y-69592440D01*
X130685000Y-72102098D01*
X122584911Y-80202186D01*
X122299533Y-80201938D01*
X121955757Y-80343983D01*
X121692508Y-80606773D01*
X121549862Y-80950301D01*
X121549538Y-81322267D01*
X121691583Y-81666043D01*
X121954373Y-81929292D01*
X122297901Y-82071938D01*
X122669867Y-82072262D01*
X123013643Y-81930217D01*
X123276892Y-81667427D01*
X123282300Y-81654401D01*
X131982401Y-72954301D01*
X132147148Y-72707739D01*
X132205000Y-72416900D01*
X132205000Y-69592440D01*
X132445000Y-69592440D01*
X132687123Y-69545463D01*
X132899927Y-69405673D01*
X133042377Y-69194640D01*
X133092440Y-68945000D01*
X133092440Y-68705000D01*
X147957500Y-68705000D01*
X148248339Y-68647148D01*
X148494901Y-68482401D01*
X155721428Y-61255873D01*
X155885993Y-61324206D01*
X156536234Y-61324774D01*
X157137195Y-61076462D01*
X157597386Y-60617073D01*
X157846746Y-60016547D01*
X157847314Y-59366306D01*
X157847314Y-148463000D01*
X157707240Y-148463000D01*
X157707240Y-138885211D01*
X157707240Y-133805211D01*
X157707240Y-128725211D01*
X157707240Y-123645211D01*
X157707240Y-118565211D01*
X157707240Y-113485211D01*
X157707240Y-108405211D01*
X157382910Y-107620273D01*
X156782886Y-107019200D01*
X155998515Y-106693501D01*
X155149211Y-106692760D01*
X154364273Y-107017090D01*
X153763200Y-107617114D01*
X153437501Y-108401485D01*
X153436760Y-109250789D01*
X153761090Y-110035727D01*
X154361114Y-110636800D01*
X155145485Y-110962499D01*
X155994789Y-110963240D01*
X156779727Y-110638910D01*
X157380800Y-110038886D01*
X157706499Y-109254515D01*
X157707240Y-108405211D01*
X157707240Y-113485211D01*
X157382910Y-112700273D01*
X156782886Y-112099200D01*
X155998515Y-111773501D01*
X155149211Y-111772760D01*
X154364273Y-112097090D01*
X153763200Y-112697114D01*
X153437501Y-113481485D01*
X153436760Y-114330789D01*
X153761090Y-115115727D01*
X154361114Y-115716800D01*
X155145485Y-116042499D01*
X155994789Y-116043240D01*
X156779727Y-115718910D01*
X157380800Y-115118886D01*
X157706499Y-114334515D01*
X157707240Y-113485211D01*
X157707240Y-118565211D01*
X157382910Y-117780273D01*
X156782886Y-117179200D01*
X155998515Y-116853501D01*
X155149211Y-116852760D01*
X154364273Y-117177090D01*
X153763200Y-117777114D01*
X153437501Y-118561485D01*
X153436760Y-119410789D01*
X153761090Y-120195727D01*
X154361114Y-120796800D01*
X155145485Y-121122499D01*
X155994789Y-121123240D01*
X156779727Y-120798910D01*
X157380800Y-120198886D01*
X157706499Y-119414515D01*
X157707240Y-118565211D01*
X157707240Y-123645211D01*
X157382910Y-122860273D01*
X156782886Y-122259200D01*
X155998515Y-121933501D01*
X155149211Y-121932760D01*
X154364273Y-122257090D01*
X153763200Y-122857114D01*
X153437501Y-123641485D01*
X153436760Y-124490789D01*
X153761090Y-125275727D01*
X154361114Y-125876800D01*
X155145485Y-126202499D01*
X155994789Y-126203240D01*
X156779727Y-125878910D01*
X157380800Y-125278886D01*
X157706499Y-124494515D01*
X157707240Y-123645211D01*
X157707240Y-128725211D01*
X157382910Y-127940273D01*
X156782886Y-127339200D01*
X155998515Y-127013501D01*
X155149211Y-127012760D01*
X154364273Y-127337090D01*
X153763200Y-127937114D01*
X153437501Y-128721485D01*
X153436760Y-129570789D01*
X153761090Y-130355727D01*
X154361114Y-130956800D01*
X155145485Y-131282499D01*
X155994789Y-131283240D01*
X156779727Y-130958910D01*
X157380800Y-130358886D01*
X157706499Y-129574515D01*
X157707240Y-128725211D01*
X157707240Y-133805211D01*
X157382910Y-133020273D01*
X156782886Y-132419200D01*
X155998515Y-132093501D01*
X155149211Y-132092760D01*
X154364273Y-132417090D01*
X153763200Y-133017114D01*
X153437501Y-133801485D01*
X153436760Y-134650789D01*
X153761090Y-135435727D01*
X154361114Y-136036800D01*
X155145485Y-136362499D01*
X155994789Y-136363240D01*
X156779727Y-136038910D01*
X157380800Y-135438886D01*
X157706499Y-134654515D01*
X157707240Y-133805211D01*
X157707240Y-138885211D01*
X157382910Y-138100273D01*
X156782886Y-137499200D01*
X155998515Y-137173501D01*
X155149211Y-137172760D01*
X154364273Y-137497090D01*
X153763200Y-138097114D01*
X153437501Y-138881485D01*
X153436760Y-139730789D01*
X153761090Y-140515727D01*
X154361114Y-141116800D01*
X155145485Y-141442499D01*
X155994789Y-141443240D01*
X156779727Y-141118910D01*
X157380800Y-140518886D01*
X157706499Y-139734515D01*
X157707240Y-138885211D01*
X157707240Y-148463000D01*
X136652000Y-148463000D01*
X136652000Y-100203000D01*
X117005000Y-100203000D01*
X117005000Y-96997000D01*
X117005000Y-96647000D01*
X117005000Y-96393000D01*
X117005000Y-96043000D01*
X117005000Y-89377000D01*
X117005000Y-89027000D01*
X117005000Y-88773000D01*
X117005000Y-88423000D01*
X116847166Y-87883517D01*
X116494896Y-87445500D01*
X116001819Y-87175633D01*
X115919039Y-87158096D01*
X115697000Y-87280085D01*
X115697000Y-88773000D01*
X117005000Y-88773000D01*
X117005000Y-89027000D01*
X115697000Y-89027000D01*
X115697000Y-90519915D01*
X115919039Y-90641904D01*
X116001819Y-90624367D01*
X116494896Y-90354500D01*
X116847166Y-89916483D01*
X117005000Y-89377000D01*
X117005000Y-96043000D01*
X116847166Y-95503517D01*
X116494896Y-95065500D01*
X116001819Y-94795633D01*
X115919039Y-94778096D01*
X115697000Y-94900085D01*
X115697000Y-96393000D01*
X117005000Y-96393000D01*
X117005000Y-96647000D01*
X115697000Y-96647000D01*
X115697000Y-98139915D01*
X115919039Y-98261904D01*
X116001819Y-98244367D01*
X116494896Y-97974500D01*
X116847166Y-97536483D01*
X117005000Y-96997000D01*
X117005000Y-100203000D01*
X112268000Y-100203000D01*
X112268000Y-103503818D01*
X112267538Y-104033172D01*
X112268000Y-104034290D01*
X112268000Y-123990035D01*
X112040345Y-124217293D01*
X111633464Y-125197173D01*
X111632538Y-126258172D01*
X112037709Y-127238761D01*
X112268000Y-127469454D01*
X112268000Y-134150035D01*
X112040345Y-134377293D01*
X111633464Y-135357173D01*
X111632538Y-136418172D01*
X112037709Y-137398761D01*
X112268000Y-137629454D01*
X112268000Y-148463000D01*
X108220351Y-148463000D01*
X108364310Y-148366810D01*
X109075325Y-147302702D01*
X109325000Y-146047500D01*
X109325000Y-139986065D01*
X109537013Y-139668764D01*
X109610065Y-139595841D01*
X109649997Y-139499672D01*
X109950325Y-139050201D01*
X110054864Y-138524643D01*
X110094448Y-138429317D01*
X110094538Y-138325189D01*
X110200000Y-137795000D01*
X110200000Y-114300000D01*
X110095459Y-113774441D01*
X110095550Y-113671224D01*
X110055786Y-113574988D01*
X109950325Y-113044798D01*
X109652620Y-112599252D01*
X109613204Y-112503857D01*
X109539638Y-112430163D01*
X109239310Y-111980690D01*
X108793763Y-111682985D01*
X108720841Y-111609935D01*
X108624674Y-111570003D01*
X108175202Y-111269675D01*
X107679490Y-111171070D01*
X107679490Y-107808340D01*
X107679490Y-107555721D01*
X107679490Y-106968290D01*
X107679490Y-106396790D01*
X107679490Y-105809359D01*
X107679490Y-105556740D01*
X107582817Y-105323351D01*
X107404188Y-105144723D01*
X107170799Y-105048050D01*
X106330750Y-105048050D01*
X106172000Y-105206800D01*
X106172000Y-106555540D01*
X107520740Y-106555540D01*
X107679490Y-106396790D01*
X107679490Y-106968290D01*
X107520740Y-106809540D01*
X106172000Y-106809540D01*
X106172000Y-108158280D01*
X106330750Y-108317030D01*
X107170799Y-108317030D01*
X107404188Y-108220357D01*
X107582817Y-108041729D01*
X107679490Y-107808340D01*
X107679490Y-111171070D01*
X107649643Y-111165134D01*
X107554317Y-111125552D01*
X107450189Y-111125461D01*
X106920000Y-111020000D01*
X106394441Y-111124540D01*
X106291224Y-111124450D01*
X106194988Y-111164213D01*
X105918000Y-111219309D01*
X105918000Y-108158280D01*
X105918000Y-106809540D01*
X105918000Y-106555540D01*
X105918000Y-105206800D01*
X105759250Y-105048050D01*
X104919201Y-105048050D01*
X104685812Y-105144723D01*
X104507183Y-105323351D01*
X104410510Y-105556740D01*
X104410510Y-105809359D01*
X104410510Y-106396790D01*
X104569260Y-106555540D01*
X105918000Y-106555540D01*
X105918000Y-106809540D01*
X104569260Y-106809540D01*
X104410510Y-106968290D01*
X104410510Y-107555721D01*
X104410510Y-107808340D01*
X104507183Y-108041729D01*
X104685812Y-108220357D01*
X104919201Y-108317030D01*
X105759250Y-108317030D01*
X105918000Y-108158280D01*
X105918000Y-111219309D01*
X105664799Y-111269675D01*
X105219253Y-111567378D01*
X105123857Y-111606796D01*
X105050162Y-111680362D01*
X104600690Y-111980690D01*
X103725690Y-112855690D01*
X103014675Y-113919798D01*
X102765000Y-115175000D01*
X102765000Y-121917500D01*
X103014675Y-123172702D01*
X103725690Y-124236810D01*
X104789798Y-124947825D01*
X106045000Y-125197500D01*
X107300202Y-124947825D01*
X108364310Y-124236810D01*
X109075325Y-123172702D01*
X109325000Y-121917500D01*
X109325000Y-116491065D01*
X109537013Y-116173764D01*
X109610065Y-116100841D01*
X109649997Y-116004672D01*
X109950325Y-115555201D01*
X110054864Y-115029643D01*
X110094448Y-114934317D01*
X110094538Y-114830189D01*
X110200000Y-114300000D01*
X110200000Y-137795000D01*
X110095459Y-137269441D01*
X110095550Y-137166224D01*
X110055786Y-137069988D01*
X109950325Y-136539798D01*
X109652620Y-136094252D01*
X109613204Y-135998857D01*
X109539638Y-135925163D01*
X109239310Y-135475690D01*
X108793763Y-135177985D01*
X108720841Y-135104935D01*
X108624674Y-135065003D01*
X108175202Y-134764675D01*
X107679490Y-134666070D01*
X107679490Y-131303340D01*
X107679490Y-131050721D01*
X107679490Y-130463290D01*
X107679490Y-129891790D01*
X107679490Y-129304359D01*
X107679490Y-129051740D01*
X107582817Y-128818351D01*
X107404188Y-128639723D01*
X107170799Y-128543050D01*
X106330750Y-128543050D01*
X106172000Y-128701800D01*
X106172000Y-130050540D01*
X107520740Y-130050540D01*
X107679490Y-129891790D01*
X107679490Y-130463290D01*
X107520740Y-130304540D01*
X106172000Y-130304540D01*
X106172000Y-131653280D01*
X106330750Y-131812030D01*
X107170799Y-131812030D01*
X107404188Y-131715357D01*
X107582817Y-131536729D01*
X107679490Y-131303340D01*
X107679490Y-134666070D01*
X107649643Y-134660134D01*
X107554317Y-134620552D01*
X107450189Y-134620461D01*
X106920000Y-134515000D01*
X106394441Y-134619540D01*
X106291224Y-134619450D01*
X106194988Y-134659213D01*
X105918000Y-134714309D01*
X105918000Y-131653280D01*
X105918000Y-130304540D01*
X105918000Y-130050540D01*
X105918000Y-128701800D01*
X105759250Y-128543050D01*
X104919201Y-128543050D01*
X104685812Y-128639723D01*
X104507183Y-128818351D01*
X104410510Y-129051740D01*
X104410510Y-129304359D01*
X104410510Y-129891790D01*
X104569260Y-130050540D01*
X105918000Y-130050540D01*
X105918000Y-130304540D01*
X104569260Y-130304540D01*
X104410510Y-130463290D01*
X104410510Y-131050721D01*
X104410510Y-131303340D01*
X104507183Y-131536729D01*
X104685812Y-131715357D01*
X104919201Y-131812030D01*
X105759250Y-131812030D01*
X105918000Y-131653280D01*
X105918000Y-134714309D01*
X105664799Y-134764675D01*
X105219253Y-135062378D01*
X105123857Y-135101796D01*
X105050162Y-135175362D01*
X104600690Y-135475690D01*
X103725690Y-136350690D01*
X103014675Y-137414798D01*
X103009800Y-137439306D01*
X103009800Y-128525600D01*
X102760125Y-127270398D01*
X102049110Y-126206290D01*
X99285810Y-123442990D01*
X99165000Y-123362267D01*
X99165000Y-121917500D01*
X98915325Y-120662298D01*
X98204310Y-119598190D01*
X97519774Y-119140797D01*
X97519774Y-106358846D01*
X97271462Y-105757885D01*
X96812073Y-105297694D01*
X96211547Y-105048334D01*
X95561306Y-105047766D01*
X94960345Y-105296078D01*
X94500154Y-105755467D01*
X94250794Y-106355993D01*
X94250226Y-107006234D01*
X94498538Y-107607195D01*
X94957927Y-108067386D01*
X95558453Y-108316746D01*
X96208694Y-108317314D01*
X96809655Y-108069002D01*
X97269846Y-107609613D01*
X97519206Y-107009087D01*
X97519774Y-106358846D01*
X97519774Y-119140797D01*
X97140202Y-118887175D01*
X95885000Y-118637500D01*
X95095687Y-118637500D01*
X95070525Y-118510998D01*
X94359510Y-117446890D01*
X92489310Y-115576690D01*
X91796625Y-115113852D01*
X91986133Y-114830235D01*
X92091603Y-114300000D01*
X91986133Y-113769765D01*
X91685779Y-113320254D01*
X91251383Y-113030000D01*
X91685779Y-112739746D01*
X91986133Y-112290235D01*
X92091603Y-111760000D01*
X91986133Y-111229765D01*
X91685779Y-110780254D01*
X91236268Y-110479900D01*
X90706033Y-110374430D01*
X89633967Y-110374430D01*
X89103732Y-110479900D01*
X88654221Y-110780254D01*
X88353867Y-111229765D01*
X88248397Y-111760000D01*
X88353867Y-112290235D01*
X88654221Y-112739746D01*
X89088616Y-113030000D01*
X88654221Y-113320254D01*
X88353867Y-113769765D01*
X88248397Y-114300000D01*
X88353867Y-114830235D01*
X88543374Y-115113852D01*
X87850690Y-115576690D01*
X87139675Y-116640798D01*
X86890000Y-117896000D01*
X87139675Y-119151202D01*
X87850690Y-120215310D01*
X88760200Y-121124820D01*
X88760200Y-121917500D01*
X89009875Y-123172702D01*
X89720890Y-124236810D01*
X90784998Y-124947825D01*
X92040200Y-125197500D01*
X92605000Y-125197500D01*
X92605000Y-125762300D01*
X92854675Y-127017502D01*
X93565690Y-128081610D01*
X94629798Y-128792625D01*
X94904131Y-128847193D01*
X94500154Y-129250467D01*
X94250794Y-129850993D01*
X94250226Y-130501234D01*
X94498538Y-131102195D01*
X94957927Y-131562386D01*
X95558453Y-131811746D01*
X96208694Y-131812314D01*
X96449800Y-131712691D01*
X96449800Y-136999280D01*
X93973296Y-139475783D01*
X93775195Y-139179305D01*
X93244958Y-138825011D01*
X92619500Y-138700600D01*
X91735321Y-138700600D01*
X91986133Y-138325235D01*
X92091603Y-137795000D01*
X91986133Y-137264765D01*
X91685779Y-136815254D01*
X91251383Y-136525000D01*
X91685779Y-136234746D01*
X91986133Y-135785235D01*
X92091603Y-135255000D01*
X91986133Y-134724765D01*
X91685779Y-134275254D01*
X91236268Y-133974900D01*
X90706033Y-133869430D01*
X89633967Y-133869430D01*
X89103732Y-133974900D01*
X88654221Y-134275254D01*
X88353867Y-134724765D01*
X88248397Y-135255000D01*
X88353867Y-135785235D01*
X88654221Y-136234746D01*
X89088616Y-136525000D01*
X88654221Y-136815254D01*
X88353867Y-137264765D01*
X88248397Y-137795000D01*
X88353867Y-138325235D01*
X88654221Y-138774746D01*
X89088616Y-139065000D01*
X88654221Y-139355254D01*
X88353867Y-139804765D01*
X88248397Y-140335000D01*
X88353867Y-140865235D01*
X88654221Y-141314746D01*
X89103732Y-141615100D01*
X89241503Y-141642504D01*
X89544542Y-141844989D01*
X90170000Y-141969400D01*
X90985100Y-141969400D01*
X90985100Y-142784500D01*
X91109511Y-143409958D01*
X91463805Y-143940195D01*
X92605000Y-145081390D01*
X92605000Y-146034931D01*
X92602500Y-146047500D01*
X92852175Y-147302702D01*
X93563190Y-148366810D01*
X93707148Y-148463000D01*
X83290000Y-148463000D01*
X83290000Y-142875000D01*
X83290000Y-139229700D01*
X83040325Y-137974498D01*
X82329310Y-136910390D01*
X79411500Y-133992580D01*
X79411500Y-123756997D01*
X79411599Y-123756500D01*
X79411592Y-123756469D01*
X79411600Y-123756434D01*
X79280914Y-123099501D01*
X79161925Y-122501299D01*
X79161906Y-122501271D01*
X79161900Y-122501238D01*
X78792757Y-121948800D01*
X78450910Y-121437190D01*
X78450883Y-121437172D01*
X78450864Y-121437143D01*
X77597462Y-120583775D01*
X77597462Y-110596828D01*
X77192291Y-109616239D01*
X76442707Y-108865345D01*
X75462827Y-108458464D01*
X74401828Y-108457538D01*
X73421239Y-108862709D01*
X72670345Y-109612293D01*
X72263464Y-110592173D01*
X72262538Y-111653172D01*
X72667709Y-112633761D01*
X73417293Y-113384655D01*
X74397173Y-113791536D01*
X75458172Y-113792462D01*
X76438761Y-113387291D01*
X77189655Y-112637707D01*
X77596536Y-111657827D01*
X77597462Y-110596828D01*
X77597462Y-120583775D01*
X75979263Y-118965643D01*
X74915140Y-118254649D01*
X73659934Y-118005000D01*
X72404737Y-118254700D01*
X71340643Y-118965737D01*
X70629649Y-120029860D01*
X70380000Y-121285066D01*
X70629700Y-122540263D01*
X71340737Y-123604357D01*
X72851500Y-125115058D01*
X72851500Y-135351200D01*
X73101175Y-136606402D01*
X73812190Y-137670510D01*
X76730000Y-140588320D01*
X76730000Y-142875000D01*
X76979675Y-144130202D01*
X77690690Y-145194310D01*
X78754798Y-145905325D01*
X80010000Y-146155000D01*
X81265202Y-145905325D01*
X82329310Y-145194310D01*
X83040325Y-144130202D01*
X83290000Y-142875000D01*
X83290000Y-148463000D01*
X71636699Y-148463000D01*
X71636699Y-126588300D01*
X71387025Y-125333099D01*
X70676010Y-124268990D01*
X69611901Y-123557975D01*
X68356700Y-123308301D01*
X67101498Y-123557975D01*
X66037389Y-124268990D01*
X59601379Y-130705000D01*
X57428900Y-130705000D01*
X56694756Y-130705000D01*
X57005325Y-130240202D01*
X57255000Y-128985000D01*
X57255000Y-125095000D01*
X57005325Y-123839798D01*
X56642454Y-123296723D01*
X56642454Y-114935000D01*
X56518713Y-114312910D01*
X56166327Y-113785527D01*
X55638944Y-113433141D01*
X55016854Y-113309400D01*
X52933146Y-113309400D01*
X52311056Y-113433141D01*
X51783673Y-113785527D01*
X51431287Y-114312910D01*
X51307546Y-114935000D01*
X51431287Y-115557090D01*
X51783673Y-116084473D01*
X52311056Y-116436859D01*
X52933146Y-116560600D01*
X55016854Y-116560600D01*
X55638944Y-116436859D01*
X56166327Y-116084473D01*
X56518713Y-115557090D01*
X56642454Y-114935000D01*
X56642454Y-123296723D01*
X56294310Y-122775690D01*
X55230202Y-122064675D01*
X53975000Y-121815000D01*
X53156594Y-121977790D01*
X51949402Y-120770598D01*
X51422052Y-120418234D01*
X50800000Y-120294500D01*
X50177948Y-120418234D01*
X49650598Y-120770598D01*
X49358124Y-121208315D01*
X49194188Y-121165417D01*
X49014583Y-121345022D01*
X49014583Y-120985812D01*
X48952929Y-120750200D01*
X48452520Y-120574073D01*
X47922801Y-120602852D01*
X47567071Y-120750200D01*
X47505417Y-120985812D01*
X48260000Y-121740395D01*
X49014583Y-120985812D01*
X49014583Y-121345022D01*
X48439605Y-121920000D01*
X49194188Y-122674583D01*
X49358124Y-122631684D01*
X49650598Y-123069402D01*
X50857790Y-124276594D01*
X50695000Y-125095000D01*
X50695000Y-128985000D01*
X50944675Y-130240202D01*
X51655690Y-131304310D01*
X51926111Y-131485000D01*
X51655690Y-131665690D01*
X50944675Y-132729798D01*
X50695000Y-133985000D01*
X50944675Y-135240202D01*
X51655690Y-136304310D01*
X52719798Y-137015325D01*
X53975000Y-137265000D01*
X57428900Y-137265000D01*
X57680000Y-137265000D01*
X57680000Y-138825000D01*
X57929675Y-140080202D01*
X58640690Y-141144310D01*
X62690690Y-145194310D01*
X63754799Y-145905325D01*
X65010000Y-146155000D01*
X66265202Y-145905325D01*
X67329310Y-145194310D01*
X68040325Y-144130202D01*
X68290000Y-142875000D01*
X68040325Y-141619799D01*
X67329310Y-140555690D01*
X64240000Y-137466380D01*
X64240000Y-135343620D01*
X70676010Y-128907611D01*
X71387025Y-127843502D01*
X71636699Y-126588300D01*
X71636699Y-148463000D01*
X53135294Y-148463000D01*
X53135294Y-143122108D01*
X53134705Y-141874928D01*
X52658564Y-140725421D01*
X52235880Y-140443725D01*
X52056275Y-140623330D01*
X52056275Y-140264120D01*
X51774579Y-139841436D01*
X50622108Y-139364706D01*
X49374928Y-139365295D01*
X49014583Y-139514554D01*
X49014583Y-122854188D01*
X48260000Y-122099605D01*
X48080395Y-122279210D01*
X48080395Y-121920000D01*
X47325812Y-121165417D01*
X47090200Y-121227071D01*
X46914073Y-121727480D01*
X46942852Y-122257199D01*
X47090200Y-122612929D01*
X47325812Y-122674583D01*
X48080395Y-121920000D01*
X48080395Y-122279210D01*
X47505417Y-122854188D01*
X47567071Y-123089800D01*
X48067480Y-123265927D01*
X48597199Y-123237148D01*
X48952929Y-123089800D01*
X49014583Y-122854188D01*
X49014583Y-139514554D01*
X48225421Y-139841436D01*
X47943725Y-140264120D01*
X50000000Y-142320395D01*
X52056275Y-140264120D01*
X52056275Y-140623330D01*
X50179605Y-142500000D01*
X52235880Y-144556275D01*
X52658564Y-144274579D01*
X53135294Y-143122108D01*
X53135294Y-148463000D01*
X52056275Y-148463000D01*
X52056275Y-144735880D01*
X50000000Y-142679605D01*
X49820395Y-142859210D01*
X49820395Y-142500000D01*
X47764120Y-140443725D01*
X47341436Y-140725421D01*
X46864706Y-141877892D01*
X46865295Y-143125072D01*
X47341436Y-144274579D01*
X47764120Y-144556275D01*
X49820395Y-142500000D01*
X49820395Y-142859210D01*
X47943725Y-144735880D01*
X48225421Y-145158564D01*
X49377892Y-145635294D01*
X50625072Y-145634705D01*
X51774579Y-145158564D01*
X52056275Y-144735880D01*
X52056275Y-148463000D01*
X46482000Y-148463000D01*
X46482000Y-42037000D01*
X188468000Y-42037000D01*
X188468000Y-148463000D01*
M02*
