M48
;DRILL file {kicad (after 2015-mar-04 BZR unknown)-product} date 9/14/2015 9:21:54 PM
;FORMAT={-:-/ absolute / inch / decimal}
FMAT,2
INCH,TZ
T1C0.016
T2C0.026
T3C0.031
T4C0.032
T5C0.039
T6C0.039
T7C0.043
T8C0.047
T9C0.047
T10C0.050
T11C0.052
T12C0.120
T13C0.157
%
G90
G05
M72
T1
X2.2927Y-3.1587
X2.4547Y-3.2711
X2.678Y-3.2711
X2.9096Y-5.7254
X2.9124Y-2.799
X3.0346Y-5.5029
X3.1173Y-4.4437
X4.0427Y-3.9578
X6.4045Y-2.9123
T2
X6.35Y-2.2
X6.35Y-2.4
X6.55Y-2.2
X6.55Y-2.4
X6.65Y-2.2
X6.65Y-2.4
X6.75Y-2.2
X6.75Y-2.4
T3
X1.9Y-4.55
X1.9Y-4.65
X1.9Y-4.75
X1.9Y-4.85
X2.05Y-2.05
X2.05Y-2.65
X2.15Y-2.05
X2.15Y-2.65
X2.15Y-5.45
X2.15Y-5.55
X2.15Y-5.65
X2.15Y-5.75
X2.2Y-4.55
X2.2Y-4.65
X2.2Y-4.75
X2.2Y-4.85
X2.25Y-2.05
X2.25Y-2.65
X2.35Y-2.05
X2.35Y-2.65
X2.45Y-2.05
X2.45Y-2.65
X2.45Y-5.45
X2.45Y-5.55
X2.45Y-5.65
X2.45Y-5.75
X2.55Y-2.05
X2.55Y-2.65
X2.65Y-2.05
X2.65Y-2.65
X2.6874Y-4.672
X2.6874Y-4.772
X2.6874Y-4.872
X2.6874Y-4.972
X2.6874Y-5.072
X2.6874Y-5.172
X2.6874Y-5.272
X2.6874Y-5.372
X2.75Y-2.05
X2.75Y-2.65
X2.85Y-2.05
X2.85Y-2.65
X2.95Y-2.05
X2.95Y-2.65
X2.9874Y-4.672
X2.9874Y-4.772
X2.9874Y-4.872
X2.9874Y-4.972
X2.9874Y-5.072
X2.9874Y-5.172
X2.9874Y-5.272
X2.9874Y-5.372
X3.05Y-2.05
X3.05Y-2.65
X3.15Y-2.05
X3.15Y-2.65
X3.25Y-2.05
X3.25Y-2.65
X3.35Y-2.05
X3.35Y-2.65
X3.45Y-2.05
X3.45Y-2.65
X5.5874Y-3.0268
X5.5874Y-3.322
T4
X2.55Y-3.05
X2.85Y-3.05
T5
X1.95Y-2.85
X1.95Y-2.95
X1.95Y-3.1
X1.95Y-3.2
X1.95Y-3.35
X1.95Y-3.45
X1.95Y-3.6
X1.95Y-3.7
X1.95Y-3.85
X1.95Y-3.95
X1.95Y-4.1
X1.95Y-4.2
X2.6874Y-5.672
X2.7874Y-5.672
X7.3Y-2.25
X7.3Y-2.35
X7.3Y-5.25
X7.3Y-5.35
T6
X3.5374Y-4.722
X3.5374Y-4.822
X3.5374Y-4.922
X3.5374Y-5.222
X3.5374Y-5.322
X3.5374Y-5.422
X3.7374Y-4.5221
X3.7374Y-5.6221
X3.8874Y-4.5219
X3.8874Y-5.6219
X4.85Y-2.0501
X6.4Y-1.8499
T7
X4.8874Y-3.0315
X4.8874Y-3.622
T8
X5.0374Y-4.222
X5.2374Y-4.422
X5.2374Y-4.622
X5.2374Y-4.822
X5.2374Y-5.022
X5.2374Y-5.222
X5.2374Y-5.422
X5.2374Y-5.622
X6.1374Y-4.422
X6.1374Y-4.622
X6.1374Y-4.822
X6.1374Y-5.022
X6.1374Y-5.222
X6.1374Y-5.422
X6.1374Y-5.622
T9
X2.95Y-3.5
X2.95Y-3.5981
X2.95Y-3.6966
X2.95Y-3.795
X2.95Y-3.8934
X2.95Y-3.9919
X2.95Y-4.0903
T10
X3.3374Y-4.5221
X3.3374Y-5.6221
X4.2874Y-4.5219
X4.2874Y-5.6219
X4.45Y-2.0501
X6.8Y-1.8499
T11
X7.1874Y-4.222
X7.1874Y-4.4189
X7.1874Y-4.722
X7.1874Y-4.9189
X7.2Y-2.85
X7.2Y-3.0469
X7.2Y-3.35
X7.2Y-3.5469
T12
X4.4874Y-5.022
X4.4874Y-5.622
X4.5374Y-4.222
X4.7874Y-4.222
X4.7874Y-4.422
X4.7874Y-4.622
X4.7874Y-4.822
X4.7874Y-5.022
X4.7874Y-5.222
X4.7874Y-5.422
X4.7874Y-5.622
X6.4874Y-4.422
X6.4874Y-4.622
X6.4874Y-4.822
X6.4874Y-5.022
X6.4874Y-5.222
X6.4874Y-5.422
X6.4874Y-5.622
X6.7874Y-5.022
X6.7874Y-5.422
T13
X1.9685Y-1.8701
X1.9685Y-5.6102
X7.2835Y-1.8701
X7.2835Y-5.6102
T0
M30
