M48
INCH,TZ
T1C0.016
T2C0.026
T3C0.031
T4C0.032
T5C0.039
T6C0.039
T7C0.043
T8C0.047
T9C0.047
T10C0.050
T11C0.052
T12C0.120
T13C0.150
T14C0.157
%
G90
G05
T1
X25393Y-39821
X29005Y-39499
X38767Y-31741
X38853Y-32362
X39013Y-30890
X41440Y-30881
X45654Y-29542
X48222Y-31944
X49240Y-30458
X49857Y-30056
T2
X64000Y-19500
X64000Y-22500
X66000Y-19500
X66000Y-22500
X68000Y-19500
X68000Y-22500
X69000Y-19500
X69000Y-22500
T3
X19250Y-22000
X19250Y-28000
X20250Y-22000
X20250Y-28000
X21250Y-22000
X21250Y-28000
X22250Y-22000
X22250Y-28000
X23250Y-22000
X23250Y-28000
X24250Y-22000
X24250Y-28000
X25250Y-22000
X25250Y-28000
X26250Y-22000
X26250Y-28000
X26912Y-49838
X27250Y-22000
X27250Y-28000
X28250Y-22000
X28250Y-28000
X29000Y-47750
X29250Y-22000
X29250Y-28000
X29750Y-36750
X29750Y-39750
X30250Y-22000
X30250Y-28000
X30750Y-36750
X30750Y-39750
X31250Y-22000
X31250Y-28000
X31750Y-36750
X31750Y-39750
X32250Y-22000
X32250Y-28000
X32750Y-36750
X32750Y-39750
X33250Y-22000
X33250Y-28000
X33750Y-36750
X33750Y-39750
X34750Y-31250
X34750Y-34250
X34750Y-36750
X34750Y-39750
X35750Y-31250
X35750Y-34250
X35750Y-36750
X35750Y-39750
X36750Y-31250
X36750Y-34250
X36750Y-36750
X36750Y-39750
X37750Y-31250
X37750Y-34250
X42500Y-35000
X42500Y-38000
X43500Y-35000
X43500Y-38000
X44500Y-35000
X44500Y-38000
X45500Y-35000
X45500Y-38000
T4
X19000Y-48000
X20000Y-48000
X21250Y-40250
X21250Y-41250
X23000Y-32500
X26000Y-32500
T5
X39000Y-37500
X40000Y-37500
X72375Y-23625
X72375Y-24625
X72375Y-26125
X72375Y-27125
X72375Y-28625
X72375Y-29625
X72375Y-31125
X72375Y-32125
X72375Y-33625
X72375Y-34625
X72375Y-36125
X72375Y-37125
X72500Y-21000
X72500Y-22000
X73000Y-39250
X73000Y-40250
T6
X35500Y-44000
X35500Y-45000
X35500Y-46000
X35500Y-53250
X35500Y-54250
X35500Y-55250
X37750Y-47999
X37750Y-57499
X41750Y-42001
X41750Y-51251
X61501Y-19500
X68750Y-25251
T7
X25594Y-56250
X31500Y-56250
T8
X50249Y-40846
X52249Y-42846
X52249Y-44846
X52249Y-46846
X52249Y-48846
X52249Y-50846
X52249Y-52846
X52249Y-54846
X61249Y-42846
X61249Y-44846
X61249Y-46846
X61249Y-48846
X61249Y-50846
X61249Y-52846
X61249Y-54846
T9
X45847Y-26750
X46831Y-26750
X47816Y-26750
X48800Y-26750
X49784Y-26750
X50769Y-26750
X51750Y-26750
T10
X37750Y-42001
X37750Y-51251
X41750Y-47999
X41750Y-57499
X61501Y-23500
X64750Y-25251
T11
X21250Y-43281
X21250Y-45250
X21250Y-50781
X21250Y-52750
X72000Y-44000
X72000Y-45969
X72000Y-49250
X72000Y-51219
T12
X29500Y-43750
X45000Y-49500
X45000Y-53500
X45250Y-40750
X47749Y-42846
X47749Y-44846
X47749Y-46846
X47749Y-48846
X47749Y-50846
X47749Y-52846
X47749Y-54846
X64749Y-42846
X64749Y-44846
X64749Y-46846
X64749Y-48846
X64749Y-50846
X64749Y-52846
X64749Y-54846
X67375Y-46875
X67375Y-52875
T13
X42094Y-45000
X42094Y-54250
T14
X19685Y-18701
X19685Y-56102
X72835Y-18701
X72835Y-56102
T0
M30
