G04 #@! TF.FileFunction,Soldermask,Bot*
%FSLAX46Y46*%
G04 Gerber Fmt 4.6, Leading zero omitted, Abs format (unit mm)*
G04 Created by KiCad (PCBNEW (after 2015-mar-04 BZR unknown)-product) date 9/22/2015 11:28:52 PM*
%MOMM*%
G01*
G04 APERTURE LIST*
%ADD10C,0.100000*%
%ADD11C,1.500000*%
%ADD12R,1.422400X1.422400*%
%ADD13C,1.422400*%
%ADD14C,1.300000*%
%ADD15R,1.600000X1.600000*%
%ADD16C,1.600000*%
%ADD17C,1.998980*%
%ADD18R,1.998980X1.998980*%
%ADD19C,4.064000*%
%ADD20C,2.999740*%
%ADD21R,2.000000X2.000000*%
%ADD22C,2.000000*%
%ADD23O,1.600000X2.300000*%
%ADD24O,3.014980X1.506220*%
%ADD25O,1.506220X3.014980*%
%ADD26C,5.000000*%
%ADD27C,1.397000*%
%ADD28O,2.499360X1.501140*%
%ADD29C,5.080000*%
G04 APERTURE END LIST*
D10*
D11*
X162560000Y-49530000D03*
X162560000Y-57150000D03*
X167640000Y-57150000D03*
X172720000Y-57150000D03*
X175260000Y-57150000D03*
X167640000Y-49530000D03*
X172720000Y-49530000D03*
X175260000Y-49530000D03*
D12*
X58420000Y-82550000D03*
D13*
X66040000Y-82550000D03*
D10*
G36*
X73660000Y-120365761D02*
X74579239Y-121285000D01*
X73660000Y-122204239D01*
X72740761Y-121285000D01*
X73660000Y-120365761D01*
X73660000Y-120365761D01*
G37*
D14*
X68356699Y-126588301D03*
D15*
X80010000Y-142875000D03*
D16*
X65010000Y-142875000D03*
D17*
X95885000Y-130177540D03*
D18*
X106045000Y-130177540D03*
D17*
X95885000Y-106682540D03*
D18*
X106045000Y-106682540D03*
D17*
X106045000Y-146047460D03*
D18*
X95885000Y-146047460D03*
D17*
X106045000Y-121917460D03*
D18*
X95885000Y-121917460D03*
D19*
X114300000Y-135890000D03*
X74930000Y-111125000D03*
X114300000Y-125730000D03*
X121282000Y-139308000D03*
X114935000Y-103505000D03*
X121282000Y-129148000D03*
X121282000Y-134228000D03*
X121282000Y-124068000D03*
X121282000Y-118988000D03*
X121282000Y-113908000D03*
X121282000Y-108828000D03*
X164462000Y-139308000D03*
X164462000Y-134228000D03*
X164462000Y-129148000D03*
X164462000Y-124068000D03*
X164462000Y-118988000D03*
X164462000Y-113908000D03*
X164462000Y-108828000D03*
X171132000Y-134302000D03*
X171132000Y-119062000D03*
D20*
X132712000Y-139308000D03*
X132712000Y-134228000D03*
X132712000Y-129148000D03*
X132712000Y-124068000D03*
X132712000Y-118988000D03*
X132712000Y-113908000D03*
X132712000Y-108828000D03*
X155572000Y-108828000D03*
X155572000Y-113908000D03*
X155572000Y-118988000D03*
X155572000Y-124068000D03*
X155572000Y-129148000D03*
X155572000Y-134228000D03*
X155572000Y-139308000D03*
X127632000Y-103748000D03*
D21*
X131445000Y-67945000D03*
D22*
X128952000Y-67945000D03*
X126452000Y-67945000D03*
X123952000Y-67945000D03*
X121452000Y-67945000D03*
X118952000Y-67945000D03*
X116452000Y-67945000D03*
D23*
X107950000Y-96520000D03*
X110490000Y-96520000D03*
X113030000Y-96520000D03*
X115570000Y-96520000D03*
X115570000Y-88900000D03*
X113030000Y-88900000D03*
X110490000Y-88900000D03*
X107950000Y-88900000D03*
X95885000Y-79375000D03*
X93345000Y-79375000D03*
X90805000Y-79375000D03*
X88265000Y-79375000D03*
X88265000Y-86995000D03*
X90805000Y-86995000D03*
X93345000Y-86995000D03*
X95885000Y-86995000D03*
X93345000Y-93345000D03*
X90805000Y-93345000D03*
X88265000Y-93345000D03*
X85725000Y-93345000D03*
X83185000Y-93345000D03*
X80645000Y-93345000D03*
X78105000Y-93345000D03*
X75565000Y-93345000D03*
X75565000Y-100965000D03*
X78105000Y-100965000D03*
X80645000Y-100965000D03*
X83185000Y-100965000D03*
X85725000Y-100965000D03*
X88265000Y-100965000D03*
X90805000Y-100965000D03*
X93345000Y-100965000D03*
X48895000Y-71120000D03*
X51435000Y-71120000D03*
X53975000Y-71120000D03*
X56515000Y-71120000D03*
X59055000Y-71120000D03*
X61595000Y-71120000D03*
X64135000Y-71120000D03*
X66675000Y-71120000D03*
X69215000Y-71120000D03*
X71755000Y-71120000D03*
X74295000Y-71120000D03*
X76835000Y-71120000D03*
X79375000Y-71120000D03*
X81915000Y-71120000D03*
X84455000Y-71120000D03*
X84455000Y-55880000D03*
X81915000Y-55880000D03*
X79375000Y-55880000D03*
X76835000Y-55880000D03*
X74295000Y-55880000D03*
X71755000Y-55880000D03*
X69215000Y-55880000D03*
X66675000Y-55880000D03*
X64135000Y-55880000D03*
X61595000Y-55880000D03*
X59055000Y-55880000D03*
X56515000Y-55880000D03*
X53975000Y-55880000D03*
X51435000Y-55880000D03*
X48895000Y-55880000D03*
D24*
X185420000Y-102235000D03*
X185420000Y-99695000D03*
X183832000Y-91757500D03*
X183832000Y-94297500D03*
X183832000Y-85407500D03*
X183832000Y-87947500D03*
X183832000Y-79057500D03*
X183832000Y-81597500D03*
X183832000Y-72707500D03*
X183832000Y-75247500D03*
X183832000Y-60007500D03*
X183832000Y-62547500D03*
X183832000Y-66357500D03*
X183832000Y-68897500D03*
D25*
X101600000Y-95250000D03*
X99060000Y-95250000D03*
D26*
X50000000Y-142500000D03*
X50000000Y-47500000D03*
X185000000Y-142500000D03*
X185000000Y-47500000D03*
D17*
X156212540Y-59690000D03*
D18*
X156212540Y-49530000D03*
D17*
X164465000Y-64137540D03*
D18*
X174625000Y-64137540D03*
D24*
X184150000Y-55880000D03*
X184150000Y-53340000D03*
D27*
X53975000Y-102235000D03*
X53975000Y-104775000D03*
X48260000Y-121920000D03*
X50800000Y-121920000D03*
D28*
X90170000Y-137795000D03*
X90170000Y-135255000D03*
X90170000Y-140335000D03*
D29*
X106920000Y-137795000D03*
D28*
X90170000Y-114300000D03*
X90170000Y-111760000D03*
X90170000Y-116840000D03*
D29*
X106920000Y-114300000D03*
M02*
