999
This DXF saved by the Parabola Calculator program
  0
SECTION
  2
ENTITIES
  0
LINE
  5
1
100
AcDbEntity
  8
0
 62
    255
100
AcDbLine
 10
-1 
 20
 0.5 
 30
 0 
 11
-0.9375 
 21
 0.439453125 
 31
 0 
  0
LINE
  5
2
100
AcDbEntity
  8
0
 62
    255
100
AcDbLine
 10
-0.9375 
 20
 0.439453125 
 30
 0 
 11
-0.875 
 21
 0.3828125 
 31
 0 
  0
LINE
  5
3
100
AcDbEntity
  8
0
 62
    255
100
AcDbLine
 10
-0.875 
 20
 0.3828125 
 30
 0 
 11
-0.8125 
 21
 0.330078125 
 31
 0 
  0
LINE
  5
4
100
AcDbEntity
  8
0
 62
    255
100
AcDbLine
 10
-0.8125 
 20
 0.330078125 
 30
 0 
 11
-0.75 
 21
 0.28125 
 31
 0 
  0
LINE
  5
5
100
AcDbEntity
  8
0
 62
    255
100
AcDbLine
 10
-0.75 
 20
 0.28125 
 30
 0 
 11
-0.6875 
 21
 0.236328125 
 31
 0 
  0
LINE
  5
6
100
AcDbEntity
  8
0
 62
    255
100
AcDbLine
 10
-0.6875 
 20
 0.236328125 
 30
 0 
 11
-0.625 
 21
 0.1953125 
 31
 0 
  0
LINE
  5
7
100
AcDbEntity
  8
0
 62
    255
100
AcDbLine
 10
-0.625 
 20
 0.1953125 
 30
 0 
 11
-0.5625 
 21
 0.158203125 
 31
 0 
  0
LINE
  5
8
100
AcDbEntity
  8
0
 62
    255
100
AcDbLine
 10
-0.5625 
 20
 0.158203125 
 30
 0 
 11
-0.5 
 21
 0.125 
 31
 0 
  0
LINE
  5
9
100
AcDbEntity
  8
0
 62
    255
100
AcDbLine
 10
-0.5 
 20
 0.125 
 30
 0 
 11
-0.4375 
 21
 0.095703125 
 31
 0 
  0
LINE
  5
A
100
AcDbEntity
  8
0
 62
    255
100
AcDbLine
 10
-0.4375 
 20
 0.095703125 
 30
 0 
 11
-0.375 
 21
 0.0703125 
 31
 0 
  0
LINE
  5
B
100
AcDbEntity
  8
0
 62
    255
100
AcDbLine
 10
-0.375 
 20
 0.0703125 
 30
 0 
 11
-0.3125 
 21
 0.048828125 
 31
 0 
  0
LINE
  5
C
100
AcDbEntity
  8
0
 62
    255
100
AcDbLine
 10
-0.3125 
 20
 0.048828125 
 30
 0 
 11
-0.25 
 21
 0.03125 
 31
 0 
  0
LINE
  5
D
100
AcDbEntity
  8
0
 62
    255
100
AcDbLine
 10
-0.25 
 20
 0.03125 
 30
 0 
 11
-0.1875 
 21
 0.017578125 
 31
 0 
  0
LINE
  5
E
100
AcDbEntity
  8
0
 62
    255
100
AcDbLine
 10
-0.1875 
 20
 0.017578125 
 30
 0 
 11
-0.125 
 21
 0.0078125 
 31
 0 
  0
LINE
  5
F
100
AcDbEntity
  8
0
 62
    255
100
AcDbLine
 10
-0.125 
 20
 0.0078125 
 30
 0 
 11
-0.0625 
 21
 0.001953125 
 31
 0 
  0
LINE
  5
10
100
AcDbEntity
  8
0
 62
    255
100
AcDbLine
 10
-0.0625 
 20
 0.001953125 
 30
 0 
 11
 0 
 21
 0 
 31
 0 
  0
LINE
  5
11
100
AcDbEntity
  8
0
 62
    255
100
AcDbLine
 10
 0 
 20
 0 
 30
 0 
 11
 0.0625 
 21
 0.001953125 
 31
 0 
  0
LINE
  5
12
100
AcDbEntity
  8
0
 62
    255
100
AcDbLine
 10
 0.0625 
 20
 0.001953125 
 30
 0 
 11
 0.125 
 21
 0.0078125 
 31
 0 
  0
LINE
  5
13
100
AcDbEntity
  8
0
 62
    255
100
AcDbLine
 10
 0.125 
 20
 0.0078125 
 30
 0 
 11
 0.1875 
 21
 0.017578125 
 31
 0 
  0
LINE
  5
14
100
AcDbEntity
  8
0
 62
    255
100
AcDbLine
 10
 0.1875 
 20
 0.017578125 
 30
 0 
 11
 0.25 
 21
 0.03125 
 31
 0 
  0
LINE
  5
15
100
AcDbEntity
  8
0
 62
    255
100
AcDbLine
 10
 0.25 
 20
 0.03125 
 30
 0 
 11
 0.3125 
 21
 0.048828125 
 31
 0 
  0
LINE
  5
16
100
AcDbEntity
  8
0
 62
    255
100
AcDbLine
 10
 0.3125 
 20
 0.048828125 
 30
 0 
 11
 0.375 
 21
 0.0703125 
 31
 0 
  0
LINE
  5
17
100
AcDbEntity
  8
0
 62
    255
100
AcDbLine
 10
 0.375 
 20
 0.0703125 
 30
 0 
 11
 0.4375 
 21
 0.095703125 
 31
 0 
  0
LINE
  5
18
100
AcDbEntity
  8
0
 62
    255
100
AcDbLine
 10
 0.4375 
 20
 0.095703125 
 30
 0 
 11
 0.5 
 21
 0.125 
 31
 0 
  0
LINE
  5
19
100
AcDbEntity
  8
0
 62
    255
100
AcDbLine
 10
 0.5 
 20
 0.125 
 30
 0 
 11
 0.5625 
 21
 0.158203125 
 31
 0 
  0
LINE
  5
1A
100
AcDbEntity
  8
0
 62
    255
100
AcDbLine
 10
 0.5625 
 20
 0.158203125 
 30
 0 
 11
 0.625 
 21
 0.1953125 
 31
 0 
  0
LINE
  5
1B
100
AcDbEntity
  8
0
 62
    255
100
AcDbLine
 10
 0.625 
 20
 0.1953125 
 30
 0 
 11
 0.6875 
 21
 0.236328125 
 31
 0 
  0
LINE
  5
1C
100
AcDbEntity
  8
0
 62
    255
100
AcDbLine
 10
 0.6875 
 20
 0.236328125 
 30
 0 
 11
 0.75 
 21
 0.28125 
 31
 0 
  0
LINE
  5
1D
100
AcDbEntity
  8
0
 62
    255
100
AcDbLine
 10
 0.75 
 20
 0.28125 
 30
 0 
 11
 0.8125 
 21
 0.330078125 
 31
 0 
  0
LINE
  5
1E
100
AcDbEntity
  8
0
 62
    255
100
AcDbLine
 10
 0.8125 
 20
 0.330078125 
 30
 0 
 11
 0.875 
 21
 0.3828125 
 31
 0 
  0
LINE
  5
1F
100
AcDbEntity
  8
0
 62
    255
100
AcDbLine
 10
 0.875 
 20
 0.3828125 
 30
 0 
 11
 0.9375 
 21
 0.439453125 
 31
 0 
  0
LINE
  5
20
100
AcDbEntity
  8
0
 62
    255
100
AcDbLine
 10
 0.9375 
 20
 0.439453125 
 30
 0 
 11
 1 
 21
 0.5 
 31
 0 
  0
ENDSEC
  0
EOF
