  0
SECTION
  2
HEADER
  9
$ACADVER
  1
AC1009
  9
$DWGCODEPAGE
  3
ansi_1252
  9
$INSBASE
 10
0.0
 20
0.0
 30
0.0
  9
$EXTMIN
 10
-33.0
 20
11.48
 30
0.0
  9
$EXTMAX
 10
33.0
 20
77.47999999999999
 30
0.0
  9
$LIMMIN
 10
0.0
 20
0.0
  9
$LIMMAX
 10
12.0
 20
9.0
  9
$ORTHOMODE
 70
     0
  9
$REGENMODE
 70
     1
  9
$FILLMODE
 70
     1
  9
$QTEXTMODE
 70
     0
  9
$MIRRTEXT
 70
     1
  9
$DRAGMODE
 70
     2
  9
$LTSCALE
 40
1.0
  9
$OSMODE
 70
    37
  9
$ATTMODE
 70
     1
  9
$TEXTSIZE
 40
0.2
  9
$TRACEWID
 40
0.05
  9
$TEXTSTYLE
  7
STANDARD
  9
$CLAYER
  8
0
  9
$CELTYPE
  6
BYLAYER
  9
$CECOLOR
 62
   256
  9
$DIMSCALE
 40
1.0
  9
$DIMASZ
 40
0.18
  9
$DIMEXO
 40
0.0625
  9
$DIMDLI
 40
0.38
  9
$DIMRND
 40
0.0
  9
$DIMDLE
 40
0.0
  9
$DIMEXE
 40
0.18
  9
$DIMTP
 40
0.0
  9
$DIMTM
 40
0.0
  9
$DIMTXT
 40
0.18
  9
$DIMCEN
 40
0.09
  9
$DIMTSZ
 40
0.0
  9
$DIMTOL
 70
     0
  9
$DIMLIM
 70
     0
  9
$DIMTIH
 70
     1
  9
$DIMTOH
 70
     1
  9
$DIMSE1
 70
     0
  9
$DIMSE2
 70
     0
  9
$DIMTAD
 70
     0
  9
$DIMZIN
 70
     0
  9
$DIMBLK
  1

  9
$DIMASO
 70
     1
  9
$DIMSHO
 70
     1
  9
$DIMPOST
  1

  9
$DIMAPOST
  1

  9
$DIMALT
 70
     0
  9
$DIMALTD
 70
     2
  9
$DIMALTF
 40
25.4
  9
$DIMLFAC
 40
1.0
  9
$DIMTOFL
 70
     0
  9
$DIMTVP
 40
0.0
  9
$DIMTIX
 70
     0
  9
$DIMSOXD
 70
     0
  9
$DIMSAH
 70
     0
  9
$DIMBLK1
  1

  9
$DIMBLK2
  1

  9
$DIMSTYLE
  2
STANDARD
  9
$DIMCLRD
 70
     0
  9
$DIMCLRE
 70
     0
  9
$DIMCLRT
 70
     0
  9
$DIMTFAC
 40
1.0
  9
$DIMGAP
 40
0.09
  9
$LUNITS
 70
     2
  9
$LUPREC
 70
     4
  9
$SKETCHINC
 40
0.1
  9
$FILLETRAD
 40
0.5
  9
$AUNITS
 70
     0
  9
$AUPREC
 70
     0
  9
$MENU
  1
.
  9
$ELEVATION
 40
0.0
  9
$PELEVATION
 40
0.0
  9
$THICKNESS
 40
0.0
  9
$LIMCHECK
 70
     0
  9
$CHAMFERA
 40
0.5
  9
$CHAMFERB
 40
0.5
  9
$SKPOLY
 70
     0
  9
$TDCREATE
 40
2454910.5
  9
$TDUPDATE
 40
2457233.620341065
  9
$TDINDWG
 40
0.0000000116
  9
$TDUSRTIMER
 40
0.0000000116
  9
$USRTIMER
 70
     1
  9
$ANGBASE
 50
0.0
  9
$ANGDIR
 70
     0
  9
$PDMODE
 70
     0
  9
$PDSIZE
 40
0.0
  9
$PLINEWID
 40
0.0
  9
$COORDS
 70
     1
  9
$SPLFRAME
 70
     0
  9
$SPLINETYPE
 70
     6
  9
$SPLINESEGS
 70
     8
  9
$ATTDIA
 70
     0
  9
$ATTREQ
 70
     1
  9
$HANDLING
 70
     1
  9
$HANDSEED
  5
15A
  9
$SURFTAB1
 70
     6
  9
$SURFTAB2
 70
     6
  9
$SURFTYPE
 70
     6
  9
$SURFU
 70
     6
  9
$SURFV
 70
     6
  9
$UCSNAME
  2

  9
$UCSORG
 10
0.0
 20
0.0
 30
0.0
  9
$UCSXDIR
 10
1.0
 20
0.0
 30
0.0
  9
$UCSYDIR
 10
0.0
 20
1.0
 30
0.0
  9
$PUCSNAME
  2

  9
$PUCSORG
 10
0.0
 20
0.0
 30
0.0
  9
$PUCSXDIR
 10
1.0
 20
0.0
 30
0.0
  9
$PUCSYDIR
 10
0.0
 20
1.0
 30
0.0
  9
$USERI1
 70
     0
  9
$USERI2
 70
     0
  9
$USERI3
 70
     0
  9
$USERI4
 70
     0
  9
$USERI5
 70
     0
  9
$USERR1
 40
0.0
  9
$USERR2
 40
0.0
  9
$USERR3
 40
0.0
  9
$USERR4
 40
0.0
  9
$USERR5
 40
0.0
  9
$WORLDVIEW
 70
     1
  9
$SHADEDGE
 70
     3
  9
$SHADEDIF
 70
    70
  9
$TILEMODE
 70
     1
  9
$MAXACTVP
 70
    64
  9
$PLIMCHECK
 70
     0
  9
$PEXTMIN
 10
1.000000000000000E+20
 20
1.000000000000000E+20
 30
1.000000000000000E+20
  9
$PEXTMAX
 10
-1.000000000000000E+20
 20
-1.000000000000000E+20
 30
-1.000000000000000E+20
  9
$PLIMMIN
 10
0.0
 20
0.0
  9
$PLIMMAX
 10
12.0
 20
9.0
  9
$UNITMODE
 70
     0
  9
$VISRETAIN
 70
     1
  9
$PLINEGEN
 70
     0
  9
$PSLTSCALE
 70
     1
  0
ENDSEC
  0
SECTION
  2
TABLES
  0
TABLE
  2
VPORT
 70
     1
  0
VPORT
  2
*ACTIVE
 70
     0
 10
0.0
 20
0.0
 11
1.0
 21
1.0
 12
10.42990654205607
 22
4.5
 13
0.0
 23
0.0
 14
0.5
 24
0.5
 15
0.5
 25
0.5
 16
0.0
 26
0.0
 36
1.0
 17
0.0
 27
0.0
 37
0.0
 40
9.0
 41
1.972972972850329
 42
50.0
 43
0.0
 44
0.0
 50
0.0
 51
0.0
 71
     0
 72
   100
 73
     1
 74
     3
 75
     0
 76
     0
 77
     0
 78
     0
  0
ENDTAB
  0
TABLE
  2
LTYPE
 70
     2
  0
LTYPE
  2
CONTINUOUS
 70
     0
  3
Solid line
 72
    65
 73
     0
 40
0.0
  0
LTYPE
  2
CONTINUOUS2
 70
     0
  3
Solid Line
 72
    65
 73
     0
 40
0.0
  0
ENDTAB
  0
TABLE
  2
LAYER
 70
     2
  0
LAYER
  2
0
 70
     0
 62
     7
  6
CONTINUOUS
  0
LAYER
  2
LAYER_1
 70
     0
 62
    18
  6
CONTINUOUS
  0
ENDTAB
  0
TABLE
  2
STYLE
 70
     1
  0
STYLE
  2
STANDARD
 70
     0
 40
0.0
 41
1.0
 50
0.0
 71
     0
 42
0.2
  3
txt
  4

  0
ENDTAB
  0
TABLE
  2
VIEW
 70
     0
  0
ENDTAB
  0
TABLE
  2
UCS
 70
     0
  0
ENDTAB
  0
TABLE
  2
APPID
 70
     1
  0
APPID
  2
ACAD
 70
     0
  0
ENDTAB
  0
TABLE
  2
DIMSTYLE
 70
     1
  0
DIMSTYLE
  2
STANDARD
 70
     0
  3

  4

  5

  6

  7

 40
1.0
 41
0.18
 42
0.0625
 43
0.38
 44
0.18
 45
0.0
 46
0.0
 47
0.0
 48
0.0
140
0.18
141
0.09
142
0.0
143
25.4
144
1.0
145
0.0
146
1.0
147
0.09
 71
     0
 72
     0
 73
     1
 74
     1
 75
     0
 76
     0
 77
     0
 78
     0
170
     0
171
     2
172
     0
173
     0
174
     0
175
     0
176
     0
177
     0
178
     0
  0
ENDTAB
  0
ENDSEC
  0
SECTION
  2
BLOCKS
  0
BLOCK
  8
0
  2
$MODEL_SPACE
 70
     0
 10
0.0
 20
0.0
 30
0.0
  3
$MODEL_SPACE
  1

  0
ENDBLK
  5
21
  8
0
  0
BLOCK
 67
     1
  8
0
  2
$PAPER_SPACE
 70
     0
 10
0.0
 20
0.0
 30
0.0
  3
$PAPER_SPACE
  1

  0
ENDBLK
  5
1D
 67
     1
  8
0
  0
ENDSEC
  0
SECTION
  2
ENTITIES
  0
POLYLINE
  5
41
  8
LAYER_1
 66
     1
 10
0.0
 20
0.0
 30
0.0
 70
     1
  0
VERTEX
  5
4C
  8
LAYER_1
 10
-19.99999436313693
 20
69.0382184591647
 30
0.0
  0
VERTEX
  5
4D
  8
LAYER_1
 10
-20.22463507507564
 20
69.02687507954394
 30
0.0
  0
VERTEX
  5
4E
  8
LAYER_1
 10
-20.44278664654792
 20
68.99358119608056
 30
0.0
  0
VERTEX
  5
4F
  8
LAYER_1
 10
-20.65334469445548
 20
68.93944119187282
 30
0.0
  0
VERTEX
  5
50
  8
LAYER_1
 10
-20.85520483570001
 20
68.86555945001905
 30
0.0
  0
VERTEX
  5
51
  8
LAYER_1
 10
-21.04726268718323
 20
68.77304035361756
 30
0.0
  0
VERTEX
  5
52
  8
LAYER_1
 10
-21.22841386580681
 20
68.66298828576662
 30
0.0
  0
VERTEX
  5
53
  8
LAYER_1
 10
-21.39755398847247
 20
68.53650762956455
 30
0.0
  0
VERTEX
  5
54
  8
LAYER_1
 10
-21.5535786720819
 20
68.39470276810965
 30
0.0
  0
VERTEX
  5
55
  8
LAYER_1
 10
-21.69538353353679
 20
68.23867808450021
 30
0.0
  0
VERTEX
  5
56
  8
LAYER_1
 10
-21.82186418973886
 20
68.06953796183456
 30
0.0
  0
VERTEX
  5
57
  8
LAYER_1
 10
-21.9319162575898
 20
67.88838678321098
 30
0.0
  0
VERTEX
  5
58
  8
LAYER_1
 10
-22.02443535399129
 20
67.69632893172776
 30
0.0
  0
VERTEX
  5
59
  8
LAYER_1
 10
-22.09831709584506
 20
67.49446879048323
 30
0.0
  0
VERTEX
  5
5A
  8
LAYER_1
 10
-22.15245710005279
 20
67.28391074257567
 30
0.0
  0
VERTEX
  5
5B
  8
LAYER_1
 10
-22.18575098351618
 20
67.0657591711034
 30
0.0
  0
VERTEX
  5
5C
  8
LAYER_1
 10
-22.19709436313693
 20
66.84111845916468
 30
0.0
  0
VERTEX
  5
5D
  8
LAYER_1
 10
-22.18575098351618
 20
66.61647774722596
 30
0.0
  0
VERTEX
  5
5E
  8
LAYER_1
 10
-22.15245710005279
 20
66.39832617575368
 30
0.0
  0
VERTEX
  5
5F
  8
LAYER_1
 10
-22.09831709584506
 20
66.18776812784611
 30
0.0
  0
VERTEX
  5
60
  8
LAYER_1
 10
-22.02443535399129
 20
65.98590798660157
 30
0.0
  0
VERTEX
  5
61
  8
LAYER_1
 10
-21.9319162575898
 20
65.79385013511836
 30
0.0
  0
VERTEX
  5
62
  8
LAYER_1
 10
-21.82186418973886
 20
65.61269895649478
 30
0.0
  0
VERTEX
  5
63
  8
LAYER_1
 10
-21.69538353353679
 20
65.44355883382912
 30
0.0
  0
VERTEX
  5
64
  8
LAYER_1
 10
-21.5535786720819
 20
65.2875341502197
 30
0.0
  0
VERTEX
  5
65
  8
LAYER_1
 10
-21.39755398847247
 20
65.1457292887648
 30
0.0
  0
VERTEX
  5
66
  8
LAYER_1
 10
-21.22841386580681
 20
65.01924863256272
 30
0.0
  0
VERTEX
  5
67
  8
LAYER_1
 10
-21.04726268718323
 20
64.90919656471179
 30
0.0
  0
VERTEX
  5
68
  8
LAYER_1
 10
-20.85520483570001
 20
64.81667746831029
 30
0.0
  0
VERTEX
  5
69
  8
LAYER_1
 10
-20.65334469445548
 20
64.74279572645652
 30
0.0
  0
VERTEX
  5
6A
  8
LAYER_1
 10
-20.44278664654792
 20
64.6886557222488
 30
0.0
  0
VERTEX
  5
6B
  8
LAYER_1
 10
-20.22463507507564
 20
64.6553618387854
 30
0.0
  0
VERTEX
  5
6C
  8
LAYER_1
 10
-19.99999436313693
 20
64.64401845916466
 30
0.0
  0
VERTEX
  5
6D
  8
LAYER_1
 10
-19.77535365119823
 20
64.6553618387854
 30
0.0
  0
VERTEX
  5
6E
  8
LAYER_1
 10
-19.55720207972595
 20
64.6886557222488
 30
0.0
  0
VERTEX
  5
6F
  8
LAYER_1
 10
-19.34664403181839
 20
64.74279572645652
 30
0.0
  0
VERTEX
  5
70
  8
LAYER_1
 10
-19.14478389057385
 20
64.81667746831029
 30
0.0
  0
VERTEX
  5
71
  8
LAYER_1
 10
-18.95272603909063
 20
64.90919656471179
 30
0.0
  0
VERTEX
  5
72
  8
LAYER_1
 10
-18.77157486046705
 20
65.01924863256272
 30
0.0
  0
VERTEX
  5
73
  8
LAYER_1
 10
-18.60243473780139
 20
65.1457292887648
 30
0.0
  0
VERTEX
  5
74
  8
LAYER_1
 10
-18.44641005419196
 20
65.2875341502197
 30
0.0
  0
VERTEX
  5
75
  8
LAYER_1
 10
-18.30460519273707
 20
65.44355883382912
 30
0.0
  0
VERTEX
  5
76
  8
LAYER_1
 10
-18.178124536535
 20
65.61269895649478
 30
0.0
  0
VERTEX
  5
77
  8
LAYER_1
 10
-18.06807246868406
 20
65.79385013511836
 30
0.0
  0
VERTEX
  5
78
  8
LAYER_1
 10
-17.97555337228257
 20
65.98590798660157
 30
0.0
  0
VERTEX
  5
79
  8
LAYER_1
 10
-17.9016716304288
 20
66.18776812784611
 30
0.0
  0
VERTEX
  5
7A
  8
LAYER_1
 10
-17.84753162622107
 20
66.39832617575368
 30
0.0
  0
VERTEX
  5
7B
  8
LAYER_1
 10
-17.81423774275768
 20
66.61647774722596
 30
0.0
  0
VERTEX
  5
7C
  8
LAYER_1
 10
-17.80289436313693
 20
66.84111845916468
 30
0.0
  0
VERTEX
  5
7D
  8
LAYER_1
 10
-17.81423774275768
 20
67.0657591711034
 30
0.0
  0
VERTEX
  5
7E
  8
LAYER_1
 10
-17.84753162622107
 20
67.28391074257567
 30
0.0
  0
VERTEX
  5
7F
  8
LAYER_1
 10
-17.9016716304288
 20
67.49446879048323
 30
0.0
  0
VERTEX
  5
80
  8
LAYER_1
 10
-17.97555337228257
 20
67.69632893172776
 30
0.0
  0
VERTEX
  5
81
  8
LAYER_1
 10
-18.06807246868406
 20
67.88838678321098
 30
0.0
  0
VERTEX
  5
82
  8
LAYER_1
 10
-18.178124536535
 20
68.06953796183456
 30
0.0
  0
VERTEX
  5
83
  8
LAYER_1
 10
-18.30460519273707
 20
68.23867808450021
 30
0.0
  0
VERTEX
  5
84
  8
LAYER_1
 10
-18.44641005419196
 20
68.39470276810965
 30
0.0
  0
VERTEX
  5
85
  8
LAYER_1
 10
-18.60243473780139
 20
68.53650762956455
 30
0.0
  0
VERTEX
  5
86
  8
LAYER_1
 10
-18.77157486046705
 20
68.66298828576662
 30
0.0
  0
VERTEX
  5
87
  8
LAYER_1
 10
-18.95272603909063
 20
68.77304035361756
 30
0.0
  0
VERTEX
  5
88
  8
LAYER_1
 10
-19.14478389057385
 20
68.86555945001905
 30
0.0
  0
VERTEX
  5
89
  8
LAYER_1
 10
-19.34664403181839
 20
68.93944119187282
 30
0.0
  0
VERTEX
  5
8A
  8
LAYER_1
 10
-19.55720207972595
 20
68.99358119608056
 30
0.0
  0
VERTEX
  5
8B
  8
LAYER_1
 10
-19.77535365119823
 20
69.02687507954394
 30
0.0
  0
SEQEND
  5
8C
  8
LAYER_1
  0
POLYLINE
  5
42
  8
LAYER_1
 66
     1
 10
0.0
 20
0.0
 30
0.0
 70
     1
  0
VERTEX
  5
8D
  8
LAYER_1
 10
19.99999130399934
 20
69.03824224194393
 30
0.0
  0
VERTEX
  5
8E
  8
LAYER_1
 10
19.77535059206064
 20
69.02689886232318
 30
0.0
  0
VERTEX
  5
8F
  8
LAYER_1
 10
19.55719902058836
 20
68.99360497885979
 30
0.0
  0
VERTEX
  5
90
  8
LAYER_1
 10
19.3466409726808
 20
68.93946497465205
 30
0.0
  0
VERTEX
  5
91
  8
LAYER_1
 10
19.14478083143626
 20
68.86558323279829
 30
0.0
  0
VERTEX
  5
92
  8
LAYER_1
 10
18.95272297995304
 20
68.7730641363968
 30
0.0
  0
VERTEX
  5
93
  8
LAYER_1
 10
18.77157180132946
 20
68.66301206854585
 30
0.0
  0
VERTEX
  5
94
  8
LAYER_1
 10
18.6024316786638
 20
68.53653141234379
 30
0.0
  0
VERTEX
  5
95
  8
LAYER_1
 10
18.44640699505437
 20
68.39472655088889
 30
0.0
  0
VERTEX
  5
96
  8
LAYER_1
 10
18.30460213359948
 20
68.23870186727945
 30
0.0
  0
VERTEX
  5
97
  8
LAYER_1
 10
18.17812147739741
 20
68.0695617446138
 30
0.0
  0
VERTEX
  5
98
  8
LAYER_1
 10
18.06806940954647
 20
67.88841056599021
 30
0.0
  0
VERTEX
  5
99
  8
LAYER_1
 10
17.97555031314498
 20
67.696352714507
 30
0.0
  0
VERTEX
  5
9A
  8
LAYER_1
 10
17.90166857129121
 20
67.49449257326246
 30
0.0
  0
VERTEX
  5
9B
  8
LAYER_1
 10
17.84752856708348
 20
67.28393452535491
 30
0.0
  0
VERTEX
  5
9C
  8
LAYER_1
 10
17.81423468362009
 20
67.06578295388263
 30
0.0
  0
VERTEX
  5
9D
  8
LAYER_1
 10
17.80289130399934
 20
66.84114224194391
 30
0.0
  0
VERTEX
  5
9E
  8
LAYER_1
 10
17.81423468362009
 20
66.6165015300052
 30
0.0
  0
VERTEX
  5
9F
  8
LAYER_1
 10
17.84752856708348
 20
66.39834995853292
 30
0.0
  0
VERTEX
  5
A0
  8
LAYER_1
 10
17.90166857129121
 20
66.18779191062535
 30
0.0
  0
VERTEX
  5
A1
  8
LAYER_1
 10
17.97555031314498
 20
65.98593176938081
 30
0.0
  0
VERTEX
  5
A2
  8
LAYER_1
 10
18.06806940954647
 20
65.7938739178976
 30
0.0
  0
VERTEX
  5
A3
  8
LAYER_1
 10
18.17812147739741
 20
65.61272273927402
 30
0.0
  0
VERTEX
  5
A4
  8
LAYER_1
 10
18.30460213359948
 20
65.44358261660835
 30
0.0
  0
VERTEX
  5
A5
  8
LAYER_1
 10
18.44640699505437
 20
65.28755793299894
 30
0.0
  0
VERTEX
  5
A6
  8
LAYER_1
 10
18.6024316786638
 20
65.14575307154404
 30
0.0
  0
VERTEX
  5
A7
  8
LAYER_1
 10
18.77157180132946
 20
65.01927241534196
 30
0.0
  0
VERTEX
  5
A8
  8
LAYER_1
 10
18.95272297995304
 20
64.90922034749103
 30
0.0
  0
VERTEX
  5
A9
  8
LAYER_1
 10
19.14478083143626
 20
64.81670125108953
 30
0.0
  0
VERTEX
  5
AA
  8
LAYER_1
 10
19.3466409726808
 20
64.74281950923576
 30
0.0
  0
VERTEX
  5
AB
  8
LAYER_1
 10
19.55719902058836
 20
64.68867950502803
 30
0.0
  0
VERTEX
  5
AC
  8
LAYER_1
 10
19.77535059206064
 20
64.65538562156463
 30
0.0
  0
VERTEX
  5
AD
  8
LAYER_1
 10
19.99999130399934
 20
64.64404224194388
 30
0.0
  0
VERTEX
  5
AE
  8
LAYER_1
 10
20.22463201593805
 20
64.65538562156463
 30
0.0
  0
VERTEX
  5
AF
  8
LAYER_1
 10
20.44278358741033
 20
64.68867950502803
 30
0.0
  0
VERTEX
  5
B0
  8
LAYER_1
 10
20.65334163531789
 20
64.74281950923576
 30
0.0
  0
VERTEX
  5
B1
  8
LAYER_1
 10
20.85520177656242
 20
64.81670125108953
 30
0.0
  0
VERTEX
  5
B2
  8
LAYER_1
 10
21.04725962804564
 20
64.90922034749103
 30
0.0
  0
VERTEX
  5
B3
  8
LAYER_1
 10
21.22841080666922
 20
65.01927241534196
 30
0.0
  0
VERTEX
  5
B4
  8
LAYER_1
 10
21.39755092933487
 20
65.14575307154404
 30
0.0
  0
VERTEX
  5
B5
  8
LAYER_1
 10
21.5535756129443
 20
65.28755793299894
 30
0.0
  0
VERTEX
  5
B6
  8
LAYER_1
 10
21.69538047439919
 20
65.44358261660835
 30
0.0
  0
VERTEX
  5
B7
  8
LAYER_1
 10
21.82186113060126
 20
65.61272273927402
 30
0.0
  0
VERTEX
  5
B8
  8
LAYER_1
 10
21.9319131984522
 20
65.7938739178976
 30
0.0
  0
VERTEX
  5
B9
  8
LAYER_1
 10
22.0244322948537
 20
65.98593176938081
 30
0.0
  0
VERTEX
  5
BA
  8
LAYER_1
 10
22.09831403670747
 20
66.18779191062535
 30
0.0
  0
VERTEX
  5
BB
  8
LAYER_1
 10
22.1524540409152
 20
66.39834995853292
 30
0.0
  0
VERTEX
  5
BC
  8
LAYER_1
 10
22.18574792437859
 20
66.6165015300052
 30
0.0
  0
VERTEX
  5
BD
  8
LAYER_1
 10
22.19709130399934
 20
66.84114224194391
 30
0.0
  0
VERTEX
  5
BE
  8
LAYER_1
 10
22.18574792437859
 20
67.06578295388263
 30
0.0
  0
VERTEX
  5
BF
  8
LAYER_1
 10
22.1524540409152
 20
67.28393452535491
 30
0.0
  0
VERTEX
  5
C0
  8
LAYER_1
 10
22.09831403670747
 20
67.49449257326246
 30
0.0
  0
VERTEX
  5
C1
  8
LAYER_1
 10
22.0244322948537
 20
67.696352714507
 30
0.0
  0
VERTEX
  5
C2
  8
LAYER_1
 10
21.9319131984522
 20
67.88841056599021
 30
0.0
  0
VERTEX
  5
C3
  8
LAYER_1
 10
21.82186113060126
 20
68.0695617446138
 30
0.0
  0
VERTEX
  5
C4
  8
LAYER_1
 10
21.69538047439919
 20
68.23870186727945
 30
0.0
  0
VERTEX
  5
C5
  8
LAYER_1
 10
21.5535756129443
 20
68.39472655088889
 30
0.0
  0
VERTEX
  5
C6
  8
LAYER_1
 10
21.39755092933487
 20
68.53653141234379
 30
0.0
  0
VERTEX
  5
C7
  8
LAYER_1
 10
21.22841080666922
 20
68.66301206854585
 30
0.0
  0
VERTEX
  5
C8
  8
LAYER_1
 10
21.04725962804564
 20
68.7730641363968
 30
0.0
  0
VERTEX
  5
C9
  8
LAYER_1
 10
20.85520177656242
 20
68.86558323279829
 30
0.0
  0
VERTEX
  5
CA
  8
LAYER_1
 10
20.65334163531789
 20
68.93946497465205
 30
0.0
  0
VERTEX
  5
CB
  8
LAYER_1
 10
20.44278358741033
 20
68.99360497885979
 30
0.0
  0
VERTEX
  5
CC
  8
LAYER_1
 10
20.22463201593805
 20
69.02689886232318
 30
0.0
  0
SEQEND
  5
CD
  8
LAYER_1
  0
POLYLINE
  5
43
  8
LAYER_1
 66
     1
 10
0.0
 20
0.0
 30
0.0
 70
     1
  0
VERTEX
  5
CE
  8
LAYER_1
 10
20.00000132650239
 20
24.31690681089318
 30
0.0
  0
VERTEX
  5
CF
  8
LAYER_1
 10
19.77536061456368
 20
24.30556343127243
 30
0.0
  0
VERTEX
  5
D0
  8
LAYER_1
 10
19.5572090430914
 20
24.27226954780904
 30
0.0
  0
VERTEX
  5
D1
  8
LAYER_1
 10
19.34665099518384
 20
24.2181295436013
 30
0.0
  0
VERTEX
  5
D2
  8
LAYER_1
 10
19.14479085393931
 20
24.14424780174754
 30
0.0
  0
VERTEX
  5
D3
  8
LAYER_1
 10
18.95273300245609
 20
24.05172870534604
 30
0.0
  0
VERTEX
  5
D4
  8
LAYER_1
 10
18.77158182383251
 20
23.94167663749511
 30
0.0
  0
VERTEX
  5
D5
  8
LAYER_1
 10
18.60244170116685
 20
23.81519598129304
 30
0.0
  0
VERTEX
  5
D6
  8
LAYER_1
 10
18.44641701755742
 20
23.67339111983814
 30
0.0
  0
VERTEX
  5
D7
  8
LAYER_1
 10
18.30461215610253
 20
23.51736643622872
 30
0.0
  0
VERTEX
  5
D8
  8
LAYER_1
 10
18.17813149990046
 20
23.34822631356306
 30
0.0
  0
VERTEX
  5
D9
  8
LAYER_1
 10
18.06807943204952
 20
23.16707513493947
 30
0.0
  0
VERTEX
  5
DA
  8
LAYER_1
 10
17.97556033564803
 20
22.97501728345626
 30
0.0
  0
VERTEX
  5
DB
  8
LAYER_1
 10
17.90167859379426
 20
22.77315714221172
 30
0.0
  0
VERTEX
  5
DC
  8
LAYER_1
 10
17.84753858958653
 20
22.56259909430416
 30
0.0
  0
VERTEX
  5
DD
  8
LAYER_1
 10
17.81424470612314
 20
22.34444752283188
 30
0.0
  0
VERTEX
  5
DE
  8
LAYER_1
 10
17.80290132650239
 20
22.11980681089317
 30
0.0
  0
VERTEX
  5
DF
  8
LAYER_1
 10
17.81424470612314
 20
21.89516609895447
 30
0.0
  0
VERTEX
  5
E0
  8
LAYER_1
 10
17.84753858958653
 20
21.67701452748219
 30
0.0
  0
VERTEX
  5
E1
  8
LAYER_1
 10
17.90167859379426
 20
21.46645647957463
 30
0.0
  0
VERTEX
  5
E2
  8
LAYER_1
 10
17.97556033564803
 20
21.26459633833009
 30
0.0
  0
VERTEX
  5
E3
  8
LAYER_1
 10
18.06807943204952
 20
21.07253848684688
 30
0.0
  0
VERTEX
  5
E4
  8
LAYER_1
 10
18.17813149990046
 20
20.8913873082233
 30
0.0
  0
VERTEX
  5
E5
  8
LAYER_1
 10
18.30461215610253
 20
20.72224718555764
 30
0.0
  0
VERTEX
  5
E6
  8
LAYER_1
 10
18.44641701755742
 20
20.56622250194821
 30
0.0
  0
VERTEX
  5
E7
  8
LAYER_1
 10
18.60244170116685
 20
20.42441764049332
 30
0.0
  0
VERTEX
  5
E8
  8
LAYER_1
 10
18.77158182383251
 20
20.29793698429125
 30
0.0
  0
VERTEX
  5
E9
  8
LAYER_1
 10
18.95273300245609
 20
20.18788491644031
 30
0.0
  0
VERTEX
  5
EA
  8
LAYER_1
 10
19.14479085393931
 20
20.09536582003881
 30
0.0
  0
VERTEX
  5
EB
  8
LAYER_1
 10
19.34665099518384
 20
20.02148407818505
 30
0.0
  0
VERTEX
  5
EC
  8
LAYER_1
 10
19.5572090430914
 20
19.96734407397732
 30
0.0
  0
VERTEX
  5
ED
  8
LAYER_1
 10
19.77536061456368
 20
19.93405019051393
 30
0.0
  0
VERTEX
  5
EE
  8
LAYER_1
 10
20.00000132650239
 20
19.92270681089317
 30
0.0
  0
VERTEX
  5
EF
  8
LAYER_1
 10
20.22464203844109
 20
19.93405019051393
 30
0.0
  0
VERTEX
  5
F0
  8
LAYER_1
 10
20.44279360991337
 20
19.96734407397732
 30
0.0
  0
VERTEX
  5
F1
  8
LAYER_1
 10
20.65335165782093
 20
20.02148407818505
 30
0.0
  0
VERTEX
  5
F2
  8
LAYER_1
 10
20.85521179906547
 20
20.09536582003881
 30
0.0
  0
VERTEX
  5
F3
  8
LAYER_1
 10
21.04726965054869
 20
20.18788491644031
 30
0.0
  0
VERTEX
  5
F4
  8
LAYER_1
 10
21.22842082917226
 20
20.29793698429125
 30
0.0
  0
VERTEX
  5
F5
  8
LAYER_1
 10
21.39756095183792
 20
20.42441764049332
 30
0.0
  0
VERTEX
  5
F6
  8
LAYER_1
 10
21.55358563544735
 20
20.56622250194821
 30
0.0
  0
VERTEX
  5
F7
  8
LAYER_1
 10
21.69539049690224
 20
20.72224718555764
 30
0.0
  0
VERTEX
  5
F8
  8
LAYER_1
 10
21.82187115310431
 20
20.8913873082233
 30
0.0
  0
VERTEX
  5
F9
  8
LAYER_1
 10
21.93192322095525
 20
21.07253848684688
 30
0.0
  0
VERTEX
  5
FA
  8
LAYER_1
 10
22.02444231735675
 20
21.26459633833009
 30
0.0
  0
VERTEX
  5
FB
  8
LAYER_1
 10
22.09832405921052
 20
21.46645647957463
 30
0.0
  0
VERTEX
  5
FC
  8
LAYER_1
 10
22.15246406341825
 20
21.67701452748219
 30
0.0
  0
VERTEX
  5
FD
  8
LAYER_1
 10
22.18575794688164
 20
21.89516609895447
 30
0.0
  0
VERTEX
  5
FE
  8
LAYER_1
 10
22.19710132650239
 20
22.11980681089317
 30
0.0
  0
VERTEX
  5
FF
  8
LAYER_1
 10
22.18575794688164
 20
22.34444752283188
 30
0.0
  0
VERTEX
  5
100
  8
LAYER_1
 10
22.15246406341825
 20
22.56259909430416
 30
0.0
  0
VERTEX
  5
101
  8
LAYER_1
 10
22.09832405921052
 20
22.77315714221172
 30
0.0
  0
VERTEX
  5
102
  8
LAYER_1
 10
22.02444231735675
 20
22.97501728345626
 30
0.0
  0
VERTEX
  5
103
  8
LAYER_1
 10
21.93192322095525
 20
23.16707513493947
 30
0.0
  0
VERTEX
  5
104
  8
LAYER_1
 10
21.82187115310431
 20
23.34822631356306
 30
0.0
  0
VERTEX
  5
105
  8
LAYER_1
 10
21.69539049690224
 20
23.51736643622872
 30
0.0
  0
VERTEX
  5
106
  8
LAYER_1
 10
21.55358563544735
 20
23.67339111983814
 30
0.0
  0
VERTEX
  5
107
  8
LAYER_1
 10
21.39756095183792
 20
23.81519598129304
 30
0.0
  0
VERTEX
  5
108
  8
LAYER_1
 10
21.22842082917226
 20
23.94167663749511
 30
0.0
  0
VERTEX
  5
109
  8
LAYER_1
 10
21.04726965054869
 20
24.05172870534604
 30
0.0
  0
VERTEX
  5
10A
  8
LAYER_1
 10
20.85521179906547
 20
24.14424780174754
 30
0.0
  0
VERTEX
  5
10B
  8
LAYER_1
 10
20.65335165782093
 20
24.2181295436013
 30
0.0
  0
VERTEX
  5
10C
  8
LAYER_1
 10
20.44279360991337
 20
24.27226954780904
 30
0.0
  0
VERTEX
  5
10D
  8
LAYER_1
 10
20.22464203844109
 20
24.30556343127243
 30
0.0
  0
SEQEND
  5
10E
  8
LAYER_1
  0
POLYLINE
  5
44
  8
LAYER_1
 66
     1
 10
0.0
 20
0.0
 30
0.0
 70
     1
  0
VERTEX
  5
10F
  8
LAYER_1
 10
-20.00000215206993
 20
24.3169078149358
 30
0.0
  0
VERTEX
  5
110
  8
LAYER_1
 10
-20.22464286400864
 20
24.30556443531505
 30
0.0
  0
VERTEX
  5
111
  8
LAYER_1
 10
-20.44279443548092
 20
24.27227055185166
 30
0.0
  0
VERTEX
  5
112
  8
LAYER_1
 10
-20.65335248338847
 20
24.21813054764393
 30
0.0
  0
VERTEX
  5
113
  8
LAYER_1
 10
-20.85521262463301
 20
24.14424880579016
 30
0.0
  0
VERTEX
  5
114
  8
LAYER_1
 10
-21.04727047611622
 20
24.05172970938867
 30
0.0
  0
VERTEX
  5
115
  8
LAYER_1
 10
-21.22842165473981
 20
23.94167764153773
 30
0.0
  0
VERTEX
  5
116
  8
LAYER_1
 10
-21.39756177740547
 20
23.81519698533566
 30
0.0
  0
VERTEX
  5
117
  8
LAYER_1
 10
-21.55358646101489
 20
23.67339212388077
 30
0.0
  0
VERTEX
  5
118
  8
LAYER_1
 10
-21.69539132246979
 20
23.51736744027134
 30
0.0
  0
VERTEX
  5
119
  8
LAYER_1
 10
-21.82187197867186
 20
23.34822731760568
 30
0.0
  0
VERTEX
  5
11A
  8
LAYER_1
 10
-21.93192404652279
 20
23.1670761389821
 30
0.0
  0
VERTEX
  5
11B
  8
LAYER_1
 10
-22.02444314292429
 20
22.97501828749888
 30
0.0
  0
VERTEX
  5
11C
  8
LAYER_1
 10
-22.09832488477806
 20
22.77315814625435
 30
0.0
  0
VERTEX
  5
11D
  8
LAYER_1
 10
-22.15246488898579
 20
22.56260009834678
 30
0.0
  0
VERTEX
  5
11E
  8
LAYER_1
 10
-22.18575877244918
 20
22.3444485268745
 30
0.0
  0
VERTEX
  5
11F
  8
LAYER_1
 10
-22.19710215206993
 20
22.1198078149358
 30
0.0
  0
VERTEX
  5
120
  8
LAYER_1
 10
-22.18575877244918
 20
21.89516710299709
 30
0.0
  0
VERTEX
  5
121
  8
LAYER_1
 10
-22.15246488898579
 20
21.67701553152481
 30
0.0
  0
VERTEX
  5
122
  8
LAYER_1
 10
-22.09832488477806
 20
21.46645748361725
 30
0.0
  0
VERTEX
  5
123
  8
LAYER_1
 10
-22.02444314292429
 20
21.26459734237272
 30
0.0
  0
VERTEX
  5
124
  8
LAYER_1
 10
-21.93192404652279
 20
21.0725394908895
 30
0.0
  0
VERTEX
  5
125
  8
LAYER_1
 10
-21.82187197867186
 20
20.89138831226592
 30
0.0
  0
VERTEX
  5
126
  8
LAYER_1
 10
-21.69539132246979
 20
20.72224818960026
 30
0.0
  0
VERTEX
  5
127
  8
LAYER_1
 10
-21.55358646101489
 20
20.56622350599083
 30
0.0
  0
VERTEX
  5
128
  8
LAYER_1
 10
-21.39756177740547
 20
20.42441864453594
 30
0.0
  0
VERTEX
  5
129
  8
LAYER_1
 10
-21.22842165473981
 20
20.29793798833387
 30
0.0
  0
VERTEX
  5
12A
  8
LAYER_1
 10
-21.04727047611622
 20
20.18788592048293
 30
0.0
  0
VERTEX
  5
12B
  8
LAYER_1
 10
-20.85521262463301
 20
20.09536682408144
 30
0.0
  0
VERTEX
  5
12C
  8
LAYER_1
 10
-20.65335248338847
 20
20.02148508222767
 30
0.0
  0
VERTEX
  5
12D
  8
LAYER_1
 10
-20.44279443548092
 20
19.96734507801994
 30
0.0
  0
VERTEX
  5
12E
  8
LAYER_1
 10
-20.22464286400864
 20
19.93405119455655
 30
0.0
  0
VERTEX
  5
12F
  8
LAYER_1
 10
-20.00000215206993
 20
19.9227078149358
 30
0.0
  0
VERTEX
  5
130
  8
LAYER_1
 10
-19.77536144013122
 20
19.93405119455655
 30
0.0
  0
VERTEX
  5
131
  8
LAYER_1
 10
-19.55720986865894
 20
19.96734507801994
 30
0.0
  0
VERTEX
  5
132
  8
LAYER_1
 10
-19.34665182075138
 20
20.02148508222767
 30
0.0
  0
VERTEX
  5
133
  8
LAYER_1
 10
-19.14479167950685
 20
20.09536682408144
 30
0.0
  0
VERTEX
  5
134
  8
LAYER_1
 10
-18.95273382802363
 20
20.18788592048293
 30
0.0
  0
VERTEX
  5
135
  8
LAYER_1
 10
-18.77158264940005
 20
20.29793798833387
 30
0.0
  0
VERTEX
  5
136
  8
LAYER_1
 10
-18.60244252673439
 20
20.42441864453594
 30
0.0
  0
VERTEX
  5
137
  8
LAYER_1
 10
-18.44641784312496
 20
20.56622350599083
 30
0.0
  0
VERTEX
  5
138
  8
LAYER_1
 10
-18.30461298167007
 20
20.72224818960026
 30
0.0
  0
VERTEX
  5
139
  8
LAYER_1
 10
-18.178132325468
 20
20.89138831226592
 30
0.0
  0
VERTEX
  5
13A
  8
LAYER_1
 10
-18.06808025761706
 20
21.0725394908895
 30
0.0
  0
VERTEX
  5
13B
  8
LAYER_1
 10
-17.97556116121557
 20
21.26459734237272
 30
0.0
  0
VERTEX
  5
13C
  8
LAYER_1
 10
-17.9016794193618
 20
21.46645748361725
 30
0.0
  0
VERTEX
  5
13D
  8
LAYER_1
 10
-17.84753941515407
 20
21.67701553152481
 30
0.0
  0
VERTEX
  5
13E
  8
LAYER_1
 10
-17.81424553169068
 20
21.89516710299709
 30
0.0
  0
VERTEX
  5
13F
  8
LAYER_1
 10
-17.80290215206993
 20
22.1198078149358
 30
0.0
  0
VERTEX
  5
140
  8
LAYER_1
 10
-17.81424553169068
 20
22.3444485268745
 30
0.0
  0
VERTEX
  5
141
  8
LAYER_1
 10
-17.84753941515407
 20
22.56260009834678
 30
0.0
  0
VERTEX
  5
142
  8
LAYER_1
 10
-17.9016794193618
 20
22.77315814625435
 30
0.0
  0
VERTEX
  5
143
  8
LAYER_1
 10
-17.97556116121557
 20
22.97501828749888
 30
0.0
  0
VERTEX
  5
144
  8
LAYER_1
 10
-18.06808025761706
 20
23.1670761389821
 30
0.0
  0
VERTEX
  5
145
  8
LAYER_1
 10
-18.178132325468
 20
23.34822731760568
 30
0.0
  0
VERTEX
  5
146
  8
LAYER_1
 10
-18.30461298167007
 20
23.51736744027134
 30
0.0
  0
VERTEX
  5
147
  8
LAYER_1
 10
-18.44641784312496
 20
23.67339212388077
 30
0.0
  0
VERTEX
  5
148
  8
LAYER_1
 10
-18.60244252673439
 20
23.81519698533566
 30
0.0
  0
VERTEX
  5
149
  8
LAYER_1
 10
-18.77158264940005
 20
23.94167764153773
 30
0.0
  0
VERTEX
  5
14A
  8
LAYER_1
 10
-18.95273382802363
 20
24.05172970938867
 30
0.0
  0
VERTEX
  5
14B
  8
LAYER_1
 10
-19.14479167950685
 20
24.14424880579016
 30
0.0
  0
VERTEX
  5
14C
  8
LAYER_1
 10
-19.34665182075138
 20
24.21813054764393
 30
0.0
  0
VERTEX
  5
14D
  8
LAYER_1
 10
-19.55720986865894
 20
24.27227055185166
 30
0.0
  0
VERTEX
  5
14E
  8
LAYER_1
 10
-19.77536144013122
 20
24.30556443531505
 30
0.0
  0
SEQEND
  5
14F
  8
LAYER_1
  0
POLYLINE
  5
45
  8
LAYER_1
 66
     1
 10
0.0
 20
0.0
 30
0.0
 70
     1
  0
VERTEX
  5
150
  8
LAYER_1
 10
-33.0
 20
11.48
 30
0.0
  0
VERTEX
  5
151
  8
LAYER_1
 10
33.0
 20
11.48
 30
0.0
  0
VERTEX
  5
152
  8
LAYER_1
 10
33.0
 20
77.47999999999999
 30
0.0
  0
VERTEX
  5
153
  8
LAYER_1
 10
-33.0
 20
77.47999999999999
 30
0.0
  0
SEQEND
  5
154
  8
LAYER_1
  0
POLYLINE
  5
46
  8
LAYER_1
 66
     1
 10
0.0
 20
0.0
 30
0.0
 70
     1
  0
VERTEX
  5
155
  8
LAYER_1
 10
0.0
 20
66.98045649072755
 30
0.0
 42
0.4142135623730951
  0
VERTEX
  5
156
  8
LAYER_1
 10
-22.5
 20
44.48045649072755
 30
0.0
 42
0.4142135623730951
  0
VERTEX
  5
157
  8
LAYER_1
 10
0.0
 20
21.98045649072755
 30
0.0
 42
0.4142135623730951
  0
VERTEX
  5
158
  8
LAYER_1
 10
22.5
 20
44.48045649072755
 30
0.0
 42
0.4142135623730951
  0
SEQEND
  5
159
  8
LAYER_1
  0
ENDSEC
  0
EOF
