  0
SECTION
  2
HEADER
  9
$ACADVER
  1
AC1009
  9
$DWGCODEPAGE
  3
ansi_1252
  9
$INSBASE
 10
0.0
 20
0.0
 30
0.0
  9
$EXTMIN
 10
-33.5
 20
-33.5
 30
0.0
  9
$EXTMAX
 10
33.5
 20
33.5
 30
0.0
  9
$LIMMIN
 10
0.0
 20
0.0
  9
$LIMMAX
 10
12.0
 20
9.0
  9
$ORTHOMODE
 70
     0
  9
$REGENMODE
 70
     1
  9
$FILLMODE
 70
     1
  9
$QTEXTMODE
 70
     0
  9
$MIRRTEXT
 70
     1
  9
$DRAGMODE
 70
     2
  9
$LTSCALE
 40
1.0
  9
$OSMODE
 70
    37
  9
$ATTMODE
 70
     1
  9
$TEXTSIZE
 40
0.2
  9
$TRACEWID
 40
0.05
  9
$TEXTSTYLE
  7
STANDARD
  9
$CLAYER
  8
0
  9
$CELTYPE
  6
BYLAYER
  9
$CECOLOR
 62
   256
  9
$DIMSCALE
 40
1.0
  9
$DIMASZ
 40
0.18
  9
$DIMEXO
 40
0.0625
  9
$DIMDLI
 40
0.38
  9
$DIMRND
 40
0.0
  9
$DIMDLE
 40
0.0
  9
$DIMEXE
 40
0.18
  9
$DIMTP
 40
0.0
  9
$DIMTM
 40
0.0
  9
$DIMTXT
 40
0.18
  9
$DIMCEN
 40
0.09
  9
$DIMTSZ
 40
0.0
  9
$DIMTOL
 70
     0
  9
$DIMLIM
 70
     0
  9
$DIMTIH
 70
     1
  9
$DIMTOH
 70
     1
  9
$DIMSE1
 70
     0
  9
$DIMSE2
 70
     0
  9
$DIMTAD
 70
     0
  9
$DIMZIN
 70
     0
  9
$DIMBLK
  1

  9
$DIMASO
 70
     1
  9
$DIMSHO
 70
     1
  9
$DIMPOST
  1

  9
$DIMAPOST
  1

  9
$DIMALT
 70
     0
  9
$DIMALTD
 70
     2
  9
$DIMALTF
 40
25.4
  9
$DIMLFAC
 40
1.0
  9
$DIMTOFL
 70
     0
  9
$DIMTVP
 40
0.0
  9
$DIMTIX
 70
     0
  9
$DIMSOXD
 70
     0
  9
$DIMSAH
 70
     0
  9
$DIMBLK1
  1

  9
$DIMBLK2
  1

  9
$DIMSTYLE
  2
STANDARD
  9
$DIMCLRD
 70
     0
  9
$DIMCLRE
 70
     0
  9
$DIMCLRT
 70
     0
  9
$DIMTFAC
 40
1.0
  9
$DIMGAP
 40
0.09
  9
$LUNITS
 70
     2
  9
$LUPREC
 70
     4
  9
$SKETCHINC
 40
0.1
  9
$FILLETRAD
 40
0.5
  9
$AUNITS
 70
     0
  9
$AUPREC
 70
     0
  9
$MENU
  1
.
  9
$ELEVATION
 40
0.0
  9
$PELEVATION
 40
0.0
  9
$THICKNESS
 40
0.0
  9
$LIMCHECK
 70
     0
  9
$CHAMFERA
 40
0.5
  9
$CHAMFERB
 40
0.5
  9
$SKPOLY
 70
     0
  9
$TDCREATE
 40
2454910.5
  9
$TDUPDATE
 40
2457134.963102384
  9
$TDINDWG
 40
0.0000000116
  9
$TDUSRTIMER
 40
0.0000000116
  9
$USRTIMER
 70
     1
  9
$ANGBASE
 50
0.0
  9
$ANGDIR
 70
     0
  9
$PDMODE
 70
     0
  9
$PDSIZE
 40
0.0
  9
$PLINEWID
 40
0.0
  9
$COORDS
 70
     1
  9
$SPLFRAME
 70
     0
  9
$SPLINETYPE
 70
     6
  9
$SPLINESEGS
 70
     8
  9
$ATTDIA
 70
     0
  9
$ATTREQ
 70
     1
  9
$HANDLING
 70
     1
  9
$HANDSEED
  5
14E
  9
$SURFTAB1
 70
     6
  9
$SURFTAB2
 70
     6
  9
$SURFTYPE
 70
     6
  9
$SURFU
 70
     6
  9
$SURFV
 70
     6
  9
$UCSNAME
  2

  9
$UCSORG
 10
0.0
 20
0.0
 30
0.0
  9
$UCSXDIR
 10
1.0
 20
0.0
 30
0.0
  9
$UCSYDIR
 10
0.0
 20
1.0
 30
0.0
  9
$PUCSNAME
  2

  9
$PUCSORG
 10
0.0
 20
0.0
 30
0.0
  9
$PUCSXDIR
 10
1.0
 20
0.0
 30
0.0
  9
$PUCSYDIR
 10
0.0
 20
1.0
 30
0.0
  9
$USERI1
 70
     0
  9
$USERI2
 70
     0
  9
$USERI3
 70
     0
  9
$USERI4
 70
     0
  9
$USERI5
 70
     0
  9
$USERR1
 40
0.0
  9
$USERR2
 40
0.0
  9
$USERR3
 40
0.0
  9
$USERR4
 40
0.0
  9
$USERR5
 40
0.0
  9
$WORLDVIEW
 70
     1
  9
$SHADEDGE
 70
     3
  9
$SHADEDIF
 70
    70
  9
$TILEMODE
 70
     1
  9
$MAXACTVP
 70
    64
  9
$PLIMCHECK
 70
     0
  9
$PEXTMIN
 10
1.000000000000000E+20
 20
1.000000000000000E+20
 30
1.000000000000000E+20
  9
$PEXTMAX
 10
-1.000000000000000E+20
 20
-1.000000000000000E+20
 30
-1.000000000000000E+20
  9
$PLIMMIN
 10
0.0
 20
0.0
  9
$PLIMMAX
 10
12.0
 20
9.0
  9
$UNITMODE
 70
     0
  9
$VISRETAIN
 70
     1
  9
$PLINEGEN
 70
     0
  9
$PSLTSCALE
 70
     1
  0
ENDSEC
  0
SECTION
  2
TABLES
  0
TABLE
  2
VPORT
 70
     1
  0
VPORT
  2
*ACTIVE
 70
     0
 10
0.0
 20
0.0
 11
1.0
 21
1.0
 12
10.42990654205607
 22
4.5
 13
0.0
 23
0.0
 14
0.5
 24
0.5
 15
0.5
 25
0.5
 16
0.0
 26
0.0
 36
1.0
 17
0.0
 27
0.0
 37
0.0
 40
9.0
 41
1.972972972850329
 42
50.0
 43
0.0
 44
0.0
 50
0.0
 51
0.0
 71
     0
 72
   100
 73
     1
 74
     3
 75
     0
 76
     0
 77
     0
 78
     0
  0
ENDTAB
  0
TABLE
  2
LTYPE
 70
     2
  0
LTYPE
  2
CONTINUOUS
 70
     0
  3
Solid line
 72
    65
 73
     0
 40
0.0
  0
LTYPE
  2
CONTINUOUS2
 70
     0
  3
Solid Line
 72
    65
 73
     0
 40
0.0
  0
ENDTAB
  0
TABLE
  2
LAYER
 70
     2
  0
LAYER
  2
0
 70
     0
 62
     7
  6
CONTINUOUS
  0
LAYER
  2
LAYER_1
 70
     0
 62
    18
  6
CONTINUOUS
  0
ENDTAB
  0
TABLE
  2
STYLE
 70
     1
  0
STYLE
  2
STANDARD
 70
     0
 40
0.0
 41
1.0
 50
0.0
 71
     0
 42
0.2
  3
txt
  4

  0
ENDTAB
  0
TABLE
  2
VIEW
 70
     0
  0
ENDTAB
  0
TABLE
  2
UCS
 70
     0
  0
ENDTAB
  0
TABLE
  2
APPID
 70
     1
  0
APPID
  2
ACAD
 70
     0
  0
ENDTAB
  0
TABLE
  2
DIMSTYLE
 70
     1
  0
DIMSTYLE
  2
STANDARD
 70
     0
  3

  4

  5

  6

  7

 40
1.0
 41
0.18
 42
0.0625
 43
0.38
 44
0.18
 45
0.0
 46
0.0
 47
0.0
 48
0.0
140
0.18
141
0.09
142
0.0
143
25.4
144
1.0
145
0.0
146
1.0
147
0.09
 71
     0
 72
     0
 73
     1
 74
     1
 75
     0
 76
     0
 77
     0
 78
     0
170
     0
171
     2
172
     0
173
     0
174
     0
175
     0
176
     0
177
     0
178
     0
  0
ENDTAB
  0
ENDSEC
  0
SECTION
  2
BLOCKS
  0
BLOCK
  8
0
  2
$MODEL_SPACE
 70
     0
 10
0.0
 20
0.0
 30
0.0
  3
$MODEL_SPACE
  1

  0
ENDBLK
  5
21
  8
0
  0
BLOCK
 67
     1
  8
0
  2
$PAPER_SPACE
 70
     0
 10
0.0
 20
0.0
 30
0.0
  3
$PAPER_SPACE
  1

  0
ENDBLK
  5
1D
 67
     1
  8
0
  0
ENDSEC
  0
SECTION
  2
ENTITIES
  0
POLYLINE
  5
41
  8
LAYER_1
 66
     1
 10
0.0
 20
0.0
 30
0.0
 70
     1
  0
VERTEX
  5
48
  8
LAYER_1
 10
0.0
 20
33.5
 30
0.0
 42
0.4142135623730951
  0
VERTEX
  5
49
  8
LAYER_1
 10
-33.5
 20
0.0
 30
0.0
 42
0.4142135623730951
  0
VERTEX
  5
4A
  8
LAYER_1
 10
0.0
 20
-33.5
 30
0.0
 42
0.4142135623730951
  0
VERTEX
  5
4B
  8
LAYER_1
 10
33.5
 20
0.0
 30
0.0
 42
0.4142135623730951
  0
SEQEND
  5
4C
  8
LAYER_1
  0
POLYLINE
  5
42
  8
LAYER_1
 66
     1
 10
0.0
 20
0.0
 30
0.0
 70
     1
  0
VERTEX
  5
4D
  8
LAYER_1
 10
-0.0000000000000012
 20
25.39999999999999
 30
0.0
  0
VERTEX
  5
4E
  8
LAYER_1
 10
-0.6555854214186702
 20
25.39170417087568
 30
0.0
  0
VERTEX
  5
4F
  8
LAYER_1
 10
-1.307080631029033
 20
25.36694967761383
 30
0.0
  0
VERTEX
  5
50
  8
LAYER_1
 10
-1.954286137664489
 20
25.32593601138103
 30
0.0
  0
VERTEX
  5
51
  8
LAYER_1
 10
-2.597002450158437
 20
25.26886266334389
 30
0.0
  0
VERTEX
  5
52
  8
LAYER_1
 10
-3.235030077344278
 20
25.195929124669
 30
0.0
  0
VERTEX
  5
53
  8
LAYER_1
 10
-3.868169528055409
 20
25.10733488652296
 30
0.0
  0
VERTEX
  5
54
  8
LAYER_1
 10
-4.496221311125231
 20
25.00327944007239
 30
0.0
  0
VERTEX
  5
55
  8
LAYER_1
 10
-5.118985935387142
 20
24.88396227648387
 30
0.0
  0
VERTEX
  5
56
  8
LAYER_1
 10
-5.736263909674543
 20
24.74958288692401
 30
0.0
  0
VERTEX
  5
57
  8
LAYER_1
 10
-6.347855742820833
 20
24.60034076255941
 30
0.0
  0
VERTEX
  5
58
  8
LAYER_1
 10
-6.953561943659411
 20
24.43643539455666
 30
0.0
  0
VERTEX
  5
59
  8
LAYER_1
 10
-7.553183021023676
 20
24.25806627408238
 30
0.0
  0
VERTEX
  5
5A
  8
LAYER_1
 10
-8.146519483747028
 20
24.06543289230316
 30
0.0
  0
VERTEX
  5
5B
  8
LAYER_1
 10
-8.733371840662866
 20
23.85873474038559
 30
0.0
  0
VERTEX
  5
5C
  8
LAYER_1
 10
-9.31354060060459
 20
23.63817130949629
 30
0.0
  0
VERTEX
  5
5D
  8
LAYER_1
 10
-9.886826272405596
 20
23.40394209080186
 30
0.0
  0
VERTEX
  5
5E
  8
LAYER_1
 10
-10.45302936489929
 20
23.15624657546888
 30
0.0
  0
VERTEX
  5
5F
  8
LAYER_1
 10
-11.01195038691906
 20
22.89528425466397
 30
0.0
  0
VERTEX
  5
60
  8
LAYER_1
 10
-11.56338984729832
 20
22.62125461955373
 30
0.0
  0
VERTEX
  5
61
  8
LAYER_1
 10
-12.10714825487046
 20
22.33435716130475
 30
0.0
  0
VERTEX
  5
62
  8
LAYER_1
 10
-12.64302611846888
 20
22.03479137108363
 30
0.0
  0
VERTEX
  5
63
  8
LAYER_1
 10
-13.17082394692698
 20
21.72275674005698
 30
0.0
  0
VERTEX
  5
64
  8
LAYER_1
 10
-13.69034224907817
 20
21.3984527593914
 30
0.0
  0
VERTEX
  5
65
  8
LAYER_1
 10
-14.20138153375583
 20
21.06207892025349
 30
0.0
  0
VERTEX
  5
66
  8
LAYER_1
 10
-14.70374230979337
 20
20.71383471380985
 30
0.0
  0
VERTEX
  5
67
  8
LAYER_1
 10
-15.19722508602419
 20
20.35391963122707
 30
0.0
  0
VERTEX
  5
68
  8
LAYER_1
 10
-15.68163037128168
 20
19.98253316367177
 30
0.0
  0
VERTEX
  5
69
  8
LAYER_1
 10
-16.15675867439926
 20
19.59987480231053
 30
0.0
  0
VERTEX
  5
6A
  8
LAYER_1
 10
-16.62241050421031
 20
19.20614403830996
 30
0.0
  0
VERTEX
  5
6B
  8
LAYER_1
 10
-17.07838636954823
 20
18.80154036283667
 30
0.0
  0
VERTEX
  5
6C
  8
LAYER_1
 10
-17.52448677924643
 20
18.38626326705725
 30
0.0
  0
VERTEX
  5
6D
  8
LAYER_1
 10
-17.96051224213831
 20
17.9605122421383
 30
0.0
  0
VERTEX
  5
6E
  8
LAYER_1
 10
-18.38626326705726
 20
17.52448677924643
 30
0.0
  0
VERTEX
  5
6F
  8
LAYER_1
 10
-18.80154036283668
 20
17.07838636954823
 30
0.0
  0
VERTEX
  5
70
  8
LAYER_1
 10
-19.20614403830997
 20
16.6224105042103
 30
0.0
  0
VERTEX
  5
71
  8
LAYER_1
 10
-19.59987480231053
 20
16.15675867439926
 30
0.0
  0
VERTEX
  5
72
  8
LAYER_1
 10
-19.98253316367177
 20
15.68163037128168
 30
0.0
  0
VERTEX
  5
73
  8
LAYER_1
 10
-20.35391963122708
 20
15.19722508602419
 30
0.0
  0
VERTEX
  5
74
  8
LAYER_1
 10
-20.71383471380985
 20
14.70374230979337
 30
0.0
  0
VERTEX
  5
75
  8
LAYER_1
 10
-21.0620789202535
 20
14.20138153375583
 30
0.0
  0
VERTEX
  5
76
  8
LAYER_1
 10
-21.39845275939141
 20
13.69034224907816
 30
0.0
  0
VERTEX
  5
77
  8
LAYER_1
 10
-21.72275674005699
 20
13.17082394692698
 30
0.0
  0
VERTEX
  5
78
  8
LAYER_1
 10
-22.03479137108364
 20
12.64302611846888
 30
0.0
  0
VERTEX
  5
79
  8
LAYER_1
 10
-22.33435716130476
 20
12.10714825487046
 30
0.0
  0
VERTEX
  5
7A
  8
LAYER_1
 10
-22.62125461955374
 20
11.56338984729832
 30
0.0
  0
VERTEX
  5
7B
  8
LAYER_1
 10
-22.89528425466398
 20
11.01195038691906
 30
0.0
  0
VERTEX
  5
7C
  8
LAYER_1
 10
-23.15624657546889
 20
10.45302936489928
 30
0.0
  0
VERTEX
  5
7D
  8
LAYER_1
 10
-23.40394209080186
 20
9.886826272405594
 30
0.0
  0
VERTEX
  5
7E
  8
LAYER_1
 10
-23.6381713094963
 20
9.313540600604586
 30
0.0
  0
VERTEX
  5
7F
  8
LAYER_1
 10
-23.8587347403856
 20
8.733371840662866
 30
0.0
  0
VERTEX
  5
80
  8
LAYER_1
 10
-24.06543289230316
 20
8.146519483747028
 30
0.0
  0
VERTEX
  5
81
  8
LAYER_1
 10
-24.25806627408238
 20
7.553183021023676
 30
0.0
  0
VERTEX
  5
82
  8
LAYER_1
 10
-24.43643539455667
 20
6.953561943659411
 30
0.0
  0
VERTEX
  5
83
  8
LAYER_1
 10
-24.60034076255941
 20
6.347855742820832
 30
0.0
  0
VERTEX
  5
84
  8
LAYER_1
 10
-24.74958288692402
 20
5.736263909674543
 30
0.0
  0
VERTEX
  5
85
  8
LAYER_1
 10
-24.88396227648388
 20
5.118985935387141
 30
0.0
  0
VERTEX
  5
86
  8
LAYER_1
 10
-25.00327944007239
 20
4.496221311125229
 30
0.0
  0
VERTEX
  5
87
  8
LAYER_1
 10
-25.10733488652297
 20
3.868169528055407
 30
0.0
  0
VERTEX
  5
88
  8
LAYER_1
 10
-25.19592912466901
 20
3.235030077344276
 30
0.0
  0
VERTEX
  5
89
  8
LAYER_1
 10
-25.2688626633439
 20
2.597002450158436
 30
0.0
  0
VERTEX
  5
8A
  8
LAYER_1
 10
-25.32593601138104
 20
1.954286137664488
 30
0.0
  0
VERTEX
  5
8B
  8
LAYER_1
 10
-25.36694967761384
 20
1.307080631029032
 30
0.0
  0
VERTEX
  5
8C
  8
LAYER_1
 10
-25.39170417087569
 20
0.655585421418669
 30
0.0
  0
VERTEX
  5
8D
  8
LAYER_1
 10
-25.4
 20
0.0
 30
0.0
  0
VERTEX
  5
8E
  8
LAYER_1
 10
-25.39170417087569
 20
-0.655585421418669
 30
0.0
  0
VERTEX
  5
8F
  8
LAYER_1
 10
-25.36694967761384
 20
-1.307080631029032
 30
0.0
  0
VERTEX
  5
90
  8
LAYER_1
 10
-25.32593601138104
 20
-1.954286137664488
 30
0.0
  0
VERTEX
  5
91
  8
LAYER_1
 10
-25.2688626633439
 20
-2.597002450158437
 30
0.0
  0
VERTEX
  5
92
  8
LAYER_1
 10
-25.19592912466901
 20
-3.235030077344277
 30
0.0
  0
VERTEX
  5
93
  8
LAYER_1
 10
-25.10733488652297
 20
-3.868169528055409
 30
0.0
  0
VERTEX
  5
94
  8
LAYER_1
 10
-25.00327944007239
 20
-4.496221311125231
 30
0.0
  0
VERTEX
  5
95
  8
LAYER_1
 10
-24.88396227648388
 20
-5.118985935387142
 30
0.0
  0
VERTEX
  5
96
  8
LAYER_1
 10
-24.74958288692402
 20
-5.736263909674543
 30
0.0
  0
VERTEX
  5
97
  8
LAYER_1
 10
-24.60034076255941
 20
-6.347855742820833
 30
0.0
  0
VERTEX
  5
98
  8
LAYER_1
 10
-24.43643539455667
 20
-6.953561943659411
 30
0.0
  0
VERTEX
  5
99
  8
LAYER_1
 10
-24.25806627408238
 20
-7.553183021023676
 30
0.0
  0
VERTEX
  5
9A
  8
LAYER_1
 10
-24.06543289230316
 20
-8.146519483747028
 30
0.0
  0
VERTEX
  5
9B
  8
LAYER_1
 10
-23.8587347403856
 20
-8.733371840662866
 30
0.0
  0
VERTEX
  5
9C
  8
LAYER_1
 10
-23.6381713094963
 20
-9.31354060060459
 30
0.0
  0
VERTEX
  5
9D
  8
LAYER_1
 10
-23.40394209080186
 20
-9.886826272405596
 30
0.0
  0
VERTEX
  5
9E
  8
LAYER_1
 10
-23.15624657546889
 20
-10.45302936489929
 30
0.0
  0
VERTEX
  5
9F
  8
LAYER_1
 10
-22.89528425466398
 20
-11.01195038691906
 30
0.0
  0
VERTEX
  5
A0
  8
LAYER_1
 10
-22.62125461955374
 20
-11.56338984729832
 30
0.0
  0
VERTEX
  5
A1
  8
LAYER_1
 10
-22.33435716130476
 20
-12.10714825487046
 30
0.0
  0
VERTEX
  5
A2
  8
LAYER_1
 10
-22.03479137108364
 20
-12.64302611846888
 30
0.0
  0
VERTEX
  5
A3
  8
LAYER_1
 10
-21.72275674005699
 20
-13.17082394692698
 30
0.0
  0
VERTEX
  5
A4
  8
LAYER_1
 10
-21.39845275939141
 20
-13.69034224907817
 30
0.0
  0
VERTEX
  5
A5
  8
LAYER_1
 10
-21.0620789202535
 20
-14.20138153375583
 30
0.0
  0
VERTEX
  5
A6
  8
LAYER_1
 10
-20.71383471380985
 20
-14.70374230979337
 30
0.0
  0
VERTEX
  5
A7
  8
LAYER_1
 10
-20.35391963122708
 20
-15.19722508602419
 30
0.0
  0
VERTEX
  5
A8
  8
LAYER_1
 10
-19.98253316367177
 20
-15.68163037128168
 30
0.0
  0
VERTEX
  5
A9
  8
LAYER_1
 10
-19.59987480231053
 20
-16.15675867439926
 30
0.0
  0
VERTEX
  5
AA
  8
LAYER_1
 10
-19.20614403830997
 20
-16.62241050421031
 30
0.0
  0
VERTEX
  5
AB
  8
LAYER_1
 10
-18.80154036283668
 20
-17.07838636954823
 30
0.0
  0
VERTEX
  5
AC
  8
LAYER_1
 10
-18.38626326705726
 20
-17.52448677924643
 30
0.0
  0
VERTEX
  5
AD
  8
LAYER_1
 10
-17.96051224213831
 20
-17.96051224213831
 30
0.0
  0
VERTEX
  5
AE
  8
LAYER_1
 10
-17.52448677924643
 20
-18.38626326705726
 30
0.0
  0
VERTEX
  5
AF
  8
LAYER_1
 10
-17.07838636954823
 20
-18.80154036283668
 30
0.0
  0
VERTEX
  5
B0
  8
LAYER_1
 10
-16.62241050421031
 20
-19.20614403830997
 30
0.0
  0
VERTEX
  5
B1
  8
LAYER_1
 10
-16.15675867439926
 20
-19.59987480231053
 30
0.0
  0
VERTEX
  5
B2
  8
LAYER_1
 10
-15.68163037128168
 20
-19.98253316367177
 30
0.0
  0
VERTEX
  5
B3
  8
LAYER_1
 10
-15.19722508602419
 20
-20.35391963122708
 30
0.0
  0
VERTEX
  5
B4
  8
LAYER_1
 10
-14.70374230979337
 20
-20.71383471380985
 30
0.0
  0
VERTEX
  5
B5
  8
LAYER_1
 10
-14.20138153375583
 20
-21.0620789202535
 30
0.0
  0
VERTEX
  5
B6
  8
LAYER_1
 10
-13.69034224907817
 20
-21.39845275939141
 30
0.0
  0
VERTEX
  5
B7
  8
LAYER_1
 10
-13.17082394692698
 20
-21.72275674005699
 30
0.0
  0
VERTEX
  5
B8
  8
LAYER_1
 10
-12.64302611846888
 20
-22.03479137108364
 30
0.0
  0
VERTEX
  5
B9
  8
LAYER_1
 10
-12.10714825487046
 20
-22.33435716130476
 30
0.0
  0
VERTEX
  5
BA
  8
LAYER_1
 10
-11.56338984729832
 20
-22.62125461955374
 30
0.0
  0
VERTEX
  5
BB
  8
LAYER_1
 10
-11.01195038691906
 20
-22.89528425466398
 30
0.0
  0
VERTEX
  5
BC
  8
LAYER_1
 10
-10.45302936489929
 20
-23.15624657546889
 30
0.0
  0
VERTEX
  5
BD
  8
LAYER_1
 10
-9.886826272405596
 20
-23.40394209080186
 30
0.0
  0
VERTEX
  5
BE
  8
LAYER_1
 10
-9.31354060060459
 20
-23.6381713094963
 30
0.0
  0
VERTEX
  5
BF
  8
LAYER_1
 10
-8.733371840662866
 20
-23.8587347403856
 30
0.0
  0
VERTEX
  5
C0
  8
LAYER_1
 10
-8.146519483747028
 20
-24.06543289230316
 30
0.0
  0
VERTEX
  5
C1
  8
LAYER_1
 10
-7.553183021023676
 20
-24.25806627408238
 30
0.0
  0
VERTEX
  5
C2
  8
LAYER_1
 10
-6.953561943659411
 20
-24.43643539455667
 30
0.0
  0
VERTEX
  5
C3
  8
LAYER_1
 10
-6.347855742820833
 20
-24.60034076255941
 30
0.0
  0
VERTEX
  5
C4
  8
LAYER_1
 10
-5.736263909674543
 20
-24.74958288692402
 30
0.0
  0
VERTEX
  5
C5
  8
LAYER_1
 10
-5.118985935387142
 20
-24.88396227648388
 30
0.0
  0
VERTEX
  5
C6
  8
LAYER_1
 10
-4.496221311125231
 20
-25.00327944007239
 30
0.0
  0
VERTEX
  5
C7
  8
LAYER_1
 10
-3.868169528055409
 20
-25.10733488652297
 30
0.0
  0
VERTEX
  5
C8
  8
LAYER_1
 10
-3.235030077344278
 20
-25.19592912466901
 30
0.0
  0
VERTEX
  5
C9
  8
LAYER_1
 10
-2.597002450158437
 20
-25.2688626633439
 30
0.0
  0
VERTEX
  5
CA
  8
LAYER_1
 10
-1.954286137664489
 20
-25.32593601138104
 30
0.0
  0
VERTEX
  5
CB
  8
LAYER_1
 10
-1.307080631029033
 20
-25.36694967761384
 30
0.0
  0
VERTEX
  5
CC
  8
LAYER_1
 10
-0.6555854214186702
 20
-25.39170417087569
 30
0.0
  0
VERTEX
  5
CD
  8
LAYER_1
 10
-0.0000000000000012
 20
-25.4
 30
0.0
  0
VERTEX
  5
CE
  8
LAYER_1
 10
0.6555854214186676
 20
-25.39170417087569
 30
0.0
  0
VERTEX
  5
CF
  8
LAYER_1
 10
1.30708063102903
 20
-25.36694967761384
 30
0.0
  0
VERTEX
  5
D0
  8
LAYER_1
 10
1.954286137664486
 20
-25.32593601138104
 30
0.0
  0
VERTEX
  5
D1
  8
LAYER_1
 10
2.597002450158434
 20
-25.2688626633439
 30
0.0
  0
VERTEX
  5
D2
  8
LAYER_1
 10
3.235030077344275
 20
-25.19592912466901
 30
0.0
  0
VERTEX
  5
D3
  8
LAYER_1
 10
3.868169528055406
 20
-25.10733488652297
 30
0.0
  0
VERTEX
  5
D4
  8
LAYER_1
 10
4.496221311125227
 20
-25.00327944007239
 30
0.0
  0
VERTEX
  5
D5
  8
LAYER_1
 10
5.11898593538714
 20
-24.88396227648388
 30
0.0
  0
VERTEX
  5
D6
  8
LAYER_1
 10
5.736263909674541
 20
-24.74958288692402
 30
0.0
  0
VERTEX
  5
D7
  8
LAYER_1
 10
6.347855742820831
 20
-24.60034076255941
 30
0.0
  0
VERTEX
  5
D8
  8
LAYER_1
 10
6.953561943659409
 20
-24.43643539455667
 30
0.0
  0
VERTEX
  5
D9
  8
LAYER_1
 10
7.553183021023673
 20
-24.25806627408238
 30
0.0
  0
VERTEX
  5
DA
  8
LAYER_1
 10
8.146519483747026
 20
-24.06543289230316
 30
0.0
  0
VERTEX
  5
DB
  8
LAYER_1
 10
8.733371840662862
 20
-23.8587347403856
 30
0.0
  0
VERTEX
  5
DC
  8
LAYER_1
 10
9.313540600604586
 20
-23.6381713094963
 30
0.0
  0
VERTEX
  5
DD
  8
LAYER_1
 10
9.886826272405594
 20
-23.40394209080186
 30
0.0
  0
VERTEX
  5
DE
  8
LAYER_1
 10
10.45302936489928
 20
-23.15624657546889
 30
0.0
  0
VERTEX
  5
DF
  8
LAYER_1
 10
11.01195038691906
 20
-22.89528425466398
 30
0.0
  0
VERTEX
  5
E0
  8
LAYER_1
 10
11.56338984729832
 20
-22.62125461955374
 30
0.0
  0
VERTEX
  5
E1
  8
LAYER_1
 10
12.10714825487046
 20
-22.33435716130476
 30
0.0
  0
VERTEX
  5
E2
  8
LAYER_1
 10
12.64302611846888
 20
-22.03479137108364
 30
0.0
  0
VERTEX
  5
E3
  8
LAYER_1
 10
13.17082394692698
 20
-21.72275674005699
 30
0.0
  0
VERTEX
  5
E4
  8
LAYER_1
 10
13.69034224907816
 20
-21.39845275939141
 30
0.0
  0
VERTEX
  5
E5
  8
LAYER_1
 10
14.20138153375583
 20
-21.0620789202535
 30
0.0
  0
VERTEX
  5
E6
  8
LAYER_1
 10
14.70374230979337
 20
-20.71383471380985
 30
0.0
  0
VERTEX
  5
E7
  8
LAYER_1
 10
15.19722508602419
 20
-20.35391963122708
 30
0.0
  0
VERTEX
  5
E8
  8
LAYER_1
 10
15.68163037128168
 20
-19.98253316367177
 30
0.0
  0
VERTEX
  5
E9
  8
LAYER_1
 10
16.15675867439926
 20
-19.59987480231053
 30
0.0
  0
VERTEX
  5
EA
  8
LAYER_1
 10
16.6224105042103
 20
-19.20614403830997
 30
0.0
  0
VERTEX
  5
EB
  8
LAYER_1
 10
17.07838636954823
 20
-18.80154036283668
 30
0.0
  0
VERTEX
  5
EC
  8
LAYER_1
 10
17.52448677924643
 20
-18.38626326705726
 30
0.0
  0
VERTEX
  5
ED
  8
LAYER_1
 10
17.9605122421383
 20
-17.96051224213831
 30
0.0
  0
VERTEX
  5
EE
  8
LAYER_1
 10
18.38626326705725
 20
-17.52448677924643
 30
0.0
  0
VERTEX
  5
EF
  8
LAYER_1
 10
18.80154036283667
 20
-17.07838636954823
 30
0.0
  0
VERTEX
  5
F0
  8
LAYER_1
 10
19.20614403830996
 20
-16.62241050421031
 30
0.0
  0
VERTEX
  5
F1
  8
LAYER_1
 10
19.59987480231053
 20
-16.15675867439926
 30
0.0
  0
VERTEX
  5
F2
  8
LAYER_1
 10
19.98253316367177
 20
-15.68163037128168
 30
0.0
  0
VERTEX
  5
F3
  8
LAYER_1
 10
20.35391963122707
 20
-15.19722508602419
 30
0.0
  0
VERTEX
  5
F4
  8
LAYER_1
 10
20.71383471380985
 20
-14.70374230979337
 30
0.0
  0
VERTEX
  5
F5
  8
LAYER_1
 10
21.06207892025349
 20
-14.20138153375583
 30
0.0
  0
VERTEX
  5
F6
  8
LAYER_1
 10
21.3984527593914
 20
-13.69034224907817
 30
0.0
  0
VERTEX
  5
F7
  8
LAYER_1
 10
21.72275674005699
 20
-13.17082394692698
 30
0.0
  0
VERTEX
  5
F8
  8
LAYER_1
 10
22.03479137108364
 20
-12.64302611846888
 30
0.0
  0
VERTEX
  5
F9
  8
LAYER_1
 10
22.33435716130475
 20
-12.10714825487046
 30
0.0
  0
VERTEX
  5
FA
  8
LAYER_1
 10
22.62125461955373
 20
-11.56338984729832
 30
0.0
  0
VERTEX
  5
FB
  8
LAYER_1
 10
22.89528425466398
 20
-11.01195038691906
 30
0.0
  0
VERTEX
  5
FC
  8
LAYER_1
 10
23.15624657546889
 20
-10.45302936489929
 30
0.0
  0
VERTEX
  5
FD
  8
LAYER_1
 10
23.40394209080186
 20
-9.886826272405596
 30
0.0
  0
VERTEX
  5
FE
  8
LAYER_1
 10
23.6381713094963
 20
-9.31354060060459
 30
0.0
  0
VERTEX
  5
FF
  8
LAYER_1
 10
23.8587347403856
 20
-8.733371840662866
 30
0.0
  0
VERTEX
  5
100
  8
LAYER_1
 10
24.06543289230316
 20
-8.146519483747028
 30
0.0
  0
VERTEX
  5
101
  8
LAYER_1
 10
24.25806627408238
 20
-7.553183021023676
 30
0.0
  0
VERTEX
  5
102
  8
LAYER_1
 10
24.43643539455667
 20
-6.953561943659411
 30
0.0
  0
VERTEX
  5
103
  8
LAYER_1
 10
24.60034076255941
 20
-6.347855742820833
 30
0.0
  0
VERTEX
  5
104
  8
LAYER_1
 10
24.74958288692402
 20
-5.736263909674543
 30
0.0
  0
VERTEX
  5
105
  8
LAYER_1
 10
24.88396227648388
 20
-5.118985935387142
 30
0.0
  0
VERTEX
  5
106
  8
LAYER_1
 10
25.00327944007239
 20
-4.496221311125231
 30
0.0
  0
VERTEX
  5
107
  8
LAYER_1
 10
25.10733488652297
 20
-3.868169528055409
 30
0.0
  0
VERTEX
  5
108
  8
LAYER_1
 10
25.19592912466901
 20
-3.235030077344277
 30
0.0
  0
VERTEX
  5
109
  8
LAYER_1
 10
25.2688626633439
 20
-2.597002450158437
 30
0.0
  0
VERTEX
  5
10A
  8
LAYER_1
 10
25.32593601138104
 20
-1.954286137664488
 30
0.0
  0
VERTEX
  5
10B
  8
LAYER_1
 10
25.36694967761384
 20
-1.307080631029032
 30
0.0
  0
VERTEX
  5
10C
  8
LAYER_1
 10
25.39170417087569
 20
-0.655585421418669
 30
0.0
  0
VERTEX
  5
10D
  8
LAYER_1
 10
25.4
 20
0.0
 30
0.0
  0
VERTEX
  5
10E
  8
LAYER_1
 10
25.39170417087569
 20
0.655585421418669
 30
0.0
  0
VERTEX
  5
10F
  8
LAYER_1
 10
25.36694967761384
 20
1.307080631029032
 30
0.0
  0
VERTEX
  5
110
  8
LAYER_1
 10
25.32593601138104
 20
1.954286137664488
 30
0.0
  0
VERTEX
  5
111
  8
LAYER_1
 10
25.2688626633439
 20
2.597002450158436
 30
0.0
  0
VERTEX
  5
112
  8
LAYER_1
 10
25.19592912466901
 20
3.235030077344276
 30
0.0
  0
VERTEX
  5
113
  8
LAYER_1
 10
25.10733488652297
 20
3.868169528055407
 30
0.0
  0
VERTEX
  5
114
  8
LAYER_1
 10
25.00327944007239
 20
4.496221311125229
 30
0.0
  0
VERTEX
  5
115
  8
LAYER_1
 10
24.88396227648388
 20
5.118985935387141
 30
0.0
  0
VERTEX
  5
116
  8
LAYER_1
 10
24.74958288692402
 20
5.736263909674543
 30
0.0
  0
VERTEX
  5
117
  8
LAYER_1
 10
24.60034076255941
 20
6.347855742820832
 30
0.0
  0
VERTEX
  5
118
  8
LAYER_1
 10
24.43643539455667
 20
6.953561943659411
 30
0.0
  0
VERTEX
  5
119
  8
LAYER_1
 10
24.25806627408238
 20
7.553183021023676
 30
0.0
  0
VERTEX
  5
11A
  8
LAYER_1
 10
24.06543289230316
 20
8.146519483747028
 30
0.0
  0
VERTEX
  5
11B
  8
LAYER_1
 10
23.8587347403856
 20
8.733371840662866
 30
0.0
  0
VERTEX
  5
11C
  8
LAYER_1
 10
23.6381713094963
 20
9.313540600604586
 30
0.0
  0
VERTEX
  5
11D
  8
LAYER_1
 10
23.40394209080186
 20
9.886826272405594
 30
0.0
  0
VERTEX
  5
11E
  8
LAYER_1
 10
23.15624657546889
 20
10.45302936489928
 30
0.0
  0
VERTEX
  5
11F
  8
LAYER_1
 10
22.89528425466398
 20
11.01195038691906
 30
0.0
  0
VERTEX
  5
120
  8
LAYER_1
 10
22.62125461955373
 20
11.56338984729832
 30
0.0
  0
VERTEX
  5
121
  8
LAYER_1
 10
22.33435716130475
 20
12.10714825487046
 30
0.0
  0
VERTEX
  5
122
  8
LAYER_1
 10
22.03479137108364
 20
12.64302611846888
 30
0.0
  0
VERTEX
  5
123
  8
LAYER_1
 10
21.72275674005699
 20
13.17082394692698
 30
0.0
  0
VERTEX
  5
124
  8
LAYER_1
 10
21.3984527593914
 20
13.69034224907816
 30
0.0
  0
VERTEX
  5
125
  8
LAYER_1
 10
21.06207892025349
 20
14.20138153375583
 30
0.0
  0
VERTEX
  5
126
  8
LAYER_1
 10
20.71383471380985
 20
14.70374230979337
 30
0.0
  0
VERTEX
  5
127
  8
LAYER_1
 10
20.35391963122707
 20
15.19722508602419
 30
0.0
  0
VERTEX
  5
128
  8
LAYER_1
 10
19.98253316367177
 20
15.68163037128168
 30
0.0
  0
VERTEX
  5
129
  8
LAYER_1
 10
19.59987480231053
 20
16.15675867439926
 30
0.0
  0
VERTEX
  5
12A
  8
LAYER_1
 10
19.20614403830996
 20
16.6224105042103
 30
0.0
  0
VERTEX
  5
12B
  8
LAYER_1
 10
18.80154036283667
 20
17.07838636954823
 30
0.0
  0
VERTEX
  5
12C
  8
LAYER_1
 10
18.38626326705725
 20
17.52448677924643
 30
0.0
  0
VERTEX
  5
12D
  8
LAYER_1
 10
17.9605122421383
 20
17.9605122421383
 30
0.0
  0
VERTEX
  5
12E
  8
LAYER_1
 10
17.52448677924643
 20
18.38626326705725
 30
0.0
  0
VERTEX
  5
12F
  8
LAYER_1
 10
17.07838636954823
 20
18.80154036283667
 30
0.0
  0
VERTEX
  5
130
  8
LAYER_1
 10
16.6224105042103
 20
19.20614403830996
 30
0.0
  0
VERTEX
  5
131
  8
LAYER_1
 10
16.15675867439926
 20
19.59987480231053
 30
0.0
  0
VERTEX
  5
132
  8
LAYER_1
 10
15.68163037128168
 20
19.98253316367177
 30
0.0
  0
VERTEX
  5
133
  8
LAYER_1
 10
15.19722508602419
 20
20.35391963122707
 30
0.0
  0
VERTEX
  5
134
  8
LAYER_1
 10
14.70374230979337
 20
20.71383471380985
 30
0.0
  0
VERTEX
  5
135
  8
LAYER_1
 10
14.20138153375583
 20
21.06207892025349
 30
0.0
  0
VERTEX
  5
136
  8
LAYER_1
 10
13.69034224907816
 20
21.3984527593914
 30
0.0
  0
VERTEX
  5
137
  8
LAYER_1
 10
13.17082394692698
 20
21.72275674005698
 30
0.0
  0
VERTEX
  5
138
  8
LAYER_1
 10
12.64302611846888
 20
22.03479137108363
 30
0.0
  0
VERTEX
  5
139
  8
LAYER_1
 10
12.10714825487046
 20
22.33435716130475
 30
0.0
  0
VERTEX
  5
13A
  8
LAYER_1
 10
11.56338984729832
 20
22.62125461955373
 30
0.0
  0
VERTEX
  5
13B
  8
LAYER_1
 10
11.01195038691906
 20
22.89528425466397
 30
0.0
  0
VERTEX
  5
13C
  8
LAYER_1
 10
10.45302936489928
 20
23.15624657546888
 30
0.0
  0
VERTEX
  5
13D
  8
LAYER_1
 10
9.886826272405594
 20
23.40394209080186
 30
0.0
  0
VERTEX
  5
13E
  8
LAYER_1
 10
9.313540600604586
 20
23.63817130949629
 30
0.0
  0
VERTEX
  5
13F
  8
LAYER_1
 10
8.733371840662862
 20
23.85873474038559
 30
0.0
  0
VERTEX
  5
140
  8
LAYER_1
 10
8.146519483747026
 20
24.06543289230316
 30
0.0
  0
VERTEX
  5
141
  8
LAYER_1
 10
7.553183021023673
 20
24.25806627408238
 30
0.0
  0
VERTEX
  5
142
  8
LAYER_1
 10
6.953561943659409
 20
24.43643539455666
 30
0.0
  0
VERTEX
  5
143
  8
LAYER_1
 10
6.347855742820831
 20
24.60034076255941
 30
0.0
  0
VERTEX
  5
144
  8
LAYER_1
 10
5.736263909674541
 20
24.74958288692401
 30
0.0
  0
VERTEX
  5
145
  8
LAYER_1
 10
5.11898593538714
 20
24.88396227648387
 30
0.0
  0
VERTEX
  5
146
  8
LAYER_1
 10
4.496221311125227
 20
25.00327944007239
 30
0.0
  0
VERTEX
  5
147
  8
LAYER_1
 10
3.868169528055406
 20
25.10733488652296
 30
0.0
  0
VERTEX
  5
148
  8
LAYER_1
 10
3.235030077344275
 20
25.195929124669
 30
0.0
  0
VERTEX
  5
149
  8
LAYER_1
 10
2.597002450158434
 20
25.26886266334389
 30
0.0
  0
VERTEX
  5
14A
  8
LAYER_1
 10
1.954286137664486
 20
25.32593601138103
 30
0.0
  0
VERTEX
  5
14B
  8
LAYER_1
 10
1.30708063102903
 20
25.36694967761383
 30
0.0
  0
VERTEX
  5
14C
  8
LAYER_1
 10
0.6555854214186676
 20
25.39170417087568
 30
0.0
  0
SEQEND
  5
14D
  8
LAYER_1
  0
ENDSEC
  0
EOF
