  0
SECTION
  2
HEADER
  9
$ACADVER
  1
AC1009
  9
$DWGCODEPAGE
  3
ansi_1252
  9
$INSBASE
 10
0.0
 20
0.0
 30
0.0
  9
$EXTMIN
 10
-46.7975
 20
-77.95402172313874
 30
0.0
  9
$EXTMAX
 10
46.7975
 20
98.02587981455063
 30
0.0
  9
$LIMMIN
 10
0.0
 20
0.0
  9
$LIMMAX
 10
12.0
 20
9.0
  9
$ORTHOMODE
 70
     0
  9
$REGENMODE
 70
     1
  9
$FILLMODE
 70
     1
  9
$QTEXTMODE
 70
     0
  9
$MIRRTEXT
 70
     1
  9
$DRAGMODE
 70
     2
  9
$LTSCALE
 40
1.0
  9
$OSMODE
 70
    37
  9
$ATTMODE
 70
     1
  9
$TEXTSIZE
 40
0.2
  9
$TRACEWID
 40
0.05
  9
$TEXTSTYLE
  7
STANDARD
  9
$CLAYER
  8
0
  9
$CELTYPE
  6
BYLAYER
  9
$CECOLOR
 62
   256
  9
$DIMSCALE
 40
1.0
  9
$DIMASZ
 40
0.18
  9
$DIMEXO
 40
0.0625
  9
$DIMDLI
 40
0.38
  9
$DIMRND
 40
0.0
  9
$DIMDLE
 40
0.0
  9
$DIMEXE
 40
0.18
  9
$DIMTP
 40
0.0
  9
$DIMTM
 40
0.0
  9
$DIMTXT
 40
0.18
  9
$DIMCEN
 40
0.09
  9
$DIMTSZ
 40
0.0
  9
$DIMTOL
 70
     0
  9
$DIMLIM
 70
     0
  9
$DIMTIH
 70
     1
  9
$DIMTOH
 70
     1
  9
$DIMSE1
 70
     0
  9
$DIMSE2
 70
     0
  9
$DIMTAD
 70
     0
  9
$DIMZIN
 70
     0
  9
$DIMBLK
  1

  9
$DIMASO
 70
     1
  9
$DIMSHO
 70
     1
  9
$DIMPOST
  1

  9
$DIMAPOST
  1

  9
$DIMALT
 70
     0
  9
$DIMALTD
 70
     2
  9
$DIMALTF
 40
25.4
  9
$DIMLFAC
 40
1.0
  9
$DIMTOFL
 70
     0
  9
$DIMTVP
 40
0.0
  9
$DIMTIX
 70
     0
  9
$DIMSOXD
 70
     0
  9
$DIMSAH
 70
     0
  9
$DIMBLK1
  1

  9
$DIMBLK2
  1

  9
$DIMSTYLE
  2
STANDARD
  9
$DIMCLRD
 70
     0
  9
$DIMCLRE
 70
     0
  9
$DIMCLRT
 70
     0
  9
$DIMTFAC
 40
1.0
  9
$DIMGAP
 40
0.09
  9
$LUNITS
 70
     2
  9
$LUPREC
 70
     4
  9
$SKETCHINC
 40
0.1
  9
$FILLETRAD
 40
0.5
  9
$AUNITS
 70
     0
  9
$AUPREC
 70
     0
  9
$MENU
  1
.
  9
$ELEVATION
 40
0.0
  9
$PELEVATION
 40
0.0
  9
$THICKNESS
 40
0.0
  9
$LIMCHECK
 70
     0
  9
$CHAMFERA
 40
0.5
  9
$CHAMFERB
 40
0.5
  9
$SKPOLY
 70
     0
  9
$TDCREATE
 40
2454910.5
  9
$TDUPDATE
 40
2457134.951492685
  9
$TDINDWG
 40
0.0000000116
  9
$TDUSRTIMER
 40
0.0000000116
  9
$USRTIMER
 70
     1
  9
$ANGBASE
 50
0.0
  9
$ANGDIR
 70
     0
  9
$PDMODE
 70
     0
  9
$PDSIZE
 40
0.0
  9
$PLINEWID
 40
0.0
  9
$COORDS
 70
     1
  9
$SPLFRAME
 70
     0
  9
$SPLINETYPE
 70
     6
  9
$SPLINESEGS
 70
     8
  9
$ATTDIA
 70
     0
  9
$ATTREQ
 70
     1
  9
$HANDLING
 70
     1
  9
$HANDSEED
  5
2DA
  9
$SURFTAB1
 70
     6
  9
$SURFTAB2
 70
     6
  9
$SURFTYPE
 70
     6
  9
$SURFU
 70
     6
  9
$SURFV
 70
     6
  9
$UCSNAME
  2

  9
$UCSORG
 10
0.0
 20
0.0
 30
0.0
  9
$UCSXDIR
 10
1.0
 20
0.0
 30
0.0
  9
$UCSYDIR
 10
0.0
 20
1.0
 30
0.0
  9
$PUCSNAME
  2

  9
$PUCSORG
 10
0.0
 20
0.0
 30
0.0
  9
$PUCSXDIR
 10
1.0
 20
0.0
 30
0.0
  9
$PUCSYDIR
 10
0.0
 20
1.0
 30
0.0
  9
$USERI1
 70
     0
  9
$USERI2
 70
     0
  9
$USERI3
 70
     0
  9
$USERI4
 70
     0
  9
$USERI5
 70
     0
  9
$USERR1
 40
0.0
  9
$USERR2
 40
0.0
  9
$USERR3
 40
0.0
  9
$USERR4
 40
0.0
  9
$USERR5
 40
0.0
  9
$WORLDVIEW
 70
     1
  9
$SHADEDGE
 70
     3
  9
$SHADEDIF
 70
    70
  9
$TILEMODE
 70
     1
  9
$MAXACTVP
 70
    64
  9
$PLIMCHECK
 70
     0
  9
$PEXTMIN
 10
1.000000000000000E+20
 20
1.000000000000000E+20
 30
1.000000000000000E+20
  9
$PEXTMAX
 10
-1.000000000000000E+20
 20
-1.000000000000000E+20
 30
-1.000000000000000E+20
  9
$PLIMMIN
 10
0.0
 20
0.0
  9
$PLIMMAX
 10
12.0
 20
9.0
  9
$UNITMODE
 70
     0
  9
$VISRETAIN
 70
     1
  9
$PLINEGEN
 70
     0
  9
$PSLTSCALE
 70
     1
  0
ENDSEC
  0
SECTION
  2
TABLES
  0
TABLE
  2
VPORT
 70
     1
  0
VPORT
  2
*ACTIVE
 70
     0
 10
0.0
 20
0.0
 11
1.0
 21
1.0
 12
10.42990654205607
 22
4.5
 13
0.0
 23
0.0
 14
0.5
 24
0.5
 15
0.5
 25
0.5
 16
0.0
 26
0.0
 36
1.0
 17
0.0
 27
0.0
 37
0.0
 40
9.0
 41
1.972972972850329
 42
50.0
 43
0.0
 44
0.0
 50
0.0
 51
0.0
 71
     0
 72
   100
 73
     1
 74
     3
 75
     0
 76
     0
 77
     0
 78
     0
  0
ENDTAB
  0
TABLE
  2
LTYPE
 70
     2
  0
LTYPE
  2
CONTINUOUS
 70
     0
  3
Solid line
 72
    65
 73
     0
 40
0.0
  0
LTYPE
  2
CONTINUOUS2
 70
     0
  3
Solid Line
 72
    65
 73
     0
 40
0.0
  0
ENDTAB
  0
TABLE
  2
LAYER
 70
     2
  0
LAYER
  2
0
 70
     0
 62
     7
  6
CONTINUOUS
  0
LAYER
  2
LAYER_1
 70
     0
 62
    18
  6
CONTINUOUS
  0
ENDTAB
  0
TABLE
  2
STYLE
 70
     1
  0
STYLE
  2
STANDARD
 70
     0
 40
0.0
 41
1.0
 50
0.0
 71
     0
 42
0.2
  3
txt
  4

  0
ENDTAB
  0
TABLE
  2
VIEW
 70
     0
  0
ENDTAB
  0
TABLE
  2
UCS
 70
     0
  0
ENDTAB
  0
TABLE
  2
APPID
 70
     1
  0
APPID
  2
ACAD
 70
     0
  0
ENDTAB
  0
TABLE
  2
DIMSTYLE
 70
     1
  0
DIMSTYLE
  2
STANDARD
 70
     0
  3

  4

  5

  6

  7

 40
1.0
 41
0.18
 42
0.0625
 43
0.38
 44
0.18
 45
0.0
 46
0.0
 47
0.0
 48
0.0
140
0.18
141
0.09
142
0.0
143
25.4
144
1.0
145
0.0
146
1.0
147
0.09
 71
     0
 72
     0
 73
     1
 74
     1
 75
     0
 76
     0
 77
     0
 78
     0
170
     0
171
     2
172
     0
173
     0
174
     0
175
     0
176
     0
177
     0
178
     0
  0
ENDTAB
  0
ENDSEC
  0
SECTION
  2
BLOCKS
  0
BLOCK
  8
0
  2
$MODEL_SPACE
 70
     0
 10
0.0
 20
0.0
 30
0.0
  3
$MODEL_SPACE
  1

  0
ENDBLK
  5
21
  8
0
  0
BLOCK
 67
     1
  8
0
  2
$PAPER_SPACE
 70
     0
 10
0.0
 20
0.0
 30
0.0
  3
$PAPER_SPACE
  1

  0
ENDBLK
  5
1D
 67
     1
  8
0
  0
ENDSEC
  0
SECTION
  2
ENTITIES
  0
POLYLINE
  5
41
  8
LAYER_1
 66
     1
 10
0.0
 20
0.0
 30
0.0
 70
     1
  0
VERTEX
  5
4C
  8
LAYER_1
 10
29.52190350445642
 20
23.17407416024825
 30
0.0
  0
VERTEX
  5
4D
  8
LAYER_1
 10
29.35509233634106
 20
23.32495873836523
 30
0.0
  0
VERTEX
  5
4E
  8
LAYER_1
 10
29.17734103108686
 20
23.45573742276115
 30
0.0
  0
VERTEX
  5
4F
  8
LAYER_1
 10
28.99021142214651
 20
23.56640964625054
 30
0.0
  0
VERTEX
  5
50
  8
LAYER_1
 10
28.79526534297269
 20
23.65697484164792
 30
0.0
  0
VERTEX
  5
51
  8
LAYER_1
 10
28.59406462701809
 20
23.72743244176782
 30
0.0
  0
VERTEX
  5
52
  8
LAYER_1
 10
28.3881711077354
 20
23.77778187942474
 30
0.0
  0
VERTEX
  5
53
  8
LAYER_1
 10
28.1791466185773
 20
23.80802258743319
 30
0.0
  0
VERTEX
  5
54
  8
LAYER_1
 10
27.96855299299647
 20
23.81815399860771
 30
0.0
  0
VERTEX
  5
55
  8
LAYER_1
 10
27.7579520644456
 20
23.80817554576281
 30
0.0
  0
VERTEX
  5
56
  8
LAYER_1
 10
27.54890566637739
 20
23.77808666171301
 30
0.0
  0
VERTEX
  5
57
  8
LAYER_1
 10
27.3429756322445
 20
23.72788677927284
 30
0.0
  0
VERTEX
  5
58
  8
LAYER_1
 10
27.14172379549963
 20
23.65757533125679
 30
0.0
  0
VERTEX
  5
59
  8
LAYER_1
 10
26.94671198959546
 20
23.56715175047938
 30
0.0
  0
VERTEX
  5
5A
  8
LAYER_1
 10
26.75950204798469
 20
23.45661546975516
 30
0.0
  0
VERTEX
  5
5B
  8
LAYER_1
 10
26.58165580411998
 20
23.32596592189864
 30
0.0
  0
VERTEX
  5
5C
  8
LAYER_1
 10
26.41473509145404
 20
23.1752025397243
 30
0.0
  0
VERTEX
  5
5D
  8
LAYER_1
 10
26.26385051333706
 20
23.00839137160894
 30
0.0
  0
VERTEX
  5
5E
  8
LAYER_1
 10
26.13307182894114
 20
22.83064006635474
 30
0.0
  0
VERTEX
  5
5F
  8
LAYER_1
 10
26.02239960545174
 20
22.64351045741438
 30
0.0
  0
VERTEX
  5
60
  8
LAYER_1
 10
25.93183441005436
 20
22.44856437824057
 30
0.0
  0
VERTEX
  5
61
  8
LAYER_1
 10
25.86137680993447
 20
22.24736366228597
 30
0.0
  0
VERTEX
  5
62
  8
LAYER_1
 10
25.81102737227755
 20
22.04147014300328
 30
0.0
  0
VERTEX
  5
63
  8
LAYER_1
 10
25.78078666426909
 20
21.83244565384517
 30
0.0
  0
VERTEX
  5
64
  8
LAYER_1
 10
25.77065525309457
 20
21.62185202826436
 30
0.0
  0
VERTEX
  5
65
  8
LAYER_1
 10
25.78063370593947
 20
21.41125109971348
 30
0.0
  0
VERTEX
  5
66
  8
LAYER_1
 10
25.81072258998928
 20
21.20220470164526
 30
0.0
  0
VERTEX
  5
67
  8
LAYER_1
 10
25.86092247242946
 20
20.99627466751237
 30
0.0
  0
VERTEX
  5
68
  8
LAYER_1
 10
25.93123392044551
 20
20.79502283076751
 30
0.0
  0
VERTEX
  5
69
  8
LAYER_1
 10
26.0216575012229
 20
20.60001102486334
 30
0.0
  0
VERTEX
  5
6A
  8
LAYER_1
 10
26.13219378194712
 20
20.41280108325256
 30
0.0
  0
VERTEX
  5
6B
  8
LAYER_1
 10
26.26284332980366
 20
20.23495483938786
 30
0.0
  0
VERTEX
  5
6C
  8
LAYER_1
 10
26.41360671197798
 20
20.06803412672192
 30
0.0
  0
VERTEX
  5
6D
  8
LAYER_1
 10
26.58041788009334
 20
19.91714954860494
 30
0.0
  0
VERTEX
  5
6E
  8
LAYER_1
 10
26.75816918534754
 20
19.78637086420902
 30
0.0
  0
VERTEX
  5
6F
  8
LAYER_1
 10
26.94529879428789
 20
19.67569864071961
 30
0.0
  0
VERTEX
  5
70
  8
LAYER_1
 10
27.14024487346171
 20
19.58513344532223
 30
0.0
  0
VERTEX
  5
71
  8
LAYER_1
 10
27.34144558941631
 20
19.51467584520234
 30
0.0
  0
VERTEX
  5
72
  8
LAYER_1
 10
27.547339108699
 20
19.46432640754543
 30
0.0
  0
VERTEX
  5
73
  8
LAYER_1
 10
27.75636359785711
 20
19.43408569953698
 30
0.0
  0
VERTEX
  5
74
  8
LAYER_1
 10
27.96695722343793
 20
19.42395428836244
 30
0.0
  0
VERTEX
  5
75
  8
LAYER_1
 10
28.1775581519888
 20
19.43393274120735
 30
0.0
  0
VERTEX
  5
76
  8
LAYER_1
 10
28.38660455005702
 20
19.46402162525714
 30
0.0
  0
VERTEX
  5
77
  8
LAYER_1
 10
28.59253458418991
 20
19.51422150769733
 30
0.0
  0
VERTEX
  5
78
  8
LAYER_1
 10
28.79378642093478
 20
19.58453295571338
 30
0.0
  0
VERTEX
  5
79
  8
LAYER_1
 10
28.98879822683895
 20
19.67495653649077
 30
0.0
  0
VERTEX
  5
7A
  8
LAYER_1
 10
29.17600816844973
 20
19.785492817215
 30
0.0
  0
VERTEX
  5
7B
  8
LAYER_1
 10
29.35385441231443
 20
19.91614236507153
 30
0.0
  0
VERTEX
  5
7C
  8
LAYER_1
 10
29.52077512498037
 20
20.06690574724587
 30
0.0
  0
VERTEX
  5
7D
  8
LAYER_1
 10
29.67165970309735
 20
20.23371691536122
 30
0.0
  0
VERTEX
  5
7E
  8
LAYER_1
 10
29.80243838749328
 20
20.41146822061542
 30
0.0
  0
VERTEX
  5
7F
  8
LAYER_1
 10
29.91311061098267
 20
20.59859782955577
 30
0.0
  0
VERTEX
  5
80
  8
LAYER_1
 10
30.00367580638005
 20
20.7935439087296
 30
0.0
  0
VERTEX
  5
81
  8
LAYER_1
 10
30.07413340649994
 20
20.99474462468419
 30
0.0
  0
VERTEX
  5
82
  8
LAYER_1
 10
30.12448284415686
 20
21.20063814396688
 30
0.0
  0
VERTEX
  5
83
  8
LAYER_1
 10
30.15472355216531
 20
21.40966263312499
 30
0.0
  0
VERTEX
  5
84
  8
LAYER_1
 10
30.16485496333983
 20
21.62025625870582
 30
0.0
  0
VERTEX
  5
85
  8
LAYER_1
 10
30.15487651049494
 20
21.83085718725667
 30
0.0
  0
VERTEX
  5
86
  8
LAYER_1
 10
30.12478762644513
 20
22.0399035853249
 30
0.0
  0
VERTEX
  5
87
  8
LAYER_1
 10
30.07458774400495
 20
22.24583361945779
 30
0.0
  0
VERTEX
  5
88
  8
LAYER_1
 10
30.0042762959889
 20
22.44708545620265
 30
0.0
  0
VERTEX
  5
89
  8
LAYER_1
 10
29.91385271521151
 20
22.64209726210681
 30
0.0
  0
VERTEX
  5
8A
  8
LAYER_1
 10
29.80331643448728
 20
22.82930720371759
 30
0.0
  0
VERTEX
  5
8B
  8
LAYER_1
 10
29.67266688663075
 20
23.0071534475823
 30
0.0
  0
SEQEND
  5
8C
  8
LAYER_1
  0
POLYLINE
  5
42
  8
LAYER_1
 66
     1
 10
0.0
 20
0.0
 30
0.0
 70
     1
  0
VERTEX
  5
8D
  8
LAYER_1
 10
-26.43392727482631
 20
23.19439472309657
 30
0.0
  0
VERTEX
  5
8E
  8
LAYER_1
 10
-26.60073844294168
 20
23.34527930121355
 30
0.0
  0
VERTEX
  5
8F
  8
LAYER_1
 10
-26.77848974819587
 20
23.47605798560947
 30
0.0
  0
VERTEX
  5
90
  8
LAYER_1
 10
-26.96561935713623
 20
23.58673020909887
 30
0.0
  0
VERTEX
  5
91
  8
LAYER_1
 10
-27.16056543631004
 20
23.67729540449626
 30
0.0
  0
VERTEX
  5
92
  8
LAYER_1
 10
-27.36176615226464
 20
23.74775300461614
 30
0.0
  0
VERTEX
  5
93
  8
LAYER_1
 10
-27.56765967154733
 20
23.79810244227306
 30
0.0
  0
VERTEX
  5
94
  8
LAYER_1
 10
-27.77668416070544
 20
23.82834315028153
 30
0.0
  0
VERTEX
  5
95
  8
LAYER_1
 10
-27.98727778628626
 20
23.83847456145605
 30
0.0
  0
VERTEX
  5
96
  8
LAYER_1
 10
-28.19787871483713
 20
23.82849610861115
 30
0.0
  0
VERTEX
  5
97
  8
LAYER_1
 10
-28.40692511290535
 20
23.79840722456134
 30
0.0
  0
VERTEX
  5
98
  8
LAYER_1
 10
-28.61285514703824
 20
23.74820734212116
 30
0.0
  0
VERTEX
  5
99
  8
LAYER_1
 10
-28.81410698378311
 20
23.67789589410511
 30
0.0
  0
VERTEX
  5
9A
  8
LAYER_1
 10
-29.00911878968727
 20
23.58747231332772
 30
0.0
  0
VERTEX
  5
9B
  8
LAYER_1
 10
-29.19632873129805
 20
23.4769360326035
 30
0.0
  0
VERTEX
  5
9C
  8
LAYER_1
 10
-29.37417497516276
 20
23.34628648474695
 30
0.0
  0
VERTEX
  5
9D
  8
LAYER_1
 10
-29.5410956878287
 20
23.19552310257264
 30
0.0
  0
VERTEX
  5
9E
  8
LAYER_1
 10
-29.69198026594567
 20
23.02871193445728
 30
0.0
  0
VERTEX
  5
9F
  8
LAYER_1
 10
-29.8227589503416
 20
22.85096062920308
 30
0.0
  0
VERTEX
  5
A0
  8
LAYER_1
 10
-29.933431173831
 20
22.66383102026272
 30
0.0
  0
VERTEX
  5
A1
  8
LAYER_1
 10
-30.02399636922838
 20
22.46888494108891
 30
0.0
  0
VERTEX
  5
A2
  8
LAYER_1
 10
-30.09445396934827
 20
22.26768422513431
 30
0.0
  0
VERTEX
  5
A3
  8
LAYER_1
 10
-30.14480340700518
 20
22.06179070585162
 30
0.0
  0
VERTEX
  5
A4
  8
LAYER_1
 10
-30.17504411501364
 20
21.85276621669351
 30
0.0
  0
VERTEX
  5
A5
  8
LAYER_1
 10
-30.18517552618817
 20
21.64217259111268
 30
0.0
  0
VERTEX
  5
A6
  8
LAYER_1
 10
-30.17519707334327
 20
21.43157166256182
 30
0.0
  0
VERTEX
  5
A7
  8
LAYER_1
 10
-30.14510818929347
 20
21.2225252644936
 30
0.0
  0
VERTEX
  5
A8
  8
LAYER_1
 10
-30.09490830685328
 20
21.01659523036071
 30
0.0
  0
VERTEX
  5
A9
  8
LAYER_1
 10
-30.02459685883723
 20
20.81534339361583
 30
0.0
  0
VERTEX
  5
AA
  8
LAYER_1
 10
-29.93417327805984
 20
20.62033158771167
 30
0.0
  0
VERTEX
  5
AB
  8
LAYER_1
 10
-29.82363699733562
 20
20.43312164610088
 30
0.0
  0
VERTEX
  5
AC
  8
LAYER_1
 10
-29.69298744947908
 20
20.25527540223618
 30
0.0
  0
VERTEX
  5
AD
  8
LAYER_1
 10
-29.54222406730475
 20
20.08835468957024
 30
0.0
  0
VERTEX
  5
AE
  8
LAYER_1
 10
-29.37541289918939
 20
19.93747011145326
 30
0.0
  0
VERTEX
  5
AF
  8
LAYER_1
 10
-29.19766159393519
 20
19.80669142705733
 30
0.0
  0
VERTEX
  5
B0
  8
LAYER_1
 10
-29.01053198499484
 20
19.69601920356795
 30
0.0
  0
VERTEX
  5
B1
  8
LAYER_1
 10
-28.81558590582102
 20
19.60545400817056
 30
0.0
  0
VERTEX
  5
B2
  8
LAYER_1
 10
-28.61438518986643
 20
19.53499640805068
 30
0.0
  0
VERTEX
  5
B3
  8
LAYER_1
 10
-28.40849167058374
 20
19.48464697039376
 30
0.0
  0
VERTEX
  5
B4
  8
LAYER_1
 10
-28.19946718142563
 20
19.4544062623853
 30
0.0
  0
VERTEX
  5
B5
  8
LAYER_1
 10
-27.9888735558448
 20
19.44427485121078
 30
0.0
  0
VERTEX
  5
B6
  8
LAYER_1
 10
-27.77827262729394
 20
19.45425330405567
 30
0.0
  0
VERTEX
  5
B7
  8
LAYER_1
 10
-27.56922622922572
 20
19.48434218810548
 30
0.0
  0
VERTEX
  5
B8
  8
LAYER_1
 10
-27.36329619509283
 20
19.53454207054567
 30
0.0
  0
VERTEX
  5
B9
  8
LAYER_1
 10
-27.16204435834796
 20
19.60485351856171
 30
0.0
  0
VERTEX
  5
BA
  8
LAYER_1
 10
-26.9670325524438
 20
19.6952770993391
 30
0.0
  0
VERTEX
  5
BB
  8
LAYER_1
 10
-26.77982261083302
 20
19.80581338006334
 30
0.0
  0
VERTEX
  5
BC
  8
LAYER_1
 10
-26.60197636696831
 20
19.93646292791987
 30
0.0
  0
VERTEX
  5
BD
  8
LAYER_1
 10
-26.43505565430237
 20
20.08722631009419
 30
0.0
  0
VERTEX
  5
BE
  8
LAYER_1
 10
-26.28417107618539
 20
20.25403747820956
 30
0.0
  0
VERTEX
  5
BF
  8
LAYER_1
 10
-26.15339239178947
 20
20.43178878346376
 30
0.0
  0
VERTEX
  5
C0
  8
LAYER_1
 10
-26.04272016830007
 20
20.6189183924041
 30
0.0
  0
VERTEX
  5
C1
  8
LAYER_1
 10
-25.95215497290269
 20
20.81386447157792
 30
0.0
  0
VERTEX
  5
C2
  8
LAYER_1
 10
-25.8816973727828
 20
21.01506518753253
 30
0.0
  0
VERTEX
  5
C3
  8
LAYER_1
 10
-25.83134793512588
 20
21.22095870681522
 30
0.0
  0
VERTEX
  5
C4
  8
LAYER_1
 10
-25.80110722711742
 20
21.42998319597331
 30
0.0
  0
VERTEX
  5
C5
  8
LAYER_1
 10
-25.7909758159429
 20
21.64057682155414
 30
0.0
  0
VERTEX
  5
C6
  8
LAYER_1
 10
-25.80095426878781
 20
21.85117775010501
 30
0.0
  0
VERTEX
  5
C7
  8
LAYER_1
 10
-25.8310431528376
 20
22.06022414817322
 30
0.0
  0
VERTEX
  5
C8
  8
LAYER_1
 10
-25.88124303527778
 20
22.26615418230611
 30
0.0
  0
VERTEX
  5
C9
  8
LAYER_1
 10
-25.95155448329383
 20
22.46740601905099
 30
0.0
  0
VERTEX
  5
CA
  8
LAYER_1
 10
-26.04197806407123
 20
22.66241782495515
 30
0.0
  0
VERTEX
  5
CB
  8
LAYER_1
 10
-26.15251434479545
 20
22.84962776656593
 30
0.0
  0
VERTEX
  5
CC
  8
LAYER_1
 10
-26.28316389265198
 20
23.02747401043064
 30
0.0
  0
SEQEND
  5
CD
  8
LAYER_1
  0
POLYLINE
  5
43
  8
LAYER_1
 66
     1
 10
0.0
 20
0.0
 30
0.0
 70
     1
  0
VERTEX
  5
CE
  8
LAYER_1
 10
29.54222406730475
 20
79.12990493953097
 30
0.0
  0
VERTEX
  5
CF
  8
LAYER_1
 10
29.37541289918939
 20
79.28078951764796
 30
0.0
  0
VERTEX
  5
D0
  8
LAYER_1
 10
29.19766159393519
 20
79.4115682020439
 30
0.0
  0
VERTEX
  5
D1
  8
LAYER_1
 10
29.01053198499484
 20
79.52224042553328
 30
0.0
  0
VERTEX
  5
D2
  8
LAYER_1
 10
28.81558590582102
 20
79.61280562093066
 30
0.0
  0
VERTEX
  5
D3
  8
LAYER_1
 10
28.61438518986643
 20
79.68326322105055
 30
0.0
  0
VERTEX
  5
D4
  8
LAYER_1
 10
28.40849167058374
 20
79.73361265870747
 30
0.0
  0
VERTEX
  5
D5
  8
LAYER_1
 10
28.19946718142563
 20
79.76385336671592
 30
0.0
  0
VERTEX
  5
D6
  8
LAYER_1
 10
27.9888735558448
 20
79.77398477789045
 30
0.0
  0
VERTEX
  5
D7
  8
LAYER_1
 10
27.77827262729394
 20
79.76400632504556
 30
0.0
  0
VERTEX
  5
D8
  8
LAYER_1
 10
27.56922622922572
 20
79.73391744099574
 30
0.0
  0
VERTEX
  5
D9
  8
LAYER_1
 10
27.36329619509283
 20
79.68371755855556
 30
0.0
  0
VERTEX
  5
DA
  8
LAYER_1
 10
27.16204435834796
 20
79.61340611053951
 30
0.0
  0
VERTEX
  5
DB
  8
LAYER_1
 10
26.9670325524438
 20
79.52298252976212
 30
0.0
  0
VERTEX
  5
DC
  8
LAYER_1
 10
26.77982261083302
 20
79.41244624903788
 30
0.0
  0
VERTEX
  5
DD
  8
LAYER_1
 10
26.60197636696831
 20
79.28179670118136
 30
0.0
  0
VERTEX
  5
DE
  8
LAYER_1
 10
26.43505565430237
 20
79.13103331900703
 30
0.0
  0
VERTEX
  5
DF
  8
LAYER_1
 10
26.28417107618539
 20
78.96422215089167
 30
0.0
  0
VERTEX
  5
E0
  8
LAYER_1
 10
26.15339239178947
 20
78.78647084563748
 30
0.0
  0
VERTEX
  5
E1
  8
LAYER_1
 10
26.04272016830007
 20
78.59934123669713
 30
0.0
  0
VERTEX
  5
E2
  8
LAYER_1
 10
25.95215497290269
 20
78.40439515752331
 30
0.0
  0
VERTEX
  5
E3
  8
LAYER_1
 10
25.8816973727828
 20
78.2031944415687
 30
0.0
  0
VERTEX
  5
E4
  8
LAYER_1
 10
25.83134793512588
 20
77.99730092228602
 30
0.0
  0
VERTEX
  5
E5
  8
LAYER_1
 10
25.80110722711742
 20
77.7882764331279
 30
0.0
  0
VERTEX
  5
E6
  8
LAYER_1
 10
25.7909758159429
 20
77.57768280754709
 30
0.0
  0
VERTEX
  5
E7
  8
LAYER_1
 10
25.80095426878781
 20
77.36708187899622
 30
0.0
  0
VERTEX
  5
E8
  8
LAYER_1
 10
25.8310431528376
 20
77.158035480928
 30
0.0
  0
VERTEX
  5
E9
  8
LAYER_1
 10
25.88124303527778
 20
76.95210544679512
 30
0.0
  0
VERTEX
  5
EA
  8
LAYER_1
 10
25.95155448329383
 20
76.75085361005024
 30
0.0
  0
VERTEX
  5
EB
  8
LAYER_1
 10
26.04197806407123
 20
76.55584180414607
 30
0.0
  0
VERTEX
  5
EC
  8
LAYER_1
 10
26.15251434479545
 20
76.36863186253531
 30
0.0
  0
VERTEX
  5
ED
  8
LAYER_1
 10
26.28316389265198
 20
76.1907856186706
 30
0.0
  0
VERTEX
  5
EE
  8
LAYER_1
 10
26.43392727482631
 20
76.02386490600466
 30
0.0
  0
VERTEX
  5
EF
  8
LAYER_1
 10
26.60073844294168
 20
75.87298032788769
 30
0.0
  0
VERTEX
  5
F0
  8
LAYER_1
 10
26.77848974819587
 20
75.74220164349177
 30
0.0
  0
VERTEX
  5
F1
  8
LAYER_1
 10
26.96561935713623
 20
75.63152942000237
 30
0.0
  0
VERTEX
  5
F2
  8
LAYER_1
 10
27.16056543631004
 20
75.54096422460498
 30
0.0
  0
VERTEX
  5
F3
  8
LAYER_1
 10
27.36176615226464
 20
75.47050662448508
 30
0.0
  0
VERTEX
  5
F4
  8
LAYER_1
 10
27.56765967154733
 20
75.42015718682816
 30
0.0
  0
VERTEX
  5
F5
  8
LAYER_1
 10
27.77668416070544
 20
75.38991647881971
 30
0.0
  0
VERTEX
  5
F6
  8
LAYER_1
 10
27.98727778628626
 20
75.37978506764519
 30
0.0
  0
VERTEX
  5
F7
  8
LAYER_1
 10
28.19787871483713
 20
75.38976352049009
 30
0.0
  0
VERTEX
  5
F8
  8
LAYER_1
 10
28.40692511290535
 20
75.4198524045399
 30
0.0
  0
VERTEX
  5
F9
  8
LAYER_1
 10
28.61285514703824
 20
75.47005228698008
 30
0.0
  0
VERTEX
  5
FA
  8
LAYER_1
 10
28.81410698378311
 20
75.54036373499613
 30
0.0
  0
VERTEX
  5
FB
  8
LAYER_1
 10
29.00911878968727
 20
75.63078731577352
 30
0.0
  0
VERTEX
  5
FC
  8
LAYER_1
 10
29.19632873129805
 20
75.74132359649774
 30
0.0
  0
VERTEX
  5
FD
  8
LAYER_1
 10
29.37417497516276
 20
75.87197314435429
 30
0.0
  0
VERTEX
  5
FE
  8
LAYER_1
 10
29.5410956878287
 20
76.0227365265286
 30
0.0
  0
VERTEX
  5
FF
  8
LAYER_1
 10
29.69198026594567
 20
76.18954769464396
 30
0.0
  0
VERTEX
  5
100
  8
LAYER_1
 10
29.8227589503416
 20
76.36729899989817
 30
0.0
  0
VERTEX
  5
101
  8
LAYER_1
 10
29.933431173831
 20
76.5544286088385
 30
0.0
  0
VERTEX
  5
102
  8
LAYER_1
 10
30.02399636922838
 20
76.74937468801232
 30
0.0
  0
VERTEX
  5
103
  8
LAYER_1
 10
30.09445396934827
 20
76.95057540396692
 30
0.0
  0
VERTEX
  5
104
  8
LAYER_1
 10
30.14480340700518
 20
77.15646892324962
 30
0.0
  0
VERTEX
  5
105
  8
LAYER_1
 10
30.17504411501364
 20
77.36549341240773
 30
0.0
  0
VERTEX
  5
106
  8
LAYER_1
 10
30.18517552618817
 20
77.57608703798854
 30
0.0
  0
VERTEX
  5
107
  8
LAYER_1
 10
30.17519707334327
 20
77.78668796653942
 30
0.0
  0
VERTEX
  5
108
  8
LAYER_1
 10
30.14510818929347
 20
77.99573436460763
 30
0.0
  0
VERTEX
  5
109
  8
LAYER_1
 10
30.09490830685328
 20
78.20166439874052
 30
0.0
  0
VERTEX
  5
10A
  8
LAYER_1
 10
30.02459685883723
 20
78.40291623548539
 30
0.0
  0
VERTEX
  5
10B
  8
LAYER_1
 10
29.93417327805984
 20
78.59792804138957
 30
0.0
  0
VERTEX
  5
10C
  8
LAYER_1
 10
29.82363699733562
 20
78.78513798300034
 30
0.0
  0
VERTEX
  5
10D
  8
LAYER_1
 10
29.69298744947908
 20
78.96298422686503
 30
0.0
  0
SEQEND
  5
10E
  8
LAYER_1
  0
POLYLINE
  5
44
  8
LAYER_1
 66
     1
 10
0.0
 20
0.0
 30
0.0
 70
     1
  0
VERTEX
  5
10F
  8
LAYER_1
 10
-26.41360671197798
 20
79.15022550237931
 30
0.0
  0
VERTEX
  5
110
  8
LAYER_1
 10
-26.58041788009334
 20
79.30111008049629
 30
0.0
  0
VERTEX
  5
111
  8
LAYER_1
 10
-26.75816918534754
 20
79.43188876489221
 30
0.0
  0
VERTEX
  5
112
  8
LAYER_1
 10
-26.94529879428789
 20
79.54256098838161
 30
0.0
  0
VERTEX
  5
113
  8
LAYER_1
 10
-27.14024487346171
 20
79.633126183779
 30
0.0
  0
VERTEX
  5
114
  8
LAYER_1
 10
-27.34144558941631
 20
79.70358378389888
 30
0.0
  0
VERTEX
  5
115
  8
LAYER_1
 10
-27.547339108699
 20
79.7539332215558
 30
0.0
  0
VERTEX
  5
116
  8
LAYER_1
 10
-27.75636359785711
 20
79.78417392956425
 30
0.0
  0
VERTEX
  5
117
  8
LAYER_1
 10
-27.96695722343793
 20
79.79430534073879
 30
0.0
  0
VERTEX
  5
118
  8
LAYER_1
 10
-28.1775581519888
 20
79.78432688789388
 30
0.0
  0
VERTEX
  5
119
  8
LAYER_1
 10
-28.38660455005702
 20
79.75423800384408
 30
0.0
  0
VERTEX
  5
11A
  8
LAYER_1
 10
-28.59253458418991
 20
79.7040381214039
 30
0.0
  0
VERTEX
  5
11B
  8
LAYER_1
 10
-28.79378642093478
 20
79.63372667338784
 30
0.0
  0
VERTEX
  5
11C
  8
LAYER_1
 10
-28.98879822683895
 20
79.54330309261046
 30
0.0
  0
VERTEX
  5
11D
  8
LAYER_1
 10
-29.17600816844973
 20
79.43276681188622
 30
0.0
  0
VERTEX
  5
11E
  8
LAYER_1
 10
-29.35385441231443
 20
79.30211726402969
 30
0.0
  0
VERTEX
  5
11F
  8
LAYER_1
 10
-29.52077512498037
 20
79.15135388185536
 30
0.0
  0
VERTEX
  5
120
  8
LAYER_1
 10
-29.67165970309735
 20
78.98454271374
 30
0.0
  0
VERTEX
  5
121
  8
LAYER_1
 10
-29.80243838749328
 20
78.80679140848581
 30
0.0
  0
VERTEX
  5
122
  8
LAYER_1
 10
-29.91311061098267
 20
78.61966179954545
 30
0.0
  0
VERTEX
  5
123
  8
LAYER_1
 10
-30.00367580638005
 20
78.42471572037164
 30
0.0
  0
VERTEX
  5
124
  8
LAYER_1
 10
-30.07413340649994
 20
78.22351500441704
 30
0.0
  0
VERTEX
  5
125
  8
LAYER_1
 10
-30.12448284415686
 20
78.01762148513436
 30
0.0
  0
VERTEX
  5
126
  8
LAYER_1
 10
-30.15472355216531
 20
77.80859699597625
 30
0.0
  0
VERTEX
  5
127
  8
LAYER_1
 10
-30.16485496333983
 20
77.59800337039542
 30
0.0
  0
VERTEX
  5
128
  8
LAYER_1
 10
-30.15487651049494
 20
77.38740244184456
 30
0.0
  0
VERTEX
  5
129
  8
LAYER_1
 10
-30.12478762644513
 20
77.17835604377633
 30
0.0
  0
VERTEX
  5
12A
  8
LAYER_1
 10
-30.07458774400495
 20
76.97242600964344
 30
0.0
  0
VERTEX
  5
12B
  8
LAYER_1
 10
-30.0042762959889
 20
76.77117417289857
 30
0.0
  0
VERTEX
  5
12C
  8
LAYER_1
 10
-29.91385271521151
 20
76.57616236699441
 30
0.0
  0
VERTEX
  5
12D
  8
LAYER_1
 10
-29.80331643448728
 20
76.38895242538364
 30
0.0
  0
VERTEX
  5
12E
  8
LAYER_1
 10
-29.67266688663075
 20
76.21110618151893
 30
0.0
  0
VERTEX
  5
12F
  8
LAYER_1
 10
-29.52190350445642
 20
76.04418546885299
 30
0.0
  0
VERTEX
  5
130
  8
LAYER_1
 10
-29.35509233634106
 20
75.89330089073601
 30
0.0
  0
VERTEX
  5
131
  8
LAYER_1
 10
-29.17734103108686
 20
75.7625222063401
 30
0.0
  0
VERTEX
  5
132
  8
LAYER_1
 10
-28.99021142214651
 20
75.65184998285069
 30
0.0
  0
VERTEX
  5
133
  8
LAYER_1
 10
-28.79526534297269
 20
75.5612847874533
 30
0.0
  0
VERTEX
  5
134
  8
LAYER_1
 10
-28.59406462701809
 20
75.49082718733342
 30
0.0
  0
VERTEX
  5
135
  8
LAYER_1
 10
-28.3881711077354
 20
75.4404777496765
 30
0.0
  0
VERTEX
  5
136
  8
LAYER_1
 10
-28.1791466185773
 20
75.41023704166804
 30
0.0
  0
VERTEX
  5
137
  8
LAYER_1
 10
-27.96855299299647
 20
75.40010563049351
 30
0.0
  0
VERTEX
  5
138
  8
LAYER_1
 10
-27.7579520644456
 20
75.41008408333843
 30
0.0
  0
VERTEX
  5
139
  8
LAYER_1
 10
-27.54890566637739
 20
75.44017296738822
 30
0.0
  0
VERTEX
  5
13A
  8
LAYER_1
 10
-27.3429756322445
 20
75.4903728498284
 30
0.0
  0
VERTEX
  5
13B
  8
LAYER_1
 10
-27.14172379549963
 20
75.56068429784445
 30
0.0
  0
VERTEX
  5
13C
  8
LAYER_1
 10
-26.94671198959546
 20
75.65110787862186
 30
0.0
  0
VERTEX
  5
13D
  8
LAYER_1
 10
-26.75950204798469
 20
75.76164415934608
 30
0.0
  0
VERTEX
  5
13E
  8
LAYER_1
 10
-26.58165580411998
 20
75.8922937072026
 30
0.0
  0
VERTEX
  5
13F
  8
LAYER_1
 10
-26.41473509145404
 20
76.04305708937693
 30
0.0
  0
VERTEX
  5
140
  8
LAYER_1
 10
-26.26385051333706
 20
76.2098682574923
 30
0.0
  0
VERTEX
  5
141
  8
LAYER_1
 10
-26.13307182894114
 20
76.3876195627465
 30
0.0
  0
VERTEX
  5
142
  8
LAYER_1
 10
-26.02239960545174
 20
76.57474917168685
 30
0.0
  0
VERTEX
  5
143
  8
LAYER_1
 10
-25.93183441005436
 20
76.76969525086065
 30
0.0
  0
VERTEX
  5
144
  8
LAYER_1
 10
-25.86137680993447
 20
76.97089596681526
 30
0.0
  0
VERTEX
  5
145
  8
LAYER_1
 10
-25.81102737227755
 20
77.17678948609795
 30
0.0
  0
VERTEX
  5
146
  8
LAYER_1
 10
-25.78078666426909
 20
77.38581397525606
 30
0.0
  0
VERTEX
  5
147
  8
LAYER_1
 10
-25.77065525309457
 20
77.59640760083688
 30
0.0
  0
VERTEX
  5
148
  8
LAYER_1
 10
-25.78063370593947
 20
77.80700852938774
 30
0.0
  0
VERTEX
  5
149
  8
LAYER_1
 10
-25.81072258998928
 20
78.01605492745597
 30
0.0
  0
VERTEX
  5
14A
  8
LAYER_1
 10
-25.86092247242946
 20
78.22198496158886
 30
0.0
  0
VERTEX
  5
14B
  8
LAYER_1
 10
-25.93123392044551
 20
78.42323679833372
 30
0.0
  0
VERTEX
  5
14C
  8
LAYER_1
 10
-26.0216575012229
 20
78.61824860423789
 30
0.0
  0
VERTEX
  5
14D
  8
LAYER_1
 10
-26.13219378194712
 20
78.80545854584867
 30
0.0
  0
VERTEX
  5
14E
  8
LAYER_1
 10
-26.26284332980366
 20
78.98330478971337
 30
0.0
  0
SEQEND
  5
14F
  8
LAYER_1
  0
POLYLINE
  5
45
  8
LAYER_1
 66
     1
 10
0.0
 20
0.0
 30
0.0
 70
     1
  0
VERTEX
  5
150
  8
LAYER_1
 10
-28.575
 20
-8.334620185449351
 30
0.0
  0
VERTEX
  5
151
  8
LAYER_1
 10
-28.57795708022007
 20
14.17190529873389
 30
0.0
  0
VERTEX
  5
152
  8
LAYER_1
 10
-29.10998432605575
 20
14.58818267873592
 30
0.0
  0
VERTEX
  5
153
  8
LAYER_1
 10
-29.63518669768753
 20
15.01148265692837
 30
0.0
  0
VERTEX
  5
154
  8
LAYER_1
 10
-30.1535144818277
 20
15.44171539950373
 30
0.0
  0
VERTEX
  5
155
  8
LAYER_1
 10
-30.66491796518857
 20
15.87879107265448
 30
0.0
  0
VERTEX
  5
156
  8
LAYER_1
 10
-31.16934743448244
 20
16.32261984257312
 30
0.0
  0
VERTEX
  5
157
  8
LAYER_1
 10
-31.6667531764216
 20
16.77311187545213
 30
0.0
  0
VERTEX
  5
158
  8
LAYER_1
 10
-32.15708547771837
 20
17.230177337484
 30
0.0
  0
VERTEX
  5
159
  8
LAYER_1
 10
-32.64029462508504
 20
17.69372639486122
 30
0.0
  0
VERTEX
  5
15A
  8
LAYER_1
 10
-33.11633090523392
 20
18.16366921377626
 30
0.0
  0
VERTEX
  5
15B
  8
LAYER_1
 10
-33.58514460487731
 20
18.63991596042163
 30
0.0
  0
VERTEX
  5
15C
  8
LAYER_1
 10
-34.04668601072753
 20
19.12237680098981
 30
0.0
  0
VERTEX
  5
15D
  8
LAYER_1
 10
-34.50090540949685
 20
19.61096190167328
 30
0.0
  0
VERTEX
  5
15E
  8
LAYER_1
 10
-34.9477530878976
 20
20.10558142866454
 30
0.0
  0
VERTEX
  5
15F
  8
LAYER_1
 10
-35.38717933264206
 20
20.60614554815606
 30
0.0
  0
VERTEX
  5
160
  8
LAYER_1
 10
-35.81913443044256
 20
21.11256442634034
 30
0.0
  0
VERTEX
  5
161
  8
LAYER_1
 10
-36.24356866801138
 20
21.62474822940987
 30
0.0
  0
VERTEX
  5
162
  8
LAYER_1
 10
-36.66043233206083
 20
22.14260712355714
 30
0.0
  0
VERTEX
  5
163
  8
LAYER_1
 10
-37.06967570930321
 20
22.66605127497462
 30
0.0
  0
VERTEX
  5
164
  8
LAYER_1
 10
-37.47124908645083
 20
23.19499084985481
 30
0.0
  0
VERTEX
  5
165
  8
LAYER_1
 10
-37.86510275021598
 20
23.7293360143902
 30
0.0
  0
VERTEX
  5
166
  8
LAYER_1
 10
-38.25118698731097
 20
24.26899693477327
 30
0.0
  0
VERTEX
  5
167
  8
LAYER_1
 10
-38.62945208444812
 20
24.81388377719651
 30
0.0
  0
VERTEX
  5
168
  8
LAYER_1
 10
-38.9998483283397
 20
25.36390670785241
 30
0.0
  0
VERTEX
  5
169
  8
LAYER_1
 10
-39.36232600569804
 20
25.91897589293346
 30
0.0
  0
VERTEX
  5
16A
  8
LAYER_1
 10
-39.71683540323542
 20
26.47900149863214
 30
0.0
  0
VERTEX
  5
16B
  8
LAYER_1
 10
-40.06332680766416
 20
27.04389369114093
 30
0.0
  0
VERTEX
  5
16C
  8
LAYER_1
 10
-40.40175050569655
 20
27.61356263665234
 30
0.0
  0
VERTEX
  5
16D
  8
LAYER_1
 10
-40.73205678404491
 20
28.18791850135884
 30
0.0
  0
VERTEX
  5
16E
  8
LAYER_1
 10
-41.05419592942153
 20
28.76687145145292
 30
0.0
  0
VERTEX
  5
16F
  8
LAYER_1
 10
-41.36811822853871
 20
29.35033165312707
 30
0.0
  0
VERTEX
  5
170
  8
LAYER_1
 10
-41.67377396810876
 20
29.93820927257379
 30
0.0
  0
VERTEX
  5
171
  8
LAYER_1
 10
-41.97111343484399
 20
30.53041447598554
 30
0.0
  0
VERTEX
  5
172
  8
LAYER_1
 10
-42.26008691545668
 20
31.12685742955483
 30
0.0
  0
VERTEX
  5
173
  8
LAYER_1
 10
-42.54064469665915
 20
31.72744829947414
 30
0.0
  0
VERTEX
  5
174
  8
LAYER_1
 10
-42.8127370651637
 20
32.33209725193596
 30
0.0
  0
VERTEX
  5
175
  8
LAYER_1
 10
-43.07631430768262
 20
32.94071445313277
 30
0.0
  0
VERTEX
  5
176
  8
LAYER_1
 10
-43.33132671092824
 20
33.55321006925707
 30
0.0
  0
VERTEX
  5
177
  8
LAYER_1
 10
-43.57772456161283
 20
34.16949426650133
 30
0.0
  0
VERTEX
  5
178
  8
LAYER_1
 10
-43.81545814644872
 20
34.78947721105806
 30
0.0
  0
VERTEX
  5
179
  8
LAYER_1
 10
-44.0444777521482
 20
35.41306906911972
 30
0.0
  0
VERTEX
  5
17A
  8
LAYER_1
 10
-44.26473366542358
 20
36.04018000687881
 30
0.0
  0
VERTEX
  5
17B
  8
LAYER_1
 10
-44.47617617298714
 20
36.67072019052783
 30
0.0
  0
VERTEX
  5
17C
  8
LAYER_1
 10
-44.6787555615512
 20
37.30459978625926
 30
0.0
  0
VERTEX
  5
17D
  8
LAYER_1
 10
-44.87242211782807
 20
37.94172896026559
 30
0.0
  0
VERTEX
  5
17E
  8
LAYER_1
 10
-45.05712612853004
 20
38.58201787873929
 30
0.0
  0
VERTEX
  5
17F
  8
LAYER_1
 10
-45.23281788036942
 20
39.22537670787287
 30
0.0
  0
VERTEX
  5
180
  8
LAYER_1
 10
-45.39944766005851
 20
39.8717156138588
 30
0.0
  0
VERTEX
  5
181
  8
LAYER_1
 10
-45.55696575430962
 20
40.52094476288957
 30
0.0
  0
VERTEX
  5
182
  8
LAYER_1
 10
-45.70532244983504
 20
41.17297432115767
 30
0.0
  0
VERTEX
  5
183
  8
LAYER_1
 10
-45.84446803334708
 20
41.8277144548556
 30
0.0
  0
VERTEX
  5
184
  8
LAYER_1
 10
-45.97435279155803
 20
42.48507533017584
 30
0.0
  0
VERTEX
  5
185
  8
LAYER_1
 10
-46.09492701118022
 20
43.14496711331087
 30
0.0
  0
VERTEX
  5
186
  8
LAYER_1
 10
-46.20614097892592
 20
43.80729997045318
 30
0.0
  0
VERTEX
  5
187
  8
LAYER_1
 10
-46.30794498150746
 20
44.47198406779526
 30
0.0
  0
VERTEX
  5
188
  8
LAYER_1
 10
-46.40028930563713
 20
45.1389295715296
 30
0.0
  0
VERTEX
  5
189
  8
LAYER_1
 10
-46.48312423802723
 20
45.80804664784868
 30
0.0
  0
VERTEX
  5
18A
  8
LAYER_1
 10
-46.55640006539006
 20
46.479245462945
 30
0.0
  0
VERTEX
  5
18B
  8
LAYER_1
 10
-46.62006707443795
 20
47.15243618301103
 30
0.0
  0
VERTEX
  5
18C
  8
LAYER_1
 10
-46.67407555188316
 20
47.82752897423927
 30
0.0
  0
VERTEX
  5
18D
  8
LAYER_1
 10
-46.71837578443804
 20
48.50443400282221
 30
0.0
  0
VERTEX
  5
18E
  8
LAYER_1
 10
-46.75291805881484
 20
49.18306143495232
 30
0.0
  0
VERTEX
  5
18F
  8
LAYER_1
 10
-46.77765266172591
 20
49.8633214368221
 30
0.0
  0
VERTEX
  5
190
  8
LAYER_1
 10
-46.79252987988353
 20
50.54512417462404
 30
0.0
  0
VERTEX
  5
191
  8
LAYER_1
 10
-46.7975
 20
51.22837981455064
 30
0.0
 42
-0.4142135623730951
  0
VERTEX
  5
192
  8
LAYER_1
 10
-0.0000000000000012
 20
98.02587981455063
 30
0.0
 42
-0.4142135623730951
  0
VERTEX
  5
193
  8
LAYER_1
 10
46.7975
 20
51.22837981455064
 30
0.0
  0
VERTEX
  5
194
  8
LAYER_1
 10
46.79228443159032
 20
50.5224961266556
 30
0.0
  0
VERTEX
  5
195
  8
LAYER_1
 10
46.77668642708326
 20
49.81912752976771
 30
0.0
  0
VERTEX
  5
196
  8
LAYER_1
 10
46.7507790375617
 20
49.11834710501675
 30
0.0
  0
VERTEX
  5
197
  8
LAYER_1
 10
46.71463531410856
 20
48.42022793353252
 30
0.0
  0
VERTEX
  5
198
  8
LAYER_1
 10
46.66832830780675
 20
47.72484309644479
 30
0.0
  0
VERTEX
  5
199
  8
LAYER_1
 10
46.61193106973917
 20
47.03226567488333
 30
0.0
  0
VERTEX
  5
19A
  8
LAYER_1
 10
46.54551665098875
 20
46.34256874997794
 30
0.0
  0
VERTEX
  5
19B
  8
LAYER_1
 10
46.4691581026384
 20
45.65582540285838
 30
0.0
  0
VERTEX
  5
19C
  8
LAYER_1
 10
46.38292847577102
 20
44.97210871465447
 30
0.0
  0
VERTEX
  5
19D
  8
LAYER_1
 10
46.28690082146953
 20
44.29149176649595
 30
0.0
  0
VERTEX
  5
19E
  8
LAYER_1
 10
46.18114819081684
 20
43.61404763951263
 30
0.0
  0
VERTEX
  5
19F
  8
LAYER_1
 10
46.06574363489586
 20
42.93984941483428
 30
0.0
  0
VERTEX
  5
1A0
  8
LAYER_1
 10
45.9407602047895
 20
42.26897017359069
 30
0.0
  0
VERTEX
  5
1A1
  8
LAYER_1
 10
45.80627095158066
 20
41.60148299691163
 30
0.0
  0
VERTEX
  5
1A2
  8
LAYER_1
 10
45.66234892635226
 20
40.9374609659269
 30
0.0
  0
VERTEX
  5
1A3
  8
LAYER_1
 10
45.50906718018722
 20
40.27697716176625
 30
0.0
  0
VERTEX
  5
1A4
  8
LAYER_1
 10
45.34649876416844
 20
39.6201046655595
 30
0.0
  0
VERTEX
  5
1A5
  8
LAYER_1
 10
45.17471672937883
 20
38.9669165584364
 30
0.0
  0
VERTEX
  5
1A6
  8
LAYER_1
 10
44.99379412690131
 20
38.31748592152675
 30
0.0
  0
VERTEX
  5
1A7
  8
LAYER_1
 10
44.80380400781878
 20
37.67188583596033
 30
0.0
  0
VERTEX
  5
1A8
  8
LAYER_1
 10
44.60481942321417
 20
37.03018938286692
 30
0.0
  0
VERTEX
  5
1A9
  8
LAYER_1
 10
44.39691342417036
 20
36.3924696433763
 30
0.0
  0
VERTEX
  5
1AA
  8
LAYER_1
 10
44.18015906177028
 20
35.75879969861825
 30
0.0
  0
VERTEX
  5
1AB
  8
LAYER_1
 10
43.95462938709684
 20
35.12925262972255
 30
0.0
  0
VERTEX
  5
1AC
  8
LAYER_1
 10
43.72039745123296
 20
34.50390151781899
 30
0.0
  0
VERTEX
  5
1AD
  8
LAYER_1
 10
43.47753630526152
 20
33.88281944403735
 30
0.0
  0
VERTEX
  5
1AE
  8
LAYER_1
 10
43.22611900026547
 20
33.2660794895074
 30
0.0
  0
VERTEX
  5
1AF
  8
LAYER_1
 10
42.9662185873277
 20
32.65375473535894
 30
0.0
  0
VERTEX
  5
1B0
  8
LAYER_1
 10
42.69790811753113
 20
32.04591826272176
 30
0.0
  0
VERTEX
  5
1B1
  8
LAYER_1
 10
42.42126064195865
 20
31.4426431527256
 30
0.0
  0
VERTEX
  5
1B2
  8
LAYER_1
 10
42.1363492116932
 20
30.84400248650028
 30
0.0
  0
VERTEX
  5
1B3
  8
LAYER_1
 10
41.84324687781767
 20
30.25006934517556
 30
0.0
  0
VERTEX
  5
1B4
  8
LAYER_1
 10
41.54202669141497
 20
29.66091680988124
 30
0.0
  0
VERTEX
  5
1B5
  8
LAYER_1
 10
41.23276170356804
 20
29.07661796174708
 30
0.0
  0
VERTEX
  5
1B6
  8
LAYER_1
 10
40.91552496535975
 20
28.49724588190288
 30
0.0
  0
VERTEX
  5
1B7
  8
LAYER_1
 10
40.59038952787304
 20
27.92287365147843
 30
0.0
  0
VERTEX
  5
1B8
  8
LAYER_1
 10
40.2574284421908
 20
27.35357435160348
 30
0.0
  0
VERTEX
  5
1B9
  8
LAYER_1
 10
39.91671475939596
 20
26.78942106340784
 30
0.0
  0
VERTEX
  5
1BA
  8
LAYER_1
 10
39.56832153057142
 20
26.23048686802128
 30
0.0
  0
VERTEX
  5
1BB
  8
LAYER_1
 10
39.21232180680009
 20
25.67684484657359
 30
0.0
  0
VERTEX
  5
1BC
  8
LAYER_1
 10
38.84878863916489
 20
25.12856808019453
 30
0.0
  0
VERTEX
  5
1BD
  8
LAYER_1
 10
38.47779507874873
 20
24.58572965001391
 30
0.0
  0
VERTEX
  5
1BE
  8
LAYER_1
 10
38.09941417663451
 20
24.04840263716149
 30
0.0
  0
VERTEX
  5
1BF
  8
LAYER_1
 10
37.71371898390515
 20
23.51666012276707
 30
0.0
  0
VERTEX
  5
1C0
  8
LAYER_1
 10
37.32078255164356
 20
22.99057518796042
 30
0.0
  0
VERTEX
  5
1C1
  8
LAYER_1
 10
36.92067793093265
 20
22.47022091387132
 30
0.0
  0
VERTEX
  5
1C2
  8
LAYER_1
 10
36.51347817285534
 20
21.95567038162957
 30
0.0
  0
VERTEX
  5
1C3
  8
LAYER_1
 10
36.09925632849452
 20
21.44699667236493
 30
0.0
  0
VERTEX
  5
1C4
  8
LAYER_1
 10
35.6780854489331
 20
20.94427286720718
 30
0.0
  0
VERTEX
  5
1C5
  8
LAYER_1
 10
35.25003858525402
 20
20.44757204728612
 30
0.0
  0
VERTEX
  5
1C6
  8
LAYER_1
 10
34.81518878854018
 20
19.95696729373153
 30
0.0
  0
VERTEX
  5
1C7
  8
LAYER_1
 10
34.37360910987447
 20
19.47253168767318
 30
0.0
  0
VERTEX
  5
1C8
  8
LAYER_1
 10
33.92537260033982
 20
18.99433831024086
 30
0.0
  0
VERTEX
  5
1C9
  8
LAYER_1
 10
33.47055231101914
 20
18.52246024256434
 30
0.0
  0
VERTEX
  5
1CA
  8
LAYER_1
 10
33.00922129299533
 20
18.05697056577342
 30
0.0
  0
VERTEX
  5
1CB
  8
LAYER_1
 10
32.54145259735132
 20
17.59794236099787
 30
0.0
  0
VERTEX
  5
1CC
  8
LAYER_1
 10
32.06731927517001
 20
17.14544870936748
 30
0.0
  0
VERTEX
  5
1CD
  8
LAYER_1
 10
31.58689437753431
 20
16.69956269201202
 30
0.0
  0
VERTEX
  5
1CE
  8
LAYER_1
 10
31.10025095552713
 20
16.26035739006127
 30
0.0
  0
VERTEX
  5
1CF
  8
LAYER_1
 10
30.60746206023138
 20
15.82790588464504
 30
0.0
  0
VERTEX
  5
1D0
  8
LAYER_1
 10
30.10860074272997
 20
15.40228125689308
 30
0.0
  0
VERTEX
  5
1D1
  8
LAYER_1
 10
29.60374005410582
 20
14.98355658793519
 30
0.0
  0
VERTEX
  5
1D2
  8
LAYER_1
 10
29.09295304544183
 20
14.57180495890114
 30
0.0
  0
VERTEX
  5
1D3
  8
LAYER_1
 10
28.57631276782092
 20
14.16709945092072
 30
0.0
  0
VERTEX
  5
1D4
  8
LAYER_1
 10
28.575
 20
-8.33462018544935
 30
0.0
  0
VERTEX
  5
1D5
  8
LAYER_1
 10
28.575
 20
-77.95402172313874
 30
0.0
  0
VERTEX
  5
1D6
  8
LAYER_1
 10
-28.575
 20
-77.95402172313874
 30
0.0
  0
VERTEX
  5
1D7
  8
LAYER_1
 10
-28.575
 20
-8.334620185449351
 30
0.0
  0
SEQEND
  5
1D8
  8
LAYER_1
  0
POLYLINE
  5
46
  8
LAYER_1
 66
     1
 10
0.0
 20
0.0
 30
0.0
 70
     1
  0
VERTEX
  5
1D9
  8
LAYER_1
 10
0.0000000000000178
 20
76.62837981455064
 30
0.0
  0
VERTEX
  5
1DA
  8
LAYER_1
 10
-0.6555854214186512
 20
76.62008398542633
 30
0.0
  0
VERTEX
  5
1DB
  8
LAYER_1
 10
-1.307080631029014
 20
76.59532949216448
 30
0.0
  0
VERTEX
  5
1DC
  8
LAYER_1
 10
-1.95428613766447
 20
76.55431582593168
 30
0.0
  0
VERTEX
  5
1DD
  8
LAYER_1
 10
-2.597002450158418
 20
76.49724247789453
 30
0.0
  0
VERTEX
  5
1DE
  8
LAYER_1
 10
-3.235030077344259
 20
76.42430893921966
 30
0.0
  0
VERTEX
  5
1DF
  8
LAYER_1
 10
-3.86816952805539
 20
76.33571470107361
 30
0.0
  0
VERTEX
  5
1E0
  8
LAYER_1
 10
-4.496221311125211
 20
76.23165925462304
 30
0.0
  0
VERTEX
  5
1E1
  8
LAYER_1
 10
-5.118985935387124
 20
76.11234209103452
 30
0.0
  0
VERTEX
  5
1E2
  8
LAYER_1
 10
-5.736263909674525
 20
75.97796270147465
 30
0.0
  0
VERTEX
  5
1E3
  8
LAYER_1
 10
-6.347855742820815
 20
75.82872057711006
 30
0.0
  0
VERTEX
  5
1E4
  8
LAYER_1
 10
-6.953561943659393
 20
75.66481520910733
 30
0.0
  0
VERTEX
  5
1E5
  8
LAYER_1
 10
-7.553183021023658
 20
75.48644608863304
 30
0.0
  0
VERTEX
  5
1E6
  8
LAYER_1
 10
-8.14651948374701
 20
75.29381270685383
 30
0.0
  0
VERTEX
  5
1E7
  8
LAYER_1
 10
-8.733371840662848
 20
75.08711455493625
 30
0.0
  0
VERTEX
  5
1E8
  8
LAYER_1
 10
-9.313540600604572
 20
74.86655112404695
 30
0.0
  0
VERTEX
  5
1E9
  8
LAYER_1
 10
-9.886826272405578
 20
74.63232190535251
 30
0.0
  0
VERTEX
  5
1EA
  8
LAYER_1
 10
-10.45302936489927
 20
74.38462639001953
 30
0.0
  0
VERTEX
  5
1EB
  8
LAYER_1
 10
-11.01195038691904
 20
74.12366406921464
 30
0.0
  0
VERTEX
  5
1EC
  8
LAYER_1
 10
-11.5633898472983
 20
73.84963443410439
 30
0.0
  0
VERTEX
  5
1ED
  8
LAYER_1
 10
-12.10714825487044
 20
73.56273697585542
 30
0.0
  0
VERTEX
  5
1EE
  8
LAYER_1
 10
-12.64302611846886
 20
73.2631711856343
 30
0.0
  0
VERTEX
  5
1EF
  8
LAYER_1
 10
-13.17082394692697
 20
72.95113655460766
 30
0.0
  0
VERTEX
  5
1F0
  8
LAYER_1
 10
-13.69034224907815
 20
72.62683257394207
 30
0.0
  0
VERTEX
  5
1F1
  8
LAYER_1
 10
-14.20138153375581
 20
72.29045873480415
 30
0.0
  0
VERTEX
  5
1F2
  8
LAYER_1
 10
-14.70374230979336
 20
71.9422145283605
 30
0.0
  0
VERTEX
  5
1F3
  8
LAYER_1
 10
-15.19722508602417
 20
71.58229944577772
 30
0.0
  0
VERTEX
  5
1F4
  8
LAYER_1
 10
-15.68163037128167
 20
71.21091297822241
 30
0.0
  0
VERTEX
  5
1F5
  8
LAYER_1
 10
-16.15675867439924
 20
70.82825461686119
 30
0.0
  0
VERTEX
  5
1F6
  8
LAYER_1
 10
-16.62241050421029
 20
70.43452385286062
 30
0.0
  0
VERTEX
  5
1F7
  8
LAYER_1
 10
-17.07838636954822
 20
70.02992017738732
 30
0.0
  0
VERTEX
  5
1F8
  8
LAYER_1
 10
-17.52448677924642
 20
69.61464308160791
 30
0.0
  0
VERTEX
  5
1F9
  8
LAYER_1
 10
-17.96051224213829
 20
69.18889205668896
 30
0.0
  0
VERTEX
  5
1FA
  8
LAYER_1
 10
-18.38626326705723
 20
68.75286659379708
 30
0.0
  0
VERTEX
  5
1FB
  8
LAYER_1
 10
-18.80154036283665
 20
68.30676618409888
 30
0.0
  0
VERTEX
  5
1FC
  8
LAYER_1
 10
-19.20614403830994
 20
67.85079031876096
 30
0.0
  0
VERTEX
  5
1FD
  8
LAYER_1
 10
-19.59987480231051
 20
67.3851384889499
 30
0.0
  0
VERTEX
  5
1FE
  8
LAYER_1
 10
-19.98253316367175
 20
66.91001018583233
 30
0.0
  0
VERTEX
  5
1FF
  8
LAYER_1
 10
-20.35391963122706
 20
66.42560490057484
 30
0.0
  0
VERTEX
  5
200
  8
LAYER_1
 10
-20.71383471380983
 20
65.93212212434402
 30
0.0
  0
VERTEX
  5
201
  8
LAYER_1
 10
-21.06207892025348
 20
65.42976134830647
 30
0.0
  0
VERTEX
  5
202
  8
LAYER_1
 10
-21.39845275939139
 20
64.9187220636288
 30
0.0
  0
VERTEX
  5
203
  8
LAYER_1
 10
-21.72275674005698
 20
64.39920376147762
 30
0.0
  0
VERTEX
  5
204
  8
LAYER_1
 10
-22.03479137108362
 20
63.87140593301953
 30
0.0
  0
VERTEX
  5
205
  8
LAYER_1
 10
-22.33435716130474
 20
63.33552806942111
 30
0.0
  0
VERTEX
  5
206
  8
LAYER_1
 10
-22.62125461955372
 20
62.79176966184896
 30
0.0
  0
VERTEX
  5
207
  8
LAYER_1
 10
-22.89528425466396
 20
62.2403302014697
 30
0.0
  0
VERTEX
  5
208
  8
LAYER_1
 10
-23.15624657546888
 20
61.68140917944993
 30
0.0
  0
VERTEX
  5
209
  8
LAYER_1
 10
-23.40394209080185
 20
61.11520608695624
 30
0.0
  0
VERTEX
  5
20A
  8
LAYER_1
 10
-23.63817130949629
 20
60.54192041515524
 30
0.0
  0
VERTEX
  5
20B
  8
LAYER_1
 10
-23.85873474038559
 20
59.96175165521351
 30
0.0
  0
VERTEX
  5
20C
  8
LAYER_1
 10
-24.06543289230314
 20
59.37489929829767
 30
0.0
  0
VERTEX
  5
20D
  8
LAYER_1
 10
-24.25806627408237
 20
58.78156283557432
 30
0.0
  0
VERTEX
  5
20E
  8
LAYER_1
 10
-24.43643539455665
 20
58.18194175821006
 30
0.0
  0
VERTEX
  5
20F
  8
LAYER_1
 10
-24.60034076255939
 20
57.57623555737149
 30
0.0
  0
VERTEX
  5
210
  8
LAYER_1
 10
-24.749582886924
 20
56.9646437242252
 30
0.0
  0
VERTEX
  5
211
  8
LAYER_1
 10
-24.88396227648386
 20
56.34736574993779
 30
0.0
  0
VERTEX
  5
212
  8
LAYER_1
 10
-25.00327944007238
 20
55.72460112567588
 30
0.0
  0
VERTEX
  5
213
  8
LAYER_1
 10
-25.10733488652295
 20
55.09654934260605
 30
0.0
  0
VERTEX
  5
214
  8
LAYER_1
 10
-25.19592912466899
 20
54.46340989189493
 30
0.0
  0
VERTEX
  5
215
  8
LAYER_1
 10
-25.26886266334388
 20
53.82538226470909
 30
0.0
  0
VERTEX
  5
216
  8
LAYER_1
 10
-25.32593601138102
 20
53.18266595221514
 30
0.0
  0
VERTEX
  5
217
  8
LAYER_1
 10
-25.36694967761382
 20
52.53546044557969
 30
0.0
  0
VERTEX
  5
218
  8
LAYER_1
 10
-25.39170417087567
 20
51.88396523596933
 30
0.0
  0
VERTEX
  5
219
  8
LAYER_1
 10
-25.39999999999998
 20
51.22837981455065
 30
0.0
  0
VERTEX
  5
21A
  8
LAYER_1
 10
-25.39170417087567
 20
50.57279439313197
 30
0.0
  0
VERTEX
  5
21B
  8
LAYER_1
 10
-25.36694967761382
 20
49.92129918352161
 30
0.0
  0
VERTEX
  5
21C
  8
LAYER_1
 10
-25.32593601138102
 20
49.27409367688616
 30
0.0
  0
VERTEX
  5
21D
  8
LAYER_1
 10
-25.26886266334388
 20
48.63137736439221
 30
0.0
  0
VERTEX
  5
21E
  8
LAYER_1
 10
-25.19592912466899
 20
47.99334973720637
 30
0.0
  0
VERTEX
  5
21F
  8
LAYER_1
 10
-25.10733488652295
 20
47.36021028649525
 30
0.0
  0
VERTEX
  5
220
  8
LAYER_1
 10
-25.00327944007238
 20
46.73215850342542
 30
0.0
  0
VERTEX
  5
221
  8
LAYER_1
 10
-24.88396227648386
 20
46.10939387916351
 30
0.0
  0
VERTEX
  5
222
  8
LAYER_1
 10
-24.749582886924
 20
45.4921159048761
 30
0.0
  0
VERTEX
  5
223
  8
LAYER_1
 10
-24.60034076255939
 20
44.88052407172981
 30
0.0
  0
VERTEX
  5
224
  8
LAYER_1
 10
-24.43643539455665
 20
44.27481787089123
 30
0.0
  0
VERTEX
  5
225
  8
LAYER_1
 10
-24.25806627408237
 20
43.67519679352696
 30
0.0
  0
VERTEX
  5
226
  8
LAYER_1
 10
-24.06543289230314
 20
43.08186033080362
 30
0.0
  0
VERTEX
  5
227
  8
LAYER_1
 10
-23.85873474038559
 20
42.49500797388778
 30
0.0
  0
VERTEX
  5
228
  8
LAYER_1
 10
-23.63817130949629
 20
41.91483921394606
 30
0.0
  0
VERTEX
  5
229
  8
LAYER_1
 10
-23.40394209080185
 20
41.34155354214505
 30
0.0
  0
VERTEX
  5
22A
  8
LAYER_1
 10
-23.15624657546888
 20
40.77535044965136
 30
0.0
  0
VERTEX
  5
22B
  8
LAYER_1
 10
-22.89528425466396
 20
40.21642942763159
 30
0.0
  0
VERTEX
  5
22C
  8
LAYER_1
 10
-22.62125461955372
 20
39.66498996725234
 30
0.0
  0
VERTEX
  5
22D
  8
LAYER_1
 10
-22.33435716130474
 20
39.12123155968019
 30
0.0
  0
VERTEX
  5
22E
  8
LAYER_1
 10
-22.03479137108362
 20
38.58535369608177
 30
0.0
  0
VERTEX
  5
22F
  8
LAYER_1
 10
-21.72275674005698
 20
38.05755586762366
 30
0.0
  0
VERTEX
  5
230
  8
LAYER_1
 10
-21.39845275939139
 20
37.53803756547249
 30
0.0
  0
VERTEX
  5
231
  8
LAYER_1
 10
-21.06207892025348
 20
37.02699828079483
 30
0.0
  0
VERTEX
  5
232
  8
LAYER_1
 10
-20.71383471380983
 20
36.52463750475729
 30
0.0
  0
VERTEX
  5
233
  8
LAYER_1
 10
-20.35391963122706
 20
36.03115472852647
 30
0.0
  0
VERTEX
  5
234
  8
LAYER_1
 10
-19.98253316367175
 20
35.54674944326897
 30
0.0
  0
VERTEX
  5
235
  8
LAYER_1
 10
-19.59987480231051
 20
35.07162114015139
 30
0.0
  0
VERTEX
  5
236
  8
LAYER_1
 10
-19.20614403830994
 20
34.60596931034034
 30
0.0
  0
VERTEX
  5
237
  8
LAYER_1
 10
-18.80154036283665
 20
34.14999344500242
 30
0.0
  0
VERTEX
  5
238
  8
LAYER_1
 10
-18.38626326705723
 20
33.70389303530422
 30
0.0
  0
VERTEX
  5
239
  8
LAYER_1
 10
-17.96051224213829
 20
33.26786757241234
 30
0.0
  0
VERTEX
  5
23A
  8
LAYER_1
 10
-17.52448677924642
 20
32.84211654749339
 30
0.0
  0
VERTEX
  5
23B
  8
LAYER_1
 10
-17.07838636954822
 20
32.42683945171397
 30
0.0
  0
VERTEX
  5
23C
  8
LAYER_1
 10
-16.62241050421029
 20
32.02223577624068
 30
0.0
  0
VERTEX
  5
23D
  8
LAYER_1
 10
-16.15675867439924
 20
31.62850501224012
 30
0.0
  0
VERTEX
  5
23E
  8
LAYER_1
 10
-15.68163037128167
 20
31.24584665087887
 30
0.0
  0
VERTEX
  5
23F
  8
LAYER_1
 10
-15.19722508602417
 20
30.87446018332357
 30
0.0
  0
VERTEX
  5
240
  8
LAYER_1
 10
-14.70374230979336
 20
30.5145451007408
 30
0.0
  0
VERTEX
  5
241
  8
LAYER_1
 10
-14.20138153375581
 20
30.16630089429715
 30
0.0
  0
VERTEX
  5
242
  8
LAYER_1
 10
-13.69034224907815
 20
29.82992705515924
 30
0.0
  0
VERTEX
  5
243
  8
LAYER_1
 10
-13.17082394692697
 20
29.50562307449366
 30
0.0
  0
VERTEX
  5
244
  8
LAYER_1
 10
-12.64302611846886
 20
29.19358844346701
 30
0.0
  0
VERTEX
  5
245
  8
LAYER_1
 10
-12.10714825487044
 20
28.89402265324589
 30
0.0
  0
VERTEX
  5
246
  8
LAYER_1
 10
-11.5633898472983
 20
28.60712519499691
 30
0.0
  0
VERTEX
  5
247
  8
LAYER_1
 10
-11.01195038691904
 20
28.33309555988667
 30
0.0
  0
VERTEX
  5
248
  8
LAYER_1
 10
-10.45302936489927
 20
28.07213323908176
 30
0.0
  0
VERTEX
  5
249
  8
LAYER_1
 10
-9.886826272405578
 20
27.82443772374879
 30
0.0
  0
VERTEX
  5
24A
  8
LAYER_1
 10
-9.313540600604572
 20
27.59020850505435
 30
0.0
  0
VERTEX
  5
24B
  8
LAYER_1
 10
-8.733371840662848
 20
27.36964507416505
 30
0.0
  0
VERTEX
  5
24C
  8
LAYER_1
 10
-8.14651948374701
 20
27.16294692224749
 30
0.0
  0
VERTEX
  5
24D
  8
LAYER_1
 10
-7.553183021023658
 20
26.97031354046826
 30
0.0
  0
VERTEX
  5
24E
  8
LAYER_1
 10
-6.953561943659393
 20
26.79194441999398
 30
0.0
  0
VERTEX
  5
24F
  8
LAYER_1
 10
-6.347855742820815
 20
26.62803905199124
 30
0.0
  0
VERTEX
  5
250
  8
LAYER_1
 10
-5.736263909674525
 20
26.47879692762663
 30
0.0
  0
VERTEX
  5
251
  8
LAYER_1
 10
-5.118985935387124
 20
26.34441753806677
 30
0.0
  0
VERTEX
  5
252
  8
LAYER_1
 10
-4.496221311125211
 20
26.22510037447826
 30
0.0
  0
VERTEX
  5
253
  8
LAYER_1
 10
-3.86816952805539
 20
26.12104492802768
 30
0.0
  0
VERTEX
  5
254
  8
LAYER_1
 10
-3.235030077344259
 20
26.03245068988164
 30
0.0
  0
VERTEX
  5
255
  8
LAYER_1
 10
-2.597002450158418
 20
25.95951715120675
 30
0.0
  0
VERTEX
  5
256
  8
LAYER_1
 10
-1.95428613766447
 20
25.90244380316961
 30
0.0
  0
VERTEX
  5
257
  8
LAYER_1
 10
-1.307080631029014
 20
25.86143013693681
 30
0.0
  0
VERTEX
  5
258
  8
LAYER_1
 10
-0.6555854214186512
 20
25.83667564367496
 30
0.0
  0
VERTEX
  5
259
  8
LAYER_1
 10
0.0000000000000178
 20
25.82837981455065
 30
0.0
  0
VERTEX
  5
25A
  8
LAYER_1
 10
0.6555854214186867
 20
25.83667564367496
 30
0.0
  0
VERTEX
  5
25B
  8
LAYER_1
 10
1.307080631029049
 20
25.86143013693681
 30
0.0
  0
VERTEX
  5
25C
  8
LAYER_1
 10
1.954286137664505
 20
25.90244380316961
 30
0.0
  0
VERTEX
  5
25D
  8
LAYER_1
 10
2.597002450158454
 20
25.95951715120675
 30
0.0
  0
VERTEX
  5
25E
  8
LAYER_1
 10
3.235030077344294
 20
26.03245068988164
 30
0.0
  0
VERTEX
  5
25F
  8
LAYER_1
 10
3.868169528055425
 20
26.12104492802768
 30
0.0
  0
VERTEX
  5
260
  8
LAYER_1
 10
4.496221311125247
 20
26.22510037447826
 30
0.0
  0
VERTEX
  5
261
  8
LAYER_1
 10
5.118985935387159
 20
26.34441753806677
 30
0.0
  0
VERTEX
  5
262
  8
LAYER_1
 10
5.736263909674561
 20
26.47879692762663
 30
0.0
  0
VERTEX
  5
263
  8
LAYER_1
 10
6.34785574282085
 20
26.62803905199124
 30
0.0
  0
VERTEX
  5
264
  8
LAYER_1
 10
6.953561943659428
 20
26.79194441999398
 30
0.0
  0
VERTEX
  5
265
  8
LAYER_1
 10
7.553183021023694
 20
26.97031354046826
 30
0.0
  0
VERTEX
  5
266
  8
LAYER_1
 10
8.146519483747046
 20
27.16294692224749
 30
0.0
  0
VERTEX
  5
267
  8
LAYER_1
 10
8.733371840662883
 20
27.36964507416505
 30
0.0
  0
VERTEX
  5
268
  8
LAYER_1
 10
9.313540600604608
 20
27.59020850505435
 30
0.0
  0
VERTEX
  5
269
  8
LAYER_1
 10
9.886826272405614
 20
27.82443772374879
 30
0.0
  0
VERTEX
  5
26A
  8
LAYER_1
 10
10.4530293648993
 20
28.07213323908176
 30
0.0
  0
VERTEX
  5
26B
  8
LAYER_1
 10
11.01195038691908
 20
28.33309555988667
 30
0.0
  0
VERTEX
  5
26C
  8
LAYER_1
 10
11.56338984729834
 20
28.60712519499691
 30
0.0
  0
VERTEX
  5
26D
  8
LAYER_1
 10
12.10714825487048
 20
28.89402265324589
 30
0.0
  0
VERTEX
  5
26E
  8
LAYER_1
 10
12.6430261184689
 20
29.19358844346701
 30
0.0
  0
VERTEX
  5
26F
  8
LAYER_1
 10
13.170823946927
 20
29.50562307449366
 30
0.0
  0
VERTEX
  5
270
  8
LAYER_1
 10
13.69034224907818
 20
29.82992705515924
 30
0.0
  0
VERTEX
  5
271
  8
LAYER_1
 10
14.20138153375585
 20
30.16630089429715
 30
0.0
  0
VERTEX
  5
272
  8
LAYER_1
 10
14.70374230979339
 20
30.5145451007408
 30
0.0
  0
VERTEX
  5
273
  8
LAYER_1
 10
15.19722508602421
 20
30.87446018332357
 30
0.0
  0
VERTEX
  5
274
  8
LAYER_1
 10
15.68163037128171
 20
31.24584665087887
 30
0.0
  0
VERTEX
  5
275
  8
LAYER_1
 10
16.15675867439928
 20
31.62850501224012
 30
0.0
  0
VERTEX
  5
276
  8
LAYER_1
 10
16.62241050421033
 20
32.02223577624068
 30
0.0
  0
VERTEX
  5
277
  8
LAYER_1
 10
17.07838636954826
 20
32.42683945171397
 30
0.0
  0
VERTEX
  5
278
  8
LAYER_1
 10
17.52448677924646
 20
32.84211654749339
 30
0.0
  0
VERTEX
  5
279
  8
LAYER_1
 10
17.96051224213832
 20
33.26786757241234
 30
0.0
  0
VERTEX
  5
27A
  8
LAYER_1
 10
18.38626326705727
 20
33.70389303530422
 30
0.0
  0
VERTEX
  5
27B
  8
LAYER_1
 10
18.80154036283669
 20
34.14999344500242
 30
0.0
  0
VERTEX
  5
27C
  8
LAYER_1
 10
19.20614403830998
 20
34.60596931034034
 30
0.0
  0
VERTEX
  5
27D
  8
LAYER_1
 10
19.59987480231055
 20
35.07162114015139
 30
0.0
  0
VERTEX
  5
27E
  8
LAYER_1
 10
19.98253316367179
 20
35.54674944326897
 30
0.0
  0
VERTEX
  5
27F
  8
LAYER_1
 10
20.35391963122709
 20
36.03115472852647
 30
0.0
  0
VERTEX
  5
280
  8
LAYER_1
 10
20.71383471380987
 20
36.52463750475729
 30
0.0
  0
VERTEX
  5
281
  8
LAYER_1
 10
21.06207892025351
 20
37.02699828079483
 30
0.0
  0
VERTEX
  5
282
  8
LAYER_1
 10
21.39845275939143
 20
37.53803756547249
 30
0.0
  0
VERTEX
  5
283
  8
LAYER_1
 10
21.72275674005701
 20
38.05755586762366
 30
0.0
  0
VERTEX
  5
284
  8
LAYER_1
 10
22.03479137108366
 20
38.58535369608177
 30
0.0
  0
VERTEX
  5
285
  8
LAYER_1
 10
22.33435716130477
 20
39.12123155968019
 30
0.0
  0
VERTEX
  5
286
  8
LAYER_1
 10
22.62125461955375
 20
39.66498996725234
 30
0.0
  0
VERTEX
  5
287
  8
LAYER_1
 10
22.895284254664
 20
40.21642942763159
 30
0.0
  0
VERTEX
  5
288
  8
LAYER_1
 10
23.15624657546891
 20
40.77535044965136
 30
0.0
  0
VERTEX
  5
289
  8
LAYER_1
 10
23.40394209080188
 20
41.34155354214505
 30
0.0
  0
VERTEX
  5
28A
  8
LAYER_1
 10
23.63817130949632
 20
41.91483921394606
 30
0.0
  0
VERTEX
  5
28B
  8
LAYER_1
 10
23.85873474038562
 20
42.49500797388778
 30
0.0
  0
VERTEX
  5
28C
  8
LAYER_1
 10
24.06543289230318
 20
43.08186033080362
 30
0.0
  0
VERTEX
  5
28D
  8
LAYER_1
 10
24.2580662740824
 20
43.67519679352696
 30
0.0
  0
VERTEX
  5
28E
  8
LAYER_1
 10
24.43643539455669
 20
44.27481787089123
 30
0.0
  0
VERTEX
  5
28F
  8
LAYER_1
 10
24.60034076255943
 20
44.88052407172981
 30
0.0
  0
VERTEX
  5
290
  8
LAYER_1
 10
24.74958288692403
 20
45.4921159048761
 30
0.0
  0
VERTEX
  5
291
  8
LAYER_1
 10
24.88396227648389
 20
46.10939387916351
 30
0.0
  0
VERTEX
  5
292
  8
LAYER_1
 10
25.00327944007241
 20
46.73215850342542
 30
0.0
  0
VERTEX
  5
293
  8
LAYER_1
 10
25.10733488652299
 20
47.36021028649525
 30
0.0
  0
VERTEX
  5
294
  8
LAYER_1
 10
25.19592912466902
 20
47.99334973720637
 30
0.0
  0
VERTEX
  5
295
  8
LAYER_1
 10
25.26886266334391
 20
48.63137736439221
 30
0.0
  0
VERTEX
  5
296
  8
LAYER_1
 10
25.32593601138106
 20
49.27409367688616
 30
0.0
  0
VERTEX
  5
297
  8
LAYER_1
 10
25.36694967761386
 20
49.92129918352161
 30
0.0
  0
VERTEX
  5
298
  8
LAYER_1
 10
25.39170417087571
 20
50.57279439313197
 30
0.0
  0
VERTEX
  5
299
  8
LAYER_1
 10
25.40000000000002
 20
51.22837981455065
 30
0.0
  0
VERTEX
  5
29A
  8
LAYER_1
 10
25.39170417087571
 20
51.88396523596933
 30
0.0
  0
VERTEX
  5
29B
  8
LAYER_1
 10
25.36694967761386
 20
52.53546044557969
 30
0.0
  0
VERTEX
  5
29C
  8
LAYER_1
 10
25.32593601138106
 20
53.18266595221514
 30
0.0
  0
VERTEX
  5
29D
  8
LAYER_1
 10
25.26886266334391
 20
53.82538226470909
 30
0.0
  0
VERTEX
  5
29E
  8
LAYER_1
 10
25.19592912466902
 20
54.46340989189493
 30
0.0
  0
VERTEX
  5
29F
  8
LAYER_1
 10
25.10733488652299
 20
55.09654934260605
 30
0.0
  0
VERTEX
  5
2A0
  8
LAYER_1
 10
25.00327944007241
 20
55.72460112567588
 30
0.0
  0
VERTEX
  5
2A1
  8
LAYER_1
 10
24.88396227648389
 20
56.34736574993779
 30
0.0
  0
VERTEX
  5
2A2
  8
LAYER_1
 10
24.74958288692403
 20
56.9646437242252
 30
0.0
  0
VERTEX
  5
2A3
  8
LAYER_1
 10
24.60034076255943
 20
57.57623555737149
 30
0.0
  0
VERTEX
  5
2A4
  8
LAYER_1
 10
24.43643539455669
 20
58.18194175821006
 30
0.0
  0
VERTEX
  5
2A5
  8
LAYER_1
 10
24.2580662740824
 20
58.78156283557432
 30
0.0
  0
VERTEX
  5
2A6
  8
LAYER_1
 10
24.06543289230318
 20
59.37489929829767
 30
0.0
  0
VERTEX
  5
2A7
  8
LAYER_1
 10
23.85873474038562
 20
59.96175165521351
 30
0.0
  0
VERTEX
  5
2A8
  8
LAYER_1
 10
23.63817130949632
 20
60.54192041515524
 30
0.0
  0
VERTEX
  5
2A9
  8
LAYER_1
 10
23.40394209080188
 20
61.11520608695624
 30
0.0
  0
VERTEX
  5
2AA
  8
LAYER_1
 10
23.15624657546891
 20
61.68140917944993
 30
0.0
  0
VERTEX
  5
2AB
  8
LAYER_1
 10
22.895284254664
 20
62.2403302014697
 30
0.0
  0
VERTEX
  5
2AC
  8
LAYER_1
 10
22.62125461955375
 20
62.79176966184896
 30
0.0
  0
VERTEX
  5
2AD
  8
LAYER_1
 10
22.33435716130477
 20
63.33552806942111
 30
0.0
  0
VERTEX
  5
2AE
  8
LAYER_1
 10
22.03479137108366
 20
63.87140593301953
 30
0.0
  0
VERTEX
  5
2AF
  8
LAYER_1
 10
21.72275674005701
 20
64.39920376147762
 30
0.0
  0
VERTEX
  5
2B0
  8
LAYER_1
 10
21.39845275939143
 20
64.9187220636288
 30
0.0
  0
VERTEX
  5
2B1
  8
LAYER_1
 10
21.06207892025351
 20
65.42976134830647
 30
0.0
  0
VERTEX
  5
2B2
  8
LAYER_1
 10
20.71383471380987
 20
65.93212212434402
 30
0.0
  0
VERTEX
  5
2B3
  8
LAYER_1
 10
20.35391963122709
 20
66.42560490057484
 30
0.0
  0
VERTEX
  5
2B4
  8
LAYER_1
 10
19.98253316367179
 20
66.91001018583233
 30
0.0
  0
VERTEX
  5
2B5
  8
LAYER_1
 10
19.59987480231055
 20
67.3851384889499
 30
0.0
  0
VERTEX
  5
2B6
  8
LAYER_1
 10
19.20614403830998
 20
67.85079031876096
 30
0.0
  0
VERTEX
  5
2B7
  8
LAYER_1
 10
18.80154036283669
 20
68.30676618409888
 30
0.0
  0
VERTEX
  5
2B8
  8
LAYER_1
 10
18.38626326705727
 20
68.75286659379708
 30
0.0
  0
VERTEX
  5
2B9
  8
LAYER_1
 10
17.96051224213832
 20
69.18889205668896
 30
0.0
  0
VERTEX
  5
2BA
  8
LAYER_1
 10
17.52448677924646
 20
69.61464308160791
 30
0.0
  0
VERTEX
  5
2BB
  8
LAYER_1
 10
17.07838636954826
 20
70.02992017738732
 30
0.0
  0
VERTEX
  5
2BC
  8
LAYER_1
 10
16.62241050421033
 20
70.43452385286062
 30
0.0
  0
VERTEX
  5
2BD
  8
LAYER_1
 10
16.15675867439928
 20
70.82825461686119
 30
0.0
  0
VERTEX
  5
2BE
  8
LAYER_1
 10
15.68163037128171
 20
71.21091297822241
 30
0.0
  0
VERTEX
  5
2BF
  8
LAYER_1
 10
15.19722508602421
 20
71.58229944577772
 30
0.0
  0
VERTEX
  5
2C0
  8
LAYER_1
 10
14.70374230979339
 20
71.9422145283605
 30
0.0
  0
VERTEX
  5
2C1
  8
LAYER_1
 10
14.20138153375585
 20
72.29045873480415
 30
0.0
  0
VERTEX
  5
2C2
  8
LAYER_1
 10
13.69034224907818
 20
72.62683257394207
 30
0.0
  0
VERTEX
  5
2C3
  8
LAYER_1
 10
13.170823946927
 20
72.95113655460766
 30
0.0
  0
VERTEX
  5
2C4
  8
LAYER_1
 10
12.6430261184689
 20
73.2631711856343
 30
0.0
  0
VERTEX
  5
2C5
  8
LAYER_1
 10
12.10714825487048
 20
73.56273697585542
 30
0.0
  0
VERTEX
  5
2C6
  8
LAYER_1
 10
11.56338984729834
 20
73.84963443410439
 30
0.0
  0
VERTEX
  5
2C7
  8
LAYER_1
 10
11.01195038691908
 20
74.12366406921464
 30
0.0
  0
VERTEX
  5
2C8
  8
LAYER_1
 10
10.4530293648993
 20
74.38462639001953
 30
0.0
  0
VERTEX
  5
2C9
  8
LAYER_1
 10
9.886826272405614
 20
74.63232190535251
 30
0.0
  0
VERTEX
  5
2CA
  8
LAYER_1
 10
9.313540600604608
 20
74.86655112404695
 30
0.0
  0
VERTEX
  5
2CB
  8
LAYER_1
 10
8.733371840662883
 20
75.08711455493625
 30
0.0
  0
VERTEX
  5
2CC
  8
LAYER_1
 10
8.146519483747046
 20
75.29381270685383
 30
0.0
  0
VERTEX
  5
2CD
  8
LAYER_1
 10
7.553183021023694
 20
75.48644608863304
 30
0.0
  0
VERTEX
  5
2CE
  8
LAYER_1
 10
6.953561943659428
 20
75.66481520910733
 30
0.0
  0
VERTEX
  5
2CF
  8
LAYER_1
 10
6.34785574282085
 20
75.82872057711006
 30
0.0
  0
VERTEX
  5
2D0
  8
LAYER_1
 10
5.736263909674561
 20
75.97796270147465
 30
0.0
  0
VERTEX
  5
2D1
  8
LAYER_1
 10
5.118985935387159
 20
76.11234209103452
 30
0.0
  0
VERTEX
  5
2D2
  8
LAYER_1
 10
4.496221311125247
 20
76.23165925462304
 30
0.0
  0
VERTEX
  5
2D3
  8
LAYER_1
 10
3.868169528055425
 20
76.33571470107361
 30
0.0
  0
VERTEX
  5
2D4
  8
LAYER_1
 10
3.235030077344294
 20
76.42430893921966
 30
0.0
  0
VERTEX
  5
2D5
  8
LAYER_1
 10
2.597002450158454
 20
76.49724247789453
 30
0.0
  0
VERTEX
  5
2D6
  8
LAYER_1
 10
1.954286137664505
 20
76.55431582593168
 30
0.0
  0
VERTEX
  5
2D7
  8
LAYER_1
 10
1.307080631029049
 20
76.59532949216448
 30
0.0
  0
VERTEX
  5
2D8
  8
LAYER_1
 10
0.6555854214186867
 20
76.62008398542633
 30
0.0
  0
SEQEND
  5
2D9
  8
LAYER_1
  0
ENDSEC
  0
EOF
