  0
SECTION
  2
HEADER
  9
$ACADVER
  1
AC1009
  9
$DWGCODEPAGE
  3
ansi_1252
  9
$INSBASE
 10
0.0
 20
0.0
 30
0.0
  9
$EXTMIN
 10
-34.925
 20
-34.925
 30
0.0
  9
$EXTMAX
 10
34.925
 20
34.925
 30
0.0
  9
$LIMMIN
 10
0.0
 20
0.0
  9
$LIMMAX
 10
12.0
 20
9.0
  9
$ORTHOMODE
 70
     0
  9
$REGENMODE
 70
     1
  9
$FILLMODE
 70
     1
  9
$QTEXTMODE
 70
     0
  9
$MIRRTEXT
 70
     1
  9
$DRAGMODE
 70
     2
  9
$LTSCALE
 40
1.0
  9
$OSMODE
 70
    37
  9
$ATTMODE
 70
     1
  9
$TEXTSIZE
 40
0.2
  9
$TRACEWID
 40
0.05
  9
$TEXTSTYLE
  7
STANDARD
  9
$CLAYER
  8
0
  9
$CELTYPE
  6
BYLAYER
  9
$CECOLOR
 62
   256
  9
$DIMSCALE
 40
1.0
  9
$DIMASZ
 40
0.18
  9
$DIMEXO
 40
0.0625
  9
$DIMDLI
 40
0.38
  9
$DIMRND
 40
0.0
  9
$DIMDLE
 40
0.0
  9
$DIMEXE
 40
0.18
  9
$DIMTP
 40
0.0
  9
$DIMTM
 40
0.0
  9
$DIMTXT
 40
0.18
  9
$DIMCEN
 40
0.09
  9
$DIMTSZ
 40
0.0
  9
$DIMTOL
 70
     0
  9
$DIMLIM
 70
     0
  9
$DIMTIH
 70
     1
  9
$DIMTOH
 70
     1
  9
$DIMSE1
 70
     0
  9
$DIMSE2
 70
     0
  9
$DIMTAD
 70
     0
  9
$DIMZIN
 70
     0
  9
$DIMBLK
  1

  9
$DIMASO
 70
     1
  9
$DIMSHO
 70
     1
  9
$DIMPOST
  1

  9
$DIMAPOST
  1

  9
$DIMALT
 70
     0
  9
$DIMALTD
 70
     2
  9
$DIMALTF
 40
25.4
  9
$DIMLFAC
 40
1.0
  9
$DIMTOFL
 70
     0
  9
$DIMTVP
 40
0.0
  9
$DIMTIX
 70
     0
  9
$DIMSOXD
 70
     0
  9
$DIMSAH
 70
     0
  9
$DIMBLK1
  1

  9
$DIMBLK2
  1

  9
$DIMSTYLE
  2
STANDARD
  9
$DIMCLRD
 70
     0
  9
$DIMCLRE
 70
     0
  9
$DIMCLRT
 70
     0
  9
$DIMTFAC
 40
1.0
  9
$DIMGAP
 40
0.09
  9
$LUNITS
 70
     2
  9
$LUPREC
 70
     4
  9
$SKETCHINC
 40
0.1
  9
$FILLETRAD
 40
0.5
  9
$AUNITS
 70
     0
  9
$AUPREC
 70
     0
  9
$MENU
  1
.
  9
$ELEVATION
 40
0.0
  9
$PELEVATION
 40
0.0
  9
$THICKNESS
 40
0.0
  9
$LIMCHECK
 70
     0
  9
$CHAMFERA
 40
0.5
  9
$CHAMFERB
 40
0.5
  9
$SKPOLY
 70
     0
  9
$TDCREATE
 40
2454910.5
  9
$TDUPDATE
 40
2457134.951322338
  9
$TDINDWG
 40
0.0000000116
  9
$TDUSRTIMER
 40
0.0000000116
  9
$USRTIMER
 70
     1
  9
$ANGBASE
 50
0.0
  9
$ANGDIR
 70
     0
  9
$PDMODE
 70
     0
  9
$PDSIZE
 40
0.0
  9
$PLINEWID
 40
0.0
  9
$COORDS
 70
     1
  9
$SPLFRAME
 70
     0
  9
$SPLINETYPE
 70
     6
  9
$SPLINESEGS
 70
     8
  9
$ATTDIA
 70
     0
  9
$ATTREQ
 70
     1
  9
$HANDLING
 70
     1
  9
$HANDSEED
  5
352
  9
$SURFTAB1
 70
     6
  9
$SURFTAB2
 70
     6
  9
$SURFTYPE
 70
     6
  9
$SURFU
 70
     6
  9
$SURFV
 70
     6
  9
$UCSNAME
  2

  9
$UCSORG
 10
0.0
 20
0.0
 30
0.0
  9
$UCSXDIR
 10
1.0
 20
0.0
 30
0.0
  9
$UCSYDIR
 10
0.0
 20
1.0
 30
0.0
  9
$PUCSNAME
  2

  9
$PUCSORG
 10
0.0
 20
0.0
 30
0.0
  9
$PUCSXDIR
 10
1.0
 20
0.0
 30
0.0
  9
$PUCSYDIR
 10
0.0
 20
1.0
 30
0.0
  9
$USERI1
 70
     0
  9
$USERI2
 70
     0
  9
$USERI3
 70
     0
  9
$USERI4
 70
     0
  9
$USERI5
 70
     0
  9
$USERR1
 40
0.0
  9
$USERR2
 40
0.0
  9
$USERR3
 40
0.0
  9
$USERR4
 40
0.0
  9
$USERR5
 40
0.0
  9
$WORLDVIEW
 70
     1
  9
$SHADEDGE
 70
     3
  9
$SHADEDIF
 70
    70
  9
$TILEMODE
 70
     1
  9
$MAXACTVP
 70
    64
  9
$PLIMCHECK
 70
     0
  9
$PEXTMIN
 10
1.000000000000000E+20
 20
1.000000000000000E+20
 30
1.000000000000000E+20
  9
$PEXTMAX
 10
-1.000000000000000E+20
 20
-1.000000000000000E+20
 30
-1.000000000000000E+20
  9
$PLIMMIN
 10
0.0
 20
0.0
  9
$PLIMMAX
 10
12.0
 20
9.0
  9
$UNITMODE
 70
     0
  9
$VISRETAIN
 70
     1
  9
$PLINEGEN
 70
     0
  9
$PSLTSCALE
 70
     1
  0
ENDSEC
  0
SECTION
  2
TABLES
  0
TABLE
  2
VPORT
 70
     1
  0
VPORT
  2
*ACTIVE
 70
     0
 10
0.0
 20
0.0
 11
1.0
 21
1.0
 12
10.42990654205607
 22
4.5
 13
0.0
 23
0.0
 14
0.5
 24
0.5
 15
0.5
 25
0.5
 16
0.0
 26
0.0
 36
1.0
 17
0.0
 27
0.0
 37
0.0
 40
9.0
 41
1.972972972850329
 42
50.0
 43
0.0
 44
0.0
 50
0.0
 51
0.0
 71
     0
 72
   100
 73
     1
 74
     3
 75
     0
 76
     0
 77
     0
 78
     0
  0
ENDTAB
  0
TABLE
  2
LTYPE
 70
     2
  0
LTYPE
  2
CONTINUOUS
 70
     0
  3
Solid line
 72
    65
 73
     0
 40
0.0
  0
LTYPE
  2
CONTINUOUS2
 70
     0
  3
Solid Line
 72
    65
 73
     0
 40
0.0
  0
ENDTAB
  0
TABLE
  2
LAYER
 70
     2
  0
LAYER
  2
0
 70
     0
 62
     7
  6
CONTINUOUS
  0
LAYER
  2
LAYER_1
 70
     0
 62
    18
  6
CONTINUOUS
  0
ENDTAB
  0
TABLE
  2
STYLE
 70
     1
  0
STYLE
  2
STANDARD
 70
     0
 40
0.0
 41
1.0
 50
0.0
 71
     0
 42
0.2
  3
txt
  4

  0
ENDTAB
  0
TABLE
  2
VIEW
 70
     0
  0
ENDTAB
  0
TABLE
  2
UCS
 70
     0
  0
ENDTAB
  0
TABLE
  2
APPID
 70
     1
  0
APPID
  2
ACAD
 70
     0
  0
ENDTAB
  0
TABLE
  2
DIMSTYLE
 70
     1
  0
DIMSTYLE
  2
STANDARD
 70
     0
  3

  4

  5

  6

  7

 40
1.0
 41
0.18
 42
0.0625
 43
0.38
 44
0.18
 45
0.0
 46
0.0
 47
0.0
 48
0.0
140
0.18
141
0.09
142
0.0
143
25.4
144
1.0
145
0.0
146
1.0
147
0.09
 71
     0
 72
     0
 73
     1
 74
     1
 75
     0
 76
     0
 77
     0
 78
     0
170
     0
171
     2
172
     0
173
     0
174
     0
175
     0
176
     0
177
     0
178
     0
  0
ENDTAB
  0
ENDSEC
  0
SECTION
  2
BLOCKS
  0
BLOCK
  8
0
  2
$MODEL_SPACE
 70
     0
 10
0.0
 20
0.0
 30
0.0
  3
$MODEL_SPACE
  1

  0
ENDBLK
  5
21
  8
0
  0
BLOCK
 67
     1
  8
0
  2
$PAPER_SPACE
 70
     0
 10
0.0
 20
0.0
 30
0.0
  3
$PAPER_SPACE
  1

  0
ENDBLK
  5
1D
 67
     1
  8
0
  0
ENDSEC
  0
SECTION
  2
ENTITIES
  0
POLYLINE
  5
41
  8
LAYER_1
 66
     1
 10
0.0
 20
0.0
 30
0.0
 70
     1
  0
VERTEX
  5
4C
  8
LAYER_1
 10
0.0
 20
34.925
 30
0.0
  0
VERTEX
  5
4D
  8
LAYER_1
 10
-0.9014299544506696
 20
34.91359323495408
 30
0.0
  0
VERTEX
  5
4E
  8
LAYER_1
 10
-1.797235867664918
 20
34.87955580671903
 30
0.0
  0
VERTEX
  5
4F
  8
LAYER_1
 10
-2.68714343928867
 20
34.82316201564893
 30
0.0
  0
VERTEX
  5
50
  8
LAYER_1
 10
-3.570878368967849
 20
34.74468616209786
 30
0.0
  0
VERTEX
  5
51
  8
LAYER_1
 10
-4.448166356348379
 20
34.64440254641988
 30
0.0
  0
VERTEX
  5
52
  8
LAYER_1
 10
-5.318733101076186
 20
34.52258546896908
 30
0.0
  0
VERTEX
  5
53
  8
LAYER_1
 10
-6.182304302797191
 20
34.37950923009954
 30
0.0
  0
VERTEX
  5
54
  8
LAYER_1
 10
-7.03860566115732
 20
34.21544813016533
 30
0.0
  0
VERTEX
  5
55
  8
LAYER_1
 10
-7.887362875802495
 20
34.03067646952052
 30
0.0
  0
VERTEX
  5
56
  8
LAYER_1
 10
-8.728301646378643
 20
33.8254685485192
 30
0.0
  0
VERTEX
  5
57
  8
LAYER_1
 10
-9.561147672531689
 20
33.60009866751542
 30
0.0
  0
VERTEX
  5
58
  8
LAYER_1
 10
-10.38562665390755
 20
33.35484112686328
 30
0.0
  0
VERTEX
  5
59
  8
LAYER_1
 10
-11.20146429015216
 20
33.08997022691684
 30
0.0
  0
VERTEX
  5
5A
  8
LAYER_1
 10
-12.00838628091144
 20
32.8057602680302
 30
0.0
  0
VERTEX
  5
5B
  8
LAYER_1
 10
-12.80611832583131
 20
32.50248555055741
 30
0.0
  0
VERTEX
  5
5C
  8
LAYER_1
 10
-13.59438612455769
 20
32.18042037485256
 30
0.0
  0
VERTEX
  5
5D
  8
LAYER_1
 10
-14.37291537673652
 20
31.83983904126972
 30
0.0
  0
VERTEX
  5
5E
  8
LAYER_1
 10
-15.14143178201371
 20
31.48101585016297
 30
0.0
  0
VERTEX
  5
5F
  8
LAYER_1
 10
-15.89966104003519
 20
31.10422510188638
 30
0.0
  0
VERTEX
  5
60
  8
LAYER_1
 10
-16.64732885044688
 20
30.70974109679403
 30
0.0
  0
VERTEX
  5
61
  8
LAYER_1
 10
-17.38416091289471
 20
30.29783813524
 30
0.0
  0
VERTEX
  5
62
  8
LAYER_1
 10
-18.1098829270246
 20
29.86879051757836
 30
0.0
  0
VERTEX
  5
63
  8
LAYER_1
 10
-18.82422059248248
 20
29.42287254416319
 30
0.0
  0
VERTEX
  5
64
  8
LAYER_1
 10
-19.52689960891426
 20
28.96035851534856
 30
0.0
  0
VERTEX
  5
65
  8
LAYER_1
 10
-20.21764567596588
 20
28.48152273148855
 30
0.0
  0
VERTEX
  5
66
  8
LAYER_1
 10
-20.89618449328326
 20
27.98663949293723
 30
0.0
  0
VERTEX
  5
67
  8
LAYER_1
 10
-21.56224176051232
 20
27.47598310004868
 30
0.0
  0
VERTEX
  5
68
  8
LAYER_1
 10
-22.21554317729898
 20
26.94982785317698
 30
0.0
  0
VERTEX
  5
69
  8
LAYER_1
 10
-22.85581444328918
 20
26.40844805267621
 30
0.0
  0
VERTEX
  5
6A
  8
LAYER_1
 10
-23.48278125812882
 20
25.85211799890043
 30
0.0
  0
VERTEX
  5
6B
  8
LAYER_1
 10
-24.09616932146384
 20
25.28111199220373
 30
0.0
  0
VERTEX
  5
6C
  8
LAYER_1
 10
-24.69570433294017
 20
24.69570433294017
 30
0.0
  0
VERTEX
  5
6D
  8
LAYER_1
 10
-25.28111199220373
 20
24.09616932146384
 30
0.0
  0
VERTEX
  5
6E
  8
LAYER_1
 10
-25.85211799890043
 20
23.48278125812882
 30
0.0
  0
VERTEX
  5
6F
  8
LAYER_1
 10
-26.40844805267621
 20
22.85581444328918
 30
0.0
  0
VERTEX
  5
70
  8
LAYER_1
 10
-26.94982785317698
 20
22.21554317729898
 30
0.0
  0
VERTEX
  5
71
  8
LAYER_1
 10
-27.47598310004868
 20
21.56224176051232
 30
0.0
  0
VERTEX
  5
72
  8
LAYER_1
 10
-27.98663949293723
 20
20.89618449328326
 30
0.0
  0
VERTEX
  5
73
  8
LAYER_1
 10
-28.48152273148855
 20
20.21764567596588
 30
0.0
  0
VERTEX
  5
74
  8
LAYER_1
 10
-28.96035851534856
 20
19.52689960891426
 30
0.0
  0
VERTEX
  5
75
  8
LAYER_1
 10
-29.42287254416319
 20
18.82422059248248
 30
0.0
  0
VERTEX
  5
76
  8
LAYER_1
 10
-29.86879051757836
 20
18.1098829270246
 30
0.0
  0
VERTEX
  5
77
  8
LAYER_1
 10
-30.29783813524
 20
17.38416091289471
 30
0.0
  0
VERTEX
  5
78
  8
LAYER_1
 10
-30.70974109679403
 20
16.64732885044688
 30
0.0
  0
VERTEX
  5
79
  8
LAYER_1
 10
-31.10422510188638
 20
15.89966104003519
 30
0.0
  0
VERTEX
  5
7A
  8
LAYER_1
 10
-31.48101585016297
 20
15.14143178201371
 30
0.0
  0
VERTEX
  5
7B
  8
LAYER_1
 10
-31.83983904126972
 20
14.37291537673652
 30
0.0
  0
VERTEX
  5
7C
  8
LAYER_1
 10
-32.18042037485256
 20
13.59438612455769
 30
0.0
  0
VERTEX
  5
7D
  8
LAYER_1
 10
-32.50248555055741
 20
12.80611832583131
 30
0.0
  0
VERTEX
  5
7E
  8
LAYER_1
 10
-32.8057602680302
 20
12.00838628091144
 30
0.0
  0
VERTEX
  5
7F
  8
LAYER_1
 10
-33.08997022691684
 20
11.20146429015216
 30
0.0
  0
VERTEX
  5
80
  8
LAYER_1
 10
-33.35484112686328
 20
10.38562665390755
 30
0.0
  0
VERTEX
  5
81
  8
LAYER_1
 10
-33.60009866751542
 20
9.561147672531689
 30
0.0
  0
VERTEX
  5
82
  8
LAYER_1
 10
-33.8254685485192
 20
8.728301646378643
 30
0.0
  0
VERTEX
  5
83
  8
LAYER_1
 10
-34.03067646952052
 20
7.887362875802495
 30
0.0
  0
VERTEX
  5
84
  8
LAYER_1
 10
-34.21544813016533
 20
7.03860566115732
 30
0.0
  0
VERTEX
  5
85
  8
LAYER_1
 10
-34.37950923009954
 20
6.182304302797191
 30
0.0
  0
VERTEX
  5
86
  8
LAYER_1
 10
-34.52258546896908
 20
5.318733101076186
 30
0.0
  0
VERTEX
  5
87
  8
LAYER_1
 10
-34.64440254641988
 20
4.448166356348379
 30
0.0
  0
VERTEX
  5
88
  8
LAYER_1
 10
-34.74468616209786
 20
3.570878368967849
 30
0.0
  0
VERTEX
  5
89
  8
LAYER_1
 10
-34.82316201564893
 20
2.68714343928867
 30
0.0
  0
VERTEX
  5
8A
  8
LAYER_1
 10
-34.87955580671903
 20
1.797235867664918
 30
0.0
  0
VERTEX
  5
8B
  8
LAYER_1
 10
-34.91359323495408
 20
0.9014299544506696
 30
0.0
  0
VERTEX
  5
8C
  8
LAYER_1
 10
-34.925
 20
0.0
 30
0.0
  0
VERTEX
  5
8D
  8
LAYER_1
 10
-34.91359323495408
 20
-0.9014299544506696
 30
0.0
  0
VERTEX
  5
8E
  8
LAYER_1
 10
-34.87955580671903
 20
-1.797235867664918
 30
0.0
  0
VERTEX
  5
8F
  8
LAYER_1
 10
-34.82316201564893
 20
-2.68714343928867
 30
0.0
  0
VERTEX
  5
90
  8
LAYER_1
 10
-34.74468616209786
 20
-3.570878368967849
 30
0.0
  0
VERTEX
  5
91
  8
LAYER_1
 10
-34.64440254641988
 20
-4.448166356348379
 30
0.0
  0
VERTEX
  5
92
  8
LAYER_1
 10
-34.52258546896908
 20
-5.318733101076186
 30
0.0
  0
VERTEX
  5
93
  8
LAYER_1
 10
-34.37950923009954
 20
-6.182304302797191
 30
0.0
  0
VERTEX
  5
94
  8
LAYER_1
 10
-34.21544813016533
 20
-7.03860566115732
 30
0.0
  0
VERTEX
  5
95
  8
LAYER_1
 10
-34.03067646952052
 20
-7.887362875802495
 30
0.0
  0
VERTEX
  5
96
  8
LAYER_1
 10
-33.8254685485192
 20
-8.728301646378643
 30
0.0
  0
VERTEX
  5
97
  8
LAYER_1
 10
-33.60009866751542
 20
-9.561147672531689
 30
0.0
  0
VERTEX
  5
98
  8
LAYER_1
 10
-33.35484112686328
 20
-10.38562665390755
 30
0.0
  0
VERTEX
  5
99
  8
LAYER_1
 10
-33.08997022691684
 20
-11.20146429015216
 30
0.0
  0
VERTEX
  5
9A
  8
LAYER_1
 10
-32.8057602680302
 20
-12.00838628091144
 30
0.0
  0
VERTEX
  5
9B
  8
LAYER_1
 10
-32.50248555055741
 20
-12.80611832583131
 30
0.0
  0
VERTEX
  5
9C
  8
LAYER_1
 10
-32.18042037485256
 20
-13.59438612455769
 30
0.0
  0
VERTEX
  5
9D
  8
LAYER_1
 10
-31.83983904126972
 20
-14.37291537673652
 30
0.0
  0
VERTEX
  5
9E
  8
LAYER_1
 10
-31.48101585016297
 20
-15.14143178201371
 30
0.0
  0
VERTEX
  5
9F
  8
LAYER_1
 10
-31.10422510188638
 20
-15.89966104003519
 30
0.0
  0
VERTEX
  5
A0
  8
LAYER_1
 10
-30.70974109679403
 20
-16.64732885044688
 30
0.0
  0
VERTEX
  5
A1
  8
LAYER_1
 10
-30.29783813524
 20
-17.38416091289471
 30
0.0
  0
VERTEX
  5
A2
  8
LAYER_1
 10
-29.86879051757836
 20
-18.1098829270246
 30
0.0
  0
VERTEX
  5
A3
  8
LAYER_1
 10
-29.42287254416319
 20
-18.82422059248248
 30
0.0
  0
VERTEX
  5
A4
  8
LAYER_1
 10
-28.96035851534856
 20
-19.52689960891426
 30
0.0
  0
VERTEX
  5
A5
  8
LAYER_1
 10
-28.48152273148855
 20
-20.21764567596588
 30
0.0
  0
VERTEX
  5
A6
  8
LAYER_1
 10
-27.98663949293723
 20
-20.89618449328326
 30
0.0
  0
VERTEX
  5
A7
  8
LAYER_1
 10
-27.47598310004868
 20
-21.56224176051232
 30
0.0
  0
VERTEX
  5
A8
  8
LAYER_1
 10
-26.94982785317698
 20
-22.21554317729898
 30
0.0
  0
VERTEX
  5
A9
  8
LAYER_1
 10
-26.40844805267621
 20
-22.85581444328918
 30
0.0
  0
VERTEX
  5
AA
  8
LAYER_1
 10
-25.85211799890043
 20
-23.48278125812882
 30
0.0
  0
VERTEX
  5
AB
  8
LAYER_1
 10
-25.28111199220373
 20
-24.09616932146384
 30
0.0
  0
VERTEX
  5
AC
  8
LAYER_1
 10
-24.69570433294017
 20
-24.69570433294017
 30
0.0
  0
VERTEX
  5
AD
  8
LAYER_1
 10
-24.09616932146384
 20
-25.28111199220373
 30
0.0
  0
VERTEX
  5
AE
  8
LAYER_1
 10
-23.48278125812882
 20
-25.85211799890043
 30
0.0
  0
VERTEX
  5
AF
  8
LAYER_1
 10
-22.85581444328918
 20
-26.40844805267621
 30
0.0
  0
VERTEX
  5
B0
  8
LAYER_1
 10
-22.21554317729898
 20
-26.94982785317698
 30
0.0
  0
VERTEX
  5
B1
  8
LAYER_1
 10
-21.56224176051232
 20
-27.47598310004868
 30
0.0
  0
VERTEX
  5
B2
  8
LAYER_1
 10
-20.89618449328326
 20
-27.98663949293723
 30
0.0
  0
VERTEX
  5
B3
  8
LAYER_1
 10
-20.21764567596588
 20
-28.48152273148855
 30
0.0
  0
VERTEX
  5
B4
  8
LAYER_1
 10
-19.52689960891426
 20
-28.96035851534856
 30
0.0
  0
VERTEX
  5
B5
  8
LAYER_1
 10
-18.82422059248248
 20
-29.42287254416319
 30
0.0
  0
VERTEX
  5
B6
  8
LAYER_1
 10
-18.1098829270246
 20
-29.86879051757836
 30
0.0
  0
VERTEX
  5
B7
  8
LAYER_1
 10
-17.38416091289471
 20
-30.29783813524
 30
0.0
  0
VERTEX
  5
B8
  8
LAYER_1
 10
-16.64732885044688
 20
-30.70974109679403
 30
0.0
  0
VERTEX
  5
B9
  8
LAYER_1
 10
-15.89966104003519
 20
-31.10422510188638
 30
0.0
  0
VERTEX
  5
BA
  8
LAYER_1
 10
-15.14143178201371
 20
-31.48101585016297
 30
0.0
  0
VERTEX
  5
BB
  8
LAYER_1
 10
-14.37291537673652
 20
-31.83983904126972
 30
0.0
  0
VERTEX
  5
BC
  8
LAYER_1
 10
-13.59438612455769
 20
-32.18042037485256
 30
0.0
  0
VERTEX
  5
BD
  8
LAYER_1
 10
-12.80611832583131
 20
-32.50248555055741
 30
0.0
  0
VERTEX
  5
BE
  8
LAYER_1
 10
-12.00838628091144
 20
-32.8057602680302
 30
0.0
  0
VERTEX
  5
BF
  8
LAYER_1
 10
-11.20146429015216
 20
-33.08997022691684
 30
0.0
  0
VERTEX
  5
C0
  8
LAYER_1
 10
-10.38562665390755
 20
-33.35484112686328
 30
0.0
  0
VERTEX
  5
C1
  8
LAYER_1
 10
-9.561147672531689
 20
-33.60009866751542
 30
0.0
  0
VERTEX
  5
C2
  8
LAYER_1
 10
-8.728301646378643
 20
-33.8254685485192
 30
0.0
  0
VERTEX
  5
C3
  8
LAYER_1
 10
-7.887362875802495
 20
-34.03067646952052
 30
0.0
  0
VERTEX
  5
C4
  8
LAYER_1
 10
-7.03860566115732
 20
-34.21544813016533
 30
0.0
  0
VERTEX
  5
C5
  8
LAYER_1
 10
-6.182304302797191
 20
-34.37950923009954
 30
0.0
  0
VERTEX
  5
C6
  8
LAYER_1
 10
-5.318733101076186
 20
-34.52258546896908
 30
0.0
  0
VERTEX
  5
C7
  8
LAYER_1
 10
-4.448166356348379
 20
-34.64440254641988
 30
0.0
  0
VERTEX
  5
C8
  8
LAYER_1
 10
-3.570878368967849
 20
-34.74468616209786
 30
0.0
  0
VERTEX
  5
C9
  8
LAYER_1
 10
-2.68714343928867
 20
-34.82316201564893
 30
0.0
  0
VERTEX
  5
CA
  8
LAYER_1
 10
-1.797235867664918
 20
-34.87955580671903
 30
0.0
  0
VERTEX
  5
CB
  8
LAYER_1
 10
-0.9014299544506696
 20
-34.91359323495408
 30
0.0
  0
VERTEX
  5
CC
  8
LAYER_1
 10
0.0
 20
-34.925
 30
0.0
  0
VERTEX
  5
CD
  8
LAYER_1
 10
0.9014299544506696
 20
-34.91359323495408
 30
0.0
  0
VERTEX
  5
CE
  8
LAYER_1
 10
1.797235867664918
 20
-34.87955580671903
 30
0.0
  0
VERTEX
  5
CF
  8
LAYER_1
 10
2.68714343928867
 20
-34.82316201564893
 30
0.0
  0
VERTEX
  5
D0
  8
LAYER_1
 10
3.570878368967849
 20
-34.74468616209786
 30
0.0
  0
VERTEX
  5
D1
  8
LAYER_1
 10
4.448166356348379
 20
-34.64440254641988
 30
0.0
  0
VERTEX
  5
D2
  8
LAYER_1
 10
5.318733101076186
 20
-34.52258546896908
 30
0.0
  0
VERTEX
  5
D3
  8
LAYER_1
 10
6.182304302797191
 20
-34.37950923009954
 30
0.0
  0
VERTEX
  5
D4
  8
LAYER_1
 10
7.03860566115732
 20
-34.21544813016533
 30
0.0
  0
VERTEX
  5
D5
  8
LAYER_1
 10
7.887362875802495
 20
-34.03067646952052
 30
0.0
  0
VERTEX
  5
D6
  8
LAYER_1
 10
8.728301646378643
 20
-33.8254685485192
 30
0.0
  0
VERTEX
  5
D7
  8
LAYER_1
 10
9.561147672531689
 20
-33.60009866751542
 30
0.0
  0
VERTEX
  5
D8
  8
LAYER_1
 10
10.38562665390755
 20
-33.35484112686328
 30
0.0
  0
VERTEX
  5
D9
  8
LAYER_1
 10
11.20146429015216
 20
-33.08997022691684
 30
0.0
  0
VERTEX
  5
DA
  8
LAYER_1
 10
12.00838628091144
 20
-32.8057602680302
 30
0.0
  0
VERTEX
  5
DB
  8
LAYER_1
 10
12.80611832583131
 20
-32.50248555055741
 30
0.0
  0
VERTEX
  5
DC
  8
LAYER_1
 10
13.59438612455769
 20
-32.18042037485256
 30
0.0
  0
VERTEX
  5
DD
  8
LAYER_1
 10
14.37291537673652
 20
-31.83983904126972
 30
0.0
  0
VERTEX
  5
DE
  8
LAYER_1
 10
15.14143178201371
 20
-31.48101585016297
 30
0.0
  0
VERTEX
  5
DF
  8
LAYER_1
 10
15.89966104003519
 20
-31.10422510188638
 30
0.0
  0
VERTEX
  5
E0
  8
LAYER_1
 10
16.64732885044688
 20
-30.70974109679403
 30
0.0
  0
VERTEX
  5
E1
  8
LAYER_1
 10
17.38416091289471
 20
-30.29783813524
 30
0.0
  0
VERTEX
  5
E2
  8
LAYER_1
 10
18.1098829270246
 20
-29.86879051757836
 30
0.0
  0
VERTEX
  5
E3
  8
LAYER_1
 10
18.82422059248248
 20
-29.42287254416319
 30
0.0
  0
VERTEX
  5
E4
  8
LAYER_1
 10
19.52689960891426
 20
-28.96035851534856
 30
0.0
  0
VERTEX
  5
E5
  8
LAYER_1
 10
20.21764567596588
 20
-28.48152273148855
 30
0.0
  0
VERTEX
  5
E6
  8
LAYER_1
 10
20.89618449328326
 20
-27.98663949293723
 30
0.0
  0
VERTEX
  5
E7
  8
LAYER_1
 10
21.56224176051232
 20
-27.47598310004868
 30
0.0
  0
VERTEX
  5
E8
  8
LAYER_1
 10
22.21554317729898
 20
-26.94982785317698
 30
0.0
  0
VERTEX
  5
E9
  8
LAYER_1
 10
22.85581444328918
 20
-26.40844805267621
 30
0.0
  0
VERTEX
  5
EA
  8
LAYER_1
 10
23.48278125812882
 20
-25.85211799890043
 30
0.0
  0
VERTEX
  5
EB
  8
LAYER_1
 10
24.09616932146384
 20
-25.28111199220373
 30
0.0
  0
VERTEX
  5
EC
  8
LAYER_1
 10
24.69570433294017
 20
-24.69570433294017
 30
0.0
  0
VERTEX
  5
ED
  8
LAYER_1
 10
25.28111199220373
 20
-24.09616932146384
 30
0.0
  0
VERTEX
  5
EE
  8
LAYER_1
 10
25.85211799890043
 20
-23.48278125812882
 30
0.0
  0
VERTEX
  5
EF
  8
LAYER_1
 10
26.40844805267621
 20
-22.85581444328918
 30
0.0
  0
VERTEX
  5
F0
  8
LAYER_1
 10
26.94982785317698
 20
-22.21554317729898
 30
0.0
  0
VERTEX
  5
F1
  8
LAYER_1
 10
27.47598310004868
 20
-21.56224176051232
 30
0.0
  0
VERTEX
  5
F2
  8
LAYER_1
 10
27.98663949293723
 20
-20.89618449328326
 30
0.0
  0
VERTEX
  5
F3
  8
LAYER_1
 10
28.48152273148855
 20
-20.21764567596588
 30
0.0
  0
VERTEX
  5
F4
  8
LAYER_1
 10
28.96035851534856
 20
-19.52689960891426
 30
0.0
  0
VERTEX
  5
F5
  8
LAYER_1
 10
29.42287254416319
 20
-18.82422059248248
 30
0.0
  0
VERTEX
  5
F6
  8
LAYER_1
 10
29.86879051757836
 20
-18.1098829270246
 30
0.0
  0
VERTEX
  5
F7
  8
LAYER_1
 10
30.29783813524
 20
-17.38416091289471
 30
0.0
  0
VERTEX
  5
F8
  8
LAYER_1
 10
30.70974109679403
 20
-16.64732885044688
 30
0.0
  0
VERTEX
  5
F9
  8
LAYER_1
 10
31.10422510188638
 20
-15.89966104003519
 30
0.0
  0
VERTEX
  5
FA
  8
LAYER_1
 10
31.48101585016297
 20
-15.14143178201371
 30
0.0
  0
VERTEX
  5
FB
  8
LAYER_1
 10
31.83983904126972
 20
-14.37291537673652
 30
0.0
  0
VERTEX
  5
FC
  8
LAYER_1
 10
32.18042037485256
 20
-13.59438612455769
 30
0.0
  0
VERTEX
  5
FD
  8
LAYER_1
 10
32.50248555055741
 20
-12.80611832583131
 30
0.0
  0
VERTEX
  5
FE
  8
LAYER_1
 10
32.8057602680302
 20
-12.00838628091144
 30
0.0
  0
VERTEX
  5
FF
  8
LAYER_1
 10
33.08997022691684
 20
-11.20146429015216
 30
0.0
  0
VERTEX
  5
100
  8
LAYER_1
 10
33.35484112686328
 20
-10.38562665390755
 30
0.0
  0
VERTEX
  5
101
  8
LAYER_1
 10
33.60009866751542
 20
-9.561147672531689
 30
0.0
  0
VERTEX
  5
102
  8
LAYER_1
 10
33.8254685485192
 20
-8.728301646378643
 30
0.0
  0
VERTEX
  5
103
  8
LAYER_1
 10
34.03067646952052
 20
-7.887362875802495
 30
0.0
  0
VERTEX
  5
104
  8
LAYER_1
 10
34.21544813016533
 20
-7.03860566115732
 30
0.0
  0
VERTEX
  5
105
  8
LAYER_1
 10
34.37950923009954
 20
-6.182304302797191
 30
0.0
  0
VERTEX
  5
106
  8
LAYER_1
 10
34.52258546896908
 20
-5.318733101076186
 30
0.0
  0
VERTEX
  5
107
  8
LAYER_1
 10
34.64440254641988
 20
-4.448166356348379
 30
0.0
  0
VERTEX
  5
108
  8
LAYER_1
 10
34.74468616209786
 20
-3.570878368967849
 30
0.0
  0
VERTEX
  5
109
  8
LAYER_1
 10
34.82316201564893
 20
-2.68714343928867
 30
0.0
  0
VERTEX
  5
10A
  8
LAYER_1
 10
34.87955580671903
 20
-1.797235867664918
 30
0.0
  0
VERTEX
  5
10B
  8
LAYER_1
 10
34.91359323495408
 20
-0.9014299544506696
 30
0.0
  0
VERTEX
  5
10C
  8
LAYER_1
 10
34.925
 20
0.0
 30
0.0
  0
VERTEX
  5
10D
  8
LAYER_1
 10
34.91359323495408
 20
0.9014299544506696
 30
0.0
  0
VERTEX
  5
10E
  8
LAYER_1
 10
34.87955580671903
 20
1.797235867664918
 30
0.0
  0
VERTEX
  5
10F
  8
LAYER_1
 10
34.82316201564893
 20
2.68714343928867
 30
0.0
  0
VERTEX
  5
110
  8
LAYER_1
 10
34.74468616209786
 20
3.570878368967849
 30
0.0
  0
VERTEX
  5
111
  8
LAYER_1
 10
34.64440254641988
 20
4.448166356348379
 30
0.0
  0
VERTEX
  5
112
  8
LAYER_1
 10
34.52258546896908
 20
5.318733101076186
 30
0.0
  0
VERTEX
  5
113
  8
LAYER_1
 10
34.37950923009954
 20
6.182304302797191
 30
0.0
  0
VERTEX
  5
114
  8
LAYER_1
 10
34.21544813016533
 20
7.03860566115732
 30
0.0
  0
VERTEX
  5
115
  8
LAYER_1
 10
34.03067646952052
 20
7.887362875802495
 30
0.0
  0
VERTEX
  5
116
  8
LAYER_1
 10
33.8254685485192
 20
8.728301646378643
 30
0.0
  0
VERTEX
  5
117
  8
LAYER_1
 10
33.60009866751542
 20
9.561147672531689
 30
0.0
  0
VERTEX
  5
118
  8
LAYER_1
 10
33.35484112686328
 20
10.38562665390755
 30
0.0
  0
VERTEX
  5
119
  8
LAYER_1
 10
33.08997022691684
 20
11.20146429015216
 30
0.0
  0
VERTEX
  5
11A
  8
LAYER_1
 10
32.8057602680302
 20
12.00838628091144
 30
0.0
  0
VERTEX
  5
11B
  8
LAYER_1
 10
32.50248555055741
 20
12.80611832583131
 30
0.0
  0
VERTEX
  5
11C
  8
LAYER_1
 10
32.18042037485256
 20
13.59438612455769
 30
0.0
  0
VERTEX
  5
11D
  8
LAYER_1
 10
31.83983904126972
 20
14.37291537673652
 30
0.0
  0
VERTEX
  5
11E
  8
LAYER_1
 10
31.48101585016297
 20
15.14143178201371
 30
0.0
  0
VERTEX
  5
11F
  8
LAYER_1
 10
31.10422510188638
 20
15.89966104003519
 30
0.0
  0
VERTEX
  5
120
  8
LAYER_1
 10
30.70974109679403
 20
16.64732885044688
 30
0.0
  0
VERTEX
  5
121
  8
LAYER_1
 10
30.29783813524
 20
17.38416091289471
 30
0.0
  0
VERTEX
  5
122
  8
LAYER_1
 10
29.86879051757836
 20
18.1098829270246
 30
0.0
  0
VERTEX
  5
123
  8
LAYER_1
 10
29.42287254416319
 20
18.82422059248248
 30
0.0
  0
VERTEX
  5
124
  8
LAYER_1
 10
28.96035851534856
 20
19.52689960891426
 30
0.0
  0
VERTEX
  5
125
  8
LAYER_1
 10
28.48152273148855
 20
20.21764567596588
 30
0.0
  0
VERTEX
  5
126
  8
LAYER_1
 10
27.98663949293723
 20
20.89618449328326
 30
0.0
  0
VERTEX
  5
127
  8
LAYER_1
 10
27.47598310004868
 20
21.56224176051232
 30
0.0
  0
VERTEX
  5
128
  8
LAYER_1
 10
26.94982785317698
 20
22.21554317729898
 30
0.0
  0
VERTEX
  5
129
  8
LAYER_1
 10
26.40844805267621
 20
22.85581444328918
 30
0.0
  0
VERTEX
  5
12A
  8
LAYER_1
 10
25.85211799890043
 20
23.48278125812882
 30
0.0
  0
VERTEX
  5
12B
  8
LAYER_1
 10
25.28111199220373
 20
24.09616932146384
 30
0.0
  0
VERTEX
  5
12C
  8
LAYER_1
 10
24.69570433294017
 20
24.69570433294017
 30
0.0
  0
VERTEX
  5
12D
  8
LAYER_1
 10
24.09616932146384
 20
25.28111199220373
 30
0.0
  0
VERTEX
  5
12E
  8
LAYER_1
 10
23.48278125812882
 20
25.85211799890043
 30
0.0
  0
VERTEX
  5
12F
  8
LAYER_1
 10
22.85581444328918
 20
26.40844805267621
 30
0.0
  0
VERTEX
  5
130
  8
LAYER_1
 10
22.21554317729898
 20
26.94982785317698
 30
0.0
  0
VERTEX
  5
131
  8
LAYER_1
 10
21.56224176051232
 20
27.47598310004868
 30
0.0
  0
VERTEX
  5
132
  8
LAYER_1
 10
20.89618449328326
 20
27.98663949293723
 30
0.0
  0
VERTEX
  5
133
  8
LAYER_1
 10
20.21764567596588
 20
28.48152273148855
 30
0.0
  0
VERTEX
  5
134
  8
LAYER_1
 10
19.52689960891426
 20
28.96035851534856
 30
0.0
  0
VERTEX
  5
135
  8
LAYER_1
 10
18.82422059248248
 20
29.42287254416319
 30
0.0
  0
VERTEX
  5
136
  8
LAYER_1
 10
18.1098829270246
 20
29.86879051757836
 30
0.0
  0
VERTEX
  5
137
  8
LAYER_1
 10
17.38416091289471
 20
30.29783813524
 30
0.0
  0
VERTEX
  5
138
  8
LAYER_1
 10
16.64732885044688
 20
30.70974109679403
 30
0.0
  0
VERTEX
  5
139
  8
LAYER_1
 10
15.89966104003519
 20
31.10422510188638
 30
0.0
  0
VERTEX
  5
13A
  8
LAYER_1
 10
15.14143178201371
 20
31.48101585016297
 30
0.0
  0
VERTEX
  5
13B
  8
LAYER_1
 10
14.37291537673652
 20
31.83983904126972
 30
0.0
  0
VERTEX
  5
13C
  8
LAYER_1
 10
13.59438612455769
 20
32.18042037485256
 30
0.0
  0
VERTEX
  5
13D
  8
LAYER_1
 10
12.80611832583131
 20
32.50248555055741
 30
0.0
  0
VERTEX
  5
13E
  8
LAYER_1
 10
12.00838628091144
 20
32.8057602680302
 30
0.0
  0
VERTEX
  5
13F
  8
LAYER_1
 10
11.20146429015216
 20
33.08997022691684
 30
0.0
  0
VERTEX
  5
140
  8
LAYER_1
 10
10.38562665390755
 20
33.35484112686328
 30
0.0
  0
VERTEX
  5
141
  8
LAYER_1
 10
9.561147672531689
 20
33.60009866751542
 30
0.0
  0
VERTEX
  5
142
  8
LAYER_1
 10
8.728301646378643
 20
33.8254685485192
 30
0.0
  0
VERTEX
  5
143
  8
LAYER_1
 10
7.887362875802495
 20
34.03067646952052
 30
0.0
  0
VERTEX
  5
144
  8
LAYER_1
 10
7.03860566115732
 20
34.21544813016533
 30
0.0
  0
VERTEX
  5
145
  8
LAYER_1
 10
6.182304302797191
 20
34.37950923009954
 30
0.0
  0
VERTEX
  5
146
  8
LAYER_1
 10
5.318733101076186
 20
34.52258546896908
 30
0.0
  0
VERTEX
  5
147
  8
LAYER_1
 10
4.448166356348379
 20
34.64440254641988
 30
0.0
  0
VERTEX
  5
148
  8
LAYER_1
 10
3.570878368967849
 20
34.74468616209786
 30
0.0
  0
VERTEX
  5
149
  8
LAYER_1
 10
2.68714343928867
 20
34.82316201564893
 30
0.0
  0
VERTEX
  5
14A
  8
LAYER_1
 10
1.797235867664918
 20
34.87955580671903
 30
0.0
  0
VERTEX
  5
14B
  8
LAYER_1
 10
0.9014299544506696
 20
34.91359323495408
 30
0.0
  0
SEQEND
  5
14C
  8
LAYER_1
  0
POLYLINE
  5
42
  8
LAYER_1
 66
     1
 10
0.0
 20
0.0
 30
0.0
 70
     1
  0
VERTEX
  5
14D
  8
LAYER_1
 10
0.0
 20
24.13
 30
0.0
  0
VERTEX
  5
14E
  8
LAYER_1
 10
-0.6228061503477353
 20
24.12211896233191
 30
0.0
  0
VERTEX
  5
14F
  8
LAYER_1
 10
-1.24172659947758
 20
24.09860219373315
 30
0.0
  0
VERTEX
  5
150
  8
LAYER_1
 10
-1.856571830781263
 20
24.05963921081199
 30
0.0
  0
VERTEX
  5
151
  8
LAYER_1
 10
-2.467152327650514
 20
24.0054195301767
 30
0.0
  0
VERTEX
  5
152
  8
LAYER_1
 10
-3.073278573477062
 20
23.93613266843555
 30
0.0
  0
VERTEX
  5
153
  8
LAYER_1
 10
-3.674761051652637
 20
23.85196814219682
 30
0.0
  0
VERTEX
  5
154
  8
LAYER_1
 10
-4.271410245568967
 20
23.75311546806877
 30
0.0
  0
VERTEX
  5
155
  8
LAYER_1
 10
-4.863036638617784
 20
23.63976416265968
 30
0.0
  0
VERTEX
  5
156
  8
LAYER_1
 10
-5.449450714190815
 20
23.51210374257781
 30
0.0
  0
VERTEX
  5
157
  8
LAYER_1
 10
-6.03046295567979
 20
23.37032372443144
 30
0.0
  0
VERTEX
  5
158
  8
LAYER_1
 10
-6.605883846476439
 20
23.21461362482883
 30
0.0
  0
VERTEX
  5
159
  8
LAYER_1
 10
-7.175523869972491
 20
23.04516296037827
 30
0.0
  0
VERTEX
  5
15A
  8
LAYER_1
 10
-7.739193509559675
 20
22.862161247688
 30
0.0
  0
VERTEX
  5
15B
  8
LAYER_1
 10
-8.29670324862972
 20
22.66579800336632
 30
0.0
  0
VERTEX
  5
15C
  8
LAYER_1
 10
-8.847863570574358
 20
22.45626274402148
 30
0.0
  0
VERTEX
  5
15D
  8
LAYER_1
 10
-9.392484958785316
 20
22.23374498626177
 30
0.0
  0
VERTEX
  5
15E
  8
LAYER_1
 10
-9.930377896654324
 20
21.99843424669544
 30
0.0
  0
VERTEX
  5
15F
  8
LAYER_1
 10
-10.46135286757311
 20
21.75052004193078
 30
0.0
  0
VERTEX
  5
160
  8
LAYER_1
 10
-10.98522035493341
 20
21.49019188857605
 30
0.0
  0
VERTEX
  5
161
  8
LAYER_1
 10
-11.50179084212694
 20
21.21763930323952
 30
0.0
  0
VERTEX
  5
162
  8
LAYER_1
 10
-12.01087481254544
 20
20.93305180252946
 30
0.0
  0
VERTEX
  5
163
  8
LAYER_1
 10
-12.51228274958063
 20
20.63661890305414
 30
0.0
  0
VERTEX
  5
164
  8
LAYER_1
 10
-13.00582513662426
 20
20.32853012142184
 30
0.0
  0
VERTEX
  5
165
  8
LAYER_1
 10
-13.49131245706804
 20
20.00897497424082
 30
0.0
  0
VERTEX
  5
166
  8
LAYER_1
 10
-13.9685551943037
 20
19.67814297811935
 30
0.0
  0
VERTEX
  5
167
  8
LAYER_1
 10
-14.43736383172298
 20
19.33622364966572
 30
0.0
  0
VERTEX
  5
168
  8
LAYER_1
 10
-14.8975488527176
 20
18.98340650548818
 30
0.0
  0
VERTEX
  5
169
  8
LAYER_1
 10
-15.34892074067929
 20
18.61988106219501
 30
0.0
  0
VERTEX
  5
16A
  8
LAYER_1
 10
-15.79128997899979
 20
18.24583683639447
 30
0.0
  0
VERTEX
  5
16B
  8
LAYER_1
 10
-16.22446705107082
 20
17.86146334469484
 30
0.0
  0
VERTEX
  5
16C
  8
LAYER_1
 10
-16.64826244028411
 20
17.46695010370439
 30
0.0
  0
VERTEX
  5
16D
  8
LAYER_1
 10
-17.06248663003139
 20
17.06248663003139
 30
0.0
  0
VERTEX
  5
16E
  8
LAYER_1
 10
-17.46695010370439
 20
16.64826244028411
 30
0.0
  0
VERTEX
  5
16F
  8
LAYER_1
 10
-17.86146334469484
 20
16.22446705107082
 30
0.0
  0
VERTEX
  5
170
  8
LAYER_1
 10
-18.24583683639447
 20
15.79128997899979
 30
0.0
  0
VERTEX
  5
171
  8
LAYER_1
 10
-18.61988106219501
 20
15.34892074067929
 30
0.0
  0
VERTEX
  5
172
  8
LAYER_1
 10
-18.98340650548818
 20
14.8975488527176
 30
0.0
  0
VERTEX
  5
173
  8
LAYER_1
 10
-19.33622364966572
 20
14.43736383172298
 30
0.0
  0
VERTEX
  5
174
  8
LAYER_1
 10
-19.67814297811935
 20
13.9685551943037
 30
0.0
  0
VERTEX
  5
175
  8
LAYER_1
 10
-20.00897497424082
 20
13.49131245706804
 30
0.0
  0
VERTEX
  5
176
  8
LAYER_1
 10
-20.32853012142184
 20
13.00582513662426
 30
0.0
  0
VERTEX
  5
177
  8
LAYER_1
 10
-20.63661890305414
 20
12.51228274958063
 30
0.0
  0
VERTEX
  5
178
  8
LAYER_1
 10
-20.93305180252946
 20
12.01087481254544
 30
0.0
  0
VERTEX
  5
179
  8
LAYER_1
 10
-21.21763930323952
 20
11.50179084212694
 30
0.0
  0
VERTEX
  5
17A
  8
LAYER_1
 10
-21.49019188857605
 20
10.98522035493341
 30
0.0
  0
VERTEX
  5
17B
  8
LAYER_1
 10
-21.75052004193078
 20
10.46135286757311
 30
0.0
  0
VERTEX
  5
17C
  8
LAYER_1
 10
-21.99843424669544
 20
9.930377896654324
 30
0.0
  0
VERTEX
  5
17D
  8
LAYER_1
 10
-22.23374498626177
 20
9.392484958785316
 30
0.0
  0
VERTEX
  5
17E
  8
LAYER_1
 10
-22.45626274402148
 20
8.847863570574358
 30
0.0
  0
VERTEX
  5
17F
  8
LAYER_1
 10
-22.66579800336632
 20
8.29670324862972
 30
0.0
  0
VERTEX
  5
180
  8
LAYER_1
 10
-22.862161247688
 20
7.739193509559675
 30
0.0
  0
VERTEX
  5
181
  8
LAYER_1
 10
-23.04516296037827
 20
7.175523869972491
 30
0.0
  0
VERTEX
  5
182
  8
LAYER_1
 10
-23.21461362482883
 20
6.605883846476439
 30
0.0
  0
VERTEX
  5
183
  8
LAYER_1
 10
-23.37032372443144
 20
6.03046295567979
 30
0.0
  0
VERTEX
  5
184
  8
LAYER_1
 10
-23.51210374257781
 20
5.449450714190815
 30
0.0
  0
VERTEX
  5
185
  8
LAYER_1
 10
-23.63976416265968
 20
4.863036638617784
 30
0.0
  0
VERTEX
  5
186
  8
LAYER_1
 10
-23.75311546806877
 20
4.271410245568967
 30
0.0
  0
VERTEX
  5
187
  8
LAYER_1
 10
-23.85196814219682
 20
3.674761051652637
 30
0.0
  0
VERTEX
  5
188
  8
LAYER_1
 10
-23.93613266843555
 20
3.073278573477062
 30
0.0
  0
VERTEX
  5
189
  8
LAYER_1
 10
-24.0054195301767
 20
2.467152327650514
 30
0.0
  0
VERTEX
  5
18A
  8
LAYER_1
 10
-24.05963921081199
 20
1.856571830781263
 30
0.0
  0
VERTEX
  5
18B
  8
LAYER_1
 10
-24.09860219373315
 20
1.24172659947758
 30
0.0
  0
VERTEX
  5
18C
  8
LAYER_1
 10
-24.12211896233191
 20
0.6228061503477353
 30
0.0
  0
VERTEX
  5
18D
  8
LAYER_1
 10
-24.13
 20
0.0
 30
0.0
  0
VERTEX
  5
18E
  8
LAYER_1
 10
-24.12211896233191
 20
-0.6228061503477353
 30
0.0
  0
VERTEX
  5
18F
  8
LAYER_1
 10
-24.09860219373315
 20
-1.24172659947758
 30
0.0
  0
VERTEX
  5
190
  8
LAYER_1
 10
-24.05963921081199
 20
-1.856571830781263
 30
0.0
  0
VERTEX
  5
191
  8
LAYER_1
 10
-24.0054195301767
 20
-2.467152327650514
 30
0.0
  0
VERTEX
  5
192
  8
LAYER_1
 10
-23.93613266843555
 20
-3.073278573477062
 30
0.0
  0
VERTEX
  5
193
  8
LAYER_1
 10
-23.85196814219682
 20
-3.674761051652637
 30
0.0
  0
VERTEX
  5
194
  8
LAYER_1
 10
-23.75311546806877
 20
-4.271410245568967
 30
0.0
  0
VERTEX
  5
195
  8
LAYER_1
 10
-23.63976416265968
 20
-4.863036638617784
 30
0.0
  0
VERTEX
  5
196
  8
LAYER_1
 10
-23.51210374257781
 20
-5.449450714190815
 30
0.0
  0
VERTEX
  5
197
  8
LAYER_1
 10
-23.37032372443144
 20
-6.03046295567979
 30
0.0
  0
VERTEX
  5
198
  8
LAYER_1
 10
-23.21461362482883
 20
-6.605883846476439
 30
0.0
  0
VERTEX
  5
199
  8
LAYER_1
 10
-23.04516296037827
 20
-7.175523869972491
 30
0.0
  0
VERTEX
  5
19A
  8
LAYER_1
 10
-22.862161247688
 20
-7.739193509559675
 30
0.0
  0
VERTEX
  5
19B
  8
LAYER_1
 10
-22.66579800336632
 20
-8.29670324862972
 30
0.0
  0
VERTEX
  5
19C
  8
LAYER_1
 10
-22.45626274402148
 20
-8.847863570574358
 30
0.0
  0
VERTEX
  5
19D
  8
LAYER_1
 10
-22.23374498626177
 20
-9.392484958785316
 30
0.0
  0
VERTEX
  5
19E
  8
LAYER_1
 10
-21.99843424669544
 20
-9.930377896654324
 30
0.0
  0
VERTEX
  5
19F
  8
LAYER_1
 10
-21.75052004193078
 20
-10.46135286757311
 30
0.0
  0
VERTEX
  5
1A0
  8
LAYER_1
 10
-21.49019188857605
 20
-10.98522035493341
 30
0.0
  0
VERTEX
  5
1A1
  8
LAYER_1
 10
-21.21763930323952
 20
-11.50179084212694
 30
0.0
  0
VERTEX
  5
1A2
  8
LAYER_1
 10
-20.93305180252946
 20
-12.01087481254544
 30
0.0
  0
VERTEX
  5
1A3
  8
LAYER_1
 10
-20.63661890305414
 20
-12.51228274958063
 30
0.0
  0
VERTEX
  5
1A4
  8
LAYER_1
 10
-20.32853012142184
 20
-13.00582513662426
 30
0.0
  0
VERTEX
  5
1A5
  8
LAYER_1
 10
-20.00897497424082
 20
-13.49131245706804
 30
0.0
  0
VERTEX
  5
1A6
  8
LAYER_1
 10
-19.67814297811935
 20
-13.9685551943037
 30
0.0
  0
VERTEX
  5
1A7
  8
LAYER_1
 10
-19.33622364966572
 20
-14.43736383172298
 30
0.0
  0
VERTEX
  5
1A8
  8
LAYER_1
 10
-18.98340650548818
 20
-14.8975488527176
 30
0.0
  0
VERTEX
  5
1A9
  8
LAYER_1
 10
-18.61988106219501
 20
-15.34892074067929
 30
0.0
  0
VERTEX
  5
1AA
  8
LAYER_1
 10
-18.24583683639447
 20
-15.79128997899979
 30
0.0
  0
VERTEX
  5
1AB
  8
LAYER_1
 10
-17.86146334469484
 20
-16.22446705107082
 30
0.0
  0
VERTEX
  5
1AC
  8
LAYER_1
 10
-17.46695010370439
 20
-16.64826244028411
 30
0.0
  0
VERTEX
  5
1AD
  8
LAYER_1
 10
-17.06248663003139
 20
-17.06248663003139
 30
0.0
  0
VERTEX
  5
1AE
  8
LAYER_1
 10
-16.64826244028411
 20
-17.46695010370439
 30
0.0
  0
VERTEX
  5
1AF
  8
LAYER_1
 10
-16.22446705107082
 20
-17.86146334469484
 30
0.0
  0
VERTEX
  5
1B0
  8
LAYER_1
 10
-15.79128997899979
 20
-18.24583683639447
 30
0.0
  0
VERTEX
  5
1B1
  8
LAYER_1
 10
-15.34892074067929
 20
-18.61988106219501
 30
0.0
  0
VERTEX
  5
1B2
  8
LAYER_1
 10
-14.8975488527176
 20
-18.98340650548818
 30
0.0
  0
VERTEX
  5
1B3
  8
LAYER_1
 10
-14.43736383172298
 20
-19.33622364966572
 30
0.0
  0
VERTEX
  5
1B4
  8
LAYER_1
 10
-13.9685551943037
 20
-19.67814297811935
 30
0.0
  0
VERTEX
  5
1B5
  8
LAYER_1
 10
-13.49131245706804
 20
-20.00897497424082
 30
0.0
  0
VERTEX
  5
1B6
  8
LAYER_1
 10
-13.00582513662426
 20
-20.32853012142184
 30
0.0
  0
VERTEX
  5
1B7
  8
LAYER_1
 10
-12.51228274958063
 20
-20.63661890305414
 30
0.0
  0
VERTEX
  5
1B8
  8
LAYER_1
 10
-12.01087481254544
 20
-20.93305180252946
 30
0.0
  0
VERTEX
  5
1B9
  8
LAYER_1
 10
-11.50179084212694
 20
-21.21763930323952
 30
0.0
  0
VERTEX
  5
1BA
  8
LAYER_1
 10
-10.98522035493341
 20
-21.49019188857605
 30
0.0
  0
VERTEX
  5
1BB
  8
LAYER_1
 10
-10.46135286757311
 20
-21.75052004193078
 30
0.0
  0
VERTEX
  5
1BC
  8
LAYER_1
 10
-9.930377896654324
 20
-21.99843424669544
 30
0.0
  0
VERTEX
  5
1BD
  8
LAYER_1
 10
-9.392484958785316
 20
-22.23374498626177
 30
0.0
  0
VERTEX
  5
1BE
  8
LAYER_1
 10
-8.847863570574358
 20
-22.45626274402148
 30
0.0
  0
VERTEX
  5
1BF
  8
LAYER_1
 10
-8.29670324862972
 20
-22.66579800336632
 30
0.0
  0
VERTEX
  5
1C0
  8
LAYER_1
 10
-7.739193509559675
 20
-22.862161247688
 30
0.0
  0
VERTEX
  5
1C1
  8
LAYER_1
 10
-7.175523869972491
 20
-23.04516296037827
 30
0.0
  0
VERTEX
  5
1C2
  8
LAYER_1
 10
-6.605883846476439
 20
-23.21461362482883
 30
0.0
  0
VERTEX
  5
1C3
  8
LAYER_1
 10
-6.03046295567979
 20
-23.37032372443144
 30
0.0
  0
VERTEX
  5
1C4
  8
LAYER_1
 10
-5.449450714190815
 20
-23.51210374257781
 30
0.0
  0
VERTEX
  5
1C5
  8
LAYER_1
 10
-4.863036638617784
 20
-23.63976416265968
 30
0.0
  0
VERTEX
  5
1C6
  8
LAYER_1
 10
-4.271410245568967
 20
-23.75311546806877
 30
0.0
  0
VERTEX
  5
1C7
  8
LAYER_1
 10
-3.674761051652637
 20
-23.85196814219682
 30
0.0
  0
VERTEX
  5
1C8
  8
LAYER_1
 10
-3.073278573477062
 20
-23.93613266843555
 30
0.0
  0
VERTEX
  5
1C9
  8
LAYER_1
 10
-2.467152327650514
 20
-24.0054195301767
 30
0.0
  0
VERTEX
  5
1CA
  8
LAYER_1
 10
-1.856571830781263
 20
-24.05963921081199
 30
0.0
  0
VERTEX
  5
1CB
  8
LAYER_1
 10
-1.24172659947758
 20
-24.09860219373315
 30
0.0
  0
VERTEX
  5
1CC
  8
LAYER_1
 10
-0.6228061503477353
 20
-24.12211896233191
 30
0.0
  0
VERTEX
  5
1CD
  8
LAYER_1
 10
0.0
 20
-24.13
 30
0.0
  0
VERTEX
  5
1CE
  8
LAYER_1
 10
0.6228061503477353
 20
-24.12211896233191
 30
0.0
  0
VERTEX
  5
1CF
  8
LAYER_1
 10
1.24172659947758
 20
-24.09860219373315
 30
0.0
  0
VERTEX
  5
1D0
  8
LAYER_1
 10
1.856571830781263
 20
-24.05963921081199
 30
0.0
  0
VERTEX
  5
1D1
  8
LAYER_1
 10
2.467152327650514
 20
-24.0054195301767
 30
0.0
  0
VERTEX
  5
1D2
  8
LAYER_1
 10
3.073278573477062
 20
-23.93613266843555
 30
0.0
  0
VERTEX
  5
1D3
  8
LAYER_1
 10
3.674761051652637
 20
-23.85196814219682
 30
0.0
  0
VERTEX
  5
1D4
  8
LAYER_1
 10
4.271410245568967
 20
-23.75311546806877
 30
0.0
  0
VERTEX
  5
1D5
  8
LAYER_1
 10
4.863036638617784
 20
-23.63976416265968
 30
0.0
  0
VERTEX
  5
1D6
  8
LAYER_1
 10
5.449450714190815
 20
-23.51210374257781
 30
0.0
  0
VERTEX
  5
1D7
  8
LAYER_1
 10
6.03046295567979
 20
-23.37032372443144
 30
0.0
  0
VERTEX
  5
1D8
  8
LAYER_1
 10
6.605883846476439
 20
-23.21461362482883
 30
0.0
  0
VERTEX
  5
1D9
  8
LAYER_1
 10
7.175523869972491
 20
-23.04516296037827
 30
0.0
  0
VERTEX
  5
1DA
  8
LAYER_1
 10
7.739193509559675
 20
-22.862161247688
 30
0.0
  0
VERTEX
  5
1DB
  8
LAYER_1
 10
8.29670324862972
 20
-22.66579800336632
 30
0.0
  0
VERTEX
  5
1DC
  8
LAYER_1
 10
8.847863570574358
 20
-22.45626274402148
 30
0.0
  0
VERTEX
  5
1DD
  8
LAYER_1
 10
9.392484958785316
 20
-22.23374498626177
 30
0.0
  0
VERTEX
  5
1DE
  8
LAYER_1
 10
9.930377896654324
 20
-21.99843424669544
 30
0.0
  0
VERTEX
  5
1DF
  8
LAYER_1
 10
10.46135286757311
 20
-21.75052004193078
 30
0.0
  0
VERTEX
  5
1E0
  8
LAYER_1
 10
10.98522035493341
 20
-21.49019188857605
 30
0.0
  0
VERTEX
  5
1E1
  8
LAYER_1
 10
11.50179084212694
 20
-21.21763930323952
 30
0.0
  0
VERTEX
  5
1E2
  8
LAYER_1
 10
12.01087481254544
 20
-20.93305180252946
 30
0.0
  0
VERTEX
  5
1E3
  8
LAYER_1
 10
12.51228274958063
 20
-20.63661890305414
 30
0.0
  0
VERTEX
  5
1E4
  8
LAYER_1
 10
13.00582513662426
 20
-20.32853012142184
 30
0.0
  0
VERTEX
  5
1E5
  8
LAYER_1
 10
13.49131245706804
 20
-20.00897497424082
 30
0.0
  0
VERTEX
  5
1E6
  8
LAYER_1
 10
13.9685551943037
 20
-19.67814297811935
 30
0.0
  0
VERTEX
  5
1E7
  8
LAYER_1
 10
14.43736383172298
 20
-19.33622364966572
 30
0.0
  0
VERTEX
  5
1E8
  8
LAYER_1
 10
14.8975488527176
 20
-18.98340650548818
 30
0.0
  0
VERTEX
  5
1E9
  8
LAYER_1
 10
15.34892074067929
 20
-18.61988106219501
 30
0.0
  0
VERTEX
  5
1EA
  8
LAYER_1
 10
15.79128997899979
 20
-18.24583683639447
 30
0.0
  0
VERTEX
  5
1EB
  8
LAYER_1
 10
16.22446705107082
 20
-17.86146334469484
 30
0.0
  0
VERTEX
  5
1EC
  8
LAYER_1
 10
16.64826244028411
 20
-17.46695010370439
 30
0.0
  0
VERTEX
  5
1ED
  8
LAYER_1
 10
17.06248663003139
 20
-17.06248663003139
 30
0.0
  0
VERTEX
  5
1EE
  8
LAYER_1
 10
17.46695010370439
 20
-16.64826244028411
 30
0.0
  0
VERTEX
  5
1EF
  8
LAYER_1
 10
17.86146334469484
 20
-16.22446705107082
 30
0.0
  0
VERTEX
  5
1F0
  8
LAYER_1
 10
18.24583683639447
 20
-15.79128997899979
 30
0.0
  0
VERTEX
  5
1F1
  8
LAYER_1
 10
18.61988106219501
 20
-15.34892074067929
 30
0.0
  0
VERTEX
  5
1F2
  8
LAYER_1
 10
18.98340650548818
 20
-14.8975488527176
 30
0.0
  0
VERTEX
  5
1F3
  8
LAYER_1
 10
19.33622364966572
 20
-14.43736383172298
 30
0.0
  0
VERTEX
  5
1F4
  8
LAYER_1
 10
19.67814297811935
 20
-13.9685551943037
 30
0.0
  0
VERTEX
  5
1F5
  8
LAYER_1
 10
20.00897497424082
 20
-13.49131245706804
 30
0.0
  0
VERTEX
  5
1F6
  8
LAYER_1
 10
20.32853012142184
 20
-13.00582513662426
 30
0.0
  0
VERTEX
  5
1F7
  8
LAYER_1
 10
20.63661890305414
 20
-12.51228274958063
 30
0.0
  0
VERTEX
  5
1F8
  8
LAYER_1
 10
20.93305180252946
 20
-12.01087481254544
 30
0.0
  0
VERTEX
  5
1F9
  8
LAYER_1
 10
21.21763930323952
 20
-11.50179084212694
 30
0.0
  0
VERTEX
  5
1FA
  8
LAYER_1
 10
21.49019188857605
 20
-10.98522035493341
 30
0.0
  0
VERTEX
  5
1FB
  8
LAYER_1
 10
21.75052004193078
 20
-10.46135286757311
 30
0.0
  0
VERTEX
  5
1FC
  8
LAYER_1
 10
21.99843424669544
 20
-9.930377896654324
 30
0.0
  0
VERTEX
  5
1FD
  8
LAYER_1
 10
22.23374498626177
 20
-9.392484958785316
 30
0.0
  0
VERTEX
  5
1FE
  8
LAYER_1
 10
22.45626274402148
 20
-8.847863570574358
 30
0.0
  0
VERTEX
  5
1FF
  8
LAYER_1
 10
22.66579800336632
 20
-8.29670324862972
 30
0.0
  0
VERTEX
  5
200
  8
LAYER_1
 10
22.862161247688
 20
-7.739193509559675
 30
0.0
  0
VERTEX
  5
201
  8
LAYER_1
 10
23.04516296037827
 20
-7.175523869972491
 30
0.0
  0
VERTEX
  5
202
  8
LAYER_1
 10
23.21461362482883
 20
-6.605883846476439
 30
0.0
  0
VERTEX
  5
203
  8
LAYER_1
 10
23.37032372443144
 20
-6.03046295567979
 30
0.0
  0
VERTEX
  5
204
  8
LAYER_1
 10
23.51210374257781
 20
-5.449450714190815
 30
0.0
  0
VERTEX
  5
205
  8
LAYER_1
 10
23.63976416265968
 20
-4.863036638617784
 30
0.0
  0
VERTEX
  5
206
  8
LAYER_1
 10
23.75311546806877
 20
-4.271410245568967
 30
0.0
  0
VERTEX
  5
207
  8
LAYER_1
 10
23.85196814219682
 20
-3.674761051652637
 30
0.0
  0
VERTEX
  5
208
  8
LAYER_1
 10
23.93613266843555
 20
-3.073278573477062
 30
0.0
  0
VERTEX
  5
209
  8
LAYER_1
 10
24.0054195301767
 20
-2.467152327650514
 30
0.0
  0
VERTEX
  5
20A
  8
LAYER_1
 10
24.05963921081199
 20
-1.856571830781263
 30
0.0
  0
VERTEX
  5
20B
  8
LAYER_1
 10
24.09860219373315
 20
-1.24172659947758
 30
0.0
  0
VERTEX
  5
20C
  8
LAYER_1
 10
24.12211896233191
 20
-0.6228061503477353
 30
0.0
  0
VERTEX
  5
20D
  8
LAYER_1
 10
24.13
 20
0.0
 30
0.0
  0
VERTEX
  5
20E
  8
LAYER_1
 10
24.12211896233191
 20
0.6228061503477353
 30
0.0
  0
VERTEX
  5
20F
  8
LAYER_1
 10
24.09860219373315
 20
1.24172659947758
 30
0.0
  0
VERTEX
  5
210
  8
LAYER_1
 10
24.05963921081199
 20
1.856571830781263
 30
0.0
  0
VERTEX
  5
211
  8
LAYER_1
 10
24.0054195301767
 20
2.467152327650514
 30
0.0
  0
VERTEX
  5
212
  8
LAYER_1
 10
23.93613266843555
 20
3.073278573477062
 30
0.0
  0
VERTEX
  5
213
  8
LAYER_1
 10
23.85196814219682
 20
3.674761051652637
 30
0.0
  0
VERTEX
  5
214
  8
LAYER_1
 10
23.75311546806877
 20
4.271410245568967
 30
0.0
  0
VERTEX
  5
215
  8
LAYER_1
 10
23.63976416265968
 20
4.863036638617784
 30
0.0
  0
VERTEX
  5
216
  8
LAYER_1
 10
23.51210374257781
 20
5.449450714190815
 30
0.0
  0
VERTEX
  5
217
  8
LAYER_1
 10
23.37032372443144
 20
6.03046295567979
 30
0.0
  0
VERTEX
  5
218
  8
LAYER_1
 10
23.21461362482883
 20
6.605883846476439
 30
0.0
  0
VERTEX
  5
219
  8
LAYER_1
 10
23.04516296037827
 20
7.175523869972491
 30
0.0
  0
VERTEX
  5
21A
  8
LAYER_1
 10
22.862161247688
 20
7.739193509559675
 30
0.0
  0
VERTEX
  5
21B
  8
LAYER_1
 10
22.66579800336632
 20
8.29670324862972
 30
0.0
  0
VERTEX
  5
21C
  8
LAYER_1
 10
22.45626274402148
 20
8.847863570574358
 30
0.0
  0
VERTEX
  5
21D
  8
LAYER_1
 10
22.23374498626177
 20
9.392484958785316
 30
0.0
  0
VERTEX
  5
21E
  8
LAYER_1
 10
21.99843424669544
 20
9.930377896654324
 30
0.0
  0
VERTEX
  5
21F
  8
LAYER_1
 10
21.75052004193078
 20
10.46135286757311
 30
0.0
  0
VERTEX
  5
220
  8
LAYER_1
 10
21.49019188857605
 20
10.98522035493341
 30
0.0
  0
VERTEX
  5
221
  8
LAYER_1
 10
21.21763930323952
 20
11.50179084212694
 30
0.0
  0
VERTEX
  5
222
  8
LAYER_1
 10
20.93305180252946
 20
12.01087481254544
 30
0.0
  0
VERTEX
  5
223
  8
LAYER_1
 10
20.63661890305414
 20
12.51228274958063
 30
0.0
  0
VERTEX
  5
224
  8
LAYER_1
 10
20.32853012142184
 20
13.00582513662426
 30
0.0
  0
VERTEX
  5
225
  8
LAYER_1
 10
20.00897497424082
 20
13.49131245706804
 30
0.0
  0
VERTEX
  5
226
  8
LAYER_1
 10
19.67814297811935
 20
13.9685551943037
 30
0.0
  0
VERTEX
  5
227
  8
LAYER_1
 10
19.33622364966572
 20
14.43736383172298
 30
0.0
  0
VERTEX
  5
228
  8
LAYER_1
 10
18.98340650548818
 20
14.8975488527176
 30
0.0
  0
VERTEX
  5
229
  8
LAYER_1
 10
18.61988106219501
 20
15.34892074067929
 30
0.0
  0
VERTEX
  5
22A
  8
LAYER_1
 10
18.24583683639447
 20
15.79128997899979
 30
0.0
  0
VERTEX
  5
22B
  8
LAYER_1
 10
17.86146334469484
 20
16.22446705107082
 30
0.0
  0
VERTEX
  5
22C
  8
LAYER_1
 10
17.46695010370439
 20
16.64826244028411
 30
0.0
  0
VERTEX
  5
22D
  8
LAYER_1
 10
17.06248663003139
 20
17.06248663003139
 30
0.0
  0
VERTEX
  5
22E
  8
LAYER_1
 10
16.64826244028411
 20
17.46695010370439
 30
0.0
  0
VERTEX
  5
22F
  8
LAYER_1
 10
16.22446705107082
 20
17.86146334469484
 30
0.0
  0
VERTEX
  5
230
  8
LAYER_1
 10
15.79128997899979
 20
18.24583683639447
 30
0.0
  0
VERTEX
  5
231
  8
LAYER_1
 10
15.34892074067929
 20
18.61988106219501
 30
0.0
  0
VERTEX
  5
232
  8
LAYER_1
 10
14.8975488527176
 20
18.98340650548818
 30
0.0
  0
VERTEX
  5
233
  8
LAYER_1
 10
14.43736383172298
 20
19.33622364966572
 30
0.0
  0
VERTEX
  5
234
  8
LAYER_1
 10
13.9685551943037
 20
19.67814297811935
 30
0.0
  0
VERTEX
  5
235
  8
LAYER_1
 10
13.49131245706804
 20
20.00897497424082
 30
0.0
  0
VERTEX
  5
236
  8
LAYER_1
 10
13.00582513662426
 20
20.32853012142184
 30
0.0
  0
VERTEX
  5
237
  8
LAYER_1
 10
12.51228274958063
 20
20.63661890305414
 30
0.0
  0
VERTEX
  5
238
  8
LAYER_1
 10
12.01087481254544
 20
20.93305180252946
 30
0.0
  0
VERTEX
  5
239
  8
LAYER_1
 10
11.50179084212694
 20
21.21763930323952
 30
0.0
  0
VERTEX
  5
23A
  8
LAYER_1
 10
10.98522035493341
 20
21.49019188857605
 30
0.0
  0
VERTEX
  5
23B
  8
LAYER_1
 10
10.46135286757311
 20
21.75052004193078
 30
0.0
  0
VERTEX
  5
23C
  8
LAYER_1
 10
9.930377896654324
 20
21.99843424669544
 30
0.0
  0
VERTEX
  5
23D
  8
LAYER_1
 10
9.392484958785316
 20
22.23374498626177
 30
0.0
  0
VERTEX
  5
23E
  8
LAYER_1
 10
8.847863570574358
 20
22.45626274402148
 30
0.0
  0
VERTEX
  5
23F
  8
LAYER_1
 10
8.29670324862972
 20
22.66579800336632
 30
0.0
  0
VERTEX
  5
240
  8
LAYER_1
 10
7.739193509559675
 20
22.862161247688
 30
0.0
  0
VERTEX
  5
241
  8
LAYER_1
 10
7.175523869972491
 20
23.04516296037827
 30
0.0
  0
VERTEX
  5
242
  8
LAYER_1
 10
6.605883846476439
 20
23.21461362482883
 30
0.0
  0
VERTEX
  5
243
  8
LAYER_1
 10
6.03046295567979
 20
23.37032372443144
 30
0.0
  0
VERTEX
  5
244
  8
LAYER_1
 10
5.449450714190815
 20
23.51210374257781
 30
0.0
  0
VERTEX
  5
245
  8
LAYER_1
 10
4.863036638617784
 20
23.63976416265968
 30
0.0
  0
VERTEX
  5
246
  8
LAYER_1
 10
4.271410245568967
 20
23.75311546806877
 30
0.0
  0
VERTEX
  5
247
  8
LAYER_1
 10
3.674761051652637
 20
23.85196814219682
 30
0.0
  0
VERTEX
  5
248
  8
LAYER_1
 10
3.073278573477062
 20
23.93613266843555
 30
0.0
  0
VERTEX
  5
249
  8
LAYER_1
 10
2.467152327650514
 20
24.0054195301767
 30
0.0
  0
VERTEX
  5
24A
  8
LAYER_1
 10
1.856571830781263
 20
24.05963921081199
 30
0.0
  0
VERTEX
  5
24B
  8
LAYER_1
 10
1.24172659947758
 20
24.09860219373315
 30
0.0
  0
VERTEX
  5
24C
  8
LAYER_1
 10
0.6228061503477353
 20
24.12211896233191
 30
0.0
  0
SEQEND
  5
24D
  8
LAYER_1
  0
POLYLINE
  5
43
  8
LAYER_1
 66
     1
 10
0.0
 20
0.0
 30
0.0
 70
     1
  0
VERTEX
  5
24E
  8
LAYER_1
 10
-21.32838
 20
23.52548
 30
0.0
  0
VERTEX
  5
24F
  8
LAYER_1
 10
-21.5530207119387
 20
23.51413662037925
 30
0.0
  0
VERTEX
  5
250
  8
LAYER_1
 10
-21.77117228341098
 20
23.48084273691586
 30
0.0
  0
VERTEX
  5
251
  8
LAYER_1
 10
-21.98173033131854
 20
23.42670273270813
 30
0.0
  0
VERTEX
  5
252
  8
LAYER_1
 10
-22.18359047256308
 20
23.35282099085436
 30
0.0
  0
VERTEX
  5
253
  8
LAYER_1
 10
-22.3756483240463
 20
23.26030189445286
 30
0.0
  0
VERTEX
  5
254
  8
LAYER_1
 10
-22.55679950266988
 20
23.15024982660192
 30
0.0
  0
VERTEX
  5
255
  8
LAYER_1
 10
-22.72593962533553
 20
23.02376917039985
 30
0.0
  0
VERTEX
  5
256
  8
LAYER_1
 10
-22.88196430894496
 20
22.88196430894496
 30
0.0
  0
VERTEX
  5
257
  8
LAYER_1
 10
-23.02376917039985
 20
22.72593962533553
 30
0.0
  0
VERTEX
  5
258
  8
LAYER_1
 10
-23.15024982660192
 20
22.55679950266988
 30
0.0
  0
VERTEX
  5
259
  8
LAYER_1
 10
-23.26030189445286
 20
22.3756483240463
 30
0.0
  0
VERTEX
  5
25A
  8
LAYER_1
 10
-23.35282099085436
 20
22.18359047256308
 30
0.0
  0
VERTEX
  5
25B
  8
LAYER_1
 10
-23.42670273270813
 20
21.98173033131854
 30
0.0
  0
VERTEX
  5
25C
  8
LAYER_1
 10
-23.48084273691586
 20
21.77117228341098
 30
0.0
  0
VERTEX
  5
25D
  8
LAYER_1
 10
-23.51413662037925
 20
21.5530207119387
 30
0.0
  0
VERTEX
  5
25E
  8
LAYER_1
 10
-23.52548
 20
21.32838
 30
0.0
  0
VERTEX
  5
25F
  8
LAYER_1
 10
-23.51413662037925
 20
21.10373928806129
 30
0.0
  0
VERTEX
  5
260
  8
LAYER_1
 10
-23.48084273691586
 20
20.88558771658901
 30
0.0
  0
VERTEX
  5
261
  8
LAYER_1
 10
-23.42670273270813
 20
20.67502966868145
 30
0.0
  0
VERTEX
  5
262
  8
LAYER_1
 10
-23.35282099085436
 20
20.47316952743692
 30
0.0
  0
VERTEX
  5
263
  8
LAYER_1
 10
-23.26030189445286
 20
20.2811116759537
 30
0.0
  0
VERTEX
  5
264
  8
LAYER_1
 10
-23.15024982660192
 20
20.09996049733012
 30
0.0
  0
VERTEX
  5
265
  8
LAYER_1
 10
-23.02376917039985
 20
19.93082037466446
 30
0.0
  0
VERTEX
  5
266
  8
LAYER_1
 10
-22.88196430894496
 20
19.77479569105503
 30
0.0
  0
VERTEX
  5
267
  8
LAYER_1
 10
-22.72593962533553
 20
19.63299082960014
 30
0.0
  0
VERTEX
  5
268
  8
LAYER_1
 10
-22.55679950266988
 20
19.50651017339807
 30
0.0
  0
VERTEX
  5
269
  8
LAYER_1
 10
-22.3756483240463
 20
19.39645810554713
 30
0.0
  0
VERTEX
  5
26A
  8
LAYER_1
 10
-22.18359047256308
 20
19.30393900914564
 30
0.0
  0
VERTEX
  5
26B
  8
LAYER_1
 10
-21.98173033131854
 20
19.23005726729187
 30
0.0
  0
VERTEX
  5
26C
  8
LAYER_1
 10
-21.77117228341098
 20
19.17591726308414
 30
0.0
  0
VERTEX
  5
26D
  8
LAYER_1
 10
-21.5530207119387
 20
19.14262337962075
 30
0.0
  0
VERTEX
  5
26E
  8
LAYER_1
 10
-21.32838
 20
19.13128
 30
0.0
  0
VERTEX
  5
26F
  8
LAYER_1
 10
-21.10373928806129
 20
19.14262337962075
 30
0.0
  0
VERTEX
  5
270
  8
LAYER_1
 10
-20.88558771658901
 20
19.17591726308414
 30
0.0
  0
VERTEX
  5
271
  8
LAYER_1
 10
-20.67502966868145
 20
19.23005726729187
 30
0.0
  0
VERTEX
  5
272
  8
LAYER_1
 10
-20.47316952743692
 20
19.30393900914564
 30
0.0
  0
VERTEX
  5
273
  8
LAYER_1
 10
-20.2811116759537
 20
19.39645810554713
 30
0.0
  0
VERTEX
  5
274
  8
LAYER_1
 10
-20.09996049733012
 20
19.50651017339807
 30
0.0
  0
VERTEX
  5
275
  8
LAYER_1
 10
-19.93082037466446
 20
19.63299082960014
 30
0.0
  0
VERTEX
  5
276
  8
LAYER_1
 10
-19.77479569105503
 20
19.77479569105503
 30
0.0
  0
VERTEX
  5
277
  8
LAYER_1
 10
-19.63299082960014
 20
19.93082037466446
 30
0.0
  0
VERTEX
  5
278
  8
LAYER_1
 10
-19.50651017339807
 20
20.09996049733012
 30
0.0
  0
VERTEX
  5
279
  8
LAYER_1
 10
-19.39645810554713
 20
20.2811116759537
 30
0.0
  0
VERTEX
  5
27A
  8
LAYER_1
 10
-19.30393900914564
 20
20.47316952743692
 30
0.0
  0
VERTEX
  5
27B
  8
LAYER_1
 10
-19.23005726729187
 20
20.67502966868145
 30
0.0
  0
VERTEX
  5
27C
  8
LAYER_1
 10
-19.17591726308414
 20
20.88558771658901
 30
0.0
  0
VERTEX
  5
27D
  8
LAYER_1
 10
-19.14262337962075
 20
21.10373928806129
 30
0.0
  0
VERTEX
  5
27E
  8
LAYER_1
 10
-19.13128
 20
21.32838
 30
0.0
  0
VERTEX
  5
27F
  8
LAYER_1
 10
-19.14262337962075
 20
21.5530207119387
 30
0.0
  0
VERTEX
  5
280
  8
LAYER_1
 10
-19.17591726308414
 20
21.77117228341098
 30
0.0
  0
VERTEX
  5
281
  8
LAYER_1
 10
-19.23005726729187
 20
21.98173033131854
 30
0.0
  0
VERTEX
  5
282
  8
LAYER_1
 10
-19.30393900914564
 20
22.18359047256308
 30
0.0
  0
VERTEX
  5
283
  8
LAYER_1
 10
-19.39645810554713
 20
22.3756483240463
 30
0.0
  0
VERTEX
  5
284
  8
LAYER_1
 10
-19.50651017339807
 20
22.55679950266988
 30
0.0
  0
VERTEX
  5
285
  8
LAYER_1
 10
-19.63299082960014
 20
22.72593962533553
 30
0.0
  0
VERTEX
  5
286
  8
LAYER_1
 10
-19.77479569105503
 20
22.88196430894496
 30
0.0
  0
VERTEX
  5
287
  8
LAYER_1
 10
-19.93082037466446
 20
23.02376917039985
 30
0.0
  0
VERTEX
  5
288
  8
LAYER_1
 10
-20.09996049733012
 20
23.15024982660192
 30
0.0
  0
VERTEX
  5
289
  8
LAYER_1
 10
-20.2811116759537
 20
23.26030189445286
 30
0.0
  0
VERTEX
  5
28A
  8
LAYER_1
 10
-20.47316952743692
 20
23.35282099085436
 30
0.0
  0
VERTEX
  5
28B
  8
LAYER_1
 10
-20.67502966868145
 20
23.42670273270813
 30
0.0
  0
VERTEX
  5
28C
  8
LAYER_1
 10
-20.88558771658901
 20
23.48084273691586
 30
0.0
  0
VERTEX
  5
28D
  8
LAYER_1
 10
-21.10373928806129
 20
23.51413662037925
 30
0.0
  0
SEQEND
  5
28E
  8
LAYER_1
  0
POLYLINE
  5
44
  8
LAYER_1
 66
     1
 10
0.0
 20
0.0
 30
0.0
 70
     1
  0
VERTEX
  5
28F
  8
LAYER_1
 10
21.32838
 20
23.52548
 30
0.0
  0
VERTEX
  5
290
  8
LAYER_1
 10
21.10373928806129
 20
23.51413662037925
 30
0.0
  0
VERTEX
  5
291
  8
LAYER_1
 10
20.88558771658901
 20
23.48084273691586
 30
0.0
  0
VERTEX
  5
292
  8
LAYER_1
 10
20.67502966868145
 20
23.42670273270813
 30
0.0
  0
VERTEX
  5
293
  8
LAYER_1
 10
20.47316952743692
 20
23.35282099085436
 30
0.0
  0
VERTEX
  5
294
  8
LAYER_1
 10
20.2811116759537
 20
23.26030189445286
 30
0.0
  0
VERTEX
  5
295
  8
LAYER_1
 10
20.09996049733012
 20
23.15024982660192
 30
0.0
  0
VERTEX
  5
296
  8
LAYER_1
 10
19.93082037466446
 20
23.02376917039985
 30
0.0
  0
VERTEX
  5
297
  8
LAYER_1
 10
19.77479569105503
 20
22.88196430894496
 30
0.0
  0
VERTEX
  5
298
  8
LAYER_1
 10
19.63299082960014
 20
22.72593962533553
 30
0.0
  0
VERTEX
  5
299
  8
LAYER_1
 10
19.50651017339807
 20
22.55679950266988
 30
0.0
  0
VERTEX
  5
29A
  8
LAYER_1
 10
19.39645810554713
 20
22.3756483240463
 30
0.0
  0
VERTEX
  5
29B
  8
LAYER_1
 10
19.30393900914564
 20
22.18359047256308
 30
0.0
  0
VERTEX
  5
29C
  8
LAYER_1
 10
19.23005726729187
 20
21.98173033131854
 30
0.0
  0
VERTEX
  5
29D
  8
LAYER_1
 10
19.17591726308414
 20
21.77117228341098
 30
0.0
  0
VERTEX
  5
29E
  8
LAYER_1
 10
19.14262337962075
 20
21.5530207119387
 30
0.0
  0
VERTEX
  5
29F
  8
LAYER_1
 10
19.13128
 20
21.32838
 30
0.0
  0
VERTEX
  5
2A0
  8
LAYER_1
 10
19.14262337962075
 20
21.10373928806129
 30
0.0
  0
VERTEX
  5
2A1
  8
LAYER_1
 10
19.17591726308414
 20
20.88558771658901
 30
0.0
  0
VERTEX
  5
2A2
  8
LAYER_1
 10
19.23005726729187
 20
20.67502966868145
 30
0.0
  0
VERTEX
  5
2A3
  8
LAYER_1
 10
19.30393900914564
 20
20.47316952743692
 30
0.0
  0
VERTEX
  5
2A4
  8
LAYER_1
 10
19.39645810554713
 20
20.2811116759537
 30
0.0
  0
VERTEX
  5
2A5
  8
LAYER_1
 10
19.50651017339807
 20
20.09996049733012
 30
0.0
  0
VERTEX
  5
2A6
  8
LAYER_1
 10
19.63299082960014
 20
19.93082037466446
 30
0.0
  0
VERTEX
  5
2A7
  8
LAYER_1
 10
19.77479569105503
 20
19.77479569105503
 30
0.0
  0
VERTEX
  5
2A8
  8
LAYER_1
 10
19.93082037466446
 20
19.63299082960014
 30
0.0
  0
VERTEX
  5
2A9
  8
LAYER_1
 10
20.09996049733012
 20
19.50651017339807
 30
0.0
  0
VERTEX
  5
2AA
  8
LAYER_1
 10
20.2811116759537
 20
19.39645810554713
 30
0.0
  0
VERTEX
  5
2AB
  8
LAYER_1
 10
20.47316952743692
 20
19.30393900914564
 30
0.0
  0
VERTEX
  5
2AC
  8
LAYER_1
 10
20.67502966868145
 20
19.23005726729187
 30
0.0
  0
VERTEX
  5
2AD
  8
LAYER_1
 10
20.88558771658901
 20
19.17591726308414
 30
0.0
  0
VERTEX
  5
2AE
  8
LAYER_1
 10
21.10373928806129
 20
19.14262337962075
 30
0.0
  0
VERTEX
  5
2AF
  8
LAYER_1
 10
21.32838
 20
19.13128
 30
0.0
  0
VERTEX
  5
2B0
  8
LAYER_1
 10
21.5530207119387
 20
19.14262337962075
 30
0.0
  0
VERTEX
  5
2B1
  8
LAYER_1
 10
21.77117228341098
 20
19.17591726308414
 30
0.0
  0
VERTEX
  5
2B2
  8
LAYER_1
 10
21.98173033131854
 20
19.23005726729187
 30
0.0
  0
VERTEX
  5
2B3
  8
LAYER_1
 10
22.18359047256308
 20
19.30393900914564
 30
0.0
  0
VERTEX
  5
2B4
  8
LAYER_1
 10
22.3756483240463
 20
19.39645810554713
 30
0.0
  0
VERTEX
  5
2B5
  8
LAYER_1
 10
22.55679950266988
 20
19.50651017339807
 30
0.0
  0
VERTEX
  5
2B6
  8
LAYER_1
 10
22.72593962533553
 20
19.63299082960014
 30
0.0
  0
VERTEX
  5
2B7
  8
LAYER_1
 10
22.88196430894496
 20
19.77479569105503
 30
0.0
  0
VERTEX
  5
2B8
  8
LAYER_1
 10
23.02376917039985
 20
19.93082037466446
 30
0.0
  0
VERTEX
  5
2B9
  8
LAYER_1
 10
23.15024982660192
 20
20.09996049733012
 30
0.0
  0
VERTEX
  5
2BA
  8
LAYER_1
 10
23.26030189445286
 20
20.2811116759537
 30
0.0
  0
VERTEX
  5
2BB
  8
LAYER_1
 10
23.35282099085436
 20
20.47316952743692
 30
0.0
  0
VERTEX
  5
2BC
  8
LAYER_1
 10
23.42670273270813
 20
20.67502966868145
 30
0.0
  0
VERTEX
  5
2BD
  8
LAYER_1
 10
23.48084273691586
 20
20.88558771658901
 30
0.0
  0
VERTEX
  5
2BE
  8
LAYER_1
 10
23.51413662037925
 20
21.10373928806129
 30
0.0
  0
VERTEX
  5
2BF
  8
LAYER_1
 10
23.52548
 20
21.32838
 30
0.0
  0
VERTEX
  5
2C0
  8
LAYER_1
 10
23.51413662037925
 20
21.5530207119387
 30
0.0
  0
VERTEX
  5
2C1
  8
LAYER_1
 10
23.48084273691586
 20
21.77117228341098
 30
0.0
  0
VERTEX
  5
2C2
  8
LAYER_1
 10
23.42670273270813
 20
21.98173033131854
 30
0.0
  0
VERTEX
  5
2C3
  8
LAYER_1
 10
23.35282099085436
 20
22.18359047256308
 30
0.0
  0
VERTEX
  5
2C4
  8
LAYER_1
 10
23.26030189445286
 20
22.3756483240463
 30
0.0
  0
VERTEX
  5
2C5
  8
LAYER_1
 10
23.15024982660192
 20
22.55679950266988
 30
0.0
  0
VERTEX
  5
2C6
  8
LAYER_1
 10
23.02376917039985
 20
22.72593962533553
 30
0.0
  0
VERTEX
  5
2C7
  8
LAYER_1
 10
22.88196430894496
 20
22.88196430894496
 30
0.0
  0
VERTEX
  5
2C8
  8
LAYER_1
 10
22.72593962533553
 20
23.02376917039985
 30
0.0
  0
VERTEX
  5
2C9
  8
LAYER_1
 10
22.55679950266988
 20
23.15024982660192
 30
0.0
  0
VERTEX
  5
2CA
  8
LAYER_1
 10
22.3756483240463
 20
23.26030189445286
 30
0.0
  0
VERTEX
  5
2CB
  8
LAYER_1
 10
22.18359047256308
 20
23.35282099085436
 30
0.0
  0
VERTEX
  5
2CC
  8
LAYER_1
 10
21.98173033131854
 20
23.42670273270813
 30
0.0
  0
VERTEX
  5
2CD
  8
LAYER_1
 10
21.77117228341098
 20
23.48084273691586
 30
0.0
  0
VERTEX
  5
2CE
  8
LAYER_1
 10
21.5530207119387
 20
23.51413662037925
 30
0.0
  0
SEQEND
  5
2CF
  8
LAYER_1
  0
POLYLINE
  5
45
  8
LAYER_1
 66
     1
 10
0.0
 20
0.0
 30
0.0
 70
     1
  0
VERTEX
  5
2D0
  8
LAYER_1
 10
21.32838
 20
-19.13128
 30
0.0
  0
VERTEX
  5
2D1
  8
LAYER_1
 10
21.10373928806129
 20
-19.14262337962075
 30
0.0
  0
VERTEX
  5
2D2
  8
LAYER_1
 10
20.88558771658901
 20
-19.17591726308414
 30
0.0
  0
VERTEX
  5
2D3
  8
LAYER_1
 10
20.67502966868145
 20
-19.23005726729187
 30
0.0
  0
VERTEX
  5
2D4
  8
LAYER_1
 10
20.47316952743692
 20
-19.30393900914564
 30
0.0
  0
VERTEX
  5
2D5
  8
LAYER_1
 10
20.2811116759537
 20
-19.39645810554713
 30
0.0
  0
VERTEX
  5
2D6
  8
LAYER_1
 10
20.09996049733012
 20
-19.50651017339807
 30
0.0
  0
VERTEX
  5
2D7
  8
LAYER_1
 10
19.93082037466446
 20
-19.63299082960014
 30
0.0
  0
VERTEX
  5
2D8
  8
LAYER_1
 10
19.77479569105503
 20
-19.77479569105503
 30
0.0
  0
VERTEX
  5
2D9
  8
LAYER_1
 10
19.63299082960014
 20
-19.93082037466446
 30
0.0
  0
VERTEX
  5
2DA
  8
LAYER_1
 10
19.50651017339807
 20
-20.09996049733012
 30
0.0
  0
VERTEX
  5
2DB
  8
LAYER_1
 10
19.39645810554713
 20
-20.2811116759537
 30
0.0
  0
VERTEX
  5
2DC
  8
LAYER_1
 10
19.30393900914564
 20
-20.47316952743692
 30
0.0
  0
VERTEX
  5
2DD
  8
LAYER_1
 10
19.23005726729187
 20
-20.67502966868145
 30
0.0
  0
VERTEX
  5
2DE
  8
LAYER_1
 10
19.17591726308414
 20
-20.88558771658901
 30
0.0
  0
VERTEX
  5
2DF
  8
LAYER_1
 10
19.14262337962075
 20
-21.10373928806129
 30
0.0
  0
VERTEX
  5
2E0
  8
LAYER_1
 10
19.13128
 20
-21.32838
 30
0.0
  0
VERTEX
  5
2E1
  8
LAYER_1
 10
19.14262337962075
 20
-21.5530207119387
 30
0.0
  0
VERTEX
  5
2E2
  8
LAYER_1
 10
19.17591726308414
 20
-21.77117228341098
 30
0.0
  0
VERTEX
  5
2E3
  8
LAYER_1
 10
19.23005726729187
 20
-21.98173033131854
 30
0.0
  0
VERTEX
  5
2E4
  8
LAYER_1
 10
19.30393900914564
 20
-22.18359047256308
 30
0.0
  0
VERTEX
  5
2E5
  8
LAYER_1
 10
19.39645810554713
 20
-22.3756483240463
 30
0.0
  0
VERTEX
  5
2E6
  8
LAYER_1
 10
19.50651017339807
 20
-22.55679950266988
 30
0.0
  0
VERTEX
  5
2E7
  8
LAYER_1
 10
19.63299082960014
 20
-22.72593962533553
 30
0.0
  0
VERTEX
  5
2E8
  8
LAYER_1
 10
19.77479569105503
 20
-22.88196430894496
 30
0.0
  0
VERTEX
  5
2E9
  8
LAYER_1
 10
19.93082037466446
 20
-23.02376917039985
 30
0.0
  0
VERTEX
  5
2EA
  8
LAYER_1
 10
20.09996049733012
 20
-23.15024982660192
 30
0.0
  0
VERTEX
  5
2EB
  8
LAYER_1
 10
20.2811116759537
 20
-23.26030189445286
 30
0.0
  0
VERTEX
  5
2EC
  8
LAYER_1
 10
20.47316952743692
 20
-23.35282099085436
 30
0.0
  0
VERTEX
  5
2ED
  8
LAYER_1
 10
20.67502966868145
 20
-23.42670273270813
 30
0.0
  0
VERTEX
  5
2EE
  8
LAYER_1
 10
20.88558771658901
 20
-23.48084273691586
 30
0.0
  0
VERTEX
  5
2EF
  8
LAYER_1
 10
21.10373928806129
 20
-23.51413662037925
 30
0.0
  0
VERTEX
  5
2F0
  8
LAYER_1
 10
21.32838
 20
-23.52548
 30
0.0
  0
VERTEX
  5
2F1
  8
LAYER_1
 10
21.5530207119387
 20
-23.51413662037925
 30
0.0
  0
VERTEX
  5
2F2
  8
LAYER_1
 10
21.77117228341098
 20
-23.48084273691586
 30
0.0
  0
VERTEX
  5
2F3
  8
LAYER_1
 10
21.98173033131854
 20
-23.42670273270813
 30
0.0
  0
VERTEX
  5
2F4
  8
LAYER_1
 10
22.18359047256308
 20
-23.35282099085436
 30
0.0
  0
VERTEX
  5
2F5
  8
LAYER_1
 10
22.3756483240463
 20
-23.26030189445286
 30
0.0
  0
VERTEX
  5
2F6
  8
LAYER_1
 10
22.55679950266988
 20
-23.15024982660192
 30
0.0
  0
VERTEX
  5
2F7
  8
LAYER_1
 10
22.72593962533553
 20
-23.02376917039985
 30
0.0
  0
VERTEX
  5
2F8
  8
LAYER_1
 10
22.88196430894496
 20
-22.88196430894496
 30
0.0
  0
VERTEX
  5
2F9
  8
LAYER_1
 10
23.02376917039985
 20
-22.72593962533553
 30
0.0
  0
VERTEX
  5
2FA
  8
LAYER_1
 10
23.15024982660192
 20
-22.55679950266988
 30
0.0
  0
VERTEX
  5
2FB
  8
LAYER_1
 10
23.26030189445286
 20
-22.3756483240463
 30
0.0
  0
VERTEX
  5
2FC
  8
LAYER_1
 10
23.35282099085436
 20
-22.18359047256308
 30
0.0
  0
VERTEX
  5
2FD
  8
LAYER_1
 10
23.42670273270813
 20
-21.98173033131854
 30
0.0
  0
VERTEX
  5
2FE
  8
LAYER_1
 10
23.48084273691586
 20
-21.77117228341098
 30
0.0
  0
VERTEX
  5
2FF
  8
LAYER_1
 10
23.51413662037925
 20
-21.5530207119387
 30
0.0
  0
VERTEX
  5
300
  8
LAYER_1
 10
23.52548
 20
-21.32838
 30
0.0
  0
VERTEX
  5
301
  8
LAYER_1
 10
23.51413662037925
 20
-21.10373928806129
 30
0.0
  0
VERTEX
  5
302
  8
LAYER_1
 10
23.48084273691586
 20
-20.88558771658901
 30
0.0
  0
VERTEX
  5
303
  8
LAYER_1
 10
23.42670273270813
 20
-20.67502966868145
 30
0.0
  0
VERTEX
  5
304
  8
LAYER_1
 10
23.35282099085436
 20
-20.47316952743692
 30
0.0
  0
VERTEX
  5
305
  8
LAYER_1
 10
23.26030189445286
 20
-20.2811116759537
 30
0.0
  0
VERTEX
  5
306
  8
LAYER_1
 10
23.15024982660192
 20
-20.09996049733012
 30
0.0
  0
VERTEX
  5
307
  8
LAYER_1
 10
23.02376917039985
 20
-19.93082037466446
 30
0.0
  0
VERTEX
  5
308
  8
LAYER_1
 10
22.88196430894496
 20
-19.77479569105503
 30
0.0
  0
VERTEX
  5
309
  8
LAYER_1
 10
22.72593962533553
 20
-19.63299082960014
 30
0.0
  0
VERTEX
  5
30A
  8
LAYER_1
 10
22.55679950266988
 20
-19.50651017339807
 30
0.0
  0
VERTEX
  5
30B
  8
LAYER_1
 10
22.3756483240463
 20
-19.39645810554713
 30
0.0
  0
VERTEX
  5
30C
  8
LAYER_1
 10
22.18359047256308
 20
-19.30393900914564
 30
0.0
  0
VERTEX
  5
30D
  8
LAYER_1
 10
21.98173033131854
 20
-19.23005726729187
 30
0.0
  0
VERTEX
  5
30E
  8
LAYER_1
 10
21.77117228341098
 20
-19.17591726308414
 30
0.0
  0
VERTEX
  5
30F
  8
LAYER_1
 10
21.5530207119387
 20
-19.14262337962075
 30
0.0
  0
SEQEND
  5
310
  8
LAYER_1
  0
POLYLINE
  5
46
  8
LAYER_1
 66
     1
 10
0.0
 20
0.0
 30
0.0
 70
     1
  0
VERTEX
  5
311
  8
LAYER_1
 10
-21.32838
 20
-19.13128
 30
0.0
  0
VERTEX
  5
312
  8
LAYER_1
 10
-21.5530207119387
 20
-19.14262337962075
 30
0.0
  0
VERTEX
  5
313
  8
LAYER_1
 10
-21.77117228341098
 20
-19.17591726308414
 30
0.0
  0
VERTEX
  5
314
  8
LAYER_1
 10
-21.98173033131854
 20
-19.23005726729187
 30
0.0
  0
VERTEX
  5
315
  8
LAYER_1
 10
-22.18359047256308
 20
-19.30393900914564
 30
0.0
  0
VERTEX
  5
316
  8
LAYER_1
 10
-22.3756483240463
 20
-19.39645810554713
 30
0.0
  0
VERTEX
  5
317
  8
LAYER_1
 10
-22.55679950266988
 20
-19.50651017339807
 30
0.0
  0
VERTEX
  5
318
  8
LAYER_1
 10
-22.72593962533553
 20
-19.63299082960014
 30
0.0
  0
VERTEX
  5
319
  8
LAYER_1
 10
-22.88196430894496
 20
-19.77479569105503
 30
0.0
  0
VERTEX
  5
31A
  8
LAYER_1
 10
-23.02376917039985
 20
-19.93082037466446
 30
0.0
  0
VERTEX
  5
31B
  8
LAYER_1
 10
-23.15024982660192
 20
-20.09996049733012
 30
0.0
  0
VERTEX
  5
31C
  8
LAYER_1
 10
-23.26030189445286
 20
-20.2811116759537
 30
0.0
  0
VERTEX
  5
31D
  8
LAYER_1
 10
-23.35282099085436
 20
-20.47316952743692
 30
0.0
  0
VERTEX
  5
31E
  8
LAYER_1
 10
-23.42670273270813
 20
-20.67502966868145
 30
0.0
  0
VERTEX
  5
31F
  8
LAYER_1
 10
-23.48084273691586
 20
-20.88558771658901
 30
0.0
  0
VERTEX
  5
320
  8
LAYER_1
 10
-23.51413662037925
 20
-21.10373928806129
 30
0.0
  0
VERTEX
  5
321
  8
LAYER_1
 10
-23.52548
 20
-21.32838
 30
0.0
  0
VERTEX
  5
322
  8
LAYER_1
 10
-23.51413662037925
 20
-21.5530207119387
 30
0.0
  0
VERTEX
  5
323
  8
LAYER_1
 10
-23.48084273691586
 20
-21.77117228341098
 30
0.0
  0
VERTEX
  5
324
  8
LAYER_1
 10
-23.42670273270813
 20
-21.98173033131854
 30
0.0
  0
VERTEX
  5
325
  8
LAYER_1
 10
-23.35282099085436
 20
-22.18359047256308
 30
0.0
  0
VERTEX
  5
326
  8
LAYER_1
 10
-23.26030189445286
 20
-22.3756483240463
 30
0.0
  0
VERTEX
  5
327
  8
LAYER_1
 10
-23.15024982660192
 20
-22.55679950266988
 30
0.0
  0
VERTEX
  5
328
  8
LAYER_1
 10
-23.02376917039985
 20
-22.72593962533553
 30
0.0
  0
VERTEX
  5
329
  8
LAYER_1
 10
-22.88196430894496
 20
-22.88196430894496
 30
0.0
  0
VERTEX
  5
32A
  8
LAYER_1
 10
-22.72593962533553
 20
-23.02376917039985
 30
0.0
  0
VERTEX
  5
32B
  8
LAYER_1
 10
-22.55679950266988
 20
-23.15024982660192
 30
0.0
  0
VERTEX
  5
32C
  8
LAYER_1
 10
-22.3756483240463
 20
-23.26030189445286
 30
0.0
  0
VERTEX
  5
32D
  8
LAYER_1
 10
-22.18359047256308
 20
-23.35282099085436
 30
0.0
  0
VERTEX
  5
32E
  8
LAYER_1
 10
-21.98173033131854
 20
-23.42670273270813
 30
0.0
  0
VERTEX
  5
32F
  8
LAYER_1
 10
-21.77117228341098
 20
-23.48084273691586
 30
0.0
  0
VERTEX
  5
330
  8
LAYER_1
 10
-21.5530207119387
 20
-23.51413662037925
 30
0.0
  0
VERTEX
  5
331
  8
LAYER_1
 10
-21.32838
 20
-23.52548
 30
0.0
  0
VERTEX
  5
332
  8
LAYER_1
 10
-21.10373928806129
 20
-23.51413662037925
 30
0.0
  0
VERTEX
  5
333
  8
LAYER_1
 10
-20.88558771658901
 20
-23.48084273691586
 30
0.0
  0
VERTEX
  5
334
  8
LAYER_1
 10
-20.67502966868145
 20
-23.42670273270813
 30
0.0
  0
VERTEX
  5
335
  8
LAYER_1
 10
-20.47316952743692
 20
-23.35282099085436
 30
0.0
  0
VERTEX
  5
336
  8
LAYER_1
 10
-20.2811116759537
 20
-23.26030189445286
 30
0.0
  0
VERTEX
  5
337
  8
LAYER_1
 10
-20.09996049733012
 20
-23.15024982660192
 30
0.0
  0
VERTEX
  5
338
  8
LAYER_1
 10
-19.93082037466446
 20
-23.02376917039985
 30
0.0
  0
VERTEX
  5
339
  8
LAYER_1
 10
-19.77479569105503
 20
-22.88196430894496
 30
0.0
  0
VERTEX
  5
33A
  8
LAYER_1
 10
-19.63299082960014
 20
-22.72593962533553
 30
0.0
  0
VERTEX
  5
33B
  8
LAYER_1
 10
-19.50651017339807
 20
-22.55679950266988
 30
0.0
  0
VERTEX
  5
33C
  8
LAYER_1
 10
-19.39645810554713
 20
-22.3756483240463
 30
0.0
  0
VERTEX
  5
33D
  8
LAYER_1
 10
-19.30393900914564
 20
-22.18359047256308
 30
0.0
  0
VERTEX
  5
33E
  8
LAYER_1
 10
-19.23005726729187
 20
-21.98173033131854
 30
0.0
  0
VERTEX
  5
33F
  8
LAYER_1
 10
-19.17591726308414
 20
-21.77117228341098
 30
0.0
  0
VERTEX
  5
340
  8
LAYER_1
 10
-19.14262337962075
 20
-21.5530207119387
 30
0.0
  0
VERTEX
  5
341
  8
LAYER_1
 10
-19.13128
 20
-21.32838
 30
0.0
  0
VERTEX
  5
342
  8
LAYER_1
 10
-19.14262337962075
 20
-21.10373928806129
 30
0.0
  0
VERTEX
  5
343
  8
LAYER_1
 10
-19.17591726308414
 20
-20.88558771658901
 30
0.0
  0
VERTEX
  5
344
  8
LAYER_1
 10
-19.23005726729187
 20
-20.67502966868145
 30
0.0
  0
VERTEX
  5
345
  8
LAYER_1
 10
-19.30393900914564
 20
-20.47316952743692
 30
0.0
  0
VERTEX
  5
346
  8
LAYER_1
 10
-19.39645810554713
 20
-20.2811116759537
 30
0.0
  0
VERTEX
  5
347
  8
LAYER_1
 10
-19.50651017339807
 20
-20.09996049733012
 30
0.0
  0
VERTEX
  5
348
  8
LAYER_1
 10
-19.63299082960014
 20
-19.93082037466446
 30
0.0
  0
VERTEX
  5
349
  8
LAYER_1
 10
-19.77479569105503
 20
-19.77479569105503
 30
0.0
  0
VERTEX
  5
34A
  8
LAYER_1
 10
-19.93082037466446
 20
-19.63299082960014
 30
0.0
  0
VERTEX
  5
34B
  8
LAYER_1
 10
-20.09996049733012
 20
-19.50651017339807
 30
0.0
  0
VERTEX
  5
34C
  8
LAYER_1
 10
-20.2811116759537
 20
-19.39645810554713
 30
0.0
  0
VERTEX
  5
34D
  8
LAYER_1
 10
-20.47316952743692
 20
-19.30393900914564
 30
0.0
  0
VERTEX
  5
34E
  8
LAYER_1
 10
-20.67502966868145
 20
-19.23005726729187
 30
0.0
  0
VERTEX
  5
34F
  8
LAYER_1
 10
-20.88558771658901
 20
-19.17591726308414
 30
0.0
  0
VERTEX
  5
350
  8
LAYER_1
 10
-21.10373928806129
 20
-19.14262337962075
 30
0.0
  0
SEQEND
  5
351
  8
LAYER_1
  0
ENDSEC
  0
EOF
