  0
SECTION
  2
HEADER
  9
$ACADVER
  1
AC1009
  9
$DWGCODEPAGE
  3
ansi_1252
  9
$INSBASE
 10
0.0
 20
0.0
 30
0.0
  9
$EXTMIN
 10
-25.0
 20
-25.0
 30
0.0
  9
$EXTMAX
 10
25.0
 20
25.0
 30
0.0
  9
$LIMMIN
 10
0.0
 20
0.0
  9
$LIMMAX
 10
12.0
 20
9.0
  9
$ORTHOMODE
 70
     0
  9
$REGENMODE
 70
     1
  9
$FILLMODE
 70
     1
  9
$QTEXTMODE
 70
     0
  9
$MIRRTEXT
 70
     1
  9
$DRAGMODE
 70
     2
  9
$LTSCALE
 40
1.0
  9
$OSMODE
 70
    37
  9
$ATTMODE
 70
     1
  9
$TEXTSIZE
 40
0.2
  9
$TRACEWID
 40
0.05
  9
$TEXTSTYLE
  7
STANDARD
  9
$CLAYER
  8
0
  9
$CELTYPE
  6
BYLAYER
  9
$CECOLOR
 62
   256
  9
$DIMSCALE
 40
1.0
  9
$DIMASZ
 40
0.18
  9
$DIMEXO
 40
0.0625
  9
$DIMDLI
 40
0.38
  9
$DIMRND
 40
0.0
  9
$DIMDLE
 40
0.0
  9
$DIMEXE
 40
0.18
  9
$DIMTP
 40
0.0
  9
$DIMTM
 40
0.0
  9
$DIMTXT
 40
0.18
  9
$DIMCEN
 40
0.09
  9
$DIMTSZ
 40
0.0
  9
$DIMTOL
 70
     0
  9
$DIMLIM
 70
     0
  9
$DIMTIH
 70
     1
  9
$DIMTOH
 70
     1
  9
$DIMSE1
 70
     0
  9
$DIMSE2
 70
     0
  9
$DIMTAD
 70
     0
  9
$DIMZIN
 70
     0
  9
$DIMBLK
  1

  9
$DIMASO
 70
     1
  9
$DIMSHO
 70
     1
  9
$DIMPOST
  1

  9
$DIMAPOST
  1

  9
$DIMALT
 70
     0
  9
$DIMALTD
 70
     2
  9
$DIMALTF
 40
25.4
  9
$DIMLFAC
 40
1.0
  9
$DIMTOFL
 70
     0
  9
$DIMTVP
 40
0.0
  9
$DIMTIX
 70
     0
  9
$DIMSOXD
 70
     0
  9
$DIMSAH
 70
     0
  9
$DIMBLK1
  1

  9
$DIMBLK2
  1

  9
$DIMSTYLE
  2
STANDARD
  9
$DIMCLRD
 70
     0
  9
$DIMCLRE
 70
     0
  9
$DIMCLRT
 70
     0
  9
$DIMTFAC
 40
1.0
  9
$DIMGAP
 40
0.09
  9
$LUNITS
 70
     2
  9
$LUPREC
 70
     4
  9
$SKETCHINC
 40
0.1
  9
$FILLETRAD
 40
0.5
  9
$AUNITS
 70
     0
  9
$AUPREC
 70
     0
  9
$MENU
  1
.
  9
$ELEVATION
 40
0.0
  9
$PELEVATION
 40
0.0
  9
$THICKNESS
 40
0.0
  9
$LIMCHECK
 70
     0
  9
$CHAMFERA
 40
0.5
  9
$CHAMFERB
 40
0.5
  9
$SKPOLY
 70
     0
  9
$TDCREATE
 40
2454910.5
  9
$TDUPDATE
 40
2457247.609855683
  9
$TDINDWG
 40
0.0000000116
  9
$TDUSRTIMER
 40
0.0000000116
  9
$USRTIMER
 70
     1
  9
$ANGBASE
 50
0.0
  9
$ANGDIR
 70
     0
  9
$PDMODE
 70
     0
  9
$PDSIZE
 40
0.0
  9
$PLINEWID
 40
0.0
  9
$COORDS
 70
     1
  9
$SPLFRAME
 70
     0
  9
$SPLINETYPE
 70
     6
  9
$SPLINESEGS
 70
     8
  9
$ATTDIA
 70
     0
  9
$ATTREQ
 70
     1
  9
$HANDLING
 70
     1
  9
$HANDSEED
  5
90
  9
$SURFTAB1
 70
     6
  9
$SURFTAB2
 70
     6
  9
$SURFTYPE
 70
     6
  9
$SURFU
 70
     6
  9
$SURFV
 70
     6
  9
$UCSNAME
  2

  9
$UCSORG
 10
0.0
 20
0.0
 30
0.0
  9
$UCSXDIR
 10
1.0
 20
0.0
 30
0.0
  9
$UCSYDIR
 10
0.0
 20
1.0
 30
0.0
  9
$PUCSNAME
  2

  9
$PUCSORG
 10
0.0
 20
0.0
 30
0.0
  9
$PUCSXDIR
 10
1.0
 20
0.0
 30
0.0
  9
$PUCSYDIR
 10
0.0
 20
1.0
 30
0.0
  9
$USERI1
 70
     0
  9
$USERI2
 70
     0
  9
$USERI3
 70
     0
  9
$USERI4
 70
     0
  9
$USERI5
 70
     0
  9
$USERR1
 40
0.0
  9
$USERR2
 40
0.0
  9
$USERR3
 40
0.0
  9
$USERR4
 40
0.0
  9
$USERR5
 40
0.0
  9
$WORLDVIEW
 70
     1
  9
$SHADEDGE
 70
     3
  9
$SHADEDIF
 70
    70
  9
$TILEMODE
 70
     1
  9
$MAXACTVP
 70
    64
  9
$PLIMCHECK
 70
     0
  9
$PEXTMIN
 10
1.000000000000000E+20
 20
1.000000000000000E+20
 30
1.000000000000000E+20
  9
$PEXTMAX
 10
-1.000000000000000E+20
 20
-1.000000000000000E+20
 30
-1.000000000000000E+20
  9
$PLIMMIN
 10
0.0
 20
0.0
  9
$PLIMMAX
 10
12.0
 20
9.0
  9
$UNITMODE
 70
     0
  9
$VISRETAIN
 70
     1
  9
$PLINEGEN
 70
     0
  9
$PSLTSCALE
 70
     1
  0
ENDSEC
  0
SECTION
  2
TABLES
  0
TABLE
  2
VPORT
 70
     1
  0
VPORT
  2
*ACTIVE
 70
     0
 10
0.0
 20
0.0
 11
1.0
 21
1.0
 12
10.42990654205607
 22
4.5
 13
0.0
 23
0.0
 14
0.5
 24
0.5
 15
0.5
 25
0.5
 16
0.0
 26
0.0
 36
1.0
 17
0.0
 27
0.0
 37
0.0
 40
9.0
 41
1.972972972850329
 42
50.0
 43
0.0
 44
0.0
 50
0.0
 51
0.0
 71
     0
 72
   100
 73
     1
 74
     3
 75
     0
 76
     0
 77
     0
 78
     0
  0
ENDTAB
  0
TABLE
  2
LTYPE
 70
     2
  0
LTYPE
  2
CONTINUOUS
 70
     0
  3
Solid line
 72
    65
 73
     0
 40
0.0
  0
LTYPE
  2
CONTINUOUS2
 70
     0
  3
Solid Line
 72
    65
 73
     0
 40
0.0
  0
ENDTAB
  0
TABLE
  2
LAYER
 70
     2
  0
LAYER
  2
0
 70
     0
 62
     7
  6
CONTINUOUS
  0
LAYER
  2
LAYER_1
 70
     0
 62
    18
  6
CONTINUOUS
  0
ENDTAB
  0
TABLE
  2
STYLE
 70
     1
  0
STYLE
  2
STANDARD
 70
     0
 40
0.0
 41
1.0
 50
0.0
 71
     0
 42
0.2
  3
txt
  4

  0
ENDTAB
  0
TABLE
  2
VIEW
 70
     0
  0
ENDTAB
  0
TABLE
  2
UCS
 70
     0
  0
ENDTAB
  0
TABLE
  2
APPID
 70
     1
  0
APPID
  2
ACAD
 70
     0
  0
ENDTAB
  0
TABLE
  2
DIMSTYLE
 70
     1
  0
DIMSTYLE
  2
STANDARD
 70
     0
  3

  4

  5

  6

  7

 40
1.0
 41
0.18
 42
0.0625
 43
0.38
 44
0.18
 45
0.0
 46
0.0
 47
0.0
 48
0.0
140
0.18
141
0.09
142
0.0
143
25.4
144
1.0
145
0.0
146
1.0
147
0.09
 71
     0
 72
     0
 73
     1
 74
     1
 75
     0
 76
     0
 77
     0
 78
     0
170
     0
171
     2
172
     0
173
     0
174
     0
175
     0
176
     0
177
     0
178
     0
  0
ENDTAB
  0
ENDSEC
  0
SECTION
  2
BLOCKS
  0
BLOCK
  8
0
  2
$MODEL_SPACE
 70
     0
 10
0.0
 20
0.0
 30
0.0
  3
$MODEL_SPACE
  1

  0
ENDBLK
  5
21
  8
0
  0
BLOCK
 67
     1
  8
0
  2
$PAPER_SPACE
 70
     0
 10
0.0
 20
0.0
 30
0.0
  3
$PAPER_SPACE
  1

  0
ENDBLK
  5
1D
 67
     1
  8
0
  0
ENDSEC
  0
SECTION
  2
ENTITIES
  0
POLYLINE
  5
41
  8
LAYER_1
 66
     1
 10
0.0
 20
0.0
 30
0.0
 70
     1
  0
VERTEX
  5
48
  8
LAYER_1
 10
-20.01600730265397
 20
-10.12757122521684
 30
0.0
  0
VERTEX
  5
49
  8
LAYER_1
 10
-20.29887418807227
 20
-9.55123859038931
 30
0.0
  0
VERTEX
  5
4A
  8
LAYER_1
 10
-20.56543542490258
 20
-8.965921602873488
 30
0.0
  0
VERTEX
  5
4B
  8
LAYER_1
 10
-20.8154227995042
 20
-8.371927179195477
 30
0.0
  0
VERTEX
  5
4C
  8
LAYER_1
 10
-21.04856809823645
 20
-7.769562235881386
 30
0.0
  0
VERTEX
  5
4D
  8
LAYER_1
 10
-21.26460310745863
 20
-7.159133689457315
 30
0.0
  0
VERTEX
  5
4E
  8
LAYER_1
 10
-21.46325961353003
 20
-6.540948456449373
 30
0.0
  0
VERTEX
  5
4F
  8
LAYER_1
 10
-21.64426940280999
 20
-5.915313453383662
 30
0.0
  0
VERTEX
  5
50
  8
LAYER_1
 10
-21.8073642616578
 20
-5.282535596786289
 30
0.0
  0
VERTEX
  5
51
  8
LAYER_1
 10
-21.95227597643277
 20
-4.642921803183357
 30
0.0
  0
VERTEX
  5
52
  8
LAYER_1
 10
-22.07873633349421
 20
-3.996778989100971
 30
0.0
  0
VERTEX
  5
53
  8
LAYER_1
 10
-22.18647711920143
 20
-3.344414071065236
 30
0.0
  0
VERTEX
  5
54
  8
LAYER_1
 10
-22.27523011991374
 20
-2.686133965602257
 30
0.0
  0
VERTEX
  5
55
  8
LAYER_1
 10
-22.34472712199044
 20
-2.022245589238139
 30
0.0
  0
VERTEX
  5
56
  8
LAYER_1
 10
-22.39469991179085
 20
-1.353055858498988
 30
0.0
  0
VERTEX
  5
57
  8
LAYER_1
 10
-22.42488027567427
 20
-0.6788716899109062
 30
0.0
  0
VERTEX
  5
58
  8
LAYER_1
 10
-22.435
 20
0.0
 30
0.0
  0
VERTEX
  5
59
  8
LAYER_1
 10
-22.42491071491987
 20
0.6766422200775996
 30
0.0
  0
VERTEX
  5
5A
  8
LAYER_1
 10
-22.39481865661079
 20
1.348963397233274
 30
0.0
  0
VERTEX
  5
5B
  8
LAYER_1
 10
-22.34498752046968
 20
2.016641196620683
 30
0.0
  0
VERTEX
  5
5C
  8
LAYER_1
 10
-22.27568100189347
 20
2.679353283393489
 30
0.0
  0
VERTEX
  5
5D
  8
LAYER_1
 10
-22.18716279627911
 20
3.336777322705353
 30
0.0
  0
VERTEX
  5
5E
  8
LAYER_1
 10
-22.07969659902351
 20
3.988590979709935
 30
0.0
  0
VERTEX
  5
5F
  8
LAYER_1
 10
-21.95354610552362
 20
4.634471919560898
 30
0.0
  0
VERTEX
  5
60
  8
LAYER_1
 10
-21.80897501117636
 20
5.274097807411901
 30
0.0
  0
VERTEX
  5
61
  8
LAYER_1
 10
-21.64624701137868
 20
5.907146308416607
 30
0.0
  0
VERTEX
  5
62
  8
LAYER_1
 10
-21.4656258015275
 20
6.533295087728677
 30
0.0
  0
VERTEX
  5
63
  8
LAYER_1
 10
-21.26737507701976
 20
7.152221810501771
 30
0.0
  0
VERTEX
  5
64
  8
LAYER_1
 10
-21.05175853325238
 20
7.76360414188955
 30
0.0
  0
VERTEX
  5
65
  8
LAYER_1
 10
-20.8190398656223
 20
8.367119747045678
 30
0.0
  0
VERTEX
  5
66
  8
LAYER_1
 10
-20.56948276952647
 20
8.962446291123813
 30
0.0
  0
VERTEX
  5
67
  8
LAYER_1
 10
-20.3033509403618
 20
9.549261439277618
 30
0.0
  0
VERTEX
  5
68
  8
LAYER_1
 10
-20.02090807352522
 20
10.12724285666075
 30
0.0
  0
VERTEX
  5
69
  8
LAYER_1
 10
20.02418478608318
 20
10.12796642993363
 30
0.0
  0
VERTEX
  5
6A
  8
LAYER_1
 10
20.30527027307028
 20
9.553257825110787
 30
0.0
  0
VERTEX
  5
6B
  8
LAYER_1
 10
20.57031794057083
 20
8.96941683499535
 30
0.0
  0
VERTEX
  5
6C
  8
LAYER_1
 10
20.81903847744289
 20
8.376734990805788
 30
0.0
  0
VERTEX
  5
6D
  8
LAYER_1
 10
21.05114257254453
 20
7.775503823760572
 30
0.0
  0
VERTEX
  5
6E
  8
LAYER_1
 10
21.26634091473377
 20
7.166014865078171
 30
0.0
  0
VERTEX
  5
6F
  8
LAYER_1
 10
21.46434419286868
 20
6.548559645977058
 30
0.0
  0
VERTEX
  5
70
  8
LAYER_1
 10
21.6448630958073
 20
5.923429697675699
 30
0.0
  0
VERTEX
  5
71
  8
LAYER_1
 10
21.80760831240767
 20
5.290916551392565
 30
0.0
  0
VERTEX
  5
72
  8
LAYER_1
 10
21.95229053152786
 20
4.651311738346125
 30
0.0
  0
VERTEX
  5
73
  8
LAYER_1
 10
22.07862044202591
 20
4.004906789754853
 30
0.0
  0
VERTEX
  5
74
  8
LAYER_1
 10
22.18630873275986
 20
3.351993236837215
 30
0.0
  0
VERTEX
  5
75
  8
LAYER_1
 10
22.27506609258778
 20
2.692862610811682
 30
0.0
  0
VERTEX
  5
76
  8
LAYER_1
 10
22.3446032103677
 20
2.027806442896724
 30
0.0
  0
VERTEX
  5
77
  8
LAYER_1
 10
22.39463077495768
 20
1.357116264310811
 30
0.0
  0
VERTEX
  5
78
  8
LAYER_1
 10
22.42485947521576
 20
0.681083606272413
 30
0.0
  0
VERTEX
  5
79
  8
LAYER_1
 10
22.435
 20
0.0
 30
0.0
  0
VERTEX
  5
7A
  8
LAYER_1
 10
22.4248576924535
 20
-0.6810836071099542
 30
0.0
  0
VERTEX
  5
7B
  8
LAYER_1
 10
22.39461651296037
 20
-1.357116265964794
 30
0.0
  0
VERTEX
  5
7C
  8
LAYER_1
 10
22.34455507624014
 20
-2.027806445336719
 30
0.0
  0
VERTEX
  5
7D
  8
LAYER_1
 10
22.27495199701237
 20
-2.692862613997927
 30
0.0
  0
VERTEX
  5
7E
  8
LAYER_1
 10
22.1860858899966
 20
-3.351993240720616
 30
0.0
  0
VERTEX
  5
7F
  8
LAYER_1
 10
22.07823536991236
 20
-4.004906794276986
 30
0.0
  0
VERTEX
  5
80
  8
LAYER_1
 10
21.9516790514792
 20
-4.651311743439235
 30
0.0
  0
VERTEX
  5
81
  8
LAYER_1
 10
21.80669554941667
 20
-5.290916556979562
 30
0.0
  0
VERTEX
  5
82
  8
LAYER_1
 10
21.64356347844431
 20
-5.923429703670165
 30
0.0
  0
VERTEX
  5
83
  8
LAYER_1
 10
21.46256145328167
 20
-6.548559652283243
 30
0.0
  0
VERTEX
  5
84
  8
LAYER_1
 10
21.26396808864827
 20
-7.166014871590994
 30
0.0
  0
VERTEX
  5
85
  8
LAYER_1
 10
21.04806199926368
 20
-7.775503830365617
 30
0.0
  0
VERTEX
  5
86
  8
LAYER_1
 10
20.81512179984743
 20
-8.376734997379309
 30
0.0
  0
VERTEX
  5
87
  8
LAYER_1
 10
20.56542610511906
 20
-8.969416841404275
 30
0.0
  0
VERTEX
  5
88
  8
LAYER_1
 10
20.29925352979812
 20
-9.553257831212706
 30
0.0
  0
VERTEX
  5
89
  8
LAYER_1
 10
20.01688268860416
 20
-10.1279664355768
 30
0.0
  0
SEQEND
  5
8A
  8
LAYER_1
  0
POLYLINE
  5
42
  8
LAYER_1
 66
     1
 10
0.0
 20
0.0
 30
0.0
 70
     1
  0
VERTEX
  5
8B
  8
LAYER_1
 10
0.0
 20
25.0
 30
0.0
 42
0.4142135623730951
  0
VERTEX
  5
8C
  8
LAYER_1
 10
-25.0
 20
0.0
 30
0.0
 42
0.4142135623730951
  0
VERTEX
  5
8D
  8
LAYER_1
 10
0.0
 20
-25.0
 30
0.0
 42
0.4142135623730951
  0
VERTEX
  5
8E
  8
LAYER_1
 10
25.0
 20
0.0
 30
0.0
 42
0.4142135623730951
  0
SEQEND
  5
8F
  8
LAYER_1
  0
ENDSEC
  0
EOF
