  0
SECTION
  2
HEADER
  9
$ACADVER
  1
AC1009
  9
$DWGCODEPAGE
  3
ansi_1252
  9
$INSBASE
 10
0.0
 20
0.0
 30
0.0
  9
$EXTMIN
 10
-46.7995
 20
-57.94375000000001
 30
0.0
  9
$EXTMAX
 10
46.7995
 20
48.41875
 30
0.0
  9
$LIMMIN
 10
0.0
 20
0.0
  9
$LIMMAX
 10
12.0
 20
9.0
  9
$ORTHOMODE
 70
     0
  9
$REGENMODE
 70
     1
  9
$FILLMODE
 70
     1
  9
$QTEXTMODE
 70
     0
  9
$MIRRTEXT
 70
     1
  9
$DRAGMODE
 70
     2
  9
$LTSCALE
 40
1.0
  9
$OSMODE
 70
    37
  9
$ATTMODE
 70
     1
  9
$TEXTSIZE
 40
0.2
  9
$TRACEWID
 40
0.05
  9
$TEXTSTYLE
  7
STANDARD
  9
$CLAYER
  8
0
  9
$CELTYPE
  6
BYLAYER
  9
$CECOLOR
 62
   256
  9
$DIMSCALE
 40
1.0
  9
$DIMASZ
 40
0.18
  9
$DIMEXO
 40
0.0625
  9
$DIMDLI
 40
0.38
  9
$DIMRND
 40
0.0
  9
$DIMDLE
 40
0.0
  9
$DIMEXE
 40
0.18
  9
$DIMTP
 40
0.0
  9
$DIMTM
 40
0.0
  9
$DIMTXT
 40
0.18
  9
$DIMCEN
 40
0.09
  9
$DIMTSZ
 40
0.0
  9
$DIMTOL
 70
     0
  9
$DIMLIM
 70
     0
  9
$DIMTIH
 70
     1
  9
$DIMTOH
 70
     1
  9
$DIMSE1
 70
     0
  9
$DIMSE2
 70
     0
  9
$DIMTAD
 70
     0
  9
$DIMZIN
 70
     0
  9
$DIMBLK
  1

  9
$DIMASO
 70
     1
  9
$DIMSHO
 70
     1
  9
$DIMPOST
  1

  9
$DIMAPOST
  1

  9
$DIMALT
 70
     0
  9
$DIMALTD
 70
     2
  9
$DIMALTF
 40
25.4
  9
$DIMLFAC
 40
1.0
  9
$DIMTOFL
 70
     0
  9
$DIMTVP
 40
0.0
  9
$DIMTIX
 70
     0
  9
$DIMSOXD
 70
     0
  9
$DIMSAH
 70
     0
  9
$DIMBLK1
  1

  9
$DIMBLK2
  1

  9
$DIMSTYLE
  2
STANDARD
  9
$DIMCLRD
 70
     0
  9
$DIMCLRE
 70
     0
  9
$DIMCLRT
 70
     0
  9
$DIMTFAC
 40
1.0
  9
$DIMGAP
 40
0.09
  9
$LUNITS
 70
     2
  9
$LUPREC
 70
     4
  9
$SKETCHINC
 40
0.1
  9
$FILLETRAD
 40
0.5
  9
$AUNITS
 70
     0
  9
$AUPREC
 70
     0
  9
$MENU
  1
.
  9
$ELEVATION
 40
0.0
  9
$PELEVATION
 40
0.0
  9
$THICKNESS
 40
0.0
  9
$LIMCHECK
 70
     0
  9
$CHAMFERA
 40
0.5
  9
$CHAMFERB
 40
0.5
  9
$SKPOLY
 70
     0
  9
$TDCREATE
 40
2454910.5
  9
$TDUPDATE
 40
2457134.952132882
  9
$TDINDWG
 40
0.0000000116
  9
$TDUSRTIMER
 40
0.0000000116
  9
$USRTIMER
 70
     1
  9
$ANGBASE
 50
0.0
  9
$ANGDIR
 70
     0
  9
$PDMODE
 70
     0
  9
$PDSIZE
 40
0.0
  9
$PLINEWID
 40
0.0
  9
$COORDS
 70
     1
  9
$SPLFRAME
 70
     0
  9
$SPLINETYPE
 70
     6
  9
$SPLINESEGS
 70
     8
  9
$ATTDIA
 70
     0
  9
$ATTREQ
 70
     1
  9
$HANDLING
 70
     1
  9
$HANDSEED
  5
323
  9
$SURFTAB1
 70
     6
  9
$SURFTAB2
 70
     6
  9
$SURFTYPE
 70
     6
  9
$SURFU
 70
     6
  9
$SURFV
 70
     6
  9
$UCSNAME
  2

  9
$UCSORG
 10
0.0
 20
0.0
 30
0.0
  9
$UCSXDIR
 10
1.0
 20
0.0
 30
0.0
  9
$UCSYDIR
 10
0.0
 20
1.0
 30
0.0
  9
$PUCSNAME
  2

  9
$PUCSORG
 10
0.0
 20
0.0
 30
0.0
  9
$PUCSXDIR
 10
1.0
 20
0.0
 30
0.0
  9
$PUCSYDIR
 10
0.0
 20
1.0
 30
0.0
  9
$USERI1
 70
     0
  9
$USERI2
 70
     0
  9
$USERI3
 70
     0
  9
$USERI4
 70
     0
  9
$USERI5
 70
     0
  9
$USERR1
 40
0.0
  9
$USERR2
 40
0.0
  9
$USERR3
 40
0.0
  9
$USERR4
 40
0.0
  9
$USERR5
 40
0.0
  9
$WORLDVIEW
 70
     1
  9
$SHADEDGE
 70
     3
  9
$SHADEDIF
 70
    70
  9
$TILEMODE
 70
     1
  9
$MAXACTVP
 70
    64
  9
$PLIMCHECK
 70
     0
  9
$PEXTMIN
 10
1.000000000000000E+20
 20
1.000000000000000E+20
 30
1.000000000000000E+20
  9
$PEXTMAX
 10
-1.000000000000000E+20
 20
-1.000000000000000E+20
 30
-1.000000000000000E+20
  9
$PLIMMIN
 10
0.0
 20
0.0
  9
$PLIMMAX
 10
12.0
 20
9.0
  9
$UNITMODE
 70
     0
  9
$VISRETAIN
 70
     1
  9
$PLINEGEN
 70
     0
  9
$PSLTSCALE
 70
     1
  0
ENDSEC
  0
SECTION
  2
TABLES
  0
TABLE
  2
VPORT
 70
     1
  0
VPORT
  2
*ACTIVE
 70
     0
 10
0.0
 20
0.0
 11
1.0
 21
1.0
 12
10.42990654205607
 22
4.5
 13
0.0
 23
0.0
 14
0.5
 24
0.5
 15
0.5
 25
0.5
 16
0.0
 26
0.0
 36
1.0
 17
0.0
 27
0.0
 37
0.0
 40
9.0
 41
1.972972972850329
 42
50.0
 43
0.0
 44
0.0
 50
0.0
 51
0.0
 71
     0
 72
   100
 73
     1
 74
     3
 75
     0
 76
     0
 77
     0
 78
     0
  0
ENDTAB
  0
TABLE
  2
LTYPE
 70
     2
  0
LTYPE
  2
CONTINUOUS
 70
     0
  3
Solid line
 72
    65
 73
     0
 40
0.0
  0
LTYPE
  2
CONTINUOUS2
 70
     0
  3
Solid Line
 72
    65
 73
     0
 40
0.0
  0
ENDTAB
  0
TABLE
  2
LAYER
 70
     2
  0
LAYER
  2
0
 70
     0
 62
     7
  6
CONTINUOUS
  0
LAYER
  2
LAYER_1
 70
     0
 62
    18
  6
CONTINUOUS
  0
ENDTAB
  0
TABLE
  2
STYLE
 70
     1
  0
STYLE
  2
STANDARD
 70
     0
 40
0.0
 41
1.0
 50
0.0
 71
     0
 42
0.2
  3
txt
  4

  0
ENDTAB
  0
TABLE
  2
VIEW
 70
     0
  0
ENDTAB
  0
TABLE
  2
UCS
 70
     0
  0
ENDTAB
  0
TABLE
  2
APPID
 70
     1
  0
APPID
  2
ACAD
 70
     0
  0
ENDTAB
  0
TABLE
  2
DIMSTYLE
 70
     1
  0
DIMSTYLE
  2
STANDARD
 70
     0
  3

  4

  5

  6

  7

 40
1.0
 41
0.18
 42
0.0625
 43
0.38
 44
0.18
 45
0.0
 46
0.0
 47
0.0
 48
0.0
140
0.18
141
0.09
142
0.0
143
25.4
144
1.0
145
0.0
146
1.0
147
0.09
 71
     0
 72
     0
 73
     1
 74
     1
 75
     0
 76
     0
 77
     0
 78
     0
170
     0
171
     2
172
     0
173
     0
174
     0
175
     0
176
     0
177
     0
178
     0
  0
ENDTAB
  0
ENDSEC
  0
SECTION
  2
BLOCKS
  0
BLOCK
  8
0
  2
$MODEL_SPACE
 70
     0
 10
0.0
 20
0.0
 30
0.0
  3
$MODEL_SPACE
  1

  0
ENDBLK
  5
21
  8
0
  0
BLOCK
 67
     1
  8
0
  2
$PAPER_SPACE
 70
     0
 10
0.0
 20
0.0
 30
0.0
  3
$PAPER_SPACE
  1

  0
ENDBLK
  5
1D
 67
     1
  8
0
  0
ENDSEC
  0
SECTION
  2
ENTITIES
  0
POLYLINE
  5
41
  8
LAYER_1
 66
     1
 10
0.0
 20
0.0
 30
0.0
 70
     1
  0
VERTEX
  5
4C
  8
LAYER_1
 10
0.0
 20
48.41875
 30
0.0
  0
VERTEX
  5
4D
  8
LAYER_1
 10
0.6048771237343955
 20
48.41492107615807
 30
0.0
  0
VERTEX
  5
4E
  8
LAYER_1
 10
1.207916138963898
 20
48.40346493483847
 30
0.0
  0
VERTEX
  5
4F
  8
LAYER_1
 10
1.809071100379199
 20
48.38442752135051
 30
0.0
  0
VERTEX
  5
50
  8
LAYER_1
 10
2.408296062670991
 20
48.35785478100351
 30
0.0
  0
VERTEX
  5
51
  8
LAYER_1
 10
3.005545080529967
 20
48.32379265910676
 30
0.0
  0
VERTEX
  5
52
  8
LAYER_1
 10
3.600772208646819
 20
48.28228710096957
 30
0.0
  0
VERTEX
  5
53
  8
LAYER_1
 10
4.78497701441692
 20
48.17712945721114
 30
0.0
  0
VERTEX
  5
54
  8
LAYER_1
 10
5.960542917506831
 20
48.04274941220265
 30
0.0
  0
VERTEX
  5
55
  8
LAYER_1
 10
7.127102355442091
 20
47.87951452841859
 30
0.0
  0
VERTEX
  5
56
  8
LAYER_1
 10
8.284287765748237
 20
47.6877923683334
 30
0.0
  0
VERTEX
  5
57
  8
LAYER_1
 10
9.43173158595081
 20
47.46795049442155
 30
0.0
  0
VERTEX
  5
58
  8
LAYER_1
 10
10.56906625357535
 20
47.22035646915751
 30
0.0
  0
VERTEX
  5
59
  8
LAYER_1
 10
11.69592420614739
 20
46.94537785501573
 30
0.0
  0
VERTEX
  5
5A
  8
LAYER_1
 10
12.81193788119247
 20
46.64338221447068
 30
0.0
  0
VERTEX
  5
5B
  8
LAYER_1
 10
13.91673971623613
 20
46.31473710999681
 30
0.0
  0
VERTEX
  5
5C
  8
LAYER_1
 10
15.0099621488039
 20
45.95981010406859
 30
0.0
  0
VERTEX
  5
5D
  8
LAYER_1
 10
16.09123761642133
 20
45.57896875916048
 30
0.0
  0
VERTEX
  5
5E
  8
LAYER_1
 10
17.16019855661396
 20
45.17258063774695
 30
0.0
  0
VERTEX
  5
5F
  8
LAYER_1
 10
18.21647740690732
 20
44.74101330230245
 30
0.0
  0
VERTEX
  5
60
  8
LAYER_1
 10
19.25970660482695
 20
44.28463431530145
 30
0.0
  0
VERTEX
  5
61
  8
LAYER_1
 10
20.28951858789838
 20
43.80381123921839
 30
0.0
  0
VERTEX
  5
62
  8
LAYER_1
 10
21.30554579364716
 20
43.29891163652776
 30
0.0
  0
VERTEX
  5
63
  8
LAYER_1
 10
22.30742065959883
 20
42.77030306970403
 30
0.0
  0
VERTEX
  5
64
  8
LAYER_1
 10
23.29477562327892
 20
42.21835310122162
 30
0.0
  0
VERTEX
  5
65
  8
LAYER_1
 10
24.26724312221297
 20
41.64342929355503
 30
0.0
  0
VERTEX
  5
66
  8
LAYER_1
 10
25.22445559392653
 20
41.0458992091787
 30
0.0
  0
VERTEX
  5
67
  8
LAYER_1
 10
26.16604547594513
 20
40.42613041056709
 30
0.0
  0
VERTEX
  5
68
  8
LAYER_1
 10
27.09164520579429
 20
39.78449046019468
 30
0.0
  0
VERTEX
  5
69
  8
LAYER_1
 10
28.00088722099958
 20
39.12134692053591
 30
0.0
  0
VERTEX
  5
6A
  8
LAYER_1
 10
28.89340395908652
 20
38.43706735406525
 30
0.0
  0
VERTEX
  5
6B
  8
LAYER_1
 10
29.76882785758065
 20
37.73201932325718
 30
0.0
  0
VERTEX
  5
6C
  8
LAYER_1
 10
30.6267913540075
 20
37.00657039058613
 30
0.0
  0
VERTEX
  5
6D
  8
LAYER_1
 10
31.46692688589263
 20
36.26108811852659
 30
0.0
  0
VERTEX
  5
6E
  8
LAYER_1
 10
32.28886689076157
 20
35.49594006955301
 30
0.0
  0
VERTEX
  5
6F
  8
LAYER_1
 10
33.09224380613984
 20
34.71149380613985
 30
0.0
  0
VERTEX
  5
70
  8
LAYER_1
 10
33.87669006955301
 20
33.90811689076158
 30
0.0
  0
VERTEX
  5
71
  8
LAYER_1
 10
34.64183811852659
 20
33.08617688589264
 30
0.0
  0
VERTEX
  5
72
  8
LAYER_1
 10
35.38732039058613
 20
32.24604135400752
 30
0.0
  0
VERTEX
  5
73
  8
LAYER_1
 10
36.11276932325717
 20
31.38807785758065
 30
0.0
  0
VERTEX
  5
74
  8
LAYER_1
 10
36.81781735406524
 20
30.51265395908652
 30
0.0
  0
VERTEX
  5
75
  8
LAYER_1
 10
37.5020969205359
 20
29.62013722099958
 30
0.0
  0
VERTEX
  5
76
  8
LAYER_1
 10
38.16524046019467
 20
28.7108952057943
 30
0.0
  0
VERTEX
  5
77
  8
LAYER_1
 10
38.80688041056708
 20
27.78529547594513
 30
0.0
  0
VERTEX
  5
78
  8
LAYER_1
 10
39.42664920917869
 20
26.84370559392654
 30
0.0
  0
VERTEX
  5
79
  8
LAYER_1
 10
40.02417929355502
 20
25.88649312221298
 30
0.0
  0
VERTEX
  5
7A
  8
LAYER_1
 10
40.59910310122162
 20
24.91402562327893
 30
0.0
  0
VERTEX
  5
7B
  8
LAYER_1
 10
41.15105306970402
 20
23.92667065959884
 30
0.0
  0
VERTEX
  5
7C
  8
LAYER_1
 10
41.67966163652777
 20
22.92479579364717
 30
0.0
  0
VERTEX
  5
7D
  8
LAYER_1
 10
42.1845612392184
 20
21.90876858789839
 30
0.0
  0
VERTEX
  5
7E
  8
LAYER_1
 10
42.66538431530144
 20
20.87895660482695
 30
0.0
  0
VERTEX
  5
7F
  8
LAYER_1
 10
43.12176330230245
 20
19.83572740690732
 30
0.0
  0
VERTEX
  5
80
  8
LAYER_1
 10
43.55333063774695
 20
18.77944855661396
 30
0.0
  0
VERTEX
  5
81
  8
LAYER_1
 10
43.95971875916048
 20
17.71048761642134
 30
0.0
  0
VERTEX
  5
82
  8
LAYER_1
 10
44.34056010406859
 20
16.62921214880391
 30
0.0
  0
VERTEX
  5
83
  8
LAYER_1
 10
44.6954871099968
 20
15.53598971623613
 30
0.0
  0
VERTEX
  5
84
  8
LAYER_1
 10
45.02413221447067
 20
14.43118788119247
 30
0.0
  0
VERTEX
  5
85
  8
LAYER_1
 10
45.32612785501573
 20
13.31517420614739
 30
0.0
  0
VERTEX
  5
86
  8
LAYER_1
 10
45.60110646915751
 20
12.18831625357535
 30
0.0
  0
VERTEX
  5
87
  8
LAYER_1
 10
45.84870049442155
 20
11.05098158595082
 30
0.0
  0
VERTEX
  5
88
  8
LAYER_1
 10
46.0685423683334
 20
9.903537765748242
 30
0.0
  0
VERTEX
  5
89
  8
LAYER_1
 10
46.26026452841859
 20
8.746352355442093
 30
0.0
  0
VERTEX
  5
8A
  8
LAYER_1
 10
46.42349941220266
 20
7.579792917506833
 30
0.0
  0
VERTEX
  5
8B
  8
LAYER_1
 10
46.55787945721114
 20
6.404227014416922
 30
0.0
  0
VERTEX
  5
8C
  8
LAYER_1
 10
46.61413405190127
 20
5.813181501712242
 30
0.0
  0
VERTEX
  5
8D
  8
LAYER_1
 10
46.66303710096958
 20
5.220022208646822
 30
0.0
  0
VERTEX
  5
8E
  8
LAYER_1
 10
46.70454265910676
 20
4.624795080529969
 30
0.0
  0
VERTEX
  5
8F
  8
LAYER_1
 10
46.73860478100352
 20
4.027546062670994
 30
0.0
  0
VERTEX
  5
90
  8
LAYER_1
 10
46.76517752135052
 20
3.428321100379201
 30
0.0
  0
VERTEX
  5
91
  8
LAYER_1
 10
46.78421493483847
 20
2.8271661389639
 30
0.0
  0
VERTEX
  5
92
  8
LAYER_1
 10
46.79567107615807
 20
2.224127123734398
 30
0.0
  0
VERTEX
  5
93
  8
LAYER_1
 10
46.7995
 20
1.619250000000002
 30
0.0
  0
VERTEX
  5
94
  8
LAYER_1
 10
46.79072930762734
 20
0.7172002569661993
 30
0.0
  0
VERTEX
  5
95
  8
LAYER_1
 10
46.76462707498357
 20
-0.183239663048034
 30
0.0
  0
VERTEX
  5
96
  8
LAYER_1
 10
46.72126751701434
 20
-1.081835111529784
 30
0.0
  0
VERTEX
  5
97
  8
LAYER_1
 10
46.66072484866529
 20
-1.978351439966135
 30
0.0
  0
VERTEX
  5
98
  8
LAYER_1
 10
46.58307328488206
 20
-2.872553999844174
 30
0.0
  0
VERTEX
  5
99
  8
LAYER_1
 10
46.48838704061031
 20
-3.764208142650986
 30
0.0
  0
VERTEX
  5
9A
  8
LAYER_1
 10
46.37674033079567
 20
-4.653079219873657
 30
0.0
  0
VERTEX
  5
9B
  8
LAYER_1
 10
46.24820737038378
 20
-5.538932582999272
 30
0.0
  0
VERTEX
  5
9C
  8
LAYER_1
 10
46.1028623743203
 20
-6.421533583514917
 30
0.0
  0
VERTEX
  5
9D
  8
LAYER_1
 10
45.94077955755086
 20
-7.300647572907677
 30
0.0
  0
VERTEX
  5
9E
  8
LAYER_1
 10
45.76203313502111
 20
-8.176039902664638
 30
0.0
  0
VERTEX
  5
9F
  8
LAYER_1
 10
45.5666973216767
 20
-9.047475924272884
 30
0.0
  0
VERTEX
  5
A0
  8
LAYER_1
 10
45.35484633246327
 20
-9.914720989219504
 30
0.0
  0
VERTEX
  5
A1
  8
LAYER_1
 10
45.12655438232645
 20
-10.77754044899158
 30
0.0
  0
VERTEX
  5
A2
  8
LAYER_1
 10
44.8818956862119
 20
-11.6356996550762
 30
0.0
  0
VERTEX
  5
A3
  8
LAYER_1
 10
44.62094445906526
 20
-12.48896395896045
 30
0.0
  0
VERTEX
  5
A4
  8
LAYER_1
 10
44.34377491583217
 20
-13.33709871213141
 30
0.0
  0
VERTEX
  5
A5
  8
LAYER_1
 10
44.05046127145827
 20
-14.17986926607618
 30
0.0
  0
VERTEX
  5
A6
  8
LAYER_1
 10
43.74107774088922
 20
-15.01704097228183
 30
0.0
  0
VERTEX
  5
A7
  8
LAYER_1
 10
43.41569853907065
 20
-15.84837918223545
 30
0.0
  0
VERTEX
  5
A8
  8
LAYER_1
 10
43.07439788094821
 20
-16.67364924742412
 30
0.0
  0
VERTEX
  5
A9
  8
LAYER_1
 10
42.71724998146755
 20
-17.49261651933494
 30
0.0
  0
VERTEX
  5
AA
  8
LAYER_1
 10
42.34432905557429
 20
-18.30504634945499
 30
0.0
  0
VERTEX
  5
AB
  8
LAYER_1
 10
41.9557093182141
 20
-19.11070408927135
 30
0.0
  0
VERTEX
  5
AC
  8
LAYER_1
 10
41.55146498433261
 20
-19.90935509027111
 30
0.0
  0
VERTEX
  5
AD
  8
LAYER_1
 10
41.13167026887547
 20
-20.70076470394135
 30
0.0
  0
VERTEX
  5
AE
  8
LAYER_1
 10
40.69639938678833
 20
-21.48469828176917
 30
0.0
  0
VERTEX
  5
AF
  8
LAYER_1
 10
40.24572655301682
 20
-22.26092117524164
 30
0.0
  0
VERTEX
  5
B0
  8
LAYER_1
 10
39.77972598250658
 20
-23.02919873584585
 30
0.0
  0
VERTEX
  5
B1
  8
LAYER_1
 10
39.29847189020327
 20
-23.78929631506889
 30
0.0
  0
VERTEX
  5
B2
  8
LAYER_1
 10
38.80203849105254
 20
-24.54097926439784
 30
0.0
  0
VERTEX
  5
B3
  8
LAYER_1
 10
38.29050000000002
 20
-25.28401293531979
 30
0.0
  0
VERTEX
  5
B4
  8
LAYER_1
 10
38.29050000000002
 20
-57.94375000000001
 30
0.0
  0
VERTEX
  5
B5
  8
LAYER_1
 10
-38.29050000000002
 20
-57.94375000000001
 30
0.0
  0
VERTEX
  5
B6
  8
LAYER_1
 10
-38.29050000000002
 20
-25.28401293531978
 30
0.0
  0
VERTEX
  5
B7
  8
LAYER_1
 10
-38.80203849105254
 20
-24.54097926439783
 30
0.0
  0
VERTEX
  5
B8
  8
LAYER_1
 10
-39.29847189020327
 20
-23.78929631506888
 30
0.0
  0
VERTEX
  5
B9
  8
LAYER_1
 10
-39.77972598250658
 20
-23.02919873584584
 30
0.0
  0
VERTEX
  5
BA
  8
LAYER_1
 10
-40.24572655301682
 20
-22.26092117524163
 30
0.0
  0
VERTEX
  5
BB
  8
LAYER_1
 10
-40.69639938678833
 20
-21.48469828176916
 30
0.0
  0
VERTEX
  5
BC
  8
LAYER_1
 10
-41.13167026887547
 20
-20.70076470394135
 30
0.0
  0
VERTEX
  5
BD
  8
LAYER_1
 10
-41.55146498433261
 20
-19.90935509027111
 30
0.0
  0
VERTEX
  5
BE
  8
LAYER_1
 10
-41.9557093182141
 20
-19.11070408927134
 30
0.0
  0
VERTEX
  5
BF
  8
LAYER_1
 10
-42.34432905557429
 20
-18.30504634945498
 30
0.0
  0
VERTEX
  5
C0
  8
LAYER_1
 10
-42.71724998146755
 20
-17.49261651933494
 30
0.0
  0
VERTEX
  5
C1
  8
LAYER_1
 10
-43.07439788094821
 20
-16.67364924742412
 30
0.0
  0
VERTEX
  5
C2
  8
LAYER_1
 10
-43.41569853907065
 20
-15.84837918223544
 30
0.0
  0
VERTEX
  5
C3
  8
LAYER_1
 10
-43.74107774088922
 20
-15.01704097228182
 30
0.0
  0
VERTEX
  5
C4
  8
LAYER_1
 10
-44.05046127145827
 20
-14.17986926607617
 30
0.0
  0
VERTEX
  5
C5
  8
LAYER_1
 10
-44.34377491583217
 20
-13.33709871213141
 30
0.0
  0
VERTEX
  5
C6
  8
LAYER_1
 10
-44.62094445906526
 20
-12.48896395896045
 30
0.0
  0
VERTEX
  5
C7
  8
LAYER_1
 10
-44.8818956862119
 20
-11.6356996550762
 30
0.0
  0
VERTEX
  5
C8
  8
LAYER_1
 10
-45.12655438232645
 20
-10.77754044899158
 30
0.0
  0
VERTEX
  5
C9
  8
LAYER_1
 10
-45.35484633246327
 20
-9.9147209892195
 30
0.0
  0
VERTEX
  5
CA
  8
LAYER_1
 10
-45.5666973216767
 20
-9.047475924272883
 30
0.0
  0
VERTEX
  5
CB
  8
LAYER_1
 10
-45.76203313502111
 20
-8.176039902664634
 30
0.0
  0
VERTEX
  5
CC
  8
LAYER_1
 10
-45.94077955755086
 20
-7.300647572907675
 30
0.0
  0
VERTEX
  5
CD
  8
LAYER_1
 10
-46.1028623743203
 20
-6.421533583514915
 30
0.0
  0
VERTEX
  5
CE
  8
LAYER_1
 10
-46.24820737038378
 20
-5.538932582999271
 30
0.0
  0
VERTEX
  5
CF
  8
LAYER_1
 10
-46.37674033079567
 20
-4.653079219873657
 30
0.0
  0
VERTEX
  5
D0
  8
LAYER_1
 10
-46.48838704061031
 20
-3.764208142650987
 30
0.0
  0
VERTEX
  5
D1
  8
LAYER_1
 10
-46.58307328488206
 20
-2.872553999844175
 30
0.0
  0
VERTEX
  5
D2
  8
LAYER_1
 10
-46.66072484866529
 20
-1.978351439966136
 30
0.0
  0
VERTEX
  5
D3
  8
LAYER_1
 10
-46.72126751701434
 20
-1.081835111529784
 30
0.0
  0
VERTEX
  5
D4
  8
LAYER_1
 10
-46.76462707498357
 20
-0.1832396630480345
 30
0.0
  0
VERTEX
  5
D5
  8
LAYER_1
 10
-46.79072930762734
 20
0.717200256966199
 30
0.0
  0
VERTEX
  5
D6
  8
LAYER_1
 10
-46.7995
 20
1.619250000000002
 30
0.0
  0
VERTEX
  5
D7
  8
LAYER_1
 10
-46.79567107615807
 20
2.224127123734398
 30
0.0
  0
VERTEX
  5
D8
  8
LAYER_1
 10
-46.78421493483847
 20
2.8271661389639
 30
0.0
  0
VERTEX
  5
D9
  8
LAYER_1
 10
-46.76517752135052
 20
3.428321100379201
 30
0.0
  0
VERTEX
  5
DA
  8
LAYER_1
 10
-46.73860478100352
 20
4.027546062670994
 30
0.0
  0
VERTEX
  5
DB
  8
LAYER_1
 10
-46.70454265910676
 20
4.624795080529969
 30
0.0
  0
VERTEX
  5
DC
  8
LAYER_1
 10
-46.66303710096958
 20
5.220022208646822
 30
0.0
  0
VERTEX
  5
DD
  8
LAYER_1
 10
-46.55787945721114
 20
6.404227014416922
 30
0.0
  0
VERTEX
  5
DE
  8
LAYER_1
 10
-46.42349941220266
 20
7.579792917506833
 30
0.0
  0
VERTEX
  5
DF
  8
LAYER_1
 10
-46.26026452841859
 20
8.746352355442093
 30
0.0
  0
VERTEX
  5
E0
  8
LAYER_1
 10
-46.0685423683334
 20
9.903537765748242
 30
0.0
  0
VERTEX
  5
E1
  8
LAYER_1
 10
-45.84870049442155
 20
11.05098158595082
 30
0.0
  0
VERTEX
  5
E2
  8
LAYER_1
 10
-45.60110646915751
 20
12.18831625357535
 30
0.0
  0
VERTEX
  5
E3
  8
LAYER_1
 10
-45.32612785501573
 20
13.31517420614739
 30
0.0
  0
VERTEX
  5
E4
  8
LAYER_1
 10
-45.02413221447067
 20
14.43118788119247
 30
0.0
  0
VERTEX
  5
E5
  8
LAYER_1
 10
-44.6954871099968
 20
15.53598971623613
 30
0.0
  0
VERTEX
  5
E6
  8
LAYER_1
 10
-44.34056010406859
 20
16.62921214880391
 30
0.0
  0
VERTEX
  5
E7
  8
LAYER_1
 10
-43.95971875916048
 20
17.71048761642134
 30
0.0
  0
VERTEX
  5
E8
  8
LAYER_1
 10
-43.55333063774695
 20
18.77944855661396
 30
0.0
  0
VERTEX
  5
E9
  8
LAYER_1
 10
-43.12176330230245
 20
19.83572740690732
 30
0.0
  0
VERTEX
  5
EA
  8
LAYER_1
 10
-42.66538431530144
 20
20.87895660482695
 30
0.0
  0
VERTEX
  5
EB
  8
LAYER_1
 10
-42.1845612392184
 20
21.90876858789839
 30
0.0
  0
VERTEX
  5
EC
  8
LAYER_1
 10
-41.67966163652777
 20
22.92479579364717
 30
0.0
  0
VERTEX
  5
ED
  8
LAYER_1
 10
-41.15105306970402
 20
23.92667065959884
 30
0.0
  0
VERTEX
  5
EE
  8
LAYER_1
 10
-40.59910310122162
 20
24.91402562327893
 30
0.0
  0
VERTEX
  5
EF
  8
LAYER_1
 10
-40.02417929355502
 20
25.88649312221298
 30
0.0
  0
VERTEX
  5
F0
  8
LAYER_1
 10
-39.42664920917869
 20
26.84370559392654
 30
0.0
  0
VERTEX
  5
F1
  8
LAYER_1
 10
-38.80688041056708
 20
27.78529547594513
 30
0.0
  0
VERTEX
  5
F2
  8
LAYER_1
 10
-38.16524046019467
 20
28.7108952057943
 30
0.0
  0
VERTEX
  5
F3
  8
LAYER_1
 10
-37.5020969205359
 20
29.62013722099958
 30
0.0
  0
VERTEX
  5
F4
  8
LAYER_1
 10
-36.81781735406524
 20
30.51265395908652
 30
0.0
  0
VERTEX
  5
F5
  8
LAYER_1
 10
-36.11276932325717
 20
31.38807785758065
 30
0.0
  0
VERTEX
  5
F6
  8
LAYER_1
 10
-35.38732039058613
 20
32.24604135400752
 30
0.0
  0
VERTEX
  5
F7
  8
LAYER_1
 10
-34.64183811852659
 20
33.08617688589264
 30
0.0
  0
VERTEX
  5
F8
  8
LAYER_1
 10
-33.87669006955301
 20
33.90811689076158
 30
0.0
  0
VERTEX
  5
F9
  8
LAYER_1
 10
-33.09224380613984
 20
34.71149380613985
 30
0.0
  0
VERTEX
  5
FA
  8
LAYER_1
 10
-32.28886689076157
 20
35.49594006955301
 30
0.0
  0
VERTEX
  5
FB
  8
LAYER_1
 10
-31.46692688589263
 20
36.26108811852659
 30
0.0
  0
VERTEX
  5
FC
  8
LAYER_1
 10
-30.6267913540075
 20
37.00657039058613
 30
0.0
  0
VERTEX
  5
FD
  8
LAYER_1
 10
-29.76882785758065
 20
37.73201932325718
 30
0.0
  0
VERTEX
  5
FE
  8
LAYER_1
 10
-28.89340395908652
 20
38.43706735406525
 30
0.0
  0
VERTEX
  5
FF
  8
LAYER_1
 10
-28.00088722099958
 20
39.12134692053591
 30
0.0
  0
VERTEX
  5
100
  8
LAYER_1
 10
-27.09164520579429
 20
39.78449046019468
 30
0.0
  0
VERTEX
  5
101
  8
LAYER_1
 10
-26.16604547594513
 20
40.42613041056709
 30
0.0
  0
VERTEX
  5
102
  8
LAYER_1
 10
-25.22445559392653
 20
41.0458992091787
 30
0.0
  0
VERTEX
  5
103
  8
LAYER_1
 10
-24.26724312221297
 20
41.64342929355503
 30
0.0
  0
VERTEX
  5
104
  8
LAYER_1
 10
-23.29477562327892
 20
42.21835310122162
 30
0.0
  0
VERTEX
  5
105
  8
LAYER_1
 10
-22.30742065959883
 20
42.77030306970403
 30
0.0
  0
VERTEX
  5
106
  8
LAYER_1
 10
-21.30554579364716
 20
43.29891163652776
 30
0.0
  0
VERTEX
  5
107
  8
LAYER_1
 10
-20.28951858789838
 20
43.80381123921839
 30
0.0
  0
VERTEX
  5
108
  8
LAYER_1
 10
-19.25970660482695
 20
44.28463431530145
 30
0.0
  0
VERTEX
  5
109
  8
LAYER_1
 10
-18.21647740690732
 20
44.74101330230245
 30
0.0
  0
VERTEX
  5
10A
  8
LAYER_1
 10
-17.16019855661396
 20
45.17258063774695
 30
0.0
  0
VERTEX
  5
10B
  8
LAYER_1
 10
-16.09123761642133
 20
45.57896875916048
 30
0.0
  0
VERTEX
  5
10C
  8
LAYER_1
 10
-15.0099621488039
 20
45.95981010406859
 30
0.0
  0
VERTEX
  5
10D
  8
LAYER_1
 10
-13.91673971623613
 20
46.31473710999681
 30
0.0
  0
VERTEX
  5
10E
  8
LAYER_1
 10
-12.81193788119247
 20
46.64338221447068
 30
0.0
  0
VERTEX
  5
10F
  8
LAYER_1
 10
-11.69592420614739
 20
46.94537785501573
 30
0.0
  0
VERTEX
  5
110
  8
LAYER_1
 10
-10.56906625357535
 20
47.22035646915751
 30
0.0
  0
VERTEX
  5
111
  8
LAYER_1
 10
-9.43173158595081
 20
47.46795049442155
 30
0.0
  0
VERTEX
  5
112
  8
LAYER_1
 10
-8.284287765748237
 20
47.6877923683334
 30
0.0
  0
VERTEX
  5
113
  8
LAYER_1
 10
-7.127102355442091
 20
47.87951452841859
 30
0.0
  0
VERTEX
  5
114
  8
LAYER_1
 10
-5.960542917506831
 20
48.04274941220265
 30
0.0
  0
VERTEX
  5
115
  8
LAYER_1
 10
-4.78497701441692
 20
48.17712945721114
 30
0.0
  0
VERTEX
  5
116
  8
LAYER_1
 10
-4.193931501712239
 20
48.23338405190127
 30
0.0
  0
VERTEX
  5
117
  8
LAYER_1
 10
-3.600772208646819
 20
48.28228710096957
 30
0.0
  0
VERTEX
  5
118
  8
LAYER_1
 10
-3.005545080529967
 20
48.32379265910676
 30
0.0
  0
VERTEX
  5
119
  8
LAYER_1
 10
-2.408296062670991
 20
48.35785478100351
 30
0.0
  0
VERTEX
  5
11A
  8
LAYER_1
 10
-1.809071100379199
 20
48.38442752135051
 30
0.0
  0
VERTEX
  5
11B
  8
LAYER_1
 10
-1.207916138963898
 20
48.40346493483847
 30
0.0
  0
VERTEX
  5
11C
  8
LAYER_1
 10
-0.6048771237343955
 20
48.41492107615807
 30
0.0
  0
SEQEND
  5
11D
  8
LAYER_1
  0
POLYLINE
  5
42
  8
LAYER_1
 66
     1
 10
0.0
 20
0.0
 30
0.0
 70
     1
  0
VERTEX
  5
11E
  8
LAYER_1
 10
0.0
 20
33.95345000000001
 30
0.0
  0
VERTEX
  5
11F
  8
LAYER_1
 10
-0.8345602414659654
 20
33.94288940952477
 30
0.0
  0
VERTEX
  5
120
  8
LAYER_1
 10
-1.663913643299957
 20
33.91137693960243
 30
0.0
  0
VERTEX
  5
121
  8
LAYER_1
 10
-2.487806253246893
 20
33.85916654248808
 30
0.0
  0
VERTEX
  5
122
  8
LAYER_1
 10
-3.305984119051689
 20
33.78651217043679
 30
0.0
  0
VERTEX
  5
123
  8
LAYER_1
 10
-4.118193288459263
 20
33.69366777570366
 30
0.0
  0
VERTEX
  5
124
  8
LAYER_1
 10
-4.924179809214534
 20
33.58088731054376
 30
0.0
  0
VERTEX
  5
125
  8
LAYER_1
 10
-5.723689729062418
 20
33.44842472721217
 30
0.0
  0
VERTEX
  5
126
  8
LAYER_1
 10
-6.516469095747832
 20
33.29653397796399
 30
0.0
  0
VERTEX
  5
127
  8
LAYER_1
 10
-7.302263957015693
 20
33.12546901505429
 30
0.0
  0
VERTEX
  5
128
  8
LAYER_1
 10
-8.08082036061092
 20
32.93548379073815
 30
0.0
  0
VERTEX
  5
129
  8
LAYER_1
 10
-8.85188435427843
 20
32.72683225727065
 30
0.0
  0
VERTEX
  5
12A
  8
LAYER_1
 10
-9.61520198576314
 20
32.49976836690689
 30
0.0
  0
VERTEX
  5
12B
  8
LAYER_1
 10
-10.37051930280997
 20
32.25454607190194
 30
0.0
  0
VERTEX
  5
12C
  8
LAYER_1
 10
-11.11758235316383
 20
31.99141932451089
 30
0.0
  0
VERTEX
  5
12D
  8
LAYER_1
 10
-11.85613718456964
 20
31.7106420769888
 30
0.0
  0
VERTEX
  5
12E
  8
LAYER_1
 10
-12.58592984477233
 20
31.41246828159079
 30
0.0
  0
VERTEX
  5
12F
  8
LAYER_1
 10
-13.3067063815168
 20
31.09715189057191
 30
0.0
  0
VERTEX
  5
130
  8
LAYER_1
 10
-14.01821284254797
 20
30.76494685618726
 30
0.0
  0
VERTEX
  5
131
  8
LAYER_1
 10
-14.72019527561077
 20
30.41610713069192
 30
0.0
  0
VERTEX
  5
132
  8
LAYER_1
 10
-15.4123997284501
 20
30.05088666634096
 30
0.0
  0
VERTEX
  5
133
  8
LAYER_1
 10
-16.09457224881089
 20
29.66953941538948
 30
0.0
  0
VERTEX
  5
134
  8
LAYER_1
 10
-16.76645888443806
 20
29.27231933009256
 30
0.0
  0
VERTEX
  5
135
  8
LAYER_1
 10
-17.42780568307651
 20
28.85948036270527
 30
0.0
  0
VERTEX
  5
136
  8
LAYER_1
 10
-18.07835869247118
 20
28.43127646548271
 30
0.0
  0
VERTEX
  5
137
  8
LAYER_1
 10
-18.71786396036697
 20
27.98796159067995
 30
0.0
  0
VERTEX
  5
138
  8
LAYER_1
 10
-19.3460675345088
 20
27.52978969055208
 30
0.0
  0
VERTEX
  5
139
  8
LAYER_1
 10
-19.96271546264159
 20
27.05701471735417
 30
0.0
  0
VERTEX
  5
13A
  8
LAYER_1
 10
-20.56755379251026
 20
26.56989062334132
 30
0.0
  0
VERTEX
  5
13B
  8
LAYER_1
 10
-21.16032857185972
 20
26.0686713607686
 30
0.0
  0
VERTEX
  5
13C
  8
LAYER_1
 10
-21.7407858484349
 20
25.5536108818911
 30
0.0
  0
VERTEX
  5
13D
  8
LAYER_1
 10
-22.30867166998071
 20
25.02496313896389
 30
0.0
  0
VERTEX
  5
13E
  8
LAYER_1
 10
-22.86373208424207
 20
24.48298208424207
 30
0.0
  0
VERTEX
  5
13F
  8
LAYER_1
 10
-23.40571313896389
 20
23.92792166998071
 30
0.0
  0
VERTEX
  5
140
  8
LAYER_1
 10
-23.9343608818911
 20
23.3600358484349
 30
0.0
  0
VERTEX
  5
141
  8
LAYER_1
 10
-24.4494213607686
 20
22.77957857185972
 30
0.0
  0
VERTEX
  5
142
  8
LAYER_1
 10
-24.95064062334131
 20
22.18680379251026
 30
0.0
  0
VERTEX
  5
143
  8
LAYER_1
 10
-25.43776471735417
 20
21.58196546264159
 30
0.0
  0
VERTEX
  5
144
  8
LAYER_1
 10
-25.91053969055207
 20
20.9653175345088
 30
0.0
  0
VERTEX
  5
145
  8
LAYER_1
 10
-26.36871159067995
 20
20.33711396036697
 30
0.0
  0
VERTEX
  5
146
  8
LAYER_1
 10
-26.81202646548271
 20
19.69760869247118
 30
0.0
  0
VERTEX
  5
147
  8
LAYER_1
 10
-27.24023036270527
 20
19.04705568307651
 30
0.0
  0
VERTEX
  5
148
  8
LAYER_1
 10
-27.65306933009256
 20
18.38570888443806
 30
0.0
  0
VERTEX
  5
149
  8
LAYER_1
 10
-28.05028941538948
 20
17.7138222488109
 30
0.0
  0
VERTEX
  5
14A
  8
LAYER_1
 10
-28.43163666634096
 20
17.0316497284501
 30
0.0
  0
VERTEX
  5
14B
  8
LAYER_1
 10
-28.79685713069192
 20
16.33944527561076
 30
0.0
  0
VERTEX
  5
14C
  8
LAYER_1
 10
-29.14569685618726
 20
15.63746284254797
 30
0.0
  0
VERTEX
  5
14D
  8
LAYER_1
 10
-29.47790189057191
 20
14.9259563815168
 30
0.0
  0
VERTEX
  5
14E
  8
LAYER_1
 10
-29.79321828159078
 20
14.20517984477233
 30
0.0
  0
VERTEX
  5
14F
  8
LAYER_1
 10
-30.0913920769888
 20
13.47538718456964
 30
0.0
  0
VERTEX
  5
150
  8
LAYER_1
 10
-30.37216932451088
 20
12.73683235316383
 30
0.0
  0
VERTEX
  5
151
  8
LAYER_1
 10
-30.63529607190193
 20
11.98976930280997
 30
0.0
  0
VERTEX
  5
152
  8
LAYER_1
 10
-30.88051836690688
 20
11.23445198576314
 30
0.0
  0
VERTEX
  5
153
  8
LAYER_1
 10
-31.10758225727064
 20
10.47113435427843
 30
0.0
  0
VERTEX
  5
154
  8
LAYER_1
 10
-31.31623379073814
 20
9.700070360610923
 30
0.0
  0
VERTEX
  5
155
  8
LAYER_1
 10
-31.50621901505428
 20
8.921513957015696
 30
0.0
  0
VERTEX
  5
156
  8
LAYER_1
 10
-31.67728397796398
 20
8.135719095747834
 30
0.0
  0
VERTEX
  5
157
  8
LAYER_1
 10
-31.82917472721217
 20
7.342939729062421
 30
0.0
  0
VERTEX
  5
158
  8
LAYER_1
 10
-31.96163731054376
 20
6.543429809214537
 30
0.0
  0
VERTEX
  5
159
  8
LAYER_1
 10
-32.07441777570365
 20
5.737443288459266
 30
0.0
  0
VERTEX
  5
15A
  8
LAYER_1
 10
-32.16726217043679
 20
4.925234119051691
 30
0.0
  0
VERTEX
  5
15B
  8
LAYER_1
 10
-32.23991654248807
 20
4.107056253246895
 30
0.0
  0
VERTEX
  5
15C
  8
LAYER_1
 10
-32.29212693960243
 20
3.283163643299959
 30
0.0
  0
VERTEX
  5
15D
  8
LAYER_1
 10
-32.32363940952477
 20
2.453810241465967
 30
0.0
  0
VERTEX
  5
15E
  8
LAYER_1
 10
-32.33420000000001
 20
1.619250000000002
 30
0.0
  0
VERTEX
  5
15F
  8
LAYER_1
 10
-32.32363940952477
 20
0.7846897585340361
 30
0.0
  0
VERTEX
  5
160
  8
LAYER_1
 10
-32.29212693960243
 20
-0.0446636432999558
 30
0.0
  0
VERTEX
  5
161
  8
LAYER_1
 10
-32.23991654248807
 20
-0.8685562532468913
 30
0.0
  0
VERTEX
  5
162
  8
LAYER_1
 10
-32.16726217043679
 20
-1.686734119051688
 30
0.0
  0
VERTEX
  5
163
  8
LAYER_1
 10
-32.07441777570365
 20
-2.498943288459263
 30
0.0
  0
VERTEX
  5
164
  8
LAYER_1
 10
-31.96163731054376
 20
-3.304929809214533
 30
0.0
  0
VERTEX
  5
165
  8
LAYER_1
 10
-31.82917472721217
 20
-4.104439729062417
 30
0.0
  0
VERTEX
  5
166
  8
LAYER_1
 10
-31.67728397796398
 20
-4.897219095747831
 30
0.0
  0
VERTEX
  5
167
  8
LAYER_1
 10
-31.50621901505428
 20
-5.683013957015692
 30
0.0
  0
VERTEX
  5
168
  8
LAYER_1
 10
-31.31623379073814
 20
-6.46157036061092
 30
0.0
  0
VERTEX
  5
169
  8
LAYER_1
 10
-31.10758225727064
 20
-7.23263435427843
 30
0.0
  0
VERTEX
  5
16A
  8
LAYER_1
 10
-30.88051836690688
 20
-7.995951985763138
 30
0.0
  0
VERTEX
  5
16B
  8
LAYER_1
 10
-30.63529607190193
 20
-8.751269302809964
 30
0.0
  0
VERTEX
  5
16C
  8
LAYER_1
 10
-30.37216932451088
 20
-9.498332353163827
 30
0.0
  0
VERTEX
  5
16D
  8
LAYER_1
 10
-30.0913920769888
 20
-10.23688718456964
 30
0.0
  0
VERTEX
  5
16E
  8
LAYER_1
 10
-29.79321828159078
 20
-10.96667984477232
 30
0.0
  0
VERTEX
  5
16F
  8
LAYER_1
 10
-29.47790189057191
 20
-11.68745638151679
 30
0.0
  0
VERTEX
  5
170
  8
LAYER_1
 10
-29.14569685618726
 20
-12.39896284254797
 30
0.0
  0
VERTEX
  5
171
  8
LAYER_1
 10
-28.79685713069192
 20
-13.10094527561076
 30
0.0
  0
VERTEX
  5
172
  8
LAYER_1
 10
-28.43163666634096
 20
-13.7931497284501
 30
0.0
  0
VERTEX
  5
173
  8
LAYER_1
 10
-28.05028941538948
 20
-14.47532224881089
 30
0.0
  0
VERTEX
  5
174
  8
LAYER_1
 10
-27.65306933009256
 20
-15.14720888443805
 30
0.0
  0
VERTEX
  5
175
  8
LAYER_1
 10
-27.24023036270527
 20
-15.80855568307651
 30
0.0
  0
VERTEX
  5
176
  8
LAYER_1
 10
-26.81202646548271
 20
-16.45910869247118
 30
0.0
  0
VERTEX
  5
177
  8
LAYER_1
 10
-26.36871159067995
 20
-17.09861396036697
 30
0.0
  0
VERTEX
  5
178
  8
LAYER_1
 10
-25.91053969055207
 20
-17.7268175345088
 30
0.0
  0
VERTEX
  5
179
  8
LAYER_1
 10
-25.43776471735417
 20
-18.34346546264159
 30
0.0
  0
VERTEX
  5
17A
  8
LAYER_1
 10
-24.95064062334131
 20
-18.94830379251026
 30
0.0
  0
VERTEX
  5
17B
  8
LAYER_1
 10
-24.4494213607686
 20
-19.54107857185972
 30
0.0
  0
VERTEX
  5
17C
  8
LAYER_1
 10
-23.9343608818911
 20
-20.1215358484349
 30
0.0
  0
VERTEX
  5
17D
  8
LAYER_1
 10
-23.40571313896389
 20
-20.68942166998071
 30
0.0
  0
VERTEX
  5
17E
  8
LAYER_1
 10
-22.86373208424207
 20
-21.24448208424207
 30
0.0
  0
VERTEX
  5
17F
  8
LAYER_1
 10
-22.30867166998071
 20
-21.78646313896389
 30
0.0
  0
VERTEX
  5
180
  8
LAYER_1
 10
-21.7407858484349
 20
-22.31511088189109
 30
0.0
  0
VERTEX
  5
181
  8
LAYER_1
 10
-21.16032857185972
 20
-22.8301713607686
 30
0.0
  0
VERTEX
  5
182
  8
LAYER_1
 10
-20.56755379251026
 20
-23.33139062334131
 30
0.0
  0
VERTEX
  5
183
  8
LAYER_1
 10
-19.96271546264159
 20
-23.81851471735417
 30
0.0
  0
VERTEX
  5
184
  8
LAYER_1
 10
-19.3460675345088
 20
-24.29128969055207
 30
0.0
  0
VERTEX
  5
185
  8
LAYER_1
 10
-18.71786396036697
 20
-24.74946159067995
 30
0.0
  0
VERTEX
  5
186
  8
LAYER_1
 10
-18.07835869247118
 20
-25.19277646548271
 30
0.0
  0
VERTEX
  5
187
  8
LAYER_1
 10
-17.42780568307651
 20
-25.62098036270527
 30
0.0
  0
VERTEX
  5
188
  8
LAYER_1
 10
-16.76645888443806
 20
-26.03381933009256
 30
0.0
  0
VERTEX
  5
189
  8
LAYER_1
 10
-16.09457224881089
 20
-26.43103941538948
 30
0.0
  0
VERTEX
  5
18A
  8
LAYER_1
 10
-15.4123997284501
 20
-26.81238666634096
 30
0.0
  0
VERTEX
  5
18B
  8
LAYER_1
 10
-14.72019527561077
 20
-27.17760713069191
 30
0.0
  0
VERTEX
  5
18C
  8
LAYER_1
 10
-14.01821284254797
 20
-27.52644685618726
 30
0.0
  0
VERTEX
  5
18D
  8
LAYER_1
 10
-13.3067063815168
 20
-27.85865189057191
 30
0.0
  0
VERTEX
  5
18E
  8
LAYER_1
 10
-12.58592984477233
 20
-28.17396828159078
 30
0.0
  0
VERTEX
  5
18F
  8
LAYER_1
 10
-11.85613718456964
 20
-28.4721420769888
 30
0.0
  0
VERTEX
  5
190
  8
LAYER_1
 10
-11.11758235316383
 20
-28.75291932451088
 30
0.0
  0
VERTEX
  5
191
  8
LAYER_1
 10
-10.37051930280997
 20
-29.01604607190193
 30
0.0
  0
VERTEX
  5
192
  8
LAYER_1
 10
-9.61520198576314
 20
-29.26126836690688
 30
0.0
  0
VERTEX
  5
193
  8
LAYER_1
 10
-8.85188435427843
 20
-29.48833225727064
 30
0.0
  0
VERTEX
  5
194
  8
LAYER_1
 10
-8.08082036061092
 20
-29.69698379073814
 30
0.0
  0
VERTEX
  5
195
  8
LAYER_1
 10
-7.302263957015693
 20
-29.88696901505428
 30
0.0
  0
VERTEX
  5
196
  8
LAYER_1
 10
-6.516469095747832
 20
-30.05803397796398
 30
0.0
  0
VERTEX
  5
197
  8
LAYER_1
 10
-5.723689729062418
 20
-30.20992472721217
 30
0.0
  0
VERTEX
  5
198
  8
LAYER_1
 10
-4.924179809214534
 20
-30.34238731054376
 30
0.0
  0
VERTEX
  5
199
  8
LAYER_1
 10
-4.118193288459263
 20
-30.45516777570366
 30
0.0
  0
VERTEX
  5
19A
  8
LAYER_1
 10
-3.305984119051689
 20
-30.54801217043679
 30
0.0
  0
VERTEX
  5
19B
  8
LAYER_1
 10
-2.487806253246893
 20
-30.62066654248807
 30
0.0
  0
VERTEX
  5
19C
  8
LAYER_1
 10
-1.663913643299957
 20
-30.67287693960242
 30
0.0
  0
VERTEX
  5
19D
  8
LAYER_1
 10
-0.8345602414659654
 20
-30.70438940952477
 30
0.0
  0
VERTEX
  5
19E
  8
LAYER_1
 10
0.0
 20
-30.71495000000001
 30
0.0
  0
VERTEX
  5
19F
  8
LAYER_1
 10
0.8345602414659654
 20
-30.70438940952477
 30
0.0
  0
VERTEX
  5
1A0
  8
LAYER_1
 10
1.663913643299957
 20
-30.67287693960242
 30
0.0
  0
VERTEX
  5
1A1
  8
LAYER_1
 10
2.487806253246893
 20
-30.62066654248807
 30
0.0
  0
VERTEX
  5
1A2
  8
LAYER_1
 10
3.305984119051689
 20
-30.54801217043679
 30
0.0
  0
VERTEX
  5
1A3
  8
LAYER_1
 10
4.118193288459263
 20
-30.45516777570366
 30
0.0
  0
VERTEX
  5
1A4
  8
LAYER_1
 10
4.924179809214534
 20
-30.34238731054376
 30
0.0
  0
VERTEX
  5
1A5
  8
LAYER_1
 10
5.723689729062418
 20
-30.20992472721217
 30
0.0
  0
VERTEX
  5
1A6
  8
LAYER_1
 10
6.516469095747832
 20
-30.05803397796398
 30
0.0
  0
VERTEX
  5
1A7
  8
LAYER_1
 10
7.302263957015693
 20
-29.88696901505428
 30
0.0
  0
VERTEX
  5
1A8
  8
LAYER_1
 10
8.08082036061092
 20
-29.69698379073814
 30
0.0
  0
VERTEX
  5
1A9
  8
LAYER_1
 10
8.85188435427843
 20
-29.48833225727064
 30
0.0
  0
VERTEX
  5
1AA
  8
LAYER_1
 10
9.61520198576314
 20
-29.26126836690688
 30
0.0
  0
VERTEX
  5
1AB
  8
LAYER_1
 10
10.37051930280997
 20
-29.01604607190193
 30
0.0
  0
VERTEX
  5
1AC
  8
LAYER_1
 10
11.11758235316383
 20
-28.75291932451088
 30
0.0
  0
VERTEX
  5
1AD
  8
LAYER_1
 10
11.85613718456964
 20
-28.4721420769888
 30
0.0
  0
VERTEX
  5
1AE
  8
LAYER_1
 10
12.58592984477233
 20
-28.17396828159078
 30
0.0
  0
VERTEX
  5
1AF
  8
LAYER_1
 10
13.3067063815168
 20
-27.85865189057191
 30
0.0
  0
VERTEX
  5
1B0
  8
LAYER_1
 10
14.01821284254797
 20
-27.52644685618726
 30
0.0
  0
VERTEX
  5
1B1
  8
LAYER_1
 10
14.72019527561077
 20
-27.17760713069191
 30
0.0
  0
VERTEX
  5
1B2
  8
LAYER_1
 10
15.4123997284501
 20
-26.81238666634096
 30
0.0
  0
VERTEX
  5
1B3
  8
LAYER_1
 10
16.09457224881089
 20
-26.43103941538948
 30
0.0
  0
VERTEX
  5
1B4
  8
LAYER_1
 10
16.76645888443806
 20
-26.03381933009256
 30
0.0
  0
VERTEX
  5
1B5
  8
LAYER_1
 10
17.42780568307651
 20
-25.62098036270527
 30
0.0
  0
VERTEX
  5
1B6
  8
LAYER_1
 10
18.07835869247118
 20
-25.19277646548271
 30
0.0
  0
VERTEX
  5
1B7
  8
LAYER_1
 10
18.71786396036697
 20
-24.74946159067995
 30
0.0
  0
VERTEX
  5
1B8
  8
LAYER_1
 10
19.3460675345088
 20
-24.29128969055207
 30
0.0
  0
VERTEX
  5
1B9
  8
LAYER_1
 10
19.96271546264159
 20
-23.81851471735417
 30
0.0
  0
VERTEX
  5
1BA
  8
LAYER_1
 10
20.56755379251026
 20
-23.33139062334131
 30
0.0
  0
VERTEX
  5
1BB
  8
LAYER_1
 10
21.16032857185972
 20
-22.8301713607686
 30
0.0
  0
VERTEX
  5
1BC
  8
LAYER_1
 10
21.7407858484349
 20
-22.31511088189109
 30
0.0
  0
VERTEX
  5
1BD
  8
LAYER_1
 10
22.30867166998071
 20
-21.78646313896389
 30
0.0
  0
VERTEX
  5
1BE
  8
LAYER_1
 10
22.86373208424207
 20
-21.24448208424207
 30
0.0
  0
VERTEX
  5
1BF
  8
LAYER_1
 10
23.40571313896389
 20
-20.68942166998071
 30
0.0
  0
VERTEX
  5
1C0
  8
LAYER_1
 10
23.9343608818911
 20
-20.1215358484349
 30
0.0
  0
VERTEX
  5
1C1
  8
LAYER_1
 10
24.4494213607686
 20
-19.54107857185972
 30
0.0
  0
VERTEX
  5
1C2
  8
LAYER_1
 10
24.95064062334131
 20
-18.94830379251026
 30
0.0
  0
VERTEX
  5
1C3
  8
LAYER_1
 10
25.43776471735417
 20
-18.34346546264159
 30
0.0
  0
VERTEX
  5
1C4
  8
LAYER_1
 10
25.91053969055207
 20
-17.7268175345088
 30
0.0
  0
VERTEX
  5
1C5
  8
LAYER_1
 10
26.36871159067995
 20
-17.09861396036697
 30
0.0
  0
VERTEX
  5
1C6
  8
LAYER_1
 10
26.81202646548271
 20
-16.45910869247118
 30
0.0
  0
VERTEX
  5
1C7
  8
LAYER_1
 10
27.24023036270527
 20
-15.80855568307651
 30
0.0
  0
VERTEX
  5
1C8
  8
LAYER_1
 10
27.65306933009256
 20
-15.14720888443805
 30
0.0
  0
VERTEX
  5
1C9
  8
LAYER_1
 10
28.05028941538948
 20
-14.47532224881089
 30
0.0
  0
VERTEX
  5
1CA
  8
LAYER_1
 10
28.43163666634096
 20
-13.7931497284501
 30
0.0
  0
VERTEX
  5
1CB
  8
LAYER_1
 10
28.79685713069192
 20
-13.10094527561076
 30
0.0
  0
VERTEX
  5
1CC
  8
LAYER_1
 10
29.14569685618726
 20
-12.39896284254797
 30
0.0
  0
VERTEX
  5
1CD
  8
LAYER_1
 10
29.47790189057191
 20
-11.68745638151679
 30
0.0
  0
VERTEX
  5
1CE
  8
LAYER_1
 10
29.79321828159078
 20
-10.96667984477232
 30
0.0
  0
VERTEX
  5
1CF
  8
LAYER_1
 10
30.0913920769888
 20
-10.23688718456964
 30
0.0
  0
VERTEX
  5
1D0
  8
LAYER_1
 10
30.37216932451088
 20
-9.498332353163827
 30
0.0
  0
VERTEX
  5
1D1
  8
LAYER_1
 10
30.63529607190193
 20
-8.751269302809964
 30
0.0
  0
VERTEX
  5
1D2
  8
LAYER_1
 10
30.88051836690688
 20
-7.995951985763138
 30
0.0
  0
VERTEX
  5
1D3
  8
LAYER_1
 10
31.10758225727064
 20
-7.23263435427843
 30
0.0
  0
VERTEX
  5
1D4
  8
LAYER_1
 10
31.31623379073814
 20
-6.46157036061092
 30
0.0
  0
VERTEX
  5
1D5
  8
LAYER_1
 10
31.50621901505428
 20
-5.683013957015692
 30
0.0
  0
VERTEX
  5
1D6
  8
LAYER_1
 10
31.67728397796398
 20
-4.897219095747831
 30
0.0
  0
VERTEX
  5
1D7
  8
LAYER_1
 10
31.82917472721217
 20
-4.104439729062417
 30
0.0
  0
VERTEX
  5
1D8
  8
LAYER_1
 10
31.96163731054376
 20
-3.304929809214533
 30
0.0
  0
VERTEX
  5
1D9
  8
LAYER_1
 10
32.07441777570365
 20
-2.498943288459263
 30
0.0
  0
VERTEX
  5
1DA
  8
LAYER_1
 10
32.16726217043679
 20
-1.686734119051688
 30
0.0
  0
VERTEX
  5
1DB
  8
LAYER_1
 10
32.23991654248807
 20
-0.8685562532468913
 30
0.0
  0
VERTEX
  5
1DC
  8
LAYER_1
 10
32.29212693960243
 20
-0.0446636432999558
 30
0.0
  0
VERTEX
  5
1DD
  8
LAYER_1
 10
32.32363940952477
 20
0.7846897585340361
 30
0.0
  0
VERTEX
  5
1DE
  8
LAYER_1
 10
32.33420000000001
 20
1.619250000000002
 30
0.0
  0
VERTEX
  5
1DF
  8
LAYER_1
 10
32.32363940952477
 20
2.453810241465967
 30
0.0
  0
VERTEX
  5
1E0
  8
LAYER_1
 10
32.29212693960243
 20
3.283163643299959
 30
0.0
  0
VERTEX
  5
1E1
  8
LAYER_1
 10
32.23991654248807
 20
4.107056253246895
 30
0.0
  0
VERTEX
  5
1E2
  8
LAYER_1
 10
32.16726217043679
 20
4.925234119051691
 30
0.0
  0
VERTEX
  5
1E3
  8
LAYER_1
 10
32.07441777570365
 20
5.737443288459266
 30
0.0
  0
VERTEX
  5
1E4
  8
LAYER_1
 10
31.96163731054376
 20
6.543429809214537
 30
0.0
  0
VERTEX
  5
1E5
  8
LAYER_1
 10
31.82917472721217
 20
7.342939729062421
 30
0.0
  0
VERTEX
  5
1E6
  8
LAYER_1
 10
31.67728397796398
 20
8.135719095747834
 30
0.0
  0
VERTEX
  5
1E7
  8
LAYER_1
 10
31.50621901505428
 20
8.921513957015696
 30
0.0
  0
VERTEX
  5
1E8
  8
LAYER_1
 10
31.31623379073814
 20
9.700070360610923
 30
0.0
  0
VERTEX
  5
1E9
  8
LAYER_1
 10
31.10758225727064
 20
10.47113435427843
 30
0.0
  0
VERTEX
  5
1EA
  8
LAYER_1
 10
30.88051836690688
 20
11.23445198576314
 30
0.0
  0
VERTEX
  5
1EB
  8
LAYER_1
 10
30.63529607190193
 20
11.98976930280997
 30
0.0
  0
VERTEX
  5
1EC
  8
LAYER_1
 10
30.37216932451088
 20
12.73683235316383
 30
0.0
  0
VERTEX
  5
1ED
  8
LAYER_1
 10
30.0913920769888
 20
13.47538718456964
 30
0.0
  0
VERTEX
  5
1EE
  8
LAYER_1
 10
29.79321828159078
 20
14.20517984477233
 30
0.0
  0
VERTEX
  5
1EF
  8
LAYER_1
 10
29.47790189057191
 20
14.9259563815168
 30
0.0
  0
VERTEX
  5
1F0
  8
LAYER_1
 10
29.14569685618726
 20
15.63746284254797
 30
0.0
  0
VERTEX
  5
1F1
  8
LAYER_1
 10
28.79685713069192
 20
16.33944527561076
 30
0.0
  0
VERTEX
  5
1F2
  8
LAYER_1
 10
28.43163666634096
 20
17.0316497284501
 30
0.0
  0
VERTEX
  5
1F3
  8
LAYER_1
 10
28.05028941538948
 20
17.7138222488109
 30
0.0
  0
VERTEX
  5
1F4
  8
LAYER_1
 10
27.65306933009256
 20
18.38570888443806
 30
0.0
  0
VERTEX
  5
1F5
  8
LAYER_1
 10
27.24023036270527
 20
19.04705568307651
 30
0.0
  0
VERTEX
  5
1F6
  8
LAYER_1
 10
26.81202646548271
 20
19.69760869247118
 30
0.0
  0
VERTEX
  5
1F7
  8
LAYER_1
 10
26.36871159067995
 20
20.33711396036697
 30
0.0
  0
VERTEX
  5
1F8
  8
LAYER_1
 10
25.91053969055207
 20
20.9653175345088
 30
0.0
  0
VERTEX
  5
1F9
  8
LAYER_1
 10
25.43776471735417
 20
21.58196546264159
 30
0.0
  0
VERTEX
  5
1FA
  8
LAYER_1
 10
24.95064062334131
 20
22.18680379251026
 30
0.0
  0
VERTEX
  5
1FB
  8
LAYER_1
 10
24.4494213607686
 20
22.77957857185972
 30
0.0
  0
VERTEX
  5
1FC
  8
LAYER_1
 10
23.9343608818911
 20
23.3600358484349
 30
0.0
  0
VERTEX
  5
1FD
  8
LAYER_1
 10
23.40571313896389
 20
23.92792166998071
 30
0.0
  0
VERTEX
  5
1FE
  8
LAYER_1
 10
22.86373208424207
 20
24.48298208424207
 30
0.0
  0
VERTEX
  5
1FF
  8
LAYER_1
 10
22.30867166998071
 20
25.02496313896389
 30
0.0
  0
VERTEX
  5
200
  8
LAYER_1
 10
21.7407858484349
 20
25.5536108818911
 30
0.0
  0
VERTEX
  5
201
  8
LAYER_1
 10
21.16032857185972
 20
26.0686713607686
 30
0.0
  0
VERTEX
  5
202
  8
LAYER_1
 10
20.56755379251026
 20
26.56989062334132
 30
0.0
  0
VERTEX
  5
203
  8
LAYER_1
 10
19.96271546264159
 20
27.05701471735417
 30
0.0
  0
VERTEX
  5
204
  8
LAYER_1
 10
19.3460675345088
 20
27.52978969055208
 30
0.0
  0
VERTEX
  5
205
  8
LAYER_1
 10
18.71786396036697
 20
27.98796159067995
 30
0.0
  0
VERTEX
  5
206
  8
LAYER_1
 10
18.07835869247118
 20
28.43127646548271
 30
0.0
  0
VERTEX
  5
207
  8
LAYER_1
 10
17.42780568307651
 20
28.85948036270527
 30
0.0
  0
VERTEX
  5
208
  8
LAYER_1
 10
16.76645888443806
 20
29.27231933009256
 30
0.0
  0
VERTEX
  5
209
  8
LAYER_1
 10
16.09457224881089
 20
29.66953941538948
 30
0.0
  0
VERTEX
  5
20A
  8
LAYER_1
 10
15.4123997284501
 20
30.05088666634096
 30
0.0
  0
VERTEX
  5
20B
  8
LAYER_1
 10
14.72019527561077
 20
30.41610713069192
 30
0.0
  0
VERTEX
  5
20C
  8
LAYER_1
 10
14.01821284254797
 20
30.76494685618726
 30
0.0
  0
VERTEX
  5
20D
  8
LAYER_1
 10
13.3067063815168
 20
31.09715189057191
 30
0.0
  0
VERTEX
  5
20E
  8
LAYER_1
 10
12.58592984477233
 20
31.41246828159079
 30
0.0
  0
VERTEX
  5
20F
  8
LAYER_1
 10
11.85613718456964
 20
31.7106420769888
 30
0.0
  0
VERTEX
  5
210
  8
LAYER_1
 10
11.11758235316383
 20
31.99141932451089
 30
0.0
  0
VERTEX
  5
211
  8
LAYER_1
 10
10.37051930280997
 20
32.25454607190194
 30
0.0
  0
VERTEX
  5
212
  8
LAYER_1
 10
9.61520198576314
 20
32.49976836690689
 30
0.0
  0
VERTEX
  5
213
  8
LAYER_1
 10
8.85188435427843
 20
32.72683225727065
 30
0.0
  0
VERTEX
  5
214
  8
LAYER_1
 10
8.08082036061092
 20
32.93548379073815
 30
0.0
  0
VERTEX
  5
215
  8
LAYER_1
 10
7.302263957015693
 20
33.12546901505429
 30
0.0
  0
VERTEX
  5
216
  8
LAYER_1
 10
6.516469095747832
 20
33.29653397796399
 30
0.0
  0
VERTEX
  5
217
  8
LAYER_1
 10
5.723689729062418
 20
33.44842472721217
 30
0.0
  0
VERTEX
  5
218
  8
LAYER_1
 10
4.924179809214534
 20
33.58088731054376
 30
0.0
  0
VERTEX
  5
219
  8
LAYER_1
 10
4.118193288459263
 20
33.69366777570366
 30
0.0
  0
VERTEX
  5
21A
  8
LAYER_1
 10
3.305984119051689
 20
33.78651217043679
 30
0.0
  0
VERTEX
  5
21B
  8
LAYER_1
 10
2.487806253246893
 20
33.85916654248808
 30
0.0
  0
VERTEX
  5
21C
  8
LAYER_1
 10
1.663913643299957
 20
33.91137693960243
 30
0.0
  0
VERTEX
  5
21D
  8
LAYER_1
 10
0.8345602414659654
 20
33.94288940952477
 30
0.0
  0
SEQEND
  5
21E
  8
LAYER_1
  0
POLYLINE
  5
43
  8
LAYER_1
 66
     1
 10
0.0
 20
0.0
 30
0.0
 70
     1
  0
VERTEX
  5
21F
  8
LAYER_1
 10
29.54222406730475
 20
29.52077512498037
 30
0.0
  0
VERTEX
  5
220
  8
LAYER_1
 10
29.37541289918939
 20
29.67165970309735
 30
0.0
  0
VERTEX
  5
221
  8
LAYER_1
 10
29.19766159393519
 20
29.80243838749328
 30
0.0
  0
VERTEX
  5
222
  8
LAYER_1
 10
29.01053198499484
 20
29.91311061098267
 30
0.0
  0
VERTEX
  5
223
  8
LAYER_1
 10
28.81558590582102
 20
30.00367580638005
 30
0.0
  0
VERTEX
  5
224
  8
LAYER_1
 10
28.61438518986643
 20
30.07413340649994
 30
0.0
  0
VERTEX
  5
225
  8
LAYER_1
 10
28.40849167058374
 20
30.12448284415686
 30
0.0
  0
VERTEX
  5
226
  8
LAYER_1
 10
28.19946718142563
 20
30.15472355216531
 30
0.0
  0
VERTEX
  5
227
  8
LAYER_1
 10
27.9888735558448
 20
30.16485496333983
 30
0.0
  0
VERTEX
  5
228
  8
LAYER_1
 10
27.77827262729394
 20
30.15487651049494
 30
0.0
  0
VERTEX
  5
229
  8
LAYER_1
 10
27.56922622922572
 20
30.12478762644513
 30
0.0
  0
VERTEX
  5
22A
  8
LAYER_1
 10
27.36329619509283
 20
30.07458774400495
 30
0.0
  0
VERTEX
  5
22B
  8
LAYER_1
 10
27.16204435834796
 20
30.0042762959889
 30
0.0
  0
VERTEX
  5
22C
  8
LAYER_1
 10
26.9670325524438
 20
29.91385271521151
 30
0.0
  0
VERTEX
  5
22D
  8
LAYER_1
 10
26.77982261083302
 20
29.80331643448728
 30
0.0
  0
VERTEX
  5
22E
  8
LAYER_1
 10
26.60197636696831
 20
29.67266688663075
 30
0.0
  0
VERTEX
  5
22F
  8
LAYER_1
 10
26.43505565430237
 20
29.52190350445642
 30
0.0
  0
VERTEX
  5
230
  8
LAYER_1
 10
26.28417107618539
 20
29.35509233634106
 30
0.0
  0
VERTEX
  5
231
  8
LAYER_1
 10
26.15339239178947
 20
29.17734103108686
 30
0.0
  0
VERTEX
  5
232
  8
LAYER_1
 10
26.04272016830007
 20
28.99021142214651
 30
0.0
  0
VERTEX
  5
233
  8
LAYER_1
 10
25.95215497290269
 20
28.79526534297269
 30
0.0
  0
VERTEX
  5
234
  8
LAYER_1
 10
25.8816973727828
 20
28.59406462701809
 30
0.0
  0
VERTEX
  5
235
  8
LAYER_1
 10
25.83134793512588
 20
28.3881711077354
 30
0.0
  0
VERTEX
  5
236
  8
LAYER_1
 10
25.80110722711742
 20
28.1791466185773
 30
0.0
  0
VERTEX
  5
237
  8
LAYER_1
 10
25.7909758159429
 20
27.96855299299647
 30
0.0
  0
VERTEX
  5
238
  8
LAYER_1
 10
25.80095426878781
 20
27.7579520644456
 30
0.0
  0
VERTEX
  5
239
  8
LAYER_1
 10
25.8310431528376
 20
27.54890566637739
 30
0.0
  0
VERTEX
  5
23A
  8
LAYER_1
 10
25.88124303527778
 20
27.3429756322445
 30
0.0
  0
VERTEX
  5
23B
  8
LAYER_1
 10
25.95155448329383
 20
27.14172379549963
 30
0.0
  0
VERTEX
  5
23C
  8
LAYER_1
 10
26.04197806407123
 20
26.94671198959546
 30
0.0
  0
VERTEX
  5
23D
  8
LAYER_1
 10
26.15251434479545
 20
26.75950204798469
 30
0.0
  0
VERTEX
  5
23E
  8
LAYER_1
 10
26.28316389265198
 20
26.58165580411998
 30
0.0
  0
VERTEX
  5
23F
  8
LAYER_1
 10
26.43392727482631
 20
26.41473509145404
 30
0.0
  0
VERTEX
  5
240
  8
LAYER_1
 10
26.60073844294168
 20
26.26385051333706
 30
0.0
  0
VERTEX
  5
241
  8
LAYER_1
 10
26.77848974819587
 20
26.13307182894114
 30
0.0
  0
VERTEX
  5
242
  8
LAYER_1
 10
26.96561935713623
 20
26.02239960545174
 30
0.0
  0
VERTEX
  5
243
  8
LAYER_1
 10
27.16056543631004
 20
25.93183441005436
 30
0.0
  0
VERTEX
  5
244
  8
LAYER_1
 10
27.36176615226464
 20
25.86137680993447
 30
0.0
  0
VERTEX
  5
245
  8
LAYER_1
 10
27.56765967154733
 20
25.81102737227755
 30
0.0
  0
VERTEX
  5
246
  8
LAYER_1
 10
27.77668416070544
 20
25.78078666426909
 30
0.0
  0
VERTEX
  5
247
  8
LAYER_1
 10
27.98727778628626
 20
25.77065525309457
 30
0.0
  0
VERTEX
  5
248
  8
LAYER_1
 10
28.19787871483713
 20
25.78063370593947
 30
0.0
  0
VERTEX
  5
249
  8
LAYER_1
 10
28.40692511290535
 20
25.81072258998928
 30
0.0
  0
VERTEX
  5
24A
  8
LAYER_1
 10
28.61285514703824
 20
25.86092247242946
 30
0.0
  0
VERTEX
  5
24B
  8
LAYER_1
 10
28.81410698378311
 20
25.93123392044551
 30
0.0
  0
VERTEX
  5
24C
  8
LAYER_1
 10
29.00911878968727
 20
26.0216575012229
 30
0.0
  0
VERTEX
  5
24D
  8
LAYER_1
 10
29.19632873129805
 20
26.13219378194712
 30
0.0
  0
VERTEX
  5
24E
  8
LAYER_1
 10
29.37417497516276
 20
26.26284332980366
 30
0.0
  0
VERTEX
  5
24F
  8
LAYER_1
 10
29.5410956878287
 20
26.41360671197798
 30
0.0
  0
VERTEX
  5
250
  8
LAYER_1
 10
29.69198026594567
 20
26.58041788009334
 30
0.0
  0
VERTEX
  5
251
  8
LAYER_1
 10
29.8227589503416
 20
26.75816918534754
 30
0.0
  0
VERTEX
  5
252
  8
LAYER_1
 10
29.933431173831
 20
26.94529879428789
 30
0.0
  0
VERTEX
  5
253
  8
LAYER_1
 10
30.02399636922838
 20
27.14024487346171
 30
0.0
  0
VERTEX
  5
254
  8
LAYER_1
 10
30.09445396934827
 20
27.34144558941631
 30
0.0
  0
VERTEX
  5
255
  8
LAYER_1
 10
30.14480340700518
 20
27.547339108699
 30
0.0
  0
VERTEX
  5
256
  8
LAYER_1
 10
30.17504411501364
 20
27.75636359785711
 30
0.0
  0
VERTEX
  5
257
  8
LAYER_1
 10
30.18517552618817
 20
27.96695722343793
 30
0.0
  0
VERTEX
  5
258
  8
LAYER_1
 10
30.17519707334327
 20
28.1775581519888
 30
0.0
  0
VERTEX
  5
259
  8
LAYER_1
 10
30.14510818929347
 20
28.38660455005702
 30
0.0
  0
VERTEX
  5
25A
  8
LAYER_1
 10
30.09490830685328
 20
28.59253458418991
 30
0.0
  0
VERTEX
  5
25B
  8
LAYER_1
 10
30.02459685883723
 20
28.79378642093478
 30
0.0
  0
VERTEX
  5
25C
  8
LAYER_1
 10
29.93417327805984
 20
28.98879822683895
 30
0.0
  0
VERTEX
  5
25D
  8
LAYER_1
 10
29.82363699733562
 20
29.17600816844973
 30
0.0
  0
VERTEX
  5
25E
  8
LAYER_1
 10
29.69298744947908
 20
29.35385441231443
 30
0.0
  0
SEQEND
  5
25F
  8
LAYER_1
  0
POLYLINE
  5
44
  8
LAYER_1
 66
     1
 10
0.0
 20
0.0
 30
0.0
 70
     1
  0
VERTEX
  5
260
  8
LAYER_1
 10
29.52190350445642
 20
-26.43505565430237
 30
0.0
  0
VERTEX
  5
261
  8
LAYER_1
 10
29.35509233634106
 20
-26.28417107618539
 30
0.0
  0
VERTEX
  5
262
  8
LAYER_1
 10
29.17734103108686
 20
-26.15339239178947
 30
0.0
  0
VERTEX
  5
263
  8
LAYER_1
 10
28.99021142214651
 20
-26.04272016830007
 30
0.0
  0
VERTEX
  5
264
  8
LAYER_1
 10
28.79526534297269
 20
-25.95215497290269
 30
0.0
  0
VERTEX
  5
265
  8
LAYER_1
 10
28.59406462701809
 20
-25.8816973727828
 30
0.0
  0
VERTEX
  5
266
  8
LAYER_1
 10
28.3881711077354
 20
-25.83134793512588
 30
0.0
  0
VERTEX
  5
267
  8
LAYER_1
 10
28.1791466185773
 20
-25.80110722711742
 30
0.0
  0
VERTEX
  5
268
  8
LAYER_1
 10
27.96855299299647
 20
-25.7909758159429
 30
0.0
  0
VERTEX
  5
269
  8
LAYER_1
 10
27.7579520644456
 20
-25.80095426878781
 30
0.0
  0
VERTEX
  5
26A
  8
LAYER_1
 10
27.54890566637739
 20
-25.8310431528376
 30
0.0
  0
VERTEX
  5
26B
  8
LAYER_1
 10
27.3429756322445
 20
-25.88124303527778
 30
0.0
  0
VERTEX
  5
26C
  8
LAYER_1
 10
27.14172379549963
 20
-25.95155448329383
 30
0.0
  0
VERTEX
  5
26D
  8
LAYER_1
 10
26.94671198959546
 20
-26.04197806407123
 30
0.0
  0
VERTEX
  5
26E
  8
LAYER_1
 10
26.75950204798469
 20
-26.15251434479545
 30
0.0
  0
VERTEX
  5
26F
  8
LAYER_1
 10
26.58165580411998
 20
-26.28316389265198
 30
0.0
  0
VERTEX
  5
270
  8
LAYER_1
 10
26.41473509145404
 20
-26.43392727482631
 30
0.0
  0
VERTEX
  5
271
  8
LAYER_1
 10
26.26385051333706
 20
-26.60073844294168
 30
0.0
  0
VERTEX
  5
272
  8
LAYER_1
 10
26.13307182894114
 20
-26.77848974819587
 30
0.0
  0
VERTEX
  5
273
  8
LAYER_1
 10
26.02239960545174
 20
-26.96561935713623
 30
0.0
  0
VERTEX
  5
274
  8
LAYER_1
 10
25.93183441005436
 20
-27.16056543631004
 30
0.0
  0
VERTEX
  5
275
  8
LAYER_1
 10
25.86137680993447
 20
-27.36176615226464
 30
0.0
  0
VERTEX
  5
276
  8
LAYER_1
 10
25.81102737227755
 20
-27.56765967154733
 30
0.0
  0
VERTEX
  5
277
  8
LAYER_1
 10
25.78078666426909
 20
-27.77668416070544
 30
0.0
  0
VERTEX
  5
278
  8
LAYER_1
 10
25.77065525309457
 20
-27.98727778628626
 30
0.0
  0
VERTEX
  5
279
  8
LAYER_1
 10
25.78063370593947
 20
-28.19787871483713
 30
0.0
  0
VERTEX
  5
27A
  8
LAYER_1
 10
25.81072258998928
 20
-28.40692511290535
 30
0.0
  0
VERTEX
  5
27B
  8
LAYER_1
 10
25.86092247242946
 20
-28.61285514703824
 30
0.0
  0
VERTEX
  5
27C
  8
LAYER_1
 10
25.93123392044551
 20
-28.81410698378311
 30
0.0
  0
VERTEX
  5
27D
  8
LAYER_1
 10
26.0216575012229
 20
-29.00911878968727
 30
0.0
  0
VERTEX
  5
27E
  8
LAYER_1
 10
26.13219378194712
 20
-29.19632873129805
 30
0.0
  0
VERTEX
  5
27F
  8
LAYER_1
 10
26.26284332980366
 20
-29.37417497516276
 30
0.0
  0
VERTEX
  5
280
  8
LAYER_1
 10
26.41360671197798
 20
-29.5410956878287
 30
0.0
  0
VERTEX
  5
281
  8
LAYER_1
 10
26.58041788009334
 20
-29.69198026594567
 30
0.0
  0
VERTEX
  5
282
  8
LAYER_1
 10
26.75816918534754
 20
-29.8227589503416
 30
0.0
  0
VERTEX
  5
283
  8
LAYER_1
 10
26.94529879428789
 20
-29.933431173831
 30
0.0
  0
VERTEX
  5
284
  8
LAYER_1
 10
27.14024487346171
 20
-30.02399636922838
 30
0.0
  0
VERTEX
  5
285
  8
LAYER_1
 10
27.34144558941631
 20
-30.09445396934827
 30
0.0
  0
VERTEX
  5
286
  8
LAYER_1
 10
27.547339108699
 20
-30.14480340700518
 30
0.0
  0
VERTEX
  5
287
  8
LAYER_1
 10
27.75636359785711
 20
-30.17504411501364
 30
0.0
  0
VERTEX
  5
288
  8
LAYER_1
 10
27.96695722343793
 20
-30.18517552618817
 30
0.0
  0
VERTEX
  5
289
  8
LAYER_1
 10
28.1775581519888
 20
-30.17519707334327
 30
0.0
  0
VERTEX
  5
28A
  8
LAYER_1
 10
28.38660455005702
 20
-30.14510818929347
 30
0.0
  0
VERTEX
  5
28B
  8
LAYER_1
 10
28.59253458418991
 20
-30.09490830685328
 30
0.0
  0
VERTEX
  5
28C
  8
LAYER_1
 10
28.79378642093478
 20
-30.02459685883723
 30
0.0
  0
VERTEX
  5
28D
  8
LAYER_1
 10
28.98879822683895
 20
-29.93417327805984
 30
0.0
  0
VERTEX
  5
28E
  8
LAYER_1
 10
29.17600816844973
 20
-29.82363699733562
 30
0.0
  0
VERTEX
  5
28F
  8
LAYER_1
 10
29.35385441231443
 20
-29.69298744947908
 30
0.0
  0
VERTEX
  5
290
  8
LAYER_1
 10
29.52077512498037
 20
-29.54222406730475
 30
0.0
  0
VERTEX
  5
291
  8
LAYER_1
 10
29.67165970309735
 20
-29.37541289918939
 30
0.0
  0
VERTEX
  5
292
  8
LAYER_1
 10
29.80243838749328
 20
-29.19766159393519
 30
0.0
  0
VERTEX
  5
293
  8
LAYER_1
 10
29.91311061098267
 20
-29.01053198499484
 30
0.0
  0
VERTEX
  5
294
  8
LAYER_1
 10
30.00367580638005
 20
-28.81558590582102
 30
0.0
  0
VERTEX
  5
295
  8
LAYER_1
 10
30.07413340649994
 20
-28.61438518986643
 30
0.0
  0
VERTEX
  5
296
  8
LAYER_1
 10
30.12448284415686
 20
-28.40849167058374
 30
0.0
  0
VERTEX
  5
297
  8
LAYER_1
 10
30.15472355216531
 20
-28.19946718142563
 30
0.0
  0
VERTEX
  5
298
  8
LAYER_1
 10
30.16485496333983
 20
-27.9888735558448
 30
0.0
  0
VERTEX
  5
299
  8
LAYER_1
 10
30.15487651049494
 20
-27.77827262729394
 30
0.0
  0
VERTEX
  5
29A
  8
LAYER_1
 10
30.12478762644513
 20
-27.56922622922572
 30
0.0
  0
VERTEX
  5
29B
  8
LAYER_1
 10
30.07458774400495
 20
-27.36329619509283
 30
0.0
  0
VERTEX
  5
29C
  8
LAYER_1
 10
30.0042762959889
 20
-27.16204435834796
 30
0.0
  0
VERTEX
  5
29D
  8
LAYER_1
 10
29.91385271521151
 20
-26.9670325524438
 30
0.0
  0
VERTEX
  5
29E
  8
LAYER_1
 10
29.80331643448728
 20
-26.77982261083302
 30
0.0
  0
VERTEX
  5
29F
  8
LAYER_1
 10
29.67266688663075
 20
-26.60197636696831
 30
0.0
  0
SEQEND
  5
2A0
  8
LAYER_1
  0
POLYLINE
  5
45
  8
LAYER_1
 66
     1
 10
0.0
 20
0.0
 30
0.0
 70
     1
  0
VERTEX
  5
2A1
  8
LAYER_1
 10
-26.43392727482631
 20
-26.41473509145404
 30
0.0
  0
VERTEX
  5
2A2
  8
LAYER_1
 10
-26.60073844294168
 20
-26.26385051333706
 30
0.0
  0
VERTEX
  5
2A3
  8
LAYER_1
 10
-26.77848974819587
 20
-26.13307182894114
 30
0.0
  0
VERTEX
  5
2A4
  8
LAYER_1
 10
-26.96561935713623
 20
-26.02239960545174
 30
0.0
  0
VERTEX
  5
2A5
  8
LAYER_1
 10
-27.16056543631004
 20
-25.93183441005436
 30
0.0
  0
VERTEX
  5
2A6
  8
LAYER_1
 10
-27.36176615226464
 20
-25.86137680993447
 30
0.0
  0
VERTEX
  5
2A7
  8
LAYER_1
 10
-27.56765967154733
 20
-25.81102737227755
 30
0.0
  0
VERTEX
  5
2A8
  8
LAYER_1
 10
-27.77668416070544
 20
-25.78078666426909
 30
0.0
  0
VERTEX
  5
2A9
  8
LAYER_1
 10
-27.98727778628626
 20
-25.77065525309457
 30
0.0
  0
VERTEX
  5
2AA
  8
LAYER_1
 10
-28.19787871483713
 20
-25.78063370593947
 30
0.0
  0
VERTEX
  5
2AB
  8
LAYER_1
 10
-28.40692511290535
 20
-25.81072258998928
 30
0.0
  0
VERTEX
  5
2AC
  8
LAYER_1
 10
-28.61285514703824
 20
-25.86092247242946
 30
0.0
  0
VERTEX
  5
2AD
  8
LAYER_1
 10
-28.81410698378311
 20
-25.93123392044551
 30
0.0
  0
VERTEX
  5
2AE
  8
LAYER_1
 10
-29.00911878968727
 20
-26.0216575012229
 30
0.0
  0
VERTEX
  5
2AF
  8
LAYER_1
 10
-29.19632873129805
 20
-26.13219378194712
 30
0.0
  0
VERTEX
  5
2B0
  8
LAYER_1
 10
-29.37417497516276
 20
-26.26284332980366
 30
0.0
  0
VERTEX
  5
2B1
  8
LAYER_1
 10
-29.5410956878287
 20
-26.41360671197798
 30
0.0
  0
VERTEX
  5
2B2
  8
LAYER_1
 10
-29.69198026594567
 20
-26.58041788009334
 30
0.0
  0
VERTEX
  5
2B3
  8
LAYER_1
 10
-29.8227589503416
 20
-26.75816918534754
 30
0.0
  0
VERTEX
  5
2B4
  8
LAYER_1
 10
-29.933431173831
 20
-26.94529879428789
 30
0.0
  0
VERTEX
  5
2B5
  8
LAYER_1
 10
-30.02399636922838
 20
-27.14024487346171
 30
0.0
  0
VERTEX
  5
2B6
  8
LAYER_1
 10
-30.09445396934827
 20
-27.34144558941631
 30
0.0
  0
VERTEX
  5
2B7
  8
LAYER_1
 10
-30.14480340700518
 20
-27.547339108699
 30
0.0
  0
VERTEX
  5
2B8
  8
LAYER_1
 10
-30.17504411501364
 20
-27.75636359785711
 30
0.0
  0
VERTEX
  5
2B9
  8
LAYER_1
 10
-30.18517552618817
 20
-27.96695722343793
 30
0.0
  0
VERTEX
  5
2BA
  8
LAYER_1
 10
-30.17519707334327
 20
-28.1775581519888
 30
0.0
  0
VERTEX
  5
2BB
  8
LAYER_1
 10
-30.14510818929347
 20
-28.38660455005702
 30
0.0
  0
VERTEX
  5
2BC
  8
LAYER_1
 10
-30.09490830685328
 20
-28.59253458418991
 30
0.0
  0
VERTEX
  5
2BD
  8
LAYER_1
 10
-30.02459685883723
 20
-28.79378642093478
 30
0.0
  0
VERTEX
  5
2BE
  8
LAYER_1
 10
-29.93417327805984
 20
-28.98879822683895
 30
0.0
  0
VERTEX
  5
2BF
  8
LAYER_1
 10
-29.82363699733562
 20
-29.17600816844973
 30
0.0
  0
VERTEX
  5
2C0
  8
LAYER_1
 10
-29.69298744947908
 20
-29.35385441231443
 30
0.0
  0
VERTEX
  5
2C1
  8
LAYER_1
 10
-29.54222406730475
 20
-29.52077512498037
 30
0.0
  0
VERTEX
  5
2C2
  8
LAYER_1
 10
-29.37541289918939
 20
-29.67165970309735
 30
0.0
  0
VERTEX
  5
2C3
  8
LAYER_1
 10
-29.19766159393519
 20
-29.80243838749328
 30
0.0
  0
VERTEX
  5
2C4
  8
LAYER_1
 10
-29.01053198499484
 20
-29.91311061098267
 30
0.0
  0
VERTEX
  5
2C5
  8
LAYER_1
 10
-28.81558590582102
 20
-30.00367580638005
 30
0.0
  0
VERTEX
  5
2C6
  8
LAYER_1
 10
-28.61438518986643
 20
-30.07413340649994
 30
0.0
  0
VERTEX
  5
2C7
  8
LAYER_1
 10
-28.40849167058374
 20
-30.12448284415686
 30
0.0
  0
VERTEX
  5
2C8
  8
LAYER_1
 10
-28.19946718142563
 20
-30.15472355216531
 30
0.0
  0
VERTEX
  5
2C9
  8
LAYER_1
 10
-27.9888735558448
 20
-30.16485496333983
 30
0.0
  0
VERTEX
  5
2CA
  8
LAYER_1
 10
-27.77827262729394
 20
-30.15487651049494
 30
0.0
  0
VERTEX
  5
2CB
  8
LAYER_1
 10
-27.56922622922572
 20
-30.12478762644513
 30
0.0
  0
VERTEX
  5
2CC
  8
LAYER_1
 10
-27.36329619509283
 20
-30.07458774400495
 30
0.0
  0
VERTEX
  5
2CD
  8
LAYER_1
 10
-27.16204435834796
 20
-30.0042762959889
 30
0.0
  0
VERTEX
  5
2CE
  8
LAYER_1
 10
-26.9670325524438
 20
-29.91385271521151
 30
0.0
  0
VERTEX
  5
2CF
  8
LAYER_1
 10
-26.77982261083302
 20
-29.80331643448728
 30
0.0
  0
VERTEX
  5
2D0
  8
LAYER_1
 10
-26.60197636696831
 20
-29.67266688663075
 30
0.0
  0
VERTEX
  5
2D1
  8
LAYER_1
 10
-26.43505565430237
 20
-29.52190350445642
 30
0.0
  0
VERTEX
  5
2D2
  8
LAYER_1
 10
-26.28417107618539
 20
-29.35509233634106
 30
0.0
  0
VERTEX
  5
2D3
  8
LAYER_1
 10
-26.15339239178947
 20
-29.17734103108686
 30
0.0
  0
VERTEX
  5
2D4
  8
LAYER_1
 10
-26.04272016830007
 20
-28.99021142214651
 30
0.0
  0
VERTEX
  5
2D5
  8
LAYER_1
 10
-25.95215497290269
 20
-28.79526534297269
 30
0.0
  0
VERTEX
  5
2D6
  8
LAYER_1
 10
-25.8816973727828
 20
-28.59406462701809
 30
0.0
  0
VERTEX
  5
2D7
  8
LAYER_1
 10
-25.83134793512588
 20
-28.3881711077354
 30
0.0
  0
VERTEX
  5
2D8
  8
LAYER_1
 10
-25.80110722711742
 20
-28.1791466185773
 30
0.0
  0
VERTEX
  5
2D9
  8
LAYER_1
 10
-25.7909758159429
 20
-27.96855299299647
 30
0.0
  0
VERTEX
  5
2DA
  8
LAYER_1
 10
-25.80095426878781
 20
-27.7579520644456
 30
0.0
  0
VERTEX
  5
2DB
  8
LAYER_1
 10
-25.8310431528376
 20
-27.54890566637739
 30
0.0
  0
VERTEX
  5
2DC
  8
LAYER_1
 10
-25.88124303527778
 20
-27.3429756322445
 30
0.0
  0
VERTEX
  5
2DD
  8
LAYER_1
 10
-25.95155448329383
 20
-27.14172379549963
 30
0.0
  0
VERTEX
  5
2DE
  8
LAYER_1
 10
-26.04197806407123
 20
-26.94671198959546
 30
0.0
  0
VERTEX
  5
2DF
  8
LAYER_1
 10
-26.15251434479545
 20
-26.75950204798469
 30
0.0
  0
VERTEX
  5
2E0
  8
LAYER_1
 10
-26.28316389265198
 20
-26.58165580411998
 30
0.0
  0
SEQEND
  5
2E1
  8
LAYER_1
  0
POLYLINE
  5
46
  8
LAYER_1
 66
     1
 10
0.0
 20
0.0
 30
0.0
 70
     1
  0
VERTEX
  5
2E2
  8
LAYER_1
 10
-26.41360671197798
 20
29.5410956878287
 30
0.0
  0
VERTEX
  5
2E3
  8
LAYER_1
 10
-26.58041788009334
 20
29.69198026594567
 30
0.0
  0
VERTEX
  5
2E4
  8
LAYER_1
 10
-26.75816918534754
 20
29.8227589503416
 30
0.0
  0
VERTEX
  5
2E5
  8
LAYER_1
 10
-26.94529879428789
 20
29.933431173831
 30
0.0
  0
VERTEX
  5
2E6
  8
LAYER_1
 10
-27.14024487346171
 20
30.02399636922838
 30
0.0
  0
VERTEX
  5
2E7
  8
LAYER_1
 10
-27.34144558941631
 20
30.09445396934827
 30
0.0
  0
VERTEX
  5
2E8
  8
LAYER_1
 10
-27.547339108699
 20
30.14480340700518
 30
0.0
  0
VERTEX
  5
2E9
  8
LAYER_1
 10
-27.75636359785711
 20
30.17504411501364
 30
0.0
  0
VERTEX
  5
2EA
  8
LAYER_1
 10
-27.96695722343793
 20
30.18517552618817
 30
0.0
  0
VERTEX
  5
2EB
  8
LAYER_1
 10
-28.1775581519888
 20
30.17519707334327
 30
0.0
  0
VERTEX
  5
2EC
  8
LAYER_1
 10
-28.38660455005702
 20
30.14510818929347
 30
0.0
  0
VERTEX
  5
2ED
  8
LAYER_1
 10
-28.59253458418991
 20
30.09490830685328
 30
0.0
  0
VERTEX
  5
2EE
  8
LAYER_1
 10
-28.79378642093478
 20
30.02459685883723
 30
0.0
  0
VERTEX
  5
2EF
  8
LAYER_1
 10
-28.98879822683895
 20
29.93417327805984
 30
0.0
  0
VERTEX
  5
2F0
  8
LAYER_1
 10
-29.17600816844973
 20
29.82363699733562
 30
0.0
  0
VERTEX
  5
2F1
  8
LAYER_1
 10
-29.35385441231443
 20
29.69298744947908
 30
0.0
  0
VERTEX
  5
2F2
  8
LAYER_1
 10
-29.52077512498037
 20
29.54222406730475
 30
0.0
  0
VERTEX
  5
2F3
  8
LAYER_1
 10
-29.67165970309735
 20
29.37541289918939
 30
0.0
  0
VERTEX
  5
2F4
  8
LAYER_1
 10
-29.80243838749328
 20
29.19766159393519
 30
0.0
  0
VERTEX
  5
2F5
  8
LAYER_1
 10
-29.91311061098267
 20
29.01053198499484
 30
0.0
  0
VERTEX
  5
2F6
  8
LAYER_1
 10
-30.00367580638005
 20
28.81558590582102
 30
0.0
  0
VERTEX
  5
2F7
  8
LAYER_1
 10
-30.07413340649994
 20
28.61438518986643
 30
0.0
  0
VERTEX
  5
2F8
  8
LAYER_1
 10
-30.12448284415686
 20
28.40849167058374
 30
0.0
  0
VERTEX
  5
2F9
  8
LAYER_1
 10
-30.15472355216531
 20
28.19946718142563
 30
0.0
  0
VERTEX
  5
2FA
  8
LAYER_1
 10
-30.16485496333983
 20
27.9888735558448
 30
0.0
  0
VERTEX
  5
2FB
  8
LAYER_1
 10
-30.15487651049494
 20
27.77827262729394
 30
0.0
  0
VERTEX
  5
2FC
  8
LAYER_1
 10
-30.12478762644513
 20
27.56922622922572
 30
0.0
  0
VERTEX
  5
2FD
  8
LAYER_1
 10
-30.07458774400495
 20
27.36329619509283
 30
0.0
  0
VERTEX
  5
2FE
  8
LAYER_1
 10
-30.0042762959889
 20
27.16204435834796
 30
0.0
  0
VERTEX
  5
2FF
  8
LAYER_1
 10
-29.91385271521151
 20
26.9670325524438
 30
0.0
  0
VERTEX
  5
300
  8
LAYER_1
 10
-29.80331643448728
 20
26.77982261083302
 30
0.0
  0
VERTEX
  5
301
  8
LAYER_1
 10
-29.67266688663075
 20
26.60197636696831
 30
0.0
  0
VERTEX
  5
302
  8
LAYER_1
 10
-29.52190350445642
 20
26.43505565430237
 30
0.0
  0
VERTEX
  5
303
  8
LAYER_1
 10
-29.35509233634106
 20
26.28417107618539
 30
0.0
  0
VERTEX
  5
304
  8
LAYER_1
 10
-29.17734103108686
 20
26.15339239178947
 30
0.0
  0
VERTEX
  5
305
  8
LAYER_1
 10
-28.99021142214651
 20
26.04272016830007
 30
0.0
  0
VERTEX
  5
306
  8
LAYER_1
 10
-28.79526534297269
 20
25.95215497290269
 30
0.0
  0
VERTEX
  5
307
  8
LAYER_1
 10
-28.59406462701809
 20
25.8816973727828
 30
0.0
  0
VERTEX
  5
308
  8
LAYER_1
 10
-28.3881711077354
 20
25.83134793512588
 30
0.0
  0
VERTEX
  5
309
  8
LAYER_1
 10
-28.1791466185773
 20
25.80110722711742
 30
0.0
  0
VERTEX
  5
30A
  8
LAYER_1
 10
-27.96855299299647
 20
25.7909758159429
 30
0.0
  0
VERTEX
  5
30B
  8
LAYER_1
 10
-27.7579520644456
 20
25.80095426878781
 30
0.0
  0
VERTEX
  5
30C
  8
LAYER_1
 10
-27.54890566637739
 20
25.8310431528376
 30
0.0
  0
VERTEX
  5
30D
  8
LAYER_1
 10
-27.3429756322445
 20
25.88124303527778
 30
0.0
  0
VERTEX
  5
30E
  8
LAYER_1
 10
-27.14172379549963
 20
25.95155448329383
 30
0.0
  0
VERTEX
  5
30F
  8
LAYER_1
 10
-26.94671198959546
 20
26.04197806407123
 30
0.0
  0
VERTEX
  5
310
  8
LAYER_1
 10
-26.75950204798469
 20
26.15251434479545
 30
0.0
  0
VERTEX
  5
311
  8
LAYER_1
 10
-26.58165580411998
 20
26.28316389265198
 30
0.0
  0
VERTEX
  5
312
  8
LAYER_1
 10
-26.41473509145404
 20
26.43392727482631
 30
0.0
  0
VERTEX
  5
313
  8
LAYER_1
 10
-26.26385051333706
 20
26.60073844294168
 30
0.0
  0
VERTEX
  5
314
  8
LAYER_1
 10
-26.13307182894114
 20
26.77848974819587
 30
0.0
  0
VERTEX
  5
315
  8
LAYER_1
 10
-26.02239960545174
 20
26.96561935713623
 30
0.0
  0
VERTEX
  5
316
  8
LAYER_1
 10
-25.93183441005436
 20
27.16056543631004
 30
0.0
  0
VERTEX
  5
317
  8
LAYER_1
 10
-25.86137680993447
 20
27.36176615226464
 30
0.0
  0
VERTEX
  5
318
  8
LAYER_1
 10
-25.81102737227755
 20
27.56765967154733
 30
0.0
  0
VERTEX
  5
319
  8
LAYER_1
 10
-25.78078666426909
 20
27.77668416070544
 30
0.0
  0
VERTEX
  5
31A
  8
LAYER_1
 10
-25.77065525309457
 20
27.98727778628626
 30
0.0
  0
VERTEX
  5
31B
  8
LAYER_1
 10
-25.78063370593947
 20
28.19787871483713
 30
0.0
  0
VERTEX
  5
31C
  8
LAYER_1
 10
-25.81072258998928
 20
28.40692511290535
 30
0.0
  0
VERTEX
  5
31D
  8
LAYER_1
 10
-25.86092247242946
 20
28.61285514703824
 30
0.0
  0
VERTEX
  5
31E
  8
LAYER_1
 10
-25.93123392044551
 20
28.81410698378311
 30
0.0
  0
VERTEX
  5
31F
  8
LAYER_1
 10
-26.0216575012229
 20
29.00911878968727
 30
0.0
  0
VERTEX
  5
320
  8
LAYER_1
 10
-26.13219378194712
 20
29.19632873129805
 30
0.0
  0
VERTEX
  5
321
  8
LAYER_1
 10
-26.26284332980366
 20
29.37417497516276
 30
0.0
  0
SEQEND
  5
322
  8
LAYER_1
  0
ENDSEC
  0
EOF
