  0
SECTION
  2
HEADER
  9
$ACADVER
  1
AC1009
  9
$DWGCODEPAGE
  3
ansi_1252
  9
$INSBASE
 10
0.0
 20
0.0
 30
0.0
  9
$EXTMIN
 10
-46.79949691402828
 20
-46.79949691402828
 30
0.0
  9
$EXTMAX
 10
46.79949691402828
 20
46.79949691402828
 30
0.0
  9
$LIMMIN
 10
0.0
 20
0.0
  9
$LIMMAX
 10
12.0
 20
9.0
  9
$ORTHOMODE
 70
     0
  9
$REGENMODE
 70
     1
  9
$FILLMODE
 70
     1
  9
$QTEXTMODE
 70
     0
  9
$MIRRTEXT
 70
     1
  9
$DRAGMODE
 70
     2
  9
$LTSCALE
 40
1.0
  9
$OSMODE
 70
    37
  9
$ATTMODE
 70
     1
  9
$TEXTSIZE
 40
0.2
  9
$TRACEWID
 40
0.05
  9
$TEXTSTYLE
  7
STANDARD
  9
$CLAYER
  8
0
  9
$CELTYPE
  6
BYLAYER
  9
$CECOLOR
 62
   256
  9
$DIMSCALE
 40
1.0
  9
$DIMASZ
 40
0.18
  9
$DIMEXO
 40
0.0625
  9
$DIMDLI
 40
0.38
  9
$DIMRND
 40
0.0
  9
$DIMDLE
 40
0.0
  9
$DIMEXE
 40
0.18
  9
$DIMTP
 40
0.0
  9
$DIMTM
 40
0.0
  9
$DIMTXT
 40
0.18
  9
$DIMCEN
 40
0.09
  9
$DIMTSZ
 40
0.0
  9
$DIMTOL
 70
     0
  9
$DIMLIM
 70
     0
  9
$DIMTIH
 70
     1
  9
$DIMTOH
 70
     1
  9
$DIMSE1
 70
     0
  9
$DIMSE2
 70
     0
  9
$DIMTAD
 70
     0
  9
$DIMZIN
 70
     0
  9
$DIMBLK
  1

  9
$DIMASO
 70
     1
  9
$DIMSHO
 70
     1
  9
$DIMPOST
  1

  9
$DIMAPOST
  1

  9
$DIMALT
 70
     0
  9
$DIMALTD
 70
     2
  9
$DIMALTF
 40
25.4
  9
$DIMLFAC
 40
1.0
  9
$DIMTOFL
 70
     0
  9
$DIMTVP
 40
0.0
  9
$DIMTIX
 70
     0
  9
$DIMSOXD
 70
     0
  9
$DIMSAH
 70
     0
  9
$DIMBLK1
  1

  9
$DIMBLK2
  1

  9
$DIMSTYLE
  2
STANDARD
  9
$DIMCLRD
 70
     0
  9
$DIMCLRE
 70
     0
  9
$DIMCLRT
 70
     0
  9
$DIMTFAC
 40
1.0
  9
$DIMGAP
 40
0.09
  9
$LUNITS
 70
     2
  9
$LUPREC
 70
     4
  9
$SKETCHINC
 40
0.1
  9
$FILLETRAD
 40
0.5
  9
$AUNITS
 70
     0
  9
$AUPREC
 70
     0
  9
$MENU
  1
.
  9
$ELEVATION
 40
0.0
  9
$PELEVATION
 40
0.0
  9
$THICKNESS
 40
0.0
  9
$LIMCHECK
 70
     0
  9
$CHAMFERA
 40
0.5
  9
$CHAMFERB
 40
0.5
  9
$SKPOLY
 70
     0
  9
$TDCREATE
 40
2454910.5
  9
$TDUPDATE
 40
2457134.952287685
  9
$TDINDWG
 40
0.0000000116
  9
$TDUSRTIMER
 40
0.0000000116
  9
$USRTIMER
 70
     1
  9
$ANGBASE
 50
0.0
  9
$ANGDIR
 70
     0
  9
$PDMODE
 70
     0
  9
$PDSIZE
 40
0.0
  9
$PLINEWID
 40
0.0
  9
$COORDS
 70
     1
  9
$SPLFRAME
 70
     0
  9
$SPLINETYPE
 70
     6
  9
$SPLINESEGS
 70
     8
  9
$ATTDIA
 70
     0
  9
$ATTREQ
 70
     1
  9
$HANDLING
 70
     1
  9
$HANDSEED
  5
36E
  9
$SURFTAB1
 70
     6
  9
$SURFTAB2
 70
     6
  9
$SURFTYPE
 70
     6
  9
$SURFU
 70
     6
  9
$SURFV
 70
     6
  9
$UCSNAME
  2

  9
$UCSORG
 10
0.0
 20
0.0
 30
0.0
  9
$UCSXDIR
 10
1.0
 20
0.0
 30
0.0
  9
$UCSYDIR
 10
0.0
 20
1.0
 30
0.0
  9
$PUCSNAME
  2

  9
$PUCSORG
 10
0.0
 20
0.0
 30
0.0
  9
$PUCSXDIR
 10
1.0
 20
0.0
 30
0.0
  9
$PUCSYDIR
 10
0.0
 20
1.0
 30
0.0
  9
$USERI1
 70
     0
  9
$USERI2
 70
     0
  9
$USERI3
 70
     0
  9
$USERI4
 70
     0
  9
$USERI5
 70
     0
  9
$USERR1
 40
0.0
  9
$USERR2
 40
0.0
  9
$USERR3
 40
0.0
  9
$USERR4
 40
0.0
  9
$USERR5
 40
0.0
  9
$WORLDVIEW
 70
     1
  9
$SHADEDGE
 70
     3
  9
$SHADEDIF
 70
    70
  9
$TILEMODE
 70
     1
  9
$MAXACTVP
 70
    64
  9
$PLIMCHECK
 70
     0
  9
$PEXTMIN
 10
1.000000000000000E+20
 20
1.000000000000000E+20
 30
1.000000000000000E+20
  9
$PEXTMAX
 10
-1.000000000000000E+20
 20
-1.000000000000000E+20
 30
-1.000000000000000E+20
  9
$PLIMMIN
 10
0.0
 20
0.0
  9
$PLIMMAX
 10
12.0
 20
9.0
  9
$UNITMODE
 70
     0
  9
$VISRETAIN
 70
     1
  9
$PLINEGEN
 70
     0
  9
$PSLTSCALE
 70
     1
  0
ENDSEC
  0
SECTION
  2
TABLES
  0
TABLE
  2
VPORT
 70
     1
  0
VPORT
  2
*ACTIVE
 70
     0
 10
0.0
 20
0.0
 11
1.0
 21
1.0
 12
10.42990654205607
 22
4.5
 13
0.0
 23
0.0
 14
0.5
 24
0.5
 15
0.5
 25
0.5
 16
0.0
 26
0.0
 36
1.0
 17
0.0
 27
0.0
 37
0.0
 40
9.0
 41
1.972972972850329
 42
50.0
 43
0.0
 44
0.0
 50
0.0
 51
0.0
 71
     0
 72
   100
 73
     1
 74
     3
 75
     0
 76
     0
 77
     0
 78
     0
  0
ENDTAB
  0
TABLE
  2
LTYPE
 70
     2
  0
LTYPE
  2
CONTINUOUS
 70
     0
  3
Solid line
 72
    65
 73
     0
 40
0.0
  0
LTYPE
  2
CONTINUOUS2
 70
     0
  3
Solid Line
 72
    65
 73
     0
 40
0.0
  0
ENDTAB
  0
TABLE
  2
LAYER
 70
     2
  0
LAYER
  2
0
 70
     0
 62
     7
  6
CONTINUOUS
  0
LAYER
  2
LAYER_1
 70
     0
 62
    18
  6
CONTINUOUS
  0
ENDTAB
  0
TABLE
  2
STYLE
 70
     1
  0
STYLE
  2
STANDARD
 70
     0
 40
0.0
 41
1.0
 50
0.0
 71
     0
 42
0.2
  3
txt
  4

  0
ENDTAB
  0
TABLE
  2
VIEW
 70
     0
  0
ENDTAB
  0
TABLE
  2
UCS
 70
     0
  0
ENDTAB
  0
TABLE
  2
APPID
 70
     1
  0
APPID
  2
ACAD
 70
     0
  0
ENDTAB
  0
TABLE
  2
DIMSTYLE
 70
     1
  0
DIMSTYLE
  2
STANDARD
 70
     0
  3

  4

  5

  6

  7

 40
1.0
 41
0.18
 42
0.0625
 43
0.38
 44
0.18
 45
0.0
 46
0.0
 47
0.0
 48
0.0
140
0.18
141
0.09
142
0.0
143
25.4
144
1.0
145
0.0
146
1.0
147
0.09
 71
     0
 72
     0
 73
     1
 74
     1
 75
     0
 76
     0
 77
     0
 78
     0
170
     0
171
     2
172
     0
173
     0
174
     0
175
     0
176
     0
177
     0
178
     0
  0
ENDTAB
  0
ENDSEC
  0
SECTION
  2
BLOCKS
  0
BLOCK
  8
0
  2
$MODEL_SPACE
 70
     0
 10
0.0
 20
0.0
 30
0.0
  3
$MODEL_SPACE
  1

  0
ENDBLK
  5
21
  8
0
  0
BLOCK
 67
     1
  8
0
  2
$PAPER_SPACE
 70
     0
 10
0.0
 20
0.0
 30
0.0
  3
$PAPER_SPACE
  1

  0
ENDBLK
  5
1D
 67
     1
  8
0
  0
ENDSEC
  0
SECTION
  2
ENTITIES
  0
POLYLINE
  5
41
  8
LAYER_1
 66
     1
 10
0.0
 20
0.0
 30
0.0
 70
     1
  0
VERTEX
  5
4C
  8
LAYER_1
 10
33.10425919156948
 20
33.0802240564871
 30
0.0
  0
VERTEX
  5
4D
  8
LAYER_1
 10
32.67399338815137
 20
33.50538559506268
 30
0.0
  0
VERTEX
  5
4E
  8
LAYER_1
 10
32.23963163620585
 20
33.92385562446708
 30
0.0
  0
VERTEX
  5
4F
  8
LAYER_1
 10
31.80123891220817
 20
34.33563412110385
 30
0.0
  0
VERTEX
  5
50
  8
LAYER_1
 10
31.3588801926336
 20
34.74072106137655
 30
0.0
  0
VERTEX
  5
51
  8
LAYER_1
 10
30.91262045395741
 20
35.13911642168873
 30
0.0
  0
VERTEX
  5
52
  8
LAYER_1
 10
30.46252467265485
 20
35.53082017844395
 30
0.0
  0
VERTEX
  5
53
  8
LAYER_1
 10
29.55108488807173
 20
36.29415278689777
 30
0.0
  0
VERTEX
  5
54
  8
LAYER_1
 10
28.62508065068636
 20
37.03071869796644
 30
0.0
  0
VERTEX
  5
55
  8
LAYER_1
 10
27.68503177230088
 20
37.74051772287844
 30
0.0
  0
VERTEX
  5
56
  8
LAYER_1
 10
26.7314580647174
 20
38.42354967286221
 30
0.0
  0
VERTEX
  5
57
  8
LAYER_1
 10
25.76487933973806
 20
39.07981435914623
 30
0.0
  0
VERTEX
  5
58
  8
LAYER_1
 10
24.78581540916498
 20
39.70931159295894
 30
0.0
  0
VERTEX
  5
59
  8
LAYER_1
 10
23.79478608480029
 20
40.31204118552881
 30
0.0
  0
VERTEX
  5
5A
  8
LAYER_1
 10
22.79231117844611
 20
40.88800294808431
 30
0.0
  0
VERTEX
  5
5B
  8
LAYER_1
 10
21.77891050190457
 20
41.43719669185387
 30
0.0
  0
VERTEX
  5
5C
  8
LAYER_1
 10
20.7551038669778
 20
41.95962222806597
 30
0.0
  0
VERTEX
  5
5D
  8
LAYER_1
 10
19.72141108546793
 20
42.45527936794907
 30
0.0
  0
VERTEX
  5
5E
  8
LAYER_1
 10
18.67835196917707
 20
42.92416792273161
 30
0.0
  0
VERTEX
  5
5F
  8
LAYER_1
 10
17.62644632990737
 20
43.36628770364207
 30
0.0
  0
VERTEX
  5
60
  8
LAYER_1
 10
16.56621397946093
 20
43.7816385219089
 30
0.0
  0
VERTEX
  5
61
  8
LAYER_1
 10
15.4981747296399
 20
44.17022018876057
 30
0.0
  0
VERTEX
  5
62
  8
LAYER_1
 10
14.4228483922464
 20
44.53203251542552
 30
0.0
  0
VERTEX
  5
63
  8
LAYER_1
 10
13.34075477908256
 20
44.86707531313223
 30
0.0
  0
VERTEX
  5
64
  8
LAYER_1
 10
12.25241370195049
 20
45.17534839310914
 30
0.0
  0
VERTEX
  5
65
  8
LAYER_1
 10
11.15834497265233
 20
45.45685156658472
 30
0.0
  0
VERTEX
  5
66
  8
LAYER_1
 10
10.0590684029902
 20
45.71158464478742
 30
0.0
  0
VERTEX
  5
67
  8
LAYER_1
 10
8.955103804766233
 20
45.93954743894572
 30
0.0
  0
VERTEX
  5
68
  8
LAYER_1
 10
7.846970989782555
 20
46.14073976028806
 30
0.0
  0
VERTEX
  5
69
  8
LAYER_1
 10
6.735189769841289
 20
46.31516142004291
 30
0.0
  0
VERTEX
  5
6A
  8
LAYER_1
 10
5.620279956744564
 20
46.46281222943871
 30
0.0
  0
VERTEX
  5
6B
  8
LAYER_1
 10
4.502761362294507
 20
46.58369199970394
 30
0.0
  0
VERTEX
  5
6C
  8
LAYER_1
 10
3.383153798293244
 20
46.67780054206706
 30
0.0
  0
VERTEX
  5
6D
  8
LAYER_1
 10
2.2619770765429
 20
46.74513766775651
 30
0.0
  0
VERTEX
  5
6E
  8
LAYER_1
 10
1.139751008845604
 20
46.78570318800077
 30
0.0
  0
VERTEX
  5
6F
  8
LAYER_1
 10
0.0169954070034812
 20
46.79949691402828
 30
0.0
  0
VERTEX
  5
70
  8
LAYER_1
 10
-1.105769917181341
 20
46.78651865706752
 30
0.0
  0
VERTEX
  5
71
  8
LAYER_1
 10
-2.228025151906737
 20
46.74676822834692
 30
0.0
  0
VERTEX
  5
72
  8
LAYER_1
 10
-3.349250485370579
 20
46.68024543909497
 30
0.0
  0
VERTEX
  5
73
  8
LAYER_1
 10
-4.468926105770741
 20
46.58695010054011
 30
0.0
  0
VERTEX
  5
74
  8
LAYER_1
 10
-5.586532201305096
 20
46.46688202391081
 30
0.0
  0
VERTEX
  5
75
  8
LAYER_1
 10
-6.701548960171518
 20
46.32004102043553
 30
0.0
  0
VERTEX
  5
76
  8
LAYER_1
 10
-7.81345657056788
 20
46.14642690134271
 30
0.0
  0
VERTEX
  5
77
  8
LAYER_1
 10
-8.921735220692057
 20
45.94603947786084
 30
0.0
  0
VERTEX
  5
78
  8
LAYER_1
 10
-10.02586509874192
 20
45.71887856121835
 30
0.0
  0
VERTEX
  5
79
  8
LAYER_1
 10
-11.12532639291534
 20
45.46494396264372
 30
0.0
  0
VERTEX
  5
7A
  8
LAYER_1
 10
-12.2195992914102
 20
45.18423549336539
 30
0.0
  0
VERTEX
  5
7B
  8
LAYER_1
 10
-13.30816398242436
 20
44.87675296461183
 30
0.0
  0
VERTEX
  5
7C
  8
LAYER_1
 10
-14.39050065415571
 20
44.5424961876115
 30
0.0
  0
VERTEX
  5
7D
  8
LAYER_1
 10
-15.4660894948021
 20
44.18146497359287
 30
0.0
  0
VERTEX
  5
7E
  8
LAYER_1
 10
-16.53441069256143
 20
43.79365913378437
 30
0.0
  0
VERTEX
  5
7F
  8
LAYER_1
 10
-17.59494443563155
 20
43.37907847941449
 30
0.0
  0
VERTEX
  5
80
  8
LAYER_1
 10
-18.64717091221036
 20
42.93772282171167
 30
0.0
  0
VERTEX
  5
81
  8
LAYER_1
 10
-19.6905703104957
 20
42.46959197190438
 30
0.0
  0
VERTEX
  5
82
  8
LAYER_1
 10
-20.72462281868547
 20
41.97468574122107
 30
0.0
  0
VERTEX
  5
83
  8
LAYER_1
 10
-21.74880862497753
 20
41.4530039408902
 30
0.0
  0
VERTEX
  5
84
  8
LAYER_1
 10
-22.76260791756975
 20
40.90454638214023
 30
0.0
  0
VERTEX
  5
85
  8
LAYER_1
 10
-23.76550088466002
 20
40.32931287619963
 30
0.0
  0
VERTEX
  5
86
  8
LAYER_1
 10
-24.7569677144462
 20
39.72730323429685
 30
0.0
  0
VERTEX
  5
87
  8
LAYER_1
 10
-25.73648859512618
 20
39.09851726766034
 30
0.0
  0
VERTEX
  5
88
  8
LAYER_1
 10
-26.7035437148978
 20
38.44295478751857
 30
0.0
  0
VERTEX
  5
89
  8
LAYER_1
 10
-27.65761326195897
 20
37.76061560510001
 30
0.0
  0
VERTEX
  5
8A
  8
LAYER_1
 10
-28.59817742450754
 20
37.0514995316331
 30
0.0
  0
VERTEX
  5
8B
  8
LAYER_1
 10
-29.5247163907414
 20
36.3156063783463
 30
0.0
  0
VERTEX
  5
8C
  8
LAYER_1
 10
-29.98256398405215
 20
35.93761833777934
 30
0.0
  0
VERTEX
  5
8D
  8
LAYER_1
 10
-30.43671034885841
 20
35.55293595646808
 30
0.0
  0
VERTEX
  5
8E
  8
LAYER_1
 10
-30.88709050868493
 20
35.16155921081608
 30
0.0
  0
VERTEX
  5
8F
  8
LAYER_1
 10
-31.33363948705644
 20
34.7634880772269
 30
0.0
  0
VERTEX
  5
90
  8
LAYER_1
 10
-31.77629230749768
 20
34.35872253210408
 30
0.0
  0
VERTEX
  5
91
  8
LAYER_1
 10
-32.21498399353338
 20
33.94726255185121
 30
0.0
  0
VERTEX
  5
92
  8
LAYER_1
 10
-32.64964956868828
 20
33.52910811287182
 30
0.0
  0
VERTEX
  5
93
  8
LAYER_1
 10
-33.0802240564871
 20
33.10425919156948
 30
0.0
  0
VERTEX
  5
94
  8
LAYER_1
 10
-33.50538559506268
 20
32.67399338815137
 30
0.0
  0
VERTEX
  5
95
  8
LAYER_1
 10
-33.92385562446708
 20
32.23963163620585
 30
0.0
  0
VERTEX
  5
96
  8
LAYER_1
 10
-34.33563412110385
 20
31.80123891220817
 30
0.0
  0
VERTEX
  5
97
  8
LAYER_1
 10
-34.74072106137655
 20
31.3588801926336
 30
0.0
  0
VERTEX
  5
98
  8
LAYER_1
 10
-35.13911642168873
 20
30.91262045395741
 30
0.0
  0
VERTEX
  5
99
  8
LAYER_1
 10
-35.53082017844395
 20
30.46252467265485
 30
0.0
  0
VERTEX
  5
9A
  8
LAYER_1
 10
-36.29415278689777
 20
29.55108488807173
 30
0.0
  0
VERTEX
  5
9B
  8
LAYER_1
 10
-37.03071869796644
 20
28.62508065068636
 30
0.0
  0
VERTEX
  5
9C
  8
LAYER_1
 10
-37.74051772287844
 20
27.68503177230088
 30
0.0
  0
VERTEX
  5
9D
  8
LAYER_1
 10
-38.42354967286221
 20
26.7314580647174
 30
0.0
  0
VERTEX
  5
9E
  8
LAYER_1
 10
-39.07981435914623
 20
25.76487933973806
 30
0.0
  0
VERTEX
  5
9F
  8
LAYER_1
 10
-39.70931159295894
 20
24.78581540916498
 30
0.0
  0
VERTEX
  5
A0
  8
LAYER_1
 10
-40.31204118552881
 20
23.79478608480029
 30
0.0
  0
VERTEX
  5
A1
  8
LAYER_1
 10
-40.88800294808431
 20
22.79231117844611
 30
0.0
  0
VERTEX
  5
A2
  8
LAYER_1
 10
-41.43719669185387
 20
21.77891050190457
 30
0.0
  0
VERTEX
  5
A3
  8
LAYER_1
 10
-41.95962222806597
 20
20.7551038669778
 30
0.0
  0
VERTEX
  5
A4
  8
LAYER_1
 10
-42.45527936794907
 20
19.72141108546793
 30
0.0
  0
VERTEX
  5
A5
  8
LAYER_1
 10
-42.92416792273161
 20
18.67835196917707
 30
0.0
  0
VERTEX
  5
A6
  8
LAYER_1
 10
-43.36628770364207
 20
17.62644632990737
 30
0.0
  0
VERTEX
  5
A7
  8
LAYER_1
 10
-43.7816385219089
 20
16.56621397946093
 30
0.0
  0
VERTEX
  5
A8
  8
LAYER_1
 10
-44.17022018876057
 20
15.4981747296399
 30
0.0
  0
VERTEX
  5
A9
  8
LAYER_1
 10
-44.53203251542552
 20
14.4228483922464
 30
0.0
  0
VERTEX
  5
AA
  8
LAYER_1
 10
-44.86707531313223
 20
13.34075477908256
 30
0.0
  0
VERTEX
  5
AB
  8
LAYER_1
 10
-45.17534839310914
 20
12.25241370195049
 30
0.0
  0
VERTEX
  5
AC
  8
LAYER_1
 10
-45.45685156658472
 20
11.15834497265233
 30
0.0
  0
VERTEX
  5
AD
  8
LAYER_1
 10
-45.71158464478742
 20
10.0590684029902
 30
0.0
  0
VERTEX
  5
AE
  8
LAYER_1
 10
-45.93954743894572
 20
8.955103804766233
 30
0.0
  0
VERTEX
  5
AF
  8
LAYER_1
 10
-46.14073976028806
 20
7.846970989782555
 30
0.0
  0
VERTEX
  5
B0
  8
LAYER_1
 10
-46.31516142004291
 20
6.735189769841289
 30
0.0
  0
VERTEX
  5
B1
  8
LAYER_1
 10
-46.46281222943871
 20
5.620279956744564
 30
0.0
  0
VERTEX
  5
B2
  8
LAYER_1
 10
-46.58369199970394
 20
4.502761362294507
 30
0.0
  0
VERTEX
  5
B3
  8
LAYER_1
 10
-46.67780054206706
 20
3.383153798293244
 30
0.0
  0
VERTEX
  5
B4
  8
LAYER_1
 10
-46.74513766775651
 20
2.2619770765429
 30
0.0
  0
VERTEX
  5
B5
  8
LAYER_1
 10
-46.78570318800077
 20
1.139751008845604
 30
0.0
  0
VERTEX
  5
B6
  8
LAYER_1
 10
-46.79949691402828
 20
0.0169954070034812
 30
0.0
  0
VERTEX
  5
B7
  8
LAYER_1
 10
-46.78651865706752
 20
-1.105769917181341
 30
0.0
  0
VERTEX
  5
B8
  8
LAYER_1
 10
-46.74676822834692
 20
-2.228025151906737
 30
0.0
  0
VERTEX
  5
B9
  8
LAYER_1
 10
-46.68024543909497
 20
-3.349250485370579
 30
0.0
  0
VERTEX
  5
BA
  8
LAYER_1
 10
-46.58695010054011
 20
-4.468926105770741
 30
0.0
  0
VERTEX
  5
BB
  8
LAYER_1
 10
-46.46688202391081
 20
-5.586532201305096
 30
0.0
  0
VERTEX
  5
BC
  8
LAYER_1
 10
-46.32004102043553
 20
-6.701548960171518
 30
0.0
  0
VERTEX
  5
BD
  8
LAYER_1
 10
-46.14642690134271
 20
-7.81345657056788
 30
0.0
  0
VERTEX
  5
BE
  8
LAYER_1
 10
-45.94603947786084
 20
-8.921735220692057
 30
0.0
  0
VERTEX
  5
BF
  8
LAYER_1
 10
-45.71887856121835
 20
-10.02586509874192
 30
0.0
  0
VERTEX
  5
C0
  8
LAYER_1
 10
-45.46494396264372
 20
-11.12532639291534
 30
0.0
  0
VERTEX
  5
C1
  8
LAYER_1
 10
-45.18423549336539
 20
-12.2195992914102
 30
0.0
  0
VERTEX
  5
C2
  8
LAYER_1
 10
-44.87675296461183
 20
-13.30816398242436
 30
0.0
  0
VERTEX
  5
C3
  8
LAYER_1
 10
-44.5424961876115
 20
-14.39050065415571
 30
0.0
  0
VERTEX
  5
C4
  8
LAYER_1
 10
-44.18146497359287
 20
-15.4660894948021
 30
0.0
  0
VERTEX
  5
C5
  8
LAYER_1
 10
-43.79365913378437
 20
-16.53441069256143
 30
0.0
  0
VERTEX
  5
C6
  8
LAYER_1
 10
-43.37907847941449
 20
-17.59494443563155
 30
0.0
  0
VERTEX
  5
C7
  8
LAYER_1
 10
-42.93772282171167
 20
-18.64717091221036
 30
0.0
  0
VERTEX
  5
C8
  8
LAYER_1
 10
-42.46959197190438
 20
-19.6905703104957
 30
0.0
  0
VERTEX
  5
C9
  8
LAYER_1
 10
-41.97468574122107
 20
-20.72462281868547
 30
0.0
  0
VERTEX
  5
CA
  8
LAYER_1
 10
-41.4530039408902
 20
-21.74880862497753
 30
0.0
  0
VERTEX
  5
CB
  8
LAYER_1
 10
-40.90454638214023
 20
-22.76260791756975
 30
0.0
  0
VERTEX
  5
CC
  8
LAYER_1
 10
-40.32931287619963
 20
-23.76550088466002
 30
0.0
  0
VERTEX
  5
CD
  8
LAYER_1
 10
-39.72730323429685
 20
-24.7569677144462
 30
0.0
  0
VERTEX
  5
CE
  8
LAYER_1
 10
-39.09851726766034
 20
-25.73648859512618
 30
0.0
  0
VERTEX
  5
CF
  8
LAYER_1
 10
-38.44295478751857
 20
-26.7035437148978
 30
0.0
  0
VERTEX
  5
D0
  8
LAYER_1
 10
-37.76061560510001
 20
-27.65761326195897
 30
0.0
  0
VERTEX
  5
D1
  8
LAYER_1
 10
-37.0514995316331
 20
-28.59817742450754
 30
0.0
  0
VERTEX
  5
D2
  8
LAYER_1
 10
-36.3156063783463
 20
-29.5247163907414
 30
0.0
  0
VERTEX
  5
D3
  8
LAYER_1
 10
-35.93761833777934
 20
-29.98256398405215
 30
0.0
  0
VERTEX
  5
D4
  8
LAYER_1
 10
-35.55293595646808
 20
-30.43671034885841
 30
0.0
  0
VERTEX
  5
D5
  8
LAYER_1
 10
-35.16155921081608
 20
-30.88709050868493
 30
0.0
  0
VERTEX
  5
D6
  8
LAYER_1
 10
-34.7634880772269
 20
-31.33363948705644
 30
0.0
  0
VERTEX
  5
D7
  8
LAYER_1
 10
-34.35872253210408
 20
-31.77629230749768
 30
0.0
  0
VERTEX
  5
D8
  8
LAYER_1
 10
-33.94726255185121
 20
-32.21498399353338
 30
0.0
  0
VERTEX
  5
D9
  8
LAYER_1
 10
-33.52910811287182
 20
-32.64964956868828
 30
0.0
  0
VERTEX
  5
DA
  8
LAYER_1
 10
-33.10425919156948
 20
-33.0802240564871
 30
0.0
  0
VERTEX
  5
DB
  8
LAYER_1
 10
-32.67399338815137
 20
-33.50538559506268
 30
0.0
  0
VERTEX
  5
DC
  8
LAYER_1
 10
-32.23963163620585
 20
-33.92385562446708
 30
0.0
  0
VERTEX
  5
DD
  8
LAYER_1
 10
-31.80123891220817
 20
-34.33563412110385
 30
0.0
  0
VERTEX
  5
DE
  8
LAYER_1
 10
-31.3588801926336
 20
-34.74072106137655
 30
0.0
  0
VERTEX
  5
DF
  8
LAYER_1
 10
-30.91262045395741
 20
-35.13911642168873
 30
0.0
  0
VERTEX
  5
E0
  8
LAYER_1
 10
-30.46252467265485
 20
-35.53082017844395
 30
0.0
  0
VERTEX
  5
E1
  8
LAYER_1
 10
-29.55108488807173
 20
-36.29415278689777
 30
0.0
  0
VERTEX
  5
E2
  8
LAYER_1
 10
-28.62508065068636
 20
-37.03071869796644
 30
0.0
  0
VERTEX
  5
E3
  8
LAYER_1
 10
-27.68503177230088
 20
-37.74051772287844
 30
0.0
  0
VERTEX
  5
E4
  8
LAYER_1
 10
-26.7314580647174
 20
-38.42354967286221
 30
0.0
  0
VERTEX
  5
E5
  8
LAYER_1
 10
-25.76487933973806
 20
-39.07981435914623
 30
0.0
  0
VERTEX
  5
E6
  8
LAYER_1
 10
-24.78581540916498
 20
-39.70931159295894
 30
0.0
  0
VERTEX
  5
E7
  8
LAYER_1
 10
-23.79478608480029
 20
-40.31204118552881
 30
0.0
  0
VERTEX
  5
E8
  8
LAYER_1
 10
-22.79231117844611
 20
-40.88800294808431
 30
0.0
  0
VERTEX
  5
E9
  8
LAYER_1
 10
-21.77891050190457
 20
-41.43719669185387
 30
0.0
  0
VERTEX
  5
EA
  8
LAYER_1
 10
-20.7551038669778
 20
-41.95962222806597
 30
0.0
  0
VERTEX
  5
EB
  8
LAYER_1
 10
-19.72141108546793
 20
-42.45527936794907
 30
0.0
  0
VERTEX
  5
EC
  8
LAYER_1
 10
-18.67835196917707
 20
-42.92416792273161
 30
0.0
  0
VERTEX
  5
ED
  8
LAYER_1
 10
-17.62644632990737
 20
-43.36628770364207
 30
0.0
  0
VERTEX
  5
EE
  8
LAYER_1
 10
-16.56621397946093
 20
-43.7816385219089
 30
0.0
  0
VERTEX
  5
EF
  8
LAYER_1
 10
-15.4981747296399
 20
-44.17022018876057
 30
0.0
  0
VERTEX
  5
F0
  8
LAYER_1
 10
-14.4228483922464
 20
-44.53203251542552
 30
0.0
  0
VERTEX
  5
F1
  8
LAYER_1
 10
-13.34075477908256
 20
-44.86707531313223
 30
0.0
  0
VERTEX
  5
F2
  8
LAYER_1
 10
-12.25241370195049
 20
-45.17534839310914
 30
0.0
  0
VERTEX
  5
F3
  8
LAYER_1
 10
-11.15834497265233
 20
-45.45685156658472
 30
0.0
  0
VERTEX
  5
F4
  8
LAYER_1
 10
-10.0590684029902
 20
-45.71158464478742
 30
0.0
  0
VERTEX
  5
F5
  8
LAYER_1
 10
-8.955103804766233
 20
-45.93954743894572
 30
0.0
  0
VERTEX
  5
F6
  8
LAYER_1
 10
-7.846970989782555
 20
-46.14073976028806
 30
0.0
  0
VERTEX
  5
F7
  8
LAYER_1
 10
-6.735189769841289
 20
-46.31516142004291
 30
0.0
  0
VERTEX
  5
F8
  8
LAYER_1
 10
-5.620279956744564
 20
-46.46281222943871
 30
0.0
  0
VERTEX
  5
F9
  8
LAYER_1
 10
-4.502761362294507
 20
-46.58369199970394
 30
0.0
  0
VERTEX
  5
FA
  8
LAYER_1
 10
-3.383153798293244
 20
-46.67780054206706
 30
0.0
  0
VERTEX
  5
FB
  8
LAYER_1
 10
-2.2619770765429
 20
-46.74513766775651
 30
0.0
  0
VERTEX
  5
FC
  8
LAYER_1
 10
-1.139751008845604
 20
-46.78570318800077
 30
0.0
  0
VERTEX
  5
FD
  8
LAYER_1
 10
-0.0169954070034812
 20
-46.79949691402828
 30
0.0
  0
VERTEX
  5
FE
  8
LAYER_1
 10
1.105769917181341
 20
-46.78651865706752
 30
0.0
  0
VERTEX
  5
FF
  8
LAYER_1
 10
2.228025151906737
 20
-46.74676822834692
 30
0.0
  0
VERTEX
  5
100
  8
LAYER_1
 10
3.349250485370579
 20
-46.68024543909497
 30
0.0
  0
VERTEX
  5
101
  8
LAYER_1
 10
4.468926105770741
 20
-46.58695010054011
 30
0.0
  0
VERTEX
  5
102
  8
LAYER_1
 10
5.586532201305096
 20
-46.46688202391081
 30
0.0
  0
VERTEX
  5
103
  8
LAYER_1
 10
6.701548960171518
 20
-46.32004102043553
 30
0.0
  0
VERTEX
  5
104
  8
LAYER_1
 10
7.81345657056788
 20
-46.14642690134271
 30
0.0
  0
VERTEX
  5
105
  8
LAYER_1
 10
8.921735220692057
 20
-45.94603947786084
 30
0.0
  0
VERTEX
  5
106
  8
LAYER_1
 10
10.02586509874192
 20
-45.71887856121835
 30
0.0
  0
VERTEX
  5
107
  8
LAYER_1
 10
11.12532639291534
 20
-45.46494396264372
 30
0.0
  0
VERTEX
  5
108
  8
LAYER_1
 10
12.2195992914102
 20
-45.18423549336539
 30
0.0
  0
VERTEX
  5
109
  8
LAYER_1
 10
13.30816398242436
 20
-44.87675296461183
 30
0.0
  0
VERTEX
  5
10A
  8
LAYER_1
 10
14.39050065415571
 20
-44.5424961876115
 30
0.0
  0
VERTEX
  5
10B
  8
LAYER_1
 10
15.4660894948021
 20
-44.18146497359287
 30
0.0
  0
VERTEX
  5
10C
  8
LAYER_1
 10
16.53441069256143
 20
-43.79365913378437
 30
0.0
  0
VERTEX
  5
10D
  8
LAYER_1
 10
17.59494443563155
 20
-43.37907847941449
 30
0.0
  0
VERTEX
  5
10E
  8
LAYER_1
 10
18.64717091221036
 20
-42.93772282171167
 30
0.0
  0
VERTEX
  5
10F
  8
LAYER_1
 10
19.6905703104957
 20
-42.46959197190438
 30
0.0
  0
VERTEX
  5
110
  8
LAYER_1
 10
20.72462281868547
 20
-41.97468574122107
 30
0.0
  0
VERTEX
  5
111
  8
LAYER_1
 10
21.74880862497753
 20
-41.4530039408902
 30
0.0
  0
VERTEX
  5
112
  8
LAYER_1
 10
22.76260791756975
 20
-40.90454638214023
 30
0.0
  0
VERTEX
  5
113
  8
LAYER_1
 10
23.76550088466002
 20
-40.32931287619963
 30
0.0
  0
VERTEX
  5
114
  8
LAYER_1
 10
24.7569677144462
 20
-39.72730323429685
 30
0.0
  0
VERTEX
  5
115
  8
LAYER_1
 10
25.73648859512618
 20
-39.09851726766034
 30
0.0
  0
VERTEX
  5
116
  8
LAYER_1
 10
26.7035437148978
 20
-38.44295478751857
 30
0.0
  0
VERTEX
  5
117
  8
LAYER_1
 10
27.65761326195897
 20
-37.76061560510001
 30
0.0
  0
VERTEX
  5
118
  8
LAYER_1
 10
28.59817742450754
 20
-37.0514995316331
 30
0.0
  0
VERTEX
  5
119
  8
LAYER_1
 10
29.5247163907414
 20
-36.3156063783463
 30
0.0
  0
VERTEX
  5
11A
  8
LAYER_1
 10
29.98256398405215
 20
-35.93761833777934
 30
0.0
  0
VERTEX
  5
11B
  8
LAYER_1
 10
30.43671034885841
 20
-35.55293595646808
 30
0.0
  0
VERTEX
  5
11C
  8
LAYER_1
 10
30.88709050868493
 20
-35.16155921081608
 30
0.0
  0
VERTEX
  5
11D
  8
LAYER_1
 10
31.33363948705644
 20
-34.7634880772269
 30
0.0
  0
VERTEX
  5
11E
  8
LAYER_1
 10
31.77629230749768
 20
-34.35872253210408
 30
0.0
  0
VERTEX
  5
11F
  8
LAYER_1
 10
32.21498399353338
 20
-33.94726255185121
 30
0.0
  0
VERTEX
  5
120
  8
LAYER_1
 10
32.64964956868828
 20
-33.52910811287182
 30
0.0
  0
VERTEX
  5
121
  8
LAYER_1
 10
33.0802240564871
 20
-33.10425919156948
 30
0.0
  0
VERTEX
  5
122
  8
LAYER_1
 10
33.50538559506268
 20
-32.67399338815137
 30
0.0
  0
VERTEX
  5
123
  8
LAYER_1
 10
33.92385562446708
 20
-32.23963163620585
 30
0.0
  0
VERTEX
  5
124
  8
LAYER_1
 10
34.33563412110385
 20
-31.80123891220817
 30
0.0
  0
VERTEX
  5
125
  8
LAYER_1
 10
34.74072106137655
 20
-31.3588801926336
 30
0.0
  0
VERTEX
  5
126
  8
LAYER_1
 10
35.13911642168873
 20
-30.91262045395741
 30
0.0
  0
VERTEX
  5
127
  8
LAYER_1
 10
35.53082017844395
 20
-30.46252467265485
 30
0.0
  0
VERTEX
  5
128
  8
LAYER_1
 10
36.29415278689777
 20
-29.55108488807173
 30
0.0
  0
VERTEX
  5
129
  8
LAYER_1
 10
37.03071869796644
 20
-28.62508065068636
 30
0.0
  0
VERTEX
  5
12A
  8
LAYER_1
 10
37.74051772287844
 20
-27.68503177230088
 30
0.0
  0
VERTEX
  5
12B
  8
LAYER_1
 10
38.42354967286221
 20
-26.7314580647174
 30
0.0
  0
VERTEX
  5
12C
  8
LAYER_1
 10
39.07981435914623
 20
-25.76487933973806
 30
0.0
  0
VERTEX
  5
12D
  8
LAYER_1
 10
39.70931159295894
 20
-24.78581540916498
 30
0.0
  0
VERTEX
  5
12E
  8
LAYER_1
 10
40.31204118552881
 20
-23.79478608480029
 30
0.0
  0
VERTEX
  5
12F
  8
LAYER_1
 10
40.88800294808431
 20
-22.79231117844611
 30
0.0
  0
VERTEX
  5
130
  8
LAYER_1
 10
41.43719669185387
 20
-21.77891050190457
 30
0.0
  0
VERTEX
  5
131
  8
LAYER_1
 10
41.95962222806597
 20
-20.7551038669778
 30
0.0
  0
VERTEX
  5
132
  8
LAYER_1
 10
42.45527936794907
 20
-19.72141108546793
 30
0.0
  0
VERTEX
  5
133
  8
LAYER_1
 10
42.92416792273161
 20
-18.67835196917707
 30
0.0
  0
VERTEX
  5
134
  8
LAYER_1
 10
43.36628770364207
 20
-17.62644632990737
 30
0.0
  0
VERTEX
  5
135
  8
LAYER_1
 10
43.7816385219089
 20
-16.56621397946093
 30
0.0
  0
VERTEX
  5
136
  8
LAYER_1
 10
44.17022018876057
 20
-15.4981747296399
 30
0.0
  0
VERTEX
  5
137
  8
LAYER_1
 10
44.53203251542552
 20
-14.4228483922464
 30
0.0
  0
VERTEX
  5
138
  8
LAYER_1
 10
44.86707531313223
 20
-13.34075477908256
 30
0.0
  0
VERTEX
  5
139
  8
LAYER_1
 10
45.17534839310914
 20
-12.25241370195049
 30
0.0
  0
VERTEX
  5
13A
  8
LAYER_1
 10
45.45685156658472
 20
-11.15834497265233
 30
0.0
  0
VERTEX
  5
13B
  8
LAYER_1
 10
45.71158464478742
 20
-10.0590684029902
 30
0.0
  0
VERTEX
  5
13C
  8
LAYER_1
 10
45.93954743894572
 20
-8.955103804766233
 30
0.0
  0
VERTEX
  5
13D
  8
LAYER_1
 10
46.14073976028806
 20
-7.846970989782555
 30
0.0
  0
VERTEX
  5
13E
  8
LAYER_1
 10
46.31516142004291
 20
-6.735189769841289
 30
0.0
  0
VERTEX
  5
13F
  8
LAYER_1
 10
46.46281222943871
 20
-5.620279956744564
 30
0.0
  0
VERTEX
  5
140
  8
LAYER_1
 10
46.58369199970394
 20
-4.502761362294507
 30
0.0
  0
VERTEX
  5
141
  8
LAYER_1
 10
46.67780054206706
 20
-3.383153798293244
 30
0.0
  0
VERTEX
  5
142
  8
LAYER_1
 10
46.74513766775651
 20
-2.2619770765429
 30
0.0
  0
VERTEX
  5
143
  8
LAYER_1
 10
46.78570318800077
 20
-1.139751008845604
 30
0.0
  0
VERTEX
  5
144
  8
LAYER_1
 10
46.79949691402828
 20
-0.0169954070034812
 30
0.0
  0
VERTEX
  5
145
  8
LAYER_1
 10
46.78651865706752
 20
1.105769917181341
 30
0.0
  0
VERTEX
  5
146
  8
LAYER_1
 10
46.74676822834692
 20
2.228025151906737
 30
0.0
  0
VERTEX
  5
147
  8
LAYER_1
 10
46.68024543909497
 20
3.349250485370579
 30
0.0
  0
VERTEX
  5
148
  8
LAYER_1
 10
46.58695010054011
 20
4.468926105770741
 30
0.0
  0
VERTEX
  5
149
  8
LAYER_1
 10
46.46688202391081
 20
5.586532201305096
 30
0.0
  0
VERTEX
  5
14A
  8
LAYER_1
 10
46.32004102043553
 20
6.701548960171518
 30
0.0
  0
VERTEX
  5
14B
  8
LAYER_1
 10
46.14642690134271
 20
7.81345657056788
 30
0.0
  0
VERTEX
  5
14C
  8
LAYER_1
 10
45.94603947786084
 20
8.921735220692057
 30
0.0
  0
VERTEX
  5
14D
  8
LAYER_1
 10
45.71887856121835
 20
10.02586509874192
 30
0.0
  0
VERTEX
  5
14E
  8
LAYER_1
 10
45.46494396264372
 20
11.12532639291534
 30
0.0
  0
VERTEX
  5
14F
  8
LAYER_1
 10
45.18423549336539
 20
12.2195992914102
 30
0.0
  0
VERTEX
  5
150
  8
LAYER_1
 10
44.87675296461183
 20
13.30816398242436
 30
0.0
  0
VERTEX
  5
151
  8
LAYER_1
 10
44.5424961876115
 20
14.39050065415571
 30
0.0
  0
VERTEX
  5
152
  8
LAYER_1
 10
44.18146497359287
 20
15.4660894948021
 30
0.0
  0
VERTEX
  5
153
  8
LAYER_1
 10
43.79365913378437
 20
16.53441069256143
 30
0.0
  0
VERTEX
  5
154
  8
LAYER_1
 10
43.37907847941449
 20
17.59494443563155
 30
0.0
  0
VERTEX
  5
155
  8
LAYER_1
 10
42.93772282171167
 20
18.64717091221036
 30
0.0
  0
VERTEX
  5
156
  8
LAYER_1
 10
42.46959197190438
 20
19.6905703104957
 30
0.0
  0
VERTEX
  5
157
  8
LAYER_1
 10
41.97468574122107
 20
20.72462281868547
 30
0.0
  0
VERTEX
  5
158
  8
LAYER_1
 10
41.4530039408902
 20
21.74880862497753
 30
0.0
  0
VERTEX
  5
159
  8
LAYER_1
 10
40.90454638214023
 20
22.76260791756975
 30
0.0
  0
VERTEX
  5
15A
  8
LAYER_1
 10
40.32931287619963
 20
23.76550088466002
 30
0.0
  0
VERTEX
  5
15B
  8
LAYER_1
 10
39.72730323429685
 20
24.7569677144462
 30
0.0
  0
VERTEX
  5
15C
  8
LAYER_1
 10
39.09851726766034
 20
25.73648859512618
 30
0.0
  0
VERTEX
  5
15D
  8
LAYER_1
 10
38.44295478751857
 20
26.7035437148978
 30
0.0
  0
VERTEX
  5
15E
  8
LAYER_1
 10
37.76061560510001
 20
27.65761326195897
 30
0.0
  0
VERTEX
  5
15F
  8
LAYER_1
 10
37.0514995316331
 20
28.59817742450754
 30
0.0
  0
VERTEX
  5
160
  8
LAYER_1
 10
36.3156063783463
 20
29.5247163907414
 30
0.0
  0
VERTEX
  5
161
  8
LAYER_1
 10
35.93761833777934
 20
29.98256398405215
 30
0.0
  0
VERTEX
  5
162
  8
LAYER_1
 10
35.55293595646808
 20
30.43671034885841
 30
0.0
  0
VERTEX
  5
163
  8
LAYER_1
 10
35.16155921081608
 20
30.88709050868493
 30
0.0
  0
VERTEX
  5
164
  8
LAYER_1
 10
34.7634880772269
 20
31.33363948705644
 30
0.0
  0
VERTEX
  5
165
  8
LAYER_1
 10
34.35872253210408
 20
31.77629230749768
 30
0.0
  0
VERTEX
  5
166
  8
LAYER_1
 10
33.94726255185121
 20
32.21498399353338
 30
0.0
  0
VERTEX
  5
167
  8
LAYER_1
 10
33.52910811287182
 20
32.64964956868828
 30
0.0
  0
SEQEND
  5
168
  8
LAYER_1
  0
POLYLINE
  5
42
  8
LAYER_1
 66
     1
 10
0.0
 20
0.0
 30
0.0
 70
     1
  0
VERTEX
  5
169
  8
LAYER_1
 10
22.87203362326619
 20
22.85542752993655
 30
0.0
  0
VERTEX
  5
16A
  8
LAYER_1
 10
22.27465458501496
 20
23.43830024963181
 30
0.0
  0
VERTEX
  5
16B
  8
LAYER_1
 10
21.66613540581958
 20
24.00268000604198
 30
0.0
  0
VERTEX
  5
16C
  8
LAYER_1
 10
21.04683522837972
 20
24.54856666874311
 30
0.0
  0
VERTEX
  5
16D
  8
LAYER_1
 10
20.41711319539502
 20
25.07596010731119
 30
0.0
  0
VERTEX
  5
16E
  8
LAYER_1
 10
19.77732844956513
 20
25.58486019132228
 30
0.0
  0
VERTEX
  5
16F
  8
LAYER_1
 10
19.1278401335897
 20
26.07526679035238
 30
0.0
  0
VERTEX
  5
170
  8
LAYER_1
 10
18.46900739016839
 20
26.54717977397754
 30
0.0
  0
VERTEX
  5
171
  8
LAYER_1
 10
17.80118936200084
 20
27.00059901177377
 30
0.0
  0
VERTEX
  5
172
  8
LAYER_1
 10
17.12474519178672
 20
27.43552437331709
 30
0.0
  0
VERTEX
  5
173
  8
LAYER_1
 10
16.44003402222565
 20
27.85195572818355
 30
0.0
  0
VERTEX
  5
174
  8
LAYER_1
 10
15.74741499601731
 20
28.24989294594916
 30
0.0
  0
VERTEX
  5
175
  8
LAYER_1
 10
15.04724725586134
 20
28.62933589618995
 30
0.0
  0
VERTEX
  5
176
  8
LAYER_1
 10
14.33988994445739
 20
28.99028444848194
 30
0.0
  0
VERTEX
  5
177
  8
LAYER_1
 10
13.62570220450512
 20
29.33273847240118
 30
0.0
  0
VERTEX
  5
178
  8
LAYER_1
 10
12.90504317870416
 20
29.65669783752367
 30
0.0
  0
VERTEX
  5
179
  8
LAYER_1
 10
12.17827200975418
 20
29.96216241342544
 30
0.0
  0
VERTEX
  5
17A
  8
LAYER_1
 10
11.44574784035483
 20
30.24913206968252
 30
0.0
  0
VERTEX
  5
17B
  8
LAYER_1
 10
10.70782981320575
 20
30.51760667587094
 30
0.0
  0
VERTEX
  5
17C
  8
LAYER_1
 10
9.964877071006606
 20
30.76758610156673
 30
0.0
  0
VERTEX
  5
17D
  8
LAYER_1
 10
9.217248756457039
 20
30.99907021634591
 30
0.0
  0
VERTEX
  5
17E
  8
LAYER_1
 10
8.465304012256702
 20
31.2120588897845
 30
0.0
  0
VERTEX
  5
17F
  8
LAYER_1
 10
7.709401981105245
 20
31.40655199145854
 30
0.0
  0
VERTEX
  5
180
  8
LAYER_1
 10
6.949901805702321
 20
31.58254939094404
 30
0.0
  0
VERTEX
  5
181
  8
LAYER_1
 10
6.187162628747581
 20
31.74005095781705
 30
0.0
  0
VERTEX
  5
182
  8
LAYER_1
 10
5.421543592940676
 20
31.87905656165357
 30
0.0
  0
VERTEX
  5
183
  8
LAYER_1
 10
4.653403840981256
 20
31.99956607202965
 30
0.0
  0
VERTEX
  5
184
  8
LAYER_1
 10
3.883102515568973
 20
32.10157935852131
 30
0.0
  0
VERTEX
  5
185
  8
LAYER_1
 10
3.110998759403479
 20
32.18509629070455
 30
0.0
  0
VERTEX
  5
186
  8
LAYER_1
 10
2.337451715184424
 20
32.25011673815543
 30
0.0
  0
VERTEX
  5
187
  8
LAYER_1
 10
1.56282052561146
 20
32.29664057044995
 30
0.0
  0
VERTEX
  5
188
  8
LAYER_1
 10
0.7874643333842366
 20
32.32466765716416
 30
0.0
  0
VERTEX
  5
189
  8
LAYER_1
 10
0.0117422812024062
 20
32.33419786787408
 30
0.0
  0
VERTEX
  5
18A
  8
LAYER_1
 10
-0.7639864882343805
 20
32.32523107215574
 30
0.0
  0
VERTEX
  5
18B
  8
LAYER_1
 10
-1.539362832226472
 20
32.29776713958515
 30
0.0
  0
VERTEX
  5
18C
  8
LAYER_1
 10
-2.314027608074218
 20
32.25180593973835
 30
0.0
  0
VERTEX
  5
18D
  8
LAYER_1
 10
-3.087621673077966
 20
32.18734734219136
 30
0.0
  0
VERTEX
  5
18E
  8
LAYER_1
 10
-3.859785884538066
 20
32.1043912165202
 30
0.0
  0
VERTEX
  5
18F
  8
LAYER_1
 10
-4.630161099754867
 20
32.00293743230091
 30
0.0
  0
VERTEX
  5
190
  8
LAYER_1
 10
-5.398388176028718
 20
31.88298585910952
 30
0.0
  0
VERTEX
  5
191
  8
LAYER_1
 10
-6.164107970659966
 20
31.74453636652203
 30
0.0
  0
VERTEX
  5
192
  8
LAYER_1
 10
-6.926961340948962
 20
31.5875888241145
 30
0.0
  0
VERTEX
  5
193
  8
LAYER_1
 10
-7.686589144196055
 20
31.41214310146293
 30
0.0
  0
VERTEX
  5
194
  8
LAYER_1
 10
-8.442632237701591
 20
31.21819906814336
 30
0.0
  0
VERTEX
  5
195
  8
LAYER_1
 10
-9.194731478765924
 20
31.00575659373181
 30
0.0
  0
VERTEX
  5
196
  8
LAYER_1
 10
-9.942527724689397
 20
30.77481554780431
 30
0.0
  0
VERTEX
  5
197
  8
LAYER_1
 10
-10.68566183277236
 20
30.52537579993689
 30
0.0
  0
VERTEX
  5
198
  8
LAYER_1
 10
-11.42377466031517
 20
30.25743721970557
 30
0.0
  0
VERTEX
  5
199
  8
LAYER_1
 10
-12.15650706461816
 20
29.97099967668638
 30
0.0
  0
VERTEX
  5
19A
  8
LAYER_1
 10
-12.8834999029817
 20
29.66606304045533
 30
0.0
  0
VERTEX
  5
19B
  8
LAYER_1
 10
-13.60439403270612
 20
29.34262718058848
 30
0.0
  0
VERTEX
  5
19C
  8
LAYER_1
 10
-14.31883031109178
 20
29.00069196666183
 30
0.0
  0
VERTEX
  5
19D
  8
LAYER_1
 10
-15.02644959543902
 20
28.64025726825141
 30
0.0
  0
VERTEX
  5
19E
  8
LAYER_1
 10
-15.7268927430482
 20
28.26132295493325
 30
0.0
  0
VERTEX
  5
19F
  8
LAYER_1
 10
-16.41980061121966
 20
27.86388889628338
 30
0.0
  0
VERTEX
  5
1A0
  8
LAYER_1
 10
-17.10481405725375
 20
27.44795496187782
 30
0.0
  0
VERTEX
  5
1A1
  8
LAYER_1
 10
-17.78157393845082
 20
27.0135210212926
 30
0.0
  0
VERTEX
  5
1A2
  8
LAYER_1
 10
-18.44972111211122
 20
26.56058694410374
 30
0.0
  0
VERTEX
  5
1A3
  8
LAYER_1
 10
-19.1088964355353
 20
26.08915259988728
 30
0.0
  0
VERTEX
  5
1A4
  8
LAYER_1
 10
-19.7587407660234
 20
25.59921785821923
 30
0.0
  0
VERTEX
  5
1A5
  8
LAYER_1
 10
-20.39889496087589
 20
25.09078258867563
 30
0.0
  0
VERTEX
  5
1A6
  8
LAYER_1
 10
-21.02899987739309
 20
24.5638466608325
 30
0.0
  0
VERTEX
  5
1A7
  8
LAYER_1
 10
-21.64869637287537
 20
24.01840994426587
 30
0.0
  0
VERTEX
  5
1A8
  8
LAYER_1
 10
-22.25762530462308
 20
23.45447230855175
 30
0.0
  0
VERTEX
  5
1A9
  8
LAYER_1
 10
-22.85542752993655
 20
22.87203362326619
 30
0.0
  0
VERTEX
  5
1AA
  8
LAYER_1
 10
-23.43830024963181
 20
22.27465458501496
 30
0.0
  0
VERTEX
  5
1AB
  8
LAYER_1
 10
-24.00268000604198
 20
21.66613540581958
 30
0.0
  0
VERTEX
  5
1AC
  8
LAYER_1
 10
-24.54856666874311
 20
21.04683522837972
 30
0.0
  0
VERTEX
  5
1AD
  8
LAYER_1
 10
-25.07596010731119
 20
20.41711319539502
 30
0.0
  0
VERTEX
  5
1AE
  8
LAYER_1
 10
-25.58486019132228
 20
19.77732844956513
 30
0.0
  0
VERTEX
  5
1AF
  8
LAYER_1
 10
-26.07526679035238
 20
19.1278401335897
 30
0.0
  0
VERTEX
  5
1B0
  8
LAYER_1
 10
-26.54717977397754
 20
18.46900739016839
 30
0.0
  0
VERTEX
  5
1B1
  8
LAYER_1
 10
-27.00059901177377
 20
17.80118936200084
 30
0.0
  0
VERTEX
  5
1B2
  8
LAYER_1
 10
-27.43552437331709
 20
17.12474519178672
 30
0.0
  0
VERTEX
  5
1B3
  8
LAYER_1
 10
-27.85195572818355
 20
16.44003402222565
 30
0.0
  0
VERTEX
  5
1B4
  8
LAYER_1
 10
-28.24989294594916
 20
15.74741499601731
 30
0.0
  0
VERTEX
  5
1B5
  8
LAYER_1
 10
-28.62933589618995
 20
15.04724725586134
 30
0.0
  0
VERTEX
  5
1B6
  8
LAYER_1
 10
-28.99028444848194
 20
14.33988994445739
 30
0.0
  0
VERTEX
  5
1B7
  8
LAYER_1
 10
-29.33273847240118
 20
13.62570220450512
 30
0.0
  0
VERTEX
  5
1B8
  8
LAYER_1
 10
-29.65669783752367
 20
12.90504317870416
 30
0.0
  0
VERTEX
  5
1B9
  8
LAYER_1
 10
-29.96216241342544
 20
12.17827200975418
 30
0.0
  0
VERTEX
  5
1BA
  8
LAYER_1
 10
-30.24913206968252
 20
11.44574784035483
 30
0.0
  0
VERTEX
  5
1BB
  8
LAYER_1
 10
-30.51760667587094
 20
10.70782981320575
 30
0.0
  0
VERTEX
  5
1BC
  8
LAYER_1
 10
-30.76758610156673
 20
9.964877071006606
 30
0.0
  0
VERTEX
  5
1BD
  8
LAYER_1
 10
-30.99907021634591
 20
9.217248756457039
 30
0.0
  0
VERTEX
  5
1BE
  8
LAYER_1
 10
-31.2120588897845
 20
8.465304012256702
 30
0.0
  0
VERTEX
  5
1BF
  8
LAYER_1
 10
-31.40655199145854
 20
7.709401981105245
 30
0.0
  0
VERTEX
  5
1C0
  8
LAYER_1
 10
-31.58254939094404
 20
6.949901805702321
 30
0.0
  0
VERTEX
  5
1C1
  8
LAYER_1
 10
-31.74005095781705
 20
6.187162628747581
 30
0.0
  0
VERTEX
  5
1C2
  8
LAYER_1
 10
-31.87905656165357
 20
5.421543592940676
 30
0.0
  0
VERTEX
  5
1C3
  8
LAYER_1
 10
-31.99956607202965
 20
4.653403840981256
 30
0.0
  0
VERTEX
  5
1C4
  8
LAYER_1
 10
-32.10157935852131
 20
3.883102515568973
 30
0.0
  0
VERTEX
  5
1C5
  8
LAYER_1
 10
-32.18509629070455
 20
3.110998759403479
 30
0.0
  0
VERTEX
  5
1C6
  8
LAYER_1
 10
-32.25011673815543
 20
2.337451715184424
 30
0.0
  0
VERTEX
  5
1C7
  8
LAYER_1
 10
-32.29664057044995
 20
1.56282052561146
 30
0.0
  0
VERTEX
  5
1C8
  8
LAYER_1
 10
-32.32466765716416
 20
0.7874643333842366
 30
0.0
  0
VERTEX
  5
1C9
  8
LAYER_1
 10
-32.33419786787408
 20
0.0117422812024062
 30
0.0
  0
VERTEX
  5
1CA
  8
LAYER_1
 10
-32.32523107215574
 20
-0.7639864882343805
 30
0.0
  0
VERTEX
  5
1CB
  8
LAYER_1
 10
-32.29776713958515
 20
-1.539362832226472
 30
0.0
  0
VERTEX
  5
1CC
  8
LAYER_1
 10
-32.25180593973835
 20
-2.314027608074218
 30
0.0
  0
VERTEX
  5
1CD
  8
LAYER_1
 10
-32.18734734219136
 20
-3.087621673077966
 30
0.0
  0
VERTEX
  5
1CE
  8
LAYER_1
 10
-32.1043912165202
 20
-3.859785884538066
 30
0.0
  0
VERTEX
  5
1CF
  8
LAYER_1
 10
-32.00293743230091
 20
-4.630161099754867
 30
0.0
  0
VERTEX
  5
1D0
  8
LAYER_1
 10
-31.88298585910952
 20
-5.398388176028718
 30
0.0
  0
VERTEX
  5
1D1
  8
LAYER_1
 10
-31.74453636652203
 20
-6.164107970659966
 30
0.0
  0
VERTEX
  5
1D2
  8
LAYER_1
 10
-31.5875888241145
 20
-6.926961340948962
 30
0.0
  0
VERTEX
  5
1D3
  8
LAYER_1
 10
-31.41214310146293
 20
-7.686589144196055
 30
0.0
  0
VERTEX
  5
1D4
  8
LAYER_1
 10
-31.21819906814336
 20
-8.442632237701591
 30
0.0
  0
VERTEX
  5
1D5
  8
LAYER_1
 10
-31.00575659373181
 20
-9.194731478765924
 30
0.0
  0
VERTEX
  5
1D6
  8
LAYER_1
 10
-30.77481554780431
 20
-9.942527724689397
 30
0.0
  0
VERTEX
  5
1D7
  8
LAYER_1
 10
-30.52537579993689
 20
-10.68566183277236
 30
0.0
  0
VERTEX
  5
1D8
  8
LAYER_1
 10
-30.25743721970557
 20
-11.42377466031517
 30
0.0
  0
VERTEX
  5
1D9
  8
LAYER_1
 10
-29.97099967668638
 20
-12.15650706461816
 30
0.0
  0
VERTEX
  5
1DA
  8
LAYER_1
 10
-29.66606304045533
 20
-12.8834999029817
 30
0.0
  0
VERTEX
  5
1DB
  8
LAYER_1
 10
-29.34262718058848
 20
-13.60439403270612
 30
0.0
  0
VERTEX
  5
1DC
  8
LAYER_1
 10
-29.00069196666183
 20
-14.31883031109178
 30
0.0
  0
VERTEX
  5
1DD
  8
LAYER_1
 10
-28.64025726825141
 20
-15.02644959543902
 30
0.0
  0
VERTEX
  5
1DE
  8
LAYER_1
 10
-28.26132295493325
 20
-15.7268927430482
 30
0.0
  0
VERTEX
  5
1DF
  8
LAYER_1
 10
-27.86388889628338
 20
-16.41980061121966
 30
0.0
  0
VERTEX
  5
1E0
  8
LAYER_1
 10
-27.44795496187782
 20
-17.10481405725375
 30
0.0
  0
VERTEX
  5
1E1
  8
LAYER_1
 10
-27.0135210212926
 20
-17.78157393845082
 30
0.0
  0
VERTEX
  5
1E2
  8
LAYER_1
 10
-26.56058694410374
 20
-18.44972111211122
 30
0.0
  0
VERTEX
  5
1E3
  8
LAYER_1
 10
-26.08915259988728
 20
-19.1088964355353
 30
0.0
  0
VERTEX
  5
1E4
  8
LAYER_1
 10
-25.59921785821923
 20
-19.7587407660234
 30
0.0
  0
VERTEX
  5
1E5
  8
LAYER_1
 10
-25.09078258867563
 20
-20.39889496087589
 30
0.0
  0
VERTEX
  5
1E6
  8
LAYER_1
 10
-24.5638466608325
 20
-21.02899987739309
 30
0.0
  0
VERTEX
  5
1E7
  8
LAYER_1
 10
-24.01840994426587
 20
-21.64869637287537
 30
0.0
  0
VERTEX
  5
1E8
  8
LAYER_1
 10
-23.45447230855175
 20
-22.25762530462308
 30
0.0
  0
VERTEX
  5
1E9
  8
LAYER_1
 10
-22.87203362326619
 20
-22.85542752993655
 30
0.0
  0
VERTEX
  5
1EA
  8
LAYER_1
 10
-22.27465458501496
 20
-23.43830024963181
 30
0.0
  0
VERTEX
  5
1EB
  8
LAYER_1
 10
-21.66613540581958
 20
-24.00268000604198
 30
0.0
  0
VERTEX
  5
1EC
  8
LAYER_1
 10
-21.04683522837972
 20
-24.54856666874311
 30
0.0
  0
VERTEX
  5
1ED
  8
LAYER_1
 10
-20.41711319539502
 20
-25.07596010731119
 30
0.0
  0
VERTEX
  5
1EE
  8
LAYER_1
 10
-19.77732844956513
 20
-25.58486019132228
 30
0.0
  0
VERTEX
  5
1EF
  8
LAYER_1
 10
-19.1278401335897
 20
-26.07526679035238
 30
0.0
  0
VERTEX
  5
1F0
  8
LAYER_1
 10
-18.46900739016839
 20
-26.54717977397754
 30
0.0
  0
VERTEX
  5
1F1
  8
LAYER_1
 10
-17.80118936200084
 20
-27.00059901177377
 30
0.0
  0
VERTEX
  5
1F2
  8
LAYER_1
 10
-17.12474519178672
 20
-27.43552437331709
 30
0.0
  0
VERTEX
  5
1F3
  8
LAYER_1
 10
-16.44003402222565
 20
-27.85195572818355
 30
0.0
  0
VERTEX
  5
1F4
  8
LAYER_1
 10
-15.74741499601731
 20
-28.24989294594916
 30
0.0
  0
VERTEX
  5
1F5
  8
LAYER_1
 10
-15.04724725586134
 20
-28.62933589618995
 30
0.0
  0
VERTEX
  5
1F6
  8
LAYER_1
 10
-14.33988994445739
 20
-28.99028444848194
 30
0.0
  0
VERTEX
  5
1F7
  8
LAYER_1
 10
-13.62570220450512
 20
-29.33273847240118
 30
0.0
  0
VERTEX
  5
1F8
  8
LAYER_1
 10
-12.90504317870416
 20
-29.65669783752367
 30
0.0
  0
VERTEX
  5
1F9
  8
LAYER_1
 10
-12.17827200975418
 20
-29.96216241342544
 30
0.0
  0
VERTEX
  5
1FA
  8
LAYER_1
 10
-11.44574784035483
 20
-30.24913206968252
 30
0.0
  0
VERTEX
  5
1FB
  8
LAYER_1
 10
-10.70782981320575
 20
-30.51760667587094
 30
0.0
  0
VERTEX
  5
1FC
  8
LAYER_1
 10
-9.964877071006606
 20
-30.76758610156673
 30
0.0
  0
VERTEX
  5
1FD
  8
LAYER_1
 10
-9.217248756457039
 20
-30.99907021634591
 30
0.0
  0
VERTEX
  5
1FE
  8
LAYER_1
 10
-8.465304012256702
 20
-31.2120588897845
 30
0.0
  0
VERTEX
  5
1FF
  8
LAYER_1
 10
-7.709401981105245
 20
-31.40655199145854
 30
0.0
  0
VERTEX
  5
200
  8
LAYER_1
 10
-6.949901805702321
 20
-31.58254939094404
 30
0.0
  0
VERTEX
  5
201
  8
LAYER_1
 10
-6.187162628747581
 20
-31.74005095781705
 30
0.0
  0
VERTEX
  5
202
  8
LAYER_1
 10
-5.421543592940676
 20
-31.87905656165357
 30
0.0
  0
VERTEX
  5
203
  8
LAYER_1
 10
-4.653403840981256
 20
-31.99956607202965
 30
0.0
  0
VERTEX
  5
204
  8
LAYER_1
 10
-3.883102515568973
 20
-32.10157935852131
 30
0.0
  0
VERTEX
  5
205
  8
LAYER_1
 10
-3.110998759403479
 20
-32.18509629070455
 30
0.0
  0
VERTEX
  5
206
  8
LAYER_1
 10
-2.337451715184424
 20
-32.25011673815543
 30
0.0
  0
VERTEX
  5
207
  8
LAYER_1
 10
-1.56282052561146
 20
-32.29664057044995
 30
0.0
  0
VERTEX
  5
208
  8
LAYER_1
 10
-0.7874643333842366
 20
-32.32466765716416
 30
0.0
  0
VERTEX
  5
209
  8
LAYER_1
 10
-0.0117422812024062
 20
-32.33419786787408
 30
0.0
  0
VERTEX
  5
20A
  8
LAYER_1
 10
0.7639864882343805
 20
-32.32523107215574
 30
0.0
  0
VERTEX
  5
20B
  8
LAYER_1
 10
1.539362832226472
 20
-32.29776713958515
 30
0.0
  0
VERTEX
  5
20C
  8
LAYER_1
 10
2.314027608074218
 20
-32.25180593973835
 30
0.0
  0
VERTEX
  5
20D
  8
LAYER_1
 10
3.087621673077966
 20
-32.18734734219136
 30
0.0
  0
VERTEX
  5
20E
  8
LAYER_1
 10
3.859785884538066
 20
-32.1043912165202
 30
0.0
  0
VERTEX
  5
20F
  8
LAYER_1
 10
4.630161099754867
 20
-32.00293743230091
 30
0.0
  0
VERTEX
  5
210
  8
LAYER_1
 10
5.398388176028718
 20
-31.88298585910952
 30
0.0
  0
VERTEX
  5
211
  8
LAYER_1
 10
6.164107970659966
 20
-31.74453636652203
 30
0.0
  0
VERTEX
  5
212
  8
LAYER_1
 10
6.926961340948962
 20
-31.5875888241145
 30
0.0
  0
VERTEX
  5
213
  8
LAYER_1
 10
7.686589144196055
 20
-31.41214310146293
 30
0.0
  0
VERTEX
  5
214
  8
LAYER_1
 10
8.442632237701591
 20
-31.21819906814336
 30
0.0
  0
VERTEX
  5
215
  8
LAYER_1
 10
9.194731478765924
 20
-31.00575659373181
 30
0.0
  0
VERTEX
  5
216
  8
LAYER_1
 10
9.942527724689397
 20
-30.77481554780431
 30
0.0
  0
VERTEX
  5
217
  8
LAYER_1
 10
10.68566183277236
 20
-30.52537579993689
 30
0.0
  0
VERTEX
  5
218
  8
LAYER_1
 10
11.42377466031517
 20
-30.25743721970557
 30
0.0
  0
VERTEX
  5
219
  8
LAYER_1
 10
12.15650706461816
 20
-29.97099967668638
 30
0.0
  0
VERTEX
  5
21A
  8
LAYER_1
 10
12.8834999029817
 20
-29.66606304045533
 30
0.0
  0
VERTEX
  5
21B
  8
LAYER_1
 10
13.60439403270612
 20
-29.34262718058848
 30
0.0
  0
VERTEX
  5
21C
  8
LAYER_1
 10
14.31883031109178
 20
-29.00069196666183
 30
0.0
  0
VERTEX
  5
21D
  8
LAYER_1
 10
15.02644959543902
 20
-28.64025726825141
 30
0.0
  0
VERTEX
  5
21E
  8
LAYER_1
 10
15.7268927430482
 20
-28.26132295493325
 30
0.0
  0
VERTEX
  5
21F
  8
LAYER_1
 10
16.41980061121966
 20
-27.86388889628338
 30
0.0
  0
VERTEX
  5
220
  8
LAYER_1
 10
17.10481405725375
 20
-27.44795496187782
 30
0.0
  0
VERTEX
  5
221
  8
LAYER_1
 10
17.78157393845082
 20
-27.0135210212926
 30
0.0
  0
VERTEX
  5
222
  8
LAYER_1
 10
18.44972111211122
 20
-26.56058694410374
 30
0.0
  0
VERTEX
  5
223
  8
LAYER_1
 10
19.1088964355353
 20
-26.08915259988728
 30
0.0
  0
VERTEX
  5
224
  8
LAYER_1
 10
19.7587407660234
 20
-25.59921785821923
 30
0.0
  0
VERTEX
  5
225
  8
LAYER_1
 10
20.39889496087589
 20
-25.09078258867563
 30
0.0
  0
VERTEX
  5
226
  8
LAYER_1
 10
21.02899987739309
 20
-24.5638466608325
 30
0.0
  0
VERTEX
  5
227
  8
LAYER_1
 10
21.64869637287537
 20
-24.01840994426587
 30
0.0
  0
VERTEX
  5
228
  8
LAYER_1
 10
22.25762530462308
 20
-23.45447230855175
 30
0.0
  0
VERTEX
  5
229
  8
LAYER_1
 10
22.85542752993655
 20
-22.87203362326619
 30
0.0
  0
VERTEX
  5
22A
  8
LAYER_1
 10
23.43830024963181
 20
-22.27465458501496
 30
0.0
  0
VERTEX
  5
22B
  8
LAYER_1
 10
24.00268000604198
 20
-21.66613540581958
 30
0.0
  0
VERTEX
  5
22C
  8
LAYER_1
 10
24.54856666874311
 20
-21.04683522837972
 30
0.0
  0
VERTEX
  5
22D
  8
LAYER_1
 10
25.07596010731119
 20
-20.41711319539502
 30
0.0
  0
VERTEX
  5
22E
  8
LAYER_1
 10
25.58486019132228
 20
-19.77732844956513
 30
0.0
  0
VERTEX
  5
22F
  8
LAYER_1
 10
26.07526679035238
 20
-19.1278401335897
 30
0.0
  0
VERTEX
  5
230
  8
LAYER_1
 10
26.54717977397754
 20
-18.46900739016839
 30
0.0
  0
VERTEX
  5
231
  8
LAYER_1
 10
27.00059901177377
 20
-17.80118936200084
 30
0.0
  0
VERTEX
  5
232
  8
LAYER_1
 10
27.43552437331709
 20
-17.12474519178672
 30
0.0
  0
VERTEX
  5
233
  8
LAYER_1
 10
27.85195572818355
 20
-16.44003402222565
 30
0.0
  0
VERTEX
  5
234
  8
LAYER_1
 10
28.24989294594916
 20
-15.74741499601731
 30
0.0
  0
VERTEX
  5
235
  8
LAYER_1
 10
28.62933589618995
 20
-15.04724725586134
 30
0.0
  0
VERTEX
  5
236
  8
LAYER_1
 10
28.99028444848194
 20
-14.33988994445739
 30
0.0
  0
VERTEX
  5
237
  8
LAYER_1
 10
29.33273847240118
 20
-13.62570220450512
 30
0.0
  0
VERTEX
  5
238
  8
LAYER_1
 10
29.65669783752367
 20
-12.90504317870416
 30
0.0
  0
VERTEX
  5
239
  8
LAYER_1
 10
29.96216241342544
 20
-12.17827200975418
 30
0.0
  0
VERTEX
  5
23A
  8
LAYER_1
 10
30.24913206968252
 20
-11.44574784035483
 30
0.0
  0
VERTEX
  5
23B
  8
LAYER_1
 10
30.51760667587094
 20
-10.70782981320575
 30
0.0
  0
VERTEX
  5
23C
  8
LAYER_1
 10
30.76758610156673
 20
-9.964877071006606
 30
0.0
  0
VERTEX
  5
23D
  8
LAYER_1
 10
30.99907021634591
 20
-9.217248756457039
 30
0.0
  0
VERTEX
  5
23E
  8
LAYER_1
 10
31.2120588897845
 20
-8.465304012256702
 30
0.0
  0
VERTEX
  5
23F
  8
LAYER_1
 10
31.40655199145854
 20
-7.709401981105245
 30
0.0
  0
VERTEX
  5
240
  8
LAYER_1
 10
31.58254939094404
 20
-6.949901805702321
 30
0.0
  0
VERTEX
  5
241
  8
LAYER_1
 10
31.74005095781705
 20
-6.187162628747581
 30
0.0
  0
VERTEX
  5
242
  8
LAYER_1
 10
31.87905656165357
 20
-5.421543592940676
 30
0.0
  0
VERTEX
  5
243
  8
LAYER_1
 10
31.99956607202965
 20
-4.653403840981256
 30
0.0
  0
VERTEX
  5
244
  8
LAYER_1
 10
32.10157935852131
 20
-3.883102515568973
 30
0.0
  0
VERTEX
  5
245
  8
LAYER_1
 10
32.18509629070455
 20
-3.110998759403479
 30
0.0
  0
VERTEX
  5
246
  8
LAYER_1
 10
32.25011673815543
 20
-2.337451715184424
 30
0.0
  0
VERTEX
  5
247
  8
LAYER_1
 10
32.29664057044995
 20
-1.56282052561146
 30
0.0
  0
VERTEX
  5
248
  8
LAYER_1
 10
32.32466765716416
 20
-0.7874643333842366
 30
0.0
  0
VERTEX
  5
249
  8
LAYER_1
 10
32.33419786787408
 20
-0.0117422812024062
 30
0.0
  0
VERTEX
  5
24A
  8
LAYER_1
 10
32.32523107215574
 20
0.7639864882343805
 30
0.0
  0
VERTEX
  5
24B
  8
LAYER_1
 10
32.29776713958515
 20
1.539362832226472
 30
0.0
  0
VERTEX
  5
24C
  8
LAYER_1
 10
32.25180593973835
 20
2.314027608074218
 30
0.0
  0
VERTEX
  5
24D
  8
LAYER_1
 10
32.18734734219136
 20
3.087621673077966
 30
0.0
  0
VERTEX
  5
24E
  8
LAYER_1
 10
32.1043912165202
 20
3.859785884538066
 30
0.0
  0
VERTEX
  5
24F
  8
LAYER_1
 10
32.00293743230091
 20
4.630161099754867
 30
0.0
  0
VERTEX
  5
250
  8
LAYER_1
 10
31.88298585910952
 20
5.398388176028718
 30
0.0
  0
VERTEX
  5
251
  8
LAYER_1
 10
31.74453636652203
 20
6.164107970659966
 30
0.0
  0
VERTEX
  5
252
  8
LAYER_1
 10
31.5875888241145
 20
6.926961340948962
 30
0.0
  0
VERTEX
  5
253
  8
LAYER_1
 10
31.41214310146293
 20
7.686589144196055
 30
0.0
  0
VERTEX
  5
254
  8
LAYER_1
 10
31.21819906814336
 20
8.442632237701591
 30
0.0
  0
VERTEX
  5
255
  8
LAYER_1
 10
31.00575659373181
 20
9.194731478765924
 30
0.0
  0
VERTEX
  5
256
  8
LAYER_1
 10
30.77481554780431
 20
9.942527724689397
 30
0.0
  0
VERTEX
  5
257
  8
LAYER_1
 10
30.52537579993689
 20
10.68566183277236
 30
0.0
  0
VERTEX
  5
258
  8
LAYER_1
 10
30.25743721970557
 20
11.42377466031517
 30
0.0
  0
VERTEX
  5
259
  8
LAYER_1
 10
29.97099967668638
 20
12.15650706461816
 30
0.0
  0
VERTEX
  5
25A
  8
LAYER_1
 10
29.66606304045533
 20
12.8834999029817
 30
0.0
  0
VERTEX
  5
25B
  8
LAYER_1
 10
29.34262718058848
 20
13.60439403270612
 30
0.0
  0
VERTEX
  5
25C
  8
LAYER_1
 10
29.00069196666183
 20
14.31883031109178
 30
0.0
  0
VERTEX
  5
25D
  8
LAYER_1
 10
28.64025726825141
 20
15.02644959543902
 30
0.0
  0
VERTEX
  5
25E
  8
LAYER_1
 10
28.26132295493325
 20
15.7268927430482
 30
0.0
  0
VERTEX
  5
25F
  8
LAYER_1
 10
27.86388889628338
 20
16.41980061121966
 30
0.0
  0
VERTEX
  5
260
  8
LAYER_1
 10
27.44795496187782
 20
17.10481405725375
 30
0.0
  0
VERTEX
  5
261
  8
LAYER_1
 10
27.0135210212926
 20
17.78157393845082
 30
0.0
  0
VERTEX
  5
262
  8
LAYER_1
 10
26.56058694410374
 20
18.44972111211122
 30
0.0
  0
VERTEX
  5
263
  8
LAYER_1
 10
26.08915259988728
 20
19.1088964355353
 30
0.0
  0
VERTEX
  5
264
  8
LAYER_1
 10
25.59921785821923
 20
19.7587407660234
 30
0.0
  0
VERTEX
  5
265
  8
LAYER_1
 10
25.09078258867563
 20
20.39889496087589
 30
0.0
  0
VERTEX
  5
266
  8
LAYER_1
 10
24.5638466608325
 20
21.02899987739309
 30
0.0
  0
VERTEX
  5
267
  8
LAYER_1
 10
24.01840994426587
 20
21.64869637287537
 30
0.0
  0
VERTEX
  5
268
  8
LAYER_1
 10
23.45447230855175
 20
22.25762530462308
 30
0.0
  0
SEQEND
  5
269
  8
LAYER_1
  0
POLYLINE
  5
43
  8
LAYER_1
 66
     1
 10
0.0
 20
0.0
 30
0.0
 70
     1
  0
VERTEX
  5
26A
  8
LAYER_1
 10
29.54222406730475
 20
29.52077512498037
 30
0.0
  0
VERTEX
  5
26B
  8
LAYER_1
 10
29.37541289918939
 20
29.67165970309735
 30
0.0
  0
VERTEX
  5
26C
  8
LAYER_1
 10
29.19766159393519
 20
29.80243838749328
 30
0.0
  0
VERTEX
  5
26D
  8
LAYER_1
 10
29.01053198499484
 20
29.91311061098267
 30
0.0
  0
VERTEX
  5
26E
  8
LAYER_1
 10
28.81558590582102
 20
30.00367580638005
 30
0.0
  0
VERTEX
  5
26F
  8
LAYER_1
 10
28.61438518986643
 20
30.07413340649994
 30
0.0
  0
VERTEX
  5
270
  8
LAYER_1
 10
28.40849167058374
 20
30.12448284415686
 30
0.0
  0
VERTEX
  5
271
  8
LAYER_1
 10
28.19946718142563
 20
30.15472355216531
 30
0.0
  0
VERTEX
  5
272
  8
LAYER_1
 10
27.9888735558448
 20
30.16485496333983
 30
0.0
  0
VERTEX
  5
273
  8
LAYER_1
 10
27.77827262729394
 20
30.15487651049494
 30
0.0
  0
VERTEX
  5
274
  8
LAYER_1
 10
27.56922622922572
 20
30.12478762644513
 30
0.0
  0
VERTEX
  5
275
  8
LAYER_1
 10
27.36329619509283
 20
30.07458774400495
 30
0.0
  0
VERTEX
  5
276
  8
LAYER_1
 10
27.16204435834796
 20
30.0042762959889
 30
0.0
  0
VERTEX
  5
277
  8
LAYER_1
 10
26.9670325524438
 20
29.91385271521151
 30
0.0
  0
VERTEX
  5
278
  8
LAYER_1
 10
26.77982261083302
 20
29.80331643448728
 30
0.0
  0
VERTEX
  5
279
  8
LAYER_1
 10
26.60197636696831
 20
29.67266688663075
 30
0.0
  0
VERTEX
  5
27A
  8
LAYER_1
 10
26.43505565430237
 20
29.52190350445642
 30
0.0
  0
VERTEX
  5
27B
  8
LAYER_1
 10
26.28417107618539
 20
29.35509233634106
 30
0.0
  0
VERTEX
  5
27C
  8
LAYER_1
 10
26.15339239178947
 20
29.17734103108686
 30
0.0
  0
VERTEX
  5
27D
  8
LAYER_1
 10
26.04272016830007
 20
28.99021142214651
 30
0.0
  0
VERTEX
  5
27E
  8
LAYER_1
 10
25.95215497290269
 20
28.79526534297269
 30
0.0
  0
VERTEX
  5
27F
  8
LAYER_1
 10
25.8816973727828
 20
28.59406462701809
 30
0.0
  0
VERTEX
  5
280
  8
LAYER_1
 10
25.83134793512588
 20
28.3881711077354
 30
0.0
  0
VERTEX
  5
281
  8
LAYER_1
 10
25.80110722711742
 20
28.1791466185773
 30
0.0
  0
VERTEX
  5
282
  8
LAYER_1
 10
25.7909758159429
 20
27.96855299299647
 30
0.0
  0
VERTEX
  5
283
  8
LAYER_1
 10
25.80095426878781
 20
27.7579520644456
 30
0.0
  0
VERTEX
  5
284
  8
LAYER_1
 10
25.8310431528376
 20
27.54890566637739
 30
0.0
  0
VERTEX
  5
285
  8
LAYER_1
 10
25.88124303527778
 20
27.3429756322445
 30
0.0
  0
VERTEX
  5
286
  8
LAYER_1
 10
25.95155448329383
 20
27.14172379549963
 30
0.0
  0
VERTEX
  5
287
  8
LAYER_1
 10
26.04197806407123
 20
26.94671198959546
 30
0.0
  0
VERTEX
  5
288
  8
LAYER_1
 10
26.15251434479545
 20
26.75950204798469
 30
0.0
  0
VERTEX
  5
289
  8
LAYER_1
 10
26.28316389265198
 20
26.58165580411998
 30
0.0
  0
VERTEX
  5
28A
  8
LAYER_1
 10
26.43392727482631
 20
26.41473509145404
 30
0.0
  0
VERTEX
  5
28B
  8
LAYER_1
 10
26.60073844294168
 20
26.26385051333706
 30
0.0
  0
VERTEX
  5
28C
  8
LAYER_1
 10
26.77848974819587
 20
26.13307182894114
 30
0.0
  0
VERTEX
  5
28D
  8
LAYER_1
 10
26.96561935713623
 20
26.02239960545174
 30
0.0
  0
VERTEX
  5
28E
  8
LAYER_1
 10
27.16056543631004
 20
25.93183441005436
 30
0.0
  0
VERTEX
  5
28F
  8
LAYER_1
 10
27.36176615226464
 20
25.86137680993447
 30
0.0
  0
VERTEX
  5
290
  8
LAYER_1
 10
27.56765967154733
 20
25.81102737227755
 30
0.0
  0
VERTEX
  5
291
  8
LAYER_1
 10
27.77668416070544
 20
25.78078666426909
 30
0.0
  0
VERTEX
  5
292
  8
LAYER_1
 10
27.98727778628626
 20
25.77065525309457
 30
0.0
  0
VERTEX
  5
293
  8
LAYER_1
 10
28.19787871483713
 20
25.78063370593947
 30
0.0
  0
VERTEX
  5
294
  8
LAYER_1
 10
28.40692511290535
 20
25.81072258998928
 30
0.0
  0
VERTEX
  5
295
  8
LAYER_1
 10
28.61285514703824
 20
25.86092247242946
 30
0.0
  0
VERTEX
  5
296
  8
LAYER_1
 10
28.81410698378311
 20
25.93123392044551
 30
0.0
  0
VERTEX
  5
297
  8
LAYER_1
 10
29.00911878968727
 20
26.0216575012229
 30
0.0
  0
VERTEX
  5
298
  8
LAYER_1
 10
29.19632873129805
 20
26.13219378194712
 30
0.0
  0
VERTEX
  5
299
  8
LAYER_1
 10
29.37417497516276
 20
26.26284332980366
 30
0.0
  0
VERTEX
  5
29A
  8
LAYER_1
 10
29.5410956878287
 20
26.41360671197798
 30
0.0
  0
VERTEX
  5
29B
  8
LAYER_1
 10
29.69198026594567
 20
26.58041788009334
 30
0.0
  0
VERTEX
  5
29C
  8
LAYER_1
 10
29.8227589503416
 20
26.75816918534754
 30
0.0
  0
VERTEX
  5
29D
  8
LAYER_1
 10
29.933431173831
 20
26.94529879428789
 30
0.0
  0
VERTEX
  5
29E
  8
LAYER_1
 10
30.02399636922838
 20
27.14024487346171
 30
0.0
  0
VERTEX
  5
29F
  8
LAYER_1
 10
30.09445396934827
 20
27.34144558941631
 30
0.0
  0
VERTEX
  5
2A0
  8
LAYER_1
 10
30.14480340700518
 20
27.547339108699
 30
0.0
  0
VERTEX
  5
2A1
  8
LAYER_1
 10
30.17504411501364
 20
27.75636359785711
 30
0.0
  0
VERTEX
  5
2A2
  8
LAYER_1
 10
30.18517552618817
 20
27.96695722343793
 30
0.0
  0
VERTEX
  5
2A3
  8
LAYER_1
 10
30.17519707334327
 20
28.1775581519888
 30
0.0
  0
VERTEX
  5
2A4
  8
LAYER_1
 10
30.14510818929347
 20
28.38660455005702
 30
0.0
  0
VERTEX
  5
2A5
  8
LAYER_1
 10
30.09490830685328
 20
28.59253458418991
 30
0.0
  0
VERTEX
  5
2A6
  8
LAYER_1
 10
30.02459685883723
 20
28.79378642093478
 30
0.0
  0
VERTEX
  5
2A7
  8
LAYER_1
 10
29.93417327805984
 20
28.98879822683895
 30
0.0
  0
VERTEX
  5
2A8
  8
LAYER_1
 10
29.82363699733562
 20
29.17600816844973
 30
0.0
  0
VERTEX
  5
2A9
  8
LAYER_1
 10
29.69298744947908
 20
29.35385441231443
 30
0.0
  0
SEQEND
  5
2AA
  8
LAYER_1
  0
POLYLINE
  5
44
  8
LAYER_1
 66
     1
 10
0.0
 20
0.0
 30
0.0
 70
     1
  0
VERTEX
  5
2AB
  8
LAYER_1
 10
29.52190350445642
 20
-26.43505565430237
 30
0.0
  0
VERTEX
  5
2AC
  8
LAYER_1
 10
29.35509233634106
 20
-26.28417107618539
 30
0.0
  0
VERTEX
  5
2AD
  8
LAYER_1
 10
29.17734103108686
 20
-26.15339239178947
 30
0.0
  0
VERTEX
  5
2AE
  8
LAYER_1
 10
28.99021142214651
 20
-26.04272016830007
 30
0.0
  0
VERTEX
  5
2AF
  8
LAYER_1
 10
28.79526534297269
 20
-25.95215497290269
 30
0.0
  0
VERTEX
  5
2B0
  8
LAYER_1
 10
28.59406462701809
 20
-25.8816973727828
 30
0.0
  0
VERTEX
  5
2B1
  8
LAYER_1
 10
28.3881711077354
 20
-25.83134793512588
 30
0.0
  0
VERTEX
  5
2B2
  8
LAYER_1
 10
28.1791466185773
 20
-25.80110722711742
 30
0.0
  0
VERTEX
  5
2B3
  8
LAYER_1
 10
27.96855299299647
 20
-25.7909758159429
 30
0.0
  0
VERTEX
  5
2B4
  8
LAYER_1
 10
27.7579520644456
 20
-25.80095426878781
 30
0.0
  0
VERTEX
  5
2B5
  8
LAYER_1
 10
27.54890566637739
 20
-25.8310431528376
 30
0.0
  0
VERTEX
  5
2B6
  8
LAYER_1
 10
27.3429756322445
 20
-25.88124303527778
 30
0.0
  0
VERTEX
  5
2B7
  8
LAYER_1
 10
27.14172379549963
 20
-25.95155448329383
 30
0.0
  0
VERTEX
  5
2B8
  8
LAYER_1
 10
26.94671198959546
 20
-26.04197806407123
 30
0.0
  0
VERTEX
  5
2B9
  8
LAYER_1
 10
26.75950204798469
 20
-26.15251434479545
 30
0.0
  0
VERTEX
  5
2BA
  8
LAYER_1
 10
26.58165580411998
 20
-26.28316389265198
 30
0.0
  0
VERTEX
  5
2BB
  8
LAYER_1
 10
26.41473509145404
 20
-26.43392727482631
 30
0.0
  0
VERTEX
  5
2BC
  8
LAYER_1
 10
26.26385051333706
 20
-26.60073844294168
 30
0.0
  0
VERTEX
  5
2BD
  8
LAYER_1
 10
26.13307182894114
 20
-26.77848974819587
 30
0.0
  0
VERTEX
  5
2BE
  8
LAYER_1
 10
26.02239960545174
 20
-26.96561935713623
 30
0.0
  0
VERTEX
  5
2BF
  8
LAYER_1
 10
25.93183441005436
 20
-27.16056543631004
 30
0.0
  0
VERTEX
  5
2C0
  8
LAYER_1
 10
25.86137680993447
 20
-27.36176615226464
 30
0.0
  0
VERTEX
  5
2C1
  8
LAYER_1
 10
25.81102737227755
 20
-27.56765967154733
 30
0.0
  0
VERTEX
  5
2C2
  8
LAYER_1
 10
25.78078666426909
 20
-27.77668416070544
 30
0.0
  0
VERTEX
  5
2C3
  8
LAYER_1
 10
25.77065525309457
 20
-27.98727778628626
 30
0.0
  0
VERTEX
  5
2C4
  8
LAYER_1
 10
25.78063370593947
 20
-28.19787871483713
 30
0.0
  0
VERTEX
  5
2C5
  8
LAYER_1
 10
25.81072258998928
 20
-28.40692511290535
 30
0.0
  0
VERTEX
  5
2C6
  8
LAYER_1
 10
25.86092247242946
 20
-28.61285514703824
 30
0.0
  0
VERTEX
  5
2C7
  8
LAYER_1
 10
25.93123392044551
 20
-28.81410698378311
 30
0.0
  0
VERTEX
  5
2C8
  8
LAYER_1
 10
26.0216575012229
 20
-29.00911878968727
 30
0.0
  0
VERTEX
  5
2C9
  8
LAYER_1
 10
26.13219378194712
 20
-29.19632873129805
 30
0.0
  0
VERTEX
  5
2CA
  8
LAYER_1
 10
26.26284332980366
 20
-29.37417497516276
 30
0.0
  0
VERTEX
  5
2CB
  8
LAYER_1
 10
26.41360671197798
 20
-29.5410956878287
 30
0.0
  0
VERTEX
  5
2CC
  8
LAYER_1
 10
26.58041788009334
 20
-29.69198026594567
 30
0.0
  0
VERTEX
  5
2CD
  8
LAYER_1
 10
26.75816918534754
 20
-29.8227589503416
 30
0.0
  0
VERTEX
  5
2CE
  8
LAYER_1
 10
26.94529879428789
 20
-29.933431173831
 30
0.0
  0
VERTEX
  5
2CF
  8
LAYER_1
 10
27.14024487346171
 20
-30.02399636922838
 30
0.0
  0
VERTEX
  5
2D0
  8
LAYER_1
 10
27.34144558941631
 20
-30.09445396934827
 30
0.0
  0
VERTEX
  5
2D1
  8
LAYER_1
 10
27.547339108699
 20
-30.14480340700518
 30
0.0
  0
VERTEX
  5
2D2
  8
LAYER_1
 10
27.75636359785711
 20
-30.17504411501364
 30
0.0
  0
VERTEX
  5
2D3
  8
LAYER_1
 10
27.96695722343793
 20
-30.18517552618817
 30
0.0
  0
VERTEX
  5
2D4
  8
LAYER_1
 10
28.1775581519888
 20
-30.17519707334327
 30
0.0
  0
VERTEX
  5
2D5
  8
LAYER_1
 10
28.38660455005702
 20
-30.14510818929347
 30
0.0
  0
VERTEX
  5
2D6
  8
LAYER_1
 10
28.59253458418991
 20
-30.09490830685328
 30
0.0
  0
VERTEX
  5
2D7
  8
LAYER_1
 10
28.79378642093478
 20
-30.02459685883723
 30
0.0
  0
VERTEX
  5
2D8
  8
LAYER_1
 10
28.98879822683895
 20
-29.93417327805984
 30
0.0
  0
VERTEX
  5
2D9
  8
LAYER_1
 10
29.17600816844973
 20
-29.82363699733562
 30
0.0
  0
VERTEX
  5
2DA
  8
LAYER_1
 10
29.35385441231443
 20
-29.69298744947908
 30
0.0
  0
VERTEX
  5
2DB
  8
LAYER_1
 10
29.52077512498037
 20
-29.54222406730475
 30
0.0
  0
VERTEX
  5
2DC
  8
LAYER_1
 10
29.67165970309735
 20
-29.37541289918939
 30
0.0
  0
VERTEX
  5
2DD
  8
LAYER_1
 10
29.80243838749328
 20
-29.19766159393519
 30
0.0
  0
VERTEX
  5
2DE
  8
LAYER_1
 10
29.91311061098267
 20
-29.01053198499484
 30
0.0
  0
VERTEX
  5
2DF
  8
LAYER_1
 10
30.00367580638005
 20
-28.81558590582102
 30
0.0
  0
VERTEX
  5
2E0
  8
LAYER_1
 10
30.07413340649994
 20
-28.61438518986643
 30
0.0
  0
VERTEX
  5
2E1
  8
LAYER_1
 10
30.12448284415686
 20
-28.40849167058374
 30
0.0
  0
VERTEX
  5
2E2
  8
LAYER_1
 10
30.15472355216531
 20
-28.19946718142563
 30
0.0
  0
VERTEX
  5
2E3
  8
LAYER_1
 10
30.16485496333983
 20
-27.9888735558448
 30
0.0
  0
VERTEX
  5
2E4
  8
LAYER_1
 10
30.15487651049494
 20
-27.77827262729394
 30
0.0
  0
VERTEX
  5
2E5
  8
LAYER_1
 10
30.12478762644513
 20
-27.56922622922572
 30
0.0
  0
VERTEX
  5
2E6
  8
LAYER_1
 10
30.07458774400495
 20
-27.36329619509283
 30
0.0
  0
VERTEX
  5
2E7
  8
LAYER_1
 10
30.0042762959889
 20
-27.16204435834796
 30
0.0
  0
VERTEX
  5
2E8
  8
LAYER_1
 10
29.91385271521151
 20
-26.9670325524438
 30
0.0
  0
VERTEX
  5
2E9
  8
LAYER_1
 10
29.80331643448728
 20
-26.77982261083302
 30
0.0
  0
VERTEX
  5
2EA
  8
LAYER_1
 10
29.67266688663075
 20
-26.60197636696831
 30
0.0
  0
SEQEND
  5
2EB
  8
LAYER_1
  0
POLYLINE
  5
45
  8
LAYER_1
 66
     1
 10
0.0
 20
0.0
 30
0.0
 70
     1
  0
VERTEX
  5
2EC
  8
LAYER_1
 10
-26.43392727482631
 20
-26.41473509145404
 30
0.0
  0
VERTEX
  5
2ED
  8
LAYER_1
 10
-26.60073844294168
 20
-26.26385051333706
 30
0.0
  0
VERTEX
  5
2EE
  8
LAYER_1
 10
-26.77848974819587
 20
-26.13307182894114
 30
0.0
  0
VERTEX
  5
2EF
  8
LAYER_1
 10
-26.96561935713623
 20
-26.02239960545174
 30
0.0
  0
VERTEX
  5
2F0
  8
LAYER_1
 10
-27.16056543631004
 20
-25.93183441005436
 30
0.0
  0
VERTEX
  5
2F1
  8
LAYER_1
 10
-27.36176615226464
 20
-25.86137680993447
 30
0.0
  0
VERTEX
  5
2F2
  8
LAYER_1
 10
-27.56765967154733
 20
-25.81102737227755
 30
0.0
  0
VERTEX
  5
2F3
  8
LAYER_1
 10
-27.77668416070544
 20
-25.78078666426909
 30
0.0
  0
VERTEX
  5
2F4
  8
LAYER_1
 10
-27.98727778628626
 20
-25.77065525309457
 30
0.0
  0
VERTEX
  5
2F5
  8
LAYER_1
 10
-28.19787871483713
 20
-25.78063370593947
 30
0.0
  0
VERTEX
  5
2F6
  8
LAYER_1
 10
-28.40692511290535
 20
-25.81072258998928
 30
0.0
  0
VERTEX
  5
2F7
  8
LAYER_1
 10
-28.61285514703824
 20
-25.86092247242946
 30
0.0
  0
VERTEX
  5
2F8
  8
LAYER_1
 10
-28.81410698378311
 20
-25.93123392044551
 30
0.0
  0
VERTEX
  5
2F9
  8
LAYER_1
 10
-29.00911878968727
 20
-26.0216575012229
 30
0.0
  0
VERTEX
  5
2FA
  8
LAYER_1
 10
-29.19632873129805
 20
-26.13219378194712
 30
0.0
  0
VERTEX
  5
2FB
  8
LAYER_1
 10
-29.37417497516276
 20
-26.26284332980366
 30
0.0
  0
VERTEX
  5
2FC
  8
LAYER_1
 10
-29.5410956878287
 20
-26.41360671197798
 30
0.0
  0
VERTEX
  5
2FD
  8
LAYER_1
 10
-29.69198026594567
 20
-26.58041788009334
 30
0.0
  0
VERTEX
  5
2FE
  8
LAYER_1
 10
-29.8227589503416
 20
-26.75816918534754
 30
0.0
  0
VERTEX
  5
2FF
  8
LAYER_1
 10
-29.933431173831
 20
-26.94529879428789
 30
0.0
  0
VERTEX
  5
300
  8
LAYER_1
 10
-30.02399636922838
 20
-27.14024487346171
 30
0.0
  0
VERTEX
  5
301
  8
LAYER_1
 10
-30.09445396934827
 20
-27.34144558941631
 30
0.0
  0
VERTEX
  5
302
  8
LAYER_1
 10
-30.14480340700518
 20
-27.547339108699
 30
0.0
  0
VERTEX
  5
303
  8
LAYER_1
 10
-30.17504411501364
 20
-27.75636359785711
 30
0.0
  0
VERTEX
  5
304
  8
LAYER_1
 10
-30.18517552618817
 20
-27.96695722343793
 30
0.0
  0
VERTEX
  5
305
  8
LAYER_1
 10
-30.17519707334327
 20
-28.1775581519888
 30
0.0
  0
VERTEX
  5
306
  8
LAYER_1
 10
-30.14510818929347
 20
-28.38660455005702
 30
0.0
  0
VERTEX
  5
307
  8
LAYER_1
 10
-30.09490830685328
 20
-28.59253458418991
 30
0.0
  0
VERTEX
  5
308
  8
LAYER_1
 10
-30.02459685883723
 20
-28.79378642093478
 30
0.0
  0
VERTEX
  5
309
  8
LAYER_1
 10
-29.93417327805984
 20
-28.98879822683895
 30
0.0
  0
VERTEX
  5
30A
  8
LAYER_1
 10
-29.82363699733562
 20
-29.17600816844973
 30
0.0
  0
VERTEX
  5
30B
  8
LAYER_1
 10
-29.69298744947908
 20
-29.35385441231443
 30
0.0
  0
VERTEX
  5
30C
  8
LAYER_1
 10
-29.54222406730475
 20
-29.52077512498037
 30
0.0
  0
VERTEX
  5
30D
  8
LAYER_1
 10
-29.37541289918939
 20
-29.67165970309735
 30
0.0
  0
VERTEX
  5
30E
  8
LAYER_1
 10
-29.19766159393519
 20
-29.80243838749328
 30
0.0
  0
VERTEX
  5
30F
  8
LAYER_1
 10
-29.01053198499484
 20
-29.91311061098267
 30
0.0
  0
VERTEX
  5
310
  8
LAYER_1
 10
-28.81558590582102
 20
-30.00367580638005
 30
0.0
  0
VERTEX
  5
311
  8
LAYER_1
 10
-28.61438518986643
 20
-30.07413340649994
 30
0.0
  0
VERTEX
  5
312
  8
LAYER_1
 10
-28.40849167058374
 20
-30.12448284415686
 30
0.0
  0
VERTEX
  5
313
  8
LAYER_1
 10
-28.19946718142563
 20
-30.15472355216531
 30
0.0
  0
VERTEX
  5
314
  8
LAYER_1
 10
-27.9888735558448
 20
-30.16485496333983
 30
0.0
  0
VERTEX
  5
315
  8
LAYER_1
 10
-27.77827262729394
 20
-30.15487651049494
 30
0.0
  0
VERTEX
  5
316
  8
LAYER_1
 10
-27.56922622922572
 20
-30.12478762644513
 30
0.0
  0
VERTEX
  5
317
  8
LAYER_1
 10
-27.36329619509283
 20
-30.07458774400495
 30
0.0
  0
VERTEX
  5
318
  8
LAYER_1
 10
-27.16204435834796
 20
-30.0042762959889
 30
0.0
  0
VERTEX
  5
319
  8
LAYER_1
 10
-26.9670325524438
 20
-29.91385271521151
 30
0.0
  0
VERTEX
  5
31A
  8
LAYER_1
 10
-26.77982261083302
 20
-29.80331643448728
 30
0.0
  0
VERTEX
  5
31B
  8
LAYER_1
 10
-26.60197636696831
 20
-29.67266688663075
 30
0.0
  0
VERTEX
  5
31C
  8
LAYER_1
 10
-26.43505565430237
 20
-29.52190350445642
 30
0.0
  0
VERTEX
  5
31D
  8
LAYER_1
 10
-26.28417107618539
 20
-29.35509233634106
 30
0.0
  0
VERTEX
  5
31E
  8
LAYER_1
 10
-26.15339239178947
 20
-29.17734103108686
 30
0.0
  0
VERTEX
  5
31F
  8
LAYER_1
 10
-26.04272016830007
 20
-28.99021142214651
 30
0.0
  0
VERTEX
  5
320
  8
LAYER_1
 10
-25.95215497290269
 20
-28.79526534297269
 30
0.0
  0
VERTEX
  5
321
  8
LAYER_1
 10
-25.8816973727828
 20
-28.59406462701809
 30
0.0
  0
VERTEX
  5
322
  8
LAYER_1
 10
-25.83134793512588
 20
-28.3881711077354
 30
0.0
  0
VERTEX
  5
323
  8
LAYER_1
 10
-25.80110722711742
 20
-28.1791466185773
 30
0.0
  0
VERTEX
  5
324
  8
LAYER_1
 10
-25.7909758159429
 20
-27.96855299299647
 30
0.0
  0
VERTEX
  5
325
  8
LAYER_1
 10
-25.80095426878781
 20
-27.7579520644456
 30
0.0
  0
VERTEX
  5
326
  8
LAYER_1
 10
-25.8310431528376
 20
-27.54890566637739
 30
0.0
  0
VERTEX
  5
327
  8
LAYER_1
 10
-25.88124303527778
 20
-27.3429756322445
 30
0.0
  0
VERTEX
  5
328
  8
LAYER_1
 10
-25.95155448329383
 20
-27.14172379549963
 30
0.0
  0
VERTEX
  5
329
  8
LAYER_1
 10
-26.04197806407123
 20
-26.94671198959546
 30
0.0
  0
VERTEX
  5
32A
  8
LAYER_1
 10
-26.15251434479545
 20
-26.75950204798469
 30
0.0
  0
VERTEX
  5
32B
  8
LAYER_1
 10
-26.28316389265198
 20
-26.58165580411998
 30
0.0
  0
SEQEND
  5
32C
  8
LAYER_1
  0
POLYLINE
  5
46
  8
LAYER_1
 66
     1
 10
0.0
 20
0.0
 30
0.0
 70
     1
  0
VERTEX
  5
32D
  8
LAYER_1
 10
-26.41360671197798
 20
29.5410956878287
 30
0.0
  0
VERTEX
  5
32E
  8
LAYER_1
 10
-26.58041788009334
 20
29.69198026594567
 30
0.0
  0
VERTEX
  5
32F
  8
LAYER_1
 10
-26.75816918534754
 20
29.8227589503416
 30
0.0
  0
VERTEX
  5
330
  8
LAYER_1
 10
-26.94529879428789
 20
29.933431173831
 30
0.0
  0
VERTEX
  5
331
  8
LAYER_1
 10
-27.14024487346171
 20
30.02399636922838
 30
0.0
  0
VERTEX
  5
332
  8
LAYER_1
 10
-27.34144558941631
 20
30.09445396934827
 30
0.0
  0
VERTEX
  5
333
  8
LAYER_1
 10
-27.547339108699
 20
30.14480340700518
 30
0.0
  0
VERTEX
  5
334
  8
LAYER_1
 10
-27.75636359785711
 20
30.17504411501364
 30
0.0
  0
VERTEX
  5
335
  8
LAYER_1
 10
-27.96695722343793
 20
30.18517552618817
 30
0.0
  0
VERTEX
  5
336
  8
LAYER_1
 10
-28.1775581519888
 20
30.17519707334327
 30
0.0
  0
VERTEX
  5
337
  8
LAYER_1
 10
-28.38660455005702
 20
30.14510818929347
 30
0.0
  0
VERTEX
  5
338
  8
LAYER_1
 10
-28.59253458418991
 20
30.09490830685328
 30
0.0
  0
VERTEX
  5
339
  8
LAYER_1
 10
-28.79378642093478
 20
30.02459685883723
 30
0.0
  0
VERTEX
  5
33A
  8
LAYER_1
 10
-28.98879822683895
 20
29.93417327805984
 30
0.0
  0
VERTEX
  5
33B
  8
LAYER_1
 10
-29.17600816844973
 20
29.82363699733562
 30
0.0
  0
VERTEX
  5
33C
  8
LAYER_1
 10
-29.35385441231443
 20
29.69298744947908
 30
0.0
  0
VERTEX
  5
33D
  8
LAYER_1
 10
-29.52077512498037
 20
29.54222406730475
 30
0.0
  0
VERTEX
  5
33E
  8
LAYER_1
 10
-29.67165970309735
 20
29.37541289918939
 30
0.0
  0
VERTEX
  5
33F
  8
LAYER_1
 10
-29.80243838749328
 20
29.19766159393519
 30
0.0
  0
VERTEX
  5
340
  8
LAYER_1
 10
-29.91311061098267
 20
29.01053198499484
 30
0.0
  0
VERTEX
  5
341
  8
LAYER_1
 10
-30.00367580638005
 20
28.81558590582102
 30
0.0
  0
VERTEX
  5
342
  8
LAYER_1
 10
-30.07413340649994
 20
28.61438518986643
 30
0.0
  0
VERTEX
  5
343
  8
LAYER_1
 10
-30.12448284415686
 20
28.40849167058374
 30
0.0
  0
VERTEX
  5
344
  8
LAYER_1
 10
-30.15472355216531
 20
28.19946718142563
 30
0.0
  0
VERTEX
  5
345
  8
LAYER_1
 10
-30.16485496333983
 20
27.9888735558448
 30
0.0
  0
VERTEX
  5
346
  8
LAYER_1
 10
-30.15487651049494
 20
27.77827262729394
 30
0.0
  0
VERTEX
  5
347
  8
LAYER_1
 10
-30.12478762644513
 20
27.56922622922572
 30
0.0
  0
VERTEX
  5
348
  8
LAYER_1
 10
-30.07458774400495
 20
27.36329619509283
 30
0.0
  0
VERTEX
  5
349
  8
LAYER_1
 10
-30.0042762959889
 20
27.16204435834796
 30
0.0
  0
VERTEX
  5
34A
  8
LAYER_1
 10
-29.91385271521151
 20
26.9670325524438
 30
0.0
  0
VERTEX
  5
34B
  8
LAYER_1
 10
-29.80331643448728
 20
26.77982261083302
 30
0.0
  0
VERTEX
  5
34C
  8
LAYER_1
 10
-29.67266688663075
 20
26.60197636696831
 30
0.0
  0
VERTEX
  5
34D
  8
LAYER_1
 10
-29.52190350445642
 20
26.43505565430237
 30
0.0
  0
VERTEX
  5
34E
  8
LAYER_1
 10
-29.35509233634106
 20
26.28417107618539
 30
0.0
  0
VERTEX
  5
34F
  8
LAYER_1
 10
-29.17734103108686
 20
26.15339239178947
 30
0.0
  0
VERTEX
  5
350
  8
LAYER_1
 10
-28.99021142214651
 20
26.04272016830007
 30
0.0
  0
VERTEX
  5
351
  8
LAYER_1
 10
-28.79526534297269
 20
25.95215497290269
 30
0.0
  0
VERTEX
  5
352
  8
LAYER_1
 10
-28.59406462701809
 20
25.8816973727828
 30
0.0
  0
VERTEX
  5
353
  8
LAYER_1
 10
-28.3881711077354
 20
25.83134793512588
 30
0.0
  0
VERTEX
  5
354
  8
LAYER_1
 10
-28.1791466185773
 20
25.80110722711742
 30
0.0
  0
VERTEX
  5
355
  8
LAYER_1
 10
-27.96855299299647
 20
25.7909758159429
 30
0.0
  0
VERTEX
  5
356
  8
LAYER_1
 10
-27.7579520644456
 20
25.80095426878781
 30
0.0
  0
VERTEX
  5
357
  8
LAYER_1
 10
-27.54890566637739
 20
25.8310431528376
 30
0.0
  0
VERTEX
  5
358
  8
LAYER_1
 10
-27.3429756322445
 20
25.88124303527778
 30
0.0
  0
VERTEX
  5
359
  8
LAYER_1
 10
-27.14172379549963
 20
25.95155448329383
 30
0.0
  0
VERTEX
  5
35A
  8
LAYER_1
 10
-26.94671198959546
 20
26.04197806407123
 30
0.0
  0
VERTEX
  5
35B
  8
LAYER_1
 10
-26.75950204798469
 20
26.15251434479545
 30
0.0
  0
VERTEX
  5
35C
  8
LAYER_1
 10
-26.58165580411998
 20
26.28316389265198
 30
0.0
  0
VERTEX
  5
35D
  8
LAYER_1
 10
-26.41473509145404
 20
26.43392727482631
 30
0.0
  0
VERTEX
  5
35E
  8
LAYER_1
 10
-26.26385051333706
 20
26.60073844294168
 30
0.0
  0
VERTEX
  5
35F
  8
LAYER_1
 10
-26.13307182894114
 20
26.77848974819587
 30
0.0
  0
VERTEX
  5
360
  8
LAYER_1
 10
-26.02239960545174
 20
26.96561935713623
 30
0.0
  0
VERTEX
  5
361
  8
LAYER_1
 10
-25.93183441005436
 20
27.16056543631004
 30
0.0
  0
VERTEX
  5
362
  8
LAYER_1
 10
-25.86137680993447
 20
27.36176615226464
 30
0.0
  0
VERTEX
  5
363
  8
LAYER_1
 10
-25.81102737227755
 20
27.56765967154733
 30
0.0
  0
VERTEX
  5
364
  8
LAYER_1
 10
-25.78078666426909
 20
27.77668416070544
 30
0.0
  0
VERTEX
  5
365
  8
LAYER_1
 10
-25.77065525309457
 20
27.98727778628626
 30
0.0
  0
VERTEX
  5
366
  8
LAYER_1
 10
-25.78063370593947
 20
28.19787871483713
 30
0.0
  0
VERTEX
  5
367
  8
LAYER_1
 10
-25.81072258998928
 20
28.40692511290535
 30
0.0
  0
VERTEX
  5
368
  8
LAYER_1
 10
-25.86092247242946
 20
28.61285514703824
 30
0.0
  0
VERTEX
  5
369
  8
LAYER_1
 10
-25.93123392044551
 20
28.81410698378311
 30
0.0
  0
VERTEX
  5
36A
  8
LAYER_1
 10
-26.0216575012229
 20
29.00911878968727
 30
0.0
  0
VERTEX
  5
36B
  8
LAYER_1
 10
-26.13219378194712
 20
29.19632873129805
 30
0.0
  0
VERTEX
  5
36C
  8
LAYER_1
 10
-26.26284332980366
 20
29.37417497516276
 30
0.0
  0
SEQEND
  5
36D
  8
LAYER_1
  0
ENDSEC
  0
EOF
