  0
SECTION
  2
HEADER
  9
$ACADVER
  1
AC1009
  9
$DWGCODEPAGE
  3
ansi_1252
  9
$INSBASE
 10
0.0
 20
0.0
 30
0.0
  9
$EXTMIN
 10
-46.7995
 20
-57.94375000000001
 30
0.0
  9
$EXTMAX
 10
46.7995
 20
48.41875
 30
0.0
  9
$LIMMIN
 10
0.0
 20
0.0
  9
$LIMMAX
 10
12.0
 20
9.0
  9
$ORTHOMODE
 70
     0
  9
$REGENMODE
 70
     1
  9
$FILLMODE
 70
     1
  9
$QTEXTMODE
 70
     0
  9
$MIRRTEXT
 70
     1
  9
$DRAGMODE
 70
     2
  9
$LTSCALE
 40
1.0
  9
$OSMODE
 70
    37
  9
$ATTMODE
 70
     1
  9
$TEXTSIZE
 40
0.2
  9
$TRACEWID
 40
0.05
  9
$TEXTSTYLE
  7
STANDARD
  9
$CLAYER
  8
0
  9
$CELTYPE
  6
BYLAYER
  9
$CECOLOR
 62
   256
  9
$DIMSCALE
 40
1.0
  9
$DIMASZ
 40
0.18
  9
$DIMEXO
 40
0.0625
  9
$DIMDLI
 40
0.38
  9
$DIMRND
 40
0.0
  9
$DIMDLE
 40
0.0
  9
$DIMEXE
 40
0.18
  9
$DIMTP
 40
0.0
  9
$DIMTM
 40
0.0
  9
$DIMTXT
 40
0.18
  9
$DIMCEN
 40
0.09
  9
$DIMTSZ
 40
0.0
  9
$DIMTOL
 70
     0
  9
$DIMLIM
 70
     0
  9
$DIMTIH
 70
     1
  9
$DIMTOH
 70
     1
  9
$DIMSE1
 70
     0
  9
$DIMSE2
 70
     0
  9
$DIMTAD
 70
     0
  9
$DIMZIN
 70
     0
  9
$DIMBLK
  1

  9
$DIMASO
 70
     1
  9
$DIMSHO
 70
     1
  9
$DIMPOST
  1

  9
$DIMAPOST
  1

  9
$DIMALT
 70
     0
  9
$DIMALTD
 70
     2
  9
$DIMALTF
 40
25.4
  9
$DIMLFAC
 40
1.0
  9
$DIMTOFL
 70
     0
  9
$DIMTVP
 40
0.0
  9
$DIMTIX
 70
     0
  9
$DIMSOXD
 70
     0
  9
$DIMSAH
 70
     0
  9
$DIMBLK1
  1

  9
$DIMBLK2
  1

  9
$DIMSTYLE
  2
STANDARD
  9
$DIMCLRD
 70
     0
  9
$DIMCLRE
 70
     0
  9
$DIMCLRT
 70
     0
  9
$DIMTFAC
 40
1.0
  9
$DIMGAP
 40
0.09
  9
$LUNITS
 70
     2
  9
$LUPREC
 70
     4
  9
$SKETCHINC
 40
0.1
  9
$FILLETRAD
 40
0.5
  9
$AUNITS
 70
     0
  9
$AUPREC
 70
     0
  9
$MENU
  1
.
  9
$ELEVATION
 40
0.0
  9
$PELEVATION
 40
0.0
  9
$THICKNESS
 40
0.0
  9
$LIMCHECK
 70
     0
  9
$CHAMFERA
 40
0.5
  9
$CHAMFERB
 40
0.5
  9
$SKPOLY
 70
     0
  9
$TDCREATE
 40
2454910.5
  9
$TDUPDATE
 40
2457134.952403067
  9
$TDINDWG
 40
0.0000000116
  9
$TDUSRTIMER
 40
0.0000000116
  9
$USRTIMER
 70
     1
  9
$ANGBASE
 50
0.0
  9
$ANGDIR
 70
     0
  9
$PDMODE
 70
     0
  9
$PDSIZE
 40
0.0
  9
$PLINEWID
 40
0.0
  9
$COORDS
 70
     1
  9
$SPLFRAME
 70
     0
  9
$SPLINETYPE
 70
     6
  9
$SPLINESEGS
 70
     8
  9
$ATTDIA
 70
     0
  9
$ATTREQ
 70
     1
  9
$HANDLING
 70
     1
  9
$HANDSEED
  5
323
  9
$SURFTAB1
 70
     6
  9
$SURFTAB2
 70
     6
  9
$SURFTYPE
 70
     6
  9
$SURFU
 70
     6
  9
$SURFV
 70
     6
  9
$UCSNAME
  2

  9
$UCSORG
 10
0.0
 20
0.0
 30
0.0
  9
$UCSXDIR
 10
1.0
 20
0.0
 30
0.0
  9
$UCSYDIR
 10
0.0
 20
1.0
 30
0.0
  9
$PUCSNAME
  2

  9
$PUCSORG
 10
0.0
 20
0.0
 30
0.0
  9
$PUCSXDIR
 10
1.0
 20
0.0
 30
0.0
  9
$PUCSYDIR
 10
0.0
 20
1.0
 30
0.0
  9
$USERI1
 70
     0
  9
$USERI2
 70
     0
  9
$USERI3
 70
     0
  9
$USERI4
 70
     0
  9
$USERI5
 70
     0
  9
$USERR1
 40
0.0
  9
$USERR2
 40
0.0
  9
$USERR3
 40
0.0
  9
$USERR4
 40
0.0
  9
$USERR5
 40
0.0
  9
$WORLDVIEW
 70
     1
  9
$SHADEDGE
 70
     3
  9
$SHADEDIF
 70
    70
  9
$TILEMODE
 70
     1
  9
$MAXACTVP
 70
    64
  9
$PLIMCHECK
 70
     0
  9
$PEXTMIN
 10
1.000000000000000E+20
 20
1.000000000000000E+20
 30
1.000000000000000E+20
  9
$PEXTMAX
 10
-1.000000000000000E+20
 20
-1.000000000000000E+20
 30
-1.000000000000000E+20
  9
$PLIMMIN
 10
0.0
 20
0.0
  9
$PLIMMAX
 10
12.0
 20
9.0
  9
$UNITMODE
 70
     0
  9
$VISRETAIN
 70
     1
  9
$PLINEGEN
 70
     0
  9
$PSLTSCALE
 70
     1
  0
ENDSEC
  0
SECTION
  2
TABLES
  0
TABLE
  2
VPORT
 70
     1
  0
VPORT
  2
*ACTIVE
 70
     0
 10
0.0
 20
0.0
 11
1.0
 21
1.0
 12
10.42990654205607
 22
4.5
 13
0.0
 23
0.0
 14
0.5
 24
0.5
 15
0.5
 25
0.5
 16
0.0
 26
0.0
 36
1.0
 17
0.0
 27
0.0
 37
0.0
 40
9.0
 41
1.972972972850329
 42
50.0
 43
0.0
 44
0.0
 50
0.0
 51
0.0
 71
     0
 72
   100
 73
     1
 74
     3
 75
     0
 76
     0
 77
     0
 78
     0
  0
ENDTAB
  0
TABLE
  2
LTYPE
 70
     2
  0
LTYPE
  2
CONTINUOUS
 70
     0
  3
Solid line
 72
    65
 73
     0
 40
0.0
  0
LTYPE
  2
CONTINUOUS2
 70
     0
  3
Solid Line
 72
    65
 73
     0
 40
0.0
  0
ENDTAB
  0
TABLE
  2
LAYER
 70
     2
  0
LAYER
  2
0
 70
     0
 62
     7
  6
CONTINUOUS
  0
LAYER
  2
LAYER_1
 70
     0
 62
    18
  6
CONTINUOUS
  0
ENDTAB
  0
TABLE
  2
STYLE
 70
     1
  0
STYLE
  2
STANDARD
 70
     0
 40
0.0
 41
1.0
 50
0.0
 71
     0
 42
0.2
  3
txt
  4

  0
ENDTAB
  0
TABLE
  2
VIEW
 70
     0
  0
ENDTAB
  0
TABLE
  2
UCS
 70
     0
  0
ENDTAB
  0
TABLE
  2
APPID
 70
     1
  0
APPID
  2
ACAD
 70
     0
  0
ENDTAB
  0
TABLE
  2
DIMSTYLE
 70
     1
  0
DIMSTYLE
  2
STANDARD
 70
     0
  3

  4

  5

  6

  7

 40
1.0
 41
0.18
 42
0.0625
 43
0.38
 44
0.18
 45
0.0
 46
0.0
 47
0.0
 48
0.0
140
0.18
141
0.09
142
0.0
143
25.4
144
1.0
145
0.0
146
1.0
147
0.09
 71
     0
 72
     0
 73
     1
 74
     1
 75
     0
 76
     0
 77
     0
 78
     0
170
     0
171
     2
172
     0
173
     0
174
     0
175
     0
176
     0
177
     0
178
     0
  0
ENDTAB
  0
ENDSEC
  0
SECTION
  2
BLOCKS
  0
BLOCK
  8
0
  2
$MODEL_SPACE
 70
     0
 10
0.0
 20
0.0
 30
0.0
  3
$MODEL_SPACE
  1

  0
ENDBLK
  5
21
  8
0
  0
BLOCK
 67
     1
  8
0
  2
$PAPER_SPACE
 70
     0
 10
0.0
 20
0.0
 30
0.0
  3
$PAPER_SPACE
  1

  0
ENDBLK
  5
1D
 67
     1
  8
0
  0
ENDSEC
  0
SECTION
  2
ENTITIES
  0
POLYLINE
  5
41
  8
LAYER_1
 66
     1
 10
0.0
 20
0.0
 30
0.0
 70
     1
  0
VERTEX
  5
4C
  8
LAYER_1
 10
0.0
 20
35.65525
 30
0.0
  0
VERTEX
  5
4D
  8
LAYER_1
 10
-0.8784844647010166
 20
35.64413358897343
 30
0.0
  0
VERTEX
  5
4E
  8
LAYER_1
 10
-1.751488045578903
 20
35.61096256800255
 30
0.0
  0
VERTEX
  5
4F
  8
LAYER_1
 10
-2.618743424470414
 20
35.5560042552506
 30
0.0
  0
VERTEX
  5
50
  8
LAYER_1
 10
-3.479983283212305
 20
35.47952596888082
 30
0.0
  0
VERTEX
  5
51
  8
LAYER_1
 10
-4.33494030364133
 20
35.38179502705647
 30
0.0
  0
VERTEX
  5
52
  8
LAYER_1
 10
-5.183347167594247
 20
35.26307874794079
 30
0.0
  0
VERTEX
  5
53
  8
LAYER_1
 10
-6.024936556907809
 20
35.12364444969702
 30
0.0
  0
VERTEX
  5
54
  8
LAYER_1
 10
-6.859441153418771
 20
34.9637594504884
 30
0.0
  0
VERTEX
  5
55
  8
LAYER_1
 10
-7.68659363896389
 20
34.78369106847818
 30
0.0
  0
VERTEX
  5
56
  8
LAYER_1
 10
-8.506126695379919
 20
34.58370662182962
 30
0.0
  0
VERTEX
  5
57
  8
LAYER_1
 10
-9.317773004503612
 20
34.36407342870594
 30
0.0
  0
VERTEX
  5
58
  8
LAYER_1
 10
-10.12126524817173
 20
34.12505880727041
 30
0.0
  0
VERTEX
  5
59
  8
LAYER_1
 10
-10.91633610822102
 20
33.86693007568624
 30
0.0
  0
VERTEX
  5
5A
  8
LAYER_1
 10
-11.70271826648824
 20
33.58995455211671
 30
0.0
  0
VERTEX
  5
5B
  8
LAYER_1
 10
-12.48014440481015
 20
33.29439955472505
 30
0.0
  0
VERTEX
  5
5C
  8
LAYER_1
 10
-13.2483472050235
 20
32.9805324016745
 30
0.0
  0
VERTEX
  5
5D
  8
LAYER_1
 10
-14.00705934896505
 20
32.64862041112832
 30
0.0
  0
VERTEX
  5
5E
  8
LAYER_1
 10
-14.75601351847155
 20
32.29893090124974
 30
0.0
  0
VERTEX
  5
5F
  8
LAYER_1
 10
-15.49494239537975
 20
31.93173119020201
 30
0.0
  0
VERTEX
  5
60
  8
LAYER_1
 10
-16.22357866152642
 20
31.54728859614838
 30
0.0
  0
VERTEX
  5
61
  8
LAYER_1
 10
-16.94165499874831
 20
31.14587043725208
 30
0.0
  0
VERTEX
  5
62
  8
LAYER_1
 10
-17.64890408888216
 20
30.72774403167637
 30
0.0
  0
VERTEX
  5
63
  8
LAYER_1
 10
-18.34505861376475
 20
30.29317669758449
 30
0.0
  0
VERTEX
  5
64
  8
LAYER_1
 10
-19.02985125523281
 20
29.84243575313969
 30
0.0
  0
VERTEX
  5
65
  8
LAYER_1
 10
-19.70301469512312
 20
29.3757885165052
 30
0.0
  0
VERTEX
  5
66
  8
LAYER_1
 10
-20.36428161527242
 20
28.89350230584429
 30
0.0
  0
VERTEX
  5
67
  8
LAYER_1
 10
-21.01338469751746
 20
28.39584443932018
 30
0.0
  0
VERTEX
  5
68
  8
LAYER_1
 10
-21.65005662369501
 20
27.88308223509612
 30
0.0
  0
VERTEX
  5
69
  8
LAYER_1
 10
-22.27403007564181
 20
27.35548301133536
 30
0.0
  0
VERTEX
  5
6A
  8
LAYER_1
 10
-22.88503773519464
 20
26.81331408620115
 30
0.0
  0
VERTEX
  5
6B
  8
LAYER_1
 10
-23.48281228419022
 20
26.25684277785673
 30
0.0
  0
VERTEX
  5
6C
  8
LAYER_1
 10
-24.06708640446534
 20
25.68633640446534
 30
0.0
  0
VERTEX
  5
6D
  8
LAYER_1
 10
-24.63759277785672
 20
25.10206228419023
 30
0.0
  0
VERTEX
  5
6E
  8
LAYER_1
 10
-25.19406408620115
 20
24.50428773519464
 30
0.0
  0
VERTEX
  5
6F
  8
LAYER_1
 10
-25.73623301133536
 20
23.89328007564182
 30
0.0
  0
VERTEX
  5
70
  8
LAYER_1
 10
-26.26383223509612
 20
23.26930662369501
 30
0.0
  0
VERTEX
  5
71
  8
LAYER_1
 10
-26.77659443932018
 20
22.63263469751746
 30
0.0
  0
VERTEX
  5
72
  8
LAYER_1
 10
-27.27425230584429
 20
21.98353161527242
 30
0.0
  0
VERTEX
  5
73
  8
LAYER_1
 10
-27.7565385165052
 20
21.32226469512312
 30
0.0
  0
VERTEX
  5
74
  8
LAYER_1
 10
-28.22318575313969
 20
20.64910125523281
 30
0.0
  0
VERTEX
  5
75
  8
LAYER_1
 10
-28.67392669758449
 20
19.96430861376475
 30
0.0
  0
VERTEX
  5
76
  8
LAYER_1
 10
-29.10849403167637
 20
19.26815408888216
 30
0.0
  0
VERTEX
  5
77
  8
LAYER_1
 10
-29.52662043725208
 20
18.56090499874831
 30
0.0
  0
VERTEX
  5
78
  8
LAYER_1
 10
-29.92803859614837
 20
17.84282866152642
 30
0.0
  0
VERTEX
  5
79
  8
LAYER_1
 10
-30.312481190202
 20
17.11419239537975
 30
0.0
  0
VERTEX
  5
7A
  8
LAYER_1
 10
-30.67968090124973
 20
16.37526351847155
 30
0.0
  0
VERTEX
  5
7B
  8
LAYER_1
 10
-31.02937041112831
 20
15.62630934896505
 30
0.0
  0
VERTEX
  5
7C
  8
LAYER_1
 10
-31.3612824016745
 20
14.8675972050235
 30
0.0
  0
VERTEX
  5
7D
  8
LAYER_1
 10
-31.67514955472505
 20
14.09939440481015
 30
0.0
  0
VERTEX
  5
7E
  8
LAYER_1
 10
-31.97070455211671
 20
13.32196826648824
 30
0.0
  0
VERTEX
  5
7F
  8
LAYER_1
 10
-32.24768007568623
 20
12.53558610822102
 30
0.0
  0
VERTEX
  5
80
  8
LAYER_1
 10
-32.5058088072704
 20
11.74051524817173
 30
0.0
  0
VERTEX
  5
81
  8
LAYER_1
 10
-32.74482342870593
 20
10.93702300450361
 30
0.0
  0
VERTEX
  5
82
  8
LAYER_1
 10
-32.96445662182961
 20
10.12537669537992
 30
0.0
  0
VERTEX
  5
83
  8
LAYER_1
 10
-33.16444106847818
 20
9.30584363896389
 30
0.0
  0
VERTEX
  5
84
  8
LAYER_1
 10
-33.3445094504884
 20
8.478691153418772
 30
0.0
  0
VERTEX
  5
85
  8
LAYER_1
 10
-33.50439444969701
 20
7.64418655690781
 30
0.0
  0
VERTEX
  5
86
  8
LAYER_1
 10
-33.64382874794079
 20
6.802597167594248
 30
0.0
  0
VERTEX
  5
87
  8
LAYER_1
 10
-33.76254502705648
 20
5.954190303641333
 30
0.0
  0
VERTEX
  5
88
  8
LAYER_1
 10
-33.86027596888082
 20
5.099233283212307
 30
0.0
  0
VERTEX
  5
89
  8
LAYER_1
 10
-33.93675425525059
 20
4.237993424470416
 30
0.0
  0
VERTEX
  5
8A
  8
LAYER_1
 10
-33.99171256800254
 20
3.370738045578904
 30
0.0
  0
VERTEX
  5
8B
  8
LAYER_1
 10
-34.02488358897342
 20
2.497734464701018
 30
0.0
  0
VERTEX
  5
8C
  8
LAYER_1
 10
-34.036
 20
1.619250000000002
 30
0.0
  0
VERTEX
  5
8D
  8
LAYER_1
 10
-34.02488358897342
 20
0.7407655352989851
 30
0.0
  0
VERTEX
  5
8E
  8
LAYER_1
 10
-33.99171256800254
 20
-0.1322380455789013
 30
0.0
  0
VERTEX
  5
8F
  8
LAYER_1
 10
-33.93675425525059
 20
-0.9994934244704128
 30
0.0
  0
VERTEX
  5
90
  8
LAYER_1
 10
-33.86027596888082
 20
-1.860733283212304
 30
0.0
  0
VERTEX
  5
91
  8
LAYER_1
 10
-33.76254502705648
 20
-2.71569030364133
 30
0.0
  0
VERTEX
  5
92
  8
LAYER_1
 10
-33.64382874794079
 20
-3.564097167594247
 30
0.0
  0
VERTEX
  5
93
  8
LAYER_1
 10
-33.50439444969701
 20
-4.405686556907808
 30
0.0
  0
VERTEX
  5
94
  8
LAYER_1
 10
-33.3445094504884
 20
-5.240191153418771
 30
0.0
  0
VERTEX
  5
95
  8
LAYER_1
 10
-33.16444106847818
 20
-6.067343638963889
 30
0.0
  0
VERTEX
  5
96
  8
LAYER_1
 10
-32.96445662182961
 20
-6.886876695379917
 30
0.0
  0
VERTEX
  5
97
  8
LAYER_1
 10
-32.74482342870593
 20
-7.698523004503611
 30
0.0
  0
VERTEX
  5
98
  8
LAYER_1
 10
-32.5058088072704
 20
-8.502015248171727
 30
0.0
  0
VERTEX
  5
99
  8
LAYER_1
 10
-32.24768007568623
 20
-9.29708610822102
 30
0.0
  0
VERTEX
  5
9A
  8
LAYER_1
 10
-31.97070455211671
 20
-10.08346826648824
 30
0.0
  0
VERTEX
  5
9B
  8
LAYER_1
 10
-31.67514955472505
 20
-10.86089440481015
 30
0.0
  0
VERTEX
  5
9C
  8
LAYER_1
 10
-31.3612824016745
 20
-11.6290972050235
 30
0.0
  0
VERTEX
  5
9D
  8
LAYER_1
 10
-31.02937041112831
 20
-12.38780934896505
 30
0.0
  0
VERTEX
  5
9E
  8
LAYER_1
 10
-30.67968090124973
 20
-13.13676351847155
 30
0.0
  0
VERTEX
  5
9F
  8
LAYER_1
 10
-30.312481190202
 20
-13.87569239537975
 30
0.0
  0
VERTEX
  5
A0
  8
LAYER_1
 10
-29.92803859614837
 20
-14.60432866152642
 30
0.0
  0
VERTEX
  5
A1
  8
LAYER_1
 10
-29.52662043725208
 20
-15.32240499874831
 30
0.0
  0
VERTEX
  5
A2
  8
LAYER_1
 10
-29.10849403167637
 20
-16.02965408888216
 30
0.0
  0
VERTEX
  5
A3
  8
LAYER_1
 10
-28.67392669758449
 20
-16.72580861376474
 30
0.0
  0
VERTEX
  5
A4
  8
LAYER_1
 10
-28.22318575313969
 20
-17.41060125523281
 30
0.0
  0
VERTEX
  5
A5
  8
LAYER_1
 10
-27.7565385165052
 20
-18.08376469512312
 30
0.0
  0
VERTEX
  5
A6
  8
LAYER_1
 10
-27.27425230584429
 20
-18.74503161527242
 30
0.0
  0
VERTEX
  5
A7
  8
LAYER_1
 10
-26.77659443932018
 20
-19.39413469751746
 30
0.0
  0
VERTEX
  5
A8
  8
LAYER_1
 10
-26.26383223509612
 20
-20.03080662369501
 30
0.0
  0
VERTEX
  5
A9
  8
LAYER_1
 10
-25.73623301133536
 20
-20.65478007564181
 30
0.0
  0
VERTEX
  5
AA
  8
LAYER_1
 10
-25.19406408620115
 20
-21.26578773519464
 30
0.0
  0
VERTEX
  5
AB
  8
LAYER_1
 10
-24.63759277785672
 20
-21.86356228419022
 30
0.0
  0
VERTEX
  5
AC
  8
LAYER_1
 10
-24.06708640446534
 20
-22.44783640446533
 30
0.0
  0
VERTEX
  5
AD
  8
LAYER_1
 10
-23.48281228419022
 20
-23.01834277785672
 30
0.0
  0
VERTEX
  5
AE
  8
LAYER_1
 10
-22.88503773519464
 20
-23.57481408620115
 30
0.0
  0
VERTEX
  5
AF
  8
LAYER_1
 10
-22.27403007564181
 20
-24.11698301133536
 30
0.0
  0
VERTEX
  5
B0
  8
LAYER_1
 10
-21.65005662369501
 20
-24.64458223509612
 30
0.0
  0
VERTEX
  5
B1
  8
LAYER_1
 10
-21.01338469751746
 20
-25.15734443932018
 30
0.0
  0
VERTEX
  5
B2
  8
LAYER_1
 10
-20.36428161527242
 20
-25.65500230584428
 30
0.0
  0
VERTEX
  5
B3
  8
LAYER_1
 10
-19.70301469512312
 20
-26.1372885165052
 30
0.0
  0
VERTEX
  5
B4
  8
LAYER_1
 10
-19.02985125523281
 20
-26.60393575313969
 30
0.0
  0
VERTEX
  5
B5
  8
LAYER_1
 10
-18.34505861376475
 20
-27.05467669758449
 30
0.0
  0
VERTEX
  5
B6
  8
LAYER_1
 10
-17.64890408888216
 20
-27.48924403167637
 30
0.0
  0
VERTEX
  5
B7
  8
LAYER_1
 10
-16.94165499874831
 20
-27.90737043725208
 30
0.0
  0
VERTEX
  5
B8
  8
LAYER_1
 10
-16.22357866152642
 20
-28.30878859614837
 30
0.0
  0
VERTEX
  5
B9
  8
LAYER_1
 10
-15.49494239537975
 20
-28.693231190202
 30
0.0
  0
VERTEX
  5
BA
  8
LAYER_1
 10
-14.75601351847155
 20
-29.06043090124973
 30
0.0
  0
VERTEX
  5
BB
  8
LAYER_1
 10
-14.00705934896505
 20
-29.41012041112831
 30
0.0
  0
VERTEX
  5
BC
  8
LAYER_1
 10
-13.2483472050235
 20
-29.7420324016745
 30
0.0
  0
VERTEX
  5
BD
  8
LAYER_1
 10
-12.48014440481015
 20
-30.05589955472504
 30
0.0
  0
VERTEX
  5
BE
  8
LAYER_1
 10
-11.70271826648824
 20
-30.35145455211671
 30
0.0
  0
VERTEX
  5
BF
  8
LAYER_1
 10
-10.91633610822102
 20
-30.62843007568624
 30
0.0
  0
VERTEX
  5
C0
  8
LAYER_1
 10
-10.12126524817173
 20
-30.8865588072704
 30
0.0
  0
VERTEX
  5
C1
  8
LAYER_1
 10
-9.317773004503612
 20
-31.12557342870594
 30
0.0
  0
VERTEX
  5
C2
  8
LAYER_1
 10
-8.506126695379919
 20
-31.34520662182961
 30
0.0
  0
VERTEX
  5
C3
  8
LAYER_1
 10
-7.68659363896389
 20
-31.54519106847818
 30
0.0
  0
VERTEX
  5
C4
  8
LAYER_1
 10
-6.859441153418771
 20
-31.72525945048839
 30
0.0
  0
VERTEX
  5
C5
  8
LAYER_1
 10
-6.024936556907809
 20
-31.88514444969701
 30
0.0
  0
VERTEX
  5
C6
  8
LAYER_1
 10
-5.183347167594247
 20
-32.02457874794079
 30
0.0
  0
VERTEX
  5
C7
  8
LAYER_1
 10
-4.33494030364133
 20
-32.14329502705647
 30
0.0
  0
VERTEX
  5
C8
  8
LAYER_1
 10
-3.479983283212305
 20
-32.24102596888082
 30
0.0
  0
VERTEX
  5
C9
  8
LAYER_1
 10
-2.618743424470414
 20
-32.3175042552506
 30
0.0
  0
VERTEX
  5
CA
  8
LAYER_1
 10
-1.751488045578903
 20
-32.37246256800255
 30
0.0
  0
VERTEX
  5
CB
  8
LAYER_1
 10
-0.8784844647010166
 20
-32.40563358897343
 30
0.0
  0
VERTEX
  5
CC
  8
LAYER_1
 10
0.0
 20
-32.41675
 30
0.0
  0
VERTEX
  5
CD
  8
LAYER_1
 10
0.8784844647010166
 20
-32.40563358897343
 30
0.0
  0
VERTEX
  5
CE
  8
LAYER_1
 10
1.751488045578903
 20
-32.37246256800255
 30
0.0
  0
VERTEX
  5
CF
  8
LAYER_1
 10
2.618743424470414
 20
-32.3175042552506
 30
0.0
  0
VERTEX
  5
D0
  8
LAYER_1
 10
3.479983283212305
 20
-32.24102596888082
 30
0.0
  0
VERTEX
  5
D1
  8
LAYER_1
 10
4.33494030364133
 20
-32.14329502705647
 30
0.0
  0
VERTEX
  5
D2
  8
LAYER_1
 10
5.183347167594247
 20
-32.02457874794079
 30
0.0
  0
VERTEX
  5
D3
  8
LAYER_1
 10
6.024936556907809
 20
-31.88514444969701
 30
0.0
  0
VERTEX
  5
D4
  8
LAYER_1
 10
6.859441153418771
 20
-31.72525945048839
 30
0.0
  0
VERTEX
  5
D5
  8
LAYER_1
 10
7.68659363896389
 20
-31.54519106847818
 30
0.0
  0
VERTEX
  5
D6
  8
LAYER_1
 10
8.506126695379919
 20
-31.34520662182961
 30
0.0
  0
VERTEX
  5
D7
  8
LAYER_1
 10
9.317773004503612
 20
-31.12557342870594
 30
0.0
  0
VERTEX
  5
D8
  8
LAYER_1
 10
10.12126524817173
 20
-30.8865588072704
 30
0.0
  0
VERTEX
  5
D9
  8
LAYER_1
 10
10.91633610822102
 20
-30.62843007568624
 30
0.0
  0
VERTEX
  5
DA
  8
LAYER_1
 10
11.70271826648824
 20
-30.35145455211671
 30
0.0
  0
VERTEX
  5
DB
  8
LAYER_1
 10
12.48014440481015
 20
-30.05589955472504
 30
0.0
  0
VERTEX
  5
DC
  8
LAYER_1
 10
13.2483472050235
 20
-29.7420324016745
 30
0.0
  0
VERTEX
  5
DD
  8
LAYER_1
 10
14.00705934896505
 20
-29.41012041112831
 30
0.0
  0
VERTEX
  5
DE
  8
LAYER_1
 10
14.75601351847155
 20
-29.06043090124973
 30
0.0
  0
VERTEX
  5
DF
  8
LAYER_1
 10
15.49494239537975
 20
-28.693231190202
 30
0.0
  0
VERTEX
  5
E0
  8
LAYER_1
 10
16.22357866152642
 20
-28.30878859614837
 30
0.0
  0
VERTEX
  5
E1
  8
LAYER_1
 10
16.94165499874831
 20
-27.90737043725208
 30
0.0
  0
VERTEX
  5
E2
  8
LAYER_1
 10
17.64890408888216
 20
-27.48924403167637
 30
0.0
  0
VERTEX
  5
E3
  8
LAYER_1
 10
18.34505861376475
 20
-27.05467669758449
 30
0.0
  0
VERTEX
  5
E4
  8
LAYER_1
 10
19.02985125523281
 20
-26.60393575313969
 30
0.0
  0
VERTEX
  5
E5
  8
LAYER_1
 10
19.70301469512312
 20
-26.1372885165052
 30
0.0
  0
VERTEX
  5
E6
  8
LAYER_1
 10
20.36428161527242
 20
-25.65500230584428
 30
0.0
  0
VERTEX
  5
E7
  8
LAYER_1
 10
21.01338469751746
 20
-25.15734443932018
 30
0.0
  0
VERTEX
  5
E8
  8
LAYER_1
 10
21.65005662369501
 20
-24.64458223509612
 30
0.0
  0
VERTEX
  5
E9
  8
LAYER_1
 10
22.27403007564181
 20
-24.11698301133536
 30
0.0
  0
VERTEX
  5
EA
  8
LAYER_1
 10
22.88503773519464
 20
-23.57481408620115
 30
0.0
  0
VERTEX
  5
EB
  8
LAYER_1
 10
23.48281228419022
 20
-23.01834277785672
 30
0.0
  0
VERTEX
  5
EC
  8
LAYER_1
 10
24.06708640446534
 20
-22.44783640446533
 30
0.0
  0
VERTEX
  5
ED
  8
LAYER_1
 10
24.63759277785672
 20
-21.86356228419022
 30
0.0
  0
VERTEX
  5
EE
  8
LAYER_1
 10
25.19406408620115
 20
-21.26578773519464
 30
0.0
  0
VERTEX
  5
EF
  8
LAYER_1
 10
25.73623301133536
 20
-20.65478007564181
 30
0.0
  0
VERTEX
  5
F0
  8
LAYER_1
 10
26.26383223509612
 20
-20.03080662369501
 30
0.0
  0
VERTEX
  5
F1
  8
LAYER_1
 10
26.77659443932018
 20
-19.39413469751746
 30
0.0
  0
VERTEX
  5
F2
  8
LAYER_1
 10
27.27425230584429
 20
-18.74503161527242
 30
0.0
  0
VERTEX
  5
F3
  8
LAYER_1
 10
27.7565385165052
 20
-18.08376469512312
 30
0.0
  0
VERTEX
  5
F4
  8
LAYER_1
 10
28.22318575313969
 20
-17.41060125523281
 30
0.0
  0
VERTEX
  5
F5
  8
LAYER_1
 10
28.67392669758449
 20
-16.72580861376474
 30
0.0
  0
VERTEX
  5
F6
  8
LAYER_1
 10
29.10849403167637
 20
-16.02965408888216
 30
0.0
  0
VERTEX
  5
F7
  8
LAYER_1
 10
29.52662043725208
 20
-15.32240499874831
 30
0.0
  0
VERTEX
  5
F8
  8
LAYER_1
 10
29.92803859614837
 20
-14.60432866152642
 30
0.0
  0
VERTEX
  5
F9
  8
LAYER_1
 10
30.312481190202
 20
-13.87569239537975
 30
0.0
  0
VERTEX
  5
FA
  8
LAYER_1
 10
30.67968090124973
 20
-13.13676351847155
 30
0.0
  0
VERTEX
  5
FB
  8
LAYER_1
 10
31.02937041112831
 20
-12.38780934896505
 30
0.0
  0
VERTEX
  5
FC
  8
LAYER_1
 10
31.3612824016745
 20
-11.6290972050235
 30
0.0
  0
VERTEX
  5
FD
  8
LAYER_1
 10
31.67514955472505
 20
-10.86089440481015
 30
0.0
  0
VERTEX
  5
FE
  8
LAYER_1
 10
31.97070455211671
 20
-10.08346826648824
 30
0.0
  0
VERTEX
  5
FF
  8
LAYER_1
 10
32.24768007568623
 20
-9.29708610822102
 30
0.0
  0
VERTEX
  5
100
  8
LAYER_1
 10
32.5058088072704
 20
-8.502015248171727
 30
0.0
  0
VERTEX
  5
101
  8
LAYER_1
 10
32.74482342870593
 20
-7.698523004503611
 30
0.0
  0
VERTEX
  5
102
  8
LAYER_1
 10
32.96445662182961
 20
-6.886876695379917
 30
0.0
  0
VERTEX
  5
103
  8
LAYER_1
 10
33.16444106847818
 20
-6.067343638963889
 30
0.0
  0
VERTEX
  5
104
  8
LAYER_1
 10
33.3445094504884
 20
-5.240191153418771
 30
0.0
  0
VERTEX
  5
105
  8
LAYER_1
 10
33.50439444969701
 20
-4.405686556907808
 30
0.0
  0
VERTEX
  5
106
  8
LAYER_1
 10
33.64382874794079
 20
-3.564097167594247
 30
0.0
  0
VERTEX
  5
107
  8
LAYER_1
 10
33.76254502705648
 20
-2.71569030364133
 30
0.0
  0
VERTEX
  5
108
  8
LAYER_1
 10
33.86027596888082
 20
-1.860733283212304
 30
0.0
  0
VERTEX
  5
109
  8
LAYER_1
 10
33.93675425525059
 20
-0.9994934244704128
 30
0.0
  0
VERTEX
  5
10A
  8
LAYER_1
 10
33.99171256800254
 20
-0.1322380455789013
 30
0.0
  0
VERTEX
  5
10B
  8
LAYER_1
 10
34.02488358897342
 20
0.7407655352989851
 30
0.0
  0
VERTEX
  5
10C
  8
LAYER_1
 10
34.036
 20
1.619250000000002
 30
0.0
  0
VERTEX
  5
10D
  8
LAYER_1
 10
34.02488358897342
 20
2.497734464701018
 30
0.0
  0
VERTEX
  5
10E
  8
LAYER_1
 10
33.99171256800254
 20
3.370738045578904
 30
0.0
  0
VERTEX
  5
10F
  8
LAYER_1
 10
33.93675425525059
 20
4.237993424470416
 30
0.0
  0
VERTEX
  5
110
  8
LAYER_1
 10
33.86027596888082
 20
5.099233283212307
 30
0.0
  0
VERTEX
  5
111
  8
LAYER_1
 10
33.76254502705648
 20
5.954190303641333
 30
0.0
  0
VERTEX
  5
112
  8
LAYER_1
 10
33.64382874794079
 20
6.802597167594248
 30
0.0
  0
VERTEX
  5
113
  8
LAYER_1
 10
33.50439444969701
 20
7.64418655690781
 30
0.0
  0
VERTEX
  5
114
  8
LAYER_1
 10
33.3445094504884
 20
8.478691153418772
 30
0.0
  0
VERTEX
  5
115
  8
LAYER_1
 10
33.16444106847818
 20
9.30584363896389
 30
0.0
  0
VERTEX
  5
116
  8
LAYER_1
 10
32.96445662182961
 20
10.12537669537992
 30
0.0
  0
VERTEX
  5
117
  8
LAYER_1
 10
32.74482342870593
 20
10.93702300450361
 30
0.0
  0
VERTEX
  5
118
  8
LAYER_1
 10
32.5058088072704
 20
11.74051524817173
 30
0.0
  0
VERTEX
  5
119
  8
LAYER_1
 10
32.24768007568623
 20
12.53558610822102
 30
0.0
  0
VERTEX
  5
11A
  8
LAYER_1
 10
31.97070455211671
 20
13.32196826648824
 30
0.0
  0
VERTEX
  5
11B
  8
LAYER_1
 10
31.67514955472505
 20
14.09939440481015
 30
0.0
  0
VERTEX
  5
11C
  8
LAYER_1
 10
31.3612824016745
 20
14.8675972050235
 30
0.0
  0
VERTEX
  5
11D
  8
LAYER_1
 10
31.02937041112831
 20
15.62630934896505
 30
0.0
  0
VERTEX
  5
11E
  8
LAYER_1
 10
30.67968090124973
 20
16.37526351847155
 30
0.0
  0
VERTEX
  5
11F
  8
LAYER_1
 10
30.312481190202
 20
17.11419239537975
 30
0.0
  0
VERTEX
  5
120
  8
LAYER_1
 10
29.92803859614837
 20
17.84282866152642
 30
0.0
  0
VERTEX
  5
121
  8
LAYER_1
 10
29.52662043725208
 20
18.56090499874831
 30
0.0
  0
VERTEX
  5
122
  8
LAYER_1
 10
29.10849403167637
 20
19.26815408888216
 30
0.0
  0
VERTEX
  5
123
  8
LAYER_1
 10
28.67392669758449
 20
19.96430861376475
 30
0.0
  0
VERTEX
  5
124
  8
LAYER_1
 10
28.22318575313969
 20
20.64910125523281
 30
0.0
  0
VERTEX
  5
125
  8
LAYER_1
 10
27.7565385165052
 20
21.32226469512312
 30
0.0
  0
VERTEX
  5
126
  8
LAYER_1
 10
27.27425230584429
 20
21.98353161527242
 30
0.0
  0
VERTEX
  5
127
  8
LAYER_1
 10
26.77659443932018
 20
22.63263469751746
 30
0.0
  0
VERTEX
  5
128
  8
LAYER_1
 10
26.26383223509612
 20
23.26930662369501
 30
0.0
  0
VERTEX
  5
129
  8
LAYER_1
 10
25.73623301133536
 20
23.89328007564182
 30
0.0
  0
VERTEX
  5
12A
  8
LAYER_1
 10
25.19406408620115
 20
24.50428773519464
 30
0.0
  0
VERTEX
  5
12B
  8
LAYER_1
 10
24.63759277785672
 20
25.10206228419023
 30
0.0
  0
VERTEX
  5
12C
  8
LAYER_1
 10
24.06708640446534
 20
25.68633640446534
 30
0.0
  0
VERTEX
  5
12D
  8
LAYER_1
 10
23.48281228419022
 20
26.25684277785673
 30
0.0
  0
VERTEX
  5
12E
  8
LAYER_1
 10
22.88503773519464
 20
26.81331408620115
 30
0.0
  0
VERTEX
  5
12F
  8
LAYER_1
 10
22.27403007564181
 20
27.35548301133536
 30
0.0
  0
VERTEX
  5
130
  8
LAYER_1
 10
21.65005662369501
 20
27.88308223509612
 30
0.0
  0
VERTEX
  5
131
  8
LAYER_1
 10
21.01338469751746
 20
28.39584443932018
 30
0.0
  0
VERTEX
  5
132
  8
LAYER_1
 10
20.36428161527242
 20
28.89350230584429
 30
0.0
  0
VERTEX
  5
133
  8
LAYER_1
 10
19.70301469512312
 20
29.3757885165052
 30
0.0
  0
VERTEX
  5
134
  8
LAYER_1
 10
19.02985125523281
 20
29.84243575313969
 30
0.0
  0
VERTEX
  5
135
  8
LAYER_1
 10
18.34505861376475
 20
30.29317669758449
 30
0.0
  0
VERTEX
  5
136
  8
LAYER_1
 10
17.64890408888216
 20
30.72774403167637
 30
0.0
  0
VERTEX
  5
137
  8
LAYER_1
 10
16.94165499874831
 20
31.14587043725208
 30
0.0
  0
VERTEX
  5
138
  8
LAYER_1
 10
16.22357866152642
 20
31.54728859614838
 30
0.0
  0
VERTEX
  5
139
  8
LAYER_1
 10
15.49494239537975
 20
31.93173119020201
 30
0.0
  0
VERTEX
  5
13A
  8
LAYER_1
 10
14.75601351847155
 20
32.29893090124974
 30
0.0
  0
VERTEX
  5
13B
  8
LAYER_1
 10
14.00705934896505
 20
32.64862041112832
 30
0.0
  0
VERTEX
  5
13C
  8
LAYER_1
 10
13.2483472050235
 20
32.9805324016745
 30
0.0
  0
VERTEX
  5
13D
  8
LAYER_1
 10
12.48014440481015
 20
33.29439955472505
 30
0.0
  0
VERTEX
  5
13E
  8
LAYER_1
 10
11.70271826648824
 20
33.58995455211671
 30
0.0
  0
VERTEX
  5
13F
  8
LAYER_1
 10
10.91633610822102
 20
33.86693007568624
 30
0.0
  0
VERTEX
  5
140
  8
LAYER_1
 10
10.12126524817173
 20
34.12505880727041
 30
0.0
  0
VERTEX
  5
141
  8
LAYER_1
 10
9.317773004503612
 20
34.36407342870594
 30
0.0
  0
VERTEX
  5
142
  8
LAYER_1
 10
8.506126695379919
 20
34.58370662182962
 30
0.0
  0
VERTEX
  5
143
  8
LAYER_1
 10
7.68659363896389
 20
34.78369106847818
 30
0.0
  0
VERTEX
  5
144
  8
LAYER_1
 10
6.859441153418771
 20
34.9637594504884
 30
0.0
  0
VERTEX
  5
145
  8
LAYER_1
 10
6.024936556907809
 20
35.12364444969702
 30
0.0
  0
VERTEX
  5
146
  8
LAYER_1
 10
5.183347167594247
 20
35.26307874794079
 30
0.0
  0
VERTEX
  5
147
  8
LAYER_1
 10
4.33494030364133
 20
35.38179502705647
 30
0.0
  0
VERTEX
  5
148
  8
LAYER_1
 10
3.479983283212305
 20
35.47952596888082
 30
0.0
  0
VERTEX
  5
149
  8
LAYER_1
 10
2.618743424470414
 20
35.5560042552506
 30
0.0
  0
VERTEX
  5
14A
  8
LAYER_1
 10
1.751488045578903
 20
35.61096256800255
 30
0.0
  0
VERTEX
  5
14B
  8
LAYER_1
 10
0.8784844647010166
 20
35.64413358897343
 30
0.0
  0
SEQEND
  5
14C
  8
LAYER_1
  0
POLYLINE
  5
42
  8
LAYER_1
 66
     1
 10
0.0
 20
0.0
 30
0.0
 70
     1
  0
VERTEX
  5
14D
  8
LAYER_1
 10
0.0
 20
48.41875
 30
0.0
  0
VERTEX
  5
14E
  8
LAYER_1
 10
0.6048771237343955
 20
48.41492107615807
 30
0.0
  0
VERTEX
  5
14F
  8
LAYER_1
 10
1.207916138963898
 20
48.40346493483847
 30
0.0
  0
VERTEX
  5
150
  8
LAYER_1
 10
1.809071100379199
 20
48.38442752135051
 30
0.0
  0
VERTEX
  5
151
  8
LAYER_1
 10
2.408296062670991
 20
48.35785478100351
 30
0.0
  0
VERTEX
  5
152
  8
LAYER_1
 10
3.005545080529967
 20
48.32379265910676
 30
0.0
  0
VERTEX
  5
153
  8
LAYER_1
 10
3.600772208646819
 20
48.28228710096957
 30
0.0
  0
VERTEX
  5
154
  8
LAYER_1
 10
4.78497701441692
 20
48.17712945721114
 30
0.0
  0
VERTEX
  5
155
  8
LAYER_1
 10
5.960542917506831
 20
48.04274941220265
 30
0.0
  0
VERTEX
  5
156
  8
LAYER_1
 10
7.127102355442091
 20
47.87951452841859
 30
0.0
  0
VERTEX
  5
157
  8
LAYER_1
 10
8.284287765748237
 20
47.6877923683334
 30
0.0
  0
VERTEX
  5
158
  8
LAYER_1
 10
9.43173158595081
 20
47.46795049442155
 30
0.0
  0
VERTEX
  5
159
  8
LAYER_1
 10
10.56906625357535
 20
47.22035646915751
 30
0.0
  0
VERTEX
  5
15A
  8
LAYER_1
 10
11.69592420614739
 20
46.94537785501573
 30
0.0
  0
VERTEX
  5
15B
  8
LAYER_1
 10
12.81193788119247
 20
46.64338221447068
 30
0.0
  0
VERTEX
  5
15C
  8
LAYER_1
 10
13.91673971623613
 20
46.31473710999681
 30
0.0
  0
VERTEX
  5
15D
  8
LAYER_1
 10
15.0099621488039
 20
45.95981010406859
 30
0.0
  0
VERTEX
  5
15E
  8
LAYER_1
 10
16.09123761642133
 20
45.57896875916048
 30
0.0
  0
VERTEX
  5
15F
  8
LAYER_1
 10
17.16019855661396
 20
45.17258063774695
 30
0.0
  0
VERTEX
  5
160
  8
LAYER_1
 10
18.21647740690732
 20
44.74101330230245
 30
0.0
  0
VERTEX
  5
161
  8
LAYER_1
 10
19.25970660482695
 20
44.28463431530145
 30
0.0
  0
VERTEX
  5
162
  8
LAYER_1
 10
20.28951858789838
 20
43.80381123921839
 30
0.0
  0
VERTEX
  5
163
  8
LAYER_1
 10
21.30554579364716
 20
43.29891163652776
 30
0.0
  0
VERTEX
  5
164
  8
LAYER_1
 10
22.30742065959883
 20
42.77030306970403
 30
0.0
  0
VERTEX
  5
165
  8
LAYER_1
 10
23.29477562327892
 20
42.21835310122162
 30
0.0
  0
VERTEX
  5
166
  8
LAYER_1
 10
24.26724312221297
 20
41.64342929355503
 30
0.0
  0
VERTEX
  5
167
  8
LAYER_1
 10
25.22445559392653
 20
41.0458992091787
 30
0.0
  0
VERTEX
  5
168
  8
LAYER_1
 10
26.16604547594513
 20
40.42613041056709
 30
0.0
  0
VERTEX
  5
169
  8
LAYER_1
 10
27.09164520579429
 20
39.78449046019468
 30
0.0
  0
VERTEX
  5
16A
  8
LAYER_1
 10
28.00088722099958
 20
39.12134692053591
 30
0.0
  0
VERTEX
  5
16B
  8
LAYER_1
 10
28.89340395908652
 20
38.43706735406525
 30
0.0
  0
VERTEX
  5
16C
  8
LAYER_1
 10
29.76882785758065
 20
37.73201932325718
 30
0.0
  0
VERTEX
  5
16D
  8
LAYER_1
 10
30.6267913540075
 20
37.00657039058613
 30
0.0
  0
VERTEX
  5
16E
  8
LAYER_1
 10
31.46692688589263
 20
36.26108811852659
 30
0.0
  0
VERTEX
  5
16F
  8
LAYER_1
 10
32.28886689076157
 20
35.49594006955301
 30
0.0
  0
VERTEX
  5
170
  8
LAYER_1
 10
33.09224380613984
 20
34.71149380613985
 30
0.0
  0
VERTEX
  5
171
  8
LAYER_1
 10
33.87669006955301
 20
33.90811689076158
 30
0.0
  0
VERTEX
  5
172
  8
LAYER_1
 10
34.64183811852659
 20
33.08617688589264
 30
0.0
  0
VERTEX
  5
173
  8
LAYER_1
 10
35.38732039058613
 20
32.24604135400752
 30
0.0
  0
VERTEX
  5
174
  8
LAYER_1
 10
36.11276932325717
 20
31.38807785758065
 30
0.0
  0
VERTEX
  5
175
  8
LAYER_1
 10
36.81781735406524
 20
30.51265395908652
 30
0.0
  0
VERTEX
  5
176
  8
LAYER_1
 10
37.5020969205359
 20
29.62013722099958
 30
0.0
  0
VERTEX
  5
177
  8
LAYER_1
 10
38.16524046019467
 20
28.7108952057943
 30
0.0
  0
VERTEX
  5
178
  8
LAYER_1
 10
38.80688041056708
 20
27.78529547594513
 30
0.0
  0
VERTEX
  5
179
  8
LAYER_1
 10
39.42664920917869
 20
26.84370559392654
 30
0.0
  0
VERTEX
  5
17A
  8
LAYER_1
 10
40.02417929355502
 20
25.88649312221298
 30
0.0
  0
VERTEX
  5
17B
  8
LAYER_1
 10
40.59910310122162
 20
24.91402562327893
 30
0.0
  0
VERTEX
  5
17C
  8
LAYER_1
 10
41.15105306970402
 20
23.92667065959884
 30
0.0
  0
VERTEX
  5
17D
  8
LAYER_1
 10
41.67966163652777
 20
22.92479579364717
 30
0.0
  0
VERTEX
  5
17E
  8
LAYER_1
 10
42.1845612392184
 20
21.90876858789839
 30
0.0
  0
VERTEX
  5
17F
  8
LAYER_1
 10
42.66538431530144
 20
20.87895660482695
 30
0.0
  0
VERTEX
  5
180
  8
LAYER_1
 10
43.12176330230245
 20
19.83572740690732
 30
0.0
  0
VERTEX
  5
181
  8
LAYER_1
 10
43.55333063774695
 20
18.77944855661396
 30
0.0
  0
VERTEX
  5
182
  8
LAYER_1
 10
43.95971875916048
 20
17.71048761642134
 30
0.0
  0
VERTEX
  5
183
  8
LAYER_1
 10
44.34056010406859
 20
16.62921214880391
 30
0.0
  0
VERTEX
  5
184
  8
LAYER_1
 10
44.6954871099968
 20
15.53598971623613
 30
0.0
  0
VERTEX
  5
185
  8
LAYER_1
 10
45.02413221447067
 20
14.43118788119247
 30
0.0
  0
VERTEX
  5
186
  8
LAYER_1
 10
45.32612785501573
 20
13.31517420614739
 30
0.0
  0
VERTEX
  5
187
  8
LAYER_1
 10
45.60110646915751
 20
12.18831625357535
 30
0.0
  0
VERTEX
  5
188
  8
LAYER_1
 10
45.84870049442155
 20
11.05098158595082
 30
0.0
  0
VERTEX
  5
189
  8
LAYER_1
 10
46.0685423683334
 20
9.903537765748242
 30
0.0
  0
VERTEX
  5
18A
  8
LAYER_1
 10
46.26026452841859
 20
8.746352355442093
 30
0.0
  0
VERTEX
  5
18B
  8
LAYER_1
 10
46.42349941220266
 20
7.579792917506833
 30
0.0
  0
VERTEX
  5
18C
  8
LAYER_1
 10
46.55787945721114
 20
6.404227014416922
 30
0.0
  0
VERTEX
  5
18D
  8
LAYER_1
 10
46.61413405190127
 20
5.813181501712242
 30
0.0
  0
VERTEX
  5
18E
  8
LAYER_1
 10
46.66303710096958
 20
5.220022208646822
 30
0.0
  0
VERTEX
  5
18F
  8
LAYER_1
 10
46.70454265910676
 20
4.624795080529969
 30
0.0
  0
VERTEX
  5
190
  8
LAYER_1
 10
46.73860478100352
 20
4.027546062670994
 30
0.0
  0
VERTEX
  5
191
  8
LAYER_1
 10
46.76517752135052
 20
3.428321100379201
 30
0.0
  0
VERTEX
  5
192
  8
LAYER_1
 10
46.78421493483847
 20
2.8271661389639
 30
0.0
  0
VERTEX
  5
193
  8
LAYER_1
 10
46.79567107615807
 20
2.224127123734398
 30
0.0
  0
VERTEX
  5
194
  8
LAYER_1
 10
46.7995
 20
1.619250000000002
 30
0.0
  0
VERTEX
  5
195
  8
LAYER_1
 10
46.79072930762734
 20
0.7172002569661993
 30
0.0
  0
VERTEX
  5
196
  8
LAYER_1
 10
46.76462707498357
 20
-0.183239663048034
 30
0.0
  0
VERTEX
  5
197
  8
LAYER_1
 10
46.72126751701434
 20
-1.081835111529784
 30
0.0
  0
VERTEX
  5
198
  8
LAYER_1
 10
46.66072484866529
 20
-1.978351439966135
 30
0.0
  0
VERTEX
  5
199
  8
LAYER_1
 10
46.58307328488206
 20
-2.872553999844174
 30
0.0
  0
VERTEX
  5
19A
  8
LAYER_1
 10
46.48838704061031
 20
-3.764208142650986
 30
0.0
  0
VERTEX
  5
19B
  8
LAYER_1
 10
46.37674033079567
 20
-4.653079219873657
 30
0.0
  0
VERTEX
  5
19C
  8
LAYER_1
 10
46.24820737038378
 20
-5.538932582999272
 30
0.0
  0
VERTEX
  5
19D
  8
LAYER_1
 10
46.1028623743203
 20
-6.421533583514917
 30
0.0
  0
VERTEX
  5
19E
  8
LAYER_1
 10
45.94077955755086
 20
-7.300647572907677
 30
0.0
  0
VERTEX
  5
19F
  8
LAYER_1
 10
45.76203313502111
 20
-8.176039902664638
 30
0.0
  0
VERTEX
  5
1A0
  8
LAYER_1
 10
45.5666973216767
 20
-9.047475924272884
 30
0.0
  0
VERTEX
  5
1A1
  8
LAYER_1
 10
45.35484633246327
 20
-9.914720989219504
 30
0.0
  0
VERTEX
  5
1A2
  8
LAYER_1
 10
45.12655438232645
 20
-10.77754044899158
 30
0.0
  0
VERTEX
  5
1A3
  8
LAYER_1
 10
44.8818956862119
 20
-11.6356996550762
 30
0.0
  0
VERTEX
  5
1A4
  8
LAYER_1
 10
44.62094445906526
 20
-12.48896395896045
 30
0.0
  0
VERTEX
  5
1A5
  8
LAYER_1
 10
44.34377491583217
 20
-13.33709871213141
 30
0.0
  0
VERTEX
  5
1A6
  8
LAYER_1
 10
44.05046127145827
 20
-14.17986926607618
 30
0.0
  0
VERTEX
  5
1A7
  8
LAYER_1
 10
43.74107774088922
 20
-15.01704097228183
 30
0.0
  0
VERTEX
  5
1A8
  8
LAYER_1
 10
43.41569853907065
 20
-15.84837918223545
 30
0.0
  0
VERTEX
  5
1A9
  8
LAYER_1
 10
43.07439788094821
 20
-16.67364924742412
 30
0.0
  0
VERTEX
  5
1AA
  8
LAYER_1
 10
42.71724998146755
 20
-17.49261651933494
 30
0.0
  0
VERTEX
  5
1AB
  8
LAYER_1
 10
42.34432905557429
 20
-18.30504634945499
 30
0.0
  0
VERTEX
  5
1AC
  8
LAYER_1
 10
41.9557093182141
 20
-19.11070408927135
 30
0.0
  0
VERTEX
  5
1AD
  8
LAYER_1
 10
41.55146498433261
 20
-19.90935509027111
 30
0.0
  0
VERTEX
  5
1AE
  8
LAYER_1
 10
41.13167026887547
 20
-20.70076470394135
 30
0.0
  0
VERTEX
  5
1AF
  8
LAYER_1
 10
40.69639938678833
 20
-21.48469828176917
 30
0.0
  0
VERTEX
  5
1B0
  8
LAYER_1
 10
40.24572655301682
 20
-22.26092117524164
 30
0.0
  0
VERTEX
  5
1B1
  8
LAYER_1
 10
39.77972598250658
 20
-23.02919873584585
 30
0.0
  0
VERTEX
  5
1B2
  8
LAYER_1
 10
39.29847189020327
 20
-23.78929631506889
 30
0.0
  0
VERTEX
  5
1B3
  8
LAYER_1
 10
38.80203849105254
 20
-24.54097926439784
 30
0.0
  0
VERTEX
  5
1B4
  8
LAYER_1
 10
38.29050000000002
 20
-25.28401293531979
 30
0.0
  0
VERTEX
  5
1B5
  8
LAYER_1
 10
38.29050000000002
 20
-57.94375000000001
 30
0.0
  0
VERTEX
  5
1B6
  8
LAYER_1
 10
-38.29050000000002
 20
-57.94375000000001
 30
0.0
  0
VERTEX
  5
1B7
  8
LAYER_1
 10
-38.29050000000002
 20
-25.28401293531978
 30
0.0
  0
VERTEX
  5
1B8
  8
LAYER_1
 10
-38.80203849105254
 20
-24.54097926439783
 30
0.0
  0
VERTEX
  5
1B9
  8
LAYER_1
 10
-39.29847189020327
 20
-23.78929631506888
 30
0.0
  0
VERTEX
  5
1BA
  8
LAYER_1
 10
-39.77972598250658
 20
-23.02919873584584
 30
0.0
  0
VERTEX
  5
1BB
  8
LAYER_1
 10
-40.24572655301682
 20
-22.26092117524163
 30
0.0
  0
VERTEX
  5
1BC
  8
LAYER_1
 10
-40.69639938678833
 20
-21.48469828176916
 30
0.0
  0
VERTEX
  5
1BD
  8
LAYER_1
 10
-41.13167026887547
 20
-20.70076470394135
 30
0.0
  0
VERTEX
  5
1BE
  8
LAYER_1
 10
-41.55146498433261
 20
-19.90935509027111
 30
0.0
  0
VERTEX
  5
1BF
  8
LAYER_1
 10
-41.9557093182141
 20
-19.11070408927134
 30
0.0
  0
VERTEX
  5
1C0
  8
LAYER_1
 10
-42.34432905557429
 20
-18.30504634945498
 30
0.0
  0
VERTEX
  5
1C1
  8
LAYER_1
 10
-42.71724998146755
 20
-17.49261651933494
 30
0.0
  0
VERTEX
  5
1C2
  8
LAYER_1
 10
-43.07439788094821
 20
-16.67364924742412
 30
0.0
  0
VERTEX
  5
1C3
  8
LAYER_1
 10
-43.41569853907065
 20
-15.84837918223544
 30
0.0
  0
VERTEX
  5
1C4
  8
LAYER_1
 10
-43.74107774088922
 20
-15.01704097228182
 30
0.0
  0
VERTEX
  5
1C5
  8
LAYER_1
 10
-44.05046127145827
 20
-14.17986926607617
 30
0.0
  0
VERTEX
  5
1C6
  8
LAYER_1
 10
-44.34377491583217
 20
-13.33709871213141
 30
0.0
  0
VERTEX
  5
1C7
  8
LAYER_1
 10
-44.62094445906526
 20
-12.48896395896045
 30
0.0
  0
VERTEX
  5
1C8
  8
LAYER_1
 10
-44.8818956862119
 20
-11.6356996550762
 30
0.0
  0
VERTEX
  5
1C9
  8
LAYER_1
 10
-45.12655438232645
 20
-10.77754044899158
 30
0.0
  0
VERTEX
  5
1CA
  8
LAYER_1
 10
-45.35484633246327
 20
-9.9147209892195
 30
0.0
  0
VERTEX
  5
1CB
  8
LAYER_1
 10
-45.5666973216767
 20
-9.047475924272883
 30
0.0
  0
VERTEX
  5
1CC
  8
LAYER_1
 10
-45.76203313502111
 20
-8.176039902664634
 30
0.0
  0
VERTEX
  5
1CD
  8
LAYER_1
 10
-45.94077955755086
 20
-7.300647572907675
 30
0.0
  0
VERTEX
  5
1CE
  8
LAYER_1
 10
-46.1028623743203
 20
-6.421533583514915
 30
0.0
  0
VERTEX
  5
1CF
  8
LAYER_1
 10
-46.24820737038378
 20
-5.538932582999271
 30
0.0
  0
VERTEX
  5
1D0
  8
LAYER_1
 10
-46.37674033079567
 20
-4.653079219873657
 30
0.0
  0
VERTEX
  5
1D1
  8
LAYER_1
 10
-46.48838704061031
 20
-3.764208142650987
 30
0.0
  0
VERTEX
  5
1D2
  8
LAYER_1
 10
-46.58307328488206
 20
-2.872553999844175
 30
0.0
  0
VERTEX
  5
1D3
  8
LAYER_1
 10
-46.66072484866529
 20
-1.978351439966136
 30
0.0
  0
VERTEX
  5
1D4
  8
LAYER_1
 10
-46.72126751701434
 20
-1.081835111529784
 30
0.0
  0
VERTEX
  5
1D5
  8
LAYER_1
 10
-46.76462707498357
 20
-0.1832396630480345
 30
0.0
  0
VERTEX
  5
1D6
  8
LAYER_1
 10
-46.79072930762734
 20
0.717200256966199
 30
0.0
  0
VERTEX
  5
1D7
  8
LAYER_1
 10
-46.7995
 20
1.619250000000002
 30
0.0
  0
VERTEX
  5
1D8
  8
LAYER_1
 10
-46.79567107615807
 20
2.224127123734398
 30
0.0
  0
VERTEX
  5
1D9
  8
LAYER_1
 10
-46.78421493483847
 20
2.8271661389639
 30
0.0
  0
VERTEX
  5
1DA
  8
LAYER_1
 10
-46.76517752135052
 20
3.428321100379201
 30
0.0
  0
VERTEX
  5
1DB
  8
LAYER_1
 10
-46.73860478100352
 20
4.027546062670994
 30
0.0
  0
VERTEX
  5
1DC
  8
LAYER_1
 10
-46.70454265910676
 20
4.624795080529969
 30
0.0
  0
VERTEX
  5
1DD
  8
LAYER_1
 10
-46.66303710096958
 20
5.220022208646822
 30
0.0
  0
VERTEX
  5
1DE
  8
LAYER_1
 10
-46.55787945721114
 20
6.404227014416922
 30
0.0
  0
VERTEX
  5
1DF
  8
LAYER_1
 10
-46.42349941220266
 20
7.579792917506833
 30
0.0
  0
VERTEX
  5
1E0
  8
LAYER_1
 10
-46.26026452841859
 20
8.746352355442093
 30
0.0
  0
VERTEX
  5
1E1
  8
LAYER_1
 10
-46.0685423683334
 20
9.903537765748242
 30
0.0
  0
VERTEX
  5
1E2
  8
LAYER_1
 10
-45.84870049442155
 20
11.05098158595082
 30
0.0
  0
VERTEX
  5
1E3
  8
LAYER_1
 10
-45.60110646915751
 20
12.18831625357535
 30
0.0
  0
VERTEX
  5
1E4
  8
LAYER_1
 10
-45.32612785501573
 20
13.31517420614739
 30
0.0
  0
VERTEX
  5
1E5
  8
LAYER_1
 10
-45.02413221447067
 20
14.43118788119247
 30
0.0
  0
VERTEX
  5
1E6
  8
LAYER_1
 10
-44.6954871099968
 20
15.53598971623613
 30
0.0
  0
VERTEX
  5
1E7
  8
LAYER_1
 10
-44.34056010406859
 20
16.62921214880391
 30
0.0
  0
VERTEX
  5
1E8
  8
LAYER_1
 10
-43.95971875916048
 20
17.71048761642134
 30
0.0
  0
VERTEX
  5
1E9
  8
LAYER_1
 10
-43.55333063774695
 20
18.77944855661396
 30
0.0
  0
VERTEX
  5
1EA
  8
LAYER_1
 10
-43.12176330230245
 20
19.83572740690732
 30
0.0
  0
VERTEX
  5
1EB
  8
LAYER_1
 10
-42.66538431530144
 20
20.87895660482695
 30
0.0
  0
VERTEX
  5
1EC
  8
LAYER_1
 10
-42.1845612392184
 20
21.90876858789839
 30
0.0
  0
VERTEX
  5
1ED
  8
LAYER_1
 10
-41.67966163652777
 20
22.92479579364717
 30
0.0
  0
VERTEX
  5
1EE
  8
LAYER_1
 10
-41.15105306970402
 20
23.92667065959884
 30
0.0
  0
VERTEX
  5
1EF
  8
LAYER_1
 10
-40.59910310122162
 20
24.91402562327893
 30
0.0
  0
VERTEX
  5
1F0
  8
LAYER_1
 10
-40.02417929355502
 20
25.88649312221298
 30
0.0
  0
VERTEX
  5
1F1
  8
LAYER_1
 10
-39.42664920917869
 20
26.84370559392654
 30
0.0
  0
VERTEX
  5
1F2
  8
LAYER_1
 10
-38.80688041056708
 20
27.78529547594513
 30
0.0
  0
VERTEX
  5
1F3
  8
LAYER_1
 10
-38.16524046019467
 20
28.7108952057943
 30
0.0
  0
VERTEX
  5
1F4
  8
LAYER_1
 10
-37.5020969205359
 20
29.62013722099958
 30
0.0
  0
VERTEX
  5
1F5
  8
LAYER_1
 10
-36.81781735406524
 20
30.51265395908652
 30
0.0
  0
VERTEX
  5
1F6
  8
LAYER_1
 10
-36.11276932325717
 20
31.38807785758065
 30
0.0
  0
VERTEX
  5
1F7
  8
LAYER_1
 10
-35.38732039058613
 20
32.24604135400752
 30
0.0
  0
VERTEX
  5
1F8
  8
LAYER_1
 10
-34.64183811852659
 20
33.08617688589264
 30
0.0
  0
VERTEX
  5
1F9
  8
LAYER_1
 10
-33.87669006955301
 20
33.90811689076158
 30
0.0
  0
VERTEX
  5
1FA
  8
LAYER_1
 10
-33.09224380613984
 20
34.71149380613985
 30
0.0
  0
VERTEX
  5
1FB
  8
LAYER_1
 10
-32.28886689076157
 20
35.49594006955301
 30
0.0
  0
VERTEX
  5
1FC
  8
LAYER_1
 10
-31.46692688589263
 20
36.26108811852659
 30
0.0
  0
VERTEX
  5
1FD
  8
LAYER_1
 10
-30.6267913540075
 20
37.00657039058613
 30
0.0
  0
VERTEX
  5
1FE
  8
LAYER_1
 10
-29.76882785758065
 20
37.73201932325718
 30
0.0
  0
VERTEX
  5
1FF
  8
LAYER_1
 10
-28.89340395908652
 20
38.43706735406525
 30
0.0
  0
VERTEX
  5
200
  8
LAYER_1
 10
-28.00088722099958
 20
39.12134692053591
 30
0.0
  0
VERTEX
  5
201
  8
LAYER_1
 10
-27.09164520579429
 20
39.78449046019468
 30
0.0
  0
VERTEX
  5
202
  8
LAYER_1
 10
-26.16604547594513
 20
40.42613041056709
 30
0.0
  0
VERTEX
  5
203
  8
LAYER_1
 10
-25.22445559392653
 20
41.0458992091787
 30
0.0
  0
VERTEX
  5
204
  8
LAYER_1
 10
-24.26724312221297
 20
41.64342929355503
 30
0.0
  0
VERTEX
  5
205
  8
LAYER_1
 10
-23.29477562327892
 20
42.21835310122162
 30
0.0
  0
VERTEX
  5
206
  8
LAYER_1
 10
-22.30742065959883
 20
42.77030306970403
 30
0.0
  0
VERTEX
  5
207
  8
LAYER_1
 10
-21.30554579364716
 20
43.29891163652776
 30
0.0
  0
VERTEX
  5
208
  8
LAYER_1
 10
-20.28951858789838
 20
43.80381123921839
 30
0.0
  0
VERTEX
  5
209
  8
LAYER_1
 10
-19.25970660482695
 20
44.28463431530145
 30
0.0
  0
VERTEX
  5
20A
  8
LAYER_1
 10
-18.21647740690732
 20
44.74101330230245
 30
0.0
  0
VERTEX
  5
20B
  8
LAYER_1
 10
-17.16019855661396
 20
45.17258063774695
 30
0.0
  0
VERTEX
  5
20C
  8
LAYER_1
 10
-16.09123761642133
 20
45.57896875916048
 30
0.0
  0
VERTEX
  5
20D
  8
LAYER_1
 10
-15.0099621488039
 20
45.95981010406859
 30
0.0
  0
VERTEX
  5
20E
  8
LAYER_1
 10
-13.91673971623613
 20
46.31473710999681
 30
0.0
  0
VERTEX
  5
20F
  8
LAYER_1
 10
-12.81193788119247
 20
46.64338221447068
 30
0.0
  0
VERTEX
  5
210
  8
LAYER_1
 10
-11.69592420614739
 20
46.94537785501573
 30
0.0
  0
VERTEX
  5
211
  8
LAYER_1
 10
-10.56906625357535
 20
47.22035646915751
 30
0.0
  0
VERTEX
  5
212
  8
LAYER_1
 10
-9.43173158595081
 20
47.46795049442155
 30
0.0
  0
VERTEX
  5
213
  8
LAYER_1
 10
-8.284287765748237
 20
47.6877923683334
 30
0.0
  0
VERTEX
  5
214
  8
LAYER_1
 10
-7.127102355442091
 20
47.87951452841859
 30
0.0
  0
VERTEX
  5
215
  8
LAYER_1
 10
-5.960542917506831
 20
48.04274941220265
 30
0.0
  0
VERTEX
  5
216
  8
LAYER_1
 10
-4.78497701441692
 20
48.17712945721114
 30
0.0
  0
VERTEX
  5
217
  8
LAYER_1
 10
-4.193931501712239
 20
48.23338405190127
 30
0.0
  0
VERTEX
  5
218
  8
LAYER_1
 10
-3.600772208646819
 20
48.28228710096957
 30
0.0
  0
VERTEX
  5
219
  8
LAYER_1
 10
-3.005545080529967
 20
48.32379265910676
 30
0.0
  0
VERTEX
  5
21A
  8
LAYER_1
 10
-2.408296062670991
 20
48.35785478100351
 30
0.0
  0
VERTEX
  5
21B
  8
LAYER_1
 10
-1.809071100379199
 20
48.38442752135051
 30
0.0
  0
VERTEX
  5
21C
  8
LAYER_1
 10
-1.207916138963898
 20
48.40346493483847
 30
0.0
  0
VERTEX
  5
21D
  8
LAYER_1
 10
-0.6048771237343955
 20
48.41492107615807
 30
0.0
  0
SEQEND
  5
21E
  8
LAYER_1
  0
POLYLINE
  5
43
  8
LAYER_1
 66
     1
 10
0.0
 20
0.0
 30
0.0
 70
     1
  0
VERTEX
  5
21F
  8
LAYER_1
 10
29.54222406730475
 20
29.52077512498037
 30
0.0
  0
VERTEX
  5
220
  8
LAYER_1
 10
29.37541289918939
 20
29.67165970309735
 30
0.0
  0
VERTEX
  5
221
  8
LAYER_1
 10
29.19766159393519
 20
29.80243838749328
 30
0.0
  0
VERTEX
  5
222
  8
LAYER_1
 10
29.01053198499484
 20
29.91311061098267
 30
0.0
  0
VERTEX
  5
223
  8
LAYER_1
 10
28.81558590582102
 20
30.00367580638005
 30
0.0
  0
VERTEX
  5
224
  8
LAYER_1
 10
28.61438518986643
 20
30.07413340649994
 30
0.0
  0
VERTEX
  5
225
  8
LAYER_1
 10
28.40849167058374
 20
30.12448284415686
 30
0.0
  0
VERTEX
  5
226
  8
LAYER_1
 10
28.19946718142563
 20
30.15472355216531
 30
0.0
  0
VERTEX
  5
227
  8
LAYER_1
 10
27.9888735558448
 20
30.16485496333983
 30
0.0
  0
VERTEX
  5
228
  8
LAYER_1
 10
27.77827262729394
 20
30.15487651049494
 30
0.0
  0
VERTEX
  5
229
  8
LAYER_1
 10
27.56922622922572
 20
30.12478762644513
 30
0.0
  0
VERTEX
  5
22A
  8
LAYER_1
 10
27.36329619509283
 20
30.07458774400495
 30
0.0
  0
VERTEX
  5
22B
  8
LAYER_1
 10
27.16204435834796
 20
30.0042762959889
 30
0.0
  0
VERTEX
  5
22C
  8
LAYER_1
 10
26.9670325524438
 20
29.91385271521151
 30
0.0
  0
VERTEX
  5
22D
  8
LAYER_1
 10
26.77982261083302
 20
29.80331643448728
 30
0.0
  0
VERTEX
  5
22E
  8
LAYER_1
 10
26.60197636696831
 20
29.67266688663075
 30
0.0
  0
VERTEX
  5
22F
  8
LAYER_1
 10
26.43505565430237
 20
29.52190350445642
 30
0.0
  0
VERTEX
  5
230
  8
LAYER_1
 10
26.28417107618539
 20
29.35509233634106
 30
0.0
  0
VERTEX
  5
231
  8
LAYER_1
 10
26.15339239178947
 20
29.17734103108686
 30
0.0
  0
VERTEX
  5
232
  8
LAYER_1
 10
26.04272016830007
 20
28.99021142214651
 30
0.0
  0
VERTEX
  5
233
  8
LAYER_1
 10
25.95215497290269
 20
28.79526534297269
 30
0.0
  0
VERTEX
  5
234
  8
LAYER_1
 10
25.8816973727828
 20
28.59406462701809
 30
0.0
  0
VERTEX
  5
235
  8
LAYER_1
 10
25.83134793512588
 20
28.3881711077354
 30
0.0
  0
VERTEX
  5
236
  8
LAYER_1
 10
25.80110722711742
 20
28.1791466185773
 30
0.0
  0
VERTEX
  5
237
  8
LAYER_1
 10
25.7909758159429
 20
27.96855299299647
 30
0.0
  0
VERTEX
  5
238
  8
LAYER_1
 10
25.80095426878781
 20
27.7579520644456
 30
0.0
  0
VERTEX
  5
239
  8
LAYER_1
 10
25.8310431528376
 20
27.54890566637739
 30
0.0
  0
VERTEX
  5
23A
  8
LAYER_1
 10
25.88124303527778
 20
27.3429756322445
 30
0.0
  0
VERTEX
  5
23B
  8
LAYER_1
 10
25.95155448329383
 20
27.14172379549963
 30
0.0
  0
VERTEX
  5
23C
  8
LAYER_1
 10
26.04197806407123
 20
26.94671198959546
 30
0.0
  0
VERTEX
  5
23D
  8
LAYER_1
 10
26.15251434479545
 20
26.75950204798469
 30
0.0
  0
VERTEX
  5
23E
  8
LAYER_1
 10
26.28316389265198
 20
26.58165580411998
 30
0.0
  0
VERTEX
  5
23F
  8
LAYER_1
 10
26.43392727482631
 20
26.41473509145404
 30
0.0
  0
VERTEX
  5
240
  8
LAYER_1
 10
26.60073844294168
 20
26.26385051333706
 30
0.0
  0
VERTEX
  5
241
  8
LAYER_1
 10
26.77848974819587
 20
26.13307182894114
 30
0.0
  0
VERTEX
  5
242
  8
LAYER_1
 10
26.96561935713623
 20
26.02239960545174
 30
0.0
  0
VERTEX
  5
243
  8
LAYER_1
 10
27.16056543631004
 20
25.93183441005436
 30
0.0
  0
VERTEX
  5
244
  8
LAYER_1
 10
27.36176615226464
 20
25.86137680993447
 30
0.0
  0
VERTEX
  5
245
  8
LAYER_1
 10
27.56765967154733
 20
25.81102737227755
 30
0.0
  0
VERTEX
  5
246
  8
LAYER_1
 10
27.77668416070544
 20
25.78078666426909
 30
0.0
  0
VERTEX
  5
247
  8
LAYER_1
 10
27.98727778628626
 20
25.77065525309457
 30
0.0
  0
VERTEX
  5
248
  8
LAYER_1
 10
28.19787871483713
 20
25.78063370593947
 30
0.0
  0
VERTEX
  5
249
  8
LAYER_1
 10
28.40692511290535
 20
25.81072258998928
 30
0.0
  0
VERTEX
  5
24A
  8
LAYER_1
 10
28.61285514703824
 20
25.86092247242946
 30
0.0
  0
VERTEX
  5
24B
  8
LAYER_1
 10
28.81410698378311
 20
25.93123392044551
 30
0.0
  0
VERTEX
  5
24C
  8
LAYER_1
 10
29.00911878968727
 20
26.0216575012229
 30
0.0
  0
VERTEX
  5
24D
  8
LAYER_1
 10
29.19632873129805
 20
26.13219378194712
 30
0.0
  0
VERTEX
  5
24E
  8
LAYER_1
 10
29.37417497516276
 20
26.26284332980366
 30
0.0
  0
VERTEX
  5
24F
  8
LAYER_1
 10
29.5410956878287
 20
26.41360671197798
 30
0.0
  0
VERTEX
  5
250
  8
LAYER_1
 10
29.69198026594567
 20
26.58041788009334
 30
0.0
  0
VERTEX
  5
251
  8
LAYER_1
 10
29.8227589503416
 20
26.75816918534754
 30
0.0
  0
VERTEX
  5
252
  8
LAYER_1
 10
29.933431173831
 20
26.94529879428789
 30
0.0
  0
VERTEX
  5
253
  8
LAYER_1
 10
30.02399636922838
 20
27.14024487346171
 30
0.0
  0
VERTEX
  5
254
  8
LAYER_1
 10
30.09445396934827
 20
27.34144558941631
 30
0.0
  0
VERTEX
  5
255
  8
LAYER_1
 10
30.14480340700518
 20
27.547339108699
 30
0.0
  0
VERTEX
  5
256
  8
LAYER_1
 10
30.17504411501364
 20
27.75636359785711
 30
0.0
  0
VERTEX
  5
257
  8
LAYER_1
 10
30.18517552618817
 20
27.96695722343793
 30
0.0
  0
VERTEX
  5
258
  8
LAYER_1
 10
30.17519707334327
 20
28.1775581519888
 30
0.0
  0
VERTEX
  5
259
  8
LAYER_1
 10
30.14510818929347
 20
28.38660455005702
 30
0.0
  0
VERTEX
  5
25A
  8
LAYER_1
 10
30.09490830685328
 20
28.59253458418991
 30
0.0
  0
VERTEX
  5
25B
  8
LAYER_1
 10
30.02459685883723
 20
28.79378642093478
 30
0.0
  0
VERTEX
  5
25C
  8
LAYER_1
 10
29.93417327805984
 20
28.98879822683895
 30
0.0
  0
VERTEX
  5
25D
  8
LAYER_1
 10
29.82363699733562
 20
29.17600816844973
 30
0.0
  0
VERTEX
  5
25E
  8
LAYER_1
 10
29.69298744947908
 20
29.35385441231443
 30
0.0
  0
SEQEND
  5
25F
  8
LAYER_1
  0
POLYLINE
  5
44
  8
LAYER_1
 66
     1
 10
0.0
 20
0.0
 30
0.0
 70
     1
  0
VERTEX
  5
260
  8
LAYER_1
 10
29.52190350445642
 20
-26.43505565430237
 30
0.0
  0
VERTEX
  5
261
  8
LAYER_1
 10
29.35509233634106
 20
-26.28417107618539
 30
0.0
  0
VERTEX
  5
262
  8
LAYER_1
 10
29.17734103108686
 20
-26.15339239178947
 30
0.0
  0
VERTEX
  5
263
  8
LAYER_1
 10
28.99021142214651
 20
-26.04272016830007
 30
0.0
  0
VERTEX
  5
264
  8
LAYER_1
 10
28.79526534297269
 20
-25.95215497290269
 30
0.0
  0
VERTEX
  5
265
  8
LAYER_1
 10
28.59406462701809
 20
-25.8816973727828
 30
0.0
  0
VERTEX
  5
266
  8
LAYER_1
 10
28.3881711077354
 20
-25.83134793512588
 30
0.0
  0
VERTEX
  5
267
  8
LAYER_1
 10
28.1791466185773
 20
-25.80110722711742
 30
0.0
  0
VERTEX
  5
268
  8
LAYER_1
 10
27.96855299299647
 20
-25.7909758159429
 30
0.0
  0
VERTEX
  5
269
  8
LAYER_1
 10
27.7579520644456
 20
-25.80095426878781
 30
0.0
  0
VERTEX
  5
26A
  8
LAYER_1
 10
27.54890566637739
 20
-25.8310431528376
 30
0.0
  0
VERTEX
  5
26B
  8
LAYER_1
 10
27.3429756322445
 20
-25.88124303527778
 30
0.0
  0
VERTEX
  5
26C
  8
LAYER_1
 10
27.14172379549963
 20
-25.95155448329383
 30
0.0
  0
VERTEX
  5
26D
  8
LAYER_1
 10
26.94671198959546
 20
-26.04197806407123
 30
0.0
  0
VERTEX
  5
26E
  8
LAYER_1
 10
26.75950204798469
 20
-26.15251434479545
 30
0.0
  0
VERTEX
  5
26F
  8
LAYER_1
 10
26.58165580411998
 20
-26.28316389265198
 30
0.0
  0
VERTEX
  5
270
  8
LAYER_1
 10
26.41473509145404
 20
-26.43392727482631
 30
0.0
  0
VERTEX
  5
271
  8
LAYER_1
 10
26.26385051333706
 20
-26.60073844294168
 30
0.0
  0
VERTEX
  5
272
  8
LAYER_1
 10
26.13307182894114
 20
-26.77848974819587
 30
0.0
  0
VERTEX
  5
273
  8
LAYER_1
 10
26.02239960545174
 20
-26.96561935713623
 30
0.0
  0
VERTEX
  5
274
  8
LAYER_1
 10
25.93183441005436
 20
-27.16056543631004
 30
0.0
  0
VERTEX
  5
275
  8
LAYER_1
 10
25.86137680993447
 20
-27.36176615226464
 30
0.0
  0
VERTEX
  5
276
  8
LAYER_1
 10
25.81102737227755
 20
-27.56765967154733
 30
0.0
  0
VERTEX
  5
277
  8
LAYER_1
 10
25.78078666426909
 20
-27.77668416070544
 30
0.0
  0
VERTEX
  5
278
  8
LAYER_1
 10
25.77065525309457
 20
-27.98727778628626
 30
0.0
  0
VERTEX
  5
279
  8
LAYER_1
 10
25.78063370593947
 20
-28.19787871483713
 30
0.0
  0
VERTEX
  5
27A
  8
LAYER_1
 10
25.81072258998928
 20
-28.40692511290535
 30
0.0
  0
VERTEX
  5
27B
  8
LAYER_1
 10
25.86092247242946
 20
-28.61285514703824
 30
0.0
  0
VERTEX
  5
27C
  8
LAYER_1
 10
25.93123392044551
 20
-28.81410698378311
 30
0.0
  0
VERTEX
  5
27D
  8
LAYER_1
 10
26.0216575012229
 20
-29.00911878968727
 30
0.0
  0
VERTEX
  5
27E
  8
LAYER_1
 10
26.13219378194712
 20
-29.19632873129805
 30
0.0
  0
VERTEX
  5
27F
  8
LAYER_1
 10
26.26284332980366
 20
-29.37417497516276
 30
0.0
  0
VERTEX
  5
280
  8
LAYER_1
 10
26.41360671197798
 20
-29.5410956878287
 30
0.0
  0
VERTEX
  5
281
  8
LAYER_1
 10
26.58041788009334
 20
-29.69198026594567
 30
0.0
  0
VERTEX
  5
282
  8
LAYER_1
 10
26.75816918534754
 20
-29.8227589503416
 30
0.0
  0
VERTEX
  5
283
  8
LAYER_1
 10
26.94529879428789
 20
-29.933431173831
 30
0.0
  0
VERTEX
  5
284
  8
LAYER_1
 10
27.14024487346171
 20
-30.02399636922838
 30
0.0
  0
VERTEX
  5
285
  8
LAYER_1
 10
27.34144558941631
 20
-30.09445396934827
 30
0.0
  0
VERTEX
  5
286
  8
LAYER_1
 10
27.547339108699
 20
-30.14480340700518
 30
0.0
  0
VERTEX
  5
287
  8
LAYER_1
 10
27.75636359785711
 20
-30.17504411501364
 30
0.0
  0
VERTEX
  5
288
  8
LAYER_1
 10
27.96695722343793
 20
-30.18517552618817
 30
0.0
  0
VERTEX
  5
289
  8
LAYER_1
 10
28.1775581519888
 20
-30.17519707334327
 30
0.0
  0
VERTEX
  5
28A
  8
LAYER_1
 10
28.38660455005702
 20
-30.14510818929347
 30
0.0
  0
VERTEX
  5
28B
  8
LAYER_1
 10
28.59253458418991
 20
-30.09490830685328
 30
0.0
  0
VERTEX
  5
28C
  8
LAYER_1
 10
28.79378642093478
 20
-30.02459685883723
 30
0.0
  0
VERTEX
  5
28D
  8
LAYER_1
 10
28.98879822683895
 20
-29.93417327805984
 30
0.0
  0
VERTEX
  5
28E
  8
LAYER_1
 10
29.17600816844973
 20
-29.82363699733562
 30
0.0
  0
VERTEX
  5
28F
  8
LAYER_1
 10
29.35385441231443
 20
-29.69298744947908
 30
0.0
  0
VERTEX
  5
290
  8
LAYER_1
 10
29.52077512498037
 20
-29.54222406730475
 30
0.0
  0
VERTEX
  5
291
  8
LAYER_1
 10
29.67165970309735
 20
-29.37541289918939
 30
0.0
  0
VERTEX
  5
292
  8
LAYER_1
 10
29.80243838749328
 20
-29.19766159393519
 30
0.0
  0
VERTEX
  5
293
  8
LAYER_1
 10
29.91311061098267
 20
-29.01053198499484
 30
0.0
  0
VERTEX
  5
294
  8
LAYER_1
 10
30.00367580638005
 20
-28.81558590582102
 30
0.0
  0
VERTEX
  5
295
  8
LAYER_1
 10
30.07413340649994
 20
-28.61438518986643
 30
0.0
  0
VERTEX
  5
296
  8
LAYER_1
 10
30.12448284415686
 20
-28.40849167058374
 30
0.0
  0
VERTEX
  5
297
  8
LAYER_1
 10
30.15472355216531
 20
-28.19946718142563
 30
0.0
  0
VERTEX
  5
298
  8
LAYER_1
 10
30.16485496333983
 20
-27.9888735558448
 30
0.0
  0
VERTEX
  5
299
  8
LAYER_1
 10
30.15487651049494
 20
-27.77827262729394
 30
0.0
  0
VERTEX
  5
29A
  8
LAYER_1
 10
30.12478762644513
 20
-27.56922622922572
 30
0.0
  0
VERTEX
  5
29B
  8
LAYER_1
 10
30.07458774400495
 20
-27.36329619509283
 30
0.0
  0
VERTEX
  5
29C
  8
LAYER_1
 10
30.0042762959889
 20
-27.16204435834796
 30
0.0
  0
VERTEX
  5
29D
  8
LAYER_1
 10
29.91385271521151
 20
-26.9670325524438
 30
0.0
  0
VERTEX
  5
29E
  8
LAYER_1
 10
29.80331643448728
 20
-26.77982261083302
 30
0.0
  0
VERTEX
  5
29F
  8
LAYER_1
 10
29.67266688663075
 20
-26.60197636696831
 30
0.0
  0
SEQEND
  5
2A0
  8
LAYER_1
  0
POLYLINE
  5
45
  8
LAYER_1
 66
     1
 10
0.0
 20
0.0
 30
0.0
 70
     1
  0
VERTEX
  5
2A1
  8
LAYER_1
 10
-26.43392727482631
 20
-26.41473509145404
 30
0.0
  0
VERTEX
  5
2A2
  8
LAYER_1
 10
-26.60073844294168
 20
-26.26385051333706
 30
0.0
  0
VERTEX
  5
2A3
  8
LAYER_1
 10
-26.77848974819587
 20
-26.13307182894114
 30
0.0
  0
VERTEX
  5
2A4
  8
LAYER_1
 10
-26.96561935713623
 20
-26.02239960545174
 30
0.0
  0
VERTEX
  5
2A5
  8
LAYER_1
 10
-27.16056543631004
 20
-25.93183441005436
 30
0.0
  0
VERTEX
  5
2A6
  8
LAYER_1
 10
-27.36176615226464
 20
-25.86137680993447
 30
0.0
  0
VERTEX
  5
2A7
  8
LAYER_1
 10
-27.56765967154733
 20
-25.81102737227755
 30
0.0
  0
VERTEX
  5
2A8
  8
LAYER_1
 10
-27.77668416070544
 20
-25.78078666426909
 30
0.0
  0
VERTEX
  5
2A9
  8
LAYER_1
 10
-27.98727778628626
 20
-25.77065525309457
 30
0.0
  0
VERTEX
  5
2AA
  8
LAYER_1
 10
-28.19787871483713
 20
-25.78063370593947
 30
0.0
  0
VERTEX
  5
2AB
  8
LAYER_1
 10
-28.40692511290535
 20
-25.81072258998928
 30
0.0
  0
VERTEX
  5
2AC
  8
LAYER_1
 10
-28.61285514703824
 20
-25.86092247242946
 30
0.0
  0
VERTEX
  5
2AD
  8
LAYER_1
 10
-28.81410698378311
 20
-25.93123392044551
 30
0.0
  0
VERTEX
  5
2AE
  8
LAYER_1
 10
-29.00911878968727
 20
-26.0216575012229
 30
0.0
  0
VERTEX
  5
2AF
  8
LAYER_1
 10
-29.19632873129805
 20
-26.13219378194712
 30
0.0
  0
VERTEX
  5
2B0
  8
LAYER_1
 10
-29.37417497516276
 20
-26.26284332980366
 30
0.0
  0
VERTEX
  5
2B1
  8
LAYER_1
 10
-29.5410956878287
 20
-26.41360671197798
 30
0.0
  0
VERTEX
  5
2B2
  8
LAYER_1
 10
-29.69198026594567
 20
-26.58041788009334
 30
0.0
  0
VERTEX
  5
2B3
  8
LAYER_1
 10
-29.8227589503416
 20
-26.75816918534754
 30
0.0
  0
VERTEX
  5
2B4
  8
LAYER_1
 10
-29.933431173831
 20
-26.94529879428789
 30
0.0
  0
VERTEX
  5
2B5
  8
LAYER_1
 10
-30.02399636922838
 20
-27.14024487346171
 30
0.0
  0
VERTEX
  5
2B6
  8
LAYER_1
 10
-30.09445396934827
 20
-27.34144558941631
 30
0.0
  0
VERTEX
  5
2B7
  8
LAYER_1
 10
-30.14480340700518
 20
-27.547339108699
 30
0.0
  0
VERTEX
  5
2B8
  8
LAYER_1
 10
-30.17504411501364
 20
-27.75636359785711
 30
0.0
  0
VERTEX
  5
2B9
  8
LAYER_1
 10
-30.18517552618817
 20
-27.96695722343793
 30
0.0
  0
VERTEX
  5
2BA
  8
LAYER_1
 10
-30.17519707334327
 20
-28.1775581519888
 30
0.0
  0
VERTEX
  5
2BB
  8
LAYER_1
 10
-30.14510818929347
 20
-28.38660455005702
 30
0.0
  0
VERTEX
  5
2BC
  8
LAYER_1
 10
-30.09490830685328
 20
-28.59253458418991
 30
0.0
  0
VERTEX
  5
2BD
  8
LAYER_1
 10
-30.02459685883723
 20
-28.79378642093478
 30
0.0
  0
VERTEX
  5
2BE
  8
LAYER_1
 10
-29.93417327805984
 20
-28.98879822683895
 30
0.0
  0
VERTEX
  5
2BF
  8
LAYER_1
 10
-29.82363699733562
 20
-29.17600816844973
 30
0.0
  0
VERTEX
  5
2C0
  8
LAYER_1
 10
-29.69298744947908
 20
-29.35385441231443
 30
0.0
  0
VERTEX
  5
2C1
  8
LAYER_1
 10
-29.54222406730475
 20
-29.52077512498037
 30
0.0
  0
VERTEX
  5
2C2
  8
LAYER_1
 10
-29.37541289918939
 20
-29.67165970309735
 30
0.0
  0
VERTEX
  5
2C3
  8
LAYER_1
 10
-29.19766159393519
 20
-29.80243838749328
 30
0.0
  0
VERTEX
  5
2C4
  8
LAYER_1
 10
-29.01053198499484
 20
-29.91311061098267
 30
0.0
  0
VERTEX
  5
2C5
  8
LAYER_1
 10
-28.81558590582102
 20
-30.00367580638005
 30
0.0
  0
VERTEX
  5
2C6
  8
LAYER_1
 10
-28.61438518986643
 20
-30.07413340649994
 30
0.0
  0
VERTEX
  5
2C7
  8
LAYER_1
 10
-28.40849167058374
 20
-30.12448284415686
 30
0.0
  0
VERTEX
  5
2C8
  8
LAYER_1
 10
-28.19946718142563
 20
-30.15472355216531
 30
0.0
  0
VERTEX
  5
2C9
  8
LAYER_1
 10
-27.9888735558448
 20
-30.16485496333983
 30
0.0
  0
VERTEX
  5
2CA
  8
LAYER_1
 10
-27.77827262729394
 20
-30.15487651049494
 30
0.0
  0
VERTEX
  5
2CB
  8
LAYER_1
 10
-27.56922622922572
 20
-30.12478762644513
 30
0.0
  0
VERTEX
  5
2CC
  8
LAYER_1
 10
-27.36329619509283
 20
-30.07458774400495
 30
0.0
  0
VERTEX
  5
2CD
  8
LAYER_1
 10
-27.16204435834796
 20
-30.0042762959889
 30
0.0
  0
VERTEX
  5
2CE
  8
LAYER_1
 10
-26.9670325524438
 20
-29.91385271521151
 30
0.0
  0
VERTEX
  5
2CF
  8
LAYER_1
 10
-26.77982261083302
 20
-29.80331643448728
 30
0.0
  0
VERTEX
  5
2D0
  8
LAYER_1
 10
-26.60197636696831
 20
-29.67266688663075
 30
0.0
  0
VERTEX
  5
2D1
  8
LAYER_1
 10
-26.43505565430237
 20
-29.52190350445642
 30
0.0
  0
VERTEX
  5
2D2
  8
LAYER_1
 10
-26.28417107618539
 20
-29.35509233634106
 30
0.0
  0
VERTEX
  5
2D3
  8
LAYER_1
 10
-26.15339239178947
 20
-29.17734103108686
 30
0.0
  0
VERTEX
  5
2D4
  8
LAYER_1
 10
-26.04272016830007
 20
-28.99021142214651
 30
0.0
  0
VERTEX
  5
2D5
  8
LAYER_1
 10
-25.95215497290269
 20
-28.79526534297269
 30
0.0
  0
VERTEX
  5
2D6
  8
LAYER_1
 10
-25.8816973727828
 20
-28.59406462701809
 30
0.0
  0
VERTEX
  5
2D7
  8
LAYER_1
 10
-25.83134793512588
 20
-28.3881711077354
 30
0.0
  0
VERTEX
  5
2D8
  8
LAYER_1
 10
-25.80110722711742
 20
-28.1791466185773
 30
0.0
  0
VERTEX
  5
2D9
  8
LAYER_1
 10
-25.7909758159429
 20
-27.96855299299647
 30
0.0
  0
VERTEX
  5
2DA
  8
LAYER_1
 10
-25.80095426878781
 20
-27.7579520644456
 30
0.0
  0
VERTEX
  5
2DB
  8
LAYER_1
 10
-25.8310431528376
 20
-27.54890566637739
 30
0.0
  0
VERTEX
  5
2DC
  8
LAYER_1
 10
-25.88124303527778
 20
-27.3429756322445
 30
0.0
  0
VERTEX
  5
2DD
  8
LAYER_1
 10
-25.95155448329383
 20
-27.14172379549963
 30
0.0
  0
VERTEX
  5
2DE
  8
LAYER_1
 10
-26.04197806407123
 20
-26.94671198959546
 30
0.0
  0
VERTEX
  5
2DF
  8
LAYER_1
 10
-26.15251434479545
 20
-26.75950204798469
 30
0.0
  0
VERTEX
  5
2E0
  8
LAYER_1
 10
-26.28316389265198
 20
-26.58165580411998
 30
0.0
  0
SEQEND
  5
2E1
  8
LAYER_1
  0
POLYLINE
  5
46
  8
LAYER_1
 66
     1
 10
0.0
 20
0.0
 30
0.0
 70
     1
  0
VERTEX
  5
2E2
  8
LAYER_1
 10
-26.41360671197798
 20
29.5410956878287
 30
0.0
  0
VERTEX
  5
2E3
  8
LAYER_1
 10
-26.58041788009334
 20
29.69198026594567
 30
0.0
  0
VERTEX
  5
2E4
  8
LAYER_1
 10
-26.75816918534754
 20
29.8227589503416
 30
0.0
  0
VERTEX
  5
2E5
  8
LAYER_1
 10
-26.94529879428789
 20
29.933431173831
 30
0.0
  0
VERTEX
  5
2E6
  8
LAYER_1
 10
-27.14024487346171
 20
30.02399636922838
 30
0.0
  0
VERTEX
  5
2E7
  8
LAYER_1
 10
-27.34144558941631
 20
30.09445396934827
 30
0.0
  0
VERTEX
  5
2E8
  8
LAYER_1
 10
-27.547339108699
 20
30.14480340700518
 30
0.0
  0
VERTEX
  5
2E9
  8
LAYER_1
 10
-27.75636359785711
 20
30.17504411501364
 30
0.0
  0
VERTEX
  5
2EA
  8
LAYER_1
 10
-27.96695722343793
 20
30.18517552618817
 30
0.0
  0
VERTEX
  5
2EB
  8
LAYER_1
 10
-28.1775581519888
 20
30.17519707334327
 30
0.0
  0
VERTEX
  5
2EC
  8
LAYER_1
 10
-28.38660455005702
 20
30.14510818929347
 30
0.0
  0
VERTEX
  5
2ED
  8
LAYER_1
 10
-28.59253458418991
 20
30.09490830685328
 30
0.0
  0
VERTEX
  5
2EE
  8
LAYER_1
 10
-28.79378642093478
 20
30.02459685883723
 30
0.0
  0
VERTEX
  5
2EF
  8
LAYER_1
 10
-28.98879822683895
 20
29.93417327805984
 30
0.0
  0
VERTEX
  5
2F0
  8
LAYER_1
 10
-29.17600816844973
 20
29.82363699733562
 30
0.0
  0
VERTEX
  5
2F1
  8
LAYER_1
 10
-29.35385441231443
 20
29.69298744947908
 30
0.0
  0
VERTEX
  5
2F2
  8
LAYER_1
 10
-29.52077512498037
 20
29.54222406730475
 30
0.0
  0
VERTEX
  5
2F3
  8
LAYER_1
 10
-29.67165970309735
 20
29.37541289918939
 30
0.0
  0
VERTEX
  5
2F4
  8
LAYER_1
 10
-29.80243838749328
 20
29.19766159393519
 30
0.0
  0
VERTEX
  5
2F5
  8
LAYER_1
 10
-29.91311061098267
 20
29.01053198499484
 30
0.0
  0
VERTEX
  5
2F6
  8
LAYER_1
 10
-30.00367580638005
 20
28.81558590582102
 30
0.0
  0
VERTEX
  5
2F7
  8
LAYER_1
 10
-30.07413340649994
 20
28.61438518986643
 30
0.0
  0
VERTEX
  5
2F8
  8
LAYER_1
 10
-30.12448284415686
 20
28.40849167058374
 30
0.0
  0
VERTEX
  5
2F9
  8
LAYER_1
 10
-30.15472355216531
 20
28.19946718142563
 30
0.0
  0
VERTEX
  5
2FA
  8
LAYER_1
 10
-30.16485496333983
 20
27.9888735558448
 30
0.0
  0
VERTEX
  5
2FB
  8
LAYER_1
 10
-30.15487651049494
 20
27.77827262729394
 30
0.0
  0
VERTEX
  5
2FC
  8
LAYER_1
 10
-30.12478762644513
 20
27.56922622922572
 30
0.0
  0
VERTEX
  5
2FD
  8
LAYER_1
 10
-30.07458774400495
 20
27.36329619509283
 30
0.0
  0
VERTEX
  5
2FE
  8
LAYER_1
 10
-30.0042762959889
 20
27.16204435834796
 30
0.0
  0
VERTEX
  5
2FF
  8
LAYER_1
 10
-29.91385271521151
 20
26.9670325524438
 30
0.0
  0
VERTEX
  5
300
  8
LAYER_1
 10
-29.80331643448728
 20
26.77982261083302
 30
0.0
  0
VERTEX
  5
301
  8
LAYER_1
 10
-29.67266688663075
 20
26.60197636696831
 30
0.0
  0
VERTEX
  5
302
  8
LAYER_1
 10
-29.52190350445642
 20
26.43505565430237
 30
0.0
  0
VERTEX
  5
303
  8
LAYER_1
 10
-29.35509233634106
 20
26.28417107618539
 30
0.0
  0
VERTEX
  5
304
  8
LAYER_1
 10
-29.17734103108686
 20
26.15339239178947
 30
0.0
  0
VERTEX
  5
305
  8
LAYER_1
 10
-28.99021142214651
 20
26.04272016830007
 30
0.0
  0
VERTEX
  5
306
  8
LAYER_1
 10
-28.79526534297269
 20
25.95215497290269
 30
0.0
  0
VERTEX
  5
307
  8
LAYER_1
 10
-28.59406462701809
 20
25.8816973727828
 30
0.0
  0
VERTEX
  5
308
  8
LAYER_1
 10
-28.3881711077354
 20
25.83134793512588
 30
0.0
  0
VERTEX
  5
309
  8
LAYER_1
 10
-28.1791466185773
 20
25.80110722711742
 30
0.0
  0
VERTEX
  5
30A
  8
LAYER_1
 10
-27.96855299299647
 20
25.7909758159429
 30
0.0
  0
VERTEX
  5
30B
  8
LAYER_1
 10
-27.7579520644456
 20
25.80095426878781
 30
0.0
  0
VERTEX
  5
30C
  8
LAYER_1
 10
-27.54890566637739
 20
25.8310431528376
 30
0.0
  0
VERTEX
  5
30D
  8
LAYER_1
 10
-27.3429756322445
 20
25.88124303527778
 30
0.0
  0
VERTEX
  5
30E
  8
LAYER_1
 10
-27.14172379549963
 20
25.95155448329383
 30
0.0
  0
VERTEX
  5
30F
  8
LAYER_1
 10
-26.94671198959546
 20
26.04197806407123
 30
0.0
  0
VERTEX
  5
310
  8
LAYER_1
 10
-26.75950204798469
 20
26.15251434479545
 30
0.0
  0
VERTEX
  5
311
  8
LAYER_1
 10
-26.58165580411998
 20
26.28316389265198
 30
0.0
  0
VERTEX
  5
312
  8
LAYER_1
 10
-26.41473509145404
 20
26.43392727482631
 30
0.0
  0
VERTEX
  5
313
  8
LAYER_1
 10
-26.26385051333706
 20
26.60073844294168
 30
0.0
  0
VERTEX
  5
314
  8
LAYER_1
 10
-26.13307182894114
 20
26.77848974819587
 30
0.0
  0
VERTEX
  5
315
  8
LAYER_1
 10
-26.02239960545174
 20
26.96561935713623
 30
0.0
  0
VERTEX
  5
316
  8
LAYER_1
 10
-25.93183441005436
 20
27.16056543631004
 30
0.0
  0
VERTEX
  5
317
  8
LAYER_1
 10
-25.86137680993447
 20
27.36176615226464
 30
0.0
  0
VERTEX
  5
318
  8
LAYER_1
 10
-25.81102737227755
 20
27.56765967154733
 30
0.0
  0
VERTEX
  5
319
  8
LAYER_1
 10
-25.78078666426909
 20
27.77668416070544
 30
0.0
  0
VERTEX
  5
31A
  8
LAYER_1
 10
-25.77065525309457
 20
27.98727778628626
 30
0.0
  0
VERTEX
  5
31B
  8
LAYER_1
 10
-25.78063370593947
 20
28.19787871483713
 30
0.0
  0
VERTEX
  5
31C
  8
LAYER_1
 10
-25.81072258998928
 20
28.40692511290535
 30
0.0
  0
VERTEX
  5
31D
  8
LAYER_1
 10
-25.86092247242946
 20
28.61285514703824
 30
0.0
  0
VERTEX
  5
31E
  8
LAYER_1
 10
-25.93123392044551
 20
28.81410698378311
 30
0.0
  0
VERTEX
  5
31F
  8
LAYER_1
 10
-26.0216575012229
 20
29.00911878968727
 30
0.0
  0
VERTEX
  5
320
  8
LAYER_1
 10
-26.13219378194712
 20
29.19632873129805
 30
0.0
  0
VERTEX
  5
321
  8
LAYER_1
 10
-26.26284332980366
 20
29.37417497516276
 30
0.0
  0
SEQEND
  5
322
  8
LAYER_1
  0
ENDSEC
  0
EOF
